M48
INCH,TZ
T11C0.050
T12C0.100
T15C0.060
T23C0.200
T25C0.035
T26C0.028
T27C0.038
T28C0.048
T29C0.030
T32C0.040
T45C0.051
T46C0.047
T51C0.125
%
T26
X044500Y017000
X047500Y017000
X044500Y016000
X044500Y015000
X047500Y015000
X047500Y016000
T29
X028950Y006500
X028950Y002750
T25
X039100Y020300
X039100Y022300
X037500Y028500
X037500Y030500
T27
X044000Y018500
X048000Y018500
X046000Y024500
X046000Y025500
X047000Y024500
X047000Y025500
X048000Y024500
X048000Y025500
T32
X039283Y028676
X043283Y028676
X041905Y032491
X037905Y032491
X041290Y020031
X041290Y024031
X037249Y024156
X037249Y020156
T46
X022886Y005714
X013752Y005714
T28
X025416Y003936
X035591Y010119
X025416Y011936
X037072Y012652
X040784Y009145
X035591Y018119
X045072Y012652
X048784Y009145
T11
X028947Y031891
X028947Y027891
X029101Y019850
X029101Y015850
T45
X006500Y005000
X003000Y018500
X003000Y013500
X003000Y008500
X011000Y005000
T15
X038000Y007500
X038000Y006500
X038000Y005500
X034700Y031200
X034700Y030200
X034700Y029200
X035000Y022500
X035000Y021500
X035000Y020500
X015600Y033400
X017600Y033400
X018000Y030000
X015500Y030000
X013600Y033400
X013000Y030000
X011600Y033400
X010500Y030000
X010500Y017000
X013000Y017000
X015500Y017000
X018000Y017000
T12
X007500Y013500
X010500Y013500
X017970Y013500
X020970Y013500
T51
X002500Y032500
X047500Y032500
X002500Y002500
X047500Y002500
T23
X023700Y023500
X004800Y023500
M30
