G04 start of page 7 for group -4079 idx -4079
G04 Title: highvoltage, topsilk *
G04 Creator: pcb 20080202 *
G04 CreationDate: Tue 19 Jan 2010 11:46:02 PM GMT UTC *
G04 For: srussell *
G04 Format: Gerber/RS-274X *
G04 PCB-Dimensions: 510000 350000 *
G04 PCB-Coordinate-Origin: lower left *
%MOIN*%
%FSLAX24Y24*%
%LNFRONTSILK*%
%ADD14C,0.0200*%
%ADD47C,0.0100*%
%ADD48C,0.0080*%
G54D47*X5900Y31500D02*Y31300D01*
X5850Y31250D01*
X5750D02*X5850D01*
X5700Y31300D02*X5750Y31250D01*
X5700Y31450D02*Y31300D01*
X5500Y31450D02*X5900D01*
X5700D02*X5500Y31250D01*
Y31079D02*Y30929D01*
X5550Y31129D02*X5500Y31079D01*
X5550Y31129D02*X5650D01*
X5700Y31079D01*
Y30979D01*
X5650Y30929D01*
X5600Y31129D02*Y30929D01*
X5650D01*
X5600Y30809D02*X5700D01*
X5600D02*X5500Y30709D01*
X5600Y30609D01*
X5700D01*
X5500Y30309D02*X5850D01*
X5900Y30259D01*
Y30109D01*
X5850Y30059D01*
X5500D02*X5850D01*
X5700Y30309D02*Y30059D01*
X5850Y29759D02*X5900Y29709D01*
Y29559D01*
X5850Y29509D01*
X5750D02*X5850D01*
X5500Y29759D02*X5750Y29509D01*
X5500Y29759D02*Y29509D01*
X5550Y29389D02*X5500Y29339D01*
X5550Y29389D02*X5850D01*
X5900Y29339D01*
Y29239D01*
X5850Y29189D01*
X5550D02*X5850D01*
X5500Y29239D02*X5550Y29189D01*
X5500Y29339D02*Y29239D01*
X5600Y29389D02*X5800Y29189D01*
X5500Y29019D02*Y28919D01*
Y28969D02*X5900D01*
X5800Y29069D02*X5900Y28969D01*
X5550Y28799D02*X5500Y28749D01*
X5550Y28799D02*X5850D01*
X5900Y28749D01*
Y28649D01*
X5850Y28599D01*
X5550D02*X5850D01*
X5500Y28649D02*X5550Y28599D01*
X5500Y28749D02*Y28649D01*
X5600Y28799D02*X5800Y28599D01*
X29300Y6850D02*Y2400D01*
X28600D02*X29300D01*
X28600Y6850D02*Y2400D01*
Y6850D02*X29300D01*
X10000Y5000D02*G75*G03X10000Y5000I1000J0D01*G01*
X13619Y5714D02*G75*G03X13619Y5714I4700J0D01*G01*
X17239D02*G75*G03X17239Y5714I1080J0D01*G01*
X5500Y5000D02*G75*G03X5500Y5000I1000J0D01*G01*
X2000Y8500D02*G75*G03X2000Y8500I1000J0D01*G01*
X25416Y5086D02*Y4536D01*
X24266Y5086D02*X26566D01*
Y10786D02*Y5086D01*
X24266Y10786D02*X26566D01*
X24266D02*Y5086D01*
X25416Y11436D02*Y10786D01*
X29101Y22450D02*Y22050D01*
X28901Y22250D02*X29301D01*
X29101Y13650D02*Y13250D01*
Y21850D02*G75*G03X29101Y21850I0J-4000D01*G01*
G54D48*X5750Y15250D02*Y11750D01*
X22750D01*
Y15250D01*
X5750D01*
X6250Y15000D02*Y12000D01*
X12000D01*
Y15000D01*
X6250D01*
X22250D02*Y12000D01*
X16500D01*
Y15000D01*
X22250D01*
G54D47*X2000Y18500D02*G75*G03X2000Y18500I1000J0D01*G01*
Y13500D02*G75*G03X2000Y13500I1000J0D01*G01*
X9500Y31000D02*Y16000D01*
Y31000D02*X19000D01*
Y16000D01*
X9500D02*X19000D01*
X4300Y18650D02*X24300D01*
Y28650D02*Y18650D01*
X4300Y28650D02*X24300D01*
X4300D02*Y18650D01*
X28947Y34491D02*Y34091D01*
X28747Y34291D02*X29147D01*
X28947Y25691D02*Y25291D01*
Y33891D02*G75*G03X28947Y33891I0J-4000D01*G01*
X39283Y28676D02*X40613D01*
X41953D02*X43283D01*
X40613D02*X41953Y29336D01*
Y28016D01*
X40613Y28676D01*
Y29336D02*Y28016D01*
X40575Y32491D02*X41905D01*
X37905D02*X39235D01*
X40575D02*X39235Y31831D01*
Y33151D02*Y31831D01*
Y33151D02*X40575Y32491D01*
Y33151D02*Y31831D01*
X37000Y28000D02*X38000D01*
Y31000D02*Y28000D01*
X37000Y31000D02*X38000D01*
X37000D02*Y28000D01*
G54D14*X35900Y32200D02*Y28200D01*
X34100D02*X35900D01*
X34100Y32200D02*Y28200D01*
Y32200D02*X35900D01*
Y28200D01*
X35300D02*X35900D01*
X35300Y32200D02*Y28200D01*
Y32200D02*X35900D01*
G54D47*X35300Y30900D02*X35900D01*
X35300Y29500D02*X35900D01*
X10850Y34150D02*X18350D01*
Y32400D01*
X10900D02*X18350D01*
X10850Y34150D02*Y32400D01*
X18350Y33150D02*X17600Y32400D01*
G54D14*X39200Y8500D02*Y4500D01*
X37400D02*X39200D01*
X37400Y8500D02*Y4500D01*
Y8500D02*X39200D01*
Y4500D01*
X38600D02*X39200D01*
X38600Y8500D02*Y4500D01*
Y8500D02*X39200D01*
G54D47*X38600Y7200D02*X39200D01*
X38600Y5800D02*X39200D01*
X35591Y11269D02*Y10719D01*
X34441Y11269D02*X36741D01*
Y16969D02*Y11269D01*
X34441Y16969D02*X36741D01*
X34441D02*Y11269D01*
X35591Y17619D02*Y16969D01*
G54D14*X36200Y23500D02*Y19500D01*
X34400D02*X36200D01*
X34400Y23500D02*Y19500D01*
Y23500D02*X36200D01*
Y19500D01*
X35600D02*X36200D01*
X35600Y23500D02*Y19500D01*
Y23500D02*X36200D01*
G54D47*X35600Y22200D02*X36200D01*
X35600Y20800D02*X36200D01*
X37249Y24156D02*Y22826D01*
Y21486D02*Y20156D01*
Y22826D02*X37909Y21486D01*
X36589D02*X37909D01*
X36589D02*X37249Y22826D01*
X36589D02*X37909D01*
X38600Y19800D02*X39600D01*
Y22800D02*Y19800D01*
X38600Y22800D02*X39600D01*
X38600D02*Y19800D01*
X45500Y24000D02*X48500D01*
Y26000D02*Y24000D01*
X45500Y26000D02*X48500D01*
X45500D02*Y24000D01*
X46500Y25000D02*Y24000D01*
X45500Y25000D02*X46500D01*
X41290Y21361D02*Y20031D01*
Y24031D02*Y22701D01*
Y21361D02*X40630Y22701D01*
X41950D01*
X41290Y21361D01*
X40630D02*X41950D01*
X44000Y17500D02*Y14500D01*
X48000D01*
Y17500D01*
X44000D02*X45500D01*
X46500D02*X48000D01*
X45500D02*G75*G03X46500Y17500I500J0D01*G01*
G54D14*X45000Y19000D02*X47000D01*
Y18000D01*
X45000D02*X47000D01*
X45000Y19000D02*Y18000D01*
X44000Y18500D02*X45000D01*
X47000D02*X48000D01*
G54D47*X43922Y12652D02*X44472D01*
X43922Y13802D02*Y11502D01*
X38222Y13802D02*X43922D01*
X38222D02*Y11502D01*
X43922D01*
X37572Y12652D02*X38222D01*
X47634Y9145D02*X48184D01*
X47634Y10295D02*Y7995D01*
X41934Y10295D02*X47634D01*
X41934D02*Y7995D01*
X47634D01*
X41284Y9145D02*X41934D01*
X17600Y33850D02*Y33500D01*
Y33850D02*X17550Y33900D01*
X17450D02*X17550D01*
X17450D02*X17400Y33850D01*
Y33500D01*
X17129Y33900D02*X17229D01*
X17179D02*Y33500D01*
X17279Y33600D02*X17179Y33500D01*
X17009Y33850D02*X16959Y33900D01*
X17009Y33850D02*Y33550D01*
X16959Y33500D01*
X16859D02*X16959D01*
X16859D02*X16809Y33550D01*
Y33850D02*Y33550D01*
X16859Y33900D02*X16809Y33850D01*
X16859Y33900D02*X16959D01*
X17009Y33800D02*X16809Y33600D01*
X16539Y33900D02*X16639D01*
X16589D02*Y33500D01*
X16689Y33600D02*X16589Y33500D01*
X27950Y4000D02*Y3850D01*
X28000Y4050D02*X27950Y4000D01*
X28000Y4050D02*X28300D01*
X28350Y4000D01*
Y3850D01*
X28300Y3729D02*X28350Y3679D01*
Y3529D01*
X28300Y3479D01*
X28200D02*X28300D01*
X27950Y3729D02*X28200Y3479D01*
X27950Y3729D02*Y3479D01*
X28000Y3359D02*X27950Y3309D01*
X28000Y3359D02*X28300D01*
X28350Y3309D01*
Y3209D01*
X28300Y3159D01*
X28000D02*X28300D01*
X27950Y3209D02*X28000Y3159D01*
X27950Y3309D02*Y3209D01*
X28050Y3359D02*X28250Y3159D01*
X27950Y2989D02*Y2889D01*
Y2939D02*X28350D01*
X28250Y3039D02*X28350Y2939D01*
X26016Y4686D02*X26316D01*
X26391Y4611D01*
Y4461D01*
X26316Y4386D02*X26391Y4461D01*
X26091Y4386D02*X26316D01*
X26091Y4686D02*Y4086D01*
Y4386D02*X26391Y4086D01*
X26571Y4611D02*X26646Y4686D01*
X26871D01*
X26946Y4611D01*
Y4461D01*
X26571Y4086D02*X26946Y4461D01*
X26571Y4086D02*X26946D01*
X27126Y4161D02*X27201Y4086D01*
X27126Y4611D02*Y4161D01*
Y4611D02*X27201Y4686D01*
X27351D01*
X27426Y4611D01*
Y4161D01*
X27351Y4086D02*X27426Y4161D01*
X27201Y4086D02*X27351D01*
X27126Y4236D02*X27426Y4536D01*
X27606Y4611D02*X27681Y4686D01*
X27831D01*
X27906Y4611D01*
Y4161D01*
X27831Y4086D02*X27906Y4161D01*
X27681Y4086D02*X27831D01*
X27606Y4161D02*X27681Y4086D01*
Y4386D02*X27906D01*
X9310Y7000D02*Y6600D01*
X9560Y7000D02*Y6600D01*
X9310Y6800D02*X9560D01*
X9680Y6950D02*X9730Y7000D01*
X9880D01*
X9930Y6950D01*
Y6850D01*
X9680Y6600D02*X9930Y6850D01*
X9680Y6600D02*X9930D01*
X10050Y6650D02*X10100Y6600D01*
X10050Y6950D02*Y6650D01*
Y6950D02*X10100Y7000D01*
X10200D01*
X10250Y6950D01*
Y6650D01*
X10200Y6600D02*X10250Y6650D01*
X10100Y6600D02*X10200D01*
X10050Y6700D02*X10250Y6900D01*
X10370Y6950D02*X10420Y7000D01*
X10570D01*
X10620Y6950D01*
Y6850D01*
X10370Y6600D02*X10620Y6850D01*
X10370Y6600D02*X10620D01*
X13652Y5714D02*Y5314D01*
X13852D01*
X13972Y5664D02*X14022Y5714D01*
X14172D01*
X14222Y5664D01*
Y5564D01*
X13972Y5314D02*X14222Y5564D01*
X13972Y5314D02*X14222D01*
X14342Y5364D02*X14392Y5314D01*
X14342Y5664D02*Y5364D01*
Y5664D02*X14392Y5714D01*
X14492D01*
X14542Y5664D01*
Y5364D01*
X14492Y5314D02*X14542Y5364D01*
X14392Y5314D02*X14492D01*
X14342Y5414D02*X14542Y5614D01*
X14713Y5314D02*X14813D01*
X14763Y5714D02*Y5314D01*
X14663Y5614D02*X14763Y5714D01*
X4810Y7000D02*Y6600D01*
X5060Y7000D02*Y6600D01*
X4810Y6800D02*X5060D01*
X5180Y6950D02*X5230Y7000D01*
X5380D01*
X5430Y6950D01*
Y6850D01*
X5180Y6600D02*X5430Y6850D01*
X5180Y6600D02*X5430D01*
X5550Y6650D02*X5600Y6600D01*
X5550Y6950D02*Y6650D01*
Y6950D02*X5600Y7000D01*
X5700D01*
X5750Y6950D01*
Y6650D01*
X5700Y6600D02*X5750Y6650D01*
X5600Y6600D02*X5700D01*
X5550Y6700D02*X5750Y6900D01*
X5920Y6600D02*X6020D01*
X5970Y7000D02*Y6600D01*
X5870Y6900D02*X5970Y7000D01*
X7500Y13400D02*Y13000D01*
Y13400D02*X7700D01*
X7500Y13200D02*X7650D01*
X7870Y13000D02*X7970D01*
X7920Y13400D02*Y13000D01*
X7820Y13300D02*X7920Y13400D01*
X8090Y13050D02*X8140Y13000D01*
X8090Y13350D02*Y13050D01*
Y13350D02*X8140Y13400D01*
X8240D01*
X8290Y13350D01*
Y13050D01*
X8240Y13000D02*X8290Y13050D01*
X8140Y13000D02*X8240D01*
X8090Y13100D02*X8290Y13300D01*
X8460Y13000D02*X8560D01*
X8510Y13400D02*Y13000D01*
X8410Y13300D02*X8510Y13400D01*
X1310Y20500D02*Y20100D01*
X1560Y20500D02*Y20100D01*
X1310Y20300D02*X1560D01*
X1730Y20100D02*X1830D01*
X1780Y20500D02*Y20100D01*
X1680Y20400D02*X1780Y20500D01*
X1950Y20150D02*X2000Y20100D01*
X1950Y20450D02*Y20150D01*
Y20450D02*X2000Y20500D01*
X2100D01*
X2150Y20450D01*
Y20150D01*
X2100Y20100D02*X2150Y20150D01*
X2000Y20100D02*X2100D01*
X1950Y20200D02*X2150Y20400D01*
X2270Y20450D02*X2320Y20500D01*
X2470D01*
X2520Y20450D01*
Y20350D01*
X2270Y20100D02*X2520Y20350D01*
X2270Y20100D02*X2520D01*
X1310Y15500D02*Y15100D01*
X1560Y15500D02*Y15100D01*
X1310Y15300D02*X1560D01*
X1730Y15100D02*X1830D01*
X1780Y15500D02*Y15100D01*
X1680Y15400D02*X1780Y15500D01*
X1950Y15150D02*X2000Y15100D01*
X1950Y15450D02*Y15150D01*
Y15450D02*X2000Y15500D01*
X2100D01*
X2150Y15450D01*
Y15150D01*
X2100Y15100D02*X2150Y15150D01*
X2000Y15100D02*X2100D01*
X1950Y15200D02*X2150Y15400D01*
X2270Y15450D02*X2320Y15500D01*
X2420D01*
X2470Y15450D01*
Y15150D01*
X2420Y15100D02*X2470Y15150D01*
X2320Y15100D02*X2420D01*
X2270Y15150D02*X2320Y15100D01*
Y15300D02*X2470D01*
X1310Y10500D02*Y10100D01*
X1560Y10500D02*Y10100D01*
X1310Y10300D02*X1560D01*
X1730Y10100D02*X1830D01*
X1780Y10500D02*Y10100D01*
X1680Y10400D02*X1780Y10500D01*
X1950Y10150D02*X2000Y10100D01*
X1950Y10450D02*Y10150D01*
Y10450D02*X2000Y10500D01*
X2100D01*
X2150Y10450D01*
Y10150D01*
X2100Y10100D02*X2150Y10150D01*
X2000Y10100D02*X2100D01*
X1950Y10200D02*X2150Y10400D01*
X2320Y10100D02*X2420D01*
X2370Y10500D02*Y10100D01*
X2270Y10400D02*X2370Y10500D01*
X10600Y17200D02*Y17000D01*
Y17100D02*X11000D01*
Y17470D02*Y17370D01*
X10600Y17420D02*X11000D01*
X10700Y17320D02*X10600Y17420D01*
X10950Y17590D02*X11000Y17640D01*
X10650Y17590D02*X10950D01*
X10650D02*X10600Y17640D01*
Y17740D02*Y17640D01*
Y17740D02*X10650Y17790D01*
X10950D01*
X11000Y17740D02*X10950Y17790D01*
X11000Y17740D02*Y17640D01*
X10900Y17590D02*X10700Y17790D01*
X11000Y18060D02*Y17960D01*
X10600Y18010D02*X11000D01*
X10700Y17910D02*X10600Y18010D01*
X39400Y8450D02*X39800D01*
Y8300D02*X39750Y8250D01*
X39450D02*X39750D01*
X39400Y8300D02*X39450Y8250D01*
X39400Y8500D02*Y8300D01*
X39800Y8500D02*Y8300D01*
X39750Y8129D02*X39800Y8079D01*
Y7929D01*
X39750Y7879D01*
X39650D02*X39750D01*
X39400Y8129D02*X39650Y7879D01*
X39400Y8129D02*Y7879D01*
X39450Y7759D02*X39400Y7709D01*
X39450Y7759D02*X39750D01*
X39800Y7709D01*
Y7609D01*
X39750Y7559D01*
X39450D02*X39750D01*
X39400Y7609D02*X39450Y7559D01*
X39400Y7709D02*Y7609D01*
X39500Y7759D02*X39700Y7559D01*
X39400Y7389D02*Y7289D01*
Y7339D02*X39800D01*
X39700Y7439D02*X39800Y7339D01*
X45750Y16500D02*X46100D01*
X45750D02*X45700Y16450D01*
Y16350D01*
X45750Y16300D01*
X46100D01*
X46050Y16179D02*X46100Y16129D01*
Y15979D01*
X46050Y15929D01*
X45950D02*X46050D01*
X45700Y16179D02*X45950Y15929D01*
X45700Y16179D02*Y15929D01*
X45750Y15809D02*X45700Y15759D01*
X45750Y15809D02*X46050D01*
X46100Y15759D01*
Y15659D01*
X46050Y15609D01*
X45750D02*X46050D01*
X45700Y15659D02*X45750Y15609D01*
X45700Y15759D02*Y15659D01*
X45800Y15809D02*X46000Y15609D01*
X45700Y15439D02*Y15339D01*
Y15389D02*X46100D01*
X46000Y15489D02*X46100Y15389D01*
X36191Y10869D02*X36491D01*
X36566Y10794D01*
Y10644D01*
X36491Y10569D02*X36566Y10644D01*
X36266Y10569D02*X36491D01*
X36266Y10869D02*Y10269D01*
Y10569D02*X36566Y10269D01*
X36821D02*X36971D01*
X36896Y10869D02*Y10269D01*
X36746Y10719D02*X36896Y10869D01*
X37151Y10344D02*X37226Y10269D01*
X37151Y10794D02*Y10344D01*
Y10794D02*X37226Y10869D01*
X37376D01*
X37451Y10794D01*
Y10344D01*
X37376Y10269D02*X37451Y10344D01*
X37226Y10269D02*X37376D01*
X37151Y10419D02*X37451Y10719D01*
X37706Y10269D02*X37856D01*
X37781Y10869D02*Y10269D01*
X37631Y10719D02*X37781Y10869D01*
X32601Y13800D02*Y13650D01*
X32651Y13850D02*X32601Y13800D01*
X32651Y13850D02*X32951D01*
X33001Y13800D01*
Y13650D01*
X32601Y13480D02*Y13380D01*
Y13430D02*X33001D01*
X32901Y13530D02*X33001Y13430D01*
X32651Y13259D02*X32601Y13209D01*
X32651Y13259D02*X32951D01*
X33001Y13209D01*
Y13109D01*
X32951Y13059D01*
X32651D02*X32951D01*
X32601Y13109D02*X32651Y13059D01*
X32601Y13209D02*Y13109D01*
X32701Y13259D02*X32901Y13059D01*
X32951Y12939D02*X33001Y12889D01*
Y12739D01*
X32951Y12689D01*
X32851D02*X32951D01*
X32601Y12939D02*X32851Y12689D01*
X32601Y12939D02*Y12689D01*
X44322Y13552D02*Y13252D01*
Y13552D02*X44397Y13627D01*
X44547D01*
X44622Y13552D02*X44547Y13627D01*
X44622Y13552D02*Y13327D01*
X44322D02*X44922D01*
X44622D02*X44922Y13627D01*
X44397Y13807D02*X44322Y13882D01*
Y14107D02*Y13882D01*
Y14107D02*X44397Y14182D01*
X44547D01*
X44922Y13807D02*X44547Y14182D01*
X44922D02*Y13807D01*
X44847Y14362D02*X44922Y14437D01*
X44397Y14362D02*X44847D01*
X44397D02*X44322Y14437D01*
Y14587D02*Y14437D01*
Y14587D02*X44397Y14662D01*
X44847D01*
X44922Y14587D02*X44847Y14662D01*
X44922Y14587D02*Y14437D01*
X44772Y14362D02*X44472Y14662D01*
X44397Y14842D02*X44322Y14917D01*
Y15142D02*Y14917D01*
Y15142D02*X44397Y15217D01*
X44547D01*
X44922Y14842D02*X44547Y15217D01*
X44922D02*Y14842D01*
X39790Y23925D02*Y23700D01*
X39865Y24000D02*X39790Y23925D01*
X39865Y24000D02*X40315D01*
X40390Y23925D01*
Y23700D01*
X39790Y23444D02*Y23294D01*
Y23369D02*X40390D01*
X40240Y23519D02*X40390Y23369D01*
X39865Y23114D02*X39790Y23039D01*
X39865Y23114D02*X40315D01*
X40390Y23039D01*
Y22889D01*
X40315Y22814D01*
X39865D02*X40315D01*
X39790Y22889D02*X39865Y22814D01*
X39790Y23039D02*Y22889D01*
X39940Y23114D02*X40240Y22814D01*
X40090Y22634D02*X40390Y22334D01*
X40090Y22634D02*Y22259D01*
X39790Y22334D02*X40390D01*
X32447Y25841D02*Y25691D01*
X32497Y25891D02*X32447Y25841D01*
X32497Y25891D02*X32797D01*
X32847Y25841D01*
Y25691D01*
X32447Y25521D02*Y25421D01*
Y25471D02*X32847D01*
X32747Y25571D02*X32847Y25471D01*
X32497Y25301D02*X32447Y25251D01*
X32497Y25301D02*X32797D01*
X32847Y25251D01*
Y25151D01*
X32797Y25101D01*
X32497D02*X32797D01*
X32447Y25151D02*X32497Y25101D01*
X32447Y25251D02*Y25151D01*
X32547Y25301D02*X32747Y25101D01*
X32447Y24931D02*Y24831D01*
Y24881D02*X32847D01*
X32747Y24981D02*X32847Y24881D01*
X39333Y30076D02*Y29676D01*
X39483Y30076D02*X39533Y30026D01*
Y29726D01*
X39483Y29676D02*X39533Y29726D01*
X39283Y29676D02*X39483D01*
X39283Y30076D02*X39483D01*
X39703Y29676D02*X39803D01*
X39753Y30076D02*Y29676D01*
X39653Y29976D02*X39753Y30076D01*
X39923Y29726D02*X39973Y29676D01*
X39923Y30026D02*Y29726D01*
Y30026D02*X39973Y30076D01*
X40073D01*
X40123Y30026D01*
Y29726D01*
X40073Y29676D02*X40123Y29726D01*
X39973Y29676D02*X40073D01*
X39923Y29776D02*X40123Y29976D01*
X40243Y29876D02*X40443Y30076D01*
X40243Y29876D02*X40493D01*
X40443Y30076D02*Y29676D01*
X45550Y26100D02*X45700D01*
X45500Y26150D02*X45550Y26100D01*
X45500Y26450D02*Y26150D01*
Y26450D02*X45550Y26500D01*
X45700D01*
X45820Y26450D02*Y26150D01*
Y26450D02*X45870Y26500D01*
X45970D01*
X46020Y26450D01*
Y26150D01*
X45970Y26100D02*X46020Y26150D01*
X45870Y26100D02*X45970D01*
X45820Y26150D02*X45870Y26100D01*
X46140Y26500D02*Y26100D01*
Y26500D02*Y26450D01*
X46390Y26200D01*
Y26500D02*Y26100D01*
X46510Y26500D02*Y26100D01*
Y26500D02*Y26450D01*
X46760Y26200D01*
Y26500D02*Y26100D01*
X46880Y26450D02*X46930Y26500D01*
X47080D01*
X47130Y26450D01*
Y26350D01*
X46880Y26100D02*X47130Y26350D01*
X46880Y26100D02*X47130D01*
X47250Y26150D02*X47300Y26100D01*
X47250Y26450D02*Y26150D01*
Y26450D02*X47300Y26500D01*
X47400D01*
X47450Y26450D01*
Y26150D01*
X47400Y26100D02*X47450Y26150D01*
X47300Y26100D02*X47400D01*
X47250Y26200D02*X47450Y26400D01*
X47620Y26100D02*X47720D01*
X47670Y26500D02*Y26100D01*
X47570Y26400D02*X47670Y26500D01*
X36450Y23500D02*X36800D01*
X36450D02*X36400Y23450D01*
Y23350D01*
X36450Y23300D01*
X36800D01*
X36400Y23129D02*Y23029D01*
Y23079D02*X36800D01*
X36700Y23179D02*X36800Y23079D01*
X36450Y22909D02*X36400Y22859D01*
X36450Y22909D02*X36750D01*
X36800Y22859D01*
Y22759D01*
X36750Y22709D01*
X36450D02*X36750D01*
X36400Y22759D02*X36450Y22709D01*
X36400Y22859D02*Y22759D01*
X36500Y22909D02*X36700Y22709D01*
X36750Y22589D02*X36800Y22539D01*
Y22439D01*
X36750Y22389D01*
X36450D02*X36750D01*
X36400Y22439D02*X36450Y22389D01*
X36400Y22539D02*Y22439D01*
X36450Y22589D02*X36400Y22539D01*
X36600D02*Y22389D01*
X38249Y24106D02*X38649D01*
Y23956D02*X38599Y23906D01*
X38299D02*X38599D01*
X38249Y23956D02*X38299Y23906D01*
X38249Y24156D02*Y23956D01*
X38649Y24156D02*Y23956D01*
X38249Y23736D02*Y23636D01*
Y23686D02*X38649D01*
X38549Y23786D02*X38649Y23686D01*
X38299Y23516D02*X38249Y23466D01*
X38299Y23516D02*X38599D01*
X38649Y23466D01*
Y23366D01*
X38599Y23316D01*
X38299D02*X38599D01*
X38249Y23366D02*X38299Y23316D01*
X38249Y23466D02*Y23366D01*
X38349Y23516D02*X38549Y23316D01*
X38599Y23196D02*X38649Y23146D01*
Y22996D01*
X38599Y22946D01*
X38499D02*X38599D01*
X38249Y23196D02*X38499Y22946D01*
X38249Y23196D02*Y22946D01*
X41855Y31491D02*Y31091D01*
X41705D02*X41655Y31141D01*
Y31441D02*Y31141D01*
X41705Y31491D02*X41655Y31441D01*
X41705Y31491D02*X41905D01*
X41705Y31091D02*X41905D01*
X41384Y31491D02*X41484D01*
X41434D02*Y31091D01*
X41534Y31191D02*X41434Y31091D01*
X41264Y31441D02*X41214Y31491D01*
X41264Y31441D02*Y31141D01*
X41214Y31091D01*
X41114D02*X41214D01*
X41114D02*X41064Y31141D01*
Y31441D02*Y31141D01*
X41114Y31491D02*X41064Y31441D01*
X41114Y31491D02*X41214D01*
X41264Y31391D02*X41064Y31191D01*
X40794Y31491D02*X40894D01*
X40844D02*Y31091D01*
X40944Y31191D02*X40844Y31091D01*
X38190Y32125D02*Y31900D01*
X38265Y32200D02*X38190Y32125D01*
X38265Y32200D02*X38715D01*
X38790Y32125D01*
Y31900D01*
X38190Y31644D02*Y31494D01*
Y31569D02*X38790D01*
X38640Y31719D02*X38790Y31569D01*
X38265Y31314D02*X38190Y31239D01*
X38265Y31314D02*X38715D01*
X38790Y31239D01*
Y31089D01*
X38715Y31014D01*
X38265D02*X38715D01*
X38190Y31089D02*X38265Y31014D01*
X38190Y31239D02*Y31089D01*
X38340Y31314D02*X38640Y31014D01*
X38715Y30834D02*X38790Y30759D01*
Y30609D01*
X38715Y30534D01*
X38265D02*X38715D01*
X38190Y30609D02*X38265Y30534D01*
X38190Y30759D02*Y30609D01*
X38265Y30834D02*X38190Y30759D01*
X38490D02*Y30534D01*
X36150Y32200D02*X36500D01*
X36150D02*X36100Y32150D01*
Y32050D01*
X36150Y32000D01*
X36500D01*
X36100Y31829D02*Y31729D01*
Y31779D02*X36500D01*
X36400Y31879D02*X36500Y31779D01*
X36150Y31609D02*X36100Y31559D01*
X36150Y31609D02*X36450D01*
X36500Y31559D01*
Y31459D01*
X36450Y31409D01*
X36150D02*X36450D01*
X36100Y31459D02*X36150Y31409D01*
X36100Y31559D02*Y31459D01*
X36200Y31609D02*X36400Y31409D01*
X36450Y31289D02*X36500Y31239D01*
Y31089D01*
X36450Y31039D01*
X36350D02*X36450D01*
X36100Y31289D02*X36350Y31039D01*
X36100Y31289D02*Y31039D01*
X39890Y20081D02*X40290D01*
X39890Y20231D02*X39940Y20281D01*
X40240D01*
X40290Y20231D02*X40240Y20281D01*
X40290Y20231D02*Y20031D01*
X39890Y20231D02*Y20031D01*
X40290Y20551D02*Y20451D01*
X39890Y20501D02*X40290D01*
X39990Y20401D02*X39890Y20501D01*
X40240Y20671D02*X40290Y20721D01*
X39940Y20671D02*X40240D01*
X39940D02*X39890Y20721D01*
Y20821D02*Y20721D01*
Y20821D02*X39940Y20871D01*
X40240D01*
X40290Y20821D02*X40240Y20871D01*
X40290Y20821D02*Y20721D01*
X40190Y20671D02*X39990Y20871D01*
X39940Y20991D02*X39890Y21041D01*
Y21141D02*Y21041D01*
Y21141D02*X39940Y21191D01*
X40240D01*
X40290Y21141D02*X40240Y21191D01*
X40290Y21141D02*Y21041D01*
X40240Y20991D02*X40290Y21041D01*
X40090Y21191D02*Y21041D01*
X45200Y18600D02*X45400D01*
X45450Y18550D01*
Y18450D01*
X45400Y18400D02*X45450Y18450D01*
X45250Y18400D02*X45400D01*
X45250Y18600D02*Y18200D01*
Y18400D02*X45450Y18200D01*
X45570Y18550D02*X45620Y18600D01*
X45770D01*
X45820Y18550D01*
Y18450D01*
X45570Y18200D02*X45820Y18450D01*
X45570Y18200D02*X45820D01*
X45940Y18250D02*X45990Y18200D01*
X45940Y18550D02*Y18250D01*
Y18550D02*X45990Y18600D01*
X46090D01*
X46140Y18550D01*
Y18250D01*
X46090Y18200D02*X46140Y18250D01*
X45990Y18200D02*X46090D01*
X45940Y18300D02*X46140Y18500D01*
X46310Y18200D02*X46410D01*
X46360Y18600D02*Y18200D01*
X46260Y18500D02*X46360Y18600D01*
X48034Y10045D02*Y9745D01*
Y10045D02*X48109Y10120D01*
X48259D01*
X48334Y10045D02*X48259Y10120D01*
X48334Y10045D02*Y9820D01*
X48034D02*X48634D01*
X48334D02*X48634Y10120D01*
X48109Y10300D02*X48034Y10375D01*
Y10600D02*Y10375D01*
Y10600D02*X48109Y10675D01*
X48259D01*
X48634Y10300D02*X48259Y10675D01*
X48634D02*Y10300D01*
X48559Y10855D02*X48634Y10930D01*
X48109Y10855D02*X48559D01*
X48109D02*X48034Y10930D01*
Y11080D02*Y10930D01*
Y11080D02*X48109Y11155D01*
X48559D01*
X48634Y11080D02*X48559Y11155D01*
X48634Y11080D02*Y10930D01*
X48484Y10855D02*X48184Y11155D01*
X48334Y11335D02*X48034Y11635D01*
X48334Y11710D02*Y11335D01*
X48034Y11635D02*X48634D01*
M02*
