G04 start of page 3 for group 1 idx 1
G04 Title: highvoltage, solder *
G04 Creator: pcb 20080202 *
G04 CreationDate: Tue 19 Jan 2010 11:46:02 PM GMT UTC *
G04 For: srussell *
G04 Format: Gerber/RS-274X *
G04 PCB-Dimensions: 510000 350000 *
G04 PCB-Coordinate-Origin: lower left *
%MOIN*%
%FSLAX24Y24*%
%LNBACK*%
%ADD11C,0.0500*%
%ADD12C,0.1000*%
%ADD13C,0.0800*%
%ADD14C,0.0200*%
%ADD15C,0.0600*%
%ADD16C,0.0680*%
%ADD17C,0.0850*%
%ADD18C,0.0900*%
%ADD19C,0.0460*%
%ADD20C,0.1500*%
%ADD21C,0.1150*%
%ADD22C,0.0700*%
%ADD23C,0.2000*%
%ADD24C,0.3000*%
%ADD25C,0.0350*%
%ADD26C,0.0280*%
%ADD27C,0.0380*%
%ADD28C,0.0480*%
%ADD29C,0.0300*%
%ADD30C,0.0508*%
%ADD31C,0.0473*%
%ADD32C,0.0400*%
%ADD34C,0.1050*%
%ADD50C,0.1290*%
%ADD51C,0.1250*%
G54D11*X44156Y20156D02*X47000Y23000D01*
Y24500D01*
X48000D02*Y18500D01*
X47000Y25500D02*Y27396D01*
G54D12*X37249Y25500D02*X34500D01*
X31500Y22500D01*
Y18248D01*
X37249Y25500D02*Y22000D01*
G54D11*X47000Y27396D02*X41905Y32491D01*
X43283Y31113D02*X41905Y32491D01*
X39914Y30500D02*X41905Y32491D01*
X43283Y28676D02*Y31113D01*
X44000Y18500D02*Y17500D01*
X44500Y17000D01*
X47500D02*X46500D01*
X46000Y16500D01*
X48000Y25500D02*X49000D01*
X49500Y25000D01*
Y9861D01*
X48784Y9145D01*
X37249Y20156D02*X44156D01*
G54D12*X33972Y8500D02*X35591Y10119D01*
G54D11*X35000Y20500D02*X36905D01*
X37249Y20156D01*
X35000Y21500D02*X36749D01*
X37249Y22000D01*
X47500Y12000D02*X41000Y5500D01*
X45000Y12724D02*X45072Y12652D01*
G54D12*X37277D02*X40784Y9145D01*
G54D11*X39645D01*
X38000Y7500D01*
Y6500D02*X28950D01*
G54D12*X26602Y2750D02*X25416Y3936D01*
G54D11*X41000Y5500D02*X38000D01*
G54D12*X28950Y2750D02*X26602D01*
G54D11*X47500Y15000D02*Y12000D01*
G54D12*X35500Y13500D02*X36224D01*
X37072Y12652D01*
X37277D01*
G54D11*X46000Y13580D02*X45072Y12652D01*
X46000Y16500D02*Y13580D01*
G54D12*X18000Y17000D02*Y17500D01*
X17970Y13500D02*X35639D01*
X25416Y11936D02*Y13416D01*
X25500Y13500D01*
X17500Y22000D02*X23500Y16000D01*
X28951D01*
X29101Y15850D01*
X31500Y18248D02*X29101Y15850D01*
G54D11*X37905Y32491D02*X35991D01*
X36200Y29200D02*X37500Y30500D01*
X34700Y29200D02*X36200D01*
X28947Y31891D02*X34008D01*
X34700Y31200D01*
X35991Y32491D02*X34700Y31200D01*
G54D12*X17600Y33400D02*X27439D01*
X28947Y31891D01*
X13600Y33400D02*Y33100D01*
X15600Y33400D02*Y32400D01*
X13600Y33100D02*X10500Y30000D01*
X15600Y32400D02*X18000Y30000D01*
G54D11*X37500Y30500D02*X39914D01*
G54D12*X11600Y33400D02*X9900D01*
X8500Y32000D01*
Y29000D01*
X17000Y15500D02*X12351D01*
X3000Y18500D02*X16851D01*
X17619Y14881D02*X15500Y17000D01*
X12500Y15500D02*X12000D01*
X10500Y17000D01*
X13000D02*Y18500D01*
X18000Y17500D02*X17000Y18500D01*
X15500Y22000D02*X17500D01*
X8500Y29000D02*X15500Y22000D01*
X1000Y7000D02*Y16500D01*
G54D34*X3000Y13500D02*X10500D01*
G54D12*X3000Y18500D02*X1000Y16500D01*
X3000Y8500D02*X33972D01*
X17970Y13500D02*Y14881D01*
X28950Y6500D02*X23672D01*
X17970Y14881D02*X17619D01*
X23672Y6500D02*X22886Y5714D01*
X11000Y5000D02*X13038D01*
X6500D02*X3000D01*
X1000Y7000D01*
X13038Y5000D02*X13752Y5714D01*
G54D14*G36*
X37550Y7950D02*Y7050D01*
X38450D01*
Y7950D01*
X37550D01*
G37*
G54D18*X38000Y6500D03*
Y5500D03*
G54D19*X28950Y6500D03*
Y2750D03*
G54D14*G36*
X24991Y4361D02*Y3511D01*
X25841D01*
Y4361D01*
X24991D01*
G37*
G36*
X35166Y10544D02*Y9694D01*
X36016D01*
Y10544D01*
X35166D01*
G37*
G54D17*X25416Y11936D03*
G54D21*X22886Y5714D03*
G54D17*X37072Y12652D03*
X40784Y9145D03*
G54D13*X39100Y20300D03*
Y22300D03*
G54D14*G36*
X38933Y29026D02*Y28326D01*
X39633D01*
Y29026D01*
X38933D01*
G37*
G54D22*X43283Y28676D03*
G54D14*G36*
X41555Y32841D02*Y32141D01*
X42255D01*
Y32841D01*
X41555D01*
G37*
G36*
X28647Y32191D02*Y31591D01*
X29247D01*
Y32191D01*
X28647D01*
G37*
G54D15*X28947Y27891D03*
G54D22*X37905Y32491D03*
G54D13*X37500Y28500D03*
Y30500D03*
G54D14*G36*
X34250Y31650D02*Y30750D01*
X35150D01*
Y31650D01*
X34250D01*
G37*
G54D18*X34700Y30200D03*
Y29200D03*
G54D14*G36*
X40940Y20381D02*Y19681D01*
X41640D01*
Y20381D01*
X40940D01*
G37*
G54D22*X41290Y24031D03*
G54D17*X35591Y18119D03*
G54D14*G36*
X28801Y20150D02*Y19550D01*
X29401D01*
Y20150D01*
X28801D01*
G37*
G54D15*X29101Y15850D03*
G54D14*G36*
X34550Y22950D02*Y22050D01*
X35450D01*
Y22950D01*
X34550D01*
G37*
G54D18*X35000Y21500D03*
Y20500D03*
G54D14*G36*
X36899Y24506D02*Y23806D01*
X37599D01*
Y24506D01*
X36899D01*
G37*
G54D22*X37249Y20156D03*
G54D24*X23700Y23500D03*
G54D21*X15600Y33400D03*
X17600D03*
G54D12*X18000Y30000D03*
X15500D03*
G54D21*X13600Y33400D03*
G54D12*X13000Y30000D03*
G54D21*X11600Y33400D03*
G54D12*X10500Y30000D03*
G54D23*X7500Y13500D03*
G54D20*X6500Y5000D03*
X3000Y18500D03*
Y13500D03*
Y8500D03*
G54D24*X4800Y23500D03*
G54D23*X10500Y13500D03*
G54D20*X11000Y5000D03*
G54D21*X13752Y5714D03*
G54D12*X10500Y17000D03*
X13000D03*
X15500D03*
G54D23*X17970Y13500D03*
X20970D03*
G54D12*X18000Y17000D03*
G54D14*G36*
X44200Y17300D02*Y16700D01*
X44800D01*
Y17300D01*
X44200D01*
G37*
G54D15*X47500Y17000D03*
G54D14*G36*
X43660Y18840D02*Y18160D01*
X44340D01*
Y18840D01*
X43660D01*
G37*
G54D16*X48000Y18500D03*
G54D15*X44500Y16000D03*
Y15000D03*
X47500D03*
Y16000D03*
G54D14*G36*
X45700Y24800D02*Y24200D01*
X46300D01*
Y24800D01*
X45700D01*
G37*
G54D15*X46000Y25500D03*
X47000Y24500D03*
Y25500D03*
X48000Y24500D03*
Y25500D03*
G54D14*G36*
X44647Y13077D02*Y12227D01*
X45497D01*
Y13077D01*
X44647D01*
G37*
G36*
X48359Y9570D02*Y8720D01*
X49209D01*
Y9570D01*
X48359D01*
G37*
G54D50*X2500Y32500D03*
X47500D03*
X2500Y2500D03*
X47500D03*
G54D15*G54D29*G54D28*G54D31*G54D28*G54D25*G54D32*G54D11*G54D32*G54D25*G54D15*G54D32*G54D28*G54D11*G54D15*G54D32*G54D23*G54D15*G54D12*G54D30*G54D23*G54D12*G54D30*G54D31*G54D15*G54D12*G54D15*G54D26*G54D27*G54D26*G54D27*G54D28*G54D51*M02*
