G04 start of page 2 for group 0 idx 0
G04 Title: highvoltage, component *
G04 Creator: pcb 20080202 *
G04 CreationDate: Tue 19 Jan 2010 11:46:01 PM GMT UTC *
G04 For: srussell *
G04 Format: Gerber/RS-274X *
G04 PCB-Dimensions: 510000 350000 *
G04 PCB-Coordinate-Origin: lower left *
%MOIN*%
%FSLAX24Y24*%
%LNFRONT*%
%ADD11C,0.0500*%
%ADD12C,0.1000*%
%ADD13C,0.0800*%
%ADD14C,0.0200*%
%ADD15C,0.0600*%
%ADD16C,0.0680*%
%ADD17C,0.0850*%
%ADD18C,0.0900*%
%ADD19C,0.0460*%
%ADD20C,0.1500*%
%ADD21C,0.1150*%
%ADD22C,0.0700*%
%ADD23C,0.2000*%
%ADD24C,0.3000*%
%ADD25C,0.0350*%
%ADD26C,0.0280*%
%ADD27C,0.0380*%
%ADD28C,0.0480*%
%ADD29C,0.0300*%
%ADD30C,0.0508*%
%ADD31C,0.0473*%
%ADD32C,0.0400*%
%ADD50C,0.1290*%
%ADD51C,0.1250*%
G54D14*G36*
X0Y0D02*Y35000D01*
X1805D01*
Y32951D01*
X1796Y32947D01*
X1782Y32936D01*
X1770Y32924D01*
X1760Y32909D01*
X1725Y32838D01*
X1697Y32765D01*
X1676Y32688D01*
X1662Y32611D01*
X1655Y32532D01*
X1656Y32453D01*
X1664Y32374D01*
X1679Y32296D01*
X1702Y32221D01*
X1731Y32147D01*
X1768Y32077D01*
X1778Y32063D01*
X1790Y32050D01*
X1804Y32040D01*
X1805Y32040D01*
Y2951D01*
X1796Y2947D01*
X1782Y2936D01*
X1770Y2924D01*
X1760Y2909D01*
X1725Y2838D01*
X1697Y2765D01*
X1676Y2688D01*
X1662Y2611D01*
X1655Y2532D01*
X1656Y2453D01*
X1664Y2374D01*
X1679Y2296D01*
X1702Y2221D01*
X1731Y2147D01*
X1768Y2077D01*
X1778Y2063D01*
X1790Y2050D01*
X1804Y2040D01*
X1805Y2040D01*
Y0D01*
X0D01*
G37*
G36*
X1805Y35000D02*X2494D01*
Y33344D01*
X2453Y33343D01*
X2374Y33335D01*
X2296Y33320D01*
X2221Y33297D01*
X2147Y33268D01*
X2077Y33231D01*
X2063Y33221D01*
X2050Y33209D01*
X2040Y33195D01*
X2033Y33179D01*
X2029Y33162D01*
X2027Y33145D01*
X2029Y33127D01*
X2033Y33111D01*
X2040Y33095D01*
X2050Y33080D01*
X2063Y33068D01*
X2077Y33058D01*
X2093Y33051D01*
X2110Y33046D01*
X2127Y33045D01*
X2144Y33046D01*
X2161Y33051D01*
X2177Y33058D01*
X2231Y33086D01*
X2287Y33108D01*
X2344Y33126D01*
X2404Y33137D01*
X2464Y33144D01*
X2494Y33144D01*
Y31855D01*
X2475Y31855D01*
X2415Y31860D01*
X2355Y31871D01*
X2297Y31887D01*
X2241Y31909D01*
X2187Y31935D01*
X2187Y31936D01*
X2171Y31943D01*
X2154Y31947D01*
X2137Y31948D01*
X2119Y31946D01*
X2102Y31941D01*
X2087Y31934D01*
X2073Y31924D01*
X2061Y31911D01*
X2051Y31897D01*
X2044Y31881D01*
X2040Y31864D01*
X2038Y31846D01*
X2040Y31829D01*
X2045Y31812D01*
X2053Y31797D01*
X2063Y31782D01*
X2075Y31770D01*
X2090Y31761D01*
X2161Y31725D01*
X2235Y31697D01*
X2311Y31676D01*
X2389Y31662D01*
X2467Y31655D01*
X2494Y31655D01*
Y19362D01*
X2357Y19266D01*
X2234Y19142D01*
X2134Y19000D01*
X2060Y18842D01*
X2015Y18673D01*
X2000Y18500D01*
X2015Y18326D01*
X2060Y18158D01*
X2134Y18000D01*
X2234Y17857D01*
X2357Y17734D01*
X2494Y17638D01*
Y14362D01*
X2357Y14266D01*
X2234Y14142D01*
X2134Y14000D01*
X2060Y13842D01*
X2015Y13673D01*
X2000Y13500D01*
X2015Y13326D01*
X2060Y13158D01*
X2134Y13000D01*
X2234Y12857D01*
X2357Y12734D01*
X2494Y12638D01*
Y9362D01*
X2357Y9266D01*
X2234Y9142D01*
X2134Y9000D01*
X2060Y8842D01*
X2015Y8673D01*
X2000Y8500D01*
X2015Y8326D01*
X2060Y8158D01*
X2134Y8000D01*
X2234Y7857D01*
X2357Y7734D01*
X2494Y7638D01*
Y3344D01*
X2453Y3343D01*
X2374Y3335D01*
X2296Y3320D01*
X2221Y3297D01*
X2147Y3268D01*
X2077Y3231D01*
X2063Y3221D01*
X2050Y3209D01*
X2040Y3195D01*
X2033Y3179D01*
X2029Y3162D01*
X2027Y3145D01*
X2029Y3127D01*
X2033Y3111D01*
X2040Y3095D01*
X2050Y3080D01*
X2063Y3068D01*
X2077Y3058D01*
X2093Y3051D01*
X2110Y3046D01*
X2127Y3045D01*
X2144Y3046D01*
X2161Y3051D01*
X2177Y3058D01*
X2231Y3086D01*
X2287Y3108D01*
X2344Y3126D01*
X2404Y3137D01*
X2464Y3144D01*
X2494Y3144D01*
Y1855D01*
X2475Y1855D01*
X2415Y1860D01*
X2355Y1871D01*
X2297Y1887D01*
X2241Y1909D01*
X2187Y1935D01*
X2187Y1936D01*
X2171Y1943D01*
X2154Y1947D01*
X2137Y1948D01*
X2119Y1946D01*
X2102Y1941D01*
X2087Y1934D01*
X2073Y1924D01*
X2061Y1911D01*
X2051Y1897D01*
X2044Y1881D01*
X2040Y1864D01*
X2038Y1846D01*
X2040Y1829D01*
X2045Y1812D01*
X2053Y1797D01*
X2063Y1782D01*
X2075Y1770D01*
X2090Y1761D01*
X2161Y1725D01*
X2235Y1697D01*
X2311Y1676D01*
X2389Y1662D01*
X2467Y1655D01*
X2494Y1655D01*
Y0D01*
X1805D01*
Y2040D01*
X1820Y2033D01*
X1837Y2029D01*
X1854Y2027D01*
X1872Y2029D01*
X1889Y2033D01*
X1904Y2040D01*
X1919Y2050D01*
X1931Y2063D01*
X1941Y2077D01*
X1948Y2093D01*
X1953Y2110D01*
X1954Y2127D01*
X1953Y2144D01*
X1948Y2161D01*
X1941Y2177D01*
X1913Y2231D01*
X1891Y2287D01*
X1873Y2345D01*
X1862Y2404D01*
X1855Y2464D01*
X1855Y2524D01*
X1860Y2584D01*
X1871Y2644D01*
X1887Y2702D01*
X1909Y2758D01*
X1935Y2812D01*
X1935Y2812D01*
X1943Y2828D01*
X1947Y2845D01*
X1948Y2862D01*
X1946Y2880D01*
X1941Y2897D01*
X1934Y2912D01*
X1923Y2926D01*
X1911Y2938D01*
X1896Y2948D01*
X1881Y2955D01*
X1864Y2960D01*
X1846Y2961D01*
X1829Y2959D01*
X1812Y2954D01*
X1805Y2951D01*
Y32040D01*
X1820Y32033D01*
X1837Y32029D01*
X1854Y32027D01*
X1872Y32029D01*
X1889Y32033D01*
X1904Y32040D01*
X1919Y32050D01*
X1931Y32063D01*
X1941Y32077D01*
X1948Y32093D01*
X1953Y32110D01*
X1954Y32127D01*
X1953Y32144D01*
X1948Y32161D01*
X1941Y32177D01*
X1913Y32231D01*
X1891Y32287D01*
X1873Y32345D01*
X1862Y32404D01*
X1855Y32464D01*
X1855Y32524D01*
X1860Y32584D01*
X1871Y32644D01*
X1887Y32702D01*
X1909Y32758D01*
X1935Y32812D01*
X1935Y32812D01*
X1943Y32828D01*
X1947Y32845D01*
X1948Y32862D01*
X1946Y32880D01*
X1941Y32897D01*
X1934Y32912D01*
X1923Y32926D01*
X1911Y32938D01*
X1896Y32948D01*
X1881Y32955D01*
X1864Y32960D01*
X1846Y32961D01*
X1829Y32959D01*
X1812Y32954D01*
X1805Y32951D01*
Y35000D01*
G37*
G36*
X2494D02*X3194D01*
Y32959D01*
X3179Y32966D01*
X3162Y32971D01*
X3145Y32972D01*
X3127Y32971D01*
X3110Y32966D01*
X3095Y32959D01*
X3080Y32949D01*
X3068Y32936D01*
X3058Y32922D01*
X3051Y32906D01*
X3046Y32889D01*
X3045Y32872D01*
X3046Y32855D01*
X3051Y32838D01*
X3058Y32822D01*
X3086Y32768D01*
X3108Y32712D01*
X3126Y32655D01*
X3137Y32595D01*
X3144Y32535D01*
X3144Y32475D01*
X3139Y32415D01*
X3128Y32356D01*
X3112Y32297D01*
X3090Y32241D01*
X3064Y32187D01*
X3064Y32187D01*
X3056Y32171D01*
X3052Y32154D01*
X3051Y32137D01*
X3053Y32119D01*
X3058Y32103D01*
X3065Y32087D01*
X3076Y32073D01*
X3088Y32061D01*
X3103Y32051D01*
X3118Y32044D01*
X3135Y32040D01*
X3153Y32038D01*
X3170Y32040D01*
X3187Y32045D01*
X3194Y32049D01*
Y24055D01*
X3174Y23997D01*
X3137Y23853D01*
X3112Y23707D01*
X3101Y23559D01*
X3102Y23411D01*
X3116Y23263D01*
X3143Y23117D01*
X3183Y22974D01*
X3194Y22943D01*
Y19479D01*
X3173Y19484D01*
X3000Y19500D01*
X2826Y19484D01*
X2658Y19439D01*
X2500Y19366D01*
X2494Y19362D01*
Y31655D01*
X2546Y31656D01*
X2625Y31664D01*
X2703Y31679D01*
X2778Y31702D01*
X2852Y31732D01*
X2922Y31768D01*
X2936Y31778D01*
X2949Y31790D01*
X2959Y31804D01*
X2966Y31820D01*
X2971Y31837D01*
X2972Y31854D01*
X2971Y31872D01*
X2966Y31889D01*
X2959Y31904D01*
X2949Y31919D01*
X2936Y31931D01*
X2922Y31941D01*
X2906Y31948D01*
X2889Y31953D01*
X2872Y31954D01*
X2855Y31953D01*
X2838Y31948D01*
X2822Y31941D01*
X2768Y31913D01*
X2712Y31891D01*
X2655Y31874D01*
X2595Y31862D01*
X2535Y31856D01*
X2494Y31855D01*
Y33144D01*
X2524Y33144D01*
X2584Y33139D01*
X2644Y33128D01*
X2702Y33112D01*
X2758Y33090D01*
X2812Y33064D01*
X2812Y33064D01*
X2828Y33057D01*
X2845Y33052D01*
X2862Y33051D01*
X2880Y33053D01*
X2897Y33058D01*
X2912Y33065D01*
X2926Y33076D01*
X2938Y33088D01*
X2948Y33103D01*
X2955Y33119D01*
X2959Y33136D01*
X2961Y33153D01*
X2959Y33170D01*
X2954Y33187D01*
X2946Y33203D01*
X2936Y33217D01*
X2924Y33229D01*
X2909Y33239D01*
X2838Y33274D01*
X2764Y33302D01*
X2688Y33323D01*
X2610Y33337D01*
X2532Y33344D01*
X2494Y33344D01*
Y35000D01*
G37*
G36*
X3194Y0D02*X2494D01*
Y1655D01*
X2546Y1656D01*
X2625Y1664D01*
X2703Y1679D01*
X2778Y1702D01*
X2852Y1732D01*
X2922Y1768D01*
X2936Y1778D01*
X2949Y1790D01*
X2959Y1804D01*
X2966Y1820D01*
X2971Y1837D01*
X2972Y1854D01*
X2971Y1872D01*
X2966Y1889D01*
X2959Y1904D01*
X2949Y1919D01*
X2936Y1931D01*
X2922Y1941D01*
X2906Y1948D01*
X2889Y1953D01*
X2872Y1954D01*
X2855Y1953D01*
X2838Y1948D01*
X2822Y1941D01*
X2768Y1913D01*
X2712Y1891D01*
X2655Y1874D01*
X2595Y1862D01*
X2535Y1856D01*
X2494Y1855D01*
Y3144D01*
X2524Y3144D01*
X2584Y3139D01*
X2644Y3128D01*
X2702Y3112D01*
X2758Y3090D01*
X2812Y3064D01*
X2812Y3064D01*
X2828Y3057D01*
X2845Y3052D01*
X2862Y3051D01*
X2880Y3053D01*
X2897Y3058D01*
X2912Y3065D01*
X2926Y3076D01*
X2938Y3088D01*
X2948Y3103D01*
X2955Y3119D01*
X2959Y3136D01*
X2961Y3153D01*
X2959Y3170D01*
X2954Y3187D01*
X2946Y3203D01*
X2936Y3217D01*
X2924Y3229D01*
X2909Y3239D01*
X2838Y3274D01*
X2764Y3302D01*
X2688Y3323D01*
X2610Y3337D01*
X2532Y3344D01*
X2494Y3344D01*
Y7638D01*
X2500Y7634D01*
X2658Y7560D01*
X2826Y7515D01*
X3000Y7500D01*
X3173Y7515D01*
X3194Y7520D01*
Y2959D01*
X3179Y2966D01*
X3162Y2971D01*
X3145Y2972D01*
X3127Y2971D01*
X3110Y2966D01*
X3095Y2959D01*
X3080Y2949D01*
X3068Y2936D01*
X3058Y2922D01*
X3051Y2906D01*
X3046Y2889D01*
X3045Y2872D01*
X3046Y2855D01*
X3051Y2838D01*
X3058Y2822D01*
X3086Y2768D01*
X3108Y2712D01*
X3126Y2655D01*
X3137Y2595D01*
X3144Y2535D01*
X3144Y2475D01*
X3139Y2415D01*
X3128Y2356D01*
X3112Y2297D01*
X3090Y2241D01*
X3064Y2187D01*
X3064Y2187D01*
X3056Y2171D01*
X3052Y2154D01*
X3051Y2137D01*
X3053Y2119D01*
X3058Y2103D01*
X3065Y2087D01*
X3076Y2073D01*
X3088Y2061D01*
X3103Y2051D01*
X3118Y2044D01*
X3135Y2040D01*
X3153Y2038D01*
X3170Y2040D01*
X3187Y2045D01*
X3194Y2049D01*
Y0D01*
G37*
G36*
Y9479D02*X3173Y9484D01*
X3000Y9500D01*
X2826Y9484D01*
X2658Y9439D01*
X2500Y9366D01*
X2494Y9362D01*
Y12638D01*
X2500Y12634D01*
X2658Y12560D01*
X2826Y12515D01*
X3000Y12500D01*
X3173Y12515D01*
X3194Y12520D01*
Y9479D01*
G37*
G36*
Y14479D02*X3173Y14484D01*
X3000Y14500D01*
X2826Y14484D01*
X2658Y14439D01*
X2500Y14366D01*
X2494Y14362D01*
Y17638D01*
X2500Y17634D01*
X2658Y17560D01*
X2826Y17515D01*
X3000Y17500D01*
X3173Y17515D01*
X3194Y17520D01*
Y14479D01*
G37*
G36*
Y35000D02*X4788D01*
Y25198D01*
X4711Y25197D01*
X4563Y25183D01*
X4417Y25156D01*
X4274Y25116D01*
X4135Y25064D01*
X4001Y25001D01*
X3874Y24925D01*
X3753Y24839D01*
X3740Y24827D01*
X3730Y24813D01*
X3722Y24798D01*
X3717Y24781D01*
X3714Y24764D01*
X3715Y24747D01*
X3719Y24730D01*
X3726Y24713D01*
X3736Y24699D01*
X3748Y24686D01*
X3761Y24676D01*
X3777Y24668D01*
X3794Y24663D01*
X3811Y24660D01*
X3828Y24661D01*
X3845Y24665D01*
X3861Y24672D01*
X3876Y24682D01*
X3983Y24758D01*
X4095Y24824D01*
X4213Y24880D01*
X4336Y24926D01*
X4462Y24961D01*
X4591Y24985D01*
X4721Y24998D01*
X4788Y24998D01*
Y22001D01*
X4747Y22001D01*
X4617Y22011D01*
X4488Y22032D01*
X4361Y22065D01*
X4238Y22109D01*
X4119Y22163D01*
X4005Y22228D01*
X3897Y22302D01*
X3897Y22302D01*
X3882Y22311D01*
X3866Y22317D01*
X3849Y22321D01*
X3831Y22322D01*
X3814Y22319D01*
X3797Y22314D01*
X3782Y22306D01*
X3768Y22295D01*
X3757Y22282D01*
X3748Y22267D01*
X3741Y22251D01*
X3737Y22234D01*
X3737Y22216D01*
X3739Y22199D01*
X3745Y22183D01*
X3753Y22167D01*
X3764Y22154D01*
X3776Y22142D01*
X3899Y22058D01*
X4028Y21985D01*
X4163Y21923D01*
X4302Y21874D01*
X4446Y21837D01*
X4592Y21812D01*
X4740Y21801D01*
X4788Y21801D01*
Y0D01*
X3194D01*
Y2049D01*
X3203Y2053D01*
X3217Y2063D01*
X3229Y2075D01*
X3239Y2090D01*
X3274Y2161D01*
X3302Y2235D01*
X3323Y2311D01*
X3337Y2389D01*
X3344Y2467D01*
X3343Y2547D01*
X3335Y2625D01*
X3320Y2703D01*
X3297Y2779D01*
X3268Y2852D01*
X3231Y2922D01*
X3221Y2936D01*
X3209Y2949D01*
X3195Y2959D01*
X3194Y2959D01*
Y7520D01*
X3342Y7560D01*
X3500Y7634D01*
X3642Y7734D01*
X3766Y7857D01*
X3866Y8000D01*
X3939Y8158D01*
X3984Y8326D01*
X4000Y8500D01*
X3984Y8673D01*
X3939Y8842D01*
X3866Y9000D01*
X3766Y9142D01*
X3642Y9266D01*
X3500Y9366D01*
X3342Y9439D01*
X3194Y9479D01*
Y12520D01*
X3342Y12560D01*
X3500Y12634D01*
X3642Y12734D01*
X3766Y12857D01*
X3866Y13000D01*
X3939Y13158D01*
X3984Y13326D01*
X4000Y13500D01*
X3984Y13673D01*
X3939Y13842D01*
X3866Y14000D01*
X3766Y14142D01*
X3642Y14266D01*
X3500Y14366D01*
X3342Y14439D01*
X3194Y14479D01*
Y17520D01*
X3342Y17560D01*
X3500Y17634D01*
X3642Y17734D01*
X3766Y17857D01*
X3866Y18000D01*
X3939Y18158D01*
X3984Y18326D01*
X4000Y18500D01*
X3984Y18673D01*
X3939Y18842D01*
X3866Y19000D01*
X3766Y19142D01*
X3642Y19266D01*
X3500Y19366D01*
X3342Y19439D01*
X3194Y19479D01*
Y22943D01*
X3235Y22835D01*
X3298Y22701D01*
X3374Y22574D01*
X3460Y22453D01*
X3472Y22440D01*
X3486Y22430D01*
X3501Y22422D01*
X3518Y22417D01*
X3535Y22415D01*
X3553Y22416D01*
X3570Y22419D01*
X3586Y22426D01*
X3600Y22436D01*
X3613Y22448D01*
X3623Y22462D01*
X3631Y22477D01*
X3636Y22494D01*
X3639Y22511D01*
X3638Y22528D01*
X3634Y22545D01*
X3627Y22562D01*
X3617Y22576D01*
X3541Y22683D01*
X3475Y22795D01*
X3419Y22914D01*
X3373Y23036D01*
X3338Y23162D01*
X3314Y23291D01*
X3302Y23421D01*
X3300Y23552D01*
X3311Y23682D01*
X3332Y23811D01*
X3365Y23938D01*
X3409Y24062D01*
X3463Y24181D01*
X3527Y24294D01*
X3602Y24402D01*
X3601Y24402D01*
X3611Y24417D01*
X3617Y24433D01*
X3621Y24450D01*
X3621Y24468D01*
X3619Y24485D01*
X3614Y24502D01*
X3605Y24517D01*
X3595Y24531D01*
X3582Y24542D01*
X3567Y24552D01*
X3551Y24558D01*
X3534Y24562D01*
X3516Y24562D01*
X3499Y24560D01*
X3483Y24554D01*
X3467Y24546D01*
X3453Y24536D01*
X3442Y24523D01*
X3358Y24400D01*
X3285Y24271D01*
X3223Y24136D01*
X3194Y24055D01*
Y32049D01*
X3203Y32053D01*
X3217Y32063D01*
X3229Y32075D01*
X3239Y32090D01*
X3274Y32161D01*
X3302Y32235D01*
X3323Y32311D01*
X3337Y32389D01*
X3344Y32467D01*
X3343Y32547D01*
X3335Y32625D01*
X3320Y32703D01*
X3297Y32779D01*
X3268Y32852D01*
X3231Y32922D01*
X3221Y32936D01*
X3209Y32949D01*
X3195Y32959D01*
X3194Y32959D01*
Y35000D01*
G37*
G36*
X4788D02*X6229D01*
Y24418D01*
X6225Y24425D01*
X6139Y24546D01*
X6127Y24559D01*
X6113Y24569D01*
X6098Y24577D01*
X6081Y24582D01*
X6064Y24585D01*
X6046Y24584D01*
X6029Y24580D01*
X6013Y24573D01*
X5999Y24563D01*
X5986Y24552D01*
X5976Y24538D01*
X5968Y24522D01*
X5963Y24505D01*
X5960Y24488D01*
X5961Y24471D01*
X5965Y24454D01*
X5972Y24438D01*
X5982Y24423D01*
X6058Y24317D01*
X6124Y24204D01*
X6180Y24086D01*
X6226Y23963D01*
X6229Y23951D01*
Y23048D01*
X6190Y22938D01*
X6136Y22819D01*
X6072Y22705D01*
X5997Y22597D01*
X5998Y22597D01*
X5988Y22582D01*
X5982Y22566D01*
X5978Y22549D01*
X5978Y22531D01*
X5980Y22514D01*
X5985Y22498D01*
X5994Y22482D01*
X6004Y22468D01*
X6017Y22457D01*
X6032Y22448D01*
X6048Y22441D01*
X6065Y22437D01*
X6083Y22437D01*
X6100Y22439D01*
X6116Y22445D01*
X6132Y22453D01*
X6146Y22464D01*
X6157Y22477D01*
X6229Y22582D01*
Y5959D01*
X6158Y5939D01*
X6000Y5866D01*
X5857Y5766D01*
X5734Y5642D01*
X5634Y5500D01*
X5560Y5342D01*
X5515Y5173D01*
X5500Y5000D01*
X5515Y4826D01*
X5560Y4658D01*
X5634Y4500D01*
X5734Y4357D01*
X5857Y4234D01*
X6000Y4134D01*
X6158Y4060D01*
X6229Y4041D01*
Y0D01*
X4788D01*
Y21801D01*
X4888Y21802D01*
X5036Y21816D01*
X5182Y21843D01*
X5325Y21883D01*
X5464Y21935D01*
X5598Y21999D01*
X5725Y22074D01*
X5846Y22160D01*
X5859Y22172D01*
X5869Y22186D01*
X5877Y22201D01*
X5882Y22218D01*
X5885Y22235D01*
X5884Y22253D01*
X5880Y22270D01*
X5873Y22286D01*
X5863Y22300D01*
X5851Y22313D01*
X5838Y22324D01*
X5822Y22331D01*
X5805Y22337D01*
X5788Y22339D01*
X5771Y22338D01*
X5754Y22334D01*
X5738Y22327D01*
X5723Y22318D01*
X5616Y22242D01*
X5504Y22175D01*
X5386Y22119D01*
X5263Y22073D01*
X5137Y22038D01*
X5008Y22014D01*
X4878Y22002D01*
X4788Y22001D01*
Y24998D01*
X4852Y24999D01*
X4982Y24988D01*
X5111Y24967D01*
X5238Y24934D01*
X5361Y24890D01*
X5480Y24836D01*
X5594Y24772D01*
X5702Y24698D01*
X5702Y24698D01*
X5717Y24688D01*
X5733Y24682D01*
X5750Y24678D01*
X5768Y24678D01*
X5785Y24680D01*
X5802Y24686D01*
X5817Y24694D01*
X5831Y24704D01*
X5842Y24717D01*
X5851Y24732D01*
X5858Y24748D01*
X5862Y24765D01*
X5862Y24783D01*
X5860Y24800D01*
X5854Y24817D01*
X5846Y24832D01*
X5835Y24846D01*
X5823Y24857D01*
X5700Y24941D01*
X5571Y25014D01*
X5436Y25076D01*
X5297Y25125D01*
X5153Y25162D01*
X5007Y25187D01*
X4859Y25199D01*
X4788Y25198D01*
Y35000D01*
G37*
G36*
X6229D02*X7500D01*
Y14750D01*
X7282Y14731D01*
X7072Y14674D01*
X6875Y14582D01*
X6696Y14457D01*
X6542Y14303D01*
X6417Y14125D01*
X6325Y13927D01*
X6269Y13717D01*
X6250Y13500D01*
X6269Y13282D01*
X6325Y13072D01*
X6417Y12875D01*
X6542Y12696D01*
X6696Y12542D01*
X6875Y12417D01*
X7072Y12325D01*
X7282Y12269D01*
X7500Y12250D01*
Y5000D01*
X7484Y5173D01*
X7439Y5342D01*
X7366Y5500D01*
X7266Y5642D01*
X7142Y5766D01*
X7000Y5866D01*
X6842Y5939D01*
X6673Y5984D01*
X6500Y6000D01*
X6326Y5984D01*
X6229Y5959D01*
Y22582D01*
X6241Y22599D01*
X6314Y22728D01*
X6376Y22863D01*
X6425Y23003D01*
X6462Y23146D01*
X6487Y23292D01*
X6498Y23440D01*
X6497Y23589D01*
X6483Y23736D01*
X6456Y23882D01*
X6416Y24025D01*
X6364Y24164D01*
X6301Y24298D01*
X6229Y24418D01*
Y35000D01*
G37*
G36*
X7500Y0D02*X6229D01*
Y4041D01*
X6326Y4015D01*
X6500Y4000D01*
X6673Y4015D01*
X6842Y4060D01*
X7000Y4134D01*
X7142Y4234D01*
X7266Y4357D01*
X7366Y4500D01*
X7439Y4658D01*
X7484Y4826D01*
X7500Y5000D01*
Y0D01*
G37*
G36*
Y35000D02*X10500D01*
Y30600D01*
X10395Y30590D01*
X10294Y30563D01*
X10200Y30519D01*
X10114Y30459D01*
X10040Y30385D01*
X9980Y30300D01*
X9936Y30205D01*
X9909Y30104D01*
X9900Y30000D01*
X9909Y29895D01*
X9936Y29794D01*
X9980Y29700D01*
X10040Y29614D01*
X10114Y29540D01*
X10200Y29480D01*
X10294Y29436D01*
X10395Y29409D01*
X10500Y29400D01*
Y17600D01*
X10395Y17590D01*
X10294Y17563D01*
X10200Y17519D01*
X10114Y17459D01*
X10040Y17385D01*
X9980Y17300D01*
X9936Y17205D01*
X9909Y17104D01*
X9900Y17000D01*
X9909Y16895D01*
X9936Y16794D01*
X9980Y16700D01*
X10040Y16614D01*
X10114Y16540D01*
X10200Y16480D01*
X10294Y16436D01*
X10395Y16409D01*
X10500Y16400D01*
Y14750D01*
X10282Y14731D01*
X10072Y14674D01*
X9875Y14582D01*
X9696Y14457D01*
X9542Y14303D01*
X9417Y14125D01*
X9325Y13927D01*
X9269Y13717D01*
X9250Y13500D01*
X9269Y13282D01*
X9325Y13072D01*
X9417Y12875D01*
X9542Y12696D01*
X9696Y12542D01*
X9875Y12417D01*
X10072Y12325D01*
X10282Y12269D01*
X10500Y12250D01*
Y5866D01*
X10357Y5766D01*
X10234Y5642D01*
X10134Y5500D01*
X10060Y5342D01*
X10015Y5173D01*
X10000Y5000D01*
X10015Y4826D01*
X10060Y4658D01*
X10134Y4500D01*
X10234Y4357D01*
X10357Y4234D01*
X10500Y4134D01*
Y0D01*
X7500D01*
Y12250D01*
X7717Y12269D01*
X7927Y12325D01*
X8125Y12417D01*
X8303Y12542D01*
X8457Y12696D01*
X8582Y12875D01*
X8674Y13072D01*
X8731Y13282D01*
X8750Y13500D01*
X8731Y13717D01*
X8674Y13927D01*
X8582Y14125D01*
X8457Y14303D01*
X8303Y14457D01*
X8125Y14582D01*
X7927Y14674D01*
X7717Y14731D01*
X7500Y14750D01*
Y35000D01*
G37*
G36*
X10500D02*X11600D01*
Y34075D01*
X11482Y34064D01*
X11369Y34034D01*
X11262Y33984D01*
X11166Y33917D01*
X11082Y33833D01*
X11015Y33737D01*
X10965Y33630D01*
X10935Y33517D01*
X10925Y33400D01*
X10935Y33282D01*
X10965Y33169D01*
X11015Y33062D01*
X11082Y32966D01*
X11166Y32882D01*
X11262Y32815D01*
X11369Y32765D01*
X11482Y32735D01*
X11600Y32725D01*
Y14087D01*
X11582Y14125D01*
X11457Y14303D01*
X11303Y14457D01*
X11125Y14582D01*
X10927Y14674D01*
X10717Y14731D01*
X10500Y14750D01*
Y16400D01*
X10604Y16409D01*
X10705Y16436D01*
X10800Y16480D01*
X10885Y16540D01*
X10959Y16614D01*
X11019Y16700D01*
X11063Y16794D01*
X11090Y16895D01*
X11100Y17000D01*
X11090Y17104D01*
X11063Y17205D01*
X11019Y17300D01*
X10959Y17385D01*
X10885Y17459D01*
X10800Y17519D01*
X10705Y17563D01*
X10604Y17590D01*
X10500Y17600D01*
Y29400D01*
X10604Y29409D01*
X10705Y29436D01*
X10800Y29480D01*
X10885Y29540D01*
X10959Y29614D01*
X11019Y29700D01*
X11063Y29794D01*
X11090Y29895D01*
X11100Y30000D01*
X11090Y30104D01*
X11063Y30205D01*
X11019Y30300D01*
X10959Y30385D01*
X10885Y30459D01*
X10800Y30519D01*
X10705Y30563D01*
X10604Y30590D01*
X10500Y30600D01*
Y35000D01*
G37*
G36*
X11600Y0D02*X10500D01*
Y4134D01*
X10658Y4060D01*
X10826Y4015D01*
X11000Y4000D01*
X11173Y4015D01*
X11342Y4060D01*
X11500Y4134D01*
X11600Y4204D01*
Y0D01*
G37*
G36*
Y5796D02*X11500Y5866D01*
X11342Y5939D01*
X11173Y5984D01*
X11000Y6000D01*
X10826Y5984D01*
X10658Y5939D01*
X10500Y5866D01*
Y12250D01*
X10717Y12269D01*
X10927Y12325D01*
X11125Y12417D01*
X11303Y12542D01*
X11457Y12696D01*
X11582Y12875D01*
X11600Y12912D01*
Y5796D01*
G37*
G36*
Y35000D02*X12499D01*
Y30331D01*
X12473Y30288D01*
X12449Y30238D01*
X12429Y30186D01*
X12414Y30132D01*
X12405Y30078D01*
X12400Y30022D01*
X12400Y29967D01*
X12406Y29911D01*
X12417Y29857D01*
X12432Y29803D01*
X12453Y29752D01*
X12478Y29702D01*
X12499Y29669D01*
Y17327D01*
X12480Y17300D01*
X12436Y17205D01*
X12409Y17104D01*
X12400Y17000D01*
X12409Y16895D01*
X12436Y16794D01*
X12480Y16700D01*
X12499Y16672D01*
Y0D01*
X11600D01*
Y4204D01*
X11642Y4234D01*
X11766Y4357D01*
X11866Y4500D01*
X11939Y4658D01*
X11984Y4826D01*
X12000Y5000D01*
X11984Y5173D01*
X11939Y5342D01*
X11866Y5500D01*
X11766Y5642D01*
X11642Y5766D01*
X11600Y5796D01*
Y12912D01*
X11674Y13072D01*
X11731Y13282D01*
X11750Y13500D01*
X11731Y13717D01*
X11674Y13927D01*
X11600Y14087D01*
Y32725D01*
X11717Y32735D01*
X11830Y32765D01*
X11937Y32815D01*
X12033Y32882D01*
X12117Y32966D01*
X12184Y33062D01*
X12234Y33169D01*
X12264Y33282D01*
X12275Y33400D01*
X12264Y33517D01*
X12234Y33630D01*
X12184Y33737D01*
X12117Y33833D01*
X12033Y33917D01*
X11937Y33984D01*
X11830Y34034D01*
X11717Y34064D01*
X11600Y34075D01*
Y35000D01*
G37*
G36*
X6229Y23951D02*X6261Y23837D01*
X6285Y23708D01*
X6297Y23578D01*
X6299Y23447D01*
X6288Y23317D01*
X6267Y23188D01*
X6234Y23061D01*
X6229Y23048D01*
Y23951D01*
G37*
G36*
X12499Y35000D02*X12996D01*
Y33695D01*
X12965Y33630D01*
X12935Y33517D01*
X12925Y33400D01*
X12935Y33282D01*
X12965Y33169D01*
X12996Y33104D01*
Y30599D01*
X12966Y30599D01*
X12911Y30593D01*
X12857Y30582D01*
X12803Y30567D01*
X12752Y30546D01*
X12702Y30521D01*
X12655Y30491D01*
Y30491D01*
X12649Y30486D01*
X12643Y30479D01*
X12639Y30471D01*
X12636Y30463D01*
X12634Y30455D01*
Y30446D01*
X12636Y30437D01*
X12639Y30429D01*
X12643Y30421D01*
X12649Y30415D01*
X12655Y30409D01*
X12663Y30405D01*
X12671Y30402D01*
X12680Y30400D01*
X12688D01*
X12697Y30402D01*
X12705Y30405D01*
X12713Y30409D01*
X12752Y30434D01*
X12793Y30455D01*
X12836Y30472D01*
X12880Y30485D01*
X12926Y30494D01*
X12972Y30499D01*
X12996Y30499D01*
Y29500D01*
X12981Y29500D01*
X12935Y29504D01*
X12889Y29512D01*
X12844Y29524D01*
X12801Y29541D01*
X12759Y29561D01*
X12720Y29585D01*
Y29585D01*
X12712Y29589D01*
X12704Y29592D01*
X12695Y29594D01*
X12687Y29593D01*
X12678Y29592D01*
X12670Y29589D01*
X12663Y29584D01*
X12656Y29578D01*
X12650Y29572D01*
X12646Y29564D01*
X12643Y29556D01*
X12642Y29547D01*
X12642Y29538D01*
X12644Y29530D01*
X12647Y29522D01*
X12651Y29514D01*
X12657Y29508D01*
X12664Y29502D01*
X12711Y29473D01*
X12761Y29449D01*
X12813Y29429D01*
X12867Y29414D01*
X12922Y29405D01*
X12977Y29400D01*
X12996Y29400D01*
Y17599D01*
X12895Y17590D01*
X12794Y17563D01*
X12700Y17519D01*
X12614Y17459D01*
X12540Y17385D01*
X12499Y17327D01*
Y29669D01*
X12508Y29655D01*
X12508D01*
X12514Y29649D01*
X12520Y29643D01*
X12528Y29639D01*
X12536Y29636D01*
X12545Y29634D01*
X12553D01*
X12562Y29636D01*
X12570Y29639D01*
X12578Y29643D01*
X12584Y29649D01*
X12590Y29655D01*
X12594Y29663D01*
X12597Y29671D01*
X12599Y29680D01*
Y29689D01*
X12597Y29697D01*
X12594Y29705D01*
X12590Y29713D01*
X12565Y29752D01*
X12544Y29793D01*
X12527Y29836D01*
X12514Y29881D01*
X12505Y29926D01*
X12500Y29972D01*
X12500Y30018D01*
X12504Y30065D01*
X12512Y30110D01*
X12524Y30155D01*
X12541Y30198D01*
X12561Y30240D01*
X12585Y30279D01*
X12585D01*
X12589Y30287D01*
X12592Y30295D01*
X12593Y30304D01*
X12593Y30312D01*
X12592Y30321D01*
X12589Y30329D01*
X12584Y30337D01*
X12578Y30343D01*
X12572Y30349D01*
X12564Y30353D01*
X12556Y30356D01*
X12547Y30357D01*
X12538Y30357D01*
X12530Y30355D01*
X12522Y30352D01*
X12514Y30348D01*
X12508Y30342D01*
X12502Y30335D01*
X12499Y30331D01*
Y35000D01*
G37*
G36*
X12996Y0D02*X12499D01*
Y16672D01*
X12540Y16614D01*
X12614Y16540D01*
X12700Y16480D01*
X12794Y16436D01*
X12895Y16409D01*
X12996Y16400D01*
Y0D01*
G37*
G36*
Y35000D02*X13500D01*
Y34066D01*
X13482Y34064D01*
X13369Y34034D01*
X13262Y33984D01*
X13166Y33917D01*
X13082Y33833D01*
X13015Y33737D01*
X12996Y33695D01*
Y35000D01*
G37*
G36*
X13500Y0D02*X12996D01*
Y16400D01*
X13000Y16400D01*
X13104Y16409D01*
X13205Y16436D01*
X13300Y16480D01*
X13385Y16540D01*
X13459Y16614D01*
X13500Y16672D01*
Y6338D01*
X13415Y6299D01*
X13318Y6231D01*
X13235Y6148D01*
X13168Y6051D01*
X13118Y5945D01*
X13088Y5831D01*
X13077Y5714D01*
X13088Y5597D01*
X13118Y5483D01*
X13168Y5376D01*
X13235Y5280D01*
X13318Y5197D01*
X13415Y5129D01*
X13500Y5090D01*
Y0D01*
G37*
G36*
Y17327D02*X13459Y17385D01*
X13385Y17459D01*
X13300Y17519D01*
X13205Y17563D01*
X13104Y17590D01*
X13000Y17600D01*
X12996Y17599D01*
Y29400D01*
X13033Y29401D01*
X13088Y29406D01*
X13142Y29417D01*
X13196Y29433D01*
X13247Y29453D01*
X13297Y29478D01*
X13344Y29508D01*
Y29508D01*
X13350Y29514D01*
X13356Y29520D01*
X13360Y29528D01*
X13363Y29536D01*
X13365Y29545D01*
Y29553D01*
X13363Y29562D01*
X13360Y29570D01*
X13356Y29578D01*
X13350Y29584D01*
X13344Y29590D01*
X13336Y29594D01*
X13328Y29597D01*
X13319Y29599D01*
X13311D01*
X13302Y29597D01*
X13294Y29594D01*
X13286Y29590D01*
X13247Y29565D01*
X13206Y29544D01*
X13163Y29527D01*
X13119Y29514D01*
X13073Y29505D01*
X13027Y29500D01*
X12996Y29500D01*
Y30499D01*
X13018Y30499D01*
X13064Y30495D01*
X13110Y30487D01*
X13155Y30475D01*
X13198Y30459D01*
X13240Y30438D01*
X13279Y30414D01*
Y30414D01*
X13287Y30410D01*
X13295Y30407D01*
X13304Y30406D01*
X13312Y30406D01*
X13321Y30407D01*
X13329Y30411D01*
X13336Y30415D01*
X13343Y30421D01*
X13349Y30428D01*
X13353Y30435D01*
X13356Y30443D01*
X13357Y30452D01*
X13357Y30461D01*
X13355Y30469D01*
X13352Y30477D01*
X13348Y30485D01*
X13342Y30492D01*
X13335Y30497D01*
X13288Y30526D01*
X13238Y30550D01*
X13186Y30570D01*
X13132Y30585D01*
X13077Y30595D01*
X13022Y30599D01*
X12996Y30599D01*
Y33104D01*
X13015Y33062D01*
X13082Y32966D01*
X13166Y32882D01*
X13262Y32815D01*
X13369Y32765D01*
X13482Y32735D01*
X13500Y32733D01*
Y30330D01*
X13491Y30344D01*
X13491D01*
X13485Y30350D01*
X13479Y30356D01*
X13471Y30360D01*
X13463Y30363D01*
X13454Y30365D01*
X13446D01*
X13437Y30363D01*
X13429Y30360D01*
X13421Y30356D01*
X13415Y30350D01*
X13409Y30344D01*
X13405Y30336D01*
X13402Y30328D01*
X13400Y30319D01*
Y30311D01*
X13402Y30302D01*
X13405Y30294D01*
X13409Y30286D01*
X13434Y30247D01*
X13455Y30206D01*
X13472Y30163D01*
X13485Y30119D01*
X13494Y30073D01*
X13499Y30027D01*
X13499Y29981D01*
X13495Y29935D01*
X13487Y29889D01*
X13475Y29844D01*
X13458Y29801D01*
X13438Y29760D01*
X13414Y29720D01*
X13414D01*
X13410Y29712D01*
X13407Y29704D01*
X13406Y29696D01*
X13406Y29687D01*
X13407Y29678D01*
X13410Y29670D01*
X13415Y29663D01*
X13421Y29656D01*
X13427Y29651D01*
X13435Y29646D01*
X13443Y29643D01*
X13452Y29642D01*
X13461Y29642D01*
X13469Y29644D01*
X13477Y29647D01*
X13485Y29652D01*
X13491Y29657D01*
X13497Y29664D01*
X13500Y29668D01*
Y17327D01*
G37*
G36*
Y35000D02*X14999D01*
Y33704D01*
X14965Y33630D01*
X14935Y33517D01*
X14925Y33400D01*
X14935Y33282D01*
X14965Y33169D01*
X14999Y33095D01*
Y30331D01*
X14973Y30288D01*
X14949Y30238D01*
X14929Y30186D01*
X14914Y30132D01*
X14905Y30078D01*
X14900Y30022D01*
X14900Y29967D01*
X14906Y29911D01*
X14917Y29857D01*
X14932Y29803D01*
X14953Y29752D01*
X14978Y29702D01*
X14999Y29669D01*
Y17327D01*
X14980Y17300D01*
X14936Y17205D01*
X14909Y17104D01*
X14900Y17000D01*
X14909Y16895D01*
X14936Y16794D01*
X14980Y16700D01*
X14999Y16672D01*
Y0D01*
X13500D01*
Y5090D01*
X13521Y5080D01*
X13635Y5049D01*
X13752Y5039D01*
X13869Y5049D01*
X13983Y5080D01*
X14090Y5129D01*
X14186Y5197D01*
X14269Y5280D01*
X14337Y5376D01*
X14387Y5483D01*
X14417Y5597D01*
X14427Y5714D01*
X14417Y5831D01*
X14387Y5945D01*
X14337Y6051D01*
X14269Y6148D01*
X14186Y6231D01*
X14090Y6299D01*
X13983Y6348D01*
X13869Y6379D01*
X13752Y6389D01*
X13635Y6379D01*
X13521Y6348D01*
X13500Y6338D01*
Y16672D01*
X13519Y16700D01*
X13563Y16794D01*
X13590Y16895D01*
X13600Y17000D01*
X13590Y17104D01*
X13563Y17205D01*
X13519Y17300D01*
X13500Y17327D01*
Y29668D01*
X13526Y29712D01*
X13550Y29761D01*
X13570Y29813D01*
X13585Y29867D01*
X13594Y29922D01*
X13599Y29977D01*
X13599Y30033D01*
X13593Y30088D01*
X13582Y30142D01*
X13567Y30196D01*
X13546Y30247D01*
X13521Y30297D01*
X13500Y30330D01*
Y32733D01*
X13600Y32725D01*
X13717Y32735D01*
X13830Y32765D01*
X13937Y32815D01*
X14033Y32882D01*
X14117Y32966D01*
X14184Y33062D01*
X14234Y33169D01*
X14264Y33282D01*
X14275Y33400D01*
X14264Y33517D01*
X14234Y33630D01*
X14184Y33737D01*
X14117Y33833D01*
X14033Y33917D01*
X13937Y33984D01*
X13830Y34034D01*
X13717Y34064D01*
X13600Y34075D01*
X13500Y34066D01*
Y35000D01*
G37*
G36*
X14999D02*X15600D01*
Y34075D01*
X15482Y34064D01*
X15369Y34034D01*
X15262Y33984D01*
X15166Y33917D01*
X15082Y33833D01*
X15015Y33737D01*
X14999Y33704D01*
Y35000D01*
G37*
G36*
Y33095D02*X15015Y33062D01*
X15082Y32966D01*
X15166Y32882D01*
X15262Y32815D01*
X15369Y32765D01*
X15482Y32735D01*
X15600Y32725D01*
Y30591D01*
X15577Y30595D01*
X15522Y30599D01*
X15466Y30599D01*
X15411Y30593D01*
X15357Y30582D01*
X15303Y30567D01*
X15252Y30546D01*
X15202Y30521D01*
X15155Y30491D01*
Y30491D01*
X15149Y30486D01*
X15143Y30479D01*
X15139Y30471D01*
X15136Y30463D01*
X15134Y30455D01*
Y30446D01*
X15136Y30437D01*
X15139Y30429D01*
X15143Y30421D01*
X15149Y30415D01*
X15155Y30409D01*
X15163Y30405D01*
X15171Y30402D01*
X15180Y30400D01*
X15188D01*
X15197Y30402D01*
X15205Y30405D01*
X15213Y30409D01*
X15252Y30434D01*
X15293Y30455D01*
X15336Y30472D01*
X15380Y30485D01*
X15426Y30494D01*
X15472Y30499D01*
X15518Y30499D01*
X15564Y30495D01*
X15600Y30489D01*
Y29510D01*
X15573Y29505D01*
X15527Y29500D01*
X15481Y29500D01*
X15435Y29504D01*
X15389Y29512D01*
X15344Y29524D01*
X15301Y29541D01*
X15259Y29561D01*
X15220Y29585D01*
Y29585D01*
X15212Y29589D01*
X15204Y29592D01*
X15195Y29594D01*
X15187Y29593D01*
X15178Y29592D01*
X15170Y29589D01*
X15163Y29584D01*
X15156Y29578D01*
X15150Y29572D01*
X15146Y29564D01*
X15143Y29556D01*
X15142Y29547D01*
X15142Y29538D01*
X15144Y29530D01*
X15147Y29522D01*
X15151Y29514D01*
X15157Y29508D01*
X15164Y29502D01*
X15211Y29473D01*
X15261Y29449D01*
X15313Y29429D01*
X15367Y29414D01*
X15422Y29405D01*
X15477Y29400D01*
X15533Y29401D01*
X15588Y29406D01*
X15600Y29408D01*
Y17591D01*
X15500Y17600D01*
X15395Y17590D01*
X15294Y17563D01*
X15200Y17519D01*
X15114Y17459D01*
X15040Y17385D01*
X14999Y17327D01*
Y29669D01*
X15008Y29655D01*
X15008D01*
X15014Y29649D01*
X15020Y29643D01*
X15028Y29639D01*
X15036Y29636D01*
X15045Y29634D01*
X15053D01*
X15062Y29636D01*
X15070Y29639D01*
X15078Y29643D01*
X15084Y29649D01*
X15090Y29655D01*
X15094Y29663D01*
X15097Y29671D01*
X15099Y29680D01*
Y29689D01*
X15097Y29697D01*
X15094Y29705D01*
X15090Y29713D01*
X15065Y29752D01*
X15044Y29793D01*
X15027Y29836D01*
X15014Y29881D01*
X15005Y29926D01*
X15000Y29972D01*
X15000Y30018D01*
X15004Y30065D01*
X15012Y30110D01*
X15024Y30155D01*
X15041Y30198D01*
X15061Y30240D01*
X15085Y30279D01*
X15085D01*
X15089Y30287D01*
X15092Y30295D01*
X15093Y30304D01*
X15093Y30312D01*
X15092Y30321D01*
X15089Y30329D01*
X15084Y30337D01*
X15078Y30343D01*
X15072Y30349D01*
X15064Y30353D01*
X15056Y30356D01*
X15047Y30357D01*
X15038Y30357D01*
X15030Y30355D01*
X15022Y30352D01*
X15014Y30348D01*
X15008Y30342D01*
X15002Y30335D01*
X14999Y30331D01*
Y33095D01*
G37*
G36*
Y16672D02*X15040Y16614D01*
X15114Y16540D01*
X15200Y16480D01*
X15294Y16436D01*
X15395Y16409D01*
X15500Y16400D01*
X15600Y16408D01*
Y0D01*
X14999D01*
Y16672D01*
G37*
G36*
X15600Y35000D02*X16000D01*
Y33940D01*
X15937Y33984D01*
X15830Y34034D01*
X15717Y34064D01*
X15600Y34075D01*
Y35000D01*
G37*
G36*
X16000Y0D02*X15600D01*
Y16408D01*
X15604Y16409D01*
X15705Y16436D01*
X15800Y16480D01*
X15885Y16540D01*
X15959Y16614D01*
X16000Y16672D01*
Y0D01*
G37*
G36*
Y17327D02*X15959Y17385D01*
X15885Y17459D01*
X15800Y17519D01*
X15705Y17563D01*
X15604Y17590D01*
X15600Y17591D01*
Y29408D01*
X15642Y29417D01*
X15696Y29433D01*
X15747Y29453D01*
X15797Y29478D01*
X15844Y29508D01*
Y29508D01*
X15850Y29514D01*
X15856Y29520D01*
X15860Y29528D01*
X15863Y29536D01*
X15865Y29545D01*
Y29553D01*
X15863Y29562D01*
X15860Y29570D01*
X15856Y29578D01*
X15850Y29584D01*
X15844Y29590D01*
X15836Y29594D01*
X15828Y29597D01*
X15819Y29599D01*
X15811D01*
X15802Y29597D01*
X15794Y29594D01*
X15786Y29590D01*
X15747Y29565D01*
X15706Y29544D01*
X15663Y29527D01*
X15619Y29514D01*
X15600Y29510D01*
Y30489D01*
X15610Y30487D01*
X15655Y30475D01*
X15698Y30459D01*
X15740Y30438D01*
X15779Y30414D01*
Y30414D01*
X15787Y30410D01*
X15795Y30407D01*
X15804Y30406D01*
X15812Y30406D01*
X15821Y30407D01*
X15829Y30411D01*
X15836Y30415D01*
X15843Y30421D01*
X15849Y30428D01*
X15853Y30435D01*
X15856Y30443D01*
X15857Y30452D01*
X15857Y30461D01*
X15855Y30469D01*
X15852Y30477D01*
X15848Y30485D01*
X15842Y30492D01*
X15835Y30497D01*
X15788Y30526D01*
X15738Y30550D01*
X15686Y30570D01*
X15632Y30585D01*
X15600Y30591D01*
Y32725D01*
X15717Y32735D01*
X15830Y32765D01*
X15937Y32815D01*
X16000Y32859D01*
Y30330D01*
X15991Y30344D01*
X15991D01*
X15985Y30350D01*
X15979Y30356D01*
X15971Y30360D01*
X15963Y30363D01*
X15954Y30365D01*
X15946D01*
X15937Y30363D01*
X15929Y30360D01*
X15921Y30356D01*
X15915Y30350D01*
X15909Y30344D01*
X15905Y30336D01*
X15902Y30328D01*
X15900Y30319D01*
Y30311D01*
X15902Y30302D01*
X15905Y30294D01*
X15909Y30286D01*
X15934Y30247D01*
X15955Y30206D01*
X15972Y30163D01*
X15985Y30119D01*
X15994Y30073D01*
X15999Y30027D01*
X15999Y29981D01*
X15995Y29935D01*
X15987Y29889D01*
X15975Y29844D01*
X15958Y29801D01*
X15938Y29760D01*
X15914Y29720D01*
X15914D01*
X15910Y29712D01*
X15907Y29704D01*
X15906Y29696D01*
X15906Y29687D01*
X15907Y29678D01*
X15910Y29670D01*
X15915Y29663D01*
X15921Y29656D01*
X15927Y29651D01*
X15935Y29646D01*
X15943Y29643D01*
X15952Y29642D01*
X15961Y29642D01*
X15969Y29644D01*
X15977Y29647D01*
X15985Y29652D01*
X15991Y29657D01*
X15997Y29664D01*
X16000Y29668D01*
Y17327D01*
G37*
G36*
Y35000D02*X18000D01*
Y33940D01*
X17937Y33984D01*
X17830Y34034D01*
X17717Y34064D01*
X17600Y34075D01*
X17482Y34064D01*
X17369Y34034D01*
X17262Y33984D01*
X17166Y33917D01*
X17082Y33833D01*
X17015Y33737D01*
X16965Y33630D01*
X16935Y33517D01*
X16925Y33400D01*
X16935Y33282D01*
X16965Y33169D01*
X17015Y33062D01*
X17082Y32966D01*
X17166Y32882D01*
X17262Y32815D01*
X17369Y32765D01*
X17482Y32735D01*
X17600Y32725D01*
X17717Y32735D01*
X17830Y32765D01*
X17937Y32815D01*
X18000Y32859D01*
Y30600D01*
X17895Y30590D01*
X17794Y30563D01*
X17700Y30519D01*
X17614Y30459D01*
X17540Y30385D01*
X17480Y30300D01*
X17436Y30205D01*
X17409Y30104D01*
X17400Y30000D01*
X17409Y29895D01*
X17436Y29794D01*
X17480Y29700D01*
X17540Y29614D01*
X17614Y29540D01*
X17700Y29480D01*
X17794Y29436D01*
X17895Y29409D01*
X18000Y29400D01*
Y17600D01*
X17895Y17590D01*
X17794Y17563D01*
X17700Y17519D01*
X17614Y17459D01*
X17540Y17385D01*
X17480Y17300D01*
X17436Y17205D01*
X17409Y17104D01*
X17400Y17000D01*
X17409Y16895D01*
X17436Y16794D01*
X17480Y16700D01*
X17540Y16614D01*
X17614Y16540D01*
X17700Y16480D01*
X17794Y16436D01*
X17895Y16409D01*
X18000Y16400D01*
Y14747D01*
X17970Y14750D01*
X17752Y14731D01*
X17542Y14674D01*
X17345Y14582D01*
X17166Y14457D01*
X17012Y14303D01*
X16887Y14125D01*
X16795Y13927D01*
X16739Y13717D01*
X16720Y13500D01*
X16739Y13282D01*
X16795Y13072D01*
X16887Y12875D01*
X17012Y12696D01*
X17166Y12542D01*
X17345Y12417D01*
X17542Y12325D01*
X17752Y12269D01*
X17970Y12250D01*
X18000Y12252D01*
Y0D01*
X16000D01*
Y16672D01*
X16019Y16700D01*
X16063Y16794D01*
X16090Y16895D01*
X16100Y17000D01*
X16090Y17104D01*
X16063Y17205D01*
X16019Y17300D01*
X16000Y17327D01*
Y29668D01*
X16026Y29712D01*
X16050Y29761D01*
X16070Y29813D01*
X16085Y29867D01*
X16094Y29922D01*
X16099Y29977D01*
X16099Y30033D01*
X16093Y30088D01*
X16082Y30142D01*
X16067Y30196D01*
X16046Y30247D01*
X16021Y30297D01*
X16000Y30330D01*
Y32859D01*
X16033Y32882D01*
X16117Y32966D01*
X16184Y33062D01*
X16234Y33169D01*
X16264Y33282D01*
X16275Y33400D01*
X16264Y33517D01*
X16234Y33630D01*
X16184Y33737D01*
X16117Y33833D01*
X16033Y33917D01*
X16000Y33940D01*
Y35000D01*
G37*
G36*
X18000D02*X20970D01*
Y14750D01*
X20752Y14731D01*
X20542Y14674D01*
X20345Y14582D01*
X20166Y14457D01*
X20012Y14303D01*
X19887Y14125D01*
X19795Y13927D01*
X19739Y13717D01*
X19720Y13500D01*
X19739Y13282D01*
X19795Y13072D01*
X19887Y12875D01*
X20012Y12696D01*
X20166Y12542D01*
X20345Y12417D01*
X20542Y12325D01*
X20752Y12269D01*
X20970Y12250D01*
Y0D01*
X18000D01*
Y12252D01*
X18187Y12269D01*
X18397Y12325D01*
X18595Y12417D01*
X18773Y12542D01*
X18927Y12696D01*
X19052Y12875D01*
X19144Y13072D01*
X19201Y13282D01*
X19220Y13500D01*
X19201Y13717D01*
X19144Y13927D01*
X19052Y14125D01*
X18927Y14303D01*
X18773Y14457D01*
X18595Y14582D01*
X18397Y14674D01*
X18187Y14731D01*
X18000Y14747D01*
Y16400D01*
X18104Y16409D01*
X18205Y16436D01*
X18300Y16480D01*
X18385Y16540D01*
X18459Y16614D01*
X18519Y16700D01*
X18563Y16794D01*
X18590Y16895D01*
X18600Y17000D01*
X18590Y17104D01*
X18563Y17205D01*
X18519Y17300D01*
X18459Y17385D01*
X18385Y17459D01*
X18300Y17519D01*
X18205Y17563D01*
X18104Y17590D01*
X18000Y17600D01*
Y29400D01*
X18104Y29409D01*
X18205Y29436D01*
X18300Y29480D01*
X18385Y29540D01*
X18459Y29614D01*
X18519Y29700D01*
X18563Y29794D01*
X18590Y29895D01*
X18600Y30000D01*
X18590Y30104D01*
X18563Y30205D01*
X18519Y30300D01*
X18459Y30385D01*
X18385Y30459D01*
X18300Y30519D01*
X18205Y30563D01*
X18104Y30590D01*
X18000Y30600D01*
Y32859D01*
X18033Y32882D01*
X18117Y32966D01*
X18184Y33062D01*
X18234Y33169D01*
X18264Y33282D01*
X18275Y33400D01*
X18264Y33517D01*
X18234Y33630D01*
X18184Y33737D01*
X18117Y33833D01*
X18033Y33917D01*
X18000Y33940D01*
Y35000D01*
G37*
G36*
X20970D02*X22270D01*
Y24418D01*
X22258Y24400D01*
X22185Y24271D01*
X22123Y24136D01*
X22074Y23997D01*
X22037Y23853D01*
X22012Y23707D01*
X22001Y23559D01*
X22002Y23411D01*
X22016Y23263D01*
X22043Y23117D01*
X22083Y22974D01*
X22135Y22835D01*
X22198Y22701D01*
X22270Y22581D01*
Y5983D01*
X22252Y5945D01*
X22222Y5831D01*
X22211Y5714D01*
X22222Y5597D01*
X22252Y5483D01*
X22270Y5445D01*
Y0D01*
X20970D01*
Y12250D01*
X21187Y12269D01*
X21397Y12325D01*
X21595Y12417D01*
X21773Y12542D01*
X21927Y12696D01*
X22052Y12875D01*
X22144Y13072D01*
X22201Y13282D01*
X22220Y13500D01*
X22201Y13717D01*
X22144Y13927D01*
X22052Y14125D01*
X21927Y14303D01*
X21773Y14457D01*
X21595Y14582D01*
X21397Y14674D01*
X21187Y14731D01*
X20970Y14750D01*
Y35000D01*
G37*
G36*
X22270Y23048D02*X22238Y23162D01*
X22214Y23291D01*
X22202Y23421D01*
X22200Y23552D01*
X22211Y23682D01*
X22232Y23811D01*
X22265Y23938D01*
X22270Y23951D01*
Y23048D01*
G37*
G36*
Y35000D02*X22886D01*
Y24992D01*
X22774Y24925D01*
X22653Y24839D01*
X22640Y24827D01*
X22630Y24813D01*
X22622Y24798D01*
X22617Y24781D01*
X22614Y24764D01*
X22615Y24747D01*
X22619Y24730D01*
X22626Y24713D01*
X22636Y24699D01*
X22648Y24686D01*
X22661Y24676D01*
X22677Y24668D01*
X22694Y24663D01*
X22711Y24660D01*
X22728Y24661D01*
X22745Y24665D01*
X22761Y24672D01*
X22776Y24682D01*
X22883Y24758D01*
X22886Y24760D01*
Y22240D01*
X22797Y22302D01*
X22797Y22302D01*
X22782Y22311D01*
X22766Y22317D01*
X22749Y22321D01*
X22731Y22322D01*
X22714Y22319D01*
X22697Y22314D01*
X22682Y22306D01*
X22668Y22295D01*
X22657Y22282D01*
X22648Y22267D01*
X22641Y22251D01*
X22637Y22234D01*
X22637Y22216D01*
X22639Y22199D01*
X22645Y22183D01*
X22653Y22167D01*
X22664Y22154D01*
X22676Y22142D01*
X22799Y22058D01*
X22886Y22008D01*
Y6389D01*
X22769Y6379D01*
X22655Y6348D01*
X22549Y6299D01*
X22452Y6231D01*
X22369Y6148D01*
X22302Y6051D01*
X22270Y5983D01*
Y22581D01*
X22274Y22574D01*
X22360Y22453D01*
X22372Y22440D01*
X22386Y22430D01*
X22401Y22422D01*
X22418Y22417D01*
X22435Y22415D01*
X22453Y22416D01*
X22470Y22419D01*
X22486Y22426D01*
X22500Y22436D01*
X22513Y22448D01*
X22523Y22462D01*
X22531Y22477D01*
X22536Y22494D01*
X22539Y22511D01*
X22538Y22528D01*
X22534Y22545D01*
X22527Y22562D01*
X22517Y22576D01*
X22441Y22683D01*
X22375Y22795D01*
X22319Y22914D01*
X22273Y23036D01*
X22270Y23048D01*
Y23951D01*
X22309Y24062D01*
X22363Y24181D01*
X22427Y24294D01*
X22502Y24402D01*
X22501Y24402D01*
X22511Y24417D01*
X22517Y24433D01*
X22521Y24450D01*
X22521Y24468D01*
X22519Y24485D01*
X22514Y24502D01*
X22505Y24517D01*
X22495Y24531D01*
X22482Y24542D01*
X22467Y24552D01*
X22451Y24558D01*
X22434Y24562D01*
X22416Y24562D01*
X22399Y24560D01*
X22383Y24554D01*
X22367Y24546D01*
X22353Y24536D01*
X22342Y24523D01*
X22270Y24418D01*
Y35000D01*
G37*
G36*
Y5445D02*X22302Y5376D01*
X22369Y5280D01*
X22452Y5197D01*
X22549Y5129D01*
X22655Y5080D01*
X22769Y5049D01*
X22886Y5039D01*
Y0D01*
X22270D01*
Y5445D01*
G37*
G36*
X22886Y35000D02*X25129D01*
Y24418D01*
X25125Y24425D01*
X25039Y24546D01*
X25027Y24559D01*
X25013Y24569D01*
X24998Y24577D01*
X24981Y24582D01*
X24964Y24585D01*
X24946Y24584D01*
X24929Y24580D01*
X24913Y24573D01*
X24899Y24563D01*
X24886Y24552D01*
X24876Y24538D01*
X24868Y24522D01*
X24863Y24505D01*
X24860Y24488D01*
X24861Y24471D01*
X24865Y24454D01*
X24872Y24438D01*
X24882Y24423D01*
X24958Y24317D01*
X25024Y24204D01*
X25080Y24086D01*
X25126Y23963D01*
X25129Y23951D01*
Y23048D01*
X25090Y22938D01*
X25036Y22819D01*
X24972Y22705D01*
X24897Y22597D01*
X24898Y22597D01*
X24888Y22582D01*
X24882Y22566D01*
X24878Y22549D01*
X24878Y22531D01*
X24880Y22514D01*
X24885Y22498D01*
X24894Y22482D01*
X24904Y22468D01*
X24917Y22457D01*
X24932Y22448D01*
X24948Y22441D01*
X24965Y22437D01*
X24983Y22437D01*
X25000Y22439D01*
X25016Y22445D01*
X25032Y22453D01*
X25046Y22464D01*
X25057Y22477D01*
X25129Y22582D01*
Y12434D01*
X25128Y12434D01*
X25046Y12376D01*
X24975Y12305D01*
X24918Y12223D01*
X24875Y12132D01*
X24849Y12035D01*
X24841Y11936D01*
X24849Y11836D01*
X24875Y11739D01*
X24918Y11648D01*
X24975Y11566D01*
X25046Y11495D01*
X25128Y11438D01*
X25129Y11437D01*
Y4511D01*
X24991D01*
X24965Y4508D01*
X24939Y4502D01*
X24916Y4490D01*
X24894Y4475D01*
X24876Y4457D01*
X24861Y4436D01*
X24850Y4412D01*
X24843Y4387D01*
X24841Y4361D01*
Y3511D01*
X24843Y3485D01*
X24850Y3459D01*
X24861Y3436D01*
X24876Y3414D01*
X24894Y3396D01*
X24916Y3381D01*
X24939Y3370D01*
X24965Y3363D01*
X24991Y3361D01*
X25129D01*
Y0D01*
X22886D01*
Y5039D01*
X23003Y5049D01*
X23117Y5080D01*
X23224Y5129D01*
X23320Y5197D01*
X23403Y5280D01*
X23471Y5376D01*
X23521Y5483D01*
X23551Y5597D01*
X23561Y5714D01*
X23551Y5831D01*
X23521Y5945D01*
X23471Y6051D01*
X23403Y6148D01*
X23320Y6231D01*
X23224Y6299D01*
X23117Y6348D01*
X23003Y6379D01*
X22886Y6389D01*
Y22008D01*
X22928Y21985D01*
X23063Y21923D01*
X23202Y21874D01*
X23346Y21837D01*
X23492Y21812D01*
X23640Y21801D01*
X23788Y21802D01*
X23936Y21816D01*
X24082Y21843D01*
X24225Y21883D01*
X24364Y21935D01*
X24498Y21999D01*
X24625Y22074D01*
X24746Y22160D01*
X24759Y22172D01*
X24769Y22186D01*
X24777Y22201D01*
X24782Y22218D01*
X24785Y22235D01*
X24784Y22253D01*
X24780Y22270D01*
X24773Y22286D01*
X24763Y22300D01*
X24751Y22313D01*
X24738Y22324D01*
X24722Y22331D01*
X24705Y22337D01*
X24688Y22339D01*
X24671Y22338D01*
X24654Y22334D01*
X24638Y22327D01*
X24623Y22318D01*
X24516Y22242D01*
X24404Y22175D01*
X24286Y22119D01*
X24163Y22073D01*
X24037Y22038D01*
X23908Y22014D01*
X23778Y22002D01*
X23647Y22001D01*
X23517Y22011D01*
X23388Y22032D01*
X23261Y22065D01*
X23138Y22109D01*
X23019Y22163D01*
X22905Y22228D01*
X22886Y22240D01*
Y24760D01*
X22995Y24824D01*
X23113Y24880D01*
X23236Y24926D01*
X23362Y24961D01*
X23491Y24985D01*
X23621Y24998D01*
X23752Y24999D01*
X23882Y24988D01*
X24011Y24967D01*
X24138Y24934D01*
X24261Y24890D01*
X24380Y24836D01*
X24494Y24772D01*
X24602Y24698D01*
X24602Y24698D01*
X24617Y24688D01*
X24633Y24682D01*
X24650Y24678D01*
X24668Y24678D01*
X24685Y24680D01*
X24702Y24686D01*
X24717Y24694D01*
X24731Y24704D01*
X24742Y24717D01*
X24751Y24732D01*
X24758Y24748D01*
X24762Y24765D01*
X24762Y24783D01*
X24760Y24800D01*
X24754Y24817D01*
X24746Y24832D01*
X24735Y24846D01*
X24723Y24857D01*
X24600Y24941D01*
X24471Y25014D01*
X24336Y25076D01*
X24197Y25125D01*
X24053Y25162D01*
X23907Y25187D01*
X23759Y25199D01*
X23611Y25197D01*
X23463Y25183D01*
X23317Y25156D01*
X23174Y25116D01*
X23035Y25064D01*
X22901Y25001D01*
X22886Y24992D01*
Y35000D01*
G37*
G36*
X25129D02*X25416D01*
Y12511D01*
X25316Y12502D01*
X25219Y12476D01*
X25129Y12434D01*
Y22582D01*
X25141Y22599D01*
X25214Y22728D01*
X25276Y22863D01*
X25325Y23003D01*
X25362Y23146D01*
X25387Y23292D01*
X25398Y23440D01*
X25397Y23589D01*
X25383Y23736D01*
X25356Y23882D01*
X25316Y24025D01*
X25264Y24164D01*
X25201Y24298D01*
X25129Y24418D01*
Y35000D01*
G37*
G36*
Y11437D02*X25219Y11395D01*
X25316Y11369D01*
X25416Y11361D01*
Y4511D01*
X25129D01*
Y11437D01*
G37*
G36*
Y3361D02*X25416D01*
Y0D01*
X25129D01*
Y3361D01*
G37*
G36*
Y23951D02*X25161Y23837D01*
X25185Y23708D01*
X25197Y23578D01*
X25199Y23447D01*
X25188Y23317D01*
X25167Y23188D01*
X25134Y23061D01*
X25129Y23048D01*
Y23951D01*
G37*
G36*
X25416Y35000D02*X28586D01*
Y32327D01*
X28572Y32321D01*
X28551Y32306D01*
X28532Y32288D01*
X28517Y32266D01*
X28506Y32242D01*
X28499Y32217D01*
X28497Y32191D01*
Y31591D01*
X28499Y31565D01*
X28506Y31540D01*
X28517Y31516D01*
X28532Y31495D01*
X28551Y31476D01*
X28572Y31461D01*
X28586Y31455D01*
Y28105D01*
X28576Y28103D01*
X28564Y28098D01*
X28553Y28091D01*
X28543Y28082D01*
X28536Y28071D01*
X28530Y28060D01*
X28515Y28019D01*
X28505Y27977D01*
X28499Y27934D01*
X28497Y27891D01*
X28499Y27848D01*
X28505Y27805D01*
X28515Y27763D01*
X28530Y27723D01*
X28530D01*
X28536Y27711D01*
X28544Y27701D01*
X28553Y27692D01*
X28564Y27685D01*
X28576Y27679D01*
X28586Y27677D01*
Y6544D01*
X28582Y6500D01*
X28586Y6455D01*
Y2794D01*
X28582Y2750D01*
X28586Y2705D01*
Y0D01*
X25416D01*
Y3361D01*
X25841D01*
X25867Y3363D01*
X25892Y3370D01*
X25916Y3381D01*
X25937Y3396D01*
X25955Y3414D01*
X25970Y3436D01*
X25982Y3459D01*
X25988Y3485D01*
X25991Y3511D01*
Y4361D01*
X25988Y4387D01*
X25982Y4412D01*
X25970Y4436D01*
X25955Y4457D01*
X25937Y4475D01*
X25916Y4490D01*
X25892Y4502D01*
X25867Y4508D01*
X25841Y4511D01*
X25416D01*
Y11361D01*
X25515Y11369D01*
X25612Y11395D01*
X25703Y11438D01*
X25785Y11495D01*
X25856Y11566D01*
X25914Y11648D01*
X25956Y11739D01*
X25982Y11836D01*
X25991Y11936D01*
X25982Y12035D01*
X25956Y12132D01*
X25914Y12223D01*
X25856Y12305D01*
X25785Y12376D01*
X25703Y12434D01*
X25612Y12476D01*
X25515Y12502D01*
X25416Y12511D01*
Y35000D01*
G37*
G36*
X28586D02*X28726D01*
Y32341D01*
X28647D01*
X28621Y32339D01*
X28596Y32332D01*
X28586Y32327D01*
Y35000D01*
G37*
G36*
Y31455D02*X28596Y31450D01*
X28621Y31443D01*
X28647Y31441D01*
X28726D01*
Y20075D01*
X28713Y20074D01*
X28701Y20070D01*
X28689Y20065D01*
X28678Y20057D01*
X28669Y20048D01*
X28661Y20037D01*
X28656Y20025D01*
X28652Y20013D01*
X28651Y20000D01*
Y19700D01*
X28652Y19687D01*
X28656Y19674D01*
X28661Y19662D01*
X28669Y19651D01*
X28678Y19642D01*
X28689Y19635D01*
X28701Y19629D01*
X28713Y19626D01*
X28726Y19625D01*
Y16096D01*
X28712Y16075D01*
X28678Y16004D01*
X28658Y15928D01*
X28651Y15850D01*
X28658Y15772D01*
X28678Y15696D01*
X28712Y15625D01*
X28726Y15604D01*
Y6791D01*
X28713Y6781D01*
X28668Y6736D01*
X28631Y6683D01*
X28604Y6625D01*
X28587Y6563D01*
X28586Y6544D01*
Y27677D01*
X28589Y27677D01*
X28602Y27676D01*
X28615Y27677D01*
X28627Y27681D01*
X28639Y27687D01*
X28649Y27695D01*
X28658Y27705D01*
X28665Y27716D01*
X28671Y27728D01*
X28673Y27740D01*
X28674Y27753D01*
X28673Y27766D01*
X28669Y27779D01*
X28659Y27806D01*
X28652Y27834D01*
X28648Y27862D01*
X28647Y27891D01*
X28648Y27920D01*
X28652Y27948D01*
X28659Y27976D01*
X28669Y28004D01*
X28669D01*
X28673Y28016D01*
X28674Y28029D01*
X28674Y28042D01*
X28671Y28055D01*
X28666Y28067D01*
X28658Y28078D01*
X28649Y28087D01*
X28639Y28095D01*
X28627Y28101D01*
X28615Y28105D01*
X28602Y28107D01*
X28589Y28106D01*
X28586Y28105D01*
Y31455D01*
G37*
G36*
Y6455D02*X28587Y6436D01*
X28604Y6374D01*
X28631Y6316D01*
X28668Y6263D01*
X28713Y6218D01*
X28726Y6209D01*
Y3041D01*
X28713Y3031D01*
X28668Y2986D01*
X28631Y2933D01*
X28604Y2875D01*
X28587Y2813D01*
X28586Y2794D01*
Y6455D01*
G37*
G36*
Y2705D02*X28587Y2686D01*
X28604Y2624D01*
X28631Y2566D01*
X28668Y2513D01*
X28713Y2468D01*
X28726Y2459D01*
Y0D01*
X28586D01*
Y2705D01*
G37*
G36*
X28726Y35000D02*X29101D01*
Y32341D01*
X28726D01*
Y35000D01*
G37*
G36*
X29101Y0D02*X28726D01*
Y2459D01*
X28766Y2431D01*
X28824Y2404D01*
X28886Y2387D01*
X28950Y2382D01*
X29013Y2387D01*
X29075Y2404D01*
X29101Y2416D01*
Y0D01*
G37*
G36*
Y3083D02*X29075Y3095D01*
X29013Y3112D01*
X28950Y3117D01*
X28886Y3112D01*
X28824Y3095D01*
X28766Y3068D01*
X28726Y3041D01*
Y6209D01*
X28766Y6181D01*
X28824Y6154D01*
X28886Y6137D01*
X28950Y6132D01*
X29013Y6137D01*
X29075Y6154D01*
X29101Y6166D01*
Y3083D01*
G37*
G36*
Y6833D02*X29075Y6845D01*
X29013Y6862D01*
X28950Y6867D01*
X28886Y6862D01*
X28824Y6845D01*
X28766Y6818D01*
X28726Y6791D01*
Y15604D01*
X28757Y15560D01*
X28812Y15505D01*
X28876Y15460D01*
X28947Y15427D01*
X29023Y15406D01*
X29101Y15400D01*
Y6833D01*
G37*
G36*
Y16300D02*X29023Y16293D01*
X28947Y16273D01*
X28876Y16239D01*
X28812Y16194D01*
X28757Y16139D01*
X28726Y16096D01*
Y19625D01*
X28739Y19626D01*
X28752Y19629D01*
X28764Y19635D01*
X28774Y19642D01*
X28784Y19651D01*
X28791Y19662D01*
X28797Y19674D01*
X28800Y19687D01*
X28801Y19700D01*
Y20000D01*
X28800Y20013D01*
X28797Y20025D01*
X28791Y20037D01*
X28784Y20048D01*
X28774Y20057D01*
X28764Y20065D01*
X28752Y20070D01*
X28739Y20074D01*
X28726Y20075D01*
Y31441D01*
X29101D01*
Y28313D01*
X29075Y28323D01*
X29033Y28333D01*
X28990Y28339D01*
X28947Y28341D01*
X28904Y28339D01*
X28861Y28333D01*
X28819Y28323D01*
X28778Y28308D01*
Y28308D01*
X28767Y28302D01*
X28756Y28295D01*
X28747Y28285D01*
X28740Y28274D01*
X28735Y28262D01*
X28732Y28249D01*
X28732Y28236D01*
X28733Y28223D01*
X28737Y28211D01*
X28743Y28199D01*
X28751Y28189D01*
X28760Y28180D01*
X28771Y28173D01*
X28783Y28168D01*
X28796Y28165D01*
X28809Y28164D01*
X28822Y28166D01*
X28835Y28169D01*
X28862Y28179D01*
X28890Y28186D01*
X28918Y28190D01*
X28947Y28191D01*
X28976Y28190D01*
X29004Y28186D01*
X29032Y28179D01*
X29059Y28169D01*
Y28169D01*
X29072Y28165D01*
X29085Y28164D01*
X29098Y28165D01*
X29101Y28165D01*
Y27617D01*
X29098Y27618D01*
X29085Y27618D01*
X29072Y27617D01*
X29059Y27613D01*
X29032Y27604D01*
X29004Y27597D01*
X28976Y27593D01*
X28947Y27591D01*
X28918Y27593D01*
X28890Y27597D01*
X28862Y27604D01*
X28835Y27613D01*
Y27613D01*
X28822Y27617D01*
X28809Y27619D01*
X28796Y27618D01*
X28783Y27615D01*
X28771Y27610D01*
X28760Y27603D01*
X28751Y27594D01*
X28743Y27583D01*
X28737Y27572D01*
X28733Y27559D01*
X28731Y27546D01*
X28732Y27533D01*
X28735Y27520D01*
X28740Y27508D01*
X28747Y27497D01*
X28756Y27488D01*
X28767Y27480D01*
X28778Y27474D01*
X28819Y27460D01*
X28861Y27449D01*
X28904Y27443D01*
X28947Y27441D01*
X28990Y27443D01*
X29033Y27449D01*
X29075Y27460D01*
X29101Y27469D01*
Y20300D01*
X28951D01*
X28938Y20299D01*
X28926Y20295D01*
X28914Y20290D01*
X28903Y20282D01*
X28894Y20273D01*
X28886Y20262D01*
X28881Y20250D01*
X28877Y20238D01*
X28876Y20225D01*
X28877Y20212D01*
X28881Y20199D01*
X28886Y20187D01*
X28894Y20176D01*
X28903Y20167D01*
X28914Y20160D01*
X28926Y20154D01*
X28938Y20151D01*
X28951Y20150D01*
X29101D01*
Y19550D01*
X28951D01*
X28938Y19549D01*
X28926Y19545D01*
X28914Y19540D01*
X28903Y19532D01*
X28894Y19523D01*
X28886Y19512D01*
X28881Y19500D01*
X28877Y19488D01*
X28876Y19475D01*
X28877Y19462D01*
X28881Y19449D01*
X28886Y19437D01*
X28894Y19426D01*
X28903Y19417D01*
X28914Y19410D01*
X28926Y19404D01*
X28938Y19401D01*
X28951Y19400D01*
X29101D01*
Y16300D01*
G37*
G36*
Y35000D02*X29308D01*
Y32327D01*
X29298Y32332D01*
X29273Y32339D01*
X29247Y32341D01*
X29101D01*
Y35000D01*
G37*
G36*
X29308Y16248D02*X29255Y16273D01*
X29179Y16293D01*
X29101Y16300D01*
Y19400D01*
X29251D01*
X29264Y19401D01*
X29277Y19404D01*
X29289Y19410D01*
X29299Y19417D01*
X29308Y19426D01*
Y16248D01*
G37*
G36*
Y19523D02*X29299Y19532D01*
X29289Y19540D01*
X29277Y19545D01*
X29264Y19549D01*
X29251Y19550D01*
X29101D01*
Y20150D01*
X29251D01*
X29264Y20151D01*
X29277Y20154D01*
X29289Y20160D01*
X29299Y20167D01*
X29308Y20176D01*
Y19523D01*
G37*
G36*
Y20273D02*X29299Y20282D01*
X29289Y20290D01*
X29277Y20295D01*
X29264Y20299D01*
X29251Y20300D01*
X29101D01*
Y27469D01*
X29115Y27474D01*
Y27474D01*
X29127Y27480D01*
X29138Y27488D01*
X29146Y27497D01*
X29154Y27508D01*
X29159Y27520D01*
X29162Y27533D01*
X29162Y27546D01*
X29161Y27559D01*
X29157Y27572D01*
X29151Y27583D01*
X29143Y27594D01*
X29133Y27603D01*
X29123Y27610D01*
X29110Y27615D01*
X29101Y27617D01*
Y28165D01*
X29111Y28167D01*
X29123Y28173D01*
X29134Y28180D01*
X29143Y28189D01*
X29151Y28199D01*
X29157Y28211D01*
X29161Y28223D01*
X29162Y28236D01*
X29162Y28249D01*
X29159Y28262D01*
X29154Y28274D01*
X29146Y28285D01*
X29138Y28295D01*
X29127Y28303D01*
X29115Y28308D01*
X29101Y28313D01*
Y31441D01*
X29247D01*
X29273Y31443D01*
X29298Y31450D01*
X29308Y31455D01*
Y28105D01*
X29305Y28106D01*
X29292Y28107D01*
X29279Y28105D01*
X29266Y28101D01*
X29255Y28095D01*
X29244Y28087D01*
X29235Y28078D01*
X29228Y28067D01*
X29223Y28055D01*
X29220Y28042D01*
X29220Y28029D01*
X29221Y28016D01*
X29225Y28004D01*
X29235Y27976D01*
X29241Y27948D01*
X29246Y27920D01*
X29247Y27891D01*
X29246Y27862D01*
X29241Y27834D01*
X29235Y27806D01*
X29225Y27779D01*
X29225D01*
X29221Y27766D01*
X29220Y27753D01*
X29220Y27740D01*
X29223Y27728D01*
X29228Y27715D01*
X29235Y27705D01*
X29244Y27695D01*
X29255Y27687D01*
X29266Y27681D01*
X29279Y27677D01*
X29292Y27676D01*
X29305Y27676D01*
X29308Y27677D01*
Y20273D01*
G37*
G36*
Y35000D02*X29476D01*
Y20075D01*
X29463Y20074D01*
X29451Y20070D01*
X29439Y20065D01*
X29428Y20057D01*
X29419Y20048D01*
X29411Y20037D01*
X29406Y20025D01*
X29402Y20013D01*
X29401Y20000D01*
Y19700D01*
X29402Y19687D01*
X29406Y19674D01*
X29411Y19662D01*
X29419Y19651D01*
X29428Y19642D01*
X29439Y19635D01*
X29451Y19629D01*
X29463Y19626D01*
X29476Y19625D01*
Y16096D01*
X29446Y16139D01*
X29391Y16194D01*
X29326Y16239D01*
X29308Y16248D01*
Y19426D01*
X29309Y19426D01*
X29316Y19437D01*
X29322Y19449D01*
X29325Y19462D01*
X29326Y19475D01*
X29325Y19488D01*
X29322Y19500D01*
X29316Y19512D01*
X29309Y19523D01*
X29308Y19523D01*
Y20176D01*
X29309Y20176D01*
X29316Y20187D01*
X29322Y20199D01*
X29325Y20212D01*
X29326Y20225D01*
X29325Y20238D01*
X29322Y20250D01*
X29316Y20262D01*
X29309Y20273D01*
X29308Y20273D01*
Y27677D01*
X29318Y27679D01*
X29330Y27684D01*
X29341Y27692D01*
X29350Y27701D01*
X29358Y27711D01*
X29364Y27723D01*
X29378Y27763D01*
X29389Y27805D01*
X29395Y27848D01*
X29397Y27891D01*
X29395Y27934D01*
X29389Y27977D01*
X29378Y28019D01*
X29364Y28060D01*
X29364D01*
X29358Y28071D01*
X29350Y28082D01*
X29341Y28091D01*
X29330Y28098D01*
X29318Y28103D01*
X29308Y28105D01*
Y31455D01*
X29322Y31461D01*
X29343Y31476D01*
X29362Y31495D01*
X29377Y31516D01*
X29388Y31540D01*
X29395Y31565D01*
X29397Y31591D01*
Y32191D01*
X29395Y32217D01*
X29388Y32242D01*
X29377Y32266D01*
X29362Y32288D01*
X29343Y32306D01*
X29322Y32321D01*
X29308Y32327D01*
Y35000D01*
G37*
G36*
X29476Y0D02*X29101D01*
Y2416D01*
X29133Y2431D01*
X29186Y2468D01*
X29231Y2513D01*
X29268Y2566D01*
X29295Y2624D01*
X29312Y2686D01*
X29317Y2750D01*
X29312Y2813D01*
X29295Y2875D01*
X29268Y2933D01*
X29231Y2986D01*
X29186Y3031D01*
X29133Y3068D01*
X29101Y3083D01*
Y6166D01*
X29133Y6181D01*
X29186Y6218D01*
X29231Y6263D01*
X29268Y6316D01*
X29295Y6374D01*
X29312Y6436D01*
X29317Y6500D01*
X29312Y6563D01*
X29295Y6625D01*
X29268Y6683D01*
X29231Y6736D01*
X29186Y6781D01*
X29133Y6818D01*
X29101Y6833D01*
Y15400D01*
X29179Y15406D01*
X29255Y15427D01*
X29326Y15460D01*
X29391Y15505D01*
X29446Y15560D01*
X29476Y15604D01*
Y0D01*
G37*
G36*
Y35000D02*X34208D01*
Y31793D01*
X34198Y31791D01*
X34175Y31779D01*
X34153Y31764D01*
X34135Y31746D01*
X34120Y31725D01*
X34109Y31701D01*
X34102Y31676D01*
X34100Y31650D01*
Y30750D01*
X34102Y30724D01*
X34109Y30698D01*
X34120Y30675D01*
X34135Y30653D01*
X34153Y30635D01*
X34175Y30620D01*
X34198Y30609D01*
X34208Y30606D01*
Y30515D01*
X34196Y30510D01*
X34186Y30502D01*
X34177Y30492D01*
X34170Y30481D01*
X34146Y30432D01*
X34128Y30381D01*
X34114Y30329D01*
X34104Y30276D01*
X34100Y30221D01*
X34100Y30167D01*
X34106Y30113D01*
X34116Y30060D01*
X34131Y30008D01*
X34151Y29957D01*
X34175Y29909D01*
Y29909D01*
X34182Y29898D01*
X34191Y29888D01*
X34202Y29881D01*
X34208Y29878D01*
Y29539D01*
X34180Y29500D01*
X34136Y29405D01*
X34109Y29304D01*
X34100Y29200D01*
X34109Y29095D01*
X34136Y28994D01*
X34180Y28900D01*
X34208Y28860D01*
Y0D01*
X29476D01*
Y15604D01*
X29491Y15625D01*
X29524Y15696D01*
X29544Y15772D01*
X29551Y15850D01*
X29544Y15928D01*
X29524Y16004D01*
X29491Y16075D01*
X29476Y16096D01*
Y19625D01*
X29489Y19626D01*
X29502Y19629D01*
X29514Y19635D01*
X29524Y19642D01*
X29534Y19651D01*
X29541Y19662D01*
X29547Y19674D01*
X29550Y19687D01*
X29551Y19700D01*
Y20000D01*
X29550Y20013D01*
X29547Y20025D01*
X29541Y20037D01*
X29534Y20048D01*
X29524Y20057D01*
X29514Y20065D01*
X29502Y20070D01*
X29489Y20074D01*
X29476Y20075D01*
Y35000D01*
G37*
G36*
X34208D02*X34475D01*
Y31800D01*
X34250D01*
X34224Y31797D01*
X34208Y31793D01*
Y35000D01*
G37*
G36*
Y30606D02*X34224Y30602D01*
X34234Y30601D01*
X34250Y30600D01*
X34399D01*
X34406Y30594D01*
X34418Y30589D01*
X34431Y30585D01*
X34444Y30584D01*
X34457Y30585D01*
X34469Y30588D01*
X34475Y30590D01*
Y29808D01*
X34463Y29810D01*
X34450Y29811D01*
X34437Y29809D01*
X34425Y29806D01*
X34413Y29800D01*
X34403Y29792D01*
X34394Y29782D01*
X34387Y29771D01*
X34382Y29759D01*
X34379Y29746D01*
X34378Y29733D01*
X34380Y29720D01*
X34384Y29708D01*
X34359Y29690D01*
X34314Y29659D01*
X34240Y29585D01*
X34208Y29539D01*
Y29878D01*
X34213Y29875D01*
X34226Y29871D01*
X34239Y29870D01*
X34252Y29871D01*
X34265Y29874D01*
X34277Y29879D01*
X34288Y29887D01*
X34297Y29896D01*
X34305Y29906D01*
X34310Y29918D01*
X34314Y29931D01*
X34315Y29944D01*
X34314Y29957D01*
X34311Y29970D01*
X34306Y29981D01*
X34288Y30018D01*
X34273Y30056D01*
X34262Y30095D01*
X34254Y30135D01*
X34250Y30175D01*
X34250Y30216D01*
X34253Y30257D01*
X34260Y30297D01*
X34271Y30336D01*
X34285Y30374D01*
X34302Y30411D01*
X34307Y30423D01*
X34310Y30436D01*
X34311Y30449D01*
X34309Y30462D01*
X34305Y30474D01*
X34300Y30486D01*
X34292Y30496D01*
X34282Y30505D01*
X34271Y30512D01*
X34259Y30517D01*
X34246Y30520D01*
X34233Y30521D01*
X34220Y30519D01*
X34208Y30516D01*
X34208Y30515D01*
Y30606D01*
G37*
G36*
Y28860D02*X34240Y28814D01*
X34314Y28740D01*
X34400Y28680D01*
X34475Y28645D01*
Y22875D01*
X34462Y22873D01*
X34449Y22870D01*
X34437Y22865D01*
X34426Y22857D01*
X34417Y22848D01*
X34410Y22837D01*
X34404Y22825D01*
X34401Y22813D01*
X34400Y22800D01*
Y22200D01*
X34401Y22187D01*
X34404Y22174D01*
X34410Y22162D01*
X34417Y22151D01*
X34426Y22142D01*
X34437Y22135D01*
X34449Y22129D01*
X34462Y22126D01*
X34475Y22125D01*
Y21788D01*
X34436Y21705D01*
X34409Y21604D01*
X34400Y21500D01*
X34409Y21395D01*
X34436Y21294D01*
X34475Y21211D01*
Y20788D01*
X34436Y20705D01*
X34409Y20604D01*
X34400Y20500D01*
X34409Y20395D01*
X34436Y20294D01*
X34475Y20211D01*
Y0D01*
X34208D01*
Y28860D01*
G37*
G36*
X34475Y35000D02*X35000D01*
Y31800D01*
X34475D01*
Y35000D01*
G37*
G36*
X35000Y0D02*X34475D01*
Y20211D01*
X34480Y20200D01*
X34540Y20114D01*
X34614Y20040D01*
X34700Y19980D01*
X34794Y19936D01*
X34895Y19909D01*
X35000Y19900D01*
Y0D01*
G37*
G36*
Y22100D02*X34895Y22090D01*
X34794Y22063D01*
X34765Y22050D01*
X34700D01*
X34687Y22048D01*
X34674Y22045D01*
X34662Y22040D01*
X34651Y22032D01*
X34642Y22023D01*
X34635Y22012D01*
X34629Y22000D01*
X34626Y21988D01*
X34625Y21975D01*
X34625Y21967D01*
X34614Y21959D01*
X34540Y21885D01*
X34480Y21800D01*
X34475Y21788D01*
Y22125D01*
X34488Y22126D01*
X34500Y22129D01*
X34512Y22135D01*
X34523Y22142D01*
X34532Y22151D01*
X34540Y22162D01*
X34545Y22174D01*
X34548Y22187D01*
X34550Y22200D01*
Y22800D01*
X34548Y22813D01*
X34545Y22825D01*
X34540Y22837D01*
X34532Y22848D01*
X34523Y22857D01*
X34512Y22865D01*
X34500Y22870D01*
X34488Y22873D01*
X34475Y22875D01*
Y28645D01*
X34494Y28636D01*
X34595Y28609D01*
X34700Y28600D01*
X34804Y28609D01*
X34905Y28636D01*
X35000Y28680D01*
Y23100D01*
X34700D01*
X34687Y23098D01*
X34674Y23095D01*
X34662Y23090D01*
X34651Y23082D01*
X34642Y23073D01*
X34635Y23062D01*
X34629Y23050D01*
X34626Y23038D01*
X34625Y23025D01*
X34626Y23012D01*
X34629Y22999D01*
X34635Y22987D01*
X34642Y22976D01*
X34651Y22967D01*
X34662Y22960D01*
X34674Y22954D01*
X34687Y22951D01*
X34700Y22950D01*
X35000D01*
Y22100D01*
G37*
G36*
Y29800D02*X34993Y29805D01*
X34981Y29811D01*
X34968Y29814D01*
X34955Y29815D01*
X34942Y29815D01*
X34930Y29811D01*
X34918Y29806D01*
X34881Y29788D01*
X34853Y29777D01*
X34804Y29790D01*
X34700Y29800D01*
X34595Y29790D01*
X34546Y29777D01*
X34525Y29785D01*
X34488Y29802D01*
X34476Y29807D01*
X34475Y29808D01*
Y30590D01*
X34481Y30593D01*
X34494Y30600D01*
X34905D01*
X34911Y30597D01*
X34923Y30592D01*
X34936Y30589D01*
X34949Y30588D01*
X34962Y30590D01*
X34974Y30594D01*
X34986Y30600D01*
X35000D01*
Y29800D01*
G37*
G36*
Y35000D02*X35191D01*
Y31793D01*
X35176Y31797D01*
X35150Y31800D01*
X35000D01*
Y35000D01*
G37*
G36*
X35191Y22067D02*X35104Y22090D01*
X35000Y22100D01*
Y22950D01*
X35191D01*
Y22067D01*
G37*
G36*
Y23100D02*X35000D01*
Y28680D01*
X35085Y28740D01*
X35159Y28814D01*
X35191Y28860D01*
Y23100D01*
G37*
G36*
Y29539D02*X35159Y29585D01*
X35085Y29659D01*
X35041Y29690D01*
X35020Y29705D01*
X35024Y29714D01*
X35028Y29726D01*
X35029Y29739D01*
X35028Y29752D01*
X35025Y29765D01*
X35020Y29777D01*
X35012Y29788D01*
X35003Y29797D01*
X35000Y29800D01*
Y30600D01*
X35150D01*
X35165Y30601D01*
X35176Y30602D01*
X35191Y30606D01*
Y30521D01*
X35186Y30524D01*
X35173Y30528D01*
X35160Y30529D01*
X35147Y30528D01*
X35134Y30525D01*
X35122Y30520D01*
X35111Y30512D01*
X35102Y30503D01*
X35094Y30493D01*
X35089Y30481D01*
X35085Y30468D01*
X35084Y30455D01*
X35085Y30442D01*
X35088Y30430D01*
X35093Y30418D01*
X35111Y30381D01*
X35126Y30343D01*
X35137Y30304D01*
X35145Y30264D01*
X35149Y30224D01*
X35149Y30183D01*
X35146Y30143D01*
X35139Y30103D01*
X35128Y30063D01*
X35114Y30025D01*
X35097Y29988D01*
X35092Y29976D01*
X35089Y29964D01*
X35088Y29951D01*
X35090Y29938D01*
X35094Y29925D01*
X35099Y29913D01*
X35107Y29903D01*
X35117Y29894D01*
X35128Y29887D01*
X35140Y29882D01*
X35153Y29879D01*
X35166Y29878D01*
X35179Y29880D01*
X35191Y29884D01*
X35191Y29884D01*
Y29539D01*
G37*
G36*
Y35000D02*X35525D01*
Y22875D01*
X35512Y22873D01*
X35499Y22870D01*
X35487Y22865D01*
X35476Y22857D01*
X35467Y22848D01*
X35460Y22837D01*
X35454Y22825D01*
X35451Y22813D01*
X35450Y22800D01*
Y22200D01*
X35451Y22187D01*
X35454Y22174D01*
X35460Y22162D01*
X35467Y22151D01*
X35476Y22142D01*
X35487Y22135D01*
X35499Y22129D01*
X35512Y22126D01*
X35525Y22125D01*
Y21788D01*
X35519Y21800D01*
X35459Y21885D01*
X35385Y21959D01*
X35374Y21967D01*
X35375Y21975D01*
X35373Y21988D01*
X35370Y22000D01*
X35365Y22012D01*
X35357Y22023D01*
X35348Y22032D01*
X35337Y22040D01*
X35325Y22045D01*
X35313Y22048D01*
X35300Y22050D01*
X35234D01*
X35205Y22063D01*
X35191Y22067D01*
Y22950D01*
X35300D01*
X35313Y22951D01*
X35325Y22954D01*
X35337Y22960D01*
X35348Y22967D01*
X35357Y22976D01*
X35365Y22987D01*
X35370Y22999D01*
X35373Y23012D01*
X35375Y23025D01*
X35373Y23038D01*
X35370Y23050D01*
X35365Y23062D01*
X35357Y23073D01*
X35348Y23082D01*
X35337Y23090D01*
X35325Y23095D01*
X35313Y23098D01*
X35300Y23100D01*
X35191D01*
Y28860D01*
X35219Y28900D01*
X35263Y28994D01*
X35290Y29095D01*
X35300Y29200D01*
X35290Y29304D01*
X35263Y29405D01*
X35219Y29500D01*
X35191Y29539D01*
Y29884D01*
X35203Y29890D01*
X35213Y29897D01*
X35222Y29907D01*
X35229Y29918D01*
X35253Y29967D01*
X35271Y30018D01*
X35285Y30070D01*
X35295Y30124D01*
X35299Y30178D01*
X35299Y30232D01*
X35293Y30286D01*
X35283Y30339D01*
X35268Y30391D01*
X35248Y30442D01*
X35224Y30490D01*
Y30491D01*
X35217Y30501D01*
X35208Y30511D01*
X35197Y30518D01*
X35191Y30521D01*
Y30606D01*
X35201Y30609D01*
X35225Y30620D01*
X35246Y30635D01*
X35264Y30653D01*
X35279Y30675D01*
X35291Y30698D01*
X35297Y30724D01*
X35300Y30750D01*
Y31650D01*
X35297Y31676D01*
X35291Y31701D01*
X35279Y31725D01*
X35264Y31746D01*
X35246Y31764D01*
X35225Y31779D01*
X35201Y31791D01*
X35191Y31793D01*
Y35000D01*
G37*
G36*
X35120Y0D02*X35000D01*
Y19900D01*
X35104Y19909D01*
X35120Y19913D01*
Y18416D01*
X35116Y18415D01*
X35104Y18408D01*
X35094Y18400D01*
X35085Y18391D01*
X35078Y18380D01*
X35057Y18334D01*
X35041Y18287D01*
X35028Y18238D01*
X35020Y18189D01*
X35016Y18139D01*
X35016Y18089D01*
X35021Y18039D01*
X35030Y17989D01*
X35044Y17941D01*
X35061Y17894D01*
X35083Y17849D01*
X35090Y17838D01*
X35099Y17828D01*
X35109Y17820D01*
X35120Y17815D01*
Y10686D01*
X35114Y10685D01*
X35091Y10673D01*
X35069Y10658D01*
X35051Y10640D01*
X35036Y10619D01*
X35025Y10595D01*
X35018Y10570D01*
X35016Y10544D01*
Y9694D01*
X35018Y9668D01*
X35025Y9642D01*
X35036Y9619D01*
X35051Y9597D01*
X35069Y9579D01*
X35091Y9564D01*
X35114Y9553D01*
X35120Y9551D01*
Y0D01*
G37*
G36*
X35525D02*X35120D01*
Y9551D01*
X35140Y9546D01*
X35166Y9544D01*
X35525D01*
Y0D01*
G37*
G36*
X35120Y19913D02*X35205Y19936D01*
X35300Y19980D01*
X35385Y20040D01*
X35459Y20114D01*
X35519Y20200D01*
X35525Y20211D01*
Y18689D01*
X35510Y18688D01*
X35461Y18679D01*
X35413Y18665D01*
X35366Y18648D01*
X35321Y18626D01*
X35310Y18619D01*
X35300Y18610D01*
X35292Y18600D01*
X35286Y18588D01*
X35282Y18576D01*
X35281Y18563D01*
X35282Y18550D01*
X35284Y18537D01*
X35290Y18525D01*
X35297Y18514D01*
X35306Y18504D01*
X35316Y18496D01*
X35328Y18491D01*
X35340Y18487D01*
X35353Y18485D01*
X35366Y18486D01*
X35379Y18489D01*
X35391Y18494D01*
X35424Y18510D01*
X35459Y18523D01*
X35495Y18533D01*
X35525Y18538D01*
Y17699D01*
X35502Y17703D01*
X35466Y17712D01*
X35431Y17725D01*
X35398Y17740D01*
X35398Y17740D01*
X35386Y17745D01*
X35373Y17747D01*
X35360Y17748D01*
X35347Y17746D01*
X35334Y17742D01*
X35323Y17736D01*
X35312Y17728D01*
X35304Y17718D01*
X35297Y17707D01*
X35292Y17695D01*
X35289Y17682D01*
X35289Y17669D01*
X35290Y17656D01*
X35294Y17644D01*
X35301Y17632D01*
X35309Y17622D01*
X35318Y17613D01*
X35329Y17606D01*
X35375Y17585D01*
X35422Y17569D01*
X35471Y17556D01*
X35520Y17548D01*
X35525Y17548D01*
Y10694D01*
X35166D01*
X35140Y10691D01*
X35120Y10686D01*
Y17815D01*
X35121Y17814D01*
X35133Y17811D01*
X35146Y17809D01*
X35159Y17810D01*
X35172Y17813D01*
X35184Y17818D01*
X35195Y17825D01*
X35205Y17834D01*
X35213Y17844D01*
X35219Y17856D01*
X35222Y17868D01*
X35224Y17881D01*
X35223Y17894D01*
X35220Y17907D01*
X35215Y17919D01*
X35199Y17953D01*
X35186Y17987D01*
X35176Y18023D01*
X35170Y18059D01*
X35166Y18096D01*
X35166Y18133D01*
X35169Y18170D01*
X35175Y18207D01*
X35184Y18243D01*
X35196Y18278D01*
X35212Y18312D01*
X35212Y18311D01*
X35217Y18324D01*
X35219Y18336D01*
X35220Y18349D01*
X35218Y18362D01*
X35214Y18375D01*
X35208Y18386D01*
X35200Y18397D01*
X35190Y18405D01*
X35179Y18412D01*
X35167Y18417D01*
X35154Y18420D01*
X35141Y18420D01*
X35128Y18419D01*
X35120Y18416D01*
Y19913D01*
G37*
G36*
X35525Y20788D02*X35519Y20800D01*
X35459Y20885D01*
X35385Y20959D01*
X35328Y21000D01*
X35385Y21040D01*
X35459Y21114D01*
X35519Y21200D01*
X35525Y21211D01*
Y20788D01*
G37*
G36*
Y35000D02*X36061D01*
Y18422D01*
X36060Y18423D01*
X36048Y18427D01*
X36035Y18428D01*
X36022Y18428D01*
X36009Y18425D01*
X35997Y18420D01*
X35986Y18412D01*
X35976Y18404D01*
X35968Y18393D01*
X35962Y18381D01*
X35959Y18369D01*
X35957Y18356D01*
X35958Y18343D01*
X35961Y18330D01*
X35966Y18318D01*
X35982Y18285D01*
X35995Y18250D01*
X36005Y18214D01*
X36011Y18178D01*
X36015Y18141D01*
X36015Y18104D01*
X36012Y18067D01*
X36006Y18030D01*
X35997Y17994D01*
X35985Y17959D01*
X35969Y17926D01*
X35969Y17926D01*
X35964Y17914D01*
X35962Y17901D01*
X35961Y17888D01*
X35963Y17875D01*
X35967Y17862D01*
X35973Y17851D01*
X35981Y17841D01*
X35991Y17832D01*
X36002Y17825D01*
X36014Y17820D01*
X36027Y17817D01*
X36040Y17817D01*
X36053Y17819D01*
X36061Y17821D01*
Y10686D01*
X36042Y10691D01*
X36016Y10694D01*
X35525D01*
Y17548D01*
X35570Y17544D01*
X35621Y17544D01*
X35671Y17549D01*
X35720Y17558D01*
X35768Y17572D01*
X35815Y17589D01*
X35860Y17611D01*
X35871Y17618D01*
X35881Y17627D01*
X35889Y17637D01*
X35895Y17649D01*
X35899Y17662D01*
X35900Y17675D01*
X35899Y17688D01*
X35897Y17700D01*
X35891Y17712D01*
X35884Y17723D01*
X35875Y17733D01*
X35865Y17741D01*
X35853Y17747D01*
X35841Y17750D01*
X35828Y17752D01*
X35815Y17751D01*
X35802Y17748D01*
X35790Y17743D01*
X35757Y17727D01*
X35722Y17714D01*
X35686Y17704D01*
X35650Y17698D01*
X35613Y17694D01*
X35576Y17694D01*
X35539Y17697D01*
X35525Y17699D01*
Y18538D01*
X35531Y18539D01*
X35568Y18543D01*
X35605Y18543D01*
X35642Y18540D01*
X35679Y18534D01*
X35715Y18525D01*
X35750Y18513D01*
X35783Y18497D01*
X35783Y18497D01*
X35795Y18492D01*
X35808Y18490D01*
X35821Y18489D01*
X35834Y18491D01*
X35847Y18495D01*
X35858Y18501D01*
X35869Y18509D01*
X35877Y18519D01*
X35884Y18530D01*
X35889Y18542D01*
X35892Y18555D01*
X35892Y18568D01*
X35891Y18581D01*
X35887Y18593D01*
X35880Y18605D01*
X35872Y18615D01*
X35863Y18624D01*
X35852Y18631D01*
X35806Y18652D01*
X35759Y18668D01*
X35710Y18681D01*
X35661Y18689D01*
X35611Y18693D01*
X35560Y18693D01*
X35525Y18689D01*
Y20211D01*
X35563Y20294D01*
X35590Y20395D01*
X35600Y20500D01*
X35590Y20604D01*
X35563Y20705D01*
X35525Y20788D01*
Y21211D01*
X35563Y21294D01*
X35590Y21395D01*
X35600Y21500D01*
X35590Y21604D01*
X35563Y21705D01*
X35525Y21788D01*
Y22125D01*
X35538Y22126D01*
X35550Y22129D01*
X35562Y22135D01*
X35573Y22142D01*
X35582Y22151D01*
X35590Y22162D01*
X35595Y22174D01*
X35598Y22187D01*
X35600Y22200D01*
Y22800D01*
X35598Y22813D01*
X35595Y22825D01*
X35590Y22837D01*
X35582Y22848D01*
X35573Y22857D01*
X35562Y22865D01*
X35550Y22870D01*
X35538Y22873D01*
X35525Y22875D01*
Y35000D01*
G37*
G36*
X36061Y0D02*X35525D01*
Y9544D01*
X36016D01*
X36042Y9546D01*
X36061Y9551D01*
Y0D01*
G37*
G36*
Y35000D02*X37072D01*
Y30843D01*
X37023Y30775D01*
X36983Y30688D01*
X36958Y30595D01*
X36950Y30500D01*
X36958Y30404D01*
X36983Y30311D01*
X37023Y30225D01*
X37072Y30156D01*
Y28783D01*
X37067Y28783D01*
X37054Y28781D01*
X37042Y28776D01*
X37031Y28770D01*
X37020Y28762D01*
X37012Y28752D01*
X37005Y28741D01*
X36985Y28694D01*
X36969Y28646D01*
X36958Y28596D01*
X36951Y28546D01*
X36950Y28495D01*
X36952Y28444D01*
X36960Y28394D01*
X36972Y28344D01*
X36988Y28296D01*
X37009Y28250D01*
Y28250D01*
X37016Y28239D01*
X37025Y28229D01*
X37035Y28221D01*
X37047Y28215D01*
X37059Y28211D01*
X37072Y28209D01*
Y24606D01*
X36899D01*
X36881Y24605D01*
X36864Y24600D01*
X36849Y24593D01*
X36834Y24583D01*
X36822Y24570D01*
X36812Y24556D01*
X36805Y24540D01*
X36800Y24523D01*
X36799Y24506D01*
Y23806D01*
X36800Y23789D01*
X36805Y23772D01*
X36812Y23756D01*
X36822Y23742D01*
X36834Y23729D01*
X36849Y23719D01*
X36864Y23712D01*
X36881Y23708D01*
X36899Y23706D01*
X37072D01*
Y20568D01*
X37024Y20546D01*
X36959Y20501D01*
X36904Y20445D01*
X36859Y20381D01*
X36826Y20310D01*
X36805Y20234D01*
X36799Y20156D01*
X36805Y20078D01*
X36826Y20002D01*
X36859Y19931D01*
X36904Y19867D01*
X36959Y19811D01*
X37024Y19766D01*
X37072Y19744D01*
Y13227D01*
X36972Y13218D01*
X36875Y13192D01*
X36784Y13150D01*
X36702Y13092D01*
X36631Y13021D01*
X36574Y12939D01*
X36531Y12848D01*
X36505Y12751D01*
X36497Y12652D01*
X36505Y12552D01*
X36531Y12455D01*
X36574Y12364D01*
X36631Y12282D01*
X36702Y12211D01*
X36784Y12154D01*
X36875Y12111D01*
X36972Y12085D01*
X37072Y12077D01*
Y0D01*
X36061D01*
Y9551D01*
X36067Y9553D01*
X36091Y9564D01*
X36112Y9579D01*
X36130Y9597D01*
X36145Y9619D01*
X36157Y9642D01*
X36163Y9668D01*
X36166Y9694D01*
Y10544D01*
X36163Y10570D01*
X36157Y10595D01*
X36145Y10619D01*
X36130Y10640D01*
X36112Y10658D01*
X36091Y10673D01*
X36067Y10685D01*
X36061Y10686D01*
Y17821D01*
X36065Y17823D01*
X36077Y17829D01*
X36087Y17837D01*
X36096Y17846D01*
X36103Y17858D01*
X36124Y17903D01*
X36140Y17950D01*
X36153Y17999D01*
X36161Y18049D01*
X36165Y18099D01*
X36165Y18149D01*
X36160Y18199D01*
X36151Y18248D01*
X36137Y18296D01*
X36120Y18343D01*
X36098Y18389D01*
X36091Y18400D01*
X36082Y18409D01*
X36072Y18417D01*
X36061Y18422D01*
Y35000D01*
G37*
G36*
X34475Y21211D02*X34480Y21200D01*
X34540Y21114D01*
X34614Y21040D01*
X34672Y21000D01*
X34614Y20959D01*
X34540Y20885D01*
X34480Y20800D01*
X34475Y20788D01*
Y21211D01*
G37*
G36*
X37072Y35000D02*X37496D01*
Y32675D01*
X37482Y32644D01*
X37461Y32569D01*
X37455Y32491D01*
X37461Y32412D01*
X37482Y32337D01*
X37496Y32306D01*
Y31049D01*
X37404Y31041D01*
X37311Y31016D01*
X37225Y30976D01*
X37146Y30921D01*
X37078Y30853D01*
X37072Y30843D01*
Y35000D01*
G37*
G36*
X37496Y0D02*X37072D01*
Y12077D01*
X37171Y12085D01*
X37268Y12111D01*
X37359Y12154D01*
X37441Y12211D01*
X37496Y12266D01*
Y8089D01*
X37475Y8079D01*
X37453Y8064D01*
X37435Y8046D01*
X37420Y8025D01*
X37409Y8001D01*
X37402Y7976D01*
X37400Y7950D01*
Y7050D01*
X37402Y7024D01*
X37409Y6998D01*
X37420Y6975D01*
X37435Y6953D01*
X37453Y6935D01*
X37475Y6920D01*
X37496Y6910D01*
Y6822D01*
X37480Y6800D01*
X37436Y6705D01*
X37409Y6604D01*
X37400Y6500D01*
X37409Y6395D01*
X37436Y6294D01*
X37480Y6200D01*
X37496Y6177D01*
Y5822D01*
X37480Y5800D01*
X37436Y5705D01*
X37409Y5604D01*
X37400Y5500D01*
X37409Y5395D01*
X37436Y5294D01*
X37480Y5200D01*
X37496Y5177D01*
Y0D01*
G37*
G36*
Y13037D02*X37441Y13092D01*
X37359Y13150D01*
X37268Y13192D01*
X37171Y13218D01*
X37072Y13227D01*
Y19744D01*
X37095Y19733D01*
X37170Y19713D01*
X37249Y19706D01*
X37327Y19713D01*
X37402Y19733D01*
X37474Y19766D01*
X37496Y19782D01*
Y13037D01*
G37*
G36*
Y20530D02*X37474Y20546D01*
X37402Y20579D01*
X37327Y20599D01*
X37249Y20606D01*
X37170Y20599D01*
X37095Y20579D01*
X37072Y20568D01*
Y23706D01*
X37496D01*
Y20530D01*
G37*
G36*
Y24606D02*X37072D01*
Y28209D01*
X37072Y28209D01*
X37085Y28210D01*
X37098Y28212D01*
X37110Y28217D01*
X37121Y28224D01*
X37131Y28233D01*
X37139Y28243D01*
X37145Y28255D01*
X37149Y28267D01*
X37151Y28280D01*
X37151Y28293D01*
X37148Y28306D01*
X37143Y28318D01*
X37128Y28352D01*
X37116Y28387D01*
X37107Y28423D01*
X37102Y28459D01*
X37100Y28496D01*
X37101Y28533D01*
X37106Y28570D01*
X37114Y28606D01*
X37125Y28641D01*
X37140Y28675D01*
X37145Y28687D01*
X37147Y28700D01*
X37147Y28713D01*
X37145Y28726D01*
X37141Y28738D01*
X37135Y28750D01*
X37127Y28760D01*
X37117Y28769D01*
X37105Y28775D01*
X37093Y28780D01*
X37080Y28782D01*
X37072Y28783D01*
Y30156D01*
X37078Y30146D01*
X37146Y30078D01*
X37225Y30023D01*
X37311Y29983D01*
X37404Y29958D01*
X37496Y29950D01*
Y29050D01*
X37495D01*
X37444Y29047D01*
X37394Y29039D01*
X37344Y29027D01*
X37296Y29011D01*
X37250Y28990D01*
X37250D01*
X37239Y28983D01*
X37229Y28974D01*
X37221Y28964D01*
X37215Y28952D01*
X37211Y28940D01*
X37209Y28927D01*
X37209Y28914D01*
X37212Y28901D01*
X37217Y28889D01*
X37224Y28878D01*
X37233Y28868D01*
X37243Y28860D01*
X37255Y28854D01*
X37267Y28850D01*
X37280Y28848D01*
X37293Y28848D01*
X37306Y28851D01*
X37318Y28856D01*
X37352Y28871D01*
X37387Y28883D01*
X37422Y28892D01*
X37459Y28898D01*
X37496Y28900D01*
Y28100D01*
X37466Y28101D01*
X37429Y28106D01*
X37393Y28114D01*
X37358Y28125D01*
X37324Y28140D01*
X37312Y28145D01*
X37299Y28147D01*
X37286Y28147D01*
X37273Y28145D01*
X37261Y28141D01*
X37249Y28135D01*
X37239Y28127D01*
X37231Y28117D01*
X37224Y28106D01*
X37219Y28093D01*
X37217Y28081D01*
X37216Y28067D01*
X37218Y28055D01*
X37223Y28042D01*
X37229Y28031D01*
X37237Y28021D01*
X37247Y28012D01*
X37258Y28005D01*
X37305Y27985D01*
X37353Y27969D01*
X37403Y27958D01*
X37453Y27952D01*
X37496Y27950D01*
Y24606D01*
G37*
G36*
Y35000D02*X37949D01*
Y32937D01*
X37905Y32941D01*
X37826Y32934D01*
X37751Y32913D01*
X37680Y32880D01*
X37615Y32835D01*
X37560Y32780D01*
X37515Y32716D01*
X37496Y32675D01*
Y35000D01*
G37*
G36*
X37949Y0D02*X37496D01*
Y5177D01*
X37540Y5114D01*
X37614Y5040D01*
X37700Y4980D01*
X37794Y4936D01*
X37895Y4909D01*
X37949Y4904D01*
Y0D01*
G37*
G36*
Y8100D02*X37550D01*
X37524Y8097D01*
X37498Y8091D01*
X37496Y8089D01*
Y12266D01*
X37512Y12282D01*
X37570Y12364D01*
X37612Y12455D01*
X37638Y12552D01*
X37647Y12652D01*
X37638Y12751D01*
X37612Y12848D01*
X37570Y12939D01*
X37512Y13021D01*
X37496Y13037D01*
Y19782D01*
X37538Y19811D01*
X37593Y19867D01*
X37638Y19931D01*
X37671Y20002D01*
X37692Y20078D01*
X37699Y20156D01*
X37692Y20234D01*
X37671Y20310D01*
X37638Y20381D01*
X37593Y20445D01*
X37538Y20501D01*
X37496Y20530D01*
Y23706D01*
X37599D01*
X37616Y23708D01*
X37633Y23712D01*
X37649Y23719D01*
X37663Y23729D01*
X37675Y23742D01*
X37685Y23756D01*
X37693Y23772D01*
X37697Y23789D01*
X37699Y23806D01*
Y24506D01*
X37697Y24523D01*
X37693Y24540D01*
X37685Y24556D01*
X37675Y24570D01*
X37663Y24583D01*
X37649Y24593D01*
X37633Y24600D01*
X37616Y24605D01*
X37599Y24606D01*
X37496D01*
Y27950D01*
X37504Y27950D01*
X37555Y27952D01*
X37605Y27960D01*
X37655Y27972D01*
X37703Y27989D01*
X37749Y28010D01*
X37749D01*
X37760Y28016D01*
X37770Y28025D01*
X37778Y28036D01*
X37784Y28047D01*
X37788Y28060D01*
X37790Y28072D01*
X37790Y28086D01*
X37787Y28098D01*
X37782Y28110D01*
X37775Y28122D01*
X37766Y28131D01*
X37756Y28139D01*
X37744Y28145D01*
X37732Y28149D01*
X37719Y28151D01*
X37706Y28151D01*
X37693Y28148D01*
X37681Y28143D01*
X37647Y28128D01*
X37612Y28116D01*
X37577Y28107D01*
X37540Y28102D01*
X37503Y28100D01*
X37496Y28100D01*
Y28900D01*
X37496D01*
X37533Y28898D01*
X37570Y28893D01*
X37606Y28885D01*
X37641Y28874D01*
X37675Y28859D01*
X37687Y28854D01*
X37700Y28852D01*
X37713Y28852D01*
X37726Y28854D01*
X37738Y28858D01*
X37750Y28864D01*
X37760Y28873D01*
X37768Y28882D01*
X37775Y28894D01*
X37780Y28906D01*
X37782Y28919D01*
X37783Y28932D01*
X37781Y28945D01*
X37776Y28957D01*
X37770Y28968D01*
X37762Y28979D01*
X37752Y28987D01*
X37741Y28994D01*
X37694Y29014D01*
X37646Y29030D01*
X37596Y29041D01*
X37546Y29048D01*
X37496Y29050D01*
Y29950D01*
X37500Y29950D01*
X37595Y29958D01*
X37688Y29983D01*
X37775Y30023D01*
X37853Y30078D01*
X37921Y30146D01*
X37949Y30186D01*
Y28785D01*
X37940Y28788D01*
X37927Y28790D01*
X37914Y28790D01*
X37901Y28787D01*
X37889Y28782D01*
X37878Y28775D01*
X37868Y28766D01*
X37860Y28756D01*
X37854Y28745D01*
X37850Y28732D01*
X37848Y28719D01*
X37848Y28706D01*
X37851Y28693D01*
X37856Y28681D01*
X37871Y28647D01*
X37883Y28613D01*
X37892Y28577D01*
X37897Y28540D01*
X37899Y28503D01*
X37898Y28466D01*
X37893Y28429D01*
X37885Y28393D01*
X37874Y28358D01*
X37859Y28324D01*
X37854Y28312D01*
X37852Y28299D01*
X37852Y28286D01*
X37854Y28273D01*
X37858Y28261D01*
X37864Y28249D01*
X37872Y28239D01*
X37882Y28231D01*
X37894Y28224D01*
X37906Y28219D01*
X37919Y28217D01*
X37932Y28217D01*
X37945Y28219D01*
X37949Y28220D01*
Y8100D01*
G37*
G36*
Y30813D02*X37921Y30853D01*
X37853Y30921D01*
X37775Y30976D01*
X37688Y31016D01*
X37595Y31041D01*
X37500Y31050D01*
X37496Y31049D01*
Y32306D01*
X37515Y32266D01*
X37560Y32201D01*
X37615Y32146D01*
X37680Y32101D01*
X37751Y32068D01*
X37826Y32047D01*
X37905Y32041D01*
X37949Y32044D01*
Y30813D01*
G37*
G36*
Y35000D02*X38650D01*
Y22579D01*
X38642Y22576D01*
X38631Y22570D01*
X38620Y22562D01*
X38612Y22552D01*
X38605Y22541D01*
X38585Y22494D01*
X38569Y22446D01*
X38558Y22396D01*
X38551Y22346D01*
X38550Y22295D01*
X38552Y22244D01*
X38560Y22194D01*
X38572Y22144D01*
X38588Y22096D01*
X38609Y22050D01*
Y22050D01*
X38616Y22039D01*
X38625Y22029D01*
X38635Y22021D01*
X38647Y22015D01*
X38650Y22014D01*
Y20613D01*
X38623Y20575D01*
X38583Y20488D01*
X38558Y20395D01*
X38550Y20300D01*
X38558Y20204D01*
X38583Y20111D01*
X38623Y20025D01*
X38650Y19986D01*
Y0D01*
X37949D01*
Y4904D01*
X38000Y4900D01*
X38104Y4909D01*
X38205Y4936D01*
X38300Y4980D01*
X38385Y5040D01*
X38459Y5114D01*
X38519Y5200D01*
X38563Y5294D01*
X38590Y5395D01*
X38600Y5500D01*
X38590Y5604D01*
X38563Y5705D01*
X38519Y5800D01*
X38459Y5885D01*
X38385Y5959D01*
X38328Y6000D01*
X38385Y6040D01*
X38459Y6114D01*
X38519Y6200D01*
X38563Y6294D01*
X38590Y6395D01*
X38600Y6500D01*
X38590Y6604D01*
X38563Y6705D01*
X38519Y6800D01*
X38459Y6885D01*
X38445Y6900D01*
X38450D01*
X38476Y6902D01*
X38501Y6909D01*
X38525Y6920D01*
X38546Y6935D01*
X38564Y6953D01*
X38579Y6975D01*
X38591Y6998D01*
X38597Y7024D01*
X38600Y7050D01*
Y7950D01*
X38597Y7976D01*
X38591Y8001D01*
X38579Y8025D01*
X38564Y8046D01*
X38546Y8064D01*
X38525Y8079D01*
X38501Y8091D01*
X38476Y8097D01*
X38450Y8100D01*
X37949D01*
Y28220D01*
X37957Y28223D01*
X37968Y28229D01*
X37979Y28237D01*
X37987Y28247D01*
X37994Y28258D01*
X38014Y28305D01*
X38030Y28354D01*
X38041Y28403D01*
X38048Y28454D01*
X38049Y28504D01*
X38047Y28555D01*
X38039Y28605D01*
X38027Y28655D01*
X38011Y28703D01*
X37990Y28749D01*
Y28749D01*
X37983Y28760D01*
X37974Y28770D01*
X37964Y28778D01*
X37952Y28784D01*
X37949Y28785D01*
Y30186D01*
X37976Y30225D01*
X38016Y30311D01*
X38041Y30404D01*
X38050Y30500D01*
X38041Y30595D01*
X38016Y30688D01*
X37976Y30775D01*
X37949Y30813D01*
Y32044D01*
X37983Y32047D01*
X38058Y32068D01*
X38130Y32101D01*
X38194Y32146D01*
X38249Y32201D01*
X38294Y32266D01*
X38327Y32337D01*
X38348Y32412D01*
X38355Y32491D01*
X38348Y32569D01*
X38327Y32644D01*
X38294Y32716D01*
X38249Y32780D01*
X38194Y32835D01*
X38130Y32880D01*
X38058Y32913D01*
X37983Y32934D01*
X37949Y32937D01*
Y35000D01*
G37*
G36*
X37496Y6910D02*X37498Y6909D01*
X37524Y6902D01*
X37550Y6900D01*
X37554D01*
X37540Y6885D01*
X37496Y6822D01*
Y6910D01*
G37*
G36*
Y6177D02*X37540Y6114D01*
X37614Y6040D01*
X37672Y6000D01*
X37614Y5959D01*
X37540Y5885D01*
X37496Y5822D01*
Y6177D01*
G37*
G36*
X38650Y35000D02*X38883D01*
Y28976D01*
X38874Y28975D01*
X38865Y28973D01*
X38858Y28969D01*
X38850Y28964D01*
X38844Y28958D01*
X38839Y28951D01*
X38836Y28943D01*
X38833Y28934D01*
X38833Y28926D01*
Y28426D01*
X38833Y28417D01*
X38836Y28409D01*
X38839Y28401D01*
X38844Y28394D01*
X38850Y28387D01*
X38858Y28382D01*
X38865Y28379D01*
X38874Y28376D01*
X38883Y28376D01*
Y22804D01*
X38850Y22790D01*
X38850D01*
X38839Y22783D01*
X38829Y22774D01*
X38821Y22764D01*
X38815Y22752D01*
X38811Y22740D01*
X38809Y22727D01*
X38809Y22714D01*
X38812Y22701D01*
X38817Y22689D01*
X38824Y22678D01*
X38833Y22668D01*
X38843Y22660D01*
X38855Y22654D01*
X38867Y22650D01*
X38880Y22648D01*
X38883Y22648D01*
Y21947D01*
X38873Y21945D01*
X38861Y21941D01*
X38849Y21935D01*
X38839Y21927D01*
X38831Y21917D01*
X38824Y21906D01*
X38819Y21893D01*
X38817Y21881D01*
X38816Y21867D01*
X38818Y21855D01*
X38823Y21842D01*
X38829Y21831D01*
X38837Y21821D01*
X38847Y21812D01*
X38858Y21805D01*
X38883Y21795D01*
Y20803D01*
X38825Y20776D01*
X38746Y20721D01*
X38678Y20653D01*
X38650Y20613D01*
Y22014D01*
X38659Y22011D01*
X38672Y22009D01*
X38685Y22010D01*
X38698Y22012D01*
X38710Y22017D01*
X38721Y22024D01*
X38731Y22033D01*
X38739Y22043D01*
X38745Y22055D01*
X38749Y22067D01*
X38751Y22080D01*
X38751Y22093D01*
X38748Y22106D01*
X38743Y22118D01*
X38728Y22152D01*
X38716Y22187D01*
X38707Y22223D01*
X38702Y22259D01*
X38700Y22296D01*
X38701Y22333D01*
X38706Y22370D01*
X38714Y22406D01*
X38725Y22441D01*
X38740Y22475D01*
X38745Y22487D01*
X38747Y22500D01*
X38747Y22513D01*
X38745Y22526D01*
X38741Y22538D01*
X38735Y22550D01*
X38727Y22560D01*
X38717Y22569D01*
X38705Y22575D01*
X38693Y22580D01*
X38680Y22582D01*
X38667Y22583D01*
X38654Y22581D01*
X38650Y22579D01*
Y35000D01*
G37*
G36*
X38883D02*X39096D01*
Y29126D01*
X39033D01*
X39024Y29125D01*
X39015Y29123D01*
X39008Y29119D01*
X39000Y29114D01*
X38994Y29108D01*
X38989Y29101D01*
X38986Y29093D01*
X38983Y29084D01*
X38983Y29076D01*
X38983Y29067D01*
X38986Y29059D01*
X38989Y29051D01*
X38994Y29044D01*
X39000Y29037D01*
X39008Y29032D01*
X39015Y29029D01*
X39024Y29026D01*
X39033Y29026D01*
X39096D01*
Y28326D01*
X39033D01*
X39024Y28325D01*
X39015Y28323D01*
X39008Y28319D01*
X39000Y28314D01*
X38994Y28308D01*
X38989Y28301D01*
X38986Y28293D01*
X38983Y28284D01*
X38983Y28276D01*
X38983Y28267D01*
X38986Y28259D01*
X38989Y28251D01*
X38994Y28244D01*
X39000Y28237D01*
X39008Y28232D01*
X39015Y28229D01*
X39024Y28226D01*
X39033Y28226D01*
X39096D01*
Y22850D01*
X39095D01*
X39044Y22847D01*
X38994Y22839D01*
X38944Y22827D01*
X38896Y22811D01*
X38883Y22804D01*
Y28376D01*
X38891Y28376D01*
X38900Y28379D01*
X38908Y28382D01*
X38915Y28387D01*
X38921Y28394D01*
X38926Y28401D01*
X38930Y28409D01*
X38932Y28417D01*
X38933Y28426D01*
Y28926D01*
X38932Y28934D01*
X38930Y28943D01*
X38926Y28951D01*
X38921Y28958D01*
X38915Y28964D01*
X38908Y28969D01*
X38900Y28973D01*
X38891Y28975D01*
X38883Y28976D01*
Y35000D01*
G37*
G36*
Y22648D02*X38893Y22648D01*
X38906Y22651D01*
X38918Y22656D01*
X38952Y22671D01*
X38987Y22683D01*
X39022Y22692D01*
X39059Y22698D01*
X39096Y22700D01*
Y21900D01*
X39066Y21901D01*
X39029Y21906D01*
X38993Y21914D01*
X38958Y21925D01*
X38924Y21940D01*
X38912Y21945D01*
X38899Y21947D01*
X38886Y21947D01*
X38883Y21947D01*
Y22648D01*
G37*
G36*
Y21795D02*X38905Y21785D01*
X38953Y21769D01*
X39003Y21758D01*
X39053Y21752D01*
X39096Y21750D01*
Y20849D01*
X39004Y20841D01*
X38911Y20816D01*
X38883Y20803D01*
Y21795D01*
G37*
G36*
X39096Y0D02*X38650D01*
Y19986D01*
X38678Y19946D01*
X38746Y19878D01*
X38825Y19823D01*
X38911Y19783D01*
X39004Y19758D01*
X39096Y19750D01*
Y0D01*
G37*
G36*
Y35000D02*X39549D01*
Y29123D01*
X39541Y29125D01*
X39533Y29126D01*
X39096D01*
Y35000D01*
G37*
G36*
X39549Y0D02*X39096D01*
Y19750D01*
X39100Y19750D01*
X39195Y19758D01*
X39288Y19783D01*
X39375Y19823D01*
X39453Y19878D01*
X39521Y19946D01*
X39549Y19986D01*
Y0D01*
G37*
G36*
Y20613D02*X39521Y20653D01*
X39453Y20721D01*
X39375Y20776D01*
X39288Y20816D01*
X39195Y20841D01*
X39100Y20850D01*
X39096Y20849D01*
Y21750D01*
X39104Y21750D01*
X39155Y21752D01*
X39205Y21760D01*
X39255Y21772D01*
X39303Y21789D01*
X39349Y21810D01*
X39349D01*
X39360Y21816D01*
X39370Y21825D01*
X39378Y21836D01*
X39384Y21847D01*
X39388Y21860D01*
X39390Y21872D01*
X39390Y21886D01*
X39387Y21898D01*
X39382Y21910D01*
X39375Y21922D01*
X39366Y21931D01*
X39356Y21939D01*
X39344Y21945D01*
X39332Y21949D01*
X39319Y21951D01*
X39306Y21951D01*
X39293Y21948D01*
X39281Y21943D01*
X39247Y21928D01*
X39212Y21916D01*
X39177Y21907D01*
X39140Y21902D01*
X39103Y21900D01*
X39096Y21900D01*
Y22700D01*
X39096D01*
X39133Y22698D01*
X39170Y22693D01*
X39206Y22685D01*
X39241Y22674D01*
X39275Y22659D01*
X39287Y22654D01*
X39300Y22652D01*
X39313Y22652D01*
X39326Y22654D01*
X39338Y22658D01*
X39350Y22664D01*
X39360Y22673D01*
X39368Y22682D01*
X39375Y22694D01*
X39380Y22706D01*
X39382Y22719D01*
X39383Y22732D01*
X39381Y22745D01*
X39376Y22757D01*
X39370Y22768D01*
X39362Y22779D01*
X39352Y22787D01*
X39341Y22794D01*
X39294Y22814D01*
X39246Y22830D01*
X39196Y22841D01*
X39146Y22848D01*
X39096Y22850D01*
Y28226D01*
X39533D01*
X39541Y28226D01*
X39549Y28228D01*
Y22585D01*
X39540Y22588D01*
X39527Y22590D01*
X39514Y22590D01*
X39501Y22587D01*
X39489Y22582D01*
X39478Y22575D01*
X39468Y22566D01*
X39460Y22556D01*
X39454Y22545D01*
X39450Y22532D01*
X39448Y22519D01*
X39448Y22506D01*
X39451Y22493D01*
X39456Y22481D01*
X39471Y22447D01*
X39483Y22413D01*
X39492Y22377D01*
X39497Y22340D01*
X39499Y22303D01*
X39498Y22266D01*
X39493Y22229D01*
X39485Y22193D01*
X39474Y22158D01*
X39459Y22124D01*
X39454Y22112D01*
X39452Y22099D01*
X39452Y22086D01*
X39454Y22073D01*
X39458Y22061D01*
X39464Y22049D01*
X39472Y22039D01*
X39482Y22031D01*
X39494Y22024D01*
X39506Y22019D01*
X39519Y22017D01*
X39532Y22017D01*
X39545Y22019D01*
X39549Y22020D01*
Y20613D01*
G37*
G36*
Y28323D02*X39541Y28325D01*
X39533Y28326D01*
X39096D01*
Y29026D01*
X39533D01*
X39541Y29026D01*
X39549Y29028D01*
Y28323D01*
G37*
G36*
Y35000D02*X39683D01*
Y28976D01*
X39674Y28975D01*
X39665Y28973D01*
X39658Y28969D01*
X39650Y28964D01*
X39644Y28958D01*
X39639Y28951D01*
X39636Y28943D01*
X39633Y28934D01*
X39633Y28926D01*
Y28426D01*
X39633Y28417D01*
X39636Y28409D01*
X39639Y28401D01*
X39644Y28394D01*
X39650Y28387D01*
X39658Y28382D01*
X39665Y28379D01*
X39674Y28376D01*
X39683Y28376D01*
Y0D01*
X39549D01*
Y19986D01*
X39576Y20025D01*
X39616Y20111D01*
X39641Y20204D01*
X39650Y20300D01*
X39641Y20395D01*
X39616Y20488D01*
X39576Y20575D01*
X39549Y20613D01*
Y22020D01*
X39557Y22023D01*
X39568Y22029D01*
X39579Y22037D01*
X39587Y22047D01*
X39594Y22058D01*
X39614Y22105D01*
X39630Y22154D01*
X39641Y22203D01*
X39648Y22254D01*
X39649Y22304D01*
X39647Y22355D01*
X39639Y22405D01*
X39627Y22455D01*
X39611Y22503D01*
X39590Y22549D01*
Y22549D01*
X39583Y22560D01*
X39574Y22570D01*
X39564Y22578D01*
X39552Y22584D01*
X39549Y22585D01*
Y28228D01*
X39550Y28229D01*
X39558Y28232D01*
X39565Y28237D01*
X39571Y28244D01*
X39576Y28251D01*
X39580Y28259D01*
X39582Y28267D01*
X39583Y28276D01*
X39582Y28284D01*
X39580Y28293D01*
X39576Y28301D01*
X39571Y28308D01*
X39565Y28314D01*
X39558Y28319D01*
X39550Y28323D01*
X39549Y28323D01*
Y29028D01*
X39550Y29029D01*
X39558Y29032D01*
X39565Y29037D01*
X39571Y29044D01*
X39576Y29051D01*
X39580Y29059D01*
X39582Y29067D01*
X39583Y29076D01*
X39582Y29084D01*
X39580Y29093D01*
X39576Y29101D01*
X39571Y29108D01*
X39565Y29114D01*
X39558Y29119D01*
X39550Y29123D01*
X39549Y29123D01*
Y35000D01*
G37*
G36*
X39683D02*X40784D01*
Y9720D01*
X40684Y9711D01*
X40587Y9685D01*
X40496Y9643D01*
X40414Y9585D01*
X40343Y9514D01*
X40286Y9432D01*
X40243Y9341D01*
X40217Y9244D01*
X40209Y9145D01*
X40217Y9045D01*
X40243Y8948D01*
X40286Y8857D01*
X40343Y8775D01*
X40414Y8704D01*
X40496Y8647D01*
X40587Y8604D01*
X40684Y8578D01*
X40784Y8570D01*
Y0D01*
X39683D01*
Y28376D01*
X39691Y28376D01*
X39700Y28379D01*
X39708Y28382D01*
X39715Y28387D01*
X39721Y28394D01*
X39726Y28401D01*
X39730Y28409D01*
X39732Y28417D01*
X39733Y28426D01*
Y28926D01*
X39732Y28934D01*
X39730Y28943D01*
X39726Y28951D01*
X39721Y28958D01*
X39715Y28964D01*
X39708Y28969D01*
X39700Y28973D01*
X39691Y28975D01*
X39683Y28976D01*
Y35000D01*
G37*
G36*
X40784D02*X40918D01*
Y24274D01*
X40918D01*
X40911Y24269D01*
X40905Y24263D01*
X40900Y24256D01*
X40881Y24220D01*
X40866Y24183D01*
X40854Y24145D01*
X40846Y24106D01*
X40841Y24067D01*
X40840Y24027D01*
X40842Y23987D01*
X40847Y23947D01*
X40856Y23908D01*
X40869Y23871D01*
X40885Y23834D01*
X40904Y23799D01*
X40904Y23799D01*
X40909Y23792D01*
X40915Y23786D01*
X40918Y23784D01*
Y20478D01*
X40905Y20475D01*
X40890Y20467D01*
X40875Y20457D01*
X40863Y20445D01*
X40853Y20431D01*
X40846Y20415D01*
X40841Y20398D01*
X40840Y20381D01*
Y19681D01*
X40841Y19663D01*
X40846Y19646D01*
X40853Y19631D01*
X40863Y19616D01*
X40875Y19604D01*
X40890Y19594D01*
X40905Y19587D01*
X40918Y19583D01*
Y9702D01*
X40883Y9711D01*
X40784Y9720D01*
Y35000D01*
G37*
G36*
X40918Y0D02*X40784D01*
Y8570D01*
X40883Y8578D01*
X40918Y8588D01*
Y0D01*
G37*
G36*
Y35000D02*X41287D01*
Y24481D01*
X41286D01*
X41246Y24478D01*
X41206Y24473D01*
X41167Y24464D01*
X41129Y24451D01*
X41093Y24435D01*
X41058Y24416D01*
X41058Y24416D01*
X41051Y24411D01*
X41045Y24405D01*
X41040Y24398D01*
X41036Y24390D01*
X41034Y24381D01*
X41033Y24373D01*
X41034Y24364D01*
X41037Y24355D01*
X41041Y24348D01*
X41046Y24341D01*
X41052Y24335D01*
X41059Y24330D01*
X41067Y24326D01*
X41076Y24324D01*
X41084Y24323D01*
X41093Y24324D01*
X41101Y24327D01*
X41109Y24331D01*
X41137Y24345D01*
X41165Y24358D01*
X41194Y24367D01*
X41225Y24375D01*
X41255Y24379D01*
X41286Y24381D01*
X41287D01*
Y23681D01*
X41262Y23682D01*
X41231Y23686D01*
X41200Y23692D01*
X41171Y23701D01*
X41142Y23713D01*
X41115Y23727D01*
X41107Y23731D01*
X41098Y23733D01*
X41090Y23734D01*
X41081Y23733D01*
X41072Y23731D01*
X41065Y23727D01*
X41057Y23722D01*
X41051Y23716D01*
X41046Y23709D01*
X41043Y23701D01*
X41040Y23693D01*
X41040Y23684D01*
X41040Y23675D01*
X41043Y23667D01*
X41046Y23659D01*
X41051Y23652D01*
X41057Y23646D01*
X41065Y23641D01*
X41100Y23622D01*
X41137Y23607D01*
X41175Y23595D01*
X41214Y23587D01*
X41254Y23582D01*
X41287Y23581D01*
Y20481D01*
X40940D01*
X40922Y20479D01*
X40918Y20478D01*
Y23784D01*
X40922Y23781D01*
X40930Y23777D01*
X40939Y23775D01*
X40948Y23775D01*
X40956Y23776D01*
X40965Y23778D01*
X40972Y23782D01*
X40979Y23787D01*
X40986Y23793D01*
X40990Y23800D01*
X40994Y23808D01*
X40996Y23817D01*
X40997Y23825D01*
X40996Y23834D01*
X40993Y23843D01*
X40989Y23850D01*
X40975Y23878D01*
X40962Y23906D01*
X40953Y23936D01*
X40946Y23966D01*
X40941Y23997D01*
X40940Y24028D01*
X40941Y24059D01*
X40944Y24089D01*
X40951Y24120D01*
X40960Y24149D01*
X40972Y24178D01*
X40986Y24206D01*
X40990Y24213D01*
X40992Y24222D01*
X40993Y24231D01*
X40992Y24239D01*
X40990Y24248D01*
X40986Y24256D01*
X40981Y24263D01*
X40975Y24269D01*
X40968Y24274D01*
X40960Y24278D01*
X40952Y24280D01*
X40943Y24281D01*
X40934Y24280D01*
X40926Y24278D01*
X40918Y24274D01*
Y35000D01*
G37*
G36*
X41287Y0D02*X40918D01*
Y8588D01*
X40980Y8604D01*
X41071Y8647D01*
X41153Y8704D01*
X41224Y8775D01*
X41282Y8857D01*
X41287Y8868D01*
Y0D01*
G37*
G36*
Y9421D02*X41282Y9432D01*
X41224Y9514D01*
X41153Y9585D01*
X41071Y9643D01*
X40980Y9685D01*
X40918Y9702D01*
Y19583D01*
X40922Y19582D01*
X40940Y19581D01*
X41287D01*
Y9421D01*
G37*
G36*
Y35000D02*X41661D01*
Y32941D01*
X41555D01*
X41537Y32939D01*
X41520Y32935D01*
X41505Y32927D01*
X41490Y32917D01*
X41478Y32905D01*
X41468Y32891D01*
X41461Y32875D01*
X41456Y32858D01*
X41455Y32841D01*
Y32141D01*
X41456Y32123D01*
X41461Y32106D01*
X41468Y32091D01*
X41478Y32076D01*
X41490Y32064D01*
X41505Y32054D01*
X41520Y32047D01*
X41537Y32042D01*
X41555Y32041D01*
X41661D01*
Y24277D01*
X41657Y24280D01*
X41649Y24284D01*
X41640Y24286D01*
X41631Y24287D01*
X41623Y24286D01*
X41614Y24283D01*
X41607Y24279D01*
X41600Y24274D01*
X41593Y24268D01*
X41589Y24261D01*
X41585Y24253D01*
X41583Y24244D01*
X41582Y24236D01*
X41583Y24227D01*
X41586Y24219D01*
X41590Y24211D01*
X41604Y24184D01*
X41617Y24155D01*
X41626Y24126D01*
X41633Y24095D01*
X41638Y24065D01*
X41639Y24034D01*
X41638Y24003D01*
X41635Y23972D01*
X41628Y23941D01*
X41619Y23912D01*
X41607Y23883D01*
X41593Y23856D01*
X41589Y23848D01*
X41587Y23839D01*
X41586Y23831D01*
X41587Y23822D01*
X41589Y23813D01*
X41593Y23806D01*
X41598Y23798D01*
X41604Y23792D01*
X41611Y23787D01*
X41619Y23784D01*
X41627Y23781D01*
X41636Y23781D01*
X41645Y23781D01*
X41653Y23784D01*
X41661Y23787D01*
Y20478D01*
X41657Y20479D01*
X41640Y20481D01*
X41287D01*
Y23581D01*
X41293Y23581D01*
X41333Y23583D01*
X41373Y23588D01*
X41412Y23597D01*
X41450Y23610D01*
X41486Y23626D01*
X41521Y23645D01*
X41521Y23645D01*
X41528Y23650D01*
X41534Y23656D01*
X41539Y23664D01*
X41543Y23672D01*
X41545Y23680D01*
X41546Y23689D01*
X41545Y23697D01*
X41542Y23706D01*
X41538Y23714D01*
X41533Y23721D01*
X41527Y23727D01*
X41520Y23731D01*
X41512Y23735D01*
X41503Y23737D01*
X41495Y23738D01*
X41486Y23737D01*
X41478Y23734D01*
X41470Y23731D01*
X41442Y23716D01*
X41414Y23703D01*
X41385Y23694D01*
X41354Y23687D01*
X41324Y23682D01*
X41293Y23681D01*
X41287Y23681D01*
Y24381D01*
X41317Y24379D01*
X41348Y24376D01*
X41379Y24369D01*
X41408Y24360D01*
X41437Y24348D01*
X41465Y24334D01*
X41472Y24330D01*
X41481Y24328D01*
X41490Y24327D01*
X41498Y24328D01*
X41507Y24330D01*
X41515Y24334D01*
X41522Y24339D01*
X41528Y24345D01*
X41533Y24352D01*
X41537Y24360D01*
X41539Y24368D01*
X41540Y24377D01*
X41539Y24386D01*
X41537Y24394D01*
X41533Y24402D01*
X41528Y24409D01*
X41522Y24415D01*
X41515Y24420D01*
X41479Y24439D01*
X41442Y24454D01*
X41404Y24466D01*
X41365Y24474D01*
X41325Y24479D01*
X41287Y24481D01*
Y35000D01*
G37*
G36*
X41661Y0D02*X41287D01*
Y8868D01*
X41324Y8948D01*
X41350Y9045D01*
X41359Y9145D01*
X41350Y9244D01*
X41324Y9341D01*
X41287Y9421D01*
Y19581D01*
X41640D01*
X41657Y19582D01*
X41661Y19583D01*
Y0D01*
G37*
G36*
Y35000D02*X43283D01*
Y29126D01*
X43204Y29119D01*
X43129Y29099D01*
X43058Y29065D01*
X42993Y29020D01*
X42938Y28965D01*
X42893Y28901D01*
X42860Y28830D01*
X42839Y28754D01*
X42833Y28676D01*
X42839Y28598D01*
X42860Y28522D01*
X42893Y28451D01*
X42938Y28386D01*
X42993Y28331D01*
X43058Y28286D01*
X43129Y28253D01*
X43204Y28232D01*
X43283Y28226D01*
Y0D01*
X41661D01*
Y19583D01*
X41674Y19587D01*
X41690Y19594D01*
X41704Y19604D01*
X41716Y19616D01*
X41726Y19631D01*
X41734Y19646D01*
X41738Y19663D01*
X41740Y19681D01*
Y20381D01*
X41738Y20398D01*
X41734Y20415D01*
X41726Y20431D01*
X41716Y20445D01*
X41704Y20457D01*
X41690Y20467D01*
X41674Y20475D01*
X41661Y20478D01*
Y23787D01*
X41668Y23792D01*
X41674Y23798D01*
X41679Y23806D01*
X41698Y23841D01*
X41713Y23878D01*
X41725Y23916D01*
X41733Y23955D01*
X41738Y23995D01*
X41739Y24035D01*
X41737Y24074D01*
X41732Y24114D01*
X41723Y24153D01*
X41710Y24191D01*
X41694Y24227D01*
X41675Y24262D01*
X41675Y24262D01*
X41670Y24269D01*
X41664Y24276D01*
X41661Y24277D01*
Y32041D01*
X42255D01*
X42272Y32042D01*
X42289Y32047D01*
X42305Y32054D01*
X42319Y32064D01*
X42331Y32076D01*
X42341Y32091D01*
X42349Y32106D01*
X42353Y32123D01*
X42355Y32141D01*
Y32841D01*
X42353Y32858D01*
X42349Y32875D01*
X42341Y32891D01*
X42331Y32905D01*
X42319Y32917D01*
X42305Y32927D01*
X42289Y32935D01*
X42272Y32939D01*
X42255Y32941D01*
X41661D01*
Y35000D01*
G37*
G36*
X43283D02*X44000D01*
Y18990D01*
X43660D01*
X43634Y18987D01*
X43608Y18981D01*
X43585Y18969D01*
X43563Y18954D01*
X43545Y18936D01*
X43530Y18915D01*
X43519Y18891D01*
X43512Y18866D01*
X43510Y18840D01*
Y18160D01*
X43512Y18134D01*
X43519Y18108D01*
X43530Y18085D01*
X43545Y18063D01*
X43563Y18045D01*
X43585Y18030D01*
X43608Y18019D01*
X43634Y18012D01*
X43660Y18010D01*
X44000D01*
Y0D01*
X43283D01*
Y28226D01*
X43361Y28232D01*
X43436Y28253D01*
X43508Y28286D01*
X43572Y28331D01*
X43627Y28386D01*
X43672Y28451D01*
X43705Y28522D01*
X43726Y28598D01*
X43733Y28676D01*
X43726Y28754D01*
X43705Y28830D01*
X43672Y28901D01*
X43627Y28965D01*
X43572Y29020D01*
X43508Y29065D01*
X43436Y29099D01*
X43361Y29119D01*
X43283Y29126D01*
Y35000D01*
G37*
G36*
X44000D02*X44138D01*
Y18990D01*
X44000D01*
Y35000D01*
G37*
G36*
X44138Y17436D02*X44125Y17429D01*
X44103Y17414D01*
X44085Y17396D01*
X44070Y17375D01*
X44059Y17351D01*
X44052Y17326D01*
X44050Y17300D01*
Y16700D01*
X44052Y16674D01*
X44059Y16648D01*
X44070Y16625D01*
X44085Y16603D01*
X44103Y16585D01*
X44125Y16570D01*
X44138Y16563D01*
Y16214D01*
X44129Y16211D01*
X44117Y16206D01*
X44106Y16199D01*
X44096Y16190D01*
X44088Y16180D01*
X44082Y16168D01*
X44068Y16127D01*
X44058Y16085D01*
X44052Y16043D01*
X44050Y16000D01*
X44052Y15956D01*
X44058Y15914D01*
X44068Y15872D01*
X44082Y15831D01*
X44082D01*
X44088Y15819D01*
X44096Y15809D01*
X44106Y15800D01*
X44117Y15793D01*
X44129Y15788D01*
X44138Y15786D01*
Y15265D01*
X44110Y15225D01*
X44077Y15153D01*
X44056Y15078D01*
X44050Y15000D01*
X44056Y14921D01*
X44077Y14846D01*
X44110Y14775D01*
X44138Y14734D01*
Y0D01*
X44000D01*
Y18010D01*
X44138D01*
Y17436D01*
G37*
G36*
Y35000D02*X44500D01*
Y17450D01*
X44200D01*
X44174Y17447D01*
X44148Y17441D01*
X44138Y17436D01*
Y18010D01*
X44340D01*
X44366Y18012D01*
X44391Y18019D01*
X44415Y18030D01*
X44436Y18045D01*
X44454Y18063D01*
X44469Y18085D01*
X44481Y18108D01*
X44487Y18134D01*
X44490Y18160D01*
Y18840D01*
X44487Y18866D01*
X44481Y18891D01*
X44469Y18915D01*
X44454Y18936D01*
X44436Y18954D01*
X44415Y18969D01*
X44391Y18981D01*
X44366Y18987D01*
X44340Y18990D01*
X44138D01*
Y35000D01*
G37*
G36*
Y16563D02*X44148Y16559D01*
X44174Y16552D01*
X44200Y16550D01*
X44500D01*
Y16450D01*
X44456Y16448D01*
X44414Y16441D01*
X44372Y16431D01*
X44331Y16417D01*
Y16417D01*
X44319Y16411D01*
X44309Y16403D01*
X44300Y16393D01*
X44293Y16382D01*
X44288Y16370D01*
X44285Y16358D01*
X44284Y16345D01*
X44286Y16332D01*
X44290Y16319D01*
X44295Y16308D01*
X44303Y16297D01*
X44313Y16288D01*
X44324Y16281D01*
X44336Y16276D01*
X44349Y16273D01*
X44362Y16272D01*
X44375Y16274D01*
X44387Y16278D01*
X44414Y16287D01*
X44442Y16294D01*
X44471Y16298D01*
X44500Y16300D01*
Y15700D01*
X44471Y15701D01*
X44442Y15705D01*
X44414Y15712D01*
X44387Y15721D01*
Y15722D01*
X44375Y15725D01*
X44362Y15727D01*
X44349Y15726D01*
X44336Y15723D01*
X44324Y15718D01*
X44313Y15711D01*
X44303Y15702D01*
X44295Y15692D01*
X44289Y15680D01*
X44286Y15668D01*
X44284Y15655D01*
X44285Y15641D01*
X44288Y15629D01*
X44293Y15617D01*
X44300Y15606D01*
X44309Y15596D01*
X44319Y15588D01*
X44331Y15582D01*
X44372Y15568D01*
X44414Y15558D01*
X44456Y15552D01*
X44500Y15550D01*
Y15450D01*
X44421Y15443D01*
X44346Y15422D01*
X44275Y15389D01*
X44210Y15344D01*
X44155Y15289D01*
X44138Y15265D01*
Y15786D01*
X44141Y15785D01*
X44154Y15784D01*
X44167Y15786D01*
X44180Y15790D01*
X44192Y15796D01*
X44202Y15803D01*
X44211Y15813D01*
X44218Y15824D01*
X44223Y15836D01*
X44226Y15849D01*
X44227Y15862D01*
X44225Y15875D01*
X44221Y15887D01*
X44212Y15914D01*
X44205Y15942D01*
X44201Y15971D01*
X44200Y16000D01*
X44201Y16028D01*
X44205Y16057D01*
X44212Y16085D01*
X44221Y16112D01*
X44221D01*
X44225Y16124D01*
X44227Y16137D01*
X44226Y16151D01*
X44223Y16163D01*
X44218Y16175D01*
X44211Y16186D01*
X44202Y16196D01*
X44192Y16204D01*
X44180Y16210D01*
X44167Y16213D01*
X44154Y16215D01*
X44141Y16214D01*
X44138Y16214D01*
Y16563D01*
G37*
G36*
Y14734D02*X44155Y14710D01*
X44210Y14655D01*
X44275Y14610D01*
X44346Y14577D01*
X44421Y14556D01*
X44500Y14550D01*
Y13105D01*
X44499Y13103D01*
X44497Y13077D01*
Y12227D01*
X44499Y12201D01*
X44500Y12198D01*
Y0D01*
X44138D01*
Y14734D01*
G37*
G36*
X44500Y35000D02*X44861D01*
Y17436D01*
X44851Y17441D01*
X44826Y17447D01*
X44800Y17450D01*
X44500D01*
Y35000D01*
G37*
G36*
X44861Y13227D02*X44647D01*
X44621Y13224D01*
X44595Y13218D01*
X44572Y13206D01*
X44550Y13191D01*
X44532Y13173D01*
X44517Y13152D01*
X44506Y13128D01*
X44500Y13105D01*
Y14550D01*
X44578Y14556D01*
X44653Y14577D01*
X44725Y14610D01*
X44789Y14655D01*
X44844Y14710D01*
X44861Y14734D01*
Y13227D01*
G37*
G36*
Y15265D02*X44844Y15289D01*
X44789Y15344D01*
X44725Y15389D01*
X44653Y15422D01*
X44578Y15443D01*
X44500Y15450D01*
Y15550D01*
X44543Y15552D01*
X44585Y15558D01*
X44627Y15568D01*
X44668Y15582D01*
Y15582D01*
X44680Y15588D01*
X44690Y15596D01*
X44699Y15606D01*
X44706Y15617D01*
X44711Y15629D01*
X44714Y15642D01*
X44715Y15655D01*
X44713Y15668D01*
X44709Y15680D01*
X44704Y15692D01*
X44696Y15702D01*
X44686Y15711D01*
X44675Y15718D01*
X44663Y15723D01*
X44650Y15726D01*
X44637Y15727D01*
X44624Y15725D01*
X44612Y15721D01*
X44585Y15712D01*
X44557Y15705D01*
X44528Y15701D01*
X44500Y15700D01*
Y16300D01*
X44528Y16298D01*
X44557Y16294D01*
X44585Y16287D01*
X44612Y16278D01*
Y16278D01*
X44624Y16274D01*
X44637Y16272D01*
X44650Y16273D01*
X44663Y16276D01*
X44675Y16281D01*
X44686Y16288D01*
X44696Y16297D01*
X44704Y16307D01*
X44710Y16319D01*
X44713Y16332D01*
X44715Y16345D01*
X44714Y16358D01*
X44711Y16370D01*
X44706Y16383D01*
X44699Y16393D01*
X44690Y16403D01*
X44680Y16411D01*
X44668Y16417D01*
X44627Y16431D01*
X44585Y16441D01*
X44543Y16448D01*
X44500Y16450D01*
Y16550D01*
X44800D01*
X44826Y16552D01*
X44851Y16559D01*
X44861Y16563D01*
Y16213D01*
X44858Y16214D01*
X44845Y16215D01*
X44832Y16213D01*
X44819Y16210D01*
X44807Y16204D01*
X44797Y16196D01*
X44788Y16186D01*
X44781Y16175D01*
X44776Y16163D01*
X44773Y16150D01*
X44772Y16137D01*
X44774Y16124D01*
X44778Y16112D01*
X44787Y16085D01*
X44794Y16057D01*
X44798Y16028D01*
X44800Y16000D01*
X44798Y15971D01*
X44794Y15942D01*
X44787Y15914D01*
X44778Y15887D01*
X44778D01*
X44774Y15875D01*
X44772Y15862D01*
X44773Y15849D01*
X44776Y15836D01*
X44781Y15824D01*
X44788Y15813D01*
X44797Y15803D01*
X44807Y15795D01*
X44819Y15790D01*
X44832Y15786D01*
X44845Y15784D01*
X44858Y15785D01*
X44861Y15786D01*
Y15265D01*
G37*
G36*
Y35000D02*X45072D01*
Y13227D01*
X44861D01*
Y14734D01*
X44889Y14775D01*
X44922Y14846D01*
X44943Y14921D01*
X44950Y15000D01*
X44943Y15078D01*
X44922Y15153D01*
X44889Y15225D01*
X44861Y15265D01*
Y15786D01*
X44870Y15788D01*
X44882Y15793D01*
X44893Y15800D01*
X44903Y15809D01*
X44911Y15819D01*
X44917Y15831D01*
X44931Y15872D01*
X44941Y15914D01*
X44947Y15956D01*
X44950Y16000D01*
X44947Y16043D01*
X44941Y16085D01*
X44931Y16127D01*
X44917Y16168D01*
X44917D01*
X44911Y16180D01*
X44903Y16190D01*
X44893Y16199D01*
X44882Y16206D01*
X44870Y16211D01*
X44861Y16213D01*
Y16563D01*
X44875Y16570D01*
X44896Y16585D01*
X44914Y16603D01*
X44929Y16625D01*
X44941Y16648D01*
X44947Y16674D01*
X44950Y16700D01*
Y17300D01*
X44947Y17326D01*
X44941Y17351D01*
X44929Y17375D01*
X44914Y17396D01*
X44896Y17414D01*
X44875Y17429D01*
X44861Y17436D01*
Y35000D01*
G37*
G36*
X44500Y12198D02*X44506Y12175D01*
X44517Y12152D01*
X44532Y12130D01*
X44550Y12112D01*
X44572Y12097D01*
X44595Y12086D01*
X44621Y12079D01*
X44647Y12077D01*
X45072D01*
Y0D01*
X44500D01*
Y12198D01*
G37*
G36*
X45072Y35000D02*X45638D01*
Y25714D01*
X45629Y25711D01*
X45617Y25706D01*
X45606Y25699D01*
X45596Y25690D01*
X45588Y25680D01*
X45582Y25668D01*
X45568Y25627D01*
X45558Y25585D01*
X45552Y25543D01*
X45550Y25500D01*
X45552Y25456D01*
X45558Y25414D01*
X45568Y25372D01*
X45582Y25331D01*
X45582D01*
X45588Y25319D01*
X45596Y25309D01*
X45606Y25300D01*
X45617Y25293D01*
X45629Y25288D01*
X45638Y25286D01*
Y24723D01*
X45638Y24723D01*
X45625Y24725D01*
X45612Y24723D01*
X45599Y24720D01*
X45587Y24715D01*
X45576Y24707D01*
X45567Y24698D01*
X45560Y24687D01*
X45554Y24675D01*
X45551Y24663D01*
X45550Y24650D01*
Y24350D01*
X45551Y24337D01*
X45554Y24324D01*
X45560Y24312D01*
X45567Y24301D01*
X45576Y24292D01*
X45587Y24285D01*
X45599Y24279D01*
X45612Y24276D01*
X45625Y24275D01*
X45638Y24276D01*
X45638Y24276D01*
Y13125D01*
X45638Y13128D01*
X45626Y13152D01*
X45611Y13173D01*
X45593Y13191D01*
X45572Y13206D01*
X45548Y13218D01*
X45523Y13224D01*
X45497Y13227D01*
X45072D01*
Y35000D01*
G37*
G36*
X45638Y0D02*X45072D01*
Y12077D01*
X45497D01*
X45523Y12079D01*
X45548Y12086D01*
X45572Y12097D01*
X45593Y12112D01*
X45611Y12130D01*
X45626Y12152D01*
X45638Y12175D01*
X45638Y12178D01*
Y0D01*
G37*
G36*
Y35000D02*X46000D01*
Y25950D01*
X45956Y25948D01*
X45914Y25941D01*
X45872Y25931D01*
X45831Y25917D01*
Y25917D01*
X45819Y25911D01*
X45809Y25903D01*
X45800Y25893D01*
X45793Y25882D01*
X45788Y25870D01*
X45785Y25858D01*
X45784Y25845D01*
X45786Y25832D01*
X45790Y25819D01*
X45795Y25808D01*
X45803Y25797D01*
X45813Y25788D01*
X45824Y25781D01*
X45836Y25776D01*
X45849Y25773D01*
X45862Y25772D01*
X45875Y25774D01*
X45887Y25778D01*
X45914Y25787D01*
X45942Y25794D01*
X45971Y25798D01*
X46000Y25800D01*
Y25200D01*
X45971Y25201D01*
X45942Y25205D01*
X45914Y25212D01*
X45887Y25221D01*
Y25222D01*
X45875Y25225D01*
X45862Y25227D01*
X45849Y25226D01*
X45836Y25223D01*
X45824Y25218D01*
X45813Y25211D01*
X45803Y25202D01*
X45795Y25192D01*
X45789Y25180D01*
X45786Y25168D01*
X45784Y25155D01*
X45785Y25141D01*
X45788Y25129D01*
X45793Y25117D01*
X45800Y25106D01*
X45809Y25096D01*
X45819Y25088D01*
X45831Y25082D01*
X45872Y25068D01*
X45914Y25058D01*
X45956Y25052D01*
X46000Y25050D01*
Y24950D01*
X45850D01*
X45837Y24948D01*
X45824Y24945D01*
X45812Y24940D01*
X45801Y24932D01*
X45792Y24923D01*
X45785Y24912D01*
X45779Y24900D01*
X45776Y24888D01*
X45775Y24875D01*
X45776Y24862D01*
X45779Y24849D01*
X45785Y24837D01*
X45792Y24826D01*
X45801Y24817D01*
X45812Y24810D01*
X45824Y24804D01*
X45837Y24801D01*
X45850Y24800D01*
X46000D01*
Y24200D01*
X45850D01*
X45837Y24198D01*
X45824Y24195D01*
X45812Y24190D01*
X45801Y24182D01*
X45792Y24173D01*
X45785Y24162D01*
X45779Y24150D01*
X45776Y24138D01*
X45775Y24125D01*
X45776Y24112D01*
X45779Y24099D01*
X45785Y24087D01*
X45792Y24076D01*
X45801Y24067D01*
X45812Y24060D01*
X45824Y24054D01*
X45837Y24051D01*
X45850Y24050D01*
X46000D01*
Y0D01*
X45638D01*
Y12178D01*
X45644Y12201D01*
X45647Y12227D01*
Y13077D01*
X45644Y13103D01*
X45638Y13125D01*
Y24276D01*
X45650Y24279D01*
X45662Y24285D01*
X45673Y24292D01*
X45682Y24301D01*
X45690Y24312D01*
X45695Y24324D01*
X45698Y24337D01*
X45700Y24350D01*
Y24650D01*
X45698Y24663D01*
X45695Y24675D01*
X45690Y24687D01*
X45682Y24698D01*
X45673Y24707D01*
X45662Y24715D01*
X45650Y24720D01*
X45638Y24723D01*
Y25286D01*
X45641Y25285D01*
X45654Y25284D01*
X45667Y25286D01*
X45680Y25290D01*
X45692Y25296D01*
X45702Y25303D01*
X45711Y25313D01*
X45718Y25324D01*
X45723Y25336D01*
X45726Y25349D01*
X45727Y25362D01*
X45725Y25375D01*
X45721Y25387D01*
X45712Y25414D01*
X45705Y25442D01*
X45701Y25471D01*
X45700Y25500D01*
X45701Y25528D01*
X45705Y25557D01*
X45712Y25585D01*
X45721Y25612D01*
X45721D01*
X45725Y25624D01*
X45727Y25637D01*
X45726Y25651D01*
X45723Y25663D01*
X45718Y25675D01*
X45711Y25686D01*
X45702Y25696D01*
X45692Y25704D01*
X45680Y25710D01*
X45667Y25713D01*
X45654Y25715D01*
X45641Y25714D01*
X45638Y25714D01*
Y35000D01*
G37*
G36*
X46000D02*X46361D01*
Y25713D01*
X46358Y25714D01*
X46345Y25715D01*
X46332Y25713D01*
X46319Y25710D01*
X46307Y25704D01*
X46297Y25696D01*
X46288Y25686D01*
X46281Y25675D01*
X46276Y25663D01*
X46273Y25650D01*
X46272Y25637D01*
X46274Y25624D01*
X46278Y25612D01*
X46287Y25585D01*
X46294Y25557D01*
X46298Y25528D01*
X46300Y25500D01*
X46298Y25471D01*
X46294Y25442D01*
X46287Y25414D01*
X46278Y25387D01*
X46278D01*
X46274Y25375D01*
X46272Y25362D01*
X46273Y25349D01*
X46276Y25336D01*
X46281Y25324D01*
X46288Y25313D01*
X46297Y25303D01*
X46307Y25295D01*
X46319Y25290D01*
X46332Y25286D01*
X46345Y25284D01*
X46358Y25285D01*
X46361Y25286D01*
Y24723D01*
X46349Y24720D01*
X46337Y24715D01*
X46326Y24707D01*
X46317Y24698D01*
X46310Y24687D01*
X46304Y24675D01*
X46301Y24663D01*
X46300Y24650D01*
Y24350D01*
X46301Y24337D01*
X46304Y24324D01*
X46310Y24312D01*
X46317Y24301D01*
X46326Y24292D01*
X46337Y24285D01*
X46349Y24279D01*
X46361Y24276D01*
Y0D01*
X46000D01*
Y24050D01*
X46150D01*
X46163Y24051D01*
X46175Y24054D01*
X46187Y24060D01*
X46198Y24067D01*
X46207Y24076D01*
X46215Y24087D01*
X46220Y24099D01*
X46223Y24112D01*
X46225Y24125D01*
X46223Y24138D01*
X46220Y24150D01*
X46215Y24162D01*
X46207Y24173D01*
X46198Y24182D01*
X46187Y24190D01*
X46175Y24195D01*
X46163Y24198D01*
X46150Y24200D01*
X46000D01*
Y24800D01*
X46150D01*
X46163Y24801D01*
X46175Y24804D01*
X46187Y24810D01*
X46198Y24817D01*
X46207Y24826D01*
X46215Y24837D01*
X46220Y24849D01*
X46223Y24862D01*
X46225Y24875D01*
X46223Y24888D01*
X46220Y24900D01*
X46215Y24912D01*
X46207Y24923D01*
X46198Y24932D01*
X46187Y24940D01*
X46175Y24945D01*
X46163Y24948D01*
X46150Y24950D01*
X46000D01*
Y25050D01*
X46043Y25052D01*
X46085Y25058D01*
X46127Y25068D01*
X46168Y25082D01*
Y25082D01*
X46180Y25088D01*
X46190Y25096D01*
X46199Y25106D01*
X46206Y25117D01*
X46211Y25129D01*
X46214Y25142D01*
X46215Y25155D01*
X46213Y25168D01*
X46209Y25180D01*
X46204Y25192D01*
X46196Y25202D01*
X46186Y25211D01*
X46175Y25218D01*
X46163Y25223D01*
X46150Y25226D01*
X46137Y25227D01*
X46124Y25225D01*
X46112Y25221D01*
X46085Y25212D01*
X46057Y25205D01*
X46028Y25201D01*
X46000Y25200D01*
Y25800D01*
X46028Y25798D01*
X46057Y25794D01*
X46085Y25787D01*
X46112Y25778D01*
Y25778D01*
X46124Y25774D01*
X46137Y25772D01*
X46150Y25773D01*
X46163Y25776D01*
X46175Y25781D01*
X46186Y25788D01*
X46196Y25797D01*
X46204Y25807D01*
X46210Y25819D01*
X46213Y25832D01*
X46215Y25845D01*
X46214Y25858D01*
X46211Y25870D01*
X46206Y25883D01*
X46199Y25893D01*
X46190Y25903D01*
X46180Y25911D01*
X46168Y25917D01*
X46127Y25931D01*
X46085Y25941D01*
X46043Y25948D01*
X46000Y25950D01*
Y35000D01*
G37*
G36*
X46361D02*X46805D01*
Y32951D01*
X46796Y32947D01*
X46782Y32936D01*
X46770Y32924D01*
X46760Y32909D01*
X46725Y32838D01*
X46697Y32765D01*
X46676Y32688D01*
X46662Y32611D01*
X46655Y32532D01*
X46656Y32453D01*
X46664Y32374D01*
X46679Y32296D01*
X46702Y32221D01*
X46731Y32147D01*
X46768Y32077D01*
X46778Y32063D01*
X46790Y32050D01*
X46804Y32040D01*
X46805Y32040D01*
Y25903D01*
X46775Y25889D01*
X46710Y25844D01*
X46655Y25789D01*
X46610Y25725D01*
X46577Y25653D01*
X46556Y25578D01*
X46550Y25500D01*
X46556Y25421D01*
X46577Y25346D01*
X46610Y25275D01*
X46655Y25210D01*
X46710Y25155D01*
X46775Y25110D01*
X46805Y25096D01*
Y24903D01*
X46775Y24889D01*
X46710Y24844D01*
X46655Y24789D01*
X46610Y24725D01*
X46577Y24653D01*
X46556Y24578D01*
X46550Y24500D01*
X46556Y24421D01*
X46577Y24346D01*
X46610Y24275D01*
X46655Y24210D01*
X46710Y24155D01*
X46775Y24110D01*
X46805Y24096D01*
Y2951D01*
X46796Y2947D01*
X46782Y2936D01*
X46770Y2924D01*
X46760Y2909D01*
X46725Y2838D01*
X46697Y2765D01*
X46676Y2688D01*
X46662Y2611D01*
X46655Y2532D01*
X46656Y2453D01*
X46664Y2374D01*
X46679Y2296D01*
X46702Y2221D01*
X46731Y2147D01*
X46768Y2077D01*
X46778Y2063D01*
X46790Y2050D01*
X46804Y2040D01*
X46805Y2040D01*
Y0D01*
X46361D01*
Y24276D01*
X46362Y24276D01*
X46375Y24275D01*
X46388Y24276D01*
X46400Y24279D01*
X46412Y24285D01*
X46423Y24292D01*
X46432Y24301D01*
X46440Y24312D01*
X46445Y24324D01*
X46448Y24337D01*
X46450Y24350D01*
Y24650D01*
X46448Y24663D01*
X46445Y24675D01*
X46440Y24687D01*
X46432Y24698D01*
X46423Y24707D01*
X46412Y24715D01*
X46400Y24720D01*
X46388Y24723D01*
X46375Y24725D01*
X46362Y24723D01*
X46361Y24723D01*
Y25286D01*
X46370Y25288D01*
X46382Y25293D01*
X46393Y25300D01*
X46403Y25309D01*
X46411Y25319D01*
X46417Y25331D01*
X46431Y25372D01*
X46441Y25414D01*
X46447Y25456D01*
X46450Y25500D01*
X46447Y25543D01*
X46441Y25585D01*
X46431Y25627D01*
X46417Y25668D01*
X46417D01*
X46411Y25680D01*
X46403Y25690D01*
X46393Y25699D01*
X46382Y25706D01*
X46370Y25711D01*
X46361Y25713D01*
Y35000D01*
G37*
G36*
X46805D02*X47494D01*
Y33344D01*
X47453Y33343D01*
X47374Y33335D01*
X47296Y33320D01*
X47221Y33297D01*
X47147Y33268D01*
X47077Y33231D01*
X47063Y33221D01*
X47050Y33209D01*
X47040Y33195D01*
X47033Y33179D01*
X47029Y33162D01*
X47027Y33145D01*
X47029Y33127D01*
X47033Y33111D01*
X47040Y33095D01*
X47050Y33080D01*
X47063Y33068D01*
X47077Y33058D01*
X47093Y33051D01*
X47110Y33046D01*
X47127Y33045D01*
X47144Y33046D01*
X47161Y33051D01*
X47177Y33058D01*
X47231Y33086D01*
X47287Y33108D01*
X47344Y33126D01*
X47404Y33137D01*
X47464Y33144D01*
X47494Y33144D01*
Y31855D01*
X47475Y31855D01*
X47415Y31860D01*
X47355Y31871D01*
X47297Y31887D01*
X47241Y31909D01*
X47187Y31935D01*
X47187Y31936D01*
X47171Y31943D01*
X47154Y31947D01*
X47137Y31948D01*
X47119Y31946D01*
X47102Y31941D01*
X47087Y31934D01*
X47073Y31924D01*
X47061Y31911D01*
X47051Y31897D01*
X47044Y31881D01*
X47040Y31864D01*
X47038Y31846D01*
X47040Y31829D01*
X47045Y31812D01*
X47053Y31797D01*
X47063Y31782D01*
X47075Y31770D01*
X47090Y31761D01*
X47161Y31725D01*
X47235Y31697D01*
X47311Y31676D01*
X47389Y31662D01*
X47467Y31655D01*
X47494Y31655D01*
Y17449D01*
X47421Y17443D01*
X47346Y17422D01*
X47275Y17389D01*
X47210Y17344D01*
X47155Y17289D01*
X47110Y17225D01*
X47077Y17153D01*
X47056Y17078D01*
X47050Y17000D01*
X47056Y16921D01*
X47077Y16846D01*
X47110Y16775D01*
X47155Y16710D01*
X47210Y16655D01*
X47275Y16610D01*
X47346Y16577D01*
X47421Y16556D01*
X47494Y16550D01*
Y16449D01*
X47421Y16443D01*
X47346Y16422D01*
X47275Y16389D01*
X47210Y16344D01*
X47155Y16289D01*
X47110Y16225D01*
X47077Y16153D01*
X47056Y16078D01*
X47050Y16000D01*
X47056Y15921D01*
X47077Y15846D01*
X47110Y15775D01*
X47155Y15710D01*
X47210Y15655D01*
X47275Y15610D01*
X47346Y15577D01*
X47421Y15556D01*
X47494Y15550D01*
Y15449D01*
X47421Y15443D01*
X47346Y15422D01*
X47275Y15389D01*
X47210Y15344D01*
X47155Y15289D01*
X47110Y15225D01*
X47077Y15153D01*
X47056Y15078D01*
X47050Y15000D01*
X47056Y14921D01*
X47077Y14846D01*
X47110Y14775D01*
X47155Y14710D01*
X47210Y14655D01*
X47275Y14610D01*
X47346Y14577D01*
X47421Y14556D01*
X47494Y14550D01*
Y3344D01*
X47453Y3343D01*
X47374Y3335D01*
X47296Y3320D01*
X47221Y3297D01*
X47147Y3268D01*
X47077Y3231D01*
X47063Y3221D01*
X47050Y3209D01*
X47040Y3195D01*
X47033Y3179D01*
X47029Y3162D01*
X47027Y3145D01*
X47029Y3127D01*
X47033Y3111D01*
X47040Y3095D01*
X47050Y3080D01*
X47063Y3068D01*
X47077Y3058D01*
X47093Y3051D01*
X47110Y3046D01*
X47127Y3045D01*
X47144Y3046D01*
X47161Y3051D01*
X47177Y3058D01*
X47231Y3086D01*
X47287Y3108D01*
X47344Y3126D01*
X47404Y3137D01*
X47464Y3144D01*
X47494Y3144D01*
Y1855D01*
X47475Y1855D01*
X47415Y1860D01*
X47355Y1871D01*
X47297Y1887D01*
X47241Y1909D01*
X47187Y1935D01*
X47187Y1936D01*
X47171Y1943D01*
X47154Y1947D01*
X47137Y1948D01*
X47119Y1946D01*
X47102Y1941D01*
X47087Y1934D01*
X47073Y1924D01*
X47061Y1911D01*
X47051Y1897D01*
X47044Y1881D01*
X47040Y1864D01*
X47038Y1846D01*
X47040Y1829D01*
X47045Y1812D01*
X47053Y1797D01*
X47063Y1782D01*
X47075Y1770D01*
X47090Y1761D01*
X47161Y1725D01*
X47235Y1697D01*
X47311Y1676D01*
X47389Y1662D01*
X47467Y1655D01*
X47494Y1655D01*
Y0D01*
X46805D01*
Y2040D01*
X46820Y2033D01*
X46837Y2029D01*
X46854Y2027D01*
X46872Y2029D01*
X46889Y2033D01*
X46904Y2040D01*
X46919Y2050D01*
X46931Y2063D01*
X46941Y2077D01*
X46948Y2093D01*
X46953Y2110D01*
X46954Y2127D01*
X46953Y2144D01*
X46948Y2161D01*
X46941Y2177D01*
X46913Y2231D01*
X46891Y2287D01*
X46873Y2345D01*
X46862Y2404D01*
X46855Y2464D01*
X46855Y2524D01*
X46860Y2584D01*
X46871Y2644D01*
X46887Y2702D01*
X46909Y2758D01*
X46935Y2812D01*
X46935Y2812D01*
X46943Y2828D01*
X46947Y2845D01*
X46948Y2862D01*
X46946Y2880D01*
X46941Y2897D01*
X46934Y2912D01*
X46923Y2926D01*
X46911Y2938D01*
X46896Y2948D01*
X46881Y2955D01*
X46864Y2960D01*
X46846Y2961D01*
X46829Y2959D01*
X46812Y2954D01*
X46805Y2951D01*
Y24096D01*
X46846Y24077D01*
X46921Y24056D01*
X47000Y24050D01*
X47078Y24056D01*
X47153Y24077D01*
X47225Y24110D01*
X47289Y24155D01*
X47344Y24210D01*
X47389Y24275D01*
X47422Y24346D01*
X47443Y24421D01*
X47450Y24500D01*
X47443Y24578D01*
X47422Y24653D01*
X47389Y24725D01*
X47344Y24789D01*
X47289Y24844D01*
X47225Y24889D01*
X47153Y24922D01*
X47078Y24943D01*
X47000Y24950D01*
X46921Y24943D01*
X46846Y24922D01*
X46805Y24903D01*
Y25096D01*
X46846Y25077D01*
X46921Y25056D01*
X47000Y25050D01*
X47078Y25056D01*
X47153Y25077D01*
X47225Y25110D01*
X47289Y25155D01*
X47344Y25210D01*
X47389Y25275D01*
X47422Y25346D01*
X47443Y25421D01*
X47450Y25500D01*
X47443Y25578D01*
X47422Y25653D01*
X47389Y25725D01*
X47344Y25789D01*
X47289Y25844D01*
X47225Y25889D01*
X47153Y25922D01*
X47078Y25943D01*
X47000Y25950D01*
X46921Y25943D01*
X46846Y25922D01*
X46805Y25903D01*
Y32040D01*
X46820Y32033D01*
X46837Y32029D01*
X46854Y32027D01*
X46872Y32029D01*
X46889Y32033D01*
X46904Y32040D01*
X46919Y32050D01*
X46931Y32063D01*
X46941Y32077D01*
X46948Y32093D01*
X46953Y32110D01*
X46954Y32127D01*
X46953Y32144D01*
X46948Y32161D01*
X46941Y32177D01*
X46913Y32231D01*
X46891Y32287D01*
X46873Y32345D01*
X46862Y32404D01*
X46855Y32464D01*
X46855Y32524D01*
X46860Y32584D01*
X46871Y32644D01*
X46887Y32702D01*
X46909Y32758D01*
X46935Y32812D01*
X46935Y32812D01*
X46943Y32828D01*
X46947Y32845D01*
X46948Y32862D01*
X46946Y32880D01*
X46941Y32897D01*
X46934Y32912D01*
X46923Y32926D01*
X46911Y32938D01*
X46896Y32948D01*
X46881Y32955D01*
X46864Y32960D01*
X46846Y32961D01*
X46829Y32959D01*
X46812Y32954D01*
X46805Y32951D01*
Y35000D01*
G37*
G36*
X47494D02*X48194D01*
Y32959D01*
X48179Y32966D01*
X48162Y32971D01*
X48145Y32972D01*
X48127Y32971D01*
X48110Y32966D01*
X48095Y32959D01*
X48080Y32949D01*
X48068Y32936D01*
X48058Y32922D01*
X48051Y32906D01*
X48046Y32889D01*
X48045Y32872D01*
X48046Y32855D01*
X48051Y32838D01*
X48058Y32822D01*
X48086Y32768D01*
X48108Y32712D01*
X48126Y32655D01*
X48137Y32595D01*
X48144Y32535D01*
X48144Y32475D01*
X48139Y32415D01*
X48128Y32356D01*
X48112Y32297D01*
X48090Y32241D01*
X48064Y32187D01*
X48064Y32187D01*
X48056Y32171D01*
X48052Y32154D01*
X48051Y32137D01*
X48053Y32119D01*
X48058Y32103D01*
X48065Y32087D01*
X48076Y32073D01*
X48088Y32061D01*
X48103Y32051D01*
X48118Y32044D01*
X48135Y32040D01*
X48153Y32038D01*
X48170Y32040D01*
X48187Y32045D01*
X48194Y32049D01*
Y25903D01*
X48153Y25922D01*
X48078Y25943D01*
X48000Y25950D01*
X47921Y25943D01*
X47846Y25922D01*
X47775Y25889D01*
X47710Y25844D01*
X47655Y25789D01*
X47610Y25725D01*
X47577Y25653D01*
X47556Y25578D01*
X47550Y25500D01*
X47556Y25421D01*
X47577Y25346D01*
X47610Y25275D01*
X47655Y25210D01*
X47710Y25155D01*
X47775Y25110D01*
X47846Y25077D01*
X47921Y25056D01*
X48000Y25050D01*
X48078Y25056D01*
X48153Y25077D01*
X48194Y25096D01*
Y24903D01*
X48153Y24922D01*
X48078Y24943D01*
X48000Y24950D01*
X47921Y24943D01*
X47846Y24922D01*
X47775Y24889D01*
X47710Y24844D01*
X47655Y24789D01*
X47610Y24725D01*
X47577Y24653D01*
X47556Y24578D01*
X47550Y24500D01*
X47556Y24421D01*
X47577Y24346D01*
X47610Y24275D01*
X47655Y24210D01*
X47710Y24155D01*
X47775Y24110D01*
X47846Y24077D01*
X47921Y24056D01*
X48000Y24050D01*
X48078Y24056D01*
X48153Y24077D01*
X48194Y24096D01*
Y18947D01*
X48167Y18960D01*
X48085Y18982D01*
X48000Y18990D01*
X47914Y18982D01*
X47832Y18960D01*
X47755Y18924D01*
X47685Y18875D01*
X47624Y18815D01*
X47575Y18745D01*
X47539Y18667D01*
X47517Y18585D01*
X47510Y18500D01*
X47517Y18414D01*
X47539Y18332D01*
X47575Y18255D01*
X47624Y18185D01*
X47685Y18124D01*
X47755Y18075D01*
X47832Y18039D01*
X47914Y18017D01*
X48000Y18010D01*
X48085Y18017D01*
X48167Y18039D01*
X48194Y18052D01*
Y2959D01*
X48179Y2966D01*
X48162Y2971D01*
X48145Y2972D01*
X48127Y2971D01*
X48110Y2966D01*
X48095Y2959D01*
X48080Y2949D01*
X48068Y2936D01*
X48058Y2922D01*
X48051Y2906D01*
X48046Y2889D01*
X48045Y2872D01*
X48046Y2855D01*
X48051Y2838D01*
X48058Y2822D01*
X48086Y2768D01*
X48108Y2712D01*
X48126Y2655D01*
X48137Y2595D01*
X48144Y2535D01*
X48144Y2475D01*
X48139Y2415D01*
X48128Y2356D01*
X48112Y2297D01*
X48090Y2241D01*
X48064Y2187D01*
X48064Y2187D01*
X48056Y2171D01*
X48052Y2154D01*
X48051Y2137D01*
X48053Y2119D01*
X48058Y2103D01*
X48065Y2087D01*
X48076Y2073D01*
X48088Y2061D01*
X48103Y2051D01*
X48118Y2044D01*
X48135Y2040D01*
X48153Y2038D01*
X48170Y2040D01*
X48187Y2045D01*
X48194Y2049D01*
Y0D01*
X47494D01*
Y1655D01*
X47546Y1656D01*
X47625Y1664D01*
X47703Y1679D01*
X47778Y1702D01*
X47852Y1732D01*
X47922Y1768D01*
X47936Y1778D01*
X47949Y1790D01*
X47959Y1804D01*
X47966Y1820D01*
X47971Y1837D01*
X47972Y1854D01*
X47971Y1872D01*
X47966Y1889D01*
X47959Y1904D01*
X47949Y1919D01*
X47936Y1931D01*
X47922Y1941D01*
X47906Y1948D01*
X47889Y1953D01*
X47872Y1954D01*
X47855Y1953D01*
X47838Y1948D01*
X47822Y1941D01*
X47768Y1913D01*
X47712Y1891D01*
X47655Y1874D01*
X47595Y1862D01*
X47535Y1856D01*
X47494Y1855D01*
Y3144D01*
X47524Y3144D01*
X47584Y3139D01*
X47644Y3128D01*
X47702Y3112D01*
X47758Y3090D01*
X47812Y3064D01*
X47812Y3064D01*
X47828Y3057D01*
X47845Y3052D01*
X47862Y3051D01*
X47880Y3053D01*
X47897Y3058D01*
X47912Y3065D01*
X47926Y3076D01*
X47938Y3088D01*
X47948Y3103D01*
X47955Y3119D01*
X47959Y3136D01*
X47961Y3153D01*
X47959Y3170D01*
X47954Y3187D01*
X47946Y3203D01*
X47936Y3217D01*
X47924Y3229D01*
X47909Y3239D01*
X47838Y3274D01*
X47764Y3302D01*
X47688Y3323D01*
X47610Y3337D01*
X47532Y3344D01*
X47494Y3344D01*
Y14550D01*
X47500Y14550D01*
X47578Y14556D01*
X47653Y14577D01*
X47725Y14610D01*
X47789Y14655D01*
X47844Y14710D01*
X47889Y14775D01*
X47922Y14846D01*
X47943Y14921D01*
X47950Y15000D01*
X47943Y15078D01*
X47922Y15153D01*
X47889Y15225D01*
X47844Y15289D01*
X47789Y15344D01*
X47725Y15389D01*
X47653Y15422D01*
X47578Y15443D01*
X47500Y15450D01*
X47494Y15449D01*
Y15550D01*
X47500Y15550D01*
X47578Y15556D01*
X47653Y15577D01*
X47725Y15610D01*
X47789Y15655D01*
X47844Y15710D01*
X47889Y15775D01*
X47922Y15846D01*
X47943Y15921D01*
X47950Y16000D01*
X47943Y16078D01*
X47922Y16153D01*
X47889Y16225D01*
X47844Y16289D01*
X47789Y16344D01*
X47725Y16389D01*
X47653Y16422D01*
X47578Y16443D01*
X47500Y16450D01*
X47494Y16449D01*
Y16550D01*
X47500Y16550D01*
X47578Y16556D01*
X47653Y16577D01*
X47725Y16610D01*
X47789Y16655D01*
X47844Y16710D01*
X47889Y16775D01*
X47922Y16846D01*
X47943Y16921D01*
X47950Y17000D01*
X47943Y17078D01*
X47922Y17153D01*
X47889Y17225D01*
X47844Y17289D01*
X47789Y17344D01*
X47725Y17389D01*
X47653Y17422D01*
X47578Y17443D01*
X47500Y17450D01*
X47494Y17449D01*
Y31655D01*
X47546Y31656D01*
X47625Y31664D01*
X47703Y31679D01*
X47778Y31702D01*
X47852Y31732D01*
X47922Y31768D01*
X47936Y31778D01*
X47949Y31790D01*
X47959Y31804D01*
X47966Y31820D01*
X47971Y31837D01*
X47972Y31854D01*
X47971Y31872D01*
X47966Y31889D01*
X47959Y31904D01*
X47949Y31919D01*
X47936Y31931D01*
X47922Y31941D01*
X47906Y31948D01*
X47889Y31953D01*
X47872Y31954D01*
X47855Y31953D01*
X47838Y31948D01*
X47822Y31941D01*
X47768Y31913D01*
X47712Y31891D01*
X47655Y31874D01*
X47595Y31862D01*
X47535Y31856D01*
X47494Y31855D01*
Y33144D01*
X47524Y33144D01*
X47584Y33139D01*
X47644Y33128D01*
X47702Y33112D01*
X47758Y33090D01*
X47812Y33064D01*
X47812Y33064D01*
X47828Y33057D01*
X47845Y33052D01*
X47862Y33051D01*
X47880Y33053D01*
X47897Y33058D01*
X47912Y33065D01*
X47926Y33076D01*
X47938Y33088D01*
X47948Y33103D01*
X47955Y33119D01*
X47959Y33136D01*
X47961Y33153D01*
X47959Y33170D01*
X47954Y33187D01*
X47946Y33203D01*
X47936Y33217D01*
X47924Y33229D01*
X47909Y33239D01*
X47838Y33274D01*
X47764Y33302D01*
X47688Y33323D01*
X47610Y33337D01*
X47532Y33344D01*
X47494Y33344D01*
Y35000D01*
G37*
G36*
X48194D02*X48784D01*
Y9720D01*
X48359D01*
X48333Y9717D01*
X48307Y9711D01*
X48284Y9699D01*
X48262Y9684D01*
X48244Y9666D01*
X48229Y9645D01*
X48218Y9621D01*
X48211Y9596D01*
X48209Y9570D01*
Y8720D01*
X48211Y8694D01*
X48218Y8668D01*
X48229Y8645D01*
X48244Y8623D01*
X48262Y8605D01*
X48284Y8590D01*
X48307Y8579D01*
X48333Y8572D01*
X48359Y8570D01*
X48784D01*
Y0D01*
X48194D01*
Y2049D01*
X48203Y2053D01*
X48217Y2063D01*
X48229Y2075D01*
X48239Y2090D01*
X48274Y2161D01*
X48302Y2235D01*
X48323Y2311D01*
X48337Y2389D01*
X48344Y2467D01*
X48343Y2547D01*
X48335Y2625D01*
X48320Y2703D01*
X48297Y2779D01*
X48268Y2852D01*
X48231Y2922D01*
X48221Y2936D01*
X48209Y2949D01*
X48195Y2959D01*
X48194Y2959D01*
Y18052D01*
X48245Y18075D01*
X48315Y18124D01*
X48375Y18185D01*
X48424Y18255D01*
X48460Y18332D01*
X48482Y18414D01*
X48490Y18500D01*
X48482Y18585D01*
X48460Y18667D01*
X48424Y18745D01*
X48375Y18815D01*
X48315Y18875D01*
X48245Y18924D01*
X48194Y18947D01*
Y24096D01*
X48225Y24110D01*
X48289Y24155D01*
X48344Y24210D01*
X48389Y24275D01*
X48422Y24346D01*
X48443Y24421D01*
X48450Y24500D01*
X48443Y24578D01*
X48422Y24653D01*
X48389Y24725D01*
X48344Y24789D01*
X48289Y24844D01*
X48225Y24889D01*
X48194Y24903D01*
Y25096D01*
X48225Y25110D01*
X48289Y25155D01*
X48344Y25210D01*
X48389Y25275D01*
X48422Y25346D01*
X48443Y25421D01*
X48450Y25500D01*
X48443Y25578D01*
X48422Y25653D01*
X48389Y25725D01*
X48344Y25789D01*
X48289Y25844D01*
X48225Y25889D01*
X48194Y25903D01*
Y32049D01*
X48203Y32053D01*
X48217Y32063D01*
X48229Y32075D01*
X48239Y32090D01*
X48274Y32161D01*
X48302Y32235D01*
X48323Y32311D01*
X48337Y32389D01*
X48344Y32467D01*
X48343Y32547D01*
X48335Y32625D01*
X48320Y32703D01*
X48297Y32779D01*
X48268Y32852D01*
X48231Y32922D01*
X48221Y32936D01*
X48209Y32949D01*
X48195Y32959D01*
X48194Y32959D01*
Y35000D01*
G37*
G36*
X48784D02*X51000D01*
Y0D01*
X48784D01*
Y8570D01*
X49209D01*
X49235Y8572D01*
X49260Y8579D01*
X49284Y8590D01*
X49305Y8605D01*
X49323Y8623D01*
X49338Y8645D01*
X49350Y8668D01*
X49356Y8694D01*
X49359Y8720D01*
Y9570D01*
X49356Y9596D01*
X49350Y9621D01*
X49338Y9645D01*
X49323Y9666D01*
X49305Y9684D01*
X49284Y9699D01*
X49260Y9711D01*
X49235Y9717D01*
X49209Y9720D01*
X48784D01*
Y35000D01*
G37*
G36*
X37550Y7950D02*Y7050D01*
X38450D01*
Y7950D01*
X37550D01*
G37*
G54D18*X38000Y6500D03*
Y5500D03*
G54D19*X28950Y6500D03*
Y2750D03*
G54D14*G36*
X24991Y4361D02*Y3511D01*
X25841D01*
Y4361D01*
X24991D01*
G37*
G36*
X35166Y10544D02*Y9694D01*
X36016D01*
Y10544D01*
X35166D01*
G37*
G54D17*X25416Y11936D03*
G54D21*X22886Y5714D03*
G54D17*X37072Y12652D03*
X40784Y9145D03*
G54D13*X39100Y20300D03*
Y22300D03*
G54D14*G36*
X38933Y29026D02*Y28326D01*
X39633D01*
Y29026D01*
X38933D01*
G37*
G54D22*X43283Y28676D03*
G54D14*G36*
X41555Y32841D02*Y32141D01*
X42255D01*
Y32841D01*
X41555D01*
G37*
G36*
X28647Y32191D02*Y31591D01*
X29247D01*
Y32191D01*
X28647D01*
G37*
G54D15*X28947Y27891D03*
G54D22*X37905Y32491D03*
G54D13*X37500Y28500D03*
Y30500D03*
G54D14*G36*
X34250Y31650D02*Y30750D01*
X35150D01*
Y31650D01*
X34250D01*
G37*
G54D18*X34700Y30200D03*
Y29200D03*
G54D14*G36*
X40940Y20381D02*Y19681D01*
X41640D01*
Y20381D01*
X40940D01*
G37*
G54D22*X41290Y24031D03*
G54D17*X35591Y18119D03*
G54D14*G36*
X28801Y20150D02*Y19550D01*
X29401D01*
Y20150D01*
X28801D01*
G37*
G54D15*X29101Y15850D03*
G54D14*G36*
X34550Y22950D02*Y22050D01*
X35450D01*
Y22950D01*
X34550D01*
G37*
G54D18*X35000Y21500D03*
Y20500D03*
G54D14*G36*
X36899Y24506D02*Y23806D01*
X37599D01*
Y24506D01*
X36899D01*
G37*
G54D22*X37249Y20156D03*
G54D24*X23700Y23500D03*
G54D21*X15600Y33400D03*
X17600D03*
G54D12*X18000Y30000D03*
X15500D03*
G54D21*X13600Y33400D03*
G54D12*X13000Y30000D03*
G54D21*X11600Y33400D03*
G54D12*X10500Y30000D03*
G54D23*X7500Y13500D03*
G54D20*X6500Y5000D03*
X3000Y18500D03*
Y13500D03*
Y8500D03*
G54D24*X4800Y23500D03*
G54D23*X10500Y13500D03*
G54D20*X11000Y5000D03*
G54D21*X13752Y5714D03*
G54D12*X10500Y17000D03*
X13000D03*
X15500D03*
G54D23*X17970Y13500D03*
X20970D03*
G54D12*X18000Y17000D03*
G54D14*G36*
X44200Y17300D02*Y16700D01*
X44800D01*
Y17300D01*
X44200D01*
G37*
G54D15*X47500Y17000D03*
G54D14*G36*
X43660Y18840D02*Y18160D01*
X44340D01*
Y18840D01*
X43660D01*
G37*
G54D16*X48000Y18500D03*
G54D15*X44500Y16000D03*
Y15000D03*
X47500D03*
Y16000D03*
G54D14*G36*
X45700Y24800D02*Y24200D01*
X46300D01*
Y24800D01*
X45700D01*
G37*
G54D15*X46000Y25500D03*
X47000Y24500D03*
Y25500D03*
X48000Y24500D03*
Y25500D03*
G54D14*G36*
X44647Y13077D02*Y12227D01*
X45497D01*
Y13077D01*
X44647D01*
G37*
G36*
X48359Y9570D02*Y8720D01*
X49209D01*
Y9570D01*
X48359D01*
G37*
G54D50*X2500Y32500D03*
X47500D03*
X2500Y2500D03*
X47500D03*
G54D15*G54D29*G54D28*G54D31*G54D28*G54D25*G54D32*G54D11*G54D32*G54D25*G54D15*G54D32*G54D28*G54D11*G54D15*G54D32*G54D23*G54D15*G54D12*G54D30*G54D23*G54D12*G54D30*G54D31*G54D15*G54D12*G54D15*G54D26*G54D27*G54D26*G54D27*G54D28*G54D51*M02*
