G04 start of page 8 for group -3984 idx -3984 *
G04 Title: highvoltage, fab *
G04 Creator: pcb 20091103 *
G04 CreationDate: Wed 03 Feb 2010 09:09:45 PM GMT UTC *
G04 For: srussell *
G04 Format: Gerber/RS-274X *
G04 PCB-Dimensions: 400000 350000 *
G04 PCB-Coordinate-Origin: lower left *
%MOIN*%
%FSLAX25Y25*%
%LNFAB*%
%ADD51C,0.0100*%
%ADD53C,0.0080*%
%ADD54C,0.0060*%
G54D53*X44400Y239600D02*X51600Y232400D01*
X44400D02*X51600Y239600D01*
X46400Y237600D02*X49600D01*
X46400D02*Y234400D01*
X49600D01*
Y237600D02*Y234400D01*
X44800Y239200D02*X51200D01*
X44800D02*Y232800D01*
X51200D01*
Y239200D02*Y232800D01*
X233400Y239600D02*X240600Y232400D01*
X233400D02*X240600Y239600D01*
X235400Y237600D02*X238600D01*
X235400D02*Y234400D01*
X238600D01*
Y237600D02*Y234400D01*
X233800Y239200D02*X240200D01*
X233800D02*Y232800D01*
X240200D01*
Y239200D02*Y232800D01*
X11400Y364850D02*X18600Y357650D01*
X11400D02*X18600Y364850D01*
X13400Y362850D02*X16600D01*
X13400D02*Y359650D01*
X16600D01*
Y362850D02*Y359650D01*
X11800Y364450D02*X18200D01*
X11800D02*Y358050D01*
X18200D01*
Y364450D02*Y358050D01*
G54D54*X135000Y363500D02*Y362750D01*
X136500Y361250D01*
X138000Y362750D01*
Y363500D02*Y362750D01*
X136500Y361250D02*Y357500D01*
X139801Y360500D02*X142051D01*
X139801Y357500D02*X142801D01*
X139801Y363500D02*Y357500D01*
Y363500D02*X142801D01*
X147603D02*X148353Y362750D01*
X145353Y363500D02*X147603D01*
X144603Y362750D02*X145353Y363500D01*
X144603Y362750D02*Y361250D01*
X145353Y360500D01*
X147603D01*
X148353Y359750D01*
Y358250D01*
X147603Y357500D02*X148353Y358250D01*
X145353Y357500D02*X147603D01*
X144603Y358250D02*X145353Y357500D01*
X135000Y354249D02*X150154D01*
X98000Y362750D02*X98750Y363500D01*
X101000D01*
X101750Y362750D01*
Y361250D01*
X98000Y357500D02*X101750Y361250D01*
X98000Y357500D02*X101750D01*
X98000Y354249D02*X103551D01*
X45000Y358250D02*X45750Y357500D01*
X45000Y362750D02*Y358250D01*
Y362750D02*X45750Y363500D01*
X47250D01*
X48000Y362750D01*
Y358250D01*
X47250Y357500D02*X48000Y358250D01*
X45750Y357500D02*X47250D01*
X45000Y359000D02*X48000Y362000D01*
X49801Y357500D02*X50551D01*
X52353Y362750D02*X53103Y363500D01*
X55353D01*
X56103Y362750D01*
Y361250D01*
X52353Y357500D02*X56103Y361250D01*
X52353Y357500D02*X56103D01*
X57904Y358250D02*X58654Y357500D01*
X57904Y362750D02*Y358250D01*
Y362750D02*X58654Y363500D01*
X60154D01*
X60904Y362750D01*
Y358250D01*
X60154Y357500D02*X60904Y358250D01*
X58654Y357500D02*X60154D01*
X57904Y359000D02*X60904Y362000D01*
X62706Y358250D02*X63456Y357500D01*
X62706Y362750D02*Y358250D01*
Y362750D02*X63456Y363500D01*
X64956D01*
X65706Y362750D01*
Y358250D01*
X64956Y357500D02*X65706Y358250D01*
X63456Y357500D02*X64956D01*
X62706Y359000D02*X65706Y362000D01*
X45000Y354249D02*X67507D01*
X365000Y334800D02*Y325200D01*
X360200Y330000D02*X369800D01*
X363400Y331600D02*X366600D01*
X363400D02*Y328400D01*
X366600D01*
Y331600D02*Y328400D01*
X361800Y333200D02*X368200D01*
X361800D02*Y326800D01*
X368200D01*
Y333200D02*Y326800D01*
X25000Y334800D02*Y325200D01*
X20200Y330000D02*X29800D01*
X23400Y331600D02*X26600D01*
X23400D02*Y328400D01*
X26600D01*
Y331600D02*Y328400D01*
X21800Y333200D02*X28200D01*
X21800D02*Y326800D01*
X28200D01*
Y333200D02*Y326800D01*
X25000Y29800D02*Y20200D01*
X20200Y25000D02*X29800D01*
X23400Y26600D02*X26600D01*
X23400D02*Y23400D01*
X26600D01*
Y26600D02*Y23400D01*
X21800Y28200D02*X28200D01*
X21800D02*Y21800D01*
X28200D01*
Y28200D02*Y21800D01*
X365000Y29800D02*Y20200D01*
X360200Y25000D02*X369800D01*
X363400Y26600D02*X366600D01*
X363400D02*Y23400D01*
X366600D01*
Y26600D02*Y23400D01*
X361800Y28200D02*X368200D01*
X361800D02*Y21800D01*
X368200D01*
Y28200D02*Y21800D01*
X15000Y381050D02*Y371450D01*
X10200Y376250D02*X19800D01*
X13400Y377850D02*X16600D01*
X13400D02*Y374650D01*
X16600D01*
Y377850D02*Y374650D01*
X11800Y379450D02*X18200D01*
X11800D02*Y373050D01*
X18200D01*
Y379450D02*Y373050D01*
X135000Y378500D02*Y377750D01*
X136500Y376250D01*
X138000Y377750D01*
Y378500D02*Y377750D01*
X136500Y376250D02*Y372500D01*
X139801Y375500D02*X142051D01*
X139801Y372500D02*X142801D01*
X139801Y378500D02*Y372500D01*
Y378500D02*X142801D01*
X147603D02*X148353Y377750D01*
X145353Y378500D02*X147603D01*
X144603Y377750D02*X145353Y378500D01*
X144603Y377750D02*Y376250D01*
X145353Y375500D01*
X147603D01*
X148353Y374750D01*
Y373250D01*
X147603Y372500D02*X148353Y373250D01*
X145353Y372500D02*X147603D01*
X144603Y373250D02*X145353Y372500D01*
X135000Y369249D02*X150154D01*
X98000Y375500D02*X101000Y378500D01*
X98000Y375500D02*X101750D01*
X101000Y378500D02*Y372500D01*
X98000Y369249D02*X103551D01*
X45000Y373250D02*X45750Y372500D01*
X45000Y377750D02*Y373250D01*
Y377750D02*X45750Y378500D01*
X47250D01*
X48000Y377750D01*
Y373250D01*
X47250Y372500D02*X48000Y373250D01*
X45750Y372500D02*X47250D01*
X45000Y374000D02*X48000Y377000D01*
X49801Y372500D02*X50551D01*
X53103D02*X54603D01*
X53853Y378500D02*Y372500D01*
X52353Y377000D02*X53853Y378500D01*
X56404Y377750D02*X57154Y378500D01*
X59404D01*
X60154Y377750D01*
Y376250D01*
X56404Y372500D02*X60154Y376250D01*
X56404Y372500D02*X60154D01*
X61956Y378500D02*X64956D01*
X61956D02*Y375500D01*
X62706Y376250D01*
X64206D01*
X64956Y375500D01*
Y373250D01*
X64206Y372500D02*X64956Y373250D01*
X62706Y372500D02*X64206D01*
X61956Y373250D02*X62706Y372500D01*
X45000Y369249D02*X66757D01*
X75000Y135000D02*Y130200D01*
Y135000D02*X79160Y137400D01*
X75000Y135000D02*X70840Y137400D01*
X73400Y135000D02*G75*G03X76600Y135000I1600J0D01*G01*
G75*G03X73400Y135000I-1600J0D01*G01*
X71800D02*G75*G03X78200Y135000I3200J0D01*G01*
G75*G03X71800Y135000I-3200J0D01*G01*
X105000D02*Y130200D01*
Y135000D02*X109160Y137400D01*
X105000Y135000D02*X100840Y137400D01*
X103400Y135000D02*G75*G03X106600Y135000I1600J0D01*G01*
G75*G03X103400Y135000I-1600J0D01*G01*
X101800D02*G75*G03X108200Y135000I3200J0D01*G01*
G75*G03X101800Y135000I-3200J0D01*G01*
X179700D02*Y130200D01*
Y135000D02*X183860Y137400D01*
X179700Y135000D02*X175540Y137400D01*
X178100Y135000D02*G75*G03X181300Y135000I1600J0D01*G01*
G75*G03X178100Y135000I-1600J0D01*G01*
X176500D02*G75*G03X182900Y135000I3200J0D01*G01*
G75*G03X176500Y135000I-3200J0D01*G01*
X209700D02*Y130200D01*
Y135000D02*X213860Y137400D01*
X209700Y135000D02*X205540Y137400D01*
X208100Y135000D02*G75*G03X211300Y135000I1600J0D01*G01*
G75*G03X208100Y135000I-1600J0D01*G01*
X206500D02*G75*G03X212900Y135000I3200J0D01*G01*
G75*G03X206500Y135000I-3200J0D01*G01*
X15000Y391250D02*Y386450D01*
Y391250D02*X19160Y393650D01*
X15000Y391250D02*X10840Y393650D01*
X13400Y391250D02*G75*G03X16600Y391250I1600J0D01*G01*
G75*G03X13400Y391250I-1600J0D01*G01*
X11800D02*G75*G03X18200Y391250I3200J0D01*G01*
G75*G03X11800Y391250I-3200J0D01*G01*
X135000Y393500D02*Y392750D01*
X136500Y391250D01*
X138000Y392750D01*
Y393500D02*Y392750D01*
X136500Y391250D02*Y387500D01*
X139801Y390500D02*X142051D01*
X139801Y387500D02*X142801D01*
X139801Y393500D02*Y387500D01*
Y393500D02*X142801D01*
X147603D02*X148353Y392750D01*
X145353Y393500D02*X147603D01*
X144603Y392750D02*X145353Y393500D01*
X144603Y392750D02*Y391250D01*
X145353Y390500D01*
X147603D01*
X148353Y389750D01*
Y388250D01*
X147603Y387500D02*X148353Y388250D01*
X145353Y387500D02*X147603D01*
X144603Y388250D02*X145353Y387500D01*
X135000Y384249D02*X150154D01*
X98000Y390500D02*X101000Y393500D01*
X98000Y390500D02*X101750D01*
X101000Y393500D02*Y387500D01*
X98000Y384249D02*X103551D01*
X45000Y388250D02*X45750Y387500D01*
X45000Y392750D02*Y388250D01*
Y392750D02*X45750Y393500D01*
X47250D01*
X48000Y392750D01*
Y388250D01*
X47250Y387500D02*X48000Y388250D01*
X45750Y387500D02*X47250D01*
X45000Y389000D02*X48000Y392000D01*
X49801Y387500D02*X50551D01*
X53103D02*X54603D01*
X53853Y393500D02*Y387500D01*
X52353Y392000D02*X53853Y393500D01*
X56404Y388250D02*X57154Y387500D01*
X56404Y392750D02*Y388250D01*
Y392750D02*X57154Y393500D01*
X58654D01*
X59404Y392750D01*
Y388250D01*
X58654Y387500D02*X59404Y388250D01*
X57154Y387500D02*X58654D01*
X56404Y389000D02*X59404Y392000D01*
X61206Y388250D02*X61956Y387500D01*
X61206Y392750D02*Y388250D01*
Y392750D02*X61956Y393500D01*
X63456D01*
X64206Y392750D01*
Y388250D01*
X63456Y387500D02*X64206Y388250D01*
X61956Y387500D02*X63456D01*
X61206Y389000D02*X64206Y392000D01*
X45000Y384249D02*X66007D01*
X154400Y335600D02*X157600D01*
X154400D02*Y332400D01*
X157600D01*
Y335600D02*Y332400D01*
X152800Y337200D02*X159200D01*
X152800D02*Y330800D01*
X159200D01*
Y337200D02*Y330800D01*
X134400Y335600D02*X137600D01*
X134400D02*Y332400D01*
X137600D01*
Y335600D02*Y332400D01*
X132800Y337200D02*X139200D01*
X132800D02*Y330800D01*
X139200D01*
Y337200D02*Y330800D01*
X114400Y335600D02*X117600D01*
X114400D02*Y332400D01*
X117600D01*
Y335600D02*Y332400D01*
X112800Y337200D02*X119200D01*
X112800D02*Y330800D01*
X119200D01*
Y337200D02*Y330800D01*
X174400Y335600D02*X177600D01*
X174400D02*Y332400D01*
X177600D01*
Y335600D02*Y332400D01*
X172800Y337200D02*X179200D01*
X172800D02*Y330800D01*
X179200D01*
Y337200D02*Y330800D01*
X103400Y172600D02*X106600D01*
X103400D02*Y169400D01*
X106600D01*
Y172600D02*Y169400D01*
X101800Y174200D02*X108200D01*
X101800D02*Y167800D01*
X108200D01*
Y174200D02*Y167800D01*
X128400Y172600D02*X131600D01*
X128400D02*Y169400D01*
X131600D01*
Y172600D02*Y169400D01*
X126800Y174200D02*X133200D01*
X126800D02*Y167800D01*
X133200D01*
Y174200D02*Y167800D01*
X153400Y172600D02*X156600D01*
X153400D02*Y169400D01*
X156600D01*
Y172600D02*Y169400D01*
X151800Y174200D02*X158200D01*
X151800D02*Y167800D01*
X158200D01*
Y174200D02*Y167800D01*
X178400Y172600D02*X181600D01*
X178400D02*Y169400D01*
X181600D01*
Y172600D02*Y169400D01*
X176800Y174200D02*X183200D01*
X176800D02*Y167800D01*
X183200D01*
Y174200D02*Y167800D01*
X178400Y302600D02*X181600D01*
X178400D02*Y299400D01*
X181600D01*
Y302600D02*Y299400D01*
X176800Y304200D02*X183200D01*
X176800D02*Y297800D01*
X183200D01*
Y304200D02*Y297800D01*
X153400Y302600D02*X156600D01*
X153400D02*Y299400D01*
X156600D01*
Y302600D02*Y299400D01*
X151800Y304200D02*X158200D01*
X151800D02*Y297800D01*
X158200D01*
Y304200D02*Y297800D01*
X128400Y302600D02*X131600D01*
X128400D02*Y299400D01*
X131600D01*
Y302600D02*Y299400D01*
X126800Y304200D02*X133200D01*
X126800D02*Y297800D01*
X133200D01*
Y304200D02*Y297800D01*
X103400Y302600D02*X106600D01*
X103400D02*Y299400D01*
X106600D01*
Y302600D02*Y299400D01*
X101800Y304200D02*X108200D01*
X101800D02*Y297800D01*
X108200D01*
Y304200D02*Y297800D01*
X13400Y407850D02*X16600D01*
X13400D02*Y404650D01*
X16600D01*
Y407850D02*Y404650D01*
X11800Y409450D02*X18200D01*
X11800D02*Y403050D01*
X18200D01*
Y409450D02*Y403050D01*
X135000Y408500D02*Y407750D01*
X136500Y406250D01*
X138000Y407750D01*
Y408500D02*Y407750D01*
X136500Y406250D02*Y402500D01*
X139801Y405500D02*X142051D01*
X139801Y402500D02*X142801D01*
X139801Y408500D02*Y402500D01*
Y408500D02*X142801D01*
X147603D02*X148353Y407750D01*
X145353Y408500D02*X147603D01*
X144603Y407750D02*X145353Y408500D01*
X144603Y407750D02*Y406250D01*
X145353Y405500D01*
X147603D01*
X148353Y404750D01*
Y403250D01*
X147603Y402500D02*X148353Y403250D01*
X145353Y402500D02*X147603D01*
X144603Y403250D02*X145353Y402500D01*
X135000Y399249D02*X150154D01*
X98750Y402500D02*X100250D01*
X99500Y408500D02*Y402500D01*
X98000Y407000D02*X99500Y408500D01*
X102051Y407750D02*X102801Y408500D01*
X105051D01*
X105801Y407750D01*
Y406250D01*
X102051Y402500D02*X105801Y406250D01*
X102051Y402500D02*X105801D01*
X98000Y399249D02*X107603D01*
X45000Y403250D02*X45750Y402500D01*
X45000Y407750D02*Y403250D01*
Y407750D02*X45750Y408500D01*
X47250D01*
X48000Y407750D01*
Y403250D01*
X47250Y402500D02*X48000Y403250D01*
X45750Y402500D02*X47250D01*
X45000Y404000D02*X48000Y407000D01*
X49801Y402500D02*X50551D01*
X52353Y403250D02*X53103Y402500D01*
X52353Y407750D02*Y403250D01*
Y407750D02*X53103Y408500D01*
X54603D01*
X55353Y407750D01*
Y403250D01*
X54603Y402500D02*X55353Y403250D01*
X53103Y402500D02*X54603D01*
X52353Y404000D02*X55353Y407000D01*
X59404Y408500D02*X60154Y407750D01*
X57904Y408500D02*X59404D01*
X57154Y407750D02*X57904Y408500D01*
X57154Y407750D02*Y403250D01*
X57904Y402500D01*
X59404Y405500D02*X60154Y404750D01*
X57154Y405500D02*X59404D01*
X57904Y402500D02*X59404D01*
X60154Y403250D01*
Y404750D02*Y403250D01*
X61956D02*X62706Y402500D01*
X61956Y407750D02*Y403250D01*
Y407750D02*X62706Y408500D01*
X64206D01*
X64956Y407750D01*
Y403250D01*
X64206Y402500D02*X64956Y403250D01*
X62706Y402500D02*X64206D01*
X61956Y404000D02*X64956Y407000D01*
X45000Y399249D02*X66757D01*
X109200Y50000D02*G75*G03X110800Y50000I800J0D01*G01*
G75*G03X109200Y50000I-800J0D01*G01*
X107600D02*G75*G03X112400Y50000I2400J0D01*G01*
G75*G03X107600Y50000I-2400J0D01*G01*
X29200Y85000D02*G75*G03X30800Y85000I800J0D01*G01*
G75*G03X29200Y85000I-800J0D01*G01*
X27600D02*G75*G03X32400Y85000I2400J0D01*G01*
G75*G03X27600Y85000I-2400J0D01*G01*
X29200Y135000D02*G75*G03X30800Y135000I800J0D01*G01*
G75*G03X29200Y135000I-800J0D01*G01*
X27600D02*G75*G03X32400Y135000I2400J0D01*G01*
G75*G03X27600Y135000I-2400J0D01*G01*
X29200Y185000D02*G75*G03X30800Y185000I800J0D01*G01*
G75*G03X29200Y185000I-800J0D01*G01*
X27600D02*G75*G03X32400Y185000I2400J0D01*G01*
G75*G03X27600Y185000I-2400J0D01*G01*
X64200Y50000D02*G75*G03X65800Y50000I800J0D01*G01*
G75*G03X64200Y50000I-800J0D01*G01*
X62600D02*G75*G03X67400Y50000I2400J0D01*G01*
G75*G03X62600Y50000I-2400J0D01*G01*
X14200Y421250D02*G75*G03X15800Y421250I800J0D01*G01*
G75*G03X14200Y421250I-800J0D01*G01*
X12600D02*G75*G03X17400Y421250I2400J0D01*G01*
G75*G03X12600Y421250I-2400J0D01*G01*
X135000Y423500D02*Y422750D01*
X136500Y421250D01*
X138000Y422750D01*
Y423500D02*Y422750D01*
X136500Y421250D02*Y417500D01*
X139801Y420500D02*X142051D01*
X139801Y417500D02*X142801D01*
X139801Y423500D02*Y417500D01*
Y423500D02*X142801D01*
X147603D02*X148353Y422750D01*
X145353Y423500D02*X147603D01*
X144603Y422750D02*X145353Y423500D01*
X144603Y422750D02*Y421250D01*
X145353Y420500D01*
X147603D01*
X148353Y419750D01*
Y418250D01*
X147603Y417500D02*X148353Y418250D01*
X145353Y417500D02*X147603D01*
X144603Y418250D02*X145353Y417500D01*
X135000Y414249D02*X150154D01*
X98000Y423500D02*X101000D01*
X98000D02*Y420500D01*
X98750Y421250D01*
X100250D01*
X101000Y420500D01*
Y418250D01*
X100250Y417500D02*X101000Y418250D01*
X98750Y417500D02*X100250D01*
X98000Y418250D02*X98750Y417500D01*
X98000Y414249D02*X102801D01*
X45000Y418250D02*X45750Y417500D01*
X45000Y422750D02*Y418250D01*
Y422750D02*X45750Y423500D01*
X47250D01*
X48000Y422750D01*
Y418250D01*
X47250Y417500D02*X48000Y418250D01*
X45750Y417500D02*X47250D01*
X45000Y419000D02*X48000Y422000D01*
X49801Y417500D02*X50551D01*
X52353Y418250D02*X53103Y417500D01*
X52353Y422750D02*Y418250D01*
Y422750D02*X53103Y423500D01*
X54603D01*
X55353Y422750D01*
Y418250D01*
X54603Y417500D02*X55353Y418250D01*
X53103Y417500D02*X54603D01*
X52353Y419000D02*X55353Y422000D01*
X57154Y423500D02*X60154D01*
X57154D02*Y420500D01*
X57904Y421250D01*
X59404D01*
X60154Y420500D01*
Y418250D01*
X59404Y417500D02*X60154Y418250D01*
X57904Y417500D02*X59404D01*
X57154Y418250D02*X57904Y417500D01*
X62706D02*X64206D01*
X63456Y423500D02*Y417500D01*
X61956Y422000D02*X63456Y423500D01*
X45000Y414249D02*X66007D01*
X291583Y183899D02*X296383Y179099D01*
X291583D02*X296383Y183899D01*
X292383Y183099D02*X295583D01*
X292383D02*Y179899D01*
X295583D01*
Y183099D02*Y179899D01*
X291583Y223899D02*X296383Y219099D01*
X291583D02*X296383Y223899D01*
X292383Y223099D02*X295583D01*
X292383D02*Y219899D01*
X295583D01*
Y223099D02*Y219899D01*
X292074Y321316D02*X296874Y316516D01*
X292074D02*X296874Y321316D01*
X292874Y320516D02*X296074D01*
X292874D02*Y317316D01*
X296074D01*
Y320516D02*Y317316D01*
X292074Y281316D02*X296874Y276516D01*
X292074D02*X296874Y281316D01*
X292874Y280516D02*X296074D01*
X292874D02*Y277316D01*
X296074D01*
Y280516D02*Y277316D01*
X12600Y438650D02*X17400Y433850D01*
X12600D02*X17400Y438650D01*
X13400Y437850D02*X16600D01*
X13400D02*Y434650D01*
X16600D01*
Y437850D02*Y434650D01*
X135000Y438500D02*Y437750D01*
X136500Y436250D01*
X138000Y437750D01*
Y438500D02*Y437750D01*
X136500Y436250D02*Y432500D01*
X139801Y435500D02*X142051D01*
X139801Y432500D02*X142801D01*
X139801Y438500D02*Y432500D01*
Y438500D02*X142801D01*
X147603D02*X148353Y437750D01*
X145353Y438500D02*X147603D01*
X144603Y437750D02*X145353Y438500D01*
X144603Y437750D02*Y436250D01*
X145353Y435500D01*
X147603D01*
X148353Y434750D01*
Y433250D01*
X147603Y432500D02*X148353Y433250D01*
X145353Y432500D02*X147603D01*
X144603Y433250D02*X145353Y432500D01*
X135000Y429249D02*X150154D01*
X98000Y435500D02*X101000Y438500D01*
X98000Y435500D02*X101750D01*
X101000Y438500D02*Y432500D01*
X98000Y429249D02*X103551D01*
X45000Y433250D02*X45750Y432500D01*
X45000Y437750D02*Y433250D01*
Y437750D02*X45750Y438500D01*
X47250D01*
X48000Y437750D01*
Y433250D01*
X47250Y432500D02*X48000Y433250D01*
X45750Y432500D02*X47250D01*
X45000Y434000D02*X48000Y437000D01*
X49801Y432500D02*X50551D01*
X52353Y433250D02*X53103Y432500D01*
X52353Y437750D02*Y433250D01*
Y437750D02*X53103Y438500D01*
X54603D01*
X55353Y437750D01*
Y433250D01*
X54603Y432500D02*X55353Y433250D01*
X53103Y432500D02*X54603D01*
X52353Y434000D02*X55353Y437000D01*
X57154Y438500D02*X60154D01*
X57154D02*Y435500D01*
X57904Y436250D01*
X59404D01*
X60154Y435500D01*
Y433250D01*
X59404Y432500D02*X60154Y433250D01*
X57904Y432500D02*X59404D01*
X57154Y433250D02*X57904Y432500D01*
X61956Y433250D02*X62706Y432500D01*
X61956Y437750D02*Y433250D01*
Y437750D02*X62706Y438500D01*
X64206D01*
X64956Y437750D01*
Y433250D01*
X64206Y432500D02*X64956Y433250D01*
X62706Y432500D02*X64206D01*
X61956Y434000D02*X64956Y437000D01*
X45000Y429249D02*X66757D01*
X320720Y144720D02*Y138320D01*
X317520Y141520D02*X323920D01*
X319120Y143120D02*X322320D01*
X319120D02*Y139920D01*
X322320D01*
Y143120D02*Y139920D01*
X240720Y144720D02*Y138320D01*
X237520Y141520D02*X243920D01*
X239120Y143120D02*X242320D01*
X239120D02*Y139920D01*
X242320D01*
Y143120D02*Y139920D01*
X254160Y42560D02*Y36160D01*
X250960Y39360D02*X257360D01*
X252560Y40960D02*X255760D01*
X252560D02*Y37760D01*
X255760D01*
Y40960D02*Y37760D01*
X254160Y122560D02*Y116160D01*
X250960Y119360D02*X257360D01*
X252560Y120960D02*X255760D01*
X252560D02*Y117760D01*
X255760D01*
Y120960D02*Y117760D01*
X50910Y94390D02*Y87990D01*
X47710Y91190D02*X54110D01*
X49310Y92790D02*X52510D01*
X49310D02*Y89590D01*
X52510D01*
Y92790D02*Y89590D01*
X130910Y94390D02*Y87990D01*
X127710Y91190D02*X134110D01*
X129310Y92790D02*X132510D01*
X129310D02*Y89590D01*
X132510D01*
Y92790D02*Y89590D01*
X357840Y114650D02*Y108250D01*
X354640Y111450D02*X361040D01*
X356240Y113050D02*X359440D01*
X356240D02*Y109850D01*
X359440D01*
Y113050D02*Y109850D01*
X277840Y114650D02*Y108250D01*
X274640Y111450D02*X281040D01*
X276240Y113050D02*X279440D01*
X276240D02*Y109850D01*
X279440D01*
Y113050D02*Y109850D01*
X15000Y454450D02*Y448050D01*
X11800Y451250D02*X18200D01*
X13400Y452850D02*X16600D01*
X13400D02*Y449650D01*
X16600D01*
Y452850D02*Y449650D01*
X135000Y453500D02*Y452750D01*
X136500Y451250D01*
X138000Y452750D01*
Y453500D02*Y452750D01*
X136500Y451250D02*Y447500D01*
X139801Y450500D02*X142051D01*
X139801Y447500D02*X142801D01*
X139801Y453500D02*Y447500D01*
Y453500D02*X142801D01*
X147603D02*X148353Y452750D01*
X145353Y453500D02*X147603D01*
X144603Y452750D02*X145353Y453500D01*
X144603Y452750D02*Y451250D01*
X145353Y450500D01*
X147603D01*
X148353Y449750D01*
Y448250D01*
X147603Y447500D02*X148353Y448250D01*
X145353Y447500D02*X147603D01*
X144603Y448250D02*X145353Y447500D01*
X135000Y444249D02*X150154D01*
X98000Y448250D02*X98750Y447500D01*
X98000Y449750D02*Y448250D01*
Y449750D02*X98750Y450500D01*
X100250D01*
X101000Y449750D01*
Y448250D01*
X100250Y447500D02*X101000Y448250D01*
X98750Y447500D02*X100250D01*
X98000Y451250D02*X98750Y450500D01*
X98000Y452750D02*Y451250D01*
Y452750D02*X98750Y453500D01*
X100250D01*
X101000Y452750D01*
Y451250D01*
X100250Y450500D02*X101000Y451250D01*
X98000Y444249D02*X102801D01*
X45000Y448250D02*X45750Y447500D01*
X45000Y452750D02*Y448250D01*
Y452750D02*X45750Y453500D01*
X47250D01*
X48000Y452750D01*
Y448250D01*
X47250Y447500D02*X48000Y448250D01*
X45750Y447500D02*X47250D01*
X45000Y449000D02*X48000Y452000D01*
X49801Y447500D02*X50551D01*
X52353Y448250D02*X53103Y447500D01*
X52353Y452750D02*Y448250D01*
Y452750D02*X53103Y453500D01*
X54603D01*
X55353Y452750D01*
Y448250D01*
X54603Y447500D02*X55353Y448250D01*
X53103Y447500D02*X54603D01*
X52353Y449000D02*X55353Y452000D01*
X57154Y450500D02*X60154Y453500D01*
X57154Y450500D02*X60904D01*
X60154Y453500D02*Y447500D01*
X62706Y448250D02*X63456Y447500D01*
X62706Y449750D02*Y448250D01*
Y449750D02*X63456Y450500D01*
X64956D01*
X65706Y449750D01*
Y448250D01*
X64956Y447500D02*X65706Y448250D01*
X63456Y447500D02*X64956D01*
X62706Y451250D02*X63456Y450500D01*
X62706Y452750D02*Y451250D01*
Y452750D02*X63456Y453500D01*
X64956D01*
X65706Y452750D01*
Y451250D01*
X64956Y450500D02*X65706Y451250D01*
X45000Y444249D02*X67507D01*
X135000Y60000D02*Y56800D01*
Y60000D02*X137773Y61600D01*
X135000Y60000D02*X132227Y61600D01*
X133400Y60000D02*G75*G03X136600Y60000I1600J0D01*G01*
G75*G03X133400Y60000I-1600J0D01*G01*
X226340D02*Y56800D01*
Y60000D02*X229113Y61600D01*
X226340Y60000D02*X223567Y61600D01*
X224740Y60000D02*G75*G03X227940Y60000I1600J0D01*G01*
G75*G03X224740Y60000I-1600J0D01*G01*
X15000Y466250D02*Y463050D01*
Y466250D02*X17773Y467850D01*
X15000Y466250D02*X12227Y467850D01*
X13400Y466250D02*G75*G03X16600Y466250I1600J0D01*G01*
G75*G03X13400Y466250I-1600J0D01*G01*
X135000Y468500D02*Y467750D01*
X136500Y466250D01*
X138000Y467750D01*
Y468500D02*Y467750D01*
X136500Y466250D02*Y462500D01*
X139801Y465500D02*X142051D01*
X139801Y462500D02*X142801D01*
X139801Y468500D02*Y462500D01*
Y468500D02*X142801D01*
X147603D02*X148353Y467750D01*
X145353Y468500D02*X147603D01*
X144603Y467750D02*X145353Y468500D01*
X144603Y467750D02*Y466250D01*
X145353Y465500D01*
X147603D01*
X148353Y464750D01*
Y463250D01*
X147603Y462500D02*X148353Y463250D01*
X145353Y462500D02*X147603D01*
X144603Y463250D02*X145353Y462500D01*
X135000Y459249D02*X150154D01*
X98000Y467750D02*X98750Y468500D01*
X101000D01*
X101750Y467750D01*
Y466250D01*
X98000Y462500D02*X101750Y466250D01*
X98000Y462500D02*X101750D01*
X98000Y459249D02*X103551D01*
X45000Y463250D02*X45750Y462500D01*
X45000Y467750D02*Y463250D01*
Y467750D02*X45750Y468500D01*
X47250D01*
X48000Y467750D01*
Y463250D01*
X47250Y462500D02*X48000Y463250D01*
X45750Y462500D02*X47250D01*
X45000Y464000D02*X48000Y467000D01*
X49801Y462500D02*X50551D01*
X52353Y463250D02*X53103Y462500D01*
X52353Y467750D02*Y463250D01*
Y467750D02*X53103Y468500D01*
X54603D01*
X55353Y467750D01*
Y463250D01*
X54603Y462500D02*X55353Y463250D01*
X53103Y462500D02*X54603D01*
X52353Y464000D02*X55353Y467000D01*
X57154Y465500D02*X60154Y468500D01*
X57154Y465500D02*X60904D01*
X60154Y468500D02*Y462500D01*
X62706D02*X66456Y466250D01*
Y468500D02*Y466250D01*
X62706Y468500D02*X66456D01*
X45000Y459249D02*X68257D01*
X303400Y61600D02*X306600D01*
X303400D02*Y58400D01*
X306600D01*
Y61600D02*Y58400D01*
X303400Y71600D02*X306600D01*
X303400D02*Y68400D01*
X306600D01*
Y71600D02*Y68400D01*
X303400Y81600D02*X306600D01*
X303400D02*Y78400D01*
X306600D01*
Y81600D02*Y78400D01*
X378400Y236600D02*X381600D01*
X378400D02*Y233400D01*
X381600D01*
Y236600D02*Y233400D01*
X338400Y236600D02*X341600D01*
X338400D02*Y233400D01*
X341600D01*
Y236600D02*Y233400D01*
X338400Y191600D02*X341600D01*
X338400D02*Y188400D01*
X341600D01*
Y191600D02*Y188400D01*
X378400Y191600D02*X381600D01*
X378400D02*Y188400D01*
X381600D01*
Y191600D02*Y188400D01*
X378400Y266600D02*X381600D01*
X378400D02*Y263400D01*
X381600D01*
Y266600D02*Y263400D01*
X338400Y266600D02*X341600D01*
X338400D02*Y263400D01*
X341600D01*
Y266600D02*Y263400D01*
X338400Y311600D02*X341600D01*
X338400D02*Y308400D01*
X341600D01*
Y311600D02*Y308400D01*
X378400Y311600D02*X381600D01*
X378400D02*Y308400D01*
X381600D01*
Y311600D02*Y308400D01*
X358400Y286600D02*X361600D01*
X358400D02*Y283400D01*
X361600D01*
Y286600D02*Y283400D01*
X368400Y286600D02*X371600D01*
X368400D02*Y283400D01*
X371600D01*
Y286600D02*Y283400D01*
X378400Y286600D02*X381600D01*
X378400D02*Y283400D01*
X381600D01*
Y286600D02*Y283400D01*
X358400Y211600D02*X361600D01*
X358400D02*Y208400D01*
X361600D01*
Y211600D02*Y208400D01*
X368400Y211600D02*X371600D01*
X368400D02*Y208400D01*
X371600D01*
Y211600D02*Y208400D01*
X378400Y211600D02*X381600D01*
X378400D02*Y208400D01*
X381600D01*
Y211600D02*Y208400D01*
X13400Y482850D02*X16600D01*
X13400D02*Y479650D01*
X16600D01*
Y482850D02*Y479650D01*
X135000Y483500D02*Y482750D01*
X136500Y481250D01*
X138000Y482750D01*
Y483500D02*Y482750D01*
X136500Y481250D02*Y477500D01*
X139801Y480500D02*X142051D01*
X139801Y477500D02*X142801D01*
X139801Y483500D02*Y477500D01*
Y483500D02*X142801D01*
X147603D02*X148353Y482750D01*
X145353Y483500D02*X147603D01*
X144603Y482750D02*X145353Y483500D01*
X144603Y482750D02*Y481250D01*
X145353Y480500D01*
X147603D01*
X148353Y479750D01*
Y478250D01*
X147603Y477500D02*X148353Y478250D01*
X145353Y477500D02*X147603D01*
X144603Y478250D02*X145353Y477500D01*
X135000Y474249D02*X150154D01*
X98750Y477500D02*X100250D01*
X99500Y483500D02*Y477500D01*
X98000Y482000D02*X99500Y483500D01*
X102051Y477500D02*X105801Y481250D01*
Y483500D02*Y481250D01*
X102051Y483500D02*X105801D01*
X98000Y474249D02*X107603D01*
X45000Y478250D02*X45750Y477500D01*
X45000Y482750D02*Y478250D01*
Y482750D02*X45750Y483500D01*
X47250D01*
X48000Y482750D01*
Y478250D01*
X47250Y477500D02*X48000Y478250D01*
X45750Y477500D02*X47250D01*
X45000Y479000D02*X48000Y482000D01*
X49801Y477500D02*X50551D01*
X52353Y478250D02*X53103Y477500D01*
X52353Y482750D02*Y478250D01*
Y482750D02*X53103Y483500D01*
X54603D01*
X55353Y482750D01*
Y478250D01*
X54603Y477500D02*X55353Y478250D01*
X53103Y477500D02*X54603D01*
X52353Y479000D02*X55353Y482000D01*
X57154Y480500D02*X60154Y483500D01*
X57154Y480500D02*X60904D01*
X60154Y483500D02*Y477500D01*
X62706Y478250D02*X63456Y477500D01*
X62706Y482750D02*Y478250D01*
Y482750D02*X63456Y483500D01*
X64956D01*
X65706Y482750D01*
Y478250D01*
X64956Y477500D02*X65706Y478250D01*
X63456Y477500D02*X64956D01*
X62706Y479000D02*X65706Y482000D01*
X45000Y474249D02*X67507D01*
X354200Y130000D02*G75*G03X355800Y130000I800J0D01*G01*
G75*G03X354200Y130000I-800J0D01*G01*
Y140000D02*G75*G03X355800Y140000I800J0D01*G01*
G75*G03X354200Y140000I-800J0D01*G01*
X364200Y130000D02*G75*G03X365800Y130000I800J0D01*G01*
G75*G03X364200Y130000I-800J0D01*G01*
Y140000D02*G75*G03X365800Y140000I800J0D01*G01*
G75*G03X364200Y140000I-800J0D01*G01*
X374200Y130000D02*G75*G03X375800Y130000I800J0D01*G01*
G75*G03X374200Y130000I-800J0D01*G01*
Y140000D02*G75*G03X375800Y140000I800J0D01*G01*
G75*G03X374200Y140000I-800J0D01*G01*
Y80000D02*G75*G03X375800Y80000I800J0D01*G01*
G75*G03X374200Y80000I-800J0D01*G01*
Y120000D02*G75*G03X375800Y120000I800J0D01*G01*
G75*G03X374200Y120000I-800J0D01*G01*
X14200Y496250D02*G75*G03X15800Y496250I800J0D01*G01*
G75*G03X14200Y496250I-800J0D01*G01*
X135000Y498500D02*Y497750D01*
X136500Y496250D01*
X138000Y497750D01*
Y498500D02*Y497750D01*
X136500Y496250D02*Y492500D01*
X139801Y495500D02*X142051D01*
X139801Y492500D02*X142801D01*
X139801Y498500D02*Y492500D01*
Y498500D02*X142801D01*
X147603D02*X148353Y497750D01*
X145353Y498500D02*X147603D01*
X144603Y497750D02*X145353Y498500D01*
X144603Y497750D02*Y496250D01*
X145353Y495500D01*
X147603D01*
X148353Y494750D01*
Y493250D01*
X147603Y492500D02*X148353Y493250D01*
X145353Y492500D02*X147603D01*
X144603Y493250D02*X145353Y492500D01*
X135000Y489249D02*X150154D01*
X98000Y493250D02*X98750Y492500D01*
X98000Y494750D02*Y493250D01*
Y494750D02*X98750Y495500D01*
X100250D01*
X101000Y494750D01*
Y493250D01*
X100250Y492500D02*X101000Y493250D01*
X98750Y492500D02*X100250D01*
X98000Y496250D02*X98750Y495500D01*
X98000Y497750D02*Y496250D01*
Y497750D02*X98750Y498500D01*
X100250D01*
X101000Y497750D01*
Y496250D01*
X100250Y495500D02*X101000Y496250D01*
X98000Y489249D02*X102801D01*
X45000Y493250D02*X45750Y492500D01*
X45000Y497750D02*Y493250D01*
Y497750D02*X45750Y498500D01*
X47250D01*
X48000Y497750D01*
Y493250D01*
X47250Y492500D02*X48000Y493250D01*
X45750Y492500D02*X47250D01*
X45000Y494000D02*X48000Y497000D01*
X49801Y492500D02*X50551D01*
X52353Y493250D02*X53103Y492500D01*
X52353Y497750D02*Y493250D01*
Y497750D02*X53103Y498500D01*
X54603D01*
X55353Y497750D01*
Y493250D01*
X54603Y492500D02*X55353Y493250D01*
X53103Y492500D02*X54603D01*
X52353Y494000D02*X55353Y497000D01*
X57154Y497750D02*X57904Y498500D01*
X59404D01*
X60154Y497750D01*
Y493250D01*
X59404Y492500D02*X60154Y493250D01*
X57904Y492500D02*X59404D01*
X57154Y493250D02*X57904Y492500D01*
Y495500D02*X60154D01*
X61956Y493250D02*X62706Y492500D01*
X61956Y494750D02*Y493250D01*
Y494750D02*X62706Y495500D01*
X64206D01*
X64956Y494750D01*
Y493250D01*
X64206Y492500D02*X64956Y493250D01*
X62706Y492500D02*X64206D01*
X61956Y496250D02*X62706Y495500D01*
X61956Y497750D02*Y496250D01*
Y497750D02*X62706Y498500D01*
X64206D01*
X64956Y497750D01*
Y496250D01*
X64206Y495500D02*X64956Y496250D01*
X45000Y489249D02*X66757D01*
X378800Y176200D02*X381200Y173800D01*
X378800D02*X381200Y176200D01*
X358800D02*X361200Y173800D01*
X358800D02*X361200Y176200D01*
X358800Y251200D02*X361200Y248800D01*
X358800D02*X361200Y251200D01*
X378800D02*X381200Y248800D01*
X378800D02*X381200Y251200D01*
X13800Y512450D02*X16200Y510050D01*
X13800D02*X16200Y512450D01*
X135000Y513500D02*Y512750D01*
X136500Y511250D01*
X138000Y512750D01*
Y513500D02*Y512750D01*
X136500Y511250D02*Y507500D01*
X139801Y510500D02*X142051D01*
X139801Y507500D02*X142801D01*
X139801Y513500D02*Y507500D01*
Y513500D02*X142801D01*
X147603D02*X148353Y512750D01*
X145353Y513500D02*X147603D01*
X144603Y512750D02*X145353Y513500D01*
X144603Y512750D02*Y511250D01*
X145353Y510500D01*
X147603D01*
X148353Y509750D01*
Y508250D01*
X147603Y507500D02*X148353Y508250D01*
X145353Y507500D02*X147603D01*
X144603Y508250D02*X145353Y507500D01*
X135000Y504249D02*X150154D01*
X98000Y510500D02*X101000Y513500D01*
X98000Y510500D02*X101750D01*
X101000Y513500D02*Y507500D01*
X98000Y504249D02*X103551D01*
X45000Y508250D02*X45750Y507500D01*
X45000Y512750D02*Y508250D01*
Y512750D02*X45750Y513500D01*
X47250D01*
X48000Y512750D01*
Y508250D01*
X47250Y507500D02*X48000Y508250D01*
X45750Y507500D02*X47250D01*
X45000Y509000D02*X48000Y512000D01*
X49801Y507500D02*X50551D01*
X52353Y508250D02*X53103Y507500D01*
X52353Y512750D02*Y508250D01*
Y512750D02*X53103Y513500D01*
X54603D01*
X55353Y512750D01*
Y508250D01*
X54603Y507500D02*X55353Y508250D01*
X53103Y507500D02*X54603D01*
X52353Y509000D02*X55353Y512000D01*
X57154Y512750D02*X57904Y513500D01*
X59404D01*
X60154Y512750D01*
Y508250D01*
X59404Y507500D02*X60154Y508250D01*
X57904Y507500D02*X59404D01*
X57154Y508250D02*X57904Y507500D01*
Y510500D02*X60154D01*
X61956Y513500D02*X64956D01*
X61956D02*Y510500D01*
X62706Y511250D01*
X64206D01*
X64956Y510500D01*
Y508250D01*
X64206Y507500D02*X64956Y508250D01*
X62706Y507500D02*X64206D01*
X61956Y508250D02*X62706Y507500D01*
X45000Y504249D02*X66757D01*
X280000Y76100D02*Y72900D01*
X278400Y74500D02*X281600D01*
X280000Y38600D02*Y35400D01*
X278400Y37000D02*X281600D01*
X15000Y527850D02*Y524650D01*
X13400Y526250D02*X16600D01*
X135000Y528500D02*Y527750D01*
X136500Y526250D01*
X138000Y527750D01*
Y528500D02*Y527750D01*
X136500Y526250D02*Y522500D01*
X139801Y525500D02*X142051D01*
X139801Y522500D02*X142801D01*
X139801Y528500D02*Y522500D01*
Y528500D02*X142801D01*
X147603D02*X148353Y527750D01*
X145353Y528500D02*X147603D01*
X144603Y527750D02*X145353Y528500D01*
X144603Y527750D02*Y526250D01*
X145353Y525500D01*
X147603D01*
X148353Y524750D01*
Y523250D01*
X147603Y522500D02*X148353Y523250D01*
X145353Y522500D02*X147603D01*
X144603Y523250D02*X145353Y522500D01*
X135000Y519249D02*X150154D01*
X98000Y527750D02*X98750Y528500D01*
X101000D01*
X101750Y527750D01*
Y526250D01*
X98000Y522500D02*X101750Y526250D01*
X98000Y522500D02*X101750D01*
X98000Y519249D02*X103551D01*
X45000Y523250D02*X45750Y522500D01*
X45000Y527750D02*Y523250D01*
Y527750D02*X45750Y528500D01*
X47250D01*
X48000Y527750D01*
Y523250D01*
X47250Y522500D02*X48000Y523250D01*
X45750Y522500D02*X47250D01*
X45000Y524000D02*X48000Y527000D01*
X49801Y522500D02*X50551D01*
X52353Y523250D02*X53103Y522500D01*
X52353Y527750D02*Y523250D01*
Y527750D02*X53103Y528500D01*
X54603D01*
X55353Y527750D01*
Y523250D01*
X54603Y522500D02*X55353Y523250D01*
X53103Y522500D02*X54603D01*
X52353Y524000D02*X55353Y527000D01*
X57154Y527750D02*X57904Y528500D01*
X59404D01*
X60154Y527750D01*
Y523250D01*
X59404Y522500D02*X60154Y523250D01*
X57904Y522500D02*X59404D01*
X57154Y523250D02*X57904Y522500D01*
Y525500D02*X60154D01*
X61956Y523250D02*X62706Y522500D01*
X61956Y527750D02*Y523250D01*
Y527750D02*X62706Y528500D01*
X64206D01*
X64956Y527750D01*
Y523250D01*
X64206Y522500D02*X64956Y523250D01*
X62706Y522500D02*X64206D01*
X61956Y524000D02*X64956Y527000D01*
X45000Y519249D02*X66757D01*
X350000Y85000D02*Y83400D01*
Y85000D02*X351386Y85800D01*
X350000Y85000D02*X348614Y85800D01*
X340000Y85000D02*Y83400D01*
Y85000D02*X341386Y85800D01*
X340000Y85000D02*X338614Y85800D01*
X330000Y85000D02*Y83400D01*
Y85000D02*X331386Y85800D01*
X330000Y85000D02*X328614Y85800D01*
X330000Y55000D02*Y53400D01*
Y55000D02*X331386Y55800D01*
X330000Y55000D02*X328614Y55800D01*
X340000Y55000D02*Y53400D01*
Y55000D02*X341386Y55800D01*
X340000Y55000D02*X338614Y55800D01*
X350000Y55000D02*Y53400D01*
Y55000D02*X351386Y55800D01*
X350000Y55000D02*X348614Y55800D01*
X15000Y541250D02*Y539650D01*
Y541250D02*X16386Y542050D01*
X15000Y541250D02*X13614Y542050D01*
X135000Y543500D02*Y542750D01*
X136500Y541250D01*
X138000Y542750D01*
Y543500D02*Y542750D01*
X136500Y541250D02*Y537500D01*
X139801Y540500D02*X142051D01*
X139801Y537500D02*X142801D01*
X139801Y543500D02*Y537500D01*
Y543500D02*X142801D01*
X147603D02*X148353Y542750D01*
X145353Y543500D02*X147603D01*
X144603Y542750D02*X145353Y543500D01*
X144603Y542750D02*Y541250D01*
X145353Y540500D01*
X147603D01*
X148353Y539750D01*
Y538250D01*
X147603Y537500D02*X148353Y538250D01*
X145353Y537500D02*X147603D01*
X144603Y538250D02*X145353Y537500D01*
X135000Y534249D02*X150154D01*
X100250Y543500D02*X101000Y542750D01*
X98750Y543500D02*X100250D01*
X98000Y542750D02*X98750Y543500D01*
X98000Y542750D02*Y538250D01*
X98750Y537500D01*
X100250Y540500D02*X101000Y539750D01*
X98000Y540500D02*X100250D01*
X98750Y537500D02*X100250D01*
X101000Y538250D01*
Y539750D02*Y538250D01*
X98000Y534249D02*X102801D01*
X45000Y538250D02*X45750Y537500D01*
X45000Y542750D02*Y538250D01*
Y542750D02*X45750Y543500D01*
X47250D01*
X48000Y542750D01*
Y538250D01*
X47250Y537500D02*X48000Y538250D01*
X45750Y537500D02*X47250D01*
X45000Y539000D02*X48000Y542000D01*
X49801Y537500D02*X50551D01*
X52353Y538250D02*X53103Y537500D01*
X52353Y542750D02*Y538250D01*
Y542750D02*X53103Y543500D01*
X54603D01*
X55353Y542750D01*
Y538250D01*
X54603Y537500D02*X55353Y538250D01*
X53103Y537500D02*X54603D01*
X52353Y539000D02*X55353Y542000D01*
X57154Y542750D02*X57904Y543500D01*
X60154D01*
X60904Y542750D01*
Y541250D01*
X57154Y537500D02*X60904Y541250D01*
X57154Y537500D02*X60904D01*
X62706Y538250D02*X63456Y537500D01*
X62706Y539750D02*Y538250D01*
Y539750D02*X63456Y540500D01*
X64956D01*
X65706Y539750D01*
Y538250D01*
X64956Y537500D02*X65706Y538250D01*
X63456Y537500D02*X64956D01*
X62706Y541250D02*X63456Y540500D01*
X62706Y542750D02*Y541250D01*
Y542750D02*X63456Y543500D01*
X64956D01*
X65706Y542750D01*
Y541250D01*
X64956Y540500D02*X65706Y541250D01*
X45000Y534249D02*X67507D01*
X3000Y558500D02*X3750Y557750D01*
X750Y558500D02*X3000D01*
X0Y557750D02*X750Y558500D01*
X0Y557750D02*Y556250D01*
X750Y555500D01*
X3000D01*
X3750Y554750D01*
Y553250D01*
X3000Y552500D02*X3750Y553250D01*
X750Y552500D02*X3000D01*
X0Y553250D02*X750Y552500D01*
X5551Y555500D02*Y553250D01*
X6301Y552500D01*
X8551Y555500D02*Y551000D01*
X7801Y550250D02*X8551Y551000D01*
X6301Y550250D02*X7801D01*
X5551Y551000D02*X6301Y550250D01*
Y552500D02*X7801D01*
X8551Y553250D01*
X11103Y554750D02*Y552500D01*
Y554750D02*X11853Y555500D01*
X12603D01*
X13353Y554750D01*
Y552500D01*
Y554750D02*X14103Y555500D01*
X14853D01*
X15603Y554750D01*
Y552500D01*
X10353Y555500D02*X11103Y554750D01*
X17404Y558500D02*Y552500D01*
Y553250D02*X18154Y552500D01*
X19654D01*
X20404Y553250D01*
Y554750D02*Y553250D01*
X19654Y555500D02*X20404Y554750D01*
X18154Y555500D02*X19654D01*
X17404Y554750D02*X18154Y555500D01*
X22206Y554750D02*Y553250D01*
Y554750D02*X22956Y555500D01*
X24456D01*
X25206Y554750D01*
Y553250D01*
X24456Y552500D02*X25206Y553250D01*
X22956Y552500D02*X24456D01*
X22206Y553250D02*X22956Y552500D01*
X27007Y558500D02*Y553250D01*
X27757Y552500D01*
X41750Y558500D02*Y552500D01*
X44000Y558500D02*X44750Y557750D01*
Y553250D01*
X44000Y552500D02*X44750Y553250D01*
X41000Y552500D02*X44000D01*
X41000Y558500D02*X44000D01*
X46551Y557000D02*Y556250D01*
Y554750D02*Y552500D01*
X50303Y555500D02*X51053Y554750D01*
X48803Y555500D02*X50303D01*
X48053Y554750D02*X48803Y555500D01*
X48053Y554750D02*Y553250D01*
X48803Y552500D01*
X51053Y555500D02*Y553250D01*
X51803Y552500D01*
X48803D02*X50303D01*
X51053Y553250D01*
X54354Y554750D02*Y552500D01*
Y554750D02*X55104Y555500D01*
X55854D01*
X56604Y554750D01*
Y552500D01*
Y554750D02*X57354Y555500D01*
X58104D01*
X58854Y554750D01*
Y552500D01*
X53604Y555500D02*X54354Y554750D01*
X60656Y552500D02*X61406D01*
X65907Y553250D02*X66657Y552500D01*
X65907Y557750D02*X66657Y558500D01*
X65907Y557750D02*Y553250D01*
X68459Y558500D02*X69959D01*
X69209D02*Y552500D01*
X68459D02*X69959D01*
X72510Y554750D02*Y552500D01*
Y554750D02*X73260Y555500D01*
X74010D01*
X74760Y554750D01*
Y552500D01*
X71760Y555500D02*X72510Y554750D01*
X77312Y555500D02*X79562D01*
X76562Y554750D02*X77312Y555500D01*
X76562Y554750D02*Y553250D01*
X77312Y552500D01*
X79562D01*
X81363Y558500D02*Y552500D01*
Y554750D02*X82113Y555500D01*
X83613D01*
X84363Y554750D01*
Y552500D01*
X86165Y558500D02*X86915Y557750D01*
Y553250D01*
X86165Y552500D02*X86915Y553250D01*
X95750Y552500D02*X98000D01*
X95000Y553250D02*X95750Y552500D01*
X95000Y557750D02*Y553250D01*
Y557750D02*X95750Y558500D01*
X98000D01*
X99801Y554750D02*Y553250D01*
Y554750D02*X100551Y555500D01*
X102051D01*
X102801Y554750D01*
Y553250D01*
X102051Y552500D02*X102801Y553250D01*
X100551Y552500D02*X102051D01*
X99801Y553250D02*X100551Y552500D01*
X104603Y555500D02*Y553250D01*
X105353Y552500D01*
X106853D01*
X107603Y553250D01*
Y555500D02*Y553250D01*
X110154Y554750D02*Y552500D01*
Y554750D02*X110904Y555500D01*
X111654D01*
X112404Y554750D01*
Y552500D01*
X109404Y555500D02*X110154Y554750D01*
X114956Y558500D02*Y553250D01*
X115706Y552500D01*
X114206Y556250D02*X115706D01*
X130750Y558500D02*Y552500D01*
X130000Y558500D02*X133000D01*
X133750Y557750D01*
Y556250D01*
X133000Y555500D02*X133750Y556250D01*
X130750Y555500D02*X133000D01*
X135551Y558500D02*Y553250D01*
X136301Y552500D01*
X140053Y555500D02*X140803Y554750D01*
X138553Y555500D02*X140053D01*
X137803Y554750D02*X138553Y555500D01*
X137803Y554750D02*Y553250D01*
X138553Y552500D01*
X140803Y555500D02*Y553250D01*
X141553Y552500D01*
X138553D02*X140053D01*
X140803Y553250D01*
X144104Y558500D02*Y553250D01*
X144854Y552500D01*
X143354Y556250D02*X144854D01*
X147106Y552500D02*X149356D01*
X146356Y553250D02*X147106Y552500D01*
X146356Y554750D02*Y553250D01*
Y554750D02*X147106Y555500D01*
X148606D01*
X149356Y554750D01*
X146356Y554000D02*X149356D01*
Y554750D02*Y554000D01*
X154157Y558500D02*Y552500D01*
X153407D02*X154157Y553250D01*
X151907Y552500D02*X153407D01*
X151157Y553250D02*X151907Y552500D01*
X151157Y554750D02*Y553250D01*
Y554750D02*X151907Y555500D01*
X153407D01*
X154157Y554750D01*
X157459Y555500D02*Y554750D01*
Y553250D02*Y552500D01*
X155959Y557750D02*Y557000D01*
Y557750D02*X156709Y558500D01*
X158209D01*
X158959Y557750D01*
Y557000D01*
X157459Y555500D02*X158959Y557000D01*
X0Y573500D02*X3000D01*
X1500D02*Y567500D01*
X4801Y573500D02*Y567500D01*
Y569750D02*X5551Y570500D01*
X7051D01*
X7801Y569750D01*
Y567500D01*
X10353D02*X12603D01*
X9603Y568250D02*X10353Y567500D01*
X9603Y569750D02*Y568250D01*
Y569750D02*X10353Y570500D01*
X11853D01*
X12603Y569750D01*
X9603Y569000D02*X12603D01*
Y569750D02*Y569000D01*
X15154Y569750D02*Y567500D01*
Y569750D02*X15904Y570500D01*
X17404D01*
X14404D02*X15154Y569750D01*
X19956Y567500D02*X22206D01*
X19206Y568250D02*X19956Y567500D01*
X19206Y569750D02*Y568250D01*
Y569750D02*X19956Y570500D01*
X21456D01*
X22206Y569750D01*
X19206Y569000D02*X22206D01*
Y569750D02*Y569000D01*
X28957Y570500D02*X29707Y569750D01*
X27457Y570500D02*X28957D01*
X26707Y569750D02*X27457Y570500D01*
X26707Y569750D02*Y568250D01*
X27457Y567500D01*
X29707Y570500D02*Y568250D01*
X30457Y567500D01*
X27457D02*X28957D01*
X29707Y568250D01*
X33009Y569750D02*Y567500D01*
Y569750D02*X33759Y570500D01*
X35259D01*
X32259D02*X33009Y569750D01*
X37810Y567500D02*X40060D01*
X37060Y568250D02*X37810Y567500D01*
X37060Y569750D02*Y568250D01*
Y569750D02*X37810Y570500D01*
X39310D01*
X40060Y569750D01*
X37060Y569000D02*X40060D01*
Y569750D02*Y569000D01*
X45312Y567500D02*X46812D01*
X46062Y573500D02*Y567500D01*
X44562Y572000D02*X46062Y573500D01*
X48613Y572750D02*X49363Y573500D01*
X50863D01*
X51613Y572750D01*
Y568250D01*
X50863Y567500D02*X51613Y568250D01*
X49363Y567500D02*X50863D01*
X48613Y568250D02*X49363Y567500D01*
Y570500D02*X51613D01*
X59115Y573500D02*Y567500D01*
X58365D02*X59115Y568250D01*
X56865Y567500D02*X58365D01*
X56115Y568250D02*X56865Y567500D01*
X56115Y569750D02*Y568250D01*
Y569750D02*X56865Y570500D01*
X58365D01*
X59115Y569750D01*
X60916Y572000D02*Y571250D01*
Y569750D02*Y567500D01*
X63168Y572750D02*Y567500D01*
Y572750D02*X63918Y573500D01*
X64668D01*
X62418Y570500D02*X63918D01*
X66919Y572750D02*Y567500D01*
Y572750D02*X67669Y573500D01*
X68419D01*
X66169Y570500D02*X67669D01*
X70671Y567500D02*X72921D01*
X69921Y568250D02*X70671Y567500D01*
X69921Y569750D02*Y568250D01*
Y569750D02*X70671Y570500D01*
X72171D01*
X72921Y569750D01*
X69921Y569000D02*X72921D01*
Y569750D02*Y569000D01*
X75472Y569750D02*Y567500D01*
Y569750D02*X76222Y570500D01*
X77722D01*
X74722D02*X75472Y569750D01*
X80274Y567500D02*X82524D01*
X79524Y568250D02*X80274Y567500D01*
X79524Y569750D02*Y568250D01*
Y569750D02*X80274Y570500D01*
X81774D01*
X82524Y569750D01*
X79524Y569000D02*X82524D01*
Y569750D02*Y569000D01*
X85075Y569750D02*Y567500D01*
Y569750D02*X85825Y570500D01*
X86575D01*
X87325Y569750D01*
Y567500D01*
X84325Y570500D02*X85075Y569750D01*
X89877Y573500D02*Y568250D01*
X90627Y567500D01*
X89127Y571250D02*X90627D01*
X97828Y573500D02*Y567500D01*
X97078D02*X97828Y568250D01*
X95578Y567500D02*X97078D01*
X94828Y568250D02*X95578Y567500D01*
X94828Y569750D02*Y568250D01*
Y569750D02*X95578Y570500D01*
X97078D01*
X97828Y569750D01*
X100380D02*Y567500D01*
Y569750D02*X101130Y570500D01*
X102630D01*
X99630D02*X100380Y569750D01*
X104431Y572000D02*Y571250D01*
Y569750D02*Y567500D01*
X105933Y573500D02*Y568250D01*
X106683Y567500D01*
X108184Y573500D02*Y568250D01*
X108934Y567500D01*
X113886D02*X116136D01*
X116886Y568250D01*
X116136Y569000D02*X116886Y568250D01*
X113886Y569000D02*X116136D01*
X113136Y569750D02*X113886Y569000D01*
X113136Y569750D02*X113886Y570500D01*
X116136D01*
X116886Y569750D01*
X113136Y568250D02*X113886Y567500D01*
X118687Y572000D02*Y571250D01*
Y569750D02*Y567500D01*
X120189Y570500D02*X123189D01*
X120189Y567500D02*X123189Y570500D01*
X120189Y567500D02*X123189D01*
X125740D02*X127990D01*
X124990Y568250D02*X125740Y567500D01*
X124990Y569750D02*Y568250D01*
Y569750D02*X125740Y570500D01*
X127240D01*
X127990Y569750D01*
X124990Y569000D02*X127990D01*
Y569750D02*Y569000D01*
X130542Y567500D02*X132792D01*
X133542Y568250D01*
X132792Y569000D02*X133542Y568250D01*
X130542Y569000D02*X132792D01*
X129792Y569750D02*X130542Y569000D01*
X129792Y569750D02*X130542Y570500D01*
X132792D01*
X133542Y569750D01*
X129792Y568250D02*X130542Y567500D01*
X138043Y570500D02*Y568250D01*
X138793Y567500D01*
X140293D01*
X141043Y568250D01*
Y570500D02*Y568250D01*
X143595Y567500D02*X145845D01*
X146595Y568250D01*
X145845Y569000D02*X146595Y568250D01*
X143595Y569000D02*X145845D01*
X142845Y569750D02*X143595Y569000D01*
X142845Y569750D02*X143595Y570500D01*
X145845D01*
X146595Y569750D01*
X142845Y568250D02*X143595Y567500D01*
X149146D02*X151396D01*
X148396Y568250D02*X149146Y567500D01*
X148396Y569750D02*Y568250D01*
Y569750D02*X149146Y570500D01*
X150646D01*
X151396Y569750D01*
X148396Y569000D02*X151396D01*
Y569750D02*Y569000D01*
X156198Y573500D02*Y567500D01*
X155448D02*X156198Y568250D01*
X153948Y567500D02*X155448D01*
X153198Y568250D02*X153948Y567500D01*
X153198Y569750D02*Y568250D01*
Y569750D02*X153948Y570500D01*
X155448D01*
X156198Y569750D01*
X160699Y572000D02*Y571250D01*
Y569750D02*Y567500D01*
X162951Y569750D02*Y567500D01*
Y569750D02*X163701Y570500D01*
X164451D01*
X165201Y569750D01*
Y567500D01*
X162201Y570500D02*X162951Y569750D01*
X170452Y573500D02*Y568250D01*
X171202Y567500D01*
X169702Y571250D02*X171202D01*
X172704Y573500D02*Y567500D01*
Y569750D02*X173454Y570500D01*
X174954D01*
X175704Y569750D01*
Y567500D01*
X177505Y572000D02*Y571250D01*
Y569750D02*Y567500D01*
X179757D02*X182007D01*
X182757Y568250D01*
X182007Y569000D02*X182757Y568250D01*
X179757Y569000D02*X182007D01*
X179007Y569750D02*X179757Y569000D01*
X179007Y569750D02*X179757Y570500D01*
X182007D01*
X182757Y569750D01*
X179007Y568250D02*X179757Y567500D01*
X187258Y573500D02*Y568250D01*
X188008Y567500D01*
X191760Y570500D02*X192510Y569750D01*
X190260Y570500D02*X191760D01*
X189510Y569750D02*X190260Y570500D01*
X189510Y569750D02*Y568250D01*
X190260Y567500D01*
X192510Y570500D02*Y568250D01*
X193260Y567500D01*
X190260D02*X191760D01*
X192510Y568250D01*
X195061Y570500D02*Y568250D01*
X195811Y567500D01*
X198061Y570500D02*Y566000D01*
X197311Y565250D02*X198061Y566000D01*
X195811Y565250D02*X197311D01*
X195061Y566000D02*X195811Y565250D01*
Y567500D02*X197311D01*
X198061Y568250D01*
X199863Y569750D02*Y568250D01*
Y569750D02*X200613Y570500D01*
X202113D01*
X202863Y569750D01*
Y568250D01*
X202113Y567500D02*X202863Y568250D01*
X200613Y567500D02*X202113D01*
X199863Y568250D02*X200613Y567500D01*
X204664Y570500D02*Y568250D01*
X205414Y567500D01*
X206914D01*
X207664Y568250D01*
Y570500D02*Y568250D01*
X210216Y573500D02*Y568250D01*
X210966Y567500D01*
X209466Y571250D02*X210966D01*
X212467Y566000D02*X213967Y567500D01*
X218469D02*X222219Y571250D01*
Y573500D02*Y571250D01*
X218469Y573500D02*X222219D01*
X224020Y568250D02*X224770Y567500D01*
X224020Y569750D02*Y568250D01*
Y569750D02*X224770Y570500D01*
X226270D01*
X227020Y569750D01*
Y568250D01*
X226270Y567500D02*X227020Y568250D01*
X224770Y567500D02*X226270D01*
X224020Y571250D02*X224770Y570500D01*
X224020Y572750D02*Y571250D01*
Y572750D02*X224770Y573500D01*
X226270D01*
X227020Y572750D01*
Y571250D01*
X226270Y570500D02*X227020Y571250D01*
X231522Y573500D02*Y567500D01*
Y569750D02*X232272Y570500D01*
X233772D01*
X234522Y569750D01*
Y567500D01*
X236323Y569750D02*Y568250D01*
Y569750D02*X237073Y570500D01*
X238573D01*
X239323Y569750D01*
Y568250D01*
X238573Y567500D02*X239323Y568250D01*
X237073Y567500D02*X238573D01*
X236323Y568250D02*X237073Y567500D01*
X241125Y573500D02*Y568250D01*
X241875Y567500D01*
X244126D02*X246376D01*
X243376Y568250D02*X244126Y567500D01*
X243376Y569750D02*Y568250D01*
Y569750D02*X244126Y570500D01*
X245626D01*
X246376Y569750D01*
X243376Y569000D02*X246376D01*
Y569750D02*Y569000D01*
X248928Y567500D02*X251178D01*
X251928Y568250D01*
X251178Y569000D02*X251928Y568250D01*
X248928Y569000D02*X251178D01*
X248178Y569750D02*X248928Y569000D01*
X248178Y569750D02*X248928Y570500D01*
X251178D01*
X251928Y569750D01*
X248178Y568250D02*X248928Y567500D01*
X257179Y573500D02*Y568250D01*
X257929Y567500D01*
X256429Y571250D02*X257929D01*
X259431Y569750D02*Y568250D01*
Y569750D02*X260181Y570500D01*
X261681D01*
X262431Y569750D01*
Y568250D01*
X261681Y567500D02*X262431Y568250D01*
X260181Y567500D02*X261681D01*
X259431Y568250D02*X260181Y567500D01*
X264982Y573500D02*Y568250D01*
X265732Y567500D01*
X264232Y571250D02*X265732D01*
X269484Y570500D02*X270234Y569750D01*
X267984Y570500D02*X269484D01*
X267234Y569750D02*X267984Y570500D01*
X267234Y569750D02*Y568250D01*
X267984Y567500D01*
X270234Y570500D02*Y568250D01*
X270984Y567500D01*
X267984D02*X269484D01*
X270234Y568250D01*
X272785Y573500D02*Y568250D01*
X273535Y567500D01*
G54D51*X0Y350000D02*X400000D01*
X0D02*Y0D01*
X400000Y350000D02*Y0D01*
X0D02*X400000D01*
G54D54*X200000Y363500D02*Y357500D01*
Y363500D02*X202250Y361250D01*
X204500Y363500D01*
Y357500D01*
X208551Y360500D02*X209301Y359750D01*
X207051Y360500D02*X208551D01*
X206301Y359750D02*X207051Y360500D01*
X206301Y359750D02*Y358250D01*
X207051Y357500D01*
X209301Y360500D02*Y358250D01*
X210051Y357500D01*
X207051D02*X208551D01*
X209301Y358250D01*
X211853Y360500D02*X214853Y357500D01*
X211853D02*X214853Y360500D01*
X216654Y362000D02*Y361250D01*
Y359750D02*Y357500D01*
X218906Y359750D02*Y357500D01*
Y359750D02*X219656Y360500D01*
X220406D01*
X221156Y359750D01*
Y357500D01*
Y359750D02*X221906Y360500D01*
X222656D01*
X223406Y359750D01*
Y357500D01*
X218156Y360500D02*X218906Y359750D01*
X225207Y360500D02*Y358250D01*
X225957Y357500D01*
X227457D01*
X228207Y358250D01*
Y360500D02*Y358250D01*
X230759Y359750D02*Y357500D01*
Y359750D02*X231509Y360500D01*
X232259D01*
X233009Y359750D01*
Y357500D01*
Y359750D02*X233759Y360500D01*
X234509D01*
X235259Y359750D01*
Y357500D01*
X230009Y360500D02*X230759Y359750D01*
X240510Y363500D02*Y357500D01*
X242760Y363500D02*X243510Y362750D01*
Y358250D01*
X242760Y357500D02*X243510Y358250D01*
X239760Y357500D02*X242760D01*
X239760Y363500D02*X242760D01*
X245312Y362000D02*Y361250D01*
Y359750D02*Y357500D01*
X247563Y359750D02*Y357500D01*
Y359750D02*X248313Y360500D01*
X249063D01*
X249813Y359750D01*
Y357500D01*
Y359750D02*X250563Y360500D01*
X251313D01*
X252063Y359750D01*
Y357500D01*
X246813Y360500D02*X247563Y359750D01*
X254615Y357500D02*X256865D01*
X253865Y358250D02*X254615Y357500D01*
X253865Y359750D02*Y358250D01*
Y359750D02*X254615Y360500D01*
X256115D01*
X256865Y359750D01*
X253865Y359000D02*X256865D01*
Y359750D02*Y359000D01*
X259416Y359750D02*Y357500D01*
Y359750D02*X260166Y360500D01*
X260916D01*
X261666Y359750D01*
Y357500D01*
X258666Y360500D02*X259416Y359750D01*
X264218Y357500D02*X266468D01*
X267218Y358250D01*
X266468Y359000D02*X267218Y358250D01*
X264218Y359000D02*X266468D01*
X263468Y359750D02*X264218Y359000D01*
X263468Y359750D02*X264218Y360500D01*
X266468D01*
X267218Y359750D01*
X263468Y358250D02*X264218Y357500D01*
X269019Y362000D02*Y361250D01*
Y359750D02*Y357500D01*
X270521Y359750D02*Y358250D01*
Y359750D02*X271271Y360500D01*
X272771D01*
X273521Y359750D01*
Y358250D01*
X272771Y357500D02*X273521Y358250D01*
X271271Y357500D02*X272771D01*
X270521Y358250D02*X271271Y357500D01*
X276072Y359750D02*Y357500D01*
Y359750D02*X276822Y360500D01*
X277572D01*
X278322Y359750D01*
Y357500D01*
X275322Y360500D02*X276072Y359750D01*
X280874Y357500D02*X283124D01*
X283874Y358250D01*
X283124Y359000D02*X283874Y358250D01*
X280874Y359000D02*X283124D01*
X280124Y359750D02*X280874Y359000D01*
X280124Y359750D02*X280874Y360500D01*
X283124D01*
X283874Y359750D01*
X280124Y358250D02*X280874Y357500D01*
X285675Y361250D02*X286425D01*
X285675Y359750D02*X286425D01*
X290927Y360500D02*X293927Y363500D01*
X290927Y360500D02*X294677D01*
X293927Y363500D02*Y357500D01*
X296478Y358250D02*X297228Y357500D01*
X296478Y362750D02*Y358250D01*
Y362750D02*X297228Y363500D01*
X298728D01*
X299478Y362750D01*
Y358250D01*
X298728Y357500D02*X299478Y358250D01*
X297228Y357500D02*X298728D01*
X296478Y359000D02*X299478Y362000D01*
X301280Y358250D02*X302030Y357500D01*
X301280Y362750D02*Y358250D01*
Y362750D02*X302030Y363500D01*
X303530D01*
X304280Y362750D01*
Y358250D01*
X303530Y357500D02*X304280Y358250D01*
X302030Y357500D02*X303530D01*
X301280Y359000D02*X304280Y362000D01*
X306081Y358250D02*X306831Y357500D01*
X306081Y362750D02*Y358250D01*
Y362750D02*X306831Y363500D01*
X308331D01*
X309081Y362750D01*
Y358250D01*
X308331Y357500D02*X309081Y358250D01*
X306831Y357500D02*X308331D01*
X306081Y359000D02*X309081Y362000D01*
X314333Y359750D02*Y357500D01*
Y359750D02*X315083Y360500D01*
X315833D01*
X316583Y359750D01*
Y357500D01*
Y359750D02*X317333Y360500D01*
X318083D01*
X318833Y359750D01*
Y357500D01*
X313583Y360500D02*X314333Y359750D01*
X320634Y362000D02*Y361250D01*
Y359750D02*Y357500D01*
X322136Y363500D02*Y358250D01*
X322886Y357500D01*
X325137D02*X327387D01*
X328137Y358250D01*
X327387Y359000D02*X328137Y358250D01*
X325137Y359000D02*X327387D01*
X324387Y359750D02*X325137Y359000D01*
X324387Y359750D02*X325137Y360500D01*
X327387D01*
X328137Y359750D01*
X324387Y358250D02*X325137Y357500D01*
X332639Y360500D02*Y358250D01*
X333389Y357500D01*
X334139D01*
X334889Y358250D01*
Y360500D02*Y358250D01*
X335639Y357500D01*
X336389D01*
X337139Y358250D01*
Y360500D02*Y358250D01*
X338940Y362000D02*Y361250D01*
Y359750D02*Y357500D01*
X343442Y363500D02*Y357500D01*
X342692D02*X343442Y358250D01*
X341192Y357500D02*X342692D01*
X340442Y358250D02*X341192Y357500D01*
X340442Y359750D02*Y358250D01*
Y359750D02*X341192Y360500D01*
X342692D01*
X343442Y359750D01*
X345993Y357500D02*X348243D01*
X345243Y358250D02*X345993Y357500D01*
X345243Y359750D02*Y358250D01*
Y359750D02*X345993Y360500D01*
X347493D01*
X348243Y359750D01*
X345243Y359000D02*X348243D01*
Y359750D02*Y359000D01*
X350045Y356000D02*X351545Y357500D01*
X356046Y362750D02*X356796Y363500D01*
X358296D01*
X359046Y362750D01*
Y358250D01*
X358296Y357500D02*X359046Y358250D01*
X356796Y357500D02*X358296D01*
X356046Y358250D02*X356796Y357500D01*
Y360500D02*X359046D01*
X360848Y363500D02*X363848D01*
X360848D02*Y360500D01*
X361598Y361250D01*
X363098D01*
X363848Y360500D01*
Y358250D01*
X363098Y357500D02*X363848Y358250D01*
X361598Y357500D02*X363098D01*
X360848Y358250D02*X361598Y357500D01*
X365649Y358250D02*X366399Y357500D01*
X365649Y362750D02*Y358250D01*
Y362750D02*X366399Y363500D01*
X367899D01*
X368649Y362750D01*
Y358250D01*
X367899Y357500D02*X368649Y358250D01*
X366399Y357500D02*X367899D01*
X365649Y359000D02*X368649Y362000D01*
X370451Y358250D02*X371201Y357500D01*
X370451Y362750D02*Y358250D01*
Y362750D02*X371201Y363500D01*
X372701D01*
X373451Y362750D01*
Y358250D01*
X372701Y357500D02*X373451Y358250D01*
X371201Y357500D02*X372701D01*
X370451Y359000D02*X373451Y362000D01*
X378702Y359750D02*Y357500D01*
Y359750D02*X379452Y360500D01*
X380202D01*
X380952Y359750D01*
Y357500D01*
Y359750D02*X381702Y360500D01*
X382452D01*
X383202Y359750D01*
Y357500D01*
X377952Y360500D02*X378702Y359750D01*
X385004Y362000D02*Y361250D01*
Y359750D02*Y357500D01*
X386505Y363500D02*Y358250D01*
X387255Y357500D01*
X389507D02*X391757D01*
X392507Y358250D01*
X391757Y359000D02*X392507Y358250D01*
X389507Y359000D02*X391757D01*
X388757Y359750D02*X389507Y359000D01*
X388757Y359750D02*X389507Y360500D01*
X391757D01*
X392507Y359750D01*
X388757Y358250D02*X389507Y357500D01*
X397008Y363500D02*Y357500D01*
Y359750D02*X397758Y360500D01*
X399258D01*
X400008Y359750D01*
Y357500D01*
X401810Y362000D02*Y361250D01*
Y359750D02*Y357500D01*
X405561Y360500D02*X406311Y359750D01*
X404061Y360500D02*X405561D01*
X403311Y359750D02*X404061Y360500D01*
X403311Y359750D02*Y358250D01*
X404061Y357500D01*
X405561D01*
X406311Y358250D01*
X403311Y356000D02*X404061Y355250D01*
X405561D01*
X406311Y356000D01*
Y360500D02*Y356000D01*
X408113Y363500D02*Y357500D01*
Y359750D02*X408863Y360500D01*
X410363D01*
X411113Y359750D01*
Y357500D01*
X41851Y-9500D02*X44851D01*
X45601Y-8750D01*
Y-7250D02*Y-8750D01*
X44851Y-6500D02*X45601Y-7250D01*
X42601Y-6500D02*X44851D01*
X42601Y-3500D02*Y-9500D01*
X41851Y-3500D02*X44851D01*
X45601Y-4250D01*
Y-5750D01*
X44851Y-6500D02*X45601Y-5750D01*
X47402Y-7250D02*Y-8750D01*
Y-7250D02*X48152Y-6500D01*
X49652D01*
X50402Y-7250D01*
Y-8750D01*
X49652Y-9500D02*X50402Y-8750D01*
X48152Y-9500D02*X49652D01*
X47402Y-8750D02*X48152Y-9500D01*
X54454Y-6500D02*X55204Y-7250D01*
X52954Y-6500D02*X54454D01*
X52204Y-7250D02*X52954Y-6500D01*
X52204Y-7250D02*Y-8750D01*
X52954Y-9500D01*
X55204Y-6500D02*Y-8750D01*
X55954Y-9500D01*
X52954D02*X54454D01*
X55204Y-8750D01*
X58505Y-7250D02*Y-9500D01*
Y-7250D02*X59255Y-6500D01*
X60755D01*
X57755D02*X58505Y-7250D01*
X65557Y-3500D02*Y-9500D01*
X64807D02*X65557Y-8750D01*
X63307Y-9500D02*X64807D01*
X62557Y-8750D02*X63307Y-9500D01*
X62557Y-7250D02*Y-8750D01*
Y-7250D02*X63307Y-6500D01*
X64807D01*
X65557Y-7250D01*
X70058D02*Y-8750D01*
Y-7250D02*X70808Y-6500D01*
X72308D01*
X73058Y-7250D01*
Y-8750D01*
X72308Y-9500D02*X73058Y-8750D01*
X70808Y-9500D02*X72308D01*
X70058Y-8750D02*X70808Y-9500D01*
X74860Y-6500D02*Y-8750D01*
X75610Y-9500D01*
X77110D01*
X77860Y-8750D01*
Y-6500D02*Y-8750D01*
X80411Y-3500D02*Y-8750D01*
X81161Y-9500D01*
X79661Y-5750D02*X81161D01*
X82663Y-3500D02*Y-8750D01*
X83413Y-9500D01*
X84914Y-5000D02*Y-5750D01*
Y-7250D02*Y-9500D01*
X87166Y-7250D02*Y-9500D01*
Y-7250D02*X87916Y-6500D01*
X88666D01*
X89416Y-7250D01*
Y-9500D01*
X86416Y-6500D02*X87166Y-7250D01*
X91967Y-9500D02*X94217D01*
X91217Y-8750D02*X91967Y-9500D01*
X91217Y-7250D02*Y-8750D01*
Y-7250D02*X91967Y-6500D01*
X93467D01*
X94217Y-7250D01*
X91217Y-8000D02*X94217D01*
Y-7250D02*Y-8000D01*
X98719Y-5000D02*Y-5750D01*
Y-7250D02*Y-9500D01*
X100970D02*X103220D01*
X103970Y-8750D01*
X103220Y-8000D02*X103970Y-8750D01*
X100970Y-8000D02*X103220D01*
X100220Y-7250D02*X100970Y-8000D01*
X100220Y-7250D02*X100970Y-6500D01*
X103220D01*
X103970Y-7250D01*
X100220Y-8750D02*X100970Y-9500D01*
X109222Y-3500D02*Y-8750D01*
X109972Y-9500D01*
X108472Y-5750D02*X109972D01*
X111473Y-3500D02*Y-9500D01*
Y-7250D02*X112223Y-6500D01*
X113723D01*
X114473Y-7250D01*
Y-9500D01*
X117025D02*X119275D01*
X116275Y-8750D02*X117025Y-9500D01*
X116275Y-7250D02*Y-8750D01*
Y-7250D02*X117025Y-6500D01*
X118525D01*
X119275Y-7250D01*
X116275Y-8000D02*X119275D01*
Y-7250D02*Y-8000D01*
X124526Y-6500D02*X126776D01*
X123776Y-7250D02*X124526Y-6500D01*
X123776Y-7250D02*Y-8750D01*
X124526Y-9500D01*
X126776D01*
X129328D02*X131578D01*
X128578Y-8750D02*X129328Y-9500D01*
X128578Y-7250D02*Y-8750D01*
Y-7250D02*X129328Y-6500D01*
X130828D01*
X131578Y-7250D01*
X128578Y-8000D02*X131578D01*
Y-7250D02*Y-8000D01*
X134129Y-7250D02*Y-9500D01*
Y-7250D02*X134879Y-6500D01*
X135629D01*
X136379Y-7250D01*
Y-9500D01*
X133379Y-6500D02*X134129Y-7250D01*
X138931Y-3500D02*Y-8750D01*
X139681Y-9500D01*
X138181Y-5750D02*X139681D01*
X141932Y-9500D02*X144182D01*
X141182Y-8750D02*X141932Y-9500D01*
X141182Y-7250D02*Y-8750D01*
Y-7250D02*X141932Y-6500D01*
X143432D01*
X144182Y-7250D01*
X141182Y-8000D02*X144182D01*
Y-7250D02*Y-8000D01*
X146734Y-7250D02*Y-9500D01*
Y-7250D02*X147484Y-6500D01*
X148984D01*
X145984D02*X146734Y-7250D01*
X150785Y-3500D02*Y-8750D01*
X151535Y-9500D01*
X153037Y-5000D02*Y-5750D01*
Y-7250D02*Y-9500D01*
X155288Y-7250D02*Y-9500D01*
Y-7250D02*X156038Y-6500D01*
X156788D01*
X157538Y-7250D01*
Y-9500D01*
X154538Y-6500D02*X155288Y-7250D01*
X160090Y-9500D02*X162340D01*
X159340Y-8750D02*X160090Y-9500D01*
X159340Y-7250D02*Y-8750D01*
Y-7250D02*X160090Y-6500D01*
X161590D01*
X162340Y-7250D01*
X159340Y-8000D02*X162340D01*
Y-7250D02*Y-8000D01*
X166841Y-7250D02*Y-8750D01*
Y-7250D02*X167591Y-6500D01*
X169091D01*
X169841Y-7250D01*
Y-8750D01*
X169091Y-9500D02*X169841Y-8750D01*
X167591Y-9500D02*X169091D01*
X166841Y-8750D02*X167591Y-9500D01*
X172393Y-4250D02*Y-9500D01*
Y-4250D02*X173143Y-3500D01*
X173893D01*
X171643Y-6500D02*X173143D01*
X178844Y-3500D02*Y-8750D01*
X179594Y-9500D01*
X178094Y-5750D02*X179594D01*
X181096Y-3500D02*Y-9500D01*
Y-7250D02*X181846Y-6500D01*
X183346D01*
X184096Y-7250D01*
Y-9500D01*
X185897Y-5000D02*Y-5750D01*
Y-7250D02*Y-9500D01*
X188149D02*X190399D01*
X191149Y-8750D01*
X190399Y-8000D02*X191149Y-8750D01*
X188149Y-8000D02*X190399D01*
X187399Y-7250D02*X188149Y-8000D01*
X187399Y-7250D02*X188149Y-6500D01*
X190399D01*
X191149Y-7250D01*
X187399Y-8750D02*X188149Y-9500D01*
X196400D02*X197900D01*
X197150Y-3500D02*Y-9500D01*
X195650Y-5000D02*X197150Y-3500D01*
X199702Y-8750D02*X200452Y-9500D01*
X199702Y-4250D02*Y-8750D01*
Y-4250D02*X200452Y-3500D01*
X201952D01*
X202702Y-4250D01*
Y-8750D01*
X201952Y-9500D02*X202702Y-8750D01*
X200452Y-9500D02*X201952D01*
X199702Y-8000D02*X202702Y-5000D01*
X207953Y-7250D02*Y-9500D01*
Y-7250D02*X208703Y-6500D01*
X209453D01*
X210203Y-7250D01*
Y-9500D01*
Y-7250D02*X210953Y-6500D01*
X211703D01*
X212453Y-7250D01*
Y-9500D01*
X207203Y-6500D02*X207953Y-7250D01*
X214255Y-5000D02*Y-5750D01*
Y-7250D02*Y-9500D01*
X215756Y-3500D02*Y-8750D01*
X216506Y-9500D01*
X221458Y-7250D02*Y-9500D01*
Y-7250D02*X222208Y-6500D01*
X223708D01*
X220708D02*X221458Y-7250D01*
X226259Y-9500D02*X228509D01*
X225509Y-8750D02*X226259Y-9500D01*
X225509Y-7250D02*Y-8750D01*
Y-7250D02*X226259Y-6500D01*
X227759D01*
X228509Y-7250D01*
X225509Y-8000D02*X228509D01*
Y-7250D02*Y-8000D01*
X231061Y-6500D02*X233311D01*
X230311Y-7250D02*X231061Y-6500D01*
X230311Y-7250D02*Y-8750D01*
X231061Y-9500D01*
X233311D01*
X235862Y-3500D02*Y-8750D01*
X236612Y-9500D01*
X235112Y-5750D02*X236612D01*
X240364Y-6500D02*X241114Y-7250D01*
X238864Y-6500D02*X240364D01*
X238114Y-7250D02*X238864Y-6500D01*
X238114Y-7250D02*Y-8750D01*
X238864Y-9500D01*
X241114Y-6500D02*Y-8750D01*
X241864Y-9500D01*
X238864D02*X240364D01*
X241114Y-8750D01*
X244415Y-7250D02*Y-9500D01*
Y-7250D02*X245165Y-6500D01*
X245915D01*
X246665Y-7250D01*
Y-9500D01*
X243665Y-6500D02*X244415Y-7250D01*
X250717Y-6500D02*X251467Y-7250D01*
X249217Y-6500D02*X250717D01*
X248467Y-7250D02*X249217Y-6500D01*
X248467Y-7250D02*Y-8750D01*
X249217Y-9500D01*
X250717D01*
X251467Y-8750D01*
X248467Y-11000D02*X249217Y-11750D01*
X250717D01*
X251467Y-11000D01*
Y-6500D02*Y-11000D01*
X253268Y-3500D02*Y-8750D01*
X254018Y-9500D01*
X256270D02*X258520D01*
X255520Y-8750D02*X256270Y-9500D01*
X255520Y-7250D02*Y-8750D01*
Y-7250D02*X256270Y-6500D01*
X257770D01*
X258520Y-7250D01*
X255520Y-8000D02*X258520D01*
Y-7250D02*Y-8000D01*
X263021Y-6500D02*X266021D01*
X270523Y-8750D02*X271273Y-9500D01*
X270523Y-4250D02*Y-8750D01*
Y-4250D02*X271273Y-3500D01*
X272773D01*
X273523Y-4250D01*
Y-8750D01*
X272773Y-9500D02*X273523Y-8750D01*
X271273Y-9500D02*X272773D01*
X270523Y-8000D02*X273523Y-5000D01*
X275324Y-11000D02*X276824Y-9500D01*
X278626Y-8750D02*X279376Y-9500D01*
X278626Y-4250D02*Y-8750D01*
Y-4250D02*X279376Y-3500D01*
X280876D01*
X281626Y-4250D01*
Y-8750D01*
X280876Y-9500D02*X281626Y-8750D01*
X279376Y-9500D02*X280876D01*
X278626Y-8000D02*X281626Y-5000D01*
X286877Y-3500D02*Y-8750D01*
X287627Y-9500D01*
X286127Y-5750D02*X287627D01*
X289129Y-7250D02*Y-8750D01*
Y-7250D02*X289879Y-6500D01*
X291379D01*
X292129Y-7250D01*
Y-8750D01*
X291379Y-9500D02*X292129Y-8750D01*
X289879Y-9500D02*X291379D01*
X289129Y-8750D02*X289879Y-9500D01*
X296630Y-6500D02*X299630Y-3500D01*
X296630Y-6500D02*X300380D01*
X299630Y-3500D02*Y-9500D01*
X302182Y-8750D02*X302932Y-9500D01*
X302182Y-4250D02*Y-8750D01*
Y-4250D02*X302932Y-3500D01*
X304432D01*
X305182Y-4250D01*
Y-8750D01*
X304432Y-9500D02*X305182Y-8750D01*
X302932Y-9500D02*X304432D01*
X302182Y-8000D02*X305182Y-5000D01*
X306983Y-8750D02*X307733Y-9500D01*
X306983Y-4250D02*Y-8750D01*
Y-4250D02*X307733Y-3500D01*
X309233D01*
X309983Y-4250D01*
Y-8750D01*
X309233Y-9500D02*X309983Y-8750D01*
X307733Y-9500D02*X309233D01*
X306983Y-8000D02*X309983Y-5000D01*
X311785Y-8750D02*X312535Y-9500D01*
X311785Y-4250D02*Y-8750D01*
Y-4250D02*X312535Y-3500D01*
X314035D01*
X314785Y-4250D01*
Y-8750D01*
X314035Y-9500D02*X314785Y-8750D01*
X312535Y-9500D02*X314035D01*
X311785Y-8000D02*X314785Y-5000D01*
X316586Y-11000D02*X318086Y-9500D01*
X319888Y-4250D02*X320638Y-3500D01*
X322138D01*
X322888Y-4250D01*
Y-8750D01*
X322138Y-9500D02*X322888Y-8750D01*
X320638Y-9500D02*X322138D01*
X319888Y-8750D02*X320638Y-9500D01*
Y-6500D02*X322888D01*
X324689Y-3500D02*X327689D01*
X324689D02*Y-6500D01*
X325439Y-5750D01*
X326939D01*
X327689Y-6500D01*
Y-8750D01*
X326939Y-9500D02*X327689Y-8750D01*
X325439Y-9500D02*X326939D01*
X324689Y-8750D02*X325439Y-9500D01*
X329491Y-8750D02*X330241Y-9500D01*
X329491Y-4250D02*Y-8750D01*
Y-4250D02*X330241Y-3500D01*
X331741D01*
X332491Y-4250D01*
Y-8750D01*
X331741Y-9500D02*X332491Y-8750D01*
X330241Y-9500D02*X331741D01*
X329491Y-8000D02*X332491Y-5000D01*
X334292Y-8750D02*X335042Y-9500D01*
X334292Y-4250D02*Y-8750D01*
Y-4250D02*X335042Y-3500D01*
X336542D01*
X337292Y-4250D01*
Y-8750D01*
X336542Y-9500D02*X337292Y-8750D01*
X335042Y-9500D02*X336542D01*
X334292Y-8000D02*X337292Y-5000D01*
X342544Y-7250D02*Y-9500D01*
Y-7250D02*X343294Y-6500D01*
X344044D01*
X344794Y-7250D01*
Y-9500D01*
Y-7250D02*X345544Y-6500D01*
X346294D01*
X347044Y-7250D01*
Y-9500D01*
X341794Y-6500D02*X342544Y-7250D01*
X348845Y-5000D02*Y-5750D01*
Y-7250D02*Y-9500D01*
X350347Y-3500D02*Y-8750D01*
X351097Y-9500D01*
X353348D02*X355598D01*
X356348Y-8750D01*
X355598Y-8000D02*X356348Y-8750D01*
X353348Y-8000D02*X355598D01*
X352598Y-7250D02*X353348Y-8000D01*
X352598Y-7250D02*X353348Y-6500D01*
X355598D01*
X356348Y-7250D01*
X352598Y-8750D02*X353348Y-9500D01*
X200750Y378500D02*Y372500D01*
X203000Y378500D02*X203750Y377750D01*
Y373250D01*
X203000Y372500D02*X203750Y373250D01*
X200000Y372500D02*X203000D01*
X200000Y378500D02*X203000D01*
X207801Y375500D02*X208551Y374750D01*
X206301Y375500D02*X207801D01*
X205551Y374750D02*X206301Y375500D01*
X205551Y374750D02*Y373250D01*
X206301Y372500D01*
X208551Y375500D02*Y373250D01*
X209301Y372500D01*
X206301D02*X207801D01*
X208551Y373250D01*
X211853Y378500D02*Y373250D01*
X212603Y372500D01*
X211103Y376250D02*X212603D01*
X214854Y372500D02*X217104D01*
X214104Y373250D02*X214854Y372500D01*
X214104Y374750D02*Y373250D01*
Y374750D02*X214854Y375500D01*
X216354D01*
X217104Y374750D01*
X214104Y374000D02*X217104D01*
Y374750D02*Y374000D01*
X218906Y376250D02*X219656D01*
X218906Y374750D02*X219656D01*
X224157Y378500D02*Y372500D01*
X226407Y374750D01*
X228657Y372500D01*
Y378500D02*Y372500D01*
X231209D02*X233459D01*
X230459Y373250D02*X231209Y372500D01*
X230459Y374750D02*Y373250D01*
Y374750D02*X231209Y375500D01*
X232709D01*
X233459Y374750D01*
X230459Y374000D02*X233459D01*
Y374750D02*Y374000D01*
X238260Y378500D02*Y372500D01*
X237510D02*X238260Y373250D01*
X236010Y372500D02*X237510D01*
X235260Y373250D02*X236010Y372500D01*
X235260Y374750D02*Y373250D01*
Y374750D02*X236010Y375500D01*
X237510D01*
X238260Y374750D01*
X242762Y373250D02*X243512Y372500D01*
X242762Y377750D02*Y373250D01*
Y377750D02*X243512Y378500D01*
X245012D01*
X245762Y377750D01*
Y373250D01*
X245012Y372500D02*X245762Y373250D01*
X243512Y372500D02*X245012D01*
X242762Y374000D02*X245762Y377000D01*
X247563Y377750D02*X248313Y378500D01*
X249813D01*
X250563Y377750D01*
Y373250D01*
X249813Y372500D02*X250563Y373250D01*
X248313Y372500D02*X249813D01*
X247563Y373250D02*X248313Y372500D01*
Y375500D02*X250563D01*
X255065Y378500D02*Y372500D01*
Y378500D02*X258065D01*
X255065Y375500D02*X257315D01*
X260616Y372500D02*X262866D01*
X259866Y373250D02*X260616Y372500D01*
X259866Y374750D02*Y373250D01*
Y374750D02*X260616Y375500D01*
X262116D01*
X262866Y374750D01*
X259866Y374000D02*X262866D01*
Y374750D02*Y374000D01*
X264668Y378500D02*Y372500D01*
Y373250D02*X265418Y372500D01*
X266918D01*
X267668Y373250D01*
Y374750D02*Y373250D01*
X266918Y375500D02*X267668Y374750D01*
X265418Y375500D02*X266918D01*
X264668Y374750D02*X265418Y375500D01*
X272169Y377750D02*X272919Y378500D01*
X275169D01*
X275919Y377750D01*
Y376250D01*
X272169Y372500D02*X275919Y376250D01*
X272169Y372500D02*X275919D01*
X277721Y373250D02*X278471Y372500D01*
X277721Y377750D02*Y373250D01*
Y377750D02*X278471Y378500D01*
X279971D01*
X280721Y377750D01*
Y373250D01*
X279971Y372500D02*X280721Y373250D01*
X278471Y372500D02*X279971D01*
X277721Y374000D02*X280721Y377000D01*
X283272Y372500D02*X284772D01*
X284022Y378500D02*Y372500D01*
X282522Y377000D02*X284022Y378500D01*
X286574Y373250D02*X287324Y372500D01*
X286574Y377750D02*Y373250D01*
Y377750D02*X287324Y378500D01*
X288824D01*
X289574Y377750D01*
Y373250D01*
X288824Y372500D02*X289574Y373250D01*
X287324Y372500D02*X288824D01*
X286574Y374000D02*X289574Y377000D01*
X294075Y373250D02*X294825Y372500D01*
X294075Y377750D02*Y373250D01*
Y377750D02*X294825Y378500D01*
X296325D01*
X297075Y377750D01*
Y373250D01*
X296325Y372500D02*X297075Y373250D01*
X294825Y372500D02*X296325D01*
X294075Y374000D02*X297075Y377000D01*
X298877Y372500D02*X301877Y375500D01*
Y377750D02*Y375500D01*
X301127Y378500D02*X301877Y377750D01*
X299627Y378500D02*X301127D01*
X298877Y377750D02*X299627Y378500D01*
X298877Y377750D02*Y376250D01*
X299627Y375500D01*
X301877D01*
X303678Y376250D02*X304428D01*
X303678Y374750D02*X304428D01*
X306230Y373250D02*X306980Y372500D01*
X306230Y377750D02*Y373250D01*
Y377750D02*X306980Y378500D01*
X308480D01*
X309230Y377750D01*
Y373250D01*
X308480Y372500D02*X309230Y373250D01*
X306980Y372500D02*X308480D01*
X306230Y374000D02*X309230Y377000D01*
X311031Y372500D02*X314031Y375500D01*
Y377750D02*Y375500D01*
X313281Y378500D02*X314031Y377750D01*
X311781Y378500D02*X313281D01*
X311031Y377750D02*X311781Y378500D01*
X311031Y377750D02*Y376250D01*
X311781Y375500D01*
X314031D01*
X315833Y376250D02*X316583D01*
X315833Y374750D02*X316583D01*
X318384Y375500D02*X321384Y378500D01*
X318384Y375500D02*X322134D01*
X321384Y378500D02*Y372500D01*
X323936Y378500D02*X326936D01*
X323936D02*Y375500D01*
X324686Y376250D01*
X326186D01*
X326936Y375500D01*
Y373250D01*
X326186Y372500D02*X326936Y373250D01*
X324686Y372500D02*X326186D01*
X323936Y373250D02*X324686Y372500D01*
X332187Y378500D02*Y372500D01*
X331437Y378500D02*X334437D01*
X335187Y377750D01*
Y376250D01*
X334437Y375500D02*X335187Y376250D01*
X332187Y375500D02*X334437D01*
X336989Y378500D02*Y372500D01*
Y378500D02*X339239Y376250D01*
X341489Y378500D01*
Y372500D01*
X348990Y378500D02*X349740Y377750D01*
X346740Y378500D02*X348990D01*
X345990Y377750D02*X346740Y378500D01*
X345990Y377750D02*Y373250D01*
X346740Y372500D01*
X348990D01*
X349740Y373250D01*
Y374750D02*Y373250D01*
X348990Y375500D02*X349740Y374750D01*
X347490Y375500D02*X348990D01*
X351542Y378500D02*Y372500D01*
Y378500D02*X353792Y376250D01*
X356042Y378500D01*
Y372500D01*
X357843Y378500D02*X360843D01*
X359343D02*Y372500D01*
X365345Y378500D02*Y373250D01*
X366095Y372500D01*
X367595D01*
X368345Y373250D01*
Y378500D02*Y373250D01*
X370146Y378500D02*X373146D01*
X371646D02*Y372500D01*
X375698D02*X377948D01*
X374948Y373250D02*X375698Y372500D01*
X374948Y377750D02*Y373250D01*
Y377750D02*X375698Y378500D01*
X377948D01*
X200000Y392750D02*Y387500D01*
Y392750D02*X200750Y393500D01*
X203000D01*
X203750Y392750D01*
Y387500D01*
X200000Y390500D02*X203750D01*
X205551D02*Y388250D01*
X206301Y387500D01*
X207801D01*
X208551Y388250D01*
Y390500D02*Y388250D01*
X211103Y393500D02*Y388250D01*
X211853Y387500D01*
X210353Y391250D02*X211853D01*
X213354Y393500D02*Y387500D01*
Y389750D02*X214104Y390500D01*
X215604D01*
X216354Y389750D01*
Y387500D01*
X218156Y389750D02*Y388250D01*
Y389750D02*X218906Y390500D01*
X220406D01*
X221156Y389750D01*
Y388250D01*
X220406Y387500D02*X221156Y388250D01*
X218906Y387500D02*X220406D01*
X218156Y388250D02*X218906Y387500D01*
X223707Y389750D02*Y387500D01*
Y389750D02*X224457Y390500D01*
X225957D01*
X222957D02*X223707Y389750D01*
X227759Y391250D02*X228509D01*
X227759Y389750D02*X228509D01*
X236010Y393500D02*X236760Y392750D01*
X233760Y393500D02*X236010D01*
X233010Y392750D02*X233760Y393500D01*
X233010Y392750D02*Y391250D01*
X233760Y390500D01*
X236010D01*
X236760Y389750D01*
Y388250D01*
X236010Y387500D02*X236760Y388250D01*
X233760Y387500D02*X236010D01*
X233010Y388250D02*X233760Y387500D01*
X239312Y389750D02*Y385250D01*
X238562Y390500D02*X239312Y389750D01*
X240062Y390500D01*
X241562D01*
X242312Y389750D01*
Y388250D01*
X241562Y387500D02*X242312Y388250D01*
X240062Y387500D02*X241562D01*
X239312Y388250D02*X240062Y387500D01*
X244863D02*X247113D01*
X244113Y388250D02*X244863Y387500D01*
X244113Y389750D02*Y388250D01*
Y389750D02*X244863Y390500D01*
X246363D01*
X247113Y389750D01*
X244113Y389000D02*X247113D01*
Y389750D02*Y389000D01*
X249665Y389750D02*Y387500D01*
Y389750D02*X250415Y390500D01*
X251165D01*
X251915Y389750D01*
Y387500D01*
X248915Y390500D02*X249665Y389750D01*
X254466Y390500D02*X256716D01*
X253716Y389750D02*X254466Y390500D01*
X253716Y389750D02*Y388250D01*
X254466Y387500D01*
X256716D01*
X259268D02*X261518D01*
X258518Y388250D02*X259268Y387500D01*
X258518Y389750D02*Y388250D01*
Y389750D02*X259268Y390500D01*
X260768D01*
X261518Y389750D01*
X258518Y389000D02*X261518D01*
Y389750D02*Y389000D01*
X264069Y389750D02*Y387500D01*
Y389750D02*X264819Y390500D01*
X266319D01*
X263319D02*X264069Y389750D01*
X270821Y393500D02*X273821D01*
X274571Y392750D01*
Y391250D01*
X273821Y390500D02*X274571Y391250D01*
X271571Y390500D02*X273821D01*
X271571Y393500D02*Y387500D01*
Y390500D02*X274571Y387500D01*
X276372Y390500D02*Y388250D01*
X277122Y387500D01*
X278622D01*
X279372Y388250D01*
Y390500D02*Y388250D01*
X281924Y387500D02*X284174D01*
X284924Y388250D01*
X284174Y389000D02*X284924Y388250D01*
X281924Y389000D02*X284174D01*
X281174Y389750D02*X281924Y389000D01*
X281174Y389750D02*X281924Y390500D01*
X284174D01*
X284924Y389750D01*
X281174Y388250D02*X281924Y387500D01*
X287475D02*X289725D01*
X290475Y388250D01*
X289725Y389000D02*X290475Y388250D01*
X287475Y389000D02*X289725D01*
X286725Y389750D02*X287475Y389000D01*
X286725Y389750D02*X287475Y390500D01*
X289725D01*
X290475Y389750D01*
X286725Y388250D02*X287475Y387500D01*
X293027D02*X295277D01*
X292277Y388250D02*X293027Y387500D01*
X292277Y389750D02*Y388250D01*
Y389750D02*X293027Y390500D01*
X294527D01*
X295277Y389750D01*
X292277Y389000D02*X295277D01*
Y389750D02*Y389000D01*
X297078Y393500D02*Y388250D01*
X297828Y387500D01*
X299330Y393500D02*Y388250D01*
X300080Y387500D01*
X200000Y408500D02*X203000D01*
X201500D02*Y402500D01*
X204801Y407000D02*Y406250D01*
Y404750D02*Y402500D01*
X207053Y408500D02*Y403250D01*
X207803Y402500D01*
X206303Y406250D02*X207803D01*
X209304Y408500D02*Y403250D01*
X210054Y402500D01*
X212306D02*X214556D01*
X211556Y403250D02*X212306Y402500D01*
X211556Y404750D02*Y403250D01*
Y404750D02*X212306Y405500D01*
X213806D01*
X214556Y404750D01*
X211556Y404000D02*X214556D01*
Y404750D02*Y404000D01*
X216357Y406250D02*X217107D01*
X216357Y404750D02*X217107D01*
X221609Y408500D02*Y402500D01*
Y404750D02*X222359Y405500D01*
X223859D01*
X224609Y404750D01*
Y402500D01*
X226410Y407000D02*Y406250D01*
Y404750D02*Y402500D01*
X230162Y405500D02*X230912Y404750D01*
X228662Y405500D02*X230162D01*
X227912Y404750D02*X228662Y405500D01*
X227912Y404750D02*Y403250D01*
X228662Y402500D01*
X230162D01*
X230912Y403250D01*
X227912Y401000D02*X228662Y400250D01*
X230162D01*
X230912Y401000D01*
Y405500D02*Y401000D01*
X232713Y408500D02*Y402500D01*
Y404750D02*X233463Y405500D01*
X234963D01*
X235713Y404750D01*
Y402500D01*
X237515Y405500D02*Y404000D01*
X239015Y402500D01*
X240515Y404000D01*
Y405500D02*Y404000D01*
X242316Y404750D02*Y403250D01*
Y404750D02*X243066Y405500D01*
X244566D01*
X245316Y404750D01*
Y403250D01*
X244566Y402500D02*X245316Y403250D01*
X243066Y402500D02*X244566D01*
X242316Y403250D02*X243066Y402500D01*
X247118Y408500D02*Y403250D01*
X247868Y402500D01*
X250119Y408500D02*Y403250D01*
X250869Y402500D01*
X249369Y406250D02*X250869D01*
X254621Y405500D02*X255371Y404750D01*
X253121Y405500D02*X254621D01*
X252371Y404750D02*X253121Y405500D01*
X252371Y404750D02*Y403250D01*
X253121Y402500D01*
X255371Y405500D02*Y403250D01*
X256121Y402500D01*
X253121D02*X254621D01*
X255371Y403250D01*
X260172Y405500D02*X260922Y404750D01*
X258672Y405500D02*X260172D01*
X257922Y404750D02*X258672Y405500D01*
X257922Y404750D02*Y403250D01*
X258672Y402500D01*
X260172D01*
X260922Y403250D01*
X257922Y401000D02*X258672Y400250D01*
X260172D01*
X260922Y401000D01*
Y405500D02*Y401000D01*
X263474Y402500D02*X265724D01*
X262724Y403250D02*X263474Y402500D01*
X262724Y404750D02*Y403250D01*
Y404750D02*X263474Y405500D01*
X264974D01*
X265724Y404750D01*
X262724Y404000D02*X265724D01*
Y404750D02*Y404000D01*
X270225Y405500D02*X273225D01*
X277727Y408500D02*Y402500D01*
Y408500D02*X280727D01*
X277727Y405500D02*X279977D01*
X284778D02*X285528Y404750D01*
X283278Y405500D02*X284778D01*
X282528Y404750D02*X283278Y405500D01*
X282528Y404750D02*Y403250D01*
X283278Y402500D01*
X285528Y405500D02*Y403250D01*
X286278Y402500D01*
X283278D02*X284778D01*
X285528Y403250D01*
X288080Y408500D02*Y402500D01*
Y403250D02*X288830Y402500D01*
X290330D01*
X291080Y403250D01*
Y404750D02*Y403250D01*
X290330Y405500D02*X291080Y404750D01*
X288830Y405500D02*X290330D01*
X288080Y404750D02*X288830Y405500D01*
X293631Y404750D02*Y402500D01*
Y404750D02*X294381Y405500D01*
X295881D01*
X292881D02*X293631Y404750D01*
X297683Y407000D02*Y406250D01*
Y404750D02*Y402500D01*
X299934Y405500D02*X302184D01*
X299184Y404750D02*X299934Y405500D01*
X299184Y404750D02*Y403250D01*
X299934Y402500D01*
X302184D01*
X306236Y405500D02*X306986Y404750D01*
X304736Y405500D02*X306236D01*
X303986Y404750D02*X304736Y405500D01*
X303986Y404750D02*Y403250D01*
X304736Y402500D01*
X306986Y405500D02*Y403250D01*
X307736Y402500D01*
X304736D02*X306236D01*
X306986Y403250D01*
X310287Y408500D02*Y403250D01*
X311037Y402500D01*
X309537Y406250D02*X311037D01*
X312539Y407000D02*Y406250D01*
Y404750D02*Y402500D01*
X314040Y404750D02*Y403250D01*
Y404750D02*X314790Y405500D01*
X316290D01*
X317040Y404750D01*
Y403250D01*
X316290Y402500D02*X317040Y403250D01*
X314790Y402500D02*X316290D01*
X314040Y403250D02*X314790Y402500D01*
X319592Y404750D02*Y402500D01*
Y404750D02*X320342Y405500D01*
X321092D01*
X321842Y404750D01*
Y402500D01*
X318842Y405500D02*X319592Y404750D01*
X327093Y408500D02*Y402500D01*
X329343Y408500D02*X330093Y407750D01*
Y403250D01*
X329343Y402500D02*X330093Y403250D01*
X326343Y402500D02*X329343D01*
X326343Y408500D02*X329343D01*
X332645Y404750D02*Y402500D01*
Y404750D02*X333395Y405500D01*
X334895D01*
X331895D02*X332645Y404750D01*
X338946Y405500D02*X339696Y404750D01*
X337446Y405500D02*X338946D01*
X336696Y404750D02*X337446Y405500D01*
X336696Y404750D02*Y403250D01*
X337446Y402500D01*
X339696Y405500D02*Y403250D01*
X340446Y402500D01*
X337446D02*X338946D01*
X339696Y403250D01*
X342248Y405500D02*Y403250D01*
X342998Y402500D01*
X343748D01*
X344498Y403250D01*
Y405500D02*Y403250D01*
X345248Y402500D01*
X345998D01*
X346748Y403250D01*
Y405500D02*Y403250D01*
X348549Y407000D02*Y406250D01*
Y404750D02*Y402500D01*
X350801Y404750D02*Y402500D01*
Y404750D02*X351551Y405500D01*
X352301D01*
X353051Y404750D01*
Y402500D01*
X350051Y405500D02*X350801Y404750D01*
X357102Y405500D02*X357852Y404750D01*
X355602Y405500D02*X357102D01*
X354852Y404750D02*X355602Y405500D01*
X354852Y404750D02*Y403250D01*
X355602Y402500D01*
X357102D01*
X357852Y403250D01*
X354852Y401000D02*X355602Y400250D01*
X357102D01*
X357852Y401000D01*
Y405500D02*Y401000D01*
M02*
