M48
INCH
T15C0.060
T18C0.200
T24C0.100
T26C0.040
T27C0.035
T28C0.050
T29C0.048
T30C0.038
T31C0.028
T34C0.030
T35C0.125
T49C0.051
T50C0.047
%
T31
X035000Y008500
X034000Y008500
X033000Y008500
X033000Y005500
X034000Y005500
X035000Y005500
T34
X028000Y007450
X028000Y003700
T27
X036000Y017500
X038000Y017500
X036000Y025000
X038000Y025000
T30
X035500Y013000
X035500Y014000
X036500Y013000
X036500Y014000
X037500Y008000
X037500Y012000
X037500Y013000
X037500Y014000
T26
X036000Y021000
X037000Y021000
X034000Y019000
X038000Y021000
X038000Y019000
X038000Y023500
X036000Y028500
X034000Y031000
X034000Y026500
X034000Y023500
X037000Y028500
X038000Y028500
X038000Y031000
X038000Y026500
X030500Y006000
X030500Y007000
X030500Y008000
T50
X022634Y006000
X013500Y006000
T29
X035784Y011145
X005091Y009119
X013091Y009119
X027784Y011145
X025416Y011936
X025416Y003936
X032072Y014152
X024072Y014152
T28
X029398Y018149
X029447Y031891
X029447Y027891
X029398Y022149
T49
X006500Y005000
X003000Y013500
X003000Y008500
X011000Y005000
X003000Y018500
T15
X018000Y030100
X015500Y030100
X013000Y030100
X010500Y030100
X015600Y033400
X017600Y033400
X013600Y033400
X011600Y033400
X010500Y017100
X013000Y017100
X015500Y017100
X018000Y017100
T24
X007500Y013500
X010500Y013500
X017970Y013500
X020970Y013500
T35
X036500Y033000
X002500Y033000
X002500Y002500
X036500Y002500
T18
X023700Y023600
X004800Y023600
M30
