G04 start of page 7 for group -4079 idx -4079 *
G04 Title: highvoltage, topsilk *
G04 Creator: pcb 20091103 *
G04 CreationDate: Wed 03 Feb 2010 09:09:45 PM GMT UTC *
G04 For: srussell *
G04 Format: Gerber/RS-274X *
G04 PCB-Dimensions: 400000 350000 *
G04 PCB-Coordinate-Origin: lower left *
%MOIN*%
%FSLAX25Y25*%
%LNFRONTSILK*%
%ADD11C,0.0200*%
%ADD51C,0.0100*%
%ADD52C,0.0150*%
G54D11*G36*
X360000Y120000D02*X350000D01*
X355000Y125000D01*
X360000Y120000D01*
G37*
G54D51*X45000Y65000D02*Y200000D01*
X15000D01*
Y65000D01*
X45000D01*
X50000Y70000D02*X125000D01*
Y35000D01*
X50000D02*Y70000D01*
X125000Y35000D02*X50000D01*
X45665Y28670D02*Y23350D01*
X45000Y28670D02*X47660D01*
X48325Y28005D01*
Y26675D01*
X47660Y26010D02*X48325Y26675D01*
X45665Y26010D02*X47660D01*
X50587Y25345D02*Y23350D01*
Y25345D02*X51252Y26010D01*
X52582D01*
X49922D02*X50587Y25345D01*
X54179D02*Y24015D01*
Y25345D02*X54844Y26010D01*
X56174D01*
X56839Y25345D01*
Y24015D01*
X56174Y23350D02*X56839Y24015D01*
X54844Y23350D02*X56174D01*
X54179Y24015D02*X54844Y23350D01*
X58436Y26010D02*X61096Y23350D01*
X58436D02*X61096Y26010D01*
X62694Y28670D02*Y23350D01*
X65354D01*
X68946Y26010D02*X69611Y25345D01*
X67616Y26010D02*X68946D01*
X66951Y25345D02*X67616Y26010D01*
X66951Y25345D02*Y24015D01*
X67616Y23350D01*
X69611Y26010D02*Y24015D01*
X70276Y23350D01*
X67616D02*X68946D01*
X69611Y24015D01*
X72538Y25345D02*Y23350D01*
Y25345D02*X73203Y26010D01*
X73868D01*
X74533Y25345D01*
Y23350D01*
Y25345D02*X75198Y26010D01*
X75863D01*
X76528Y25345D01*
Y23350D01*
X71873Y26010D02*X72538Y25345D01*
X78791D02*Y21355D01*
X78126Y26010D02*X78791Y25345D01*
X79456Y26010D01*
X80786D01*
X81451Y25345D01*
Y24015D01*
X80786Y23350D02*X81451Y24015D01*
X79456Y23350D02*X80786D01*
X78791Y24015D02*X79456Y23350D01*
X85442Y28670D02*X88102D01*
X88767Y28005D01*
Y26675D01*
X88102Y26010D02*X88767Y26675D01*
X86107Y26010D02*X88102D01*
X86107Y28670D02*Y23350D01*
Y26010D02*X88767Y23350D01*
X91029D02*X93024D01*
X90364Y24015D02*X91029Y23350D01*
X90364Y25345D02*Y24015D01*
Y25345D02*X91029Y26010D01*
X92359D01*
X93024Y25345D01*
X90364Y24680D02*X93024D01*
Y25345D02*Y24680D01*
X94622Y26010D02*Y24680D01*
X95952Y23350D01*
X97282Y24680D01*
Y26010D02*Y24680D01*
X101273Y24015D02*X101938Y23350D01*
X101273Y28005D02*Y24015D01*
Y28005D02*X101938Y28670D01*
X103268D01*
X103933Y28005D01*
Y24015D01*
X103268Y23350D02*X103933Y24015D01*
X101938Y23350D02*X103268D01*
X101273Y24680D02*X103933Y27340D01*
X105530Y24015D02*X106195Y23350D01*
X105530Y28005D02*Y24015D01*
Y28005D02*X106195Y28670D01*
X107525D01*
X108190Y28005D01*
Y24015D01*
X107525Y23350D02*X108190Y24015D01*
X106195Y23350D02*X107525D01*
X105530Y24680D02*X108190Y27340D01*
X110453Y23350D02*X111783D01*
X111118Y28670D02*Y23350D01*
X109788Y27340D02*X111118Y28670D01*
X80000Y64000D02*Y60000D01*
X82000D01*
X83201Y63500D02*Y60000D01*
Y63500D02*X83701Y64000D01*
X85201D01*
X85701Y63500D01*
Y60000D01*
X83201Y62000D02*X85701D01*
X86902Y64000D02*Y60000D01*
Y64000D02*X88402Y62500D01*
X89902Y64000D01*
Y60000D01*
X91603Y64000D02*Y60000D01*
X91103Y64000D02*X93103D01*
X93603Y63500D01*
Y62500D01*
X93103Y62000D02*X93603Y62500D01*
X91603Y62000D02*X93103D01*
X25000Y124000D02*Y120000D01*
X27500Y124000D02*Y120000D01*
X25000Y122000D02*X27500D01*
X28701Y123500D02*Y120500D01*
Y123500D02*X29201Y124000D01*
X30201D01*
X30701Y123500D01*
Y120500D01*
X30201Y120000D02*X30701Y120500D01*
X29201Y120000D02*X30201D01*
X28701Y120500D02*X29201Y120000D01*
X31902Y124000D02*X33902D01*
X32902D02*Y120000D01*
X25000Y174000D02*Y170000D01*
Y174000D02*Y173500D01*
X27500Y171000D01*
Y174000D02*Y170000D01*
X28701Y172000D02*X30201D01*
X28701Y170000D02*X30701D01*
X28701Y174000D02*Y170000D01*
Y174000D02*X30701D01*
X31902D02*Y170500D01*
X32402Y170000D01*
X33402D01*
X33902Y170500D01*
Y174000D02*Y170500D01*
X35103Y174000D02*X37103D01*
X36103D02*Y170000D01*
X27000Y74000D02*X27500Y73500D01*
X25500Y74000D02*X27000D01*
X25000Y73500D02*X25500Y74000D01*
X25000Y73500D02*Y70500D01*
X25500Y70000D01*
X27000D01*
X27500Y70500D01*
Y71500D02*Y70500D01*
X27000Y72000D02*X27500Y71500D01*
X26000Y72000D02*X27000D01*
X28701Y74000D02*Y70000D01*
Y74000D02*Y73500D01*
X31201Y71000D01*
Y74000D02*Y70000D01*
X32902Y74000D02*Y70000D01*
X34402Y74000D02*X34902Y73500D01*
Y70500D01*
X34402Y70000D02*X34902Y70500D01*
X32402Y70000D02*X34402D01*
X32402Y74000D02*X34402D01*
X45000Y18780D02*Y13900D01*
Y18780D02*X47440D01*
X45000Y16340D02*X46830D01*
X49515Y15730D02*Y13900D01*
Y15730D02*X50125Y16340D01*
X51345D01*
X48905D02*X49515Y15730D01*
X52810D02*Y14510D01*
Y15730D02*X53420Y16340D01*
X54640D01*
X55250Y15730D01*
Y14510D01*
X54640Y13900D02*X55250Y14510D01*
X53420Y13900D02*X54640D01*
X52810Y14510D02*X53420Y13900D01*
X57325Y15730D02*Y13900D01*
Y15730D02*X57935Y16340D01*
X58545D01*
X59155Y15730D01*
Y13900D01*
Y15730D02*X59765Y16340D01*
X60375D01*
X60985Y15730D01*
Y13900D01*
X56715Y16340D02*X57325Y15730D01*
X64646Y18780D02*Y13900D01*
Y18780D02*Y18170D01*
X67696Y15120D01*
Y18780D02*Y13900D01*
X69162Y17560D02*Y16950D01*
Y15730D02*Y13900D01*
X70993Y15730D02*Y13900D01*
Y15730D02*X71603Y16340D01*
X72213D01*
X72823Y15730D01*
Y13900D01*
X70383Y16340D02*X70993Y15730D01*
X74288Y17560D02*Y16950D01*
Y15730D02*Y13900D01*
X77705Y18780D02*Y13900D01*
X80755Y18780D02*Y13900D01*
X77705Y16340D02*X80755D01*
X82220D02*Y14510D01*
X82830Y13900D01*
X84050D01*
X84660Y14510D01*
Y16340D02*Y14510D01*
X45665Y28670D02*Y23350D01*
X45000Y28670D02*X47660D01*
X48325Y28005D01*
Y26675D01*
X47660Y26010D02*X48325Y26675D01*
X45665Y26010D02*X47660D01*
X50587Y25345D02*Y23350D01*
Y25345D02*X51252Y26010D01*
X52582D01*
X49922D02*X50587Y25345D01*
X54179D02*Y24015D01*
Y25345D02*X54844Y26010D01*
X56174D01*
X56839Y25345D01*
Y24015D01*
X56174Y23350D02*X56839Y24015D01*
X54844Y23350D02*X56174D01*
X54179Y24015D02*X54844Y23350D01*
X58436Y26010D02*X61096Y23350D01*
X58436D02*X61096Y26010D01*
X62694Y28670D02*Y23350D01*
X65354D01*
X68946Y26010D02*X69611Y25345D01*
X67616Y26010D02*X68946D01*
X66951Y25345D02*X67616Y26010D01*
X66951Y25345D02*Y24015D01*
X67616Y23350D01*
X69611Y26010D02*Y24015D01*
X70276Y23350D01*
X67616D02*X68946D01*
X69611Y24015D01*
X72538Y25345D02*Y23350D01*
Y25345D02*X73203Y26010D01*
X73868D01*
X74533Y25345D01*
Y23350D01*
Y25345D02*X75198Y26010D01*
X75863D01*
X76528Y25345D01*
Y23350D01*
X71873Y26010D02*X72538Y25345D01*
X78791D02*Y21355D01*
X78126Y26010D02*X78791Y25345D01*
X79456Y26010D01*
X80786D01*
X81451Y25345D01*
Y24015D01*
X80786Y23350D02*X81451Y24015D01*
X79456Y23350D02*X80786D01*
X78791Y24015D02*X79456Y23350D01*
X85442Y28670D02*X88102D01*
X88767Y28005D01*
Y26675D01*
X88102Y26010D02*X88767Y26675D01*
X86107Y26010D02*X88102D01*
X86107Y28670D02*Y23350D01*
Y26010D02*X88767Y23350D01*
X91029D02*X93024D01*
X90364Y24015D02*X91029Y23350D01*
X90364Y25345D02*Y24015D01*
Y25345D02*X91029Y26010D01*
X92359D01*
X93024Y25345D01*
X90364Y24680D02*X93024D01*
Y25345D02*Y24680D01*
X94622Y26010D02*Y24680D01*
X95952Y23350D01*
X97282Y24680D01*
Y26010D02*Y24680D01*
X101273Y24015D02*X101938Y23350D01*
X101273Y28005D02*Y24015D01*
Y28005D02*X101938Y28670D01*
X103268D01*
X103933Y28005D01*
Y24015D01*
X103268Y23350D02*X103933Y24015D01*
X101938Y23350D02*X103268D01*
X101273Y24680D02*X103933Y27340D01*
X105530Y24015D02*X106195Y23350D01*
X105530Y28005D02*Y24015D01*
Y28005D02*X106195Y28670D01*
X107525D01*
X108190Y28005D01*
Y24015D01*
X107525Y23350D02*X108190Y24015D01*
X106195Y23350D02*X107525D01*
X105530Y24680D02*X108190Y27340D01*
X110453Y23350D02*X111783D01*
X111118Y28670D02*Y23350D01*
X109788Y27340D02*X111118Y28670D01*
X10555Y308890D02*Y304450D01*
X10000Y308890D02*X12220D01*
X12775Y308335D01*
Y307225D01*
X12220Y306670D02*X12775Y307225D01*
X10555Y306670D02*X12220D01*
X14108Y306115D02*Y305005D01*
Y306115D02*X14663Y306670D01*
X15773D01*
X16328Y306115D01*
Y305005D01*
X15773Y304450D02*X16328Y305005D01*
X14663Y304450D02*X15773D01*
X14108Y305005D02*X14663Y304450D01*
X17661Y306670D02*Y305005D01*
X18216Y304450D01*
X18771D01*
X19326Y305005D01*
Y306670D02*Y305005D01*
X19881Y304450D01*
X20436D01*
X20991Y305005D01*
Y306670D02*Y305005D01*
X22879Y304450D02*X24544D01*
X22324Y305005D02*X22879Y304450D01*
X22324Y306115D02*Y305005D01*
Y306115D02*X22879Y306670D01*
X23989D01*
X24544Y306115D01*
X22324Y305560D02*X24544D01*
Y306115D02*Y305560D01*
X26432Y306115D02*Y304450D01*
Y306115D02*X26987Y306670D01*
X28097D01*
X25877D02*X26432Y306115D01*
X33648Y308890D02*X34203Y308335D01*
X31983Y308890D02*X33648D01*
X31428Y308335D02*X31983Y308890D01*
X31428Y308335D02*Y307225D01*
X31983Y306670D01*
X33648D01*
X34203Y306115D01*
Y305005D01*
X33648Y304450D02*X34203Y305005D01*
X31983Y304450D02*X33648D01*
X31428Y305005D02*X31983Y304450D01*
X35536Y306670D02*Y305005D01*
X36091Y304450D01*
X37201D01*
X37756Y305005D01*
Y306670D02*Y305005D01*
X39644Y306115D02*Y302785D01*
X39089Y306670D02*X39644Y306115D01*
X40199Y306670D01*
X41309D01*
X41864Y306115D01*
Y305005D01*
X41309Y304450D02*X41864Y305005D01*
X40199Y304450D02*X41309D01*
X39644Y305005D02*X40199Y304450D01*
X43752Y306115D02*Y302785D01*
X43197Y306670D02*X43752Y306115D01*
X44307Y306670D01*
X45417D01*
X45972Y306115D01*
Y305005D01*
X45417Y304450D02*X45972Y305005D01*
X44307Y304450D02*X45417D01*
X43752Y305005D02*X44307Y304450D01*
X47305Y308890D02*Y305005D01*
X47860Y304450D01*
X48972Y306670D02*Y305005D01*
X49527Y304450D01*
X51192Y306670D02*Y303340D01*
X50637Y302785D02*X51192Y303340D01*
X49527Y302785D02*X50637D01*
X48972Y303340D02*X49527Y302785D01*
Y304450D02*X50637D01*
X51192Y305005D01*
X54523D02*X55078Y304450D01*
X54523Y308335D02*Y307225D01*
Y308335D02*X55078Y308890D01*
X54523Y306115D02*X56188Y307780D01*
X55078Y304450D02*X55633D01*
X56743Y305560D01*
X54523Y307225D02*X57298Y304450D01*
X55078Y308890D02*X55633D01*
X56188Y308335D01*
Y307780D01*
X54523Y306115D02*Y305005D01*
X61184Y308890D02*Y304450D01*
X62849Y308890D02*X63404Y308335D01*
Y305005D01*
X62849Y304450D02*X63404Y305005D01*
X60629Y304450D02*X62849D01*
X60629Y308890D02*X62849D01*
X64737Y307780D02*Y307225D01*
Y306115D02*Y304450D01*
X66403Y306115D02*Y304450D01*
Y306115D02*X66958Y306670D01*
X67513D01*
X68068Y306115D01*
Y304450D01*
Y306115D02*X68623Y306670D01*
X69178D01*
X69733Y306115D01*
Y304450D01*
X65848Y306670D02*X66403Y306115D01*
X71621D02*Y304450D01*
Y306115D02*X72176Y306670D01*
X72731D01*
X73286Y306115D01*
Y304450D01*
Y306115D02*X73841Y306670D01*
X74396D01*
X74951Y306115D01*
Y304450D01*
X71066Y306670D02*X71621Y306115D01*
X76839Y304450D02*X78504D01*
X76284Y305005D02*X76839Y304450D01*
X76284Y306115D02*Y305005D01*
Y306115D02*X76839Y306670D01*
X77949D01*
X78504Y306115D01*
X76284Y305560D02*X78504D01*
Y306115D02*Y305560D01*
X80392Y306115D02*Y304450D01*
Y306115D02*X80947Y306670D01*
X82057D01*
X79837D02*X80392Y306115D01*
X230665Y23670D02*Y18350D01*
X232660Y23670D02*X233325Y23005D01*
Y19015D01*
X232660Y18350D02*X233325Y19015D01*
X230000Y18350D02*X232660D01*
X230000Y23670D02*X232660D01*
X235587Y18350D02*X237582D01*
X234922Y19015D02*X235587Y18350D01*
X234922Y20345D02*Y19015D01*
Y20345D02*X235587Y21010D01*
X236917D01*
X237582Y20345D01*
X234922Y19680D02*X237582D01*
Y20345D02*Y19680D01*
X239844Y18350D02*X241839D01*
X242504Y19015D01*
X241839Y19680D02*X242504Y19015D01*
X239844Y19680D02*X241839D01*
X239179Y20345D02*X239844Y19680D01*
X239179Y20345D02*X239844Y21010D01*
X241839D01*
X242504Y20345D01*
X239179Y19015D02*X239844Y18350D01*
X244101Y22340D02*Y21675D01*
Y20345D02*Y18350D01*
X247428Y21010D02*X248093Y20345D01*
X246098Y21010D02*X247428D01*
X245433Y20345D02*X246098Y21010D01*
X245433Y20345D02*Y19015D01*
X246098Y18350D01*
X247428D01*
X248093Y19015D01*
X245433Y17020D02*X246098Y16355D01*
X247428D01*
X248093Y17020D01*
Y21010D02*Y17020D01*
X250355Y20345D02*Y18350D01*
Y20345D02*X251020Y21010D01*
X251685D01*
X252350Y20345D01*
Y18350D01*
X249690Y21010D02*X250355Y20345D01*
X254612Y18350D02*X256607D01*
X253947Y19015D02*X254612Y18350D01*
X253947Y20345D02*Y19015D01*
Y20345D02*X254612Y21010D01*
X255942D01*
X256607Y20345D01*
X253947Y19680D02*X256607D01*
Y20345D02*Y19680D01*
X260865Y23670D02*Y18350D01*
X260200D02*X260865Y19015D01*
X258870Y18350D02*X260200D01*
X258205Y19015D02*X258870Y18350D01*
X258205Y20345D02*Y19015D01*
Y20345D02*X258870Y21010D01*
X260200D01*
X260865Y20345D01*
X264856Y23670D02*Y18350D01*
Y19015D02*X265521Y18350D01*
X266851D01*
X267516Y19015D01*
Y20345D02*Y19015D01*
X266851Y21010D02*X267516Y20345D01*
X265521Y21010D02*X266851D01*
X264856Y20345D02*X265521Y21010D01*
X269113D02*Y19015D01*
X269778Y18350D01*
X271773Y21010D02*Y17020D01*
X271108Y16355D02*X271773Y17020D01*
X269778Y16355D02*X271108D01*
X269113Y17020D02*X269778Y16355D01*
Y18350D02*X271108D01*
X271773Y19015D01*
X278425Y23670D02*X279090Y23005D01*
X276430Y23670D02*X278425D01*
X275765Y23005D02*X276430Y23670D01*
X275765Y23005D02*Y21675D01*
X276430Y21010D01*
X278425D01*
X279090Y20345D01*
Y19015D01*
X278425Y18350D02*X279090Y19015D01*
X276430Y18350D02*X278425D01*
X275765Y19015D02*X276430Y18350D01*
X281352Y20345D02*Y16355D01*
X280687Y21010D02*X281352Y20345D01*
X282017Y21010D01*
X283347D01*
X284012Y20345D01*
Y19015D01*
X283347Y18350D02*X284012Y19015D01*
X282017Y18350D02*X283347D01*
X281352Y19015D02*X282017Y18350D01*
X286274D02*X288269D01*
X285609Y19015D02*X286274Y18350D01*
X285609Y20345D02*Y19015D01*
Y20345D02*X286274Y21010D01*
X287604D01*
X288269Y20345D01*
X285609Y19680D02*X288269D01*
Y20345D02*Y19680D01*
X290532Y20345D02*Y18350D01*
Y20345D02*X291197Y21010D01*
X291862D01*
X292527Y20345D01*
Y18350D01*
X289867Y21010D02*X290532Y20345D01*
X294789Y21010D02*X296784D01*
X294124Y20345D02*X294789Y21010D01*
X294124Y20345D02*Y19015D01*
X294789Y18350D01*
X296784D01*
X299046D02*X301041D01*
X298381Y19015D02*X299046Y18350D01*
X298381Y20345D02*Y19015D01*
Y20345D02*X299046Y21010D01*
X300376D01*
X301041Y20345D01*
X298381Y19680D02*X301041D01*
Y20345D02*Y19680D01*
X303304Y20345D02*Y18350D01*
Y20345D02*X303969Y21010D01*
X305299D01*
X302639D02*X303304Y20345D01*
X309290Y23670D02*X311950D01*
X312615Y23005D01*
Y21675D01*
X311950Y21010D02*X312615Y21675D01*
X309955Y21010D02*X311950D01*
X309955Y23670D02*Y18350D01*
Y21010D02*X312615Y18350D01*
X314212Y21010D02*Y19015D01*
X314877Y18350D01*
X316207D01*
X316872Y19015D01*
Y21010D02*Y19015D01*
X319135Y18350D02*X321130D01*
X321795Y19015D01*
X321130Y19680D02*X321795Y19015D01*
X319135Y19680D02*X321130D01*
X318470Y20345D02*X319135Y19680D01*
X318470Y20345D02*X319135Y21010D01*
X321130D01*
X321795Y20345D01*
X318470Y19015D02*X319135Y18350D01*
X324057D02*X326052D01*
X326717Y19015D01*
X326052Y19680D02*X326717Y19015D01*
X324057Y19680D02*X326052D01*
X323392Y20345D02*X324057Y19680D01*
X323392Y20345D02*X324057Y21010D01*
X326052D01*
X326717Y20345D01*
X323392Y19015D02*X324057Y18350D01*
X328979D02*X330974D01*
X328314Y19015D02*X328979Y18350D01*
X328314Y20345D02*Y19015D01*
Y20345D02*X328979Y21010D01*
X330309D01*
X330974Y20345D01*
X328314Y19680D02*X330974D01*
Y20345D02*Y19680D01*
X332572Y23670D02*Y19015D01*
X333237Y18350D01*
X334568Y23670D02*Y19015D01*
X335233Y18350D01*
X350000Y154000D02*X352000D01*
X351000D02*Y150000D01*
X353201Y151500D02*Y150500D01*
Y151500D02*X353701Y152000D01*
X354701D01*
X355201Y151500D01*
Y150500D01*
X354701Y150000D02*X355201Y150500D01*
X353701Y150000D02*X354701D01*
X353201Y150500D02*X353701Y150000D01*
X358202Y154000D02*Y150000D01*
X360202D01*
X361403Y151500D02*Y150500D01*
Y151500D02*X361903Y152000D01*
X362903D01*
X363403Y151500D01*
Y150500D01*
X362903Y150000D02*X363403Y150500D01*
X361903Y150000D02*X362903D01*
X361403Y150500D02*X361903Y150000D01*
X366104Y152000D02*X366604Y151500D01*
X365104Y152000D02*X366104D01*
X364604Y151500D02*X365104Y152000D01*
X364604Y151500D02*Y150500D01*
X365104Y150000D01*
X366104D01*
X366604Y150500D01*
X364604Y149000D02*X365104Y148500D01*
X366104D01*
X366604Y149000D01*
Y152000D02*Y149000D01*
X367805Y153000D02*Y152500D01*
Y151500D02*Y150000D01*
X369306Y152000D02*X370806D01*
X368806Y151500D02*X369306Y152000D01*
X368806Y151500D02*Y150500D01*
X369306Y150000D01*
X370806D01*
X95000Y311000D02*Y161000D01*
Y311000D02*X190000D01*
Y161000D01*
X95000D02*X190000D01*
X43000Y187500D02*X243000D01*
Y287500D02*Y187500D01*
X43000Y287500D02*X243000D01*
X43000D02*Y187500D01*
X108500Y341500D02*X183500D01*
Y324000D01*
X109000D02*X183500D01*
X108500Y341500D02*Y324000D01*
X183500Y331500D02*X176000Y324000D01*
X20000Y185000D02*G75*G03X20000Y185000I10000J0D01*G01*
Y135000D02*G75*G03X20000Y135000I10000J0D01*G01*
Y85000D02*G75*G03X20000Y85000I10000J0D01*G01*
X55000Y50000D02*G75*G03X55000Y50000I10000J0D01*G01*
X56910Y91190D02*X62410D01*
Y102690D02*Y79690D01*
X119410D01*
Y102690D02*Y79690D01*
X62410Y102690D02*X119410D01*
Y91190D02*X125910D01*
X57500Y152500D02*Y117500D01*
X227500D01*
Y152500D01*
X57500D01*
X62500Y150000D02*Y120000D01*
X120000D01*
Y150000D01*
X62500D01*
X222500D02*Y120000D01*
X165000D01*
Y150000D01*
X222500D01*
X133670Y60000D02*G75*G03X133670Y60000I47000J0D01*G01*
X169870D02*G75*G03X169870Y60000I10800J0D01*G01*
X100000Y50000D02*G75*G03X100000Y50000I10000J0D01*G01*
X294474Y344916D02*Y340916D01*
X292474Y342916D02*X296474D01*
X294474Y256916D02*Y252916D01*
Y338916D02*G75*G03X294474Y338916I0J-40000D01*G01*
X283500Y78000D02*Y33500D01*
X276500D02*X283500D01*
X276500Y78000D02*Y33500D01*
Y78000D02*X283500D01*
X254160Y50860D02*Y45360D01*
X242660Y50860D02*X265660D01*
Y107860D02*Y50860D01*
X242660Y107860D02*X265660D01*
X242660D02*Y50860D01*
X254160Y114360D02*Y107860D01*
X325000Y90000D02*X355000D01*
X325000D02*Y50000D01*
X355000D01*
Y90000D02*Y75000D01*
Y65000D02*Y50000D01*
Y75000D02*G75*G03X355000Y65000I0J-5000D01*G01*
X346340Y111450D02*X351840D01*
X346340Y122950D02*Y99950D01*
X289340Y122950D02*X346340D01*
X289340D02*Y99950D01*
X346340D01*
X282840Y111450D02*X289340D01*
G54D11*X370000Y110000D02*Y90000D01*
Y110000D02*X380000D01*
Y90000D01*
X370000D02*X380000D01*
X375000D02*Y80000D01*
Y120000D02*Y110000D01*
G54D51*X350000Y125000D02*X380000D01*
Y145000D02*Y125000D01*
X350000Y145000D02*X380000D01*
X350000D02*Y125000D01*
X360000Y135000D02*Y125000D01*
X350000Y135000D02*X360000D01*
G54D52*X293000Y90000D02*Y50000D01*
Y90000D02*X311000D01*
Y50000D01*
X293000D02*X311000D01*
X293000Y90000D02*X299000D01*
Y50000D01*
X293000D02*X299000D01*
G54D51*X293000Y63000D02*X299000D01*
X293000Y77000D02*X299000D01*
G54D52*X350000Y297000D02*X390000D01*
Y279000D01*
X350000D02*X390000D01*
X350000Y297000D02*Y279000D01*
X390000Y297000D02*Y291000D01*
X350000D02*X390000D01*
X350000Y297000D02*Y291000D01*
G54D51*X363000Y297000D02*Y291000D01*
X377000Y297000D02*Y291000D01*
X340000Y265000D02*X353300D01*
X366700D02*X380000D01*
X353300D02*X366700Y271600D01*
Y258400D01*
X353300Y265000D01*
Y271600D02*Y258400D01*
X355000Y255000D02*Y245000D01*
X385000D01*
Y255000D02*Y245000D01*
X355000Y255000D02*X385000D01*
X366700Y310000D02*X380000D01*
X340000D02*X353300D01*
X366700D02*X353300Y303400D01*
Y316600D02*Y303400D01*
Y316600D02*X366700Y310000D01*
Y316600D02*Y303400D01*
G54D52*X350000Y222000D02*X390000D01*
Y204000D01*
X350000D02*X390000D01*
X350000Y222000D02*Y204000D01*
X390000Y222000D02*Y216000D01*
X350000D02*X390000D01*
X350000Y222000D02*Y216000D01*
G54D51*X363000Y222000D02*Y216000D01*
X377000Y222000D02*Y216000D01*
X293983Y159499D02*Y155499D01*
X291983Y157499D02*X295983D01*
X293983Y247499D02*Y243499D01*
Y161499D02*G75*G03X293983Y161499I0J40000D01*G01*
X309220Y141520D02*X314720D01*
X309220Y153020D02*Y130020D01*
X252220Y153020D02*X309220D01*
X252220D02*Y130020D01*
X309220D01*
X245720Y141520D02*X252220D01*
X385000Y180000D02*Y170000D01*
X355000Y180000D02*X385000D01*
X355000D02*Y170000D01*
X385000D01*
X366700Y190000D02*X380000D01*
X340000D02*X353300D01*
X366700D02*X353300Y183400D01*
Y196600D02*Y183400D01*
Y196600D02*X366700Y190000D01*
Y196600D02*Y183400D01*
X340000Y235000D02*X353300D01*
X366700D02*X380000D01*
X353300D02*X366700Y241600D01*
Y228400D01*
X353300Y235000D01*
Y241600D02*Y228400D01*
X270000Y49500D02*Y48000D01*
X270500Y50000D02*X270000Y49500D01*
X270500Y50000D02*X273500D01*
X274000Y49500D01*
Y48000D01*
X273500Y46799D02*X274000Y46299D01*
Y44799D01*
X273500Y44299D01*
X272500D02*X273500D01*
X270000Y46799D02*X272500Y44299D01*
X270000Y46799D02*Y44299D01*
X270500Y43098D02*X270000Y42598D01*
X270500Y43098D02*X273500D01*
X274000Y42598D01*
Y41598D01*
X273500Y41098D01*
X270500D02*X273500D01*
X270000Y41598D02*X270500Y41098D01*
X270000Y42598D02*Y41598D01*
X271000Y43098D02*X273000Y41098D01*
X270000Y39397D02*Y38397D01*
Y38897D02*X274000D01*
X273000Y39897D02*X274000Y38897D01*
X253140Y68160D02*Y65160D01*
Y68160D02*X253890Y68910D01*
X255390D01*
X256140Y68160D02*X255390Y68910D01*
X256140Y68160D02*Y65910D01*
X253140D02*X259140D01*
X256140D02*X259140Y68910D01*
X253890Y70711D02*X253140Y71461D01*
Y73711D02*Y71461D01*
Y73711D02*X253890Y74461D01*
X255390D01*
X259140Y70711D02*X255390Y74461D01*
X259140D02*Y70711D01*
X258390Y76263D02*X259140Y77013D01*
X253890Y76263D02*X258390D01*
X253890D02*X253140Y77013D01*
Y78513D02*Y77013D01*
Y78513D02*X253890Y79263D01*
X258390D01*
X259140Y78513D02*X258390Y79263D01*
X259140Y78513D02*Y77013D01*
X257640Y76263D02*X254640Y79263D01*
X253890Y81064D02*X253140Y81814D01*
Y83314D02*Y81814D01*
Y83314D02*X253890Y84064D01*
X258390D01*
X259140Y83314D02*X258390Y84064D01*
X259140Y83314D02*Y81814D01*
X258390Y81064D02*X259140Y81814D01*
X256140Y84064D02*Y81814D01*
X176527Y62144D02*Y58144D01*
X178527D01*
X179728Y61644D02*X180228Y62144D01*
X181728D01*
X182228Y61644D01*
Y60644D01*
X179728Y58144D02*X182228Y60644D01*
X179728Y58144D02*X182228D01*
X183429Y58644D02*X183929Y58144D01*
X183429Y61644D02*Y58644D01*
Y61644D02*X183929Y62144D01*
X184929D01*
X185429Y61644D01*
Y58644D01*
X184929Y58144D02*X185429Y58644D01*
X183929Y58144D02*X184929D01*
X183429Y59144D02*X185429Y61144D01*
X187130Y58144D02*X188130D01*
X187630Y62144D02*Y58144D01*
X186630Y61144D02*X187630Y62144D01*
X315000Y52500D02*X319000D01*
X315000Y54000D02*X315500Y54500D01*
X318500D01*
X319000Y54000D02*X318500Y54500D01*
X319000Y54000D02*Y52000D01*
X315000Y54000D02*Y52000D01*
X315500Y55701D02*X315000Y56201D01*
Y57701D02*Y56201D01*
Y57701D02*X315500Y58201D01*
X316500D01*
X319000Y55701D02*X316500Y58201D01*
X319000D02*Y55701D01*
X318500Y59402D02*X319000Y59902D01*
X315500Y59402D02*X318500D01*
X315500D02*X315000Y59902D01*
Y60902D02*Y59902D01*
Y60902D02*X315500Y61402D01*
X318500D01*
X319000Y60902D02*X318500Y61402D01*
X319000Y60902D02*Y59902D01*
X318000Y59402D02*X316000Y61402D01*
X319000Y64103D02*Y63103D01*
X315000Y63603D02*X319000D01*
X316000Y62603D02*X315000Y63603D01*
X374000Y94000D02*Y92000D01*
Y94000D02*X374500Y94500D01*
X375500D01*
X376000Y94000D02*X375500Y94500D01*
X376000Y94000D02*Y92500D01*
X374000D02*X378000D01*
X376000D02*X378000Y94500D01*
X374500Y95701D02*X374000Y96201D01*
Y97701D02*Y96201D01*
Y97701D02*X374500Y98201D01*
X375500D01*
X378000Y95701D02*X375500Y98201D01*
X378000D02*Y95701D01*
X377500Y99402D02*X378000Y99902D01*
X374500Y99402D02*X377500D01*
X374500D02*X374000Y99902D01*
Y100902D02*Y99902D01*
Y100902D02*X374500Y101402D01*
X377500D01*
X378000Y100902D02*X377500Y101402D01*
X378000Y100902D02*Y99902D01*
X377000Y99402D02*X375000Y101402D01*
X378000Y104103D02*Y103103D01*
X374000Y103603D02*X378000D01*
X375000Y102603D02*X374000Y103603D01*
X337500Y75000D02*X341000D01*
X337500D02*X337000Y74500D01*
Y73500D01*
X337500Y73000D01*
X341000D01*
X340500Y71799D02*X341000Y71299D01*
Y69799D01*
X340500Y69299D01*
X339500D02*X340500D01*
X337000Y71799D02*X339500Y69299D01*
X337000Y71799D02*Y69299D01*
X337500Y68098D02*X337000Y67598D01*
X337500Y68098D02*X340500D01*
X341000Y67598D01*
Y66598D01*
X340500Y66098D01*
X337500D02*X340500D01*
X337000Y66598D02*X337500Y66098D01*
X337000Y67598D02*Y66598D01*
X338000Y68098D02*X340000Y66098D01*
X337000Y64397D02*Y63397D01*
Y63897D02*X341000D01*
X340000Y64897D02*X341000Y63897D01*
X307450Y114660D02*X310450D01*
X311200Y113910D01*
Y112410D01*
X310450Y111660D02*X311200Y112410D01*
X308200Y111660D02*X310450D01*
X308200Y114660D02*Y108660D01*
Y111660D02*X311200Y108660D01*
X313001Y113910D02*X313751Y114660D01*
X316001D01*
X316751Y113910D01*
Y112410D01*
X313001Y108660D02*X316751Y112410D01*
X313001Y108660D02*X316751D01*
X318553Y109410D02*X319303Y108660D01*
X318553Y113910D02*Y109410D01*
Y113910D02*X319303Y114660D01*
X320803D01*
X321553Y113910D01*
Y109410D01*
X320803Y108660D02*X321553Y109410D01*
X319303Y108660D02*X320803D01*
X318553Y110160D02*X321553Y113160D01*
X323354Y111660D02*X326354Y114660D01*
X323354Y111660D02*X327104D01*
X326354Y114660D02*Y108660D01*
X79810Y93410D02*X82810D01*
X83560Y92660D01*
Y91160D01*
X82810Y90410D02*X83560Y91160D01*
X80560Y90410D02*X82810D01*
X80560Y93410D02*Y87410D01*
Y90410D02*X83560Y87410D01*
X86111D02*X87611D01*
X86861Y93410D02*Y87410D01*
X85361Y91910D02*X86861Y93410D01*
X89413Y88160D02*X90163Y87410D01*
X89413Y92660D02*Y88160D01*
Y92660D02*X90163Y93410D01*
X91663D01*
X92413Y92660D01*
Y88160D01*
X91663Y87410D02*X92413Y88160D01*
X90163Y87410D02*X91663D01*
X89413Y88910D02*X92413Y91910D01*
X94964Y87410D02*X96464D01*
X95714Y93410D02*Y87410D01*
X94214Y91910D02*X95714Y93410D01*
X70000Y114000D02*Y110000D01*
Y114000D02*X72000D01*
X70000Y112000D02*X71500D01*
X73701Y110000D02*X74701D01*
X74201Y114000D02*Y110000D01*
X73201Y113000D02*X74201Y114000D01*
X75902Y110500D02*X76402Y110000D01*
X75902Y113500D02*Y110500D01*
Y113500D02*X76402Y114000D01*
X77402D01*
X77902Y113500D01*
Y110500D01*
X77402Y110000D02*X77902Y110500D01*
X76402Y110000D02*X77402D01*
X75902Y111000D02*X77902Y113000D01*
X79603Y110000D02*X80603D01*
X80103Y114000D02*Y110000D01*
X79103Y113000D02*X80103Y114000D01*
X272520Y141780D02*X275520D01*
X276270Y141030D01*
Y139530D01*
X275520Y138780D02*X276270Y139530D01*
X273270Y138780D02*X275520D01*
X273270Y141780D02*Y135780D01*
Y138780D02*X276270Y135780D01*
X278071Y141030D02*X278821Y141780D01*
X281071D01*
X281821Y141030D01*
Y139530D01*
X278071Y135780D02*X281821Y139530D01*
X278071Y135780D02*X281821D01*
X283623Y136530D02*X284373Y135780D01*
X283623Y141030D02*Y136530D01*
Y141030D02*X284373Y141780D01*
X285873D01*
X286623Y141030D01*
Y136530D01*
X285873Y135780D02*X286623Y136530D01*
X284373Y135780D02*X285873D01*
X283623Y137280D02*X286623Y140280D01*
X288424Y141030D02*X289174Y141780D01*
X291424D01*
X292174Y141030D01*
Y139530D01*
X288424Y135780D02*X292174Y139530D01*
X288424Y135780D02*X292174D01*
X333750Y171900D02*X336000D01*
X333000Y172650D02*X333750Y171900D01*
X333000Y177150D02*Y172650D01*
Y177150D02*X333750Y177900D01*
X336000D01*
X338551Y171900D02*X340051D01*
X339301Y177900D02*Y171900D01*
X337801Y176400D02*X339301Y177900D01*
X341853Y172650D02*X342603Y171900D01*
X341853Y177150D02*Y172650D01*
Y177150D02*X342603Y177900D01*
X344103D01*
X344853Y177150D01*
Y172650D01*
X344103Y171900D02*X344853Y172650D01*
X342603Y171900D02*X344103D01*
X341853Y173400D02*X344853Y176400D01*
X346654Y174900D02*X349654Y177900D01*
X346654Y174900D02*X350404D01*
X349654Y177900D02*Y171900D01*
X136000Y239000D02*X138000D01*
X137000D02*Y235000D01*
X139701D02*X140701D01*
X140201Y239000D02*Y235000D01*
X139201Y238000D02*X140201Y239000D01*
X141902Y235500D02*X142402Y235000D01*
X141902Y238500D02*Y235500D01*
Y238500D02*X142402Y239000D01*
X143402D01*
X143902Y238500D01*
Y235500D01*
X143402Y235000D02*X143902Y235500D01*
X142402Y235000D02*X143402D01*
X141902Y236000D02*X143902Y238000D01*
X145603Y235000D02*X146603D01*
X146103Y239000D02*Y235000D01*
X145103Y238000D02*X146103Y239000D01*
X291584Y294474D02*X293084D01*
X291084Y294974D02*X291584Y294474D01*
X291084Y297974D02*Y294974D01*
Y297974D02*X291584Y298474D01*
X293084D01*
X294785Y294474D02*X295785D01*
X295285Y298474D02*Y294474D01*
X294285Y297474D02*X295285Y298474D01*
X296986Y294974D02*X297486Y294474D01*
X296986Y297974D02*Y294974D01*
Y297974D02*X297486Y298474D01*
X298486D01*
X298986Y297974D01*
Y294974D01*
X298486Y294474D02*X298986Y294974D01*
X297486Y294474D02*X298486D01*
X296986Y295474D02*X298986Y297474D01*
X300687Y294474D02*X301687D01*
X301187Y298474D02*Y294474D01*
X300187Y297474D02*X301187Y298474D01*
X337000Y220000D02*Y216500D01*
X337500Y216000D01*
X338500D01*
X339000Y216500D01*
Y220000D02*Y216500D01*
X340701Y216000D02*X341701D01*
X341201Y220000D02*Y216000D01*
X340201Y219000D02*X341201Y220000D01*
X342902Y216500D02*X343402Y216000D01*
X342902Y219500D02*Y216500D01*
Y219500D02*X343402Y220000D01*
X344402D01*
X344902Y219500D01*
Y216500D01*
X344402Y216000D02*X344902Y216500D01*
X343402Y216000D02*X344402D01*
X342902Y217000D02*X344902Y219000D01*
X346103Y219500D02*X346603Y220000D01*
X347603D01*
X348103Y219500D01*
Y216500D01*
X347603Y216000D02*X348103Y216500D01*
X346603Y216000D02*X347603D01*
X346103Y216500D02*X346603Y216000D01*
Y218000D02*X348103D01*
X139000Y320000D02*Y316500D01*
X139500Y316000D01*
X140500D01*
X141000Y316500D01*
Y320000D02*Y316500D01*
X142701Y316000D02*X143701D01*
X143201Y320000D02*Y316000D01*
X142201Y319000D02*X143201Y320000D01*
X144902Y316500D02*X145402Y316000D01*
X144902Y319500D02*Y316500D01*
Y319500D02*X145402Y320000D01*
X146402D01*
X146902Y319500D01*
Y316500D01*
X146402Y316000D02*X146902Y316500D01*
X145402Y316000D02*X146402D01*
X144902Y317000D02*X146902Y319000D01*
X148603Y316000D02*X149603D01*
X149103Y320000D02*Y316000D01*
X148103Y319000D02*X149103Y320000D01*
X320500Y264000D02*Y260000D01*
X322000Y264000D02*X322500Y263500D01*
Y260500D01*
X322000Y260000D02*X322500Y260500D01*
X320000Y260000D02*X322000D01*
X320000Y264000D02*X322000D01*
X324201Y260000D02*X325201D01*
X324701Y264000D02*Y260000D01*
X323701Y263000D02*X324701Y264000D01*
X326402Y260500D02*X326902Y260000D01*
X326402Y263500D02*Y260500D01*
Y263500D02*X326902Y264000D01*
X327902D01*
X328402Y263500D01*
Y260500D01*
X327902Y260000D02*X328402Y260500D01*
X326902Y260000D02*X327902D01*
X326402Y261000D02*X328402Y263000D01*
X330103Y260000D02*X331103D01*
X330603Y264000D02*Y260000D01*
X329603Y263000D02*X330603Y264000D01*
X320500Y244000D02*Y240000D01*
X322000Y244000D02*X322500Y243500D01*
Y240500D01*
X322000Y240000D02*X322500Y240500D01*
X320000Y240000D02*X322000D01*
X320000Y244000D02*X322000D01*
X324201Y240000D02*X325201D01*
X324701Y244000D02*Y240000D01*
X323701Y243000D02*X324701Y244000D01*
X326402Y240500D02*X326902Y240000D01*
X326402Y243500D02*Y240500D01*
Y243500D02*X326902Y244000D01*
X327902D01*
X328402Y243500D01*
Y240500D01*
X327902Y240000D02*X328402Y240500D01*
X326902Y240000D02*X327902D01*
X326402Y241000D02*X328402Y243000D01*
X329603Y243500D02*X330103Y244000D01*
X331103D01*
X331603Y243500D01*
Y240500D01*
X331103Y240000D02*X331603Y240500D01*
X330103Y240000D02*X331103D01*
X329603Y240500D02*X330103Y240000D01*
Y242000D02*X331603D01*
X286999Y201017D02*X288499D01*
X286499Y201517D02*X286999Y201017D01*
X286499Y204517D02*Y201517D01*
Y204517D02*X286999Y205017D01*
X288499D01*
X290200Y201017D02*X291200D01*
X290700Y205017D02*Y201017D01*
X289700Y204017D02*X290700Y205017D01*
X292401Y201517D02*X292901Y201017D01*
X292401Y204517D02*Y201517D01*
Y204517D02*X292901Y205017D01*
X293901D01*
X294401Y204517D01*
Y201517D01*
X293901Y201017D02*X294401Y201517D01*
X292901Y201017D02*X293901D01*
X292401Y202017D02*X294401Y204017D01*
X295602Y204517D02*X296102Y205017D01*
X297602D01*
X298102Y204517D01*
Y203517D01*
X295602Y201017D02*X298102Y203517D01*
X295602Y201017D02*X298102D01*
X337000Y280000D02*Y276500D01*
X337500Y276000D01*
X338500D01*
X339000Y276500D01*
Y280000D02*Y276500D01*
X340701Y276000D02*X341701D01*
X341201Y280000D02*Y276000D01*
X340201Y279000D02*X341201Y280000D01*
X342902Y276500D02*X343402Y276000D01*
X342902Y279500D02*Y276500D01*
Y279500D02*X343402Y280000D01*
X344402D01*
X344902Y279500D01*
Y276500D01*
X344402Y276000D02*X344902Y276500D01*
X343402Y276000D02*X344402D01*
X342902Y277000D02*X344902Y279000D01*
X346103Y279500D02*X346603Y280000D01*
X348103D01*
X348603Y279500D01*
Y278500D01*
X346103Y276000D02*X348603Y278500D01*
X346103Y276000D02*X348603D01*
X340500Y324000D02*Y320000D01*
X342000Y324000D02*X342500Y323500D01*
Y320500D01*
X342000Y320000D02*X342500Y320500D01*
X340000Y320000D02*X342000D01*
X340000Y324000D02*X342000D01*
X344201Y320000D02*X345201D01*
X344701Y324000D02*Y320000D01*
X343701Y323000D02*X344701Y324000D01*
X346402Y320500D02*X346902Y320000D01*
X346402Y323500D02*Y320500D01*
Y323500D02*X346902Y324000D01*
X347902D01*
X348402Y323500D01*
Y320500D01*
X347902Y320000D02*X348402Y320500D01*
X346902Y320000D02*X347902D01*
X346402Y321000D02*X348402Y323000D01*
X349603Y322000D02*X351603Y324000D01*
X349603Y322000D02*X352103D01*
X351603Y324000D02*Y320000D01*
X333750Y246900D02*X336000D01*
X333000Y247650D02*X333750Y246900D01*
X333000Y252150D02*Y247650D01*
Y252150D02*X333750Y252900D01*
X336000D01*
X338551Y246900D02*X340051D01*
X339301Y252900D02*Y246900D01*
X337801Y251400D02*X339301Y252900D01*
X341853Y247650D02*X342603Y246900D01*
X341853Y252150D02*Y247650D01*
Y252150D02*X342603Y252900D01*
X344103D01*
X344853Y252150D01*
Y247650D01*
X344103Y246900D02*X344853Y247650D01*
X342603Y246900D02*X344103D01*
X341853Y248400D02*X344853Y251400D01*
X346654Y252150D02*X347404Y252900D01*
X348904D01*
X349654Y252150D01*
Y247650D01*
X348904Y246900D02*X349654Y247650D01*
X347404Y246900D02*X348904D01*
X346654Y247650D02*X347404Y246900D01*
Y249900D02*X349654D01*
X383935Y201490D02*Y197490D01*
X385435Y201490D02*X385935Y200990D01*
Y197990D01*
X385435Y197490D02*X385935Y197990D01*
X383435Y197490D02*X385435D01*
X383435Y201490D02*X385435D01*
X387636Y197490D02*X388636D01*
X388136Y201490D02*Y197490D01*
X387136Y200490D02*X388136Y201490D01*
X389837Y197990D02*X390337Y197490D01*
X389837Y200990D02*Y197990D01*
Y200990D02*X390337Y201490D01*
X391337D01*
X391837Y200990D01*
Y197990D01*
X391337Y197490D02*X391837Y197990D01*
X390337Y197490D02*X391337D01*
X389837Y198490D02*X391837Y200490D01*
X393038Y200990D02*X393538Y201490D01*
X395038D01*
X395538Y200990D01*
Y199990D01*
X393038Y197490D02*X395538Y199990D01*
X393038Y197490D02*X395538D01*
M02*
