G04 start of page 2 for group 0 idx 0 *
G04 Title: highvoltage, component *
G04 Creator: pcb 20091103 *
G04 CreationDate: Tue 04 May 2010 03:37:29 PM GMT UTC *
G04 For: srussell *
G04 Format: Gerber/RS-274X *
G04 PCB-Dimensions: 400000 350000 *
G04 PCB-Coordinate-Origin: lower left *
%MOIN*%
%FSLAX25Y25*%
%LNFRONT*%
%ADD11C,0.0200*%
%ADD12C,0.0850*%
%ADD13C,0.1500*%
%ADD14C,0.3000*%
%ADD15C,0.2000*%
%ADD16C,0.0600*%
%ADD17C,0.1150*%
%ADD18C,0.0650*%
%ADD19C,0.0680*%
%ADD20C,0.1000*%
%ADD21C,0.0700*%
%ADD22C,0.0560*%
%ADD23C,0.0800*%
%ADD24C,0.1840*%
%ADD25C,0.0480*%
%ADD26C,0.0508*%
%ADD27C,0.0280*%
%ADD28C,0.0473*%
%ADD29C,0.0380*%
%ADD30C,0.0400*%
%ADD31C,0.0300*%
%ADD32C,0.0350*%
%ADD33C,0.1250*%
G54D11*G36*
X375000Y350000D02*X400000D01*
Y0D01*
X375000D01*
Y19975D01*
X375333Y20680D01*
X375679Y21625D01*
X375939Y22598D01*
X376110Y23591D01*
X376192Y24595D01*
X376183Y25602D01*
X376084Y26604D01*
X375895Y27593D01*
X375618Y28561D01*
X375256Y29501D01*
X375000Y30019D01*
Y75100D01*
X378400D01*
X378660Y75123D01*
X378913Y75190D01*
X379150Y75301D01*
X379364Y75451D01*
X379549Y75636D01*
X379699Y75850D01*
X379810Y76087D01*
X379877Y76340D01*
X379900Y76600D01*
Y83400D01*
X379877Y83660D01*
X379810Y83913D01*
X379699Y84150D01*
X379549Y84364D01*
X379364Y84549D01*
X379150Y84699D01*
X378913Y84810D01*
X378660Y84877D01*
X378400Y84900D01*
X375000D01*
Y115100D01*
X375851Y115174D01*
X376676Y115396D01*
X377450Y115756D01*
X378150Y116246D01*
X378754Y116850D01*
X379244Y117550D01*
X379604Y118324D01*
X379826Y119149D01*
X379900Y120000D01*
X379826Y120851D01*
X379604Y121676D01*
X379244Y122450D01*
X378754Y123150D01*
X378150Y123754D01*
X377450Y124244D01*
X376676Y124604D01*
X375851Y124826D01*
X375000Y124900D01*
Y125250D01*
X375825Y125322D01*
X376625Y125536D01*
X377375Y125886D01*
X378053Y126361D01*
X378639Y126947D01*
X379114Y127625D01*
X379464Y128375D01*
X379678Y129175D01*
X379750Y130000D01*
X379678Y130825D01*
X379464Y131625D01*
X379114Y132375D01*
X378639Y133053D01*
X378053Y133639D01*
X377375Y134114D01*
X376625Y134464D01*
X375825Y134678D01*
X375000Y134750D01*
Y135250D01*
X375825Y135322D01*
X376625Y135536D01*
X377375Y135886D01*
X378053Y136361D01*
X378639Y136947D01*
X379114Y137625D01*
X379464Y138375D01*
X379678Y139175D01*
X379750Y140000D01*
X379678Y140825D01*
X379464Y141625D01*
X379114Y142375D01*
X378639Y143053D01*
X378053Y143639D01*
X377375Y144114D01*
X376625Y144464D01*
X375825Y144678D01*
X375000Y144750D01*
Y324975D01*
X375333Y325680D01*
X375679Y326625D01*
X375939Y327598D01*
X376110Y328591D01*
X376192Y329595D01*
X376183Y330602D01*
X376084Y331604D01*
X375895Y332593D01*
X375618Y333561D01*
X375256Y334501D01*
X375000Y335019D01*
Y350000D01*
G37*
G36*
X368826D02*X375000D01*
Y335019D01*
X374810Y335404D01*
X374285Y336263D01*
X374175Y336398D01*
X374044Y336513D01*
X373894Y336603D01*
X373732Y336665D01*
X373561Y336698D01*
X373386Y336701D01*
X373214Y336674D01*
X373049Y336617D01*
X372897Y336533D01*
X372762Y336423D01*
X372647Y336292D01*
X372557Y336142D01*
X372495Y335980D01*
X372462Y335809D01*
X372459Y335634D01*
X372486Y335462D01*
X372543Y335297D01*
X372627Y335145D01*
X373058Y334439D01*
X373424Y333697D01*
X373722Y332926D01*
X373950Y332130D01*
X374105Y331318D01*
X374186Y330494D01*
X374193Y329667D01*
X374126Y328843D01*
X373985Y328027D01*
X373772Y327228D01*
X373487Y326451D01*
X373134Y325703D01*
X372715Y324990D01*
Y324989D01*
X372633Y324835D01*
X372580Y324669D01*
X372555Y324497D01*
X372562Y324322D01*
X372598Y324152D01*
X372663Y323990D01*
X372756Y323843D01*
X372873Y323713D01*
X373010Y323606D01*
X373164Y323524D01*
X373330Y323471D01*
X373502Y323446D01*
X373677Y323453D01*
X373847Y323489D01*
X374009Y323554D01*
X374156Y323647D01*
X374286Y323764D01*
X374393Y323901D01*
X374903Y324769D01*
X375000Y324975D01*
Y144750D01*
X374175Y144678D01*
X373375Y144464D01*
X372625Y144114D01*
X371947Y143639D01*
X371361Y143053D01*
X370886Y142375D01*
X370536Y141625D01*
X370322Y140825D01*
X370250Y140000D01*
X370322Y139175D01*
X370536Y138375D01*
X370886Y137625D01*
X371361Y136947D01*
X371947Y136361D01*
X372625Y135886D01*
X373375Y135536D01*
X374175Y135322D01*
X375000Y135250D01*
Y134750D01*
X374175Y134678D01*
X373375Y134464D01*
X372625Y134114D01*
X371947Y133639D01*
X371361Y133053D01*
X370886Y132375D01*
X370536Y131625D01*
X370322Y130825D01*
X370250Y130000D01*
X370322Y129175D01*
X370536Y128375D01*
X370886Y127625D01*
X371361Y126947D01*
X371947Y126361D01*
X372625Y125886D01*
X373375Y125536D01*
X374175Y125322D01*
X375000Y125250D01*
Y124900D01*
X374149Y124826D01*
X373324Y124604D01*
X372550Y124244D01*
X371850Y123754D01*
X371246Y123150D01*
X370756Y122450D01*
X370396Y121676D01*
X370174Y120851D01*
X370100Y120000D01*
X370174Y119149D01*
X370396Y118324D01*
X370756Y117550D01*
X371246Y116850D01*
X371850Y116246D01*
X372550Y115756D01*
X373324Y115396D01*
X374149Y115174D01*
X375000Y115100D01*
Y84900D01*
X371600D01*
X371340Y84877D01*
X371087Y84810D01*
X370850Y84699D01*
X370636Y84549D01*
X370451Y84364D01*
X370301Y84150D01*
X370190Y83913D01*
X370123Y83660D01*
X370100Y83400D01*
Y76600D01*
X370123Y76340D01*
X370190Y76087D01*
X370301Y75850D01*
X370451Y75636D01*
X370636Y75451D01*
X370850Y75301D01*
X371087Y75190D01*
X371340Y75123D01*
X371600Y75100D01*
X375000D01*
Y30019D01*
X374810Y30404D01*
X374285Y31263D01*
X374175Y31398D01*
X374044Y31513D01*
X373894Y31603D01*
X373732Y31665D01*
X373561Y31698D01*
X373386Y31701D01*
X373214Y31674D01*
X373049Y31617D01*
X372897Y31533D01*
X372762Y31423D01*
X372647Y31292D01*
X372557Y31142D01*
X372495Y30980D01*
X372462Y30809D01*
X372459Y30634D01*
X372486Y30462D01*
X372543Y30297D01*
X372627Y30145D01*
X373058Y29439D01*
X373424Y28697D01*
X373722Y27926D01*
X373950Y27130D01*
X374105Y26318D01*
X374186Y25494D01*
X374193Y24667D01*
X374126Y23843D01*
X373985Y23027D01*
X373772Y22228D01*
X373487Y21451D01*
X373134Y20703D01*
X372715Y19990D01*
Y19989D01*
X372633Y19835D01*
X372580Y19669D01*
X372555Y19497D01*
X372562Y19322D01*
X372598Y19152D01*
X372663Y18990D01*
X372756Y18843D01*
X372873Y18713D01*
X373010Y18606D01*
X373164Y18524D01*
X373330Y18471D01*
X373502Y18446D01*
X373677Y18453D01*
X373847Y18489D01*
X374009Y18554D01*
X374156Y18647D01*
X374286Y18764D01*
X374393Y18901D01*
X374903Y19769D01*
X375000Y19975D01*
Y0D01*
X368826D01*
Y14484D01*
X369500Y14744D01*
X370403Y15190D01*
X371262Y15715D01*
X371397Y15825D01*
X371512Y15956D01*
X371602Y16106D01*
X371664Y16268D01*
X371697Y16439D01*
X371700Y16614D01*
X371673Y16786D01*
X371616Y16951D01*
X371532Y17103D01*
X371422Y17238D01*
X371291Y17353D01*
X371141Y17443D01*
X370979Y17505D01*
X370808Y17538D01*
X370633Y17541D01*
X370461Y17514D01*
X370296Y17457D01*
X370144Y17373D01*
X369438Y16942D01*
X368826Y16640D01*
Y33357D01*
X369297Y33135D01*
X370010Y32716D01*
X370011D01*
X370165Y32634D01*
X370331Y32581D01*
X370503Y32556D01*
X370678Y32563D01*
X370848Y32599D01*
X371010Y32664D01*
X371157Y32757D01*
X371287Y32874D01*
X371394Y33011D01*
X371476Y33165D01*
X371529Y33331D01*
X371554Y33503D01*
X371547Y33678D01*
X371511Y33848D01*
X371446Y34010D01*
X371353Y34157D01*
X371236Y34287D01*
X371099Y34394D01*
X370231Y34904D01*
X369320Y35334D01*
X368826Y35515D01*
Y127705D01*
X368901Y127721D01*
X369022Y127770D01*
X369133Y127839D01*
X369230Y127927D01*
X369311Y128030D01*
X369372Y128145D01*
X369523Y128550D01*
X369636Y128968D01*
X369711Y129394D01*
X369746Y129826D01*
X369742Y130258D01*
X369699Y130689D01*
X369617Y131114D01*
X369497Y131530D01*
X369339Y131932D01*
X369276Y132046D01*
X369193Y132148D01*
X369095Y132234D01*
X368983Y132301D01*
X368861Y132348D01*
X368826Y132355D01*
Y137214D01*
X369114Y137625D01*
X369464Y138375D01*
X369678Y139175D01*
X369750Y140000D01*
X369678Y140825D01*
X369464Y141625D01*
X369114Y142375D01*
X368826Y142786D01*
Y319484D01*
X369500Y319744D01*
X370403Y320190D01*
X371262Y320715D01*
X371397Y320825D01*
X371512Y320956D01*
X371602Y321106D01*
X371664Y321268D01*
X371697Y321439D01*
X371700Y321614D01*
X371673Y321786D01*
X371616Y321951D01*
X371532Y322103D01*
X371422Y322238D01*
X371291Y322353D01*
X371141Y322443D01*
X370979Y322505D01*
X370808Y322538D01*
X370633Y322541D01*
X370461Y322514D01*
X370296Y322457D01*
X370144Y322373D01*
X369438Y321942D01*
X368826Y321640D01*
Y338357D01*
X369297Y338135D01*
X370010Y337716D01*
X370011D01*
X370165Y337634D01*
X370331Y337581D01*
X370503Y337556D01*
X370678Y337563D01*
X370848Y337599D01*
X371010Y337664D01*
X371157Y337757D01*
X371287Y337874D01*
X371394Y338011D01*
X371476Y338165D01*
X371529Y338331D01*
X371554Y338503D01*
X371547Y338678D01*
X371511Y338848D01*
X371446Y339010D01*
X371353Y339157D01*
X371236Y339287D01*
X371099Y339394D01*
X370231Y339904D01*
X369320Y340334D01*
X368826Y340515D01*
Y350000D01*
G37*
G36*
Y321640D02*X368696Y321576D01*
X367925Y321278D01*
X367129Y321050D01*
X366317Y320895D01*
X365493Y320814D01*
X365000Y320810D01*
Y339191D01*
X365333Y339194D01*
X366157Y339127D01*
X366973Y338986D01*
X367772Y338773D01*
X368549Y338488D01*
X368826Y338357D01*
Y321640D01*
G37*
G36*
Y142786D02*X368639Y143053D01*
X368053Y143639D01*
X367375Y144114D01*
X366625Y144464D01*
X365825Y144678D01*
X365000Y144750D01*
Y187759D01*
X365168Y188119D01*
X365416Y189045D01*
X365500Y190000D01*
X365416Y190955D01*
X365168Y191881D01*
X365000Y192241D01*
Y252759D01*
X365168Y253119D01*
X365416Y254045D01*
X365500Y255000D01*
X365416Y255955D01*
X365168Y256881D01*
X365000Y257241D01*
Y318812D01*
X365601Y318817D01*
X366603Y318916D01*
X367592Y319105D01*
X368560Y319382D01*
X368826Y319484D01*
Y142786D01*
G37*
G36*
Y35515D02*X368375Y35680D01*
X367402Y35940D01*
X366409Y36111D01*
X365405Y36193D01*
X365000Y36189D01*
Y125256D01*
X365257Y125258D01*
X365688Y125301D01*
X366113Y125383D01*
X366529Y125503D01*
X366931Y125661D01*
X367045Y125724D01*
X367147Y125807D01*
X367233Y125905D01*
X367300Y126017D01*
X367347Y126139D01*
X367372Y126268D01*
X367374Y126398D01*
X367354Y126527D01*
X367311Y126651D01*
X367248Y126765D01*
X367165Y126867D01*
X367067Y126953D01*
X366955Y127020D01*
X366833Y127067D01*
X366704Y127092D01*
X366574Y127094D01*
X366445Y127074D01*
X366321Y127031D01*
X366046Y126923D01*
X365761Y126841D01*
X365471Y126785D01*
X365176Y126755D01*
X365000Y126754D01*
Y133247D01*
X365119Y133248D01*
X365414Y133224D01*
X365706Y133173D01*
X365992Y133095D01*
X366269Y132992D01*
Y132993D01*
X366393Y132953D01*
X366523Y132934D01*
X366653Y132939D01*
X366781Y132966D01*
X366902Y133015D01*
X367013Y133084D01*
X367110Y133172D01*
X367191Y133275D01*
X367252Y133390D01*
X367292Y133514D01*
X367311Y133644D01*
X367306Y133774D01*
X367279Y133902D01*
X367230Y134023D01*
X367161Y134134D01*
X367073Y134231D01*
X366970Y134312D01*
X366855Y134373D01*
X366450Y134524D01*
X366032Y134637D01*
X365606Y134712D01*
X365174Y134747D01*
X365000Y134745D01*
Y135250D01*
X365825Y135322D01*
X366625Y135536D01*
X367375Y135886D01*
X368053Y136361D01*
X368639Y136947D01*
X368826Y137214D01*
Y132355D01*
X368732Y132373D01*
X368602Y132375D01*
X368473Y132355D01*
X368349Y132312D01*
X368235Y132249D01*
X368133Y132166D01*
X368047Y132068D01*
X367980Y131956D01*
X367933Y131834D01*
X367908Y131705D01*
X367906Y131575D01*
X367926Y131446D01*
X367969Y131322D01*
X368077Y131047D01*
X368159Y130762D01*
X368215Y130472D01*
X368245Y130177D01*
X368247Y129881D01*
X368223Y129586D01*
X368172Y129294D01*
X368094Y129008D01*
X367991Y128731D01*
X367992D01*
X367952Y128607D01*
X367933Y128477D01*
X367938Y128347D01*
X367965Y128219D01*
X368014Y128098D01*
X368083Y127987D01*
X368171Y127890D01*
X368274Y127809D01*
X368389Y127748D01*
X368513Y127708D01*
X368643Y127689D01*
X368773Y127694D01*
X368826Y127705D01*
Y35515D01*
G37*
G36*
Y16640D02*X368696Y16576D01*
X367925Y16278D01*
X367129Y16050D01*
X366317Y15895D01*
X365493Y15814D01*
X365000Y15810D01*
Y34191D01*
X365333Y34194D01*
X366157Y34127D01*
X366973Y33986D01*
X367772Y33773D01*
X368549Y33488D01*
X368826Y33357D01*
Y16640D01*
G37*
G36*
Y0D02*X365000D01*
Y13812D01*
X365601Y13817D01*
X366603Y13916D01*
X367592Y14105D01*
X368560Y14382D01*
X368826Y14484D01*
Y0D01*
G37*
G36*
X365000Y350000D02*X368826D01*
Y340515D01*
X368375Y340680D01*
X367402Y340940D01*
X366409Y341111D01*
X365405Y341193D01*
X365000Y341189D01*
Y350000D01*
G37*
G36*
Y320810D02*X364666Y320807D01*
X363842Y320874D01*
X363026Y321015D01*
X362227Y321228D01*
X361450Y321513D01*
X360702Y321866D01*
X360000Y322279D01*
Y337717D01*
X360561Y338059D01*
X361303Y338425D01*
X362074Y338723D01*
X362870Y338951D01*
X363682Y339106D01*
X364506Y339187D01*
X365000Y339191D01*
Y320810D01*
G37*
G36*
Y310000D02*X364924Y310868D01*
X364698Y311710D01*
X364330Y312500D01*
X363830Y313214D01*
X363214Y313830D01*
X362500Y314330D01*
X361710Y314698D01*
X360868Y314924D01*
X360000Y315000D01*
Y319987D01*
X360679Y319667D01*
X361624Y319321D01*
X362597Y319061D01*
X363590Y318890D01*
X364594Y318808D01*
X365000Y318812D01*
Y310000D01*
G37*
G36*
Y285000D02*X364924Y285868D01*
X364698Y286710D01*
X364330Y287500D01*
X363830Y288214D01*
X363214Y288830D01*
X362500Y289330D01*
X361710Y289698D01*
X360868Y289924D01*
X360000Y290000D01*
Y305000D01*
X360868Y305076D01*
X361710Y305302D01*
X362500Y305670D01*
X363214Y306170D01*
X363830Y306786D01*
X364330Y307500D01*
X364698Y308290D01*
X364924Y309132D01*
X365000Y310000D01*
Y285000D01*
G37*
G36*
Y257241D02*X364763Y257750D01*
X364213Y258535D01*
X363535Y259213D01*
X362750Y259763D01*
X361881Y260168D01*
X360955Y260416D01*
X360000Y260500D01*
Y280000D01*
X360868Y280076D01*
X361710Y280302D01*
X362500Y280670D01*
X363214Y281170D01*
X363830Y281786D01*
X364330Y282500D01*
X364698Y283290D01*
X364924Y284132D01*
X365000Y285000D01*
Y257241D01*
G37*
G36*
Y235000D02*X364924Y235868D01*
X364698Y236710D01*
X364330Y237500D01*
X363830Y238214D01*
X363214Y238830D01*
X362500Y239330D01*
X361710Y239698D01*
X360868Y239924D01*
X360000Y240000D01*
Y249500D01*
X360955Y249584D01*
X361881Y249832D01*
X362750Y250237D01*
X363535Y250787D01*
X364213Y251465D01*
X364763Y252250D01*
X365000Y252759D01*
Y235000D01*
G37*
G36*
Y210000D02*X364924Y210868D01*
X364698Y211710D01*
X364330Y212500D01*
X363830Y213214D01*
X363214Y213830D01*
X362500Y214330D01*
X361710Y214698D01*
X360868Y214924D01*
X360000Y215000D01*
Y230000D01*
X360868Y230076D01*
X361710Y230302D01*
X362500Y230670D01*
X363214Y231170D01*
X363830Y231786D01*
X364330Y232500D01*
X364698Y233290D01*
X364924Y234132D01*
X365000Y235000D01*
Y210000D01*
G37*
G36*
Y192241D02*X364763Y192750D01*
X364213Y193535D01*
X363535Y194213D01*
X362750Y194763D01*
X361881Y195168D01*
X360955Y195416D01*
X360000Y195500D01*
Y205000D01*
X360868Y205076D01*
X361710Y205302D01*
X362500Y205670D01*
X363214Y206170D01*
X363830Y206786D01*
X364330Y207500D01*
X364698Y208290D01*
X364924Y209132D01*
X365000Y210000D01*
Y192241D01*
G37*
G36*
X361173Y184642D02*X361881Y184832D01*
X362750Y185237D01*
X363535Y185787D01*
X364213Y186465D01*
X364763Y187250D01*
X365000Y187759D01*
Y144750D01*
X364175Y144678D01*
X363375Y144464D01*
X362625Y144114D01*
X361947Y143639D01*
X361361Y143053D01*
X361173Y142785D01*
Y184642D01*
G37*
G36*
X365000Y36189D02*X364398Y36184D01*
X363396Y36085D01*
X362407Y35896D01*
X361439Y35619D01*
X361173Y35517D01*
Y105700D01*
X362090D01*
X362350Y105723D01*
X362603Y105790D01*
X362840Y105901D01*
X363054Y106051D01*
X363239Y106236D01*
X363389Y106450D01*
X363500Y106687D01*
X363567Y106940D01*
X363590Y107200D01*
Y115700D01*
X363567Y115960D01*
X363500Y116213D01*
X363389Y116450D01*
X363239Y116664D01*
X363054Y116849D01*
X362840Y116999D01*
X362603Y117110D01*
X362350Y117177D01*
X362090Y117200D01*
X361173D01*
Y127646D01*
X361267Y127628D01*
X361397Y127626D01*
X361526Y127646D01*
X361650Y127689D01*
X361764Y127752D01*
X361866Y127835D01*
X361952Y127933D01*
X362019Y128045D01*
X362066Y128167D01*
X362091Y128296D01*
X362093Y128426D01*
X362073Y128555D01*
X362030Y128679D01*
X361922Y128954D01*
X361840Y129239D01*
X361784Y129529D01*
X361754Y129824D01*
X361752Y130120D01*
X361776Y130415D01*
X361827Y130707D01*
X361905Y130993D01*
X362008Y131270D01*
X362007D01*
X362047Y131394D01*
X362066Y131524D01*
X362061Y131654D01*
X362034Y131782D01*
X361985Y131903D01*
X361916Y132014D01*
X361828Y132111D01*
X361725Y132192D01*
X361610Y132253D01*
X361486Y132293D01*
X361356Y132312D01*
X361226Y132307D01*
X361173Y132296D01*
Y137215D01*
X361361Y136947D01*
X361947Y136361D01*
X362625Y135886D01*
X363375Y135536D01*
X364175Y135322D01*
X365000Y135250D01*
Y134745D01*
X364742Y134743D01*
X364311Y134700D01*
X363886Y134618D01*
X363470Y134498D01*
X363068Y134340D01*
X362954Y134277D01*
X362852Y134194D01*
X362766Y134096D01*
X362699Y133984D01*
X362652Y133862D01*
X362627Y133733D01*
X362625Y133603D01*
X362645Y133474D01*
X362688Y133350D01*
X362751Y133236D01*
X362834Y133134D01*
X362932Y133048D01*
X363044Y132981D01*
X363166Y132934D01*
X363295Y132909D01*
X363425Y132907D01*
X363554Y132927D01*
X363678Y132970D01*
X363953Y133078D01*
X364238Y133160D01*
X364528Y133216D01*
X364823Y133246D01*
X365000Y133247D01*
Y126754D01*
X364880Y126753D01*
X364585Y126777D01*
X364293Y126828D01*
X364007Y126906D01*
X363730Y127009D01*
Y127008D01*
X363606Y127048D01*
X363476Y127067D01*
X363346Y127062D01*
X363218Y127035D01*
X363097Y126986D01*
X362986Y126917D01*
X362889Y126829D01*
X362808Y126726D01*
X362747Y126611D01*
X362707Y126487D01*
X362688Y126357D01*
X362693Y126227D01*
X362720Y126099D01*
X362769Y125978D01*
X362838Y125867D01*
X362926Y125770D01*
X363029Y125689D01*
X363144Y125628D01*
X363549Y125477D01*
X363967Y125364D01*
X364393Y125289D01*
X364825Y125254D01*
X365000Y125256D01*
Y36189D01*
G37*
G36*
X361173Y117200D02*X360000D01*
Y184500D01*
X360955Y184584D01*
X361173Y184642D01*
Y142785D01*
X360886Y142375D01*
X360536Y141625D01*
X360322Y140825D01*
X360250Y140000D01*
X360322Y139175D01*
X360536Y138375D01*
X360886Y137625D01*
X361173Y137215D01*
Y132296D01*
X361098Y132280D01*
X360977Y132231D01*
X360866Y132162D01*
X360769Y132074D01*
X360688Y131971D01*
X360627Y131856D01*
X360476Y131451D01*
X360363Y131033D01*
X360288Y130607D01*
X360253Y130175D01*
X360257Y129743D01*
X360300Y129312D01*
X360382Y128887D01*
X360502Y128471D01*
X360660Y128069D01*
X360723Y127955D01*
X360806Y127853D01*
X360904Y127767D01*
X361016Y127700D01*
X361138Y127653D01*
X361173Y127646D01*
Y117200D01*
G37*
G36*
Y35517D02*X360499Y35257D01*
X360000Y35011D01*
Y105700D01*
X361173D01*
Y35517D01*
G37*
G36*
X365000Y15810D02*X364666Y15807D01*
X363842Y15874D01*
X363026Y16015D01*
X362227Y16228D01*
X361450Y16513D01*
X360702Y16866D01*
X360000Y17279D01*
Y32717D01*
X360561Y33059D01*
X361303Y33425D01*
X362074Y33723D01*
X362870Y33951D01*
X363682Y34106D01*
X364506Y34187D01*
X365000Y34191D01*
Y15810D01*
G37*
G36*
Y0D02*X360000D01*
Y14987D01*
X360679Y14667D01*
X361624Y14321D01*
X362597Y14061D01*
X363590Y13890D01*
X364594Y13808D01*
X365000Y13812D01*
Y0D01*
G37*
G36*
X360000Y350000D02*X365000D01*
Y341189D01*
X364398Y341184D01*
X363396Y341085D01*
X362407Y340896D01*
X361439Y340619D01*
X360499Y340257D01*
X360000Y340011D01*
Y350000D01*
G37*
G36*
Y0D02*X354050D01*
Y22691D01*
X354104Y22408D01*
X354381Y21440D01*
X354743Y20500D01*
X355189Y19597D01*
X355714Y18738D01*
X355824Y18603D01*
X355955Y18488D01*
X356105Y18398D01*
X356267Y18336D01*
X356438Y18303D01*
X356613Y18300D01*
X356785Y18327D01*
X356950Y18384D01*
X357102Y18468D01*
X357237Y18578D01*
X357352Y18709D01*
X357442Y18859D01*
X357504Y19021D01*
X357537Y19192D01*
X357540Y19367D01*
X357513Y19539D01*
X357456Y19704D01*
X357372Y19856D01*
X356941Y20562D01*
X356575Y21304D01*
X356277Y22075D01*
X356049Y22871D01*
X355894Y23683D01*
X355813Y24507D01*
X355806Y25334D01*
X355873Y26158D01*
X356014Y26974D01*
X356227Y27773D01*
X356512Y28550D01*
X356865Y29298D01*
X357284Y30011D01*
Y30012D01*
X357366Y30166D01*
X357419Y30332D01*
X357444Y30504D01*
X357437Y30679D01*
X357401Y30849D01*
X357336Y31011D01*
X357243Y31158D01*
X357126Y31288D01*
X356989Y31395D01*
X356835Y31477D01*
X356669Y31530D01*
X356497Y31555D01*
X356322Y31548D01*
X356152Y31512D01*
X355990Y31447D01*
X355843Y31354D01*
X355713Y31237D01*
X355606Y31100D01*
X355096Y30232D01*
X354666Y29321D01*
X354320Y28376D01*
X354060Y27403D01*
X354050Y27345D01*
Y53078D01*
X354229Y53461D01*
X354432Y54219D01*
X354500Y55000D01*
X354432Y55781D01*
X354229Y56539D01*
X354050Y56922D01*
Y80937D01*
X354149Y81036D01*
X354299Y81250D01*
X354410Y81487D01*
X354477Y81740D01*
X354500Y82000D01*
Y88000D01*
X354477Y88260D01*
X354410Y88513D01*
X354299Y88750D01*
X354149Y88964D01*
X354050Y89063D01*
Y105700D01*
X360000D01*
Y35011D01*
X359596Y34811D01*
X358737Y34286D01*
X358602Y34176D01*
X358487Y34045D01*
X358397Y33895D01*
X358335Y33733D01*
X358302Y33562D01*
X358299Y33387D01*
X358326Y33215D01*
X358383Y33050D01*
X358467Y32898D01*
X358577Y32763D01*
X358708Y32648D01*
X358858Y32558D01*
X359020Y32496D01*
X359191Y32463D01*
X359366Y32460D01*
X359538Y32487D01*
X359703Y32544D01*
X359855Y32628D01*
X360000Y32717D01*
Y17279D01*
X359989Y17285D01*
X359988D01*
X359834Y17367D01*
X359668Y17420D01*
X359496Y17445D01*
X359321Y17438D01*
X359151Y17402D01*
X358989Y17337D01*
X358842Y17244D01*
X358712Y17127D01*
X358605Y16990D01*
X358523Y16836D01*
X358470Y16670D01*
X358445Y16498D01*
X358452Y16323D01*
X358488Y16153D01*
X358553Y15991D01*
X358646Y15844D01*
X358763Y15714D01*
X358900Y15607D01*
X359768Y15097D01*
X360000Y14987D01*
Y0D01*
G37*
G36*
X359000Y184596D02*X359045Y184584D01*
X360000Y184500D01*
Y117200D01*
X359000D01*
Y127500D01*
X359130Y127511D01*
X359257Y127545D01*
X359375Y127600D01*
X359482Y127675D01*
X359575Y127768D01*
X359650Y127875D01*
X359705Y127993D01*
X359739Y128120D01*
X359750Y128250D01*
Y131750D01*
X359739Y131880D01*
X359705Y132007D01*
X359650Y132125D01*
X359575Y132232D01*
X359482Y132325D01*
X359375Y132400D01*
X359257Y132455D01*
X359130Y132489D01*
X359000Y132500D01*
Y137462D01*
X359114Y137625D01*
X359464Y138375D01*
X359678Y139175D01*
X359750Y140000D01*
X359678Y140825D01*
X359464Y141625D01*
X359114Y142375D01*
X359000Y142538D01*
Y184596D01*
G37*
G36*
Y205111D02*X359132Y205076D01*
X360000Y205000D01*
Y195500D01*
X359045Y195416D01*
X359000Y195404D01*
Y205111D01*
G37*
G36*
Y230111D02*X359132Y230076D01*
X360000Y230000D01*
Y215000D01*
X359132Y214924D01*
X359000Y214889D01*
Y230111D01*
G37*
G36*
Y249596D02*X359045Y249584D01*
X360000Y249500D01*
Y240000D01*
X359132Y239924D01*
X359000Y239889D01*
Y249596D01*
G37*
G36*
Y280111D02*X359132Y280076D01*
X360000Y280000D01*
Y260500D01*
X359045Y260416D01*
X359000Y260404D01*
Y280111D01*
G37*
G36*
Y305111D02*X359132Y305076D01*
X360000Y305000D01*
Y290000D01*
X359132Y289924D01*
X359000Y289889D01*
Y305111D01*
G37*
G36*
Y320548D02*X359768Y320097D01*
X360000Y319987D01*
Y315000D01*
X359132Y314924D01*
X359000Y314889D01*
Y320548D01*
G37*
G36*
Y337504D02*X359020Y337496D01*
X359191Y337463D01*
X359366Y337460D01*
X359538Y337487D01*
X359703Y337544D01*
X359855Y337628D01*
X360000Y337717D01*
Y322279D01*
X359989Y322285D01*
X359988D01*
X359834Y322367D01*
X359668Y322420D01*
X359496Y322445D01*
X359321Y322438D01*
X359151Y322402D01*
X359000Y322341D01*
Y337504D01*
G37*
G36*
Y350000D02*X360000D01*
Y340011D01*
X359596Y339811D01*
X359000Y339447D01*
Y350000D01*
G37*
G36*
Y117200D02*X354050D01*
Y125250D01*
X356750D01*
X356880Y125261D01*
X357007Y125295D01*
X357125Y125350D01*
X357232Y125425D01*
X357325Y125518D01*
X357400Y125625D01*
X357455Y125743D01*
X357489Y125870D01*
X357500Y126000D01*
X357489Y126130D01*
X357455Y126257D01*
X357400Y126375D01*
X357325Y126482D01*
X357232Y126575D01*
X357125Y126650D01*
X357007Y126705D01*
X356880Y126739D01*
X356750Y126750D01*
X354050D01*
Y133250D01*
X356750D01*
X356880Y133261D01*
X357007Y133295D01*
X357125Y133350D01*
X357232Y133425D01*
X357325Y133518D01*
X357400Y133625D01*
X357455Y133743D01*
X357489Y133870D01*
X357500Y134000D01*
X357489Y134130D01*
X357455Y134257D01*
X357400Y134375D01*
X357325Y134482D01*
X357232Y134575D01*
X357125Y134650D01*
X357007Y134705D01*
X356880Y134739D01*
X356750Y134750D01*
X354050D01*
Y135355D01*
X354175Y135322D01*
X355000Y135250D01*
X355825Y135322D01*
X356625Y135536D01*
X357375Y135886D01*
X358053Y136361D01*
X358639Y136947D01*
X359000Y137462D01*
Y132500D01*
X358870Y132489D01*
X358743Y132455D01*
X358625Y132400D01*
X358518Y132325D01*
X358425Y132232D01*
X358350Y132125D01*
X358295Y132007D01*
X358261Y131880D01*
X358250Y131750D01*
Y128250D01*
X358261Y128120D01*
X358295Y127993D01*
X358350Y127875D01*
X358425Y127768D01*
X358518Y127675D01*
X358625Y127600D01*
X358743Y127545D01*
X358870Y127511D01*
X359000Y127500D01*
Y117200D01*
G37*
G36*
X354050Y350000D02*X359000D01*
Y339447D01*
X358737Y339286D01*
X358602Y339176D01*
X358487Y339045D01*
X358397Y338895D01*
X358335Y338733D01*
X358302Y338562D01*
X358299Y338387D01*
X358326Y338215D01*
X358383Y338050D01*
X358467Y337898D01*
X358577Y337763D01*
X358708Y337648D01*
X358858Y337558D01*
X359000Y337504D01*
Y322341D01*
X358989Y322337D01*
X358842Y322244D01*
X358712Y322127D01*
X358605Y321990D01*
X358523Y321836D01*
X358470Y321670D01*
X358445Y321498D01*
X358452Y321323D01*
X358488Y321153D01*
X358553Y320991D01*
X358646Y320844D01*
X358763Y320714D01*
X358900Y320607D01*
X359000Y320548D01*
Y314889D01*
X358290Y314698D01*
X357500Y314330D01*
X356786Y313830D01*
X356170Y313214D01*
X355670Y312500D01*
X355302Y311710D01*
X355076Y310868D01*
X355000Y310000D01*
X355076Y309132D01*
X355302Y308290D01*
X355670Y307500D01*
X356170Y306786D01*
X356786Y306170D01*
X357500Y305670D01*
X358290Y305302D01*
X359000Y305111D01*
Y289889D01*
X358290Y289698D01*
X357500Y289330D01*
X356786Y288830D01*
X356170Y288214D01*
X355670Y287500D01*
X355302Y286710D01*
X355076Y285868D01*
X355000Y285000D01*
X355076Y284132D01*
X355302Y283290D01*
X355670Y282500D01*
X356170Y281786D01*
X356786Y281170D01*
X357500Y280670D01*
X358290Y280302D01*
X359000Y280111D01*
Y260404D01*
X358119Y260168D01*
X357250Y259763D01*
X356465Y259213D01*
X355787Y258535D01*
X355237Y257750D01*
X354832Y256881D01*
X354584Y255955D01*
X354500Y255000D01*
X354584Y254045D01*
X354832Y253119D01*
X355237Y252250D01*
X355787Y251465D01*
X356465Y250787D01*
X357250Y250237D01*
X358119Y249832D01*
X359000Y249596D01*
Y239889D01*
X358290Y239698D01*
X357500Y239330D01*
X356786Y238830D01*
X356170Y238214D01*
X355670Y237500D01*
X355302Y236710D01*
X355076Y235868D01*
X355000Y235000D01*
X355076Y234132D01*
X355302Y233290D01*
X355670Y232500D01*
X356170Y231786D01*
X356786Y231170D01*
X357500Y230670D01*
X358290Y230302D01*
X359000Y230111D01*
Y214889D01*
X358290Y214698D01*
X357500Y214330D01*
X356786Y213830D01*
X356170Y213214D01*
X355670Y212500D01*
X355302Y211710D01*
X355076Y210868D01*
X355000Y210000D01*
X355076Y209132D01*
X355302Y208290D01*
X355670Y207500D01*
X356170Y206786D01*
X356786Y206170D01*
X357500Y205670D01*
X358290Y205302D01*
X359000Y205111D01*
Y195404D01*
X358119Y195168D01*
X357250Y194763D01*
X356465Y194213D01*
X355787Y193535D01*
X355237Y192750D01*
X354832Y191881D01*
X354584Y190955D01*
X354500Y190000D01*
X354584Y189045D01*
X354832Y188119D01*
X355237Y187250D01*
X355787Y186465D01*
X356465Y185787D01*
X357250Y185237D01*
X358119Y184832D01*
X359000Y184596D01*
Y142538D01*
X358639Y143053D01*
X358053Y143639D01*
X357375Y144114D01*
X356625Y144464D01*
X355825Y144678D01*
X355000Y144750D01*
X354175Y144678D01*
X354050Y144645D01*
Y207543D01*
X354089Y207551D01*
X354211Y207598D01*
X354323Y207665D01*
X354421Y207751D01*
X354504Y207853D01*
X354567Y207967D01*
X354740Y208409D01*
X354869Y208866D01*
X354955Y209333D01*
X354996Y209807D01*
X354992Y210282D01*
X354942Y210754D01*
X354849Y211220D01*
X354711Y211674D01*
X354531Y212114D01*
X354530D01*
X354465Y212227D01*
X354381Y212327D01*
X354281Y212411D01*
X354167Y212476D01*
X354050Y212519D01*
Y282543D01*
X354089Y282551D01*
X354211Y282598D01*
X354323Y282665D01*
X354421Y282751D01*
X354504Y282853D01*
X354567Y282967D01*
X354740Y283409D01*
X354869Y283866D01*
X354955Y284333D01*
X354996Y284807D01*
X354992Y285282D01*
X354942Y285754D01*
X354849Y286220D01*
X354711Y286674D01*
X354531Y287114D01*
X354530D01*
X354465Y287227D01*
X354381Y287327D01*
X354281Y287411D01*
X354167Y287476D01*
X354050Y287519D01*
Y327691D01*
X354104Y327408D01*
X354381Y326440D01*
X354743Y325500D01*
X355189Y324597D01*
X355714Y323738D01*
X355824Y323603D01*
X355955Y323488D01*
X356105Y323398D01*
X356267Y323336D01*
X356438Y323303D01*
X356613Y323300D01*
X356785Y323327D01*
X356950Y323384D01*
X357102Y323468D01*
X357237Y323578D01*
X357352Y323709D01*
X357442Y323859D01*
X357504Y324021D01*
X357537Y324192D01*
X357540Y324367D01*
X357513Y324539D01*
X357456Y324704D01*
X357372Y324856D01*
X356941Y325562D01*
X356575Y326304D01*
X356277Y327075D01*
X356049Y327871D01*
X355894Y328683D01*
X355813Y329507D01*
X355806Y330334D01*
X355873Y331158D01*
X356014Y331974D01*
X356227Y332773D01*
X356512Y333550D01*
X356865Y334298D01*
X357284Y335011D01*
Y335012D01*
X357366Y335166D01*
X357419Y335332D01*
X357444Y335504D01*
X357437Y335679D01*
X357401Y335849D01*
X357336Y336011D01*
X357243Y336158D01*
X357126Y336288D01*
X356989Y336395D01*
X356835Y336477D01*
X356669Y336530D01*
X356497Y336555D01*
X356322Y336548D01*
X356152Y336512D01*
X355990Y336447D01*
X355843Y336354D01*
X355713Y336237D01*
X355606Y336100D01*
X355096Y335232D01*
X354666Y334321D01*
X354320Y333376D01*
X354060Y332403D01*
X354050Y332345D01*
Y350000D01*
G37*
G36*
Y56922D02*X353897Y57250D01*
X353447Y57893D01*
X352893Y58447D01*
X352250Y58897D01*
X351539Y59229D01*
X350781Y59432D01*
X350000Y59500D01*
X349966Y59497D01*
Y80500D01*
X353000D01*
X353260Y80523D01*
X353513Y80590D01*
X353750Y80701D01*
X353964Y80851D01*
X354050Y80937D01*
Y56922D01*
G37*
G36*
Y0D02*X349966D01*
Y50503D01*
X350000Y50500D01*
X350781Y50568D01*
X351539Y50771D01*
X352250Y51103D01*
X352893Y51553D01*
X353447Y52107D01*
X353897Y52750D01*
X354050Y53078D01*
Y27345D01*
X353889Y26410D01*
X353807Y25406D01*
X353816Y24399D01*
X353915Y23397D01*
X354050Y22691D01*
Y0D01*
G37*
G36*
X351000Y137462D02*X351361Y136947D01*
X351947Y136361D01*
X352625Y135886D01*
X353375Y135536D01*
X354050Y135355D01*
Y134750D01*
X353250D01*
X353120Y134739D01*
X352993Y134705D01*
X352875Y134650D01*
X352768Y134575D01*
X352675Y134482D01*
X352600Y134375D01*
X352545Y134257D01*
X352511Y134130D01*
X352500Y134000D01*
X352511Y133870D01*
X352545Y133743D01*
X352600Y133625D01*
X352675Y133518D01*
X352768Y133425D01*
X352875Y133350D01*
X352993Y133295D01*
X353120Y133261D01*
X353250Y133250D01*
X354050D01*
Y126750D01*
X353250D01*
X353120Y126739D01*
X352993Y126705D01*
X352875Y126650D01*
X352768Y126575D01*
X352675Y126482D01*
X352600Y126375D01*
X352545Y126257D01*
X352511Y126130D01*
X352500Y126000D01*
X352511Y125870D01*
X352545Y125743D01*
X352600Y125625D01*
X352675Y125518D01*
X352768Y125425D01*
X352875Y125350D01*
X352993Y125295D01*
X353120Y125261D01*
X353250Y125250D01*
X354050D01*
Y117200D01*
X353590D01*
X353330Y117177D01*
X353077Y117110D01*
X352840Y116999D01*
X352626Y116849D01*
X352441Y116664D01*
X352291Y116450D01*
X352180Y116213D01*
X352113Y115960D01*
X352090Y115700D01*
Y107200D01*
X352113Y106940D01*
X352180Y106687D01*
X352291Y106450D01*
X352441Y106236D01*
X352626Y106051D01*
X352840Y105901D01*
X353077Y105790D01*
X353330Y105723D01*
X353590Y105700D01*
X354050D01*
Y89063D01*
X353964Y89149D01*
X353750Y89299D01*
X353513Y89410D01*
X353260Y89477D01*
X353000Y89500D01*
X351000D01*
Y127500D01*
X351130Y127511D01*
X351257Y127545D01*
X351375Y127600D01*
X351482Y127675D01*
X351575Y127768D01*
X351650Y127875D01*
X351705Y127993D01*
X351739Y128120D01*
X351750Y128250D01*
Y131750D01*
X351739Y131880D01*
X351705Y132007D01*
X351650Y132125D01*
X351575Y132232D01*
X351482Y132325D01*
X351375Y132400D01*
X351257Y132455D01*
X351130Y132489D01*
X351000Y132500D01*
Y137462D01*
G37*
G36*
Y350000D02*X354050D01*
Y332345D01*
X353889Y331410D01*
X353807Y330406D01*
X353816Y329399D01*
X353915Y328397D01*
X354050Y327691D01*
Y287519D01*
X354045Y287521D01*
X353916Y287544D01*
X353785Y287543D01*
X353657Y287521D01*
X353534Y287476D01*
X353421Y287411D01*
X353321Y287327D01*
X353237Y287227D01*
X353172Y287113D01*
X353127Y286991D01*
X353104Y286862D01*
X353105Y286731D01*
X353127Y286603D01*
X353172Y286480D01*
X353298Y286172D01*
X353394Y285854D01*
X353460Y285528D01*
X353494Y285197D01*
X353497Y284865D01*
X353468Y284534D01*
X353408Y284207D01*
X353318Y283887D01*
X353197Y283577D01*
X353154Y283453D01*
X353134Y283324D01*
X353136Y283194D01*
X353161Y283065D01*
X353208Y282943D01*
X353275Y282831D01*
X353361Y282733D01*
X353463Y282650D01*
X353577Y282587D01*
X353701Y282544D01*
X353830Y282524D01*
X353960Y282526D01*
X354050Y282543D01*
Y212519D01*
X354045Y212521D01*
X353916Y212544D01*
X353785Y212543D01*
X353657Y212521D01*
X353534Y212476D01*
X353421Y212411D01*
X353321Y212327D01*
X353237Y212227D01*
X353172Y212113D01*
X353127Y211991D01*
X353104Y211862D01*
X353105Y211731D01*
X353127Y211603D01*
X353172Y211480D01*
X353298Y211172D01*
X353394Y210854D01*
X353460Y210528D01*
X353494Y210197D01*
X353497Y209865D01*
X353468Y209534D01*
X353408Y209207D01*
X353318Y208887D01*
X353197Y208577D01*
X353154Y208453D01*
X353134Y208324D01*
X353136Y208194D01*
X353161Y208065D01*
X353208Y207943D01*
X353275Y207831D01*
X353361Y207733D01*
X353463Y207650D01*
X353577Y207587D01*
X353701Y207544D01*
X353830Y207524D01*
X353960Y207526D01*
X354050Y207543D01*
Y144645D01*
X353375Y144464D01*
X352625Y144114D01*
X351947Y143639D01*
X351361Y143053D01*
X351000Y142538D01*
Y205107D01*
X351219Y205151D01*
X351673Y205289D01*
X352113Y205469D01*
Y205470D01*
X352226Y205535D01*
X352326Y205619D01*
X352410Y205719D01*
X352475Y205833D01*
X352520Y205955D01*
X352543Y206084D01*
X352542Y206215D01*
X352520Y206343D01*
X352475Y206466D01*
X352410Y206579D01*
X352326Y206679D01*
X352226Y206763D01*
X352112Y206828D01*
X351990Y206873D01*
X351861Y206896D01*
X351730Y206895D01*
X351602Y206873D01*
X351479Y206828D01*
X351171Y206702D01*
X351000Y206650D01*
Y213351D01*
X351113Y213319D01*
X351423Y213198D01*
X351547Y213155D01*
X351676Y213135D01*
X351806Y213137D01*
X351935Y213162D01*
X352057Y213209D01*
X352169Y213276D01*
X352267Y213362D01*
X352350Y213464D01*
X352413Y213578D01*
X352456Y213702D01*
X352476Y213831D01*
X352474Y213961D01*
X352449Y214090D01*
X352402Y214212D01*
X352335Y214324D01*
X352249Y214422D01*
X352147Y214505D01*
X352033Y214568D01*
X351591Y214741D01*
X351134Y214870D01*
X351000Y214895D01*
Y280107D01*
X351219Y280151D01*
X351673Y280289D01*
X352113Y280469D01*
Y280470D01*
X352226Y280535D01*
X352326Y280619D01*
X352410Y280719D01*
X352475Y280833D01*
X352520Y280955D01*
X352543Y281084D01*
X352542Y281215D01*
X352520Y281343D01*
X352475Y281466D01*
X352410Y281579D01*
X352326Y281679D01*
X352226Y281763D01*
X352112Y281828D01*
X351990Y281873D01*
X351861Y281896D01*
X351730Y281895D01*
X351602Y281873D01*
X351479Y281828D01*
X351171Y281702D01*
X351000Y281650D01*
Y288351D01*
X351113Y288319D01*
X351423Y288198D01*
X351547Y288155D01*
X351676Y288135D01*
X351806Y288137D01*
X351935Y288162D01*
X352057Y288209D01*
X352169Y288276D01*
X352267Y288362D01*
X352350Y288464D01*
X352413Y288578D01*
X352456Y288702D01*
X352476Y288831D01*
X352474Y288961D01*
X352449Y289090D01*
X352402Y289212D01*
X352335Y289324D01*
X352249Y289422D01*
X352147Y289505D01*
X352033Y289568D01*
X351591Y289741D01*
X351134Y289870D01*
X351000Y289895D01*
Y350000D01*
G37*
G36*
Y281650D02*X350853Y281606D01*
X350527Y281540D01*
X350196Y281506D01*
X349966Y281504D01*
Y288496D01*
X350135Y288498D01*
X350466Y288469D01*
X350793Y288409D01*
X351000Y288351D01*
Y281650D01*
G37*
G36*
Y214895D02*X350667Y214956D01*
X350193Y214997D01*
X349966Y214995D01*
Y280005D01*
X350281Y280008D01*
X350753Y280058D01*
X351000Y280107D01*
Y214895D01*
G37*
G36*
Y206650D02*X350853Y206606D01*
X350527Y206540D01*
X350196Y206506D01*
X349966Y206504D01*
Y213496D01*
X350135Y213498D01*
X350466Y213469D01*
X350793Y213409D01*
X351000Y213351D01*
Y206650D01*
G37*
G36*
Y142538D02*X350886Y142375D01*
X350536Y141625D01*
X350322Y140825D01*
X350250Y140000D01*
X350322Y139175D01*
X350536Y138375D01*
X350886Y137625D01*
X351000Y137462D01*
Y132500D01*
X350870Y132489D01*
X350743Y132455D01*
X350625Y132400D01*
X350518Y132325D01*
X350425Y132232D01*
X350350Y132125D01*
X350295Y132007D01*
X350261Y131880D01*
X350250Y131750D01*
Y128250D01*
X350261Y128120D01*
X350295Y127993D01*
X350350Y127875D01*
X350425Y127768D01*
X350518Y127675D01*
X350625Y127600D01*
X350743Y127545D01*
X350870Y127511D01*
X351000Y127500D01*
Y89500D01*
X349966D01*
Y205005D01*
X350281Y205008D01*
X350753Y205058D01*
X351000Y205107D01*
Y142538D01*
G37*
G36*
X349966Y350000D02*X351000D01*
Y289895D01*
X350667Y289956D01*
X350193Y289997D01*
X349966Y289995D01*
Y350000D01*
G37*
G36*
Y59497D02*X349219Y59432D01*
X348461Y59229D01*
X347750Y58897D01*
X347107Y58447D01*
X346553Y57893D01*
X346103Y57250D01*
X345949Y56920D01*
Y80938D01*
X346036Y80851D01*
X346250Y80701D01*
X346487Y80590D01*
X346740Y80523D01*
X347000Y80500D01*
X349966D01*
Y59497D01*
G37*
G36*
Y0D02*X345949D01*
Y53080D01*
X346103Y52750D01*
X346553Y52107D01*
X347107Y51553D01*
X347750Y51103D01*
X348461Y50771D01*
X349219Y50568D01*
X349966Y50503D01*
Y0D01*
G37*
G36*
X345949Y350000D02*X349966D01*
Y289995D01*
X349718Y289993D01*
X349246Y289943D01*
X348780Y289850D01*
X348326Y289712D01*
X347886Y289532D01*
Y289531D01*
X347773Y289466D01*
X347673Y289382D01*
X347589Y289282D01*
X347524Y289168D01*
X347479Y289046D01*
X347456Y288917D01*
X347457Y288786D01*
X347479Y288658D01*
X347524Y288535D01*
X347589Y288422D01*
X347673Y288322D01*
X347773Y288238D01*
X347887Y288173D01*
X348009Y288128D01*
X348138Y288105D01*
X348269Y288106D01*
X348397Y288128D01*
X348520Y288173D01*
X348828Y288299D01*
X349146Y288395D01*
X349472Y288461D01*
X349803Y288495D01*
X349966Y288496D01*
Y281504D01*
X349864Y281503D01*
X349533Y281532D01*
X349206Y281592D01*
X348886Y281682D01*
X348576Y281803D01*
X348452Y281846D01*
X348323Y281866D01*
X348193Y281864D01*
X348064Y281839D01*
X347942Y281792D01*
X347830Y281725D01*
X347732Y281639D01*
X347649Y281537D01*
X347586Y281423D01*
X347543Y281299D01*
X347523Y281170D01*
X347525Y281040D01*
X347550Y280911D01*
X347597Y280789D01*
X347664Y280677D01*
X347750Y280579D01*
X347852Y280496D01*
X347966Y280433D01*
X348408Y280260D01*
X348865Y280131D01*
X349332Y280045D01*
X349806Y280004D01*
X349966Y280005D01*
Y214995D01*
X349718Y214993D01*
X349246Y214943D01*
X348780Y214850D01*
X348326Y214712D01*
X347886Y214532D01*
Y214531D01*
X347773Y214466D01*
X347673Y214382D01*
X347589Y214282D01*
X347524Y214168D01*
X347479Y214046D01*
X347456Y213917D01*
X347457Y213786D01*
X347479Y213658D01*
X347524Y213535D01*
X347589Y213422D01*
X347673Y213322D01*
X347773Y213238D01*
X347887Y213173D01*
X348009Y213128D01*
X348138Y213105D01*
X348269Y213106D01*
X348397Y213128D01*
X348520Y213173D01*
X348828Y213299D01*
X349146Y213395D01*
X349472Y213461D01*
X349803Y213495D01*
X349966Y213496D01*
Y206504D01*
X349864Y206503D01*
X349533Y206532D01*
X349206Y206592D01*
X348886Y206682D01*
X348576Y206803D01*
X348452Y206846D01*
X348323Y206866D01*
X348193Y206864D01*
X348064Y206839D01*
X347942Y206792D01*
X347830Y206725D01*
X347732Y206639D01*
X347649Y206537D01*
X347586Y206423D01*
X347543Y206299D01*
X347523Y206170D01*
X347525Y206040D01*
X347550Y205911D01*
X347597Y205789D01*
X347664Y205677D01*
X347750Y205579D01*
X347852Y205496D01*
X347966Y205433D01*
X348408Y205260D01*
X348865Y205131D01*
X349332Y205045D01*
X349806Y205004D01*
X349966Y205005D01*
Y89500D01*
X347000D01*
X346740Y89477D01*
X346487Y89410D01*
X346250Y89299D01*
X346036Y89149D01*
X345949Y89062D01*
Y207482D01*
X345954Y207480D01*
X346083Y207457D01*
X346214Y207458D01*
X346342Y207480D01*
X346465Y207525D01*
X346578Y207590D01*
X346678Y207674D01*
X346762Y207774D01*
X346827Y207888D01*
X346872Y208010D01*
X346895Y208139D01*
X346894Y208270D01*
X346872Y208398D01*
X346827Y208521D01*
X346701Y208829D01*
X346605Y209147D01*
X346539Y209473D01*
X346505Y209804D01*
X346502Y210136D01*
X346531Y210467D01*
X346591Y210794D01*
X346681Y211114D01*
X346802Y211424D01*
X346845Y211548D01*
X346865Y211677D01*
X346863Y211807D01*
X346838Y211936D01*
X346791Y212058D01*
X346724Y212170D01*
X346638Y212268D01*
X346536Y212351D01*
X346422Y212414D01*
X346298Y212457D01*
X346169Y212477D01*
X346039Y212475D01*
X345949Y212458D01*
Y282482D01*
X345954Y282480D01*
X346083Y282457D01*
X346214Y282458D01*
X346342Y282480D01*
X346465Y282525D01*
X346578Y282590D01*
X346678Y282674D01*
X346762Y282774D01*
X346827Y282888D01*
X346872Y283010D01*
X346895Y283139D01*
X346894Y283270D01*
X346872Y283398D01*
X346827Y283521D01*
X346701Y283829D01*
X346605Y284147D01*
X346539Y284473D01*
X346505Y284804D01*
X346502Y285136D01*
X346531Y285467D01*
X346591Y285794D01*
X346681Y286114D01*
X346802Y286424D01*
X346845Y286548D01*
X346865Y286677D01*
X346863Y286807D01*
X346838Y286936D01*
X346791Y287058D01*
X346724Y287170D01*
X346638Y287268D01*
X346536Y287351D01*
X346422Y287414D01*
X346298Y287457D01*
X346169Y287477D01*
X346039Y287475D01*
X345949Y287458D01*
Y350000D01*
G37*
G36*
X344491D02*X345949D01*
Y287458D01*
X345910Y287450D01*
X345788Y287403D01*
X345676Y287336D01*
X345578Y287250D01*
X345495Y287148D01*
X345432Y287034D01*
X345259Y286592D01*
X345130Y286135D01*
X345044Y285668D01*
X345003Y285194D01*
X345007Y284719D01*
X345057Y284247D01*
X345150Y283781D01*
X345288Y283327D01*
X345468Y282887D01*
X345469D01*
X345534Y282774D01*
X345618Y282674D01*
X345718Y282590D01*
X345832Y282525D01*
X345949Y282482D01*
Y212458D01*
X345910Y212450D01*
X345788Y212403D01*
X345676Y212336D01*
X345578Y212250D01*
X345495Y212148D01*
X345432Y212034D01*
X345259Y211592D01*
X345130Y211135D01*
X345044Y210668D01*
X345003Y210194D01*
X345007Y209719D01*
X345057Y209247D01*
X345150Y208781D01*
X345288Y208327D01*
X345468Y207887D01*
X345469D01*
X345534Y207774D01*
X345618Y207674D01*
X345718Y207590D01*
X345832Y207525D01*
X345949Y207482D01*
Y89062D01*
X345851Y88964D01*
X345701Y88750D01*
X345590Y88513D01*
X345523Y88260D01*
X345500Y88000D01*
Y82000D01*
X345523Y81740D01*
X345590Y81487D01*
X345701Y81250D01*
X345851Y81036D01*
X345949Y80938D01*
Y56920D01*
X345771Y56539D01*
X345568Y55781D01*
X345500Y55000D01*
X345568Y54219D01*
X345771Y53461D01*
X345949Y53080D01*
Y0D01*
X344491D01*
Y54897D01*
X344500Y55000D01*
X344491Y55103D01*
Y84815D01*
X344500Y85000D01*
X344491Y85185D01*
Y187204D01*
X344574Y187233D01*
X344688Y187296D01*
X344790Y187378D01*
X344876Y187477D01*
X344943Y187589D01*
X345144Y188056D01*
X345302Y188540D01*
X345414Y189036D01*
X345480Y189540D01*
X345499Y190048D01*
X345471Y190556D01*
X345397Y191059D01*
X345276Y191553D01*
X345110Y192034D01*
X344900Y192497D01*
Y192498D01*
X344831Y192609D01*
X344743Y192706D01*
X344640Y192786D01*
X344525Y192848D01*
X344491Y192859D01*
Y205378D01*
X344649Y205536D01*
X344799Y205750D01*
X344910Y205987D01*
X344977Y206240D01*
X345000Y206500D01*
Y213500D01*
X344977Y213760D01*
X344910Y214013D01*
X344799Y214250D01*
X344649Y214464D01*
X344491Y214622D01*
Y252204D01*
X344574Y252233D01*
X344688Y252296D01*
X344790Y252378D01*
X344876Y252477D01*
X344943Y252589D01*
X345144Y253056D01*
X345302Y253540D01*
X345414Y254036D01*
X345480Y254540D01*
X345499Y255048D01*
X345471Y255556D01*
X345397Y256059D01*
X345276Y256553D01*
X345110Y257034D01*
X344900Y257497D01*
Y257498D01*
X344831Y257609D01*
X344743Y257706D01*
X344640Y257786D01*
X344525Y257848D01*
X344491Y257859D01*
Y280378D01*
X344649Y280536D01*
X344799Y280750D01*
X344910Y280987D01*
X344977Y281240D01*
X345000Y281500D01*
Y288500D01*
X344977Y288760D01*
X344910Y289013D01*
X344799Y289250D01*
X344649Y289464D01*
X344491Y289622D01*
Y350000D01*
G37*
G36*
Y214622D02*X344464Y214649D01*
X344250Y214799D01*
X344013Y214910D01*
X343760Y214977D01*
X343500Y215000D01*
X339962D01*
Y249504D01*
X340047Y249501D01*
X340555Y249529D01*
X341058Y249603D01*
X341552Y249724D01*
X342033Y249890D01*
X342496Y250100D01*
X342497D01*
X342608Y250169D01*
X342705Y250257D01*
X342785Y250360D01*
X342847Y250475D01*
X342887Y250600D01*
X342905Y250729D01*
X342900Y250860D01*
X342873Y250988D01*
X342824Y251109D01*
X342755Y251220D01*
X342667Y251317D01*
X342564Y251397D01*
X342449Y251459D01*
X342324Y251499D01*
X342195Y251517D01*
X342064Y251512D01*
X341936Y251485D01*
X341815Y251436D01*
X341478Y251284D01*
X341129Y251163D01*
X340770Y251075D01*
X340404Y251021D01*
X340034Y251001D01*
X339962Y251004D01*
Y259000D01*
X339965D01*
X340334Y258986D01*
X340701Y258939D01*
X341062Y258857D01*
X341413Y258742D01*
X341753Y258596D01*
X341875Y258549D01*
X342003Y258524D01*
X342134Y258522D01*
X342263Y258542D01*
X342387Y258585D01*
X342501Y258648D01*
X342603Y258730D01*
X342689Y258829D01*
X342756Y258941D01*
X342803Y259063D01*
X342828Y259191D01*
X342830Y259322D01*
X342810Y259451D01*
X342767Y259575D01*
X342704Y259689D01*
X342622Y259791D01*
X342523Y259877D01*
X342411Y259944D01*
X341944Y260145D01*
X341460Y260303D01*
X340964Y260415D01*
X340460Y260481D01*
X339962Y260500D01*
Y280000D01*
X343500D01*
X343760Y280023D01*
X344013Y280090D01*
X344250Y280201D01*
X344464Y280351D01*
X344491Y280378D01*
Y257859D01*
X344400Y257888D01*
X344271Y257906D01*
X344140Y257901D01*
X344012Y257874D01*
X343891Y257825D01*
X343780Y257756D01*
X343683Y257668D01*
X343603Y257565D01*
X343541Y257450D01*
X343501Y257325D01*
X343483Y257196D01*
X343488Y257065D01*
X343515Y256937D01*
X343564Y256816D01*
X343716Y256479D01*
X343837Y256130D01*
X343925Y255771D01*
X343979Y255405D01*
X343999Y255035D01*
X343985Y254666D01*
X343938Y254299D01*
X343856Y253938D01*
X343741Y253587D01*
X343595Y253247D01*
X343548Y253125D01*
X343523Y252997D01*
X343521Y252866D01*
X343541Y252737D01*
X343584Y252613D01*
X343647Y252499D01*
X343729Y252397D01*
X343828Y252311D01*
X343940Y252244D01*
X344062Y252197D01*
X344190Y252172D01*
X344321Y252170D01*
X344450Y252190D01*
X344491Y252204D01*
Y214622D01*
G37*
G36*
Y55103D02*X344432Y55781D01*
X344229Y56539D01*
X343897Y57250D01*
X343447Y57893D01*
X342893Y58447D01*
X342250Y58897D01*
X341539Y59229D01*
X340781Y59432D01*
X340000Y59500D01*
X339962Y59497D01*
Y80502D01*
X340000Y80500D01*
X340431Y80521D01*
X340858Y80583D01*
X341278Y80686D01*
X341685Y80828D01*
Y80829D01*
X341801Y80888D01*
X341906Y80967D01*
X341995Y81063D01*
X342066Y81172D01*
X342117Y81293D01*
X342146Y81420D01*
X342153Y81550D01*
X342137Y81680D01*
X342099Y81805D01*
X342040Y81921D01*
X341961Y82026D01*
X341865Y82115D01*
X341756Y82186D01*
X341635Y82237D01*
X341508Y82266D01*
X341378Y82273D01*
X341248Y82257D01*
X341123Y82219D01*
X340852Y82124D01*
X340572Y82056D01*
X340287Y82014D01*
X340000Y82000D01*
X339962Y82002D01*
Y87998D01*
X340000Y88000D01*
X340287Y87987D01*
X340572Y87945D01*
X340852Y87877D01*
X341123Y87782D01*
Y87781D01*
X341248Y87743D01*
X341378Y87727D01*
X341509Y87734D01*
X341636Y87763D01*
X341757Y87814D01*
X341866Y87886D01*
X341962Y87975D01*
X342041Y88079D01*
X342100Y88196D01*
X342138Y88321D01*
X342154Y88451D01*
X342147Y88582D01*
X342118Y88709D01*
X342067Y88830D01*
X341995Y88939D01*
X341906Y89035D01*
X341802Y89114D01*
X341685Y89173D01*
X341278Y89315D01*
X340858Y89418D01*
X340431Y89480D01*
X340000Y89500D01*
X339962Y89498D01*
Y184504D01*
X340047Y184501D01*
X340555Y184529D01*
X341058Y184603D01*
X341552Y184724D01*
X342033Y184890D01*
X342496Y185100D01*
X342497D01*
X342608Y185169D01*
X342705Y185257D01*
X342785Y185360D01*
X342847Y185475D01*
X342887Y185600D01*
X342905Y185729D01*
X342900Y185860D01*
X342873Y185988D01*
X342824Y186109D01*
X342755Y186220D01*
X342667Y186317D01*
X342564Y186397D01*
X342449Y186459D01*
X342324Y186499D01*
X342195Y186517D01*
X342064Y186512D01*
X341936Y186485D01*
X341815Y186436D01*
X341478Y186284D01*
X341129Y186163D01*
X340770Y186075D01*
X340404Y186021D01*
X340034Y186001D01*
X339962Y186004D01*
Y194000D01*
X339965D01*
X340334Y193986D01*
X340701Y193939D01*
X341062Y193857D01*
X341413Y193742D01*
X341753Y193596D01*
X341875Y193549D01*
X342003Y193524D01*
X342134Y193522D01*
X342263Y193542D01*
X342387Y193585D01*
X342501Y193648D01*
X342603Y193730D01*
X342689Y193829D01*
X342756Y193941D01*
X342803Y194063D01*
X342828Y194191D01*
X342830Y194322D01*
X342810Y194451D01*
X342767Y194575D01*
X342704Y194689D01*
X342622Y194791D01*
X342523Y194877D01*
X342411Y194944D01*
X341944Y195145D01*
X341460Y195303D01*
X340964Y195415D01*
X340460Y195481D01*
X339962Y195500D01*
Y205000D01*
X343500D01*
X343760Y205023D01*
X344013Y205090D01*
X344250Y205201D01*
X344464Y205351D01*
X344491Y205378D01*
Y192859D01*
X344400Y192888D01*
X344271Y192906D01*
X344140Y192901D01*
X344012Y192874D01*
X343891Y192825D01*
X343780Y192756D01*
X343683Y192668D01*
X343603Y192565D01*
X343541Y192450D01*
X343501Y192325D01*
X343483Y192196D01*
X343488Y192065D01*
X343515Y191937D01*
X343564Y191816D01*
X343716Y191479D01*
X343837Y191130D01*
X343925Y190771D01*
X343979Y190405D01*
X343999Y190035D01*
X343985Y189666D01*
X343938Y189299D01*
X343856Y188938D01*
X343741Y188587D01*
X343595Y188247D01*
X343548Y188125D01*
X343523Y187997D01*
X343521Y187866D01*
X343541Y187737D01*
X343584Y187613D01*
X343647Y187499D01*
X343729Y187397D01*
X343828Y187311D01*
X343940Y187244D01*
X344062Y187197D01*
X344190Y187172D01*
X344321Y187170D01*
X344450Y187190D01*
X344491Y187204D01*
Y85185D01*
X344479Y85432D01*
X344417Y85859D01*
X344314Y86279D01*
X344172Y86686D01*
X344171D01*
X344112Y86802D01*
X344033Y86907D01*
X343937Y86996D01*
X343828Y87067D01*
X343707Y87118D01*
X343580Y87147D01*
X343450Y87154D01*
X343320Y87138D01*
X343195Y87100D01*
X343079Y87041D01*
X342974Y86962D01*
X342885Y86866D01*
X342814Y86757D01*
X342763Y86636D01*
X342734Y86509D01*
X342727Y86379D01*
X342743Y86249D01*
X342781Y86124D01*
X342876Y85853D01*
X342944Y85573D01*
X342986Y85288D01*
X343000Y85000D01*
X342986Y84713D01*
X342944Y84428D01*
X342876Y84148D01*
X342781Y83877D01*
X342780D01*
X342742Y83752D01*
X342726Y83622D01*
X342733Y83491D01*
X342762Y83364D01*
X342813Y83243D01*
X342885Y83134D01*
X342974Y83038D01*
X343078Y82959D01*
X343195Y82900D01*
X343320Y82862D01*
X343450Y82846D01*
X343581Y82853D01*
X343708Y82882D01*
X343829Y82933D01*
X343938Y83005D01*
X344034Y83094D01*
X344113Y83198D01*
X344172Y83315D01*
X344314Y83722D01*
X344417Y84142D01*
X344479Y84569D01*
X344491Y84815D01*
Y55103D01*
G37*
G36*
Y0D02*X339962D01*
Y50503D01*
X340000Y50500D01*
X340781Y50568D01*
X341539Y50771D01*
X342250Y51103D01*
X342893Y51553D01*
X343447Y52107D01*
X343897Y52750D01*
X344229Y53461D01*
X344432Y54219D01*
X344491Y54897D01*
Y0D01*
G37*
G36*
X339962Y350000D02*X344491D01*
Y289622D01*
X344464Y289649D01*
X344250Y289799D01*
X344013Y289910D01*
X343760Y289977D01*
X343500Y290000D01*
X339962D01*
Y350000D01*
G37*
G36*
Y215000D02*X336500D01*
X336240Y214977D01*
X335987Y214910D01*
X335750Y214799D01*
X335536Y214649D01*
X335508Y214621D01*
Y252142D01*
X335599Y252113D01*
X335728Y252095D01*
X335859Y252100D01*
X335987Y252127D01*
X336108Y252176D01*
X336219Y252245D01*
X336316Y252333D01*
X336396Y252436D01*
X336458Y252551D01*
X336498Y252676D01*
X336516Y252805D01*
X336511Y252936D01*
X336484Y253064D01*
X336435Y253185D01*
X336283Y253522D01*
X336162Y253871D01*
X336074Y254230D01*
X336020Y254596D01*
X336000Y254966D01*
X336014Y255335D01*
X336061Y255702D01*
X336143Y256063D01*
X336258Y256414D01*
X336404Y256754D01*
X336451Y256876D01*
X336476Y257004D01*
X336478Y257135D01*
X336458Y257264D01*
X336415Y257388D01*
X336352Y257502D01*
X336270Y257604D01*
X336171Y257690D01*
X336059Y257757D01*
X335937Y257804D01*
X335809Y257829D01*
X335678Y257831D01*
X335549Y257811D01*
X335508Y257797D01*
Y280379D01*
X335536Y280351D01*
X335750Y280201D01*
X335987Y280090D01*
X336240Y280023D01*
X336500Y280000D01*
X339962D01*
Y260500D01*
X339952D01*
X339444Y260472D01*
X338941Y260398D01*
X338447Y260277D01*
X337966Y260111D01*
X337503Y259901D01*
X337502D01*
X337391Y259832D01*
X337294Y259744D01*
X337214Y259641D01*
X337152Y259526D01*
X337112Y259401D01*
X337094Y259272D01*
X337099Y259141D01*
X337126Y259013D01*
X337175Y258892D01*
X337244Y258781D01*
X337332Y258684D01*
X337435Y258604D01*
X337550Y258542D01*
X337675Y258502D01*
X337804Y258484D01*
X337935Y258489D01*
X338063Y258516D01*
X338184Y258565D01*
X338521Y258717D01*
X338870Y258838D01*
X339229Y258926D01*
X339595Y258980D01*
X339962Y259000D01*
Y251004D01*
X339665Y251015D01*
X339298Y251062D01*
X338937Y251144D01*
X338586Y251259D01*
X338246Y251405D01*
X338124Y251452D01*
X337996Y251477D01*
X337865Y251479D01*
X337736Y251459D01*
X337612Y251416D01*
X337498Y251353D01*
X337396Y251271D01*
X337310Y251172D01*
X337243Y251060D01*
X337196Y250938D01*
X337171Y250810D01*
X337169Y250679D01*
X337189Y250550D01*
X337232Y250426D01*
X337295Y250312D01*
X337377Y250210D01*
X337476Y250124D01*
X337588Y250057D01*
X338055Y249856D01*
X338539Y249698D01*
X339035Y249586D01*
X339539Y249520D01*
X339962Y249504D01*
Y215000D01*
G37*
G36*
Y59497D02*X339219Y59432D01*
X338461Y59229D01*
X337750Y58897D01*
X337107Y58447D01*
X336553Y57893D01*
X336103Y57250D01*
X335771Y56539D01*
X335568Y55781D01*
X335508Y55092D01*
Y84828D01*
X335520Y84569D01*
X335582Y84142D01*
X335685Y83722D01*
X335827Y83315D01*
X335828D01*
X335887Y83199D01*
X335966Y83094D01*
X336062Y83005D01*
X336171Y82934D01*
X336292Y82883D01*
X336419Y82854D01*
X336549Y82847D01*
X336679Y82863D01*
X336804Y82901D01*
X336920Y82960D01*
X337025Y83039D01*
X337114Y83135D01*
X337185Y83244D01*
X337236Y83365D01*
X337265Y83492D01*
X337272Y83622D01*
X337256Y83752D01*
X337218Y83877D01*
X337123Y84148D01*
X337055Y84428D01*
X337013Y84713D01*
X337000Y85000D01*
X337013Y85288D01*
X337055Y85573D01*
X337123Y85853D01*
X337218Y86124D01*
X337219D01*
X337257Y86249D01*
X337273Y86379D01*
X337266Y86510D01*
X337237Y86637D01*
X337186Y86758D01*
X337114Y86867D01*
X337025Y86963D01*
X336921Y87042D01*
X336804Y87101D01*
X336679Y87139D01*
X336549Y87155D01*
X336418Y87148D01*
X336291Y87119D01*
X336170Y87068D01*
X336061Y86996D01*
X335965Y86907D01*
X335886Y86803D01*
X335827Y86686D01*
X335685Y86279D01*
X335582Y85859D01*
X335520Y85432D01*
X335508Y85173D01*
Y187142D01*
X335599Y187113D01*
X335728Y187095D01*
X335859Y187100D01*
X335987Y187127D01*
X336108Y187176D01*
X336219Y187245D01*
X336316Y187333D01*
X336396Y187436D01*
X336458Y187551D01*
X336498Y187676D01*
X336516Y187805D01*
X336511Y187936D01*
X336484Y188064D01*
X336435Y188185D01*
X336283Y188522D01*
X336162Y188871D01*
X336074Y189230D01*
X336020Y189596D01*
X336000Y189966D01*
X336014Y190335D01*
X336061Y190702D01*
X336143Y191063D01*
X336258Y191414D01*
X336404Y191754D01*
X336451Y191876D01*
X336476Y192004D01*
X336478Y192135D01*
X336458Y192264D01*
X336415Y192388D01*
X336352Y192502D01*
X336270Y192604D01*
X336171Y192690D01*
X336059Y192757D01*
X335937Y192804D01*
X335809Y192829D01*
X335678Y192831D01*
X335549Y192811D01*
X335508Y192797D01*
Y205379D01*
X335536Y205351D01*
X335750Y205201D01*
X335987Y205090D01*
X336240Y205023D01*
X336500Y205000D01*
X339962D01*
Y195500D01*
X339952D01*
X339444Y195472D01*
X338941Y195398D01*
X338447Y195277D01*
X337966Y195111D01*
X337503Y194901D01*
X337502D01*
X337391Y194832D01*
X337294Y194744D01*
X337214Y194641D01*
X337152Y194526D01*
X337112Y194401D01*
X337094Y194272D01*
X337099Y194141D01*
X337126Y194013D01*
X337175Y193892D01*
X337244Y193781D01*
X337332Y193684D01*
X337435Y193604D01*
X337550Y193542D01*
X337675Y193502D01*
X337804Y193484D01*
X337935Y193489D01*
X338063Y193516D01*
X338184Y193565D01*
X338521Y193717D01*
X338870Y193838D01*
X339229Y193926D01*
X339595Y193980D01*
X339962Y194000D01*
Y186004D01*
X339665Y186015D01*
X339298Y186062D01*
X338937Y186144D01*
X338586Y186259D01*
X338246Y186405D01*
X338124Y186452D01*
X337996Y186477D01*
X337865Y186479D01*
X337736Y186459D01*
X337612Y186416D01*
X337498Y186353D01*
X337396Y186271D01*
X337310Y186172D01*
X337243Y186060D01*
X337196Y185938D01*
X337171Y185810D01*
X337169Y185679D01*
X337189Y185550D01*
X337232Y185426D01*
X337295Y185312D01*
X337377Y185210D01*
X337476Y185124D01*
X337588Y185057D01*
X338055Y184856D01*
X338539Y184698D01*
X339035Y184586D01*
X339539Y184520D01*
X339962Y184504D01*
Y89498D01*
X339568Y89480D01*
X339141Y89418D01*
X338721Y89315D01*
X338314Y89173D01*
Y89172D01*
X338198Y89113D01*
X338093Y89034D01*
X338004Y88938D01*
X337933Y88829D01*
X337882Y88708D01*
X337853Y88581D01*
X337846Y88451D01*
X337862Y88321D01*
X337900Y88196D01*
X337959Y88080D01*
X338038Y87975D01*
X338134Y87886D01*
X338243Y87815D01*
X338364Y87764D01*
X338491Y87735D01*
X338621Y87728D01*
X338751Y87744D01*
X338876Y87782D01*
X339147Y87877D01*
X339427Y87945D01*
X339712Y87987D01*
X339962Y87998D01*
Y82002D01*
X339712Y82014D01*
X339427Y82056D01*
X339147Y82124D01*
X338876Y82219D01*
Y82220D01*
X338751Y82258D01*
X338621Y82274D01*
X338490Y82267D01*
X338363Y82238D01*
X338242Y82187D01*
X338133Y82115D01*
X338037Y82026D01*
X337958Y81922D01*
X337899Y81805D01*
X337861Y81680D01*
X337845Y81550D01*
X337852Y81419D01*
X337881Y81292D01*
X337932Y81171D01*
X338004Y81062D01*
X338093Y80966D01*
X338197Y80887D01*
X338314Y80828D01*
X338721Y80686D01*
X339141Y80583D01*
X339568Y80521D01*
X339962Y80502D01*
Y59497D01*
G37*
G36*
Y0D02*X335508D01*
Y54908D01*
X335568Y54219D01*
X335771Y53461D01*
X336103Y52750D01*
X336553Y52107D01*
X337107Y51553D01*
X337750Y51103D01*
X338461Y50771D01*
X339219Y50568D01*
X339962Y50503D01*
Y0D01*
G37*
G36*
X335508Y350000D02*X339962D01*
Y290000D01*
X336500D01*
X336240Y289977D01*
X335987Y289910D01*
X335750Y289799D01*
X335536Y289649D01*
X335508Y289621D01*
Y350000D01*
G37*
G36*
X330000D02*X335508D01*
Y289621D01*
X335351Y289464D01*
X335201Y289250D01*
X335090Y289013D01*
X335023Y288760D01*
X335000Y288500D01*
Y281500D01*
X335023Y281240D01*
X335090Y280987D01*
X335201Y280750D01*
X335351Y280536D01*
X335508Y280379D01*
Y257797D01*
X335425Y257768D01*
X335311Y257705D01*
X335209Y257623D01*
X335123Y257524D01*
X335056Y257412D01*
X334855Y256945D01*
X334697Y256461D01*
X334585Y255965D01*
X334519Y255461D01*
X334500Y254953D01*
X334528Y254445D01*
X334602Y253942D01*
X334723Y253448D01*
X334889Y252967D01*
X335099Y252504D01*
Y252503D01*
X335168Y252392D01*
X335256Y252295D01*
X335359Y252215D01*
X335474Y252153D01*
X335508Y252142D01*
Y214621D01*
X335351Y214464D01*
X335201Y214250D01*
X335090Y214013D01*
X335023Y213760D01*
X335000Y213500D01*
Y206500D01*
X335023Y206240D01*
X335090Y205987D01*
X335201Y205750D01*
X335351Y205536D01*
X335508Y205379D01*
Y192797D01*
X335425Y192768D01*
X335311Y192705D01*
X335209Y192623D01*
X335123Y192524D01*
X335056Y192412D01*
X334855Y191945D01*
X334697Y191461D01*
X334585Y190965D01*
X334519Y190461D01*
X334500Y189953D01*
X334528Y189445D01*
X334602Y188942D01*
X334723Y188448D01*
X334889Y187967D01*
X335099Y187504D01*
Y187503D01*
X335168Y187392D01*
X335256Y187295D01*
X335359Y187215D01*
X335474Y187153D01*
X335508Y187142D01*
Y85173D01*
X335500Y85000D01*
X335508Y84828D01*
Y55092D01*
X335500Y55000D01*
X335508Y54908D01*
Y0D01*
X330000D01*
Y50500D01*
X330781Y50568D01*
X331539Y50771D01*
X332250Y51103D01*
X332893Y51553D01*
X333447Y52107D01*
X333897Y52750D01*
X334229Y53461D01*
X334432Y54219D01*
X334500Y55000D01*
X334432Y55781D01*
X334229Y56539D01*
X333897Y57250D01*
X333447Y57893D01*
X332893Y58447D01*
X332250Y58897D01*
X331539Y59229D01*
X330781Y59432D01*
X330000Y59500D01*
Y80500D01*
X330781Y80568D01*
X331539Y80771D01*
X332250Y81103D01*
X332893Y81553D01*
X333447Y82107D01*
X333897Y82750D01*
X334229Y83461D01*
X334432Y84219D01*
X334500Y85000D01*
X334432Y85781D01*
X334229Y86539D01*
X333897Y87250D01*
X333447Y87893D01*
X332893Y88447D01*
X332250Y88897D01*
X331539Y89229D01*
X330781Y89432D01*
X330000Y89500D01*
Y350000D01*
G37*
G36*
X324250D02*X330000D01*
Y89500D01*
X329219Y89432D01*
X328461Y89229D01*
X327750Y88897D01*
X327107Y88447D01*
X326553Y87893D01*
X326103Y87250D01*
X325771Y86539D01*
X325568Y85781D01*
X325500Y85000D01*
X325568Y84219D01*
X325771Y83461D01*
X326103Y82750D01*
X326553Y82107D01*
X327107Y81553D01*
X327750Y81103D01*
X328461Y80771D01*
X329219Y80568D01*
X330000Y80500D01*
Y59500D01*
X329219Y59432D01*
X328461Y59229D01*
X327750Y58897D01*
X327107Y58447D01*
X326553Y57893D01*
X326103Y57250D01*
X325771Y56539D01*
X325568Y55781D01*
X325500Y55000D01*
X325568Y54219D01*
X325771Y53461D01*
X326103Y52750D01*
X326553Y52107D01*
X327107Y51553D01*
X327750Y51103D01*
X328461Y50771D01*
X329219Y50568D01*
X330000Y50500D01*
Y0D01*
X324250D01*
Y135770D01*
X324970D01*
X325230Y135793D01*
X325483Y135860D01*
X325720Y135971D01*
X325934Y136121D01*
X326119Y136306D01*
X326269Y136520D01*
X326380Y136757D01*
X326447Y137010D01*
X326470Y137270D01*
Y145770D01*
X326447Y146030D01*
X326380Y146283D01*
X326269Y146520D01*
X326119Y146734D01*
X325934Y146919D01*
X325720Y147069D01*
X325483Y147180D01*
X325230Y147247D01*
X324970Y147270D01*
X324250D01*
Y232250D01*
X325000D01*
Y237750D01*
X324250D01*
Y307250D01*
X324380Y307261D01*
X324507Y307295D01*
X324625Y307350D01*
X324732Y307425D01*
X324825Y307518D01*
X324900Y307625D01*
X324955Y307743D01*
X324989Y307870D01*
X325000Y308000D01*
Y312000D01*
X324989Y312130D01*
X324955Y312257D01*
X324900Y312375D01*
X324825Y312482D01*
X324732Y312575D01*
X324625Y312650D01*
X324507Y312705D01*
X324380Y312739D01*
X324250Y312750D01*
Y350000D01*
G37*
G36*
Y0D02*X320000D01*
Y135770D01*
X324250D01*
Y0D01*
G37*
G36*
X320000Y350000D02*X324250D01*
Y312750D01*
X324120Y312739D01*
X323993Y312705D01*
X323875Y312650D01*
X323768Y312575D01*
X323675Y312482D01*
X323600Y312375D01*
X323545Y312257D01*
X323511Y312130D01*
X323500Y312000D01*
Y308000D01*
X323511Y307870D01*
X323545Y307743D01*
X323600Y307625D01*
X323675Y307518D01*
X323768Y307425D01*
X323875Y307350D01*
X323993Y307295D01*
X324120Y307261D01*
X324250Y307250D01*
Y237750D01*
X323500D01*
Y232250D01*
X324250D01*
Y147270D01*
X320000D01*
Y230000D01*
X322750D01*
Y231500D01*
X320000D01*
Y238500D01*
X322750D01*
Y240000D01*
X320000D01*
Y305000D01*
X322000D01*
X322130Y305011D01*
X322257Y305045D01*
X322375Y305100D01*
X322482Y305175D01*
X322575Y305268D01*
X322650Y305375D01*
X322705Y305493D01*
X322739Y305620D01*
X322750Y305750D01*
X322739Y305880D01*
X322705Y306007D01*
X322650Y306125D01*
X322575Y306232D01*
X322482Y306325D01*
X322375Y306400D01*
X322257Y306455D01*
X322130Y306489D01*
X322000Y306500D01*
X320000D01*
Y313500D01*
X322000D01*
X322130Y313511D01*
X322257Y313545D01*
X322375Y313600D01*
X322482Y313675D01*
X322575Y313768D01*
X322650Y313875D01*
X322705Y313993D01*
X322739Y314120D01*
X322750Y314250D01*
X322739Y314380D01*
X322705Y314507D01*
X322650Y314625D01*
X322575Y314732D01*
X322482Y314825D01*
X322375Y314900D01*
X322257Y314955D01*
X322130Y314989D01*
X322000Y315000D01*
X320000D01*
Y350000D01*
G37*
G36*
Y0D02*X315750D01*
Y135957D01*
X315957Y135860D01*
X316210Y135793D01*
X316470Y135770D01*
X320000D01*
Y0D01*
G37*
G36*
X315750Y350000D02*X320000D01*
Y315000D01*
X318000D01*
X317870Y314989D01*
X317743Y314955D01*
X317625Y314900D01*
X317518Y314825D01*
X317425Y314732D01*
X317350Y314625D01*
X317295Y314507D01*
X317261Y314380D01*
X317250Y314250D01*
X317261Y314120D01*
X317295Y313993D01*
X317350Y313875D01*
X317425Y313768D01*
X317518Y313675D01*
X317625Y313600D01*
X317743Y313545D01*
X317870Y313511D01*
X318000Y313500D01*
X320000D01*
Y306500D01*
X318000D01*
X317870Y306489D01*
X317743Y306455D01*
X317625Y306400D01*
X317518Y306325D01*
X317425Y306232D01*
X317350Y306125D01*
X317295Y306007D01*
X317261Y305880D01*
X317250Y305750D01*
X317261Y305620D01*
X317295Y305493D01*
X317350Y305375D01*
X317425Y305268D01*
X317518Y305175D01*
X317625Y305100D01*
X317743Y305045D01*
X317870Y305011D01*
X318000Y305000D01*
X320000D01*
Y240000D01*
X317250D01*
Y238500D01*
X320000D01*
Y231500D01*
X317250D01*
Y230000D01*
X320000D01*
Y147270D01*
X316470D01*
X316210Y147247D01*
X315957Y147180D01*
X315750Y147083D01*
Y232250D01*
X316500D01*
Y237750D01*
X315750D01*
Y307250D01*
X315880Y307261D01*
X316007Y307295D01*
X316125Y307350D01*
X316232Y307425D01*
X316325Y307518D01*
X316400Y307625D01*
X316455Y307743D01*
X316489Y307870D01*
X316500Y308000D01*
Y312000D01*
X316489Y312130D01*
X316455Y312257D01*
X316400Y312375D01*
X316325Y312482D01*
X316232Y312575D01*
X316125Y312650D01*
X316007Y312705D01*
X315880Y312739D01*
X315750Y312750D01*
Y350000D01*
G37*
G36*
X305000D02*X315750D01*
Y312750D01*
X315620Y312739D01*
X315493Y312705D01*
X315375Y312650D01*
X315268Y312575D01*
X315175Y312482D01*
X315100Y312375D01*
X315045Y312257D01*
X315011Y312130D01*
X315000Y312000D01*
Y308000D01*
X315011Y307870D01*
X315045Y307743D01*
X315100Y307625D01*
X315175Y307518D01*
X315268Y307425D01*
X315375Y307350D01*
X315493Y307295D01*
X315620Y307261D01*
X315750Y307250D01*
Y237750D01*
X315000D01*
Y232250D01*
X315750D01*
Y147083D01*
X315720Y147069D01*
X315506Y146919D01*
X315321Y146734D01*
X315171Y146520D01*
X315060Y146283D01*
X314993Y146030D01*
X314970Y145770D01*
Y137270D01*
X314993Y137010D01*
X315060Y136757D01*
X315171Y136520D01*
X315321Y136306D01*
X315506Y136121D01*
X315720Y135971D01*
X315750Y135957D01*
Y0D01*
X305000D01*
Y55000D01*
X308500D01*
X308760Y55023D01*
X309013Y55090D01*
X309250Y55201D01*
X309464Y55351D01*
X309649Y55536D01*
X309799Y55750D01*
X309910Y55987D01*
X309977Y56240D01*
X310000Y56500D01*
Y63500D01*
X309977Y63760D01*
X309910Y64013D01*
X309799Y64250D01*
X309649Y64464D01*
X309464Y64649D01*
X309250Y64799D01*
X309013Y64910D01*
X308760Y64977D01*
X308500Y65000D01*
X305000D01*
X305868Y65076D01*
X306710Y65302D01*
X307500Y65670D01*
X308214Y66170D01*
X308830Y66786D01*
X309330Y67500D01*
X309698Y68290D01*
X309924Y69132D01*
X310000Y70000D01*
X309924Y70868D01*
X309698Y71710D01*
X309330Y72500D01*
X308830Y73214D01*
X308214Y73830D01*
X307500Y74330D01*
X306710Y74698D01*
X305868Y74924D01*
X305000Y75000D01*
X305868Y75076D01*
X306710Y75302D01*
X307500Y75670D01*
X308214Y76170D01*
X308830Y76786D01*
X309330Y77500D01*
X309698Y78290D01*
X309924Y79132D01*
X310000Y80000D01*
X309924Y80868D01*
X309698Y81710D01*
X309330Y82500D01*
X308830Y83214D01*
X308214Y83830D01*
X307500Y84330D01*
X306710Y84698D01*
X305868Y84924D01*
X305000Y85000D01*
Y350000D01*
G37*
G36*
X280000D02*X305000D01*
Y85000D01*
X304132Y84924D01*
X303290Y84698D01*
X302500Y84330D01*
X301786Y83830D01*
X301170Y83214D01*
X300670Y82500D01*
X300302Y81710D01*
X300076Y80868D01*
X300000Y80000D01*
X300076Y79132D01*
X300302Y78290D01*
X300670Y77500D01*
X301170Y76786D01*
X301786Y76170D01*
X302500Y75670D01*
X303290Y75302D01*
X304132Y75076D01*
X305000Y75000D01*
X304132Y74924D01*
X303290Y74698D01*
X302500Y74330D01*
X301786Y73830D01*
X301170Y73214D01*
X300670Y72500D01*
X300302Y71710D01*
X300076Y70868D01*
X300000Y70000D01*
X300076Y69132D01*
X300302Y68290D01*
X300670Y67500D01*
X301170Y66786D01*
X301786Y66170D01*
X302500Y65670D01*
X303290Y65302D01*
X304132Y65076D01*
X305000Y65000D01*
X301500D01*
X301240Y64977D01*
X300987Y64910D01*
X300750Y64799D01*
X300536Y64649D01*
X300351Y64464D01*
X300201Y64250D01*
X300090Y64013D01*
X300023Y63760D01*
X300000Y63500D01*
Y56500D01*
X300023Y56240D01*
X300090Y55987D01*
X300201Y55750D01*
X300351Y55536D01*
X300536Y55351D01*
X300750Y55201D01*
X300987Y55090D01*
X301240Y55023D01*
X301500Y55000D01*
X305000D01*
Y0D01*
X280000D01*
Y32822D01*
X280726Y32885D01*
X281429Y33074D01*
X282089Y33382D01*
X282686Y33799D01*
X283201Y34314D01*
X283618Y34911D01*
X283926Y35571D01*
X284115Y36274D01*
X284178Y37000D01*
X284115Y37726D01*
X283926Y38429D01*
X283618Y39089D01*
X283201Y39686D01*
X282686Y40201D01*
X282089Y40618D01*
X281429Y40926D01*
X280726Y41115D01*
X280000Y41178D01*
Y70322D01*
X280726Y70385D01*
X281429Y70574D01*
X282089Y70882D01*
X282686Y71299D01*
X283201Y71814D01*
X283618Y72411D01*
X283926Y73071D01*
X284115Y73774D01*
X284178Y74500D01*
X284115Y75226D01*
X283926Y75929D01*
X283618Y76589D01*
X283201Y77186D01*
X282686Y77701D01*
X282089Y78118D01*
X281429Y78426D01*
X280726Y78615D01*
X280000Y78678D01*
Y106137D01*
X280715Y106470D01*
X281536Y107045D01*
X282245Y107754D01*
X282820Y108575D01*
X283243Y109483D01*
X283503Y110452D01*
X283590Y111450D01*
X283503Y112448D01*
X283243Y113417D01*
X282820Y114325D01*
X282245Y115146D01*
X281536Y115855D01*
X280715Y116430D01*
X280000Y116763D01*
Y214175D01*
X282000Y214000D01*
X284952Y214258D01*
X287814Y215025D01*
X290500Y216278D01*
X292927Y217977D01*
X295023Y220073D01*
X296722Y222500D01*
X297975Y225186D01*
X298742Y228048D01*
X299000Y231000D01*
X298742Y233952D01*
X297975Y236814D01*
X296722Y239500D01*
X295023Y241927D01*
X292927Y244023D01*
X290500Y245722D01*
X287814Y246975D01*
X284952Y247742D01*
X282000Y248000D01*
X280000Y247825D01*
Y350000D01*
G37*
G36*
X254160D02*X280000D01*
Y247825D01*
X279048Y247742D01*
X276186Y246975D01*
X273500Y245722D01*
X271073Y244023D01*
X268977Y241927D01*
X267278Y239500D01*
X266025Y236814D01*
X265258Y233952D01*
X265000Y231000D01*
X265258Y228048D01*
X266025Y225186D01*
X267278Y222500D01*
X268977Y220073D01*
X271073Y217977D01*
X273500Y216278D01*
X276186Y215025D01*
X279048Y214258D01*
X280000Y214175D01*
Y116763D01*
X279807Y116853D01*
X278838Y117113D01*
X277840Y117200D01*
X276842Y117113D01*
X275873Y116853D01*
X274965Y116430D01*
X274144Y115855D01*
X273435Y115146D01*
X272860Y114325D01*
X272437Y113417D01*
X272177Y112448D01*
X272090Y111450D01*
X272177Y110452D01*
X272437Y109483D01*
X272860Y108575D01*
X273435Y107754D01*
X274144Y107045D01*
X274965Y106470D01*
X275873Y106047D01*
X276842Y105787D01*
X277840Y105700D01*
X278838Y105787D01*
X279807Y106047D01*
X280000Y106137D01*
Y78678D01*
X279274Y78615D01*
X278571Y78426D01*
X277911Y78118D01*
X277314Y77701D01*
X276799Y77186D01*
X276382Y76589D01*
X276074Y75929D01*
X275885Y75226D01*
X275822Y74500D01*
X275885Y73774D01*
X276074Y73071D01*
X276382Y72411D01*
X276799Y71814D01*
X277314Y71299D01*
X277911Y70882D01*
X278571Y70574D01*
X279274Y70385D01*
X280000Y70322D01*
Y41178D01*
X279274Y41115D01*
X278571Y40926D01*
X277911Y40618D01*
X277314Y40201D01*
X276799Y39686D01*
X276382Y39089D01*
X276074Y38429D01*
X275885Y37726D01*
X275822Y37000D01*
X275885Y36274D01*
X276074Y35571D01*
X276382Y34911D01*
X276799Y34314D01*
X277314Y33799D01*
X277911Y33382D01*
X278571Y33074D01*
X279274Y32885D01*
X280000Y32822D01*
Y0D01*
X254160D01*
Y33610D01*
X258410D01*
X258670Y33633D01*
X258923Y33700D01*
X259160Y33811D01*
X259374Y33961D01*
X259559Y34146D01*
X259709Y34360D01*
X259820Y34597D01*
X259887Y34850D01*
X259910Y35110D01*
Y43610D01*
X259887Y43870D01*
X259820Y44123D01*
X259709Y44360D01*
X259559Y44574D01*
X259374Y44759D01*
X259160Y44909D01*
X258923Y45020D01*
X258670Y45087D01*
X258410Y45110D01*
X254160D01*
Y113610D01*
X255158Y113697D01*
X256127Y113957D01*
X257035Y114380D01*
X257856Y114955D01*
X258565Y115664D01*
X259140Y116485D01*
X259563Y117393D01*
X259823Y118362D01*
X259910Y119360D01*
X259823Y120358D01*
X259563Y121327D01*
X259140Y122235D01*
X258565Y123056D01*
X257856Y123765D01*
X257035Y124340D01*
X256127Y124763D01*
X255158Y125023D01*
X254160Y125110D01*
Y350000D01*
G37*
G36*
X240720D02*X254160D01*
Y125110D01*
X253162Y125023D01*
X252193Y124763D01*
X251285Y124340D01*
X250464Y123765D01*
X249755Y123056D01*
X249180Y122235D01*
X248757Y121327D01*
X248497Y120358D01*
X248410Y119360D01*
X248497Y118362D01*
X248757Y117393D01*
X249180Y116485D01*
X249755Y115664D01*
X250464Y114955D01*
X251285Y114380D01*
X252193Y113957D01*
X253162Y113697D01*
X254160Y113610D01*
Y45110D01*
X249910D01*
X249650Y45087D01*
X249397Y45020D01*
X249160Y44909D01*
X248946Y44759D01*
X248761Y44574D01*
X248611Y44360D01*
X248500Y44123D01*
X248433Y43870D01*
X248410Y43610D01*
Y35110D01*
X248433Y34850D01*
X248500Y34597D01*
X248611Y34360D01*
X248761Y34146D01*
X248946Y33961D01*
X249160Y33811D01*
X249397Y33700D01*
X249650Y33633D01*
X249910Y33610D01*
X254160D01*
Y0D01*
X240720D01*
Y135770D01*
X241718Y135857D01*
X242687Y136117D01*
X243595Y136540D01*
X244416Y137115D01*
X245125Y137824D01*
X245700Y138645D01*
X246123Y139553D01*
X246383Y140522D01*
X246470Y141520D01*
X246383Y142518D01*
X246123Y143487D01*
X245700Y144395D01*
X245125Y145216D01*
X244416Y145925D01*
X243595Y146500D01*
X242687Y146923D01*
X241718Y147183D01*
X240720Y147270D01*
Y350000D01*
G37*
G36*
X221000D02*X240720D01*
Y147270D01*
X239722Y147183D01*
X238753Y146923D01*
X237845Y146500D01*
X237024Y145925D01*
X236315Y145216D01*
X235740Y144395D01*
X235317Y143487D01*
X235057Y142518D01*
X234970Y141520D01*
X235057Y140522D01*
X235317Y139553D01*
X235740Y138645D01*
X236315Y137824D01*
X237024Y137115D01*
X237845Y136540D01*
X238753Y136117D01*
X239722Y135857D01*
X240720Y135770D01*
Y0D01*
X221000D01*
Y55126D01*
X221680Y54446D01*
X222715Y53721D01*
X223860Y53187D01*
X225081Y52860D01*
X226340Y52750D01*
X227599Y52860D01*
X228820Y53187D01*
X229965Y53721D01*
X231000Y54446D01*
X231894Y55340D01*
X232619Y56375D01*
X233153Y57520D01*
X233480Y58741D01*
X233590Y60000D01*
X233480Y61259D01*
X233153Y62480D01*
X232619Y63625D01*
X231894Y64660D01*
X231000Y65554D01*
X229965Y66279D01*
X228820Y66813D01*
X227599Y67140D01*
X226340Y67250D01*
X225081Y67140D01*
X223860Y66813D01*
X222715Y66279D01*
X221680Y65554D01*
X221000Y64874D01*
Y129769D01*
X221446Y130725D01*
X222010Y132829D01*
X222200Y135000D01*
X222010Y137171D01*
X221446Y139275D01*
X221000Y140231D01*
Y160896D01*
X221750Y160371D01*
X222777Y159892D01*
X223871Y159599D01*
X225000Y159500D01*
X226129Y159599D01*
X227223Y159892D01*
X228250Y160371D01*
X229178Y161021D01*
X229979Y161822D01*
X230629Y162750D01*
X231108Y163777D01*
X231401Y164871D01*
X231500Y166000D01*
X231401Y167129D01*
X231108Y168223D01*
X230629Y169250D01*
X229979Y170178D01*
X229178Y170979D01*
X228250Y171629D01*
X227223Y172108D01*
X226129Y172401D01*
X225000Y172500D01*
X223871Y172401D01*
X222777Y172108D01*
X221750Y171629D01*
X221000Y171104D01*
Y290896D01*
X221750Y290371D01*
X222777Y289892D01*
X223871Y289599D01*
X225000Y289500D01*
X226129Y289599D01*
X227223Y289892D01*
X228250Y290371D01*
X229178Y291021D01*
X229979Y291822D01*
X230629Y292750D01*
X231108Y293777D01*
X231401Y294871D01*
X231500Y296000D01*
X231401Y297129D01*
X231108Y298223D01*
X230629Y299250D01*
X229979Y300178D01*
X229178Y300979D01*
X228250Y301629D01*
X227223Y302108D01*
X226129Y302401D01*
X225000Y302500D01*
X223871Y302401D01*
X222777Y302108D01*
X221750Y301629D01*
X221000Y301104D01*
Y322049D01*
X222207Y322155D01*
X223377Y322468D01*
X224476Y322980D01*
X225468Y323675D01*
X226325Y324532D01*
X227020Y325524D01*
X227532Y326623D01*
X227845Y327793D01*
X227951Y329000D01*
X227845Y330207D01*
X227532Y331377D01*
X227020Y332476D01*
X226325Y333468D01*
X225468Y334325D01*
X224476Y335020D01*
X223377Y335532D01*
X222207Y335845D01*
X221000Y335951D01*
Y350000D01*
G37*
G36*
X201000Y126089D02*X201665Y125424D01*
X203450Y124175D01*
X205425Y123254D01*
X207529Y122690D01*
X209700Y122500D01*
X211871Y122690D01*
X213975Y123254D01*
X215950Y124175D01*
X217735Y125424D01*
X219276Y126965D01*
X220525Y128750D01*
X221000Y129769D01*
Y64874D01*
X220786Y64660D01*
X220061Y63625D01*
X219527Y62480D01*
X219200Y61259D01*
X219090Y60000D01*
X219200Y58741D01*
X219527Y57520D01*
X220061Y56375D01*
X220786Y55340D01*
X221000Y55126D01*
Y0D01*
X201000D01*
Y126089D01*
G37*
G36*
Y350000D02*X221000D01*
Y335951D01*
X219793Y335845D01*
X218623Y335532D01*
X217524Y335020D01*
X216532Y334325D01*
X215675Y333468D01*
X214980Y332476D01*
X214468Y331377D01*
X214155Y330207D01*
X214049Y329000D01*
X214155Y327793D01*
X214468Y326623D01*
X214980Y325524D01*
X215675Y324532D01*
X216532Y323675D01*
X217524Y322980D01*
X218623Y322468D01*
X219793Y322155D01*
X221000Y322049D01*
Y301104D01*
X220822Y300979D01*
X220021Y300178D01*
X219371Y299250D01*
X218892Y298223D01*
X218599Y297129D01*
X218500Y296000D01*
X218599Y294871D01*
X218892Y293777D01*
X219371Y292750D01*
X220021Y291822D01*
X220822Y291021D01*
X221000Y290896D01*
Y171104D01*
X220822Y170979D01*
X220021Y170178D01*
X219371Y169250D01*
X218892Y168223D01*
X218599Y167129D01*
X218500Y166000D01*
X218599Y164871D01*
X218892Y163777D01*
X219371Y162750D01*
X220021Y161822D01*
X220822Y161021D01*
X221000Y160896D01*
Y140231D01*
X220525Y141250D01*
X219276Y143035D01*
X217735Y144576D01*
X215950Y145825D01*
X213975Y146746D01*
X211871Y147310D01*
X209700Y147500D01*
X207529Y147310D01*
X205425Y146746D01*
X203450Y145825D01*
X201665Y144576D01*
X201000Y143911D01*
Y159588D01*
X201129Y159599D01*
X202223Y159892D01*
X203250Y160371D01*
X204178Y161021D01*
X204979Y161822D01*
X205629Y162750D01*
X206108Y163777D01*
X206401Y164871D01*
X206500Y166000D01*
X206401Y167129D01*
X206108Y168223D01*
X205629Y169250D01*
X204979Y170178D01*
X204178Y170979D01*
X203250Y171629D01*
X202223Y172108D01*
X201129Y172401D01*
X201000Y172412D01*
Y289588D01*
X201129Y289599D01*
X202223Y289892D01*
X203250Y290371D01*
X204178Y291021D01*
X204979Y291822D01*
X205629Y292750D01*
X206108Y293777D01*
X206401Y294871D01*
X206500Y296000D01*
X206401Y297129D01*
X206108Y298223D01*
X205629Y299250D01*
X204979Y300178D01*
X204178Y300979D01*
X203250Y301629D01*
X202223Y302108D01*
X201129Y302401D01*
X201000Y302412D01*
Y322049D01*
X202207Y322155D01*
X203377Y322468D01*
X204476Y322980D01*
X205468Y323675D01*
X206325Y324532D01*
X207020Y325524D01*
X207532Y326623D01*
X207845Y327793D01*
X207951Y329000D01*
X207845Y330207D01*
X207532Y331377D01*
X207020Y332476D01*
X206325Y333468D01*
X205468Y334325D01*
X204476Y335020D01*
X203377Y335532D01*
X202207Y335845D01*
X201000Y335951D01*
Y350000D01*
G37*
G36*
X181000D02*X201000D01*
Y335951D01*
X199793Y335845D01*
X198623Y335532D01*
X197524Y335020D01*
X196532Y334325D01*
X195675Y333468D01*
X194980Y332476D01*
X194468Y331377D01*
X194155Y330207D01*
X194049Y329000D01*
X194155Y327793D01*
X194468Y326623D01*
X194980Y325524D01*
X195675Y324532D01*
X196532Y323675D01*
X197524Y322980D01*
X198623Y322468D01*
X199793Y322155D01*
X201000Y322049D01*
Y302412D01*
X200000Y302500D01*
X198871Y302401D01*
X197777Y302108D01*
X196750Y301629D01*
X195822Y300979D01*
X195021Y300178D01*
X194371Y299250D01*
X193892Y298223D01*
X193599Y297129D01*
X193500Y296000D01*
X193599Y294871D01*
X193892Y293777D01*
X194371Y292750D01*
X195021Y291822D01*
X195822Y291021D01*
X196750Y290371D01*
X197777Y289892D01*
X198871Y289599D01*
X200000Y289500D01*
X201000Y289588D01*
Y172412D01*
X200000Y172500D01*
X198871Y172401D01*
X197777Y172108D01*
X196750Y171629D01*
X195822Y170979D01*
X195021Y170178D01*
X194371Y169250D01*
X193892Y168223D01*
X193599Y167129D01*
X193500Y166000D01*
X193599Y164871D01*
X193892Y163777D01*
X194371Y162750D01*
X195021Y161822D01*
X195822Y161021D01*
X196750Y160371D01*
X197777Y159892D01*
X198871Y159599D01*
X200000Y159500D01*
X201000Y159588D01*
Y143911D01*
X200124Y143035D01*
X198875Y141250D01*
X197954Y139275D01*
X197390Y137171D01*
X197200Y135000D01*
X197390Y132829D01*
X197954Y130725D01*
X198875Y128750D01*
X200124Y126965D01*
X201000Y126089D01*
Y0D01*
X181000D01*
Y122614D01*
X181871Y122690D01*
X183975Y123254D01*
X185950Y124175D01*
X187735Y125424D01*
X189276Y126965D01*
X190525Y128750D01*
X191446Y130725D01*
X192010Y132829D01*
X192200Y135000D01*
X192010Y137171D01*
X191446Y139275D01*
X190525Y141250D01*
X189276Y143035D01*
X187735Y144576D01*
X185950Y145825D01*
X183975Y146746D01*
X181871Y147310D01*
X181000Y147386D01*
Y163545D01*
X181108Y163777D01*
X181401Y164871D01*
X181500Y166000D01*
X181401Y167129D01*
X181108Y168223D01*
X181000Y168455D01*
Y293545D01*
X181108Y293777D01*
X181401Y294871D01*
X181500Y296000D01*
X181401Y297129D01*
X181108Y298223D01*
X181000Y298455D01*
Y322049D01*
X182207Y322155D01*
X183377Y322468D01*
X184476Y322980D01*
X185468Y323675D01*
X186325Y324532D01*
X187020Y325524D01*
X187532Y326623D01*
X187845Y327793D01*
X187951Y329000D01*
X187845Y330207D01*
X187532Y331377D01*
X187020Y332476D01*
X186325Y333468D01*
X185468Y334325D01*
X184476Y335020D01*
X183377Y335532D01*
X182207Y335845D01*
X181000Y335951D01*
Y350000D01*
G37*
G36*
X166804D02*X181000D01*
Y335951D01*
X179793Y335845D01*
X178623Y335532D01*
X177524Y335020D01*
X176532Y334325D01*
X175675Y333468D01*
X174980Y332476D01*
X174468Y331377D01*
X174155Y330207D01*
X174049Y329000D01*
X174155Y327793D01*
X174468Y326623D01*
X174980Y325524D01*
X175675Y324532D01*
X176532Y323675D01*
X177524Y322980D01*
X178623Y322468D01*
X179793Y322155D01*
X181000Y322049D01*
Y298455D01*
X180629Y299250D01*
X179979Y300178D01*
X179178Y300979D01*
X178250Y301629D01*
X177223Y302108D01*
X176129Y302401D01*
X175000Y302500D01*
X173871Y302401D01*
X172777Y302108D01*
X171750Y301629D01*
X170822Y300979D01*
X170021Y300178D01*
X169371Y299250D01*
X168892Y298223D01*
X168599Y297129D01*
X168500Y296000D01*
X168599Y294871D01*
X168892Y293777D01*
X169371Y292750D01*
X170021Y291822D01*
X170822Y291021D01*
X171750Y290371D01*
X172777Y289892D01*
X173871Y289599D01*
X175000Y289500D01*
X176129Y289599D01*
X177223Y289892D01*
X178250Y290371D01*
X179178Y291021D01*
X179979Y291822D01*
X180629Y292750D01*
X181000Y293545D01*
Y168455D01*
X180629Y169250D01*
X179979Y170178D01*
X179178Y170979D01*
X178250Y171629D01*
X177223Y172108D01*
X176129Y172401D01*
X175000Y172500D01*
X173871Y172401D01*
X172777Y172108D01*
X171750Y171629D01*
X170822Y170979D01*
X170021Y170178D01*
X169371Y169250D01*
X168892Y168223D01*
X168599Y167129D01*
X168500Y166000D01*
X168599Y164871D01*
X168892Y163777D01*
X169371Y162750D01*
X170021Y161822D01*
X170822Y161021D01*
X171750Y160371D01*
X172777Y159892D01*
X173871Y159599D01*
X175000Y159500D01*
X176129Y159599D01*
X177223Y159892D01*
X178250Y160371D01*
X179178Y161021D01*
X179979Y161822D01*
X180629Y162750D01*
X181000Y163545D01*
Y147386D01*
X179700Y147500D01*
X177529Y147310D01*
X175425Y146746D01*
X173450Y145825D01*
X171665Y144576D01*
X170124Y143035D01*
X168875Y141250D01*
X167954Y139275D01*
X167390Y137171D01*
X167200Y135000D01*
X167390Y132829D01*
X167954Y130725D01*
X168875Y128750D01*
X170124Y126965D01*
X171665Y125424D01*
X173450Y124175D01*
X175425Y123254D01*
X177529Y122690D01*
X179700Y122500D01*
X181000Y122614D01*
Y0D01*
X166804D01*
Y325183D01*
X167093Y325655D01*
X167372Y326225D01*
X167599Y326817D01*
X167770Y327428D01*
X167885Y328052D01*
X167943Y328683D01*
Y329318D01*
X167885Y329949D01*
X167770Y330573D01*
X167599Y331184D01*
X167372Y331776D01*
X167093Y332346D01*
X166804Y332818D01*
Y350000D01*
G37*
G36*
X161000D02*X166804D01*
Y332818D01*
X166762Y332887D01*
X166696Y332968D01*
X166617Y333037D01*
X166527Y333091D01*
X166430Y333128D01*
X166327Y333148D01*
X166222Y333150D01*
X166119Y333134D01*
X166020Y333100D01*
X165928Y333049D01*
X165847Y332983D01*
X165778Y332904D01*
X165724Y332814D01*
X165687Y332717D01*
X165667Y332614D01*
X165665Y332509D01*
X165681Y332406D01*
X165715Y332307D01*
X165766Y332215D01*
X166039Y331767D01*
X166270Y331296D01*
X166458Y330806D01*
X166599Y330301D01*
X166695Y329785D01*
X166743Y329263D01*
Y328738D01*
X166695Y328216D01*
X166599Y327700D01*
X166458Y327195D01*
X166270Y326705D01*
X166039Y326234D01*
X165766Y325786D01*
X165715Y325694D01*
X165681Y325595D01*
X165665Y325492D01*
X165667Y325387D01*
X165687Y325284D01*
X165724Y325187D01*
X165778Y325097D01*
X165847Y325018D01*
X165928Y324952D01*
X166020Y324901D01*
X166119Y324867D01*
X166222Y324851D01*
X166327Y324853D01*
X166430Y324873D01*
X166527Y324910D01*
X166617Y324964D01*
X166696Y325033D01*
X166762Y325114D01*
X166804Y325183D01*
Y0D01*
X161000D01*
Y322057D01*
X161317D01*
X161948Y322115D01*
X162572Y322230D01*
X163183Y322401D01*
X163775Y322628D01*
X164345Y322907D01*
X164886Y323238D01*
X164967Y323304D01*
X165036Y323383D01*
X165090Y323473D01*
X165127Y323570D01*
X165147Y323673D01*
X165149Y323778D01*
X165133Y323881D01*
X165099Y323980D01*
X165048Y324072D01*
X164982Y324153D01*
X164903Y324222D01*
X164813Y324276D01*
X164716Y324313D01*
X164613Y324333D01*
X164508Y324335D01*
X164405Y324319D01*
X164306Y324285D01*
X164214Y324234D01*
X163766Y323961D01*
X163295Y323730D01*
X162805Y323542D01*
X162300Y323401D01*
X161784Y323305D01*
X161262Y323257D01*
X161000D01*
Y334744D01*
X161262D01*
X161784Y334696D01*
X162300Y334600D01*
X162805Y334459D01*
X163295Y334271D01*
X163766Y334040D01*
X164214Y333767D01*
X164306Y333716D01*
X164405Y333682D01*
X164508Y333666D01*
X164613Y333668D01*
X164716Y333688D01*
X164813Y333725D01*
X164903Y333779D01*
X164982Y333848D01*
X165048Y333929D01*
X165099Y334021D01*
X165133Y334120D01*
X165149Y334223D01*
X165147Y334328D01*
X165127Y334431D01*
X165090Y334528D01*
X165036Y334618D01*
X164967Y334697D01*
X164886Y334763D01*
X164345Y335094D01*
X163775Y335373D01*
X163183Y335600D01*
X162572Y335771D01*
X161948Y335886D01*
X161317Y335944D01*
X161000D01*
Y350000D01*
G37*
G36*
X155195D02*X161000D01*
Y335944D01*
X160682D01*
X160051Y335886D01*
X159427Y335771D01*
X158816Y335600D01*
X158224Y335373D01*
X157654Y335094D01*
X157113Y334763D01*
X157032Y334697D01*
X156963Y334618D01*
X156909Y334528D01*
X156872Y334431D01*
X156852Y334328D01*
X156850Y334223D01*
X156866Y334120D01*
X156900Y334021D01*
X156951Y333929D01*
X157017Y333848D01*
X157096Y333779D01*
X157186Y333725D01*
X157283Y333688D01*
X157386Y333668D01*
X157491Y333666D01*
X157594Y333682D01*
X157693Y333716D01*
X157785Y333767D01*
X158233Y334040D01*
X158704Y334271D01*
X159194Y334459D01*
X159699Y334600D01*
X160215Y334696D01*
X160737Y334744D01*
X161000D01*
Y323257D01*
X160737D01*
X160215Y323305D01*
X159699Y323401D01*
X159194Y323542D01*
X158704Y323730D01*
X158233Y323961D01*
X157785Y324234D01*
X157693Y324285D01*
X157594Y324319D01*
X157491Y324335D01*
X157386Y324333D01*
X157283Y324313D01*
X157186Y324276D01*
X157096Y324222D01*
X157017Y324153D01*
X156951Y324072D01*
X156900Y323980D01*
X156866Y323881D01*
X156850Y323778D01*
X156852Y323673D01*
X156872Y323570D01*
X156909Y323473D01*
X156963Y323383D01*
X157032Y323304D01*
X157113Y323238D01*
X157654Y322907D01*
X158224Y322628D01*
X158816Y322401D01*
X159427Y322230D01*
X160051Y322115D01*
X160682Y322057D01*
X161000D01*
Y0D01*
X155195D01*
Y162130D01*
X155629Y162750D01*
X156108Y163777D01*
X156401Y164871D01*
X156500Y166000D01*
X156401Y167129D01*
X156108Y168223D01*
X155629Y169250D01*
X155195Y169870D01*
Y292130D01*
X155629Y292750D01*
X156108Y293777D01*
X156401Y294871D01*
X156500Y296000D01*
X156401Y297129D01*
X156108Y298223D01*
X155629Y299250D01*
X155195Y299870D01*
Y325183D01*
X155237Y325114D01*
X155303Y325033D01*
X155382Y324964D01*
X155472Y324910D01*
X155569Y324873D01*
X155672Y324853D01*
X155777Y324851D01*
X155880Y324867D01*
X155979Y324901D01*
X156071Y324952D01*
X156152Y325018D01*
X156221Y325097D01*
X156275Y325187D01*
X156312Y325284D01*
X156332Y325387D01*
X156334Y325492D01*
X156318Y325595D01*
X156284Y325694D01*
X156233Y325786D01*
X155960Y326234D01*
X155729Y326705D01*
X155541Y327195D01*
X155400Y327700D01*
X155304Y328216D01*
X155256Y328738D01*
Y329263D01*
X155304Y329785D01*
X155400Y330301D01*
X155541Y330806D01*
X155729Y331296D01*
X155960Y331767D01*
X156233Y332215D01*
X156284Y332307D01*
X156318Y332406D01*
X156334Y332509D01*
X156332Y332614D01*
X156312Y332717D01*
X156275Y332814D01*
X156221Y332904D01*
X156152Y332983D01*
X156071Y333049D01*
X155979Y333100D01*
X155880Y333134D01*
X155777Y333150D01*
X155672Y333148D01*
X155569Y333128D01*
X155472Y333091D01*
X155382Y333037D01*
X155303Y332968D01*
X155237Y332887D01*
X155195Y332818D01*
Y350000D01*
G37*
G36*
Y169870D02*X154979Y170178D01*
X154178Y170979D01*
X153250Y171629D01*
X152223Y172108D01*
X151129Y172401D01*
X150000Y172500D01*
Y289500D01*
X151129Y289599D01*
X152223Y289892D01*
X153250Y290371D01*
X154178Y291021D01*
X154979Y291822D01*
X155195Y292130D01*
Y169870D01*
G37*
G36*
Y0D02*X150000D01*
Y159500D01*
X151129Y159599D01*
X152223Y159892D01*
X153250Y160371D01*
X154178Y161021D01*
X154979Y161822D01*
X155195Y162130D01*
Y0D01*
G37*
G36*
X150000Y350000D02*X155195D01*
Y332818D01*
X154906Y332346D01*
X154627Y331776D01*
X154400Y331184D01*
X154229Y330573D01*
X154114Y329949D01*
X154056Y329318D01*
Y328683D01*
X154114Y328052D01*
X154229Y327428D01*
X154400Y326817D01*
X154627Y326225D01*
X154906Y325655D01*
X155195Y325183D01*
Y299870D01*
X154979Y300178D01*
X154178Y300979D01*
X153250Y301629D01*
X152223Y302108D01*
X151129Y302401D01*
X150000Y302500D01*
Y350000D01*
G37*
G36*
X135000D02*X150000D01*
Y302500D01*
X148871Y302401D01*
X147777Y302108D01*
X146750Y301629D01*
X145822Y300979D01*
X145021Y300178D01*
X144371Y299250D01*
X143892Y298223D01*
X143599Y297129D01*
X143500Y296000D01*
X143599Y294871D01*
X143892Y293777D01*
X144371Y292750D01*
X145021Y291822D01*
X145822Y291021D01*
X146750Y290371D01*
X147777Y289892D01*
X148871Y289599D01*
X150000Y289500D01*
Y172500D01*
X148871Y172401D01*
X147777Y172108D01*
X146750Y171629D01*
X145822Y170979D01*
X145021Y170178D01*
X144371Y169250D01*
X143892Y168223D01*
X143599Y167129D01*
X143500Y166000D01*
X143599Y164871D01*
X143892Y163777D01*
X144371Y162750D01*
X145021Y161822D01*
X145822Y161021D01*
X146750Y160371D01*
X147777Y159892D01*
X148871Y159599D01*
X150000Y159500D01*
Y0D01*
X135000D01*
Y52750D01*
X136259Y52860D01*
X137480Y53187D01*
X138625Y53721D01*
X139660Y54446D01*
X140554Y55340D01*
X141279Y56375D01*
X141813Y57520D01*
X142140Y58741D01*
X142250Y60000D01*
X142140Y61259D01*
X141813Y62480D01*
X141279Y63625D01*
X140554Y64660D01*
X139660Y65554D01*
X138625Y66279D01*
X137480Y66813D01*
X136259Y67140D01*
X135000Y67250D01*
Y350000D01*
G37*
G36*
X105000D02*X135000D01*
Y67250D01*
X133741Y67140D01*
X132520Y66813D01*
X131375Y66279D01*
X130340Y65554D01*
X129446Y64660D01*
X128721Y63625D01*
X128187Y62480D01*
X127860Y61259D01*
X127750Y60000D01*
X127860Y58741D01*
X128187Y57520D01*
X128721Y56375D01*
X129446Y55340D01*
X130340Y54446D01*
X131375Y53721D01*
X132520Y53187D01*
X133741Y52860D01*
X135000Y52750D01*
Y0D01*
X105000D01*
Y41340D01*
X106580Y40603D01*
X108264Y40152D01*
X110000Y40000D01*
X111736Y40152D01*
X113420Y40603D01*
X115000Y41340D01*
X116428Y42340D01*
X117660Y43572D01*
X118660Y45000D01*
X119397Y46580D01*
X119848Y48264D01*
X120000Y50000D01*
X119848Y51736D01*
X119397Y53420D01*
X118660Y55000D01*
X117660Y56428D01*
X116428Y57660D01*
X115000Y58660D01*
X113420Y59397D01*
X111736Y59848D01*
X110000Y60000D01*
X108264Y59848D01*
X106580Y59397D01*
X105000Y58660D01*
Y122500D01*
X107171Y122690D01*
X109275Y123254D01*
X111250Y124175D01*
X113035Y125424D01*
X114576Y126965D01*
X115825Y128750D01*
X116746Y130725D01*
X117310Y132829D01*
X117500Y135000D01*
X117310Y137171D01*
X116746Y139275D01*
X115825Y141250D01*
X114576Y143035D01*
X113035Y144576D01*
X111250Y145825D01*
X109275Y146746D01*
X107171Y147310D01*
X105000Y147500D01*
Y219050D01*
X106023Y220073D01*
X107722Y222500D01*
X108975Y225186D01*
X109742Y228048D01*
X110000Y231000D01*
X109742Y233952D01*
X108975Y236814D01*
X107722Y239500D01*
X106023Y241927D01*
X105000Y242950D01*
Y350000D01*
G37*
G36*
X65000D02*X105000D01*
Y242950D01*
X103927Y244023D01*
X101500Y245722D01*
X98814Y246975D01*
X95952Y247742D01*
X93000Y248000D01*
X90048Y247742D01*
X87186Y246975D01*
X84500Y245722D01*
X82073Y244023D01*
X79977Y241927D01*
X78278Y239500D01*
X77025Y236814D01*
X76258Y233952D01*
X76000Y231000D01*
X76258Y228048D01*
X77025Y225186D01*
X78278Y222500D01*
X79977Y220073D01*
X82073Y217977D01*
X84500Y216278D01*
X87186Y215025D01*
X90048Y214258D01*
X93000Y214000D01*
X95952Y214258D01*
X98814Y215025D01*
X101500Y216278D01*
X103927Y217977D01*
X105000Y219050D01*
Y147500D01*
X102829Y147310D01*
X100725Y146746D01*
X98750Y145825D01*
X96965Y144576D01*
X95424Y143035D01*
X94175Y141250D01*
X93254Y139275D01*
X92690Y137171D01*
X92500Y135000D01*
X92690Y132829D01*
X93254Y130725D01*
X94175Y128750D01*
X95424Y126965D01*
X96965Y125424D01*
X98750Y124175D01*
X100725Y123254D01*
X102829Y122690D01*
X105000Y122500D01*
Y58660D01*
X103572Y57660D01*
X102340Y56428D01*
X101340Y55000D01*
X100603Y53420D01*
X100152Y51736D01*
X100000Y50000D01*
X100152Y48264D01*
X100603Y46580D01*
X101340Y45000D01*
X102340Y43572D01*
X103572Y42340D01*
X105000Y41340D01*
Y0D01*
X65000D01*
Y40000D01*
X66736Y40152D01*
X68420Y40603D01*
X70000Y41340D01*
X71428Y42340D01*
X72660Y43572D01*
X73660Y45000D01*
X74397Y46580D01*
X74848Y48264D01*
X75000Y50000D01*
X74848Y51736D01*
X74397Y53420D01*
X73660Y55000D01*
X72660Y56428D01*
X71428Y57660D01*
X70000Y58660D01*
X68420Y59397D01*
X66736Y59848D01*
X65000Y60000D01*
Y127571D01*
X65424Y126965D01*
X66965Y125424D01*
X68750Y124175D01*
X70725Y123254D01*
X72829Y122690D01*
X75000Y122500D01*
X77171Y122690D01*
X79275Y123254D01*
X81250Y124175D01*
X83035Y125424D01*
X84576Y126965D01*
X85825Y128750D01*
X86746Y130725D01*
X87310Y132829D01*
X87500Y135000D01*
X87310Y137171D01*
X86746Y139275D01*
X85825Y141250D01*
X84576Y143035D01*
X83035Y144576D01*
X81250Y145825D01*
X79275Y146746D01*
X77171Y147310D01*
X75000Y147500D01*
X72829Y147310D01*
X70725Y146746D01*
X68750Y145825D01*
X66965Y144576D01*
X65424Y143035D01*
X65000Y142429D01*
Y350000D01*
G37*
G36*
X58810Y42173D02*X60000Y41340D01*
X61580Y40603D01*
X63264Y40152D01*
X65000Y40000D01*
Y0D01*
X58810D01*
Y42173D01*
G37*
G36*
X63810Y129533D02*X64175Y128750D01*
X65000Y127571D01*
Y60000D01*
X63810Y59896D01*
Y129533D01*
G37*
G36*
Y350000D02*X65000D01*
Y142429D01*
X64175Y141250D01*
X63810Y140467D01*
Y197410D01*
X64560D01*
Y204410D01*
X63810D01*
Y278078D01*
X64213Y278943D01*
X64473Y279912D01*
X64560Y280910D01*
X64473Y281908D01*
X64213Y282877D01*
X63810Y283742D01*
Y350000D01*
G37*
G36*
Y140467D02*X63254Y139275D01*
X62690Y137171D01*
X62500Y135000D01*
X62690Y132829D01*
X63254Y130725D01*
X63810Y129533D01*
Y59896D01*
X63264Y59848D01*
X61580Y59397D01*
X60000Y58660D01*
X58810Y57827D01*
Y195160D01*
X62310D01*
Y196660D01*
X58810D01*
Y205160D01*
X62310D01*
Y206660D01*
X58810D01*
Y275160D01*
X59808Y275247D01*
X60777Y275507D01*
X61685Y275930D01*
X62506Y276505D01*
X63215Y277214D01*
X63790Y278035D01*
X63810Y278078D01*
Y204410D01*
X63060D01*
Y197410D01*
X63810D01*
Y140467D01*
G37*
G36*
X58810Y350000D02*X63810D01*
Y283742D01*
X63790Y283785D01*
X63215Y284606D01*
X62506Y285315D01*
X61685Y285890D01*
X60777Y286313D01*
X59808Y286573D01*
X58810Y286660D01*
Y350000D01*
G37*
G36*
X53810Y278078D02*X53830Y278035D01*
X54405Y277214D01*
X55114Y276505D01*
X55935Y275930D01*
X56843Y275507D01*
X57812Y275247D01*
X58810Y275160D01*
Y206660D01*
X55310D01*
Y205160D01*
X58810D01*
Y196660D01*
X55310D01*
Y195160D01*
X58810D01*
Y57827D01*
X58572Y57660D01*
X57340Y56428D01*
X56340Y55000D01*
X55603Y53420D01*
X55152Y51736D01*
X55000Y50000D01*
X55152Y48264D01*
X55603Y46580D01*
X56340Y45000D01*
X57340Y43572D01*
X58572Y42340D01*
X58810Y42173D01*
Y0D01*
X53810D01*
Y197410D01*
X54560D01*
Y204410D01*
X53810D01*
Y278078D01*
G37*
G36*
Y350000D02*X58810D01*
Y286660D01*
X57812Y286573D01*
X56843Y286313D01*
X55935Y285890D01*
X55114Y285315D01*
X54405Y284606D01*
X53830Y283785D01*
X53810Y283742D01*
Y350000D01*
G37*
G36*
X34326D02*X53810D01*
Y283742D01*
X53407Y282877D01*
X53147Y281908D01*
X53060Y280910D01*
X53147Y279912D01*
X53407Y278943D01*
X53810Y278078D01*
Y204410D01*
X53060D01*
Y197410D01*
X53810D01*
Y0D01*
X34326D01*
Y18815D01*
X34393Y18901D01*
X34903Y19769D01*
X35333Y20680D01*
X35679Y21625D01*
X35939Y22598D01*
X36110Y23591D01*
X36192Y24595D01*
X36183Y25602D01*
X36084Y26604D01*
X35895Y27593D01*
X35618Y28561D01*
X35256Y29501D01*
X34810Y30404D01*
X34326Y31196D01*
Y126026D01*
X35000Y126340D01*
X36428Y127340D01*
X37660Y128572D01*
X38660Y130000D01*
X39397Y131580D01*
X39848Y133264D01*
X40000Y135000D01*
X39848Y136736D01*
X39397Y138420D01*
X38660Y140000D01*
X37660Y141428D01*
X36428Y142660D01*
X35000Y143660D01*
X34326Y143974D01*
Y176026D01*
X35000Y176340D01*
X36428Y177340D01*
X37660Y178572D01*
X38660Y180000D01*
X39397Y181580D01*
X39848Y183264D01*
X40000Y185000D01*
X39848Y186736D01*
X39397Y188420D01*
X38660Y190000D01*
X37660Y191428D01*
X36428Y192660D01*
X35000Y193660D01*
X34326Y193974D01*
Y226026D01*
X35000Y226340D01*
X36428Y227340D01*
X37660Y228572D01*
X38660Y230000D01*
X39397Y231580D01*
X39848Y233264D01*
X40000Y235000D01*
X39848Y236736D01*
X39397Y238420D01*
X38660Y240000D01*
X37660Y241428D01*
X36428Y242660D01*
X35000Y243660D01*
X34326Y243974D01*
Y323815D01*
X34393Y323901D01*
X34903Y324769D01*
X35333Y325680D01*
X35679Y326625D01*
X35939Y327598D01*
X36110Y328591D01*
X36192Y329595D01*
X36183Y330602D01*
X36084Y331604D01*
X35895Y332593D01*
X35618Y333561D01*
X35256Y334501D01*
X34810Y335404D01*
X34326Y336196D01*
Y350000D01*
G37*
G36*
Y193974D02*X33420Y194397D01*
X31736Y194848D01*
X30000Y195000D01*
Y225000D01*
X31736Y225152D01*
X33420Y225603D01*
X34326Y226026D01*
Y193974D01*
G37*
G36*
Y143974D02*X33420Y144397D01*
X31736Y144848D01*
X30000Y145000D01*
Y175000D01*
X31736Y175152D01*
X33420Y175603D01*
X34326Y176026D01*
Y143974D01*
G37*
G36*
Y0D02*X30000D01*
Y14991D01*
X30403Y15190D01*
X31262Y15715D01*
X31397Y15825D01*
X31512Y15956D01*
X31602Y16106D01*
X31664Y16268D01*
X31697Y16439D01*
X31700Y16614D01*
X31673Y16786D01*
X31616Y16951D01*
X31532Y17103D01*
X31422Y17238D01*
X31291Y17353D01*
X31141Y17443D01*
X30979Y17505D01*
X30808Y17538D01*
X30633Y17541D01*
X30461Y17514D01*
X30296Y17457D01*
X30144Y17373D01*
X30000Y17285D01*
Y32722D01*
X30010Y32716D01*
X30011D01*
X30165Y32634D01*
X30331Y32581D01*
X30503Y32556D01*
X30678Y32563D01*
X30848Y32599D01*
X31010Y32664D01*
X31157Y32757D01*
X31287Y32874D01*
X31394Y33011D01*
X31476Y33165D01*
X31529Y33331D01*
X31554Y33503D01*
X31547Y33678D01*
X31511Y33848D01*
X31446Y34010D01*
X31353Y34157D01*
X31236Y34287D01*
X31099Y34394D01*
X30231Y34904D01*
X30000Y35013D01*
Y125000D01*
X31736Y125152D01*
X33420Y125603D01*
X34326Y126026D01*
Y31196D01*
X34285Y31263D01*
X34175Y31398D01*
X34044Y31513D01*
X33894Y31603D01*
X33732Y31665D01*
X33561Y31698D01*
X33386Y31701D01*
X33214Y31674D01*
X33049Y31617D01*
X32897Y31533D01*
X32762Y31423D01*
X32647Y31292D01*
X32557Y31142D01*
X32495Y30980D01*
X32462Y30809D01*
X32459Y30634D01*
X32486Y30462D01*
X32543Y30297D01*
X32627Y30145D01*
X33058Y29439D01*
X33424Y28697D01*
X33722Y27926D01*
X33950Y27130D01*
X34105Y26318D01*
X34186Y25494D01*
X34193Y24667D01*
X34126Y23843D01*
X33985Y23027D01*
X33772Y22228D01*
X33487Y21451D01*
X33134Y20703D01*
X32715Y19990D01*
Y19989D01*
X32633Y19835D01*
X32580Y19669D01*
X32555Y19497D01*
X32562Y19322D01*
X32598Y19152D01*
X32663Y18990D01*
X32756Y18843D01*
X32873Y18713D01*
X33010Y18606D01*
X33164Y18524D01*
X33330Y18471D01*
X33502Y18446D01*
X33677Y18453D01*
X33847Y18489D01*
X34009Y18554D01*
X34156Y18647D01*
X34286Y18764D01*
X34326Y18815D01*
Y0D01*
G37*
G36*
X30000Y350000D02*X34326D01*
Y336196D01*
X34285Y336263D01*
X34175Y336398D01*
X34044Y336513D01*
X33894Y336603D01*
X33732Y336665D01*
X33561Y336698D01*
X33386Y336701D01*
X33214Y336674D01*
X33049Y336617D01*
X32897Y336533D01*
X32762Y336423D01*
X32647Y336292D01*
X32557Y336142D01*
X32495Y335980D01*
X32462Y335809D01*
X32459Y335634D01*
X32486Y335462D01*
X32543Y335297D01*
X32627Y335145D01*
X33058Y334439D01*
X33424Y333697D01*
X33722Y332926D01*
X33950Y332130D01*
X34105Y331318D01*
X34186Y330494D01*
X34193Y329667D01*
X34126Y328843D01*
X33985Y328027D01*
X33772Y327228D01*
X33487Y326451D01*
X33134Y325703D01*
X32715Y324990D01*
Y324989D01*
X32633Y324835D01*
X32580Y324669D01*
X32555Y324497D01*
X32562Y324322D01*
X32598Y324152D01*
X32663Y323990D01*
X32756Y323843D01*
X32873Y323713D01*
X33010Y323606D01*
X33164Y323524D01*
X33330Y323471D01*
X33502Y323446D01*
X33677Y323453D01*
X33847Y323489D01*
X34009Y323554D01*
X34156Y323647D01*
X34286Y323764D01*
X34326Y323815D01*
Y243974D01*
X33420Y244397D01*
X31736Y244848D01*
X30000Y245000D01*
Y319991D01*
X30403Y320190D01*
X31262Y320715D01*
X31397Y320825D01*
X31512Y320956D01*
X31602Y321106D01*
X31664Y321268D01*
X31697Y321439D01*
X31700Y321614D01*
X31673Y321786D01*
X31616Y321951D01*
X31532Y322103D01*
X31422Y322238D01*
X31291Y322353D01*
X31141Y322443D01*
X30979Y322505D01*
X30808Y322538D01*
X30633Y322541D01*
X30461Y322514D01*
X30296Y322457D01*
X30144Y322373D01*
X30000Y322285D01*
Y337722D01*
X30010Y337716D01*
X30011D01*
X30165Y337634D01*
X30331Y337581D01*
X30503Y337556D01*
X30678Y337563D01*
X30848Y337599D01*
X31010Y337664D01*
X31157Y337757D01*
X31287Y337874D01*
X31394Y338011D01*
X31476Y338165D01*
X31529Y338331D01*
X31554Y338503D01*
X31547Y338678D01*
X31511Y338848D01*
X31446Y339010D01*
X31353Y339157D01*
X31236Y339287D01*
X31099Y339394D01*
X30231Y339904D01*
X30000Y340013D01*
Y350000D01*
G37*
G36*
X15674D02*X30000D01*
Y340013D01*
X29320Y340334D01*
X28375Y340680D01*
X27402Y340940D01*
X26409Y341111D01*
X25405Y341193D01*
X24398Y341184D01*
X23396Y341085D01*
X22407Y340896D01*
X21439Y340619D01*
X20499Y340257D01*
X19596Y339811D01*
X18737Y339286D01*
X18602Y339176D01*
X18487Y339045D01*
X18397Y338895D01*
X18335Y338733D01*
X18302Y338562D01*
X18299Y338387D01*
X18326Y338215D01*
X18383Y338050D01*
X18467Y337898D01*
X18577Y337763D01*
X18708Y337648D01*
X18858Y337558D01*
X19020Y337496D01*
X19191Y337463D01*
X19366Y337460D01*
X19538Y337487D01*
X19703Y337544D01*
X19855Y337628D01*
X20561Y338059D01*
X21303Y338425D01*
X22074Y338723D01*
X22870Y338951D01*
X23682Y339106D01*
X24506Y339187D01*
X25333Y339194D01*
X26157Y339127D01*
X26973Y338986D01*
X27772Y338773D01*
X28549Y338488D01*
X29297Y338135D01*
X30000Y337722D01*
Y322285D01*
X29438Y321942D01*
X28696Y321576D01*
X27925Y321278D01*
X27129Y321050D01*
X26317Y320895D01*
X25493Y320814D01*
X24666Y320807D01*
X23842Y320874D01*
X23026Y321015D01*
X22227Y321228D01*
X21450Y321513D01*
X20702Y321866D01*
X19989Y322285D01*
X19988D01*
X19834Y322367D01*
X19668Y322420D01*
X19496Y322445D01*
X19321Y322438D01*
X19151Y322402D01*
X18989Y322337D01*
X18842Y322244D01*
X18712Y322127D01*
X18605Y321990D01*
X18523Y321836D01*
X18470Y321670D01*
X18445Y321498D01*
X18452Y321323D01*
X18488Y321153D01*
X18553Y320991D01*
X18646Y320844D01*
X18763Y320714D01*
X18900Y320607D01*
X19768Y320097D01*
X20679Y319667D01*
X21624Y319321D01*
X22597Y319061D01*
X23590Y318890D01*
X24594Y318808D01*
X25601Y318817D01*
X26603Y318916D01*
X27592Y319105D01*
X28560Y319382D01*
X29500Y319744D01*
X30000Y319991D01*
Y245000D01*
X28264Y244848D01*
X26580Y244397D01*
X25000Y243660D01*
X23572Y242660D01*
X22340Y241428D01*
X21340Y240000D01*
X20603Y238420D01*
X20152Y236736D01*
X20000Y235000D01*
X20152Y233264D01*
X20603Y231580D01*
X21340Y230000D01*
X22340Y228572D01*
X23572Y227340D01*
X25000Y226340D01*
X26580Y225603D01*
X28264Y225152D01*
X30000Y225000D01*
Y195000D01*
X28264Y194848D01*
X26580Y194397D01*
X25000Y193660D01*
X23572Y192660D01*
X22340Y191428D01*
X21340Y190000D01*
X20603Y188420D01*
X20152Y186736D01*
X20000Y185000D01*
X20152Y183264D01*
X20603Y181580D01*
X21340Y180000D01*
X22340Y178572D01*
X23572Y177340D01*
X25000Y176340D01*
X26580Y175603D01*
X28264Y175152D01*
X30000Y175000D01*
Y145000D01*
X28264Y144848D01*
X26580Y144397D01*
X25000Y143660D01*
X23572Y142660D01*
X22340Y141428D01*
X21340Y140000D01*
X20603Y138420D01*
X20152Y136736D01*
X20000Y135000D01*
X20152Y133264D01*
X20603Y131580D01*
X21340Y130000D01*
X22340Y128572D01*
X23572Y127340D01*
X25000Y126340D01*
X26580Y125603D01*
X28264Y125152D01*
X30000Y125000D01*
Y35013D01*
X29320Y35334D01*
X28375Y35680D01*
X27402Y35940D01*
X26409Y36111D01*
X25405Y36193D01*
X24398Y36184D01*
X23396Y36085D01*
X22407Y35896D01*
X21439Y35619D01*
X20499Y35257D01*
X19596Y34811D01*
X18737Y34286D01*
X18602Y34176D01*
X18487Y34045D01*
X18397Y33895D01*
X18335Y33733D01*
X18302Y33562D01*
X18299Y33387D01*
X18326Y33215D01*
X18383Y33050D01*
X18467Y32898D01*
X18577Y32763D01*
X18708Y32648D01*
X18858Y32558D01*
X19020Y32496D01*
X19191Y32463D01*
X19366Y32460D01*
X19538Y32487D01*
X19703Y32544D01*
X19855Y32628D01*
X20561Y33059D01*
X21303Y33425D01*
X22074Y33723D01*
X22870Y33951D01*
X23682Y34106D01*
X24506Y34187D01*
X25333Y34194D01*
X26157Y34127D01*
X26973Y33986D01*
X27772Y33773D01*
X28549Y33488D01*
X29297Y33135D01*
X30000Y32722D01*
Y17285D01*
X29438Y16942D01*
X28696Y16576D01*
X27925Y16278D01*
X27129Y16050D01*
X26317Y15895D01*
X25493Y15814D01*
X24666Y15807D01*
X23842Y15874D01*
X23026Y16015D01*
X22227Y16228D01*
X21450Y16513D01*
X20702Y16866D01*
X19989Y17285D01*
X19988D01*
X19834Y17367D01*
X19668Y17420D01*
X19496Y17445D01*
X19321Y17438D01*
X19151Y17402D01*
X18989Y17337D01*
X18842Y17244D01*
X18712Y17127D01*
X18605Y16990D01*
X18523Y16836D01*
X18470Y16670D01*
X18445Y16498D01*
X18452Y16323D01*
X18488Y16153D01*
X18553Y15991D01*
X18646Y15844D01*
X18763Y15714D01*
X18900Y15607D01*
X19768Y15097D01*
X20679Y14667D01*
X21624Y14321D01*
X22597Y14061D01*
X23590Y13890D01*
X24594Y13808D01*
X25601Y13817D01*
X26603Y13916D01*
X27592Y14105D01*
X28560Y14382D01*
X29500Y14744D01*
X30000Y14991D01*
Y0D01*
X15674D01*
Y18803D01*
X15714Y18738D01*
X15824Y18603D01*
X15955Y18488D01*
X16105Y18398D01*
X16267Y18336D01*
X16438Y18303D01*
X16613Y18300D01*
X16785Y18327D01*
X16950Y18384D01*
X17102Y18468D01*
X17237Y18578D01*
X17352Y18709D01*
X17442Y18859D01*
X17504Y19021D01*
X17537Y19192D01*
X17540Y19367D01*
X17513Y19539D01*
X17456Y19704D01*
X17372Y19856D01*
X16941Y20562D01*
X16575Y21304D01*
X16277Y22075D01*
X16049Y22871D01*
X15894Y23683D01*
X15813Y24507D01*
X15806Y25334D01*
X15873Y26158D01*
X16014Y26974D01*
X16227Y27773D01*
X16512Y28550D01*
X16865Y29298D01*
X17284Y30011D01*
Y30012D01*
X17366Y30166D01*
X17419Y30332D01*
X17444Y30504D01*
X17437Y30679D01*
X17401Y30849D01*
X17336Y31011D01*
X17243Y31158D01*
X17126Y31288D01*
X16989Y31395D01*
X16835Y31477D01*
X16669Y31530D01*
X16497Y31555D01*
X16322Y31548D01*
X16152Y31512D01*
X15990Y31447D01*
X15843Y31354D01*
X15713Y31237D01*
X15674Y31187D01*
Y323803D01*
X15714Y323738D01*
X15824Y323603D01*
X15955Y323488D01*
X16105Y323398D01*
X16267Y323336D01*
X16438Y323303D01*
X16613Y323300D01*
X16785Y323327D01*
X16950Y323384D01*
X17102Y323468D01*
X17237Y323578D01*
X17352Y323709D01*
X17442Y323859D01*
X17504Y324021D01*
X17537Y324192D01*
X17540Y324367D01*
X17513Y324539D01*
X17456Y324704D01*
X17372Y324856D01*
X16941Y325562D01*
X16575Y326304D01*
X16277Y327075D01*
X16049Y327871D01*
X15894Y328683D01*
X15813Y329507D01*
X15806Y330334D01*
X15873Y331158D01*
X16014Y331974D01*
X16227Y332773D01*
X16512Y333550D01*
X16865Y334298D01*
X17284Y335011D01*
Y335012D01*
X17366Y335166D01*
X17419Y335332D01*
X17444Y335504D01*
X17437Y335679D01*
X17401Y335849D01*
X17336Y336011D01*
X17243Y336158D01*
X17126Y336288D01*
X16989Y336395D01*
X16835Y336477D01*
X16669Y336530D01*
X16497Y336555D01*
X16322Y336548D01*
X16152Y336512D01*
X15990Y336447D01*
X15843Y336354D01*
X15713Y336237D01*
X15674Y336187D01*
Y350000D01*
G37*
G36*
X0Y0D02*Y350000D01*
X15674D01*
Y336187D01*
X15606Y336100D01*
X15096Y335232D01*
X14666Y334321D01*
X14320Y333376D01*
X14060Y332403D01*
X13889Y331410D01*
X13807Y330406D01*
X13816Y329399D01*
X13915Y328397D01*
X14104Y327408D01*
X14381Y326440D01*
X14743Y325500D01*
X15189Y324597D01*
X15674Y323803D01*
Y31187D01*
X15606Y31100D01*
X15096Y30232D01*
X14666Y29321D01*
X14320Y28376D01*
X14060Y27403D01*
X13889Y26410D01*
X13807Y25406D01*
X13816Y24399D01*
X13915Y23397D01*
X14104Y22408D01*
X14381Y21440D01*
X14743Y20500D01*
X15189Y19597D01*
X15674Y18803D01*
Y0D01*
X0D01*
G37*
G36*
X54560Y205160D02*Y196660D01*
X63060D01*
Y205160D01*
X54560D01*
G37*
G54D12*X58810Y280910D03*
G54D13*X65000Y50000D03*
X30000Y185000D03*
Y135000D03*
Y235000D03*
G54D14*X93000Y231000D03*
G54D15*X75000Y135000D03*
X105000D03*
G54D13*X110000Y50000D03*
G54D11*G36*
X347000Y88000D02*Y82000D01*
X353000D01*
Y88000D01*
X347000D01*
G37*
G54D16*X340000Y85000D03*
X330000D03*
X350000Y55000D03*
G54D17*X135000Y60000D03*
X226340D03*
G54D11*G36*
X351750Y133250D02*Y126750D01*
X358250D01*
Y133250D01*
X351750D01*
G37*
G36*
X353590Y115700D02*Y107200D01*
X362090D01*
Y115700D01*
X353590D01*
G37*
G54D12*X277840Y111450D03*
G54D18*X355000Y140000D03*
G54D11*G36*
X316470Y145770D02*Y137270D01*
X324970D01*
Y145770D01*
X316470D01*
G37*
G54D18*X365000Y130000D03*
X375000D03*
G54D19*Y120000D03*
G54D11*G36*
X371600Y83400D02*Y76600D01*
X378400D01*
Y83400D01*
X371600D01*
G37*
G54D20*X225000Y296000D03*
X200000D03*
X175000D03*
X150000D03*
G54D17*X221000Y329000D03*
X201000D03*
X181000D03*
X161000D03*
G54D16*X330000Y55000D03*
X340000D03*
G54D11*G36*
X301500Y63500D02*Y56500D01*
X308500D01*
Y63500D01*
X301500D01*
G37*
G54D21*X305000Y70000D03*
Y80000D03*
G54D22*X280000Y37000D03*
Y74500D03*
G54D11*G36*
X249910Y43610D02*Y35110D01*
X258410D01*
Y43610D01*
X249910D01*
G37*
G54D12*X254160Y119360D03*
G54D18*X365000Y140000D03*
X375000D03*
G54D15*X179700Y135000D03*
G54D20*X150000Y166000D03*
X175000D03*
G54D15*X209700Y135000D03*
G54D12*X240720Y141520D03*
G54D20*X200000Y166000D03*
X225000D03*
G54D14*X282000Y231000D03*
G54D23*X340000Y190000D03*
G54D11*G36*
X336500Y213500D02*Y206500D01*
X343500D01*
Y213500D01*
X336500D01*
G37*
G54D21*X350000Y210000D03*
G54D23*X360000Y190000D03*
G54D21*Y210000D03*
Y285000D03*
Y310000D03*
G54D23*Y255000D03*
G54D21*Y235000D03*
G54D11*G36*
X336500Y288500D02*Y281500D01*
X343500D01*
Y288500D01*
X336500D01*
G37*
G54D21*X350000Y285000D03*
G54D11*G36*
X316500Y313500D02*Y306500D01*
X323500D01*
Y313500D01*
X316500D01*
G37*
G54D23*X340000Y255000D03*
G54D11*G36*
X316500Y238500D02*Y231500D01*
X323500D01*
Y238500D01*
X316500D01*
G37*
G54D24*X365000Y330000D03*
X25000D03*
Y25000D03*
X365000D03*
G54D25*G54D26*G54D15*G54D20*G54D26*G54D27*G54D28*G54D29*G54D25*G54D29*G54D25*G54D29*G54D16*G54D27*G54D30*G54D31*G54D25*G54D29*G54D20*G54D16*G54D20*G54D25*G54D16*G54D15*G54D32*G54D30*G54D32*G54D30*G54D32*G54D30*G54D32*G54D30*G54D33*M02*
