G04 start of page 2 for group 0 idx 0 *
G04 Title: highvoltage, component *
G04 Creator: pcb 20091103 *
G04 CreationDate: Wed 03 Feb 2010 09:09:45 PM GMT UTC *
G04 For: srussell *
G04 Format: Gerber/RS-274X *
G04 PCB-Dimensions: 400000 350000 *
G04 PCB-Coordinate-Origin: lower left *
%MOIN*%
%FSLAX25Y25*%
%LNFRONT*%
%ADD11C,0.0200*%
%ADD12C,0.0800*%
%ADD13C,0.0700*%
%ADD14C,0.0650*%
%ADD15C,0.0600*%
%ADD16C,0.0680*%
%ADD17C,0.1500*%
%ADD18C,0.2000*%
%ADD19C,0.1150*%
%ADD20C,0.0850*%
%ADD21C,0.0560*%
%ADD22C,0.3000*%
%ADD23C,0.0750*%
%ADD24C,0.1000*%
%ADD25C,0.1840*%
%ADD26C,0.0400*%
%ADD27C,0.0350*%
%ADD28C,0.0500*%
%ADD29C,0.0480*%
%ADD30C,0.0380*%
%ADD31C,0.0280*%
%ADD32C,0.0508*%
%ADD33C,0.0473*%
%ADD34C,0.0300*%
%ADD35C,0.1250*%
G54D11*G36*
X33701Y27980D02*X33722Y27926D01*
X33950Y27130D01*
X34105Y26318D01*
X34186Y25494D01*
X34193Y24667D01*
X34126Y23843D01*
X33985Y23027D01*
X33772Y22228D01*
X33701Y22034D01*
Y27980D01*
G37*
G36*
Y332980D02*X33722Y332926D01*
X33950Y332130D01*
X34105Y331318D01*
X34186Y330494D01*
X34193Y329667D01*
X34126Y328843D01*
X33985Y328027D01*
X33772Y327228D01*
X33701Y327034D01*
Y332980D01*
G37*
G36*
X62299Y240514D02*X62615Y239375D01*
X62854Y238088D01*
X62979Y236786D01*
X62990Y235477D01*
X62888Y234172D01*
X62672Y232882D01*
X62344Y231615D01*
X62299Y231488D01*
Y240514D01*
G37*
G36*
X380000Y350000D02*X400000D01*
Y0D01*
X380000D01*
Y169500D01*
X380955Y169584D01*
X381881Y169832D01*
X382750Y170237D01*
X383535Y170787D01*
X384213Y171465D01*
X384763Y172250D01*
X385168Y173119D01*
X385416Y174045D01*
X385500Y175000D01*
X385416Y175955D01*
X385168Y176881D01*
X384763Y177750D01*
X384213Y178535D01*
X383535Y179213D01*
X382750Y179763D01*
X381881Y180168D01*
X380955Y180416D01*
X380000Y180500D01*
Y185000D01*
X380868Y185076D01*
X381710Y185302D01*
X382500Y185670D01*
X383214Y186170D01*
X383830Y186786D01*
X384330Y187500D01*
X384698Y188290D01*
X384924Y189132D01*
X385000Y190000D01*
X384924Y190868D01*
X384698Y191710D01*
X384330Y192500D01*
X383830Y193214D01*
X383214Y193830D01*
X382500Y194330D01*
X381710Y194698D01*
X380868Y194924D01*
X380000Y195000D01*
Y205000D01*
X380868Y205076D01*
X381710Y205302D01*
X382500Y205670D01*
X383214Y206170D01*
X383830Y206786D01*
X384330Y207500D01*
X384698Y208290D01*
X384924Y209132D01*
X385000Y210000D01*
X384924Y210868D01*
X384698Y211710D01*
X384330Y212500D01*
X383830Y213214D01*
X383214Y213830D01*
X382500Y214330D01*
X381710Y214698D01*
X380868Y214924D01*
X380000Y215000D01*
Y230000D01*
X383500D01*
X383760Y230023D01*
X384013Y230090D01*
X384250Y230201D01*
X384464Y230351D01*
X384649Y230536D01*
X384799Y230750D01*
X384910Y230987D01*
X384977Y231240D01*
X385000Y231500D01*
Y238500D01*
X384977Y238760D01*
X384910Y239013D01*
X384799Y239250D01*
X384649Y239464D01*
X384464Y239649D01*
X384250Y239799D01*
X384013Y239910D01*
X383760Y239977D01*
X383500Y240000D01*
X380000D01*
Y244500D01*
X380955Y244584D01*
X381881Y244832D01*
X382750Y245237D01*
X383535Y245787D01*
X384213Y246465D01*
X384763Y247250D01*
X385168Y248119D01*
X385416Y249045D01*
X385500Y250000D01*
X385416Y250955D01*
X385168Y251881D01*
X384763Y252750D01*
X384213Y253535D01*
X383535Y254213D01*
X382750Y254763D01*
X381881Y255168D01*
X380955Y255416D01*
X380000Y255500D01*
Y260000D01*
X383500D01*
X383760Y260023D01*
X384013Y260090D01*
X384250Y260201D01*
X384464Y260351D01*
X384649Y260536D01*
X384799Y260750D01*
X384910Y260987D01*
X384977Y261240D01*
X385000Y261500D01*
Y268500D01*
X384977Y268760D01*
X384910Y269013D01*
X384799Y269250D01*
X384649Y269464D01*
X384464Y269649D01*
X384250Y269799D01*
X384013Y269910D01*
X383760Y269977D01*
X383500Y270000D01*
X380000D01*
Y280000D01*
X380868Y280076D01*
X381710Y280302D01*
X382500Y280670D01*
X383214Y281170D01*
X383830Y281786D01*
X384330Y282500D01*
X384698Y283290D01*
X384924Y284132D01*
X385000Y285000D01*
X384924Y285868D01*
X384698Y286710D01*
X384330Y287500D01*
X383830Y288214D01*
X383214Y288830D01*
X382500Y289330D01*
X381710Y289698D01*
X380868Y289924D01*
X380000Y290000D01*
Y305000D01*
X380868Y305076D01*
X381710Y305302D01*
X382500Y305670D01*
X383214Y306170D01*
X383830Y306786D01*
X384330Y307500D01*
X384698Y308290D01*
X384924Y309132D01*
X385000Y310000D01*
X384924Y310868D01*
X384698Y311710D01*
X384330Y312500D01*
X383830Y313214D01*
X383214Y313830D01*
X382500Y314330D01*
X381710Y314698D01*
X380868Y314924D01*
X380000Y315000D01*
Y350000D01*
G37*
G36*
X375000Y172759D02*X375237Y172250D01*
X375787Y171465D01*
X376465Y170787D01*
X377250Y170237D01*
X378119Y169832D01*
X379045Y169584D01*
X380000Y169500D01*
Y0D01*
X375000D01*
Y19975D01*
X375333Y20680D01*
X375679Y21625D01*
X375939Y22598D01*
X376110Y23591D01*
X376192Y24595D01*
X376183Y25602D01*
X376084Y26604D01*
X375895Y27593D01*
X375618Y28561D01*
X375256Y29501D01*
X375000Y30019D01*
Y75100D01*
X378400D01*
X378660Y75123D01*
X378913Y75190D01*
X379150Y75301D01*
X379364Y75451D01*
X379549Y75636D01*
X379699Y75850D01*
X379810Y76087D01*
X379877Y76340D01*
X379900Y76600D01*
Y83400D01*
X379877Y83660D01*
X379810Y83913D01*
X379699Y84150D01*
X379549Y84364D01*
X379364Y84549D01*
X379150Y84699D01*
X378913Y84810D01*
X378660Y84877D01*
X378400Y84900D01*
X375000D01*
Y115100D01*
X375851Y115174D01*
X376676Y115396D01*
X377450Y115756D01*
X378150Y116246D01*
X378754Y116850D01*
X379244Y117550D01*
X379604Y118324D01*
X379826Y119149D01*
X379900Y120000D01*
X379826Y120851D01*
X379604Y121676D01*
X379244Y122450D01*
X378754Y123150D01*
X378150Y123754D01*
X377450Y124244D01*
X376676Y124604D01*
X375851Y124826D01*
X375000Y124900D01*
Y125250D01*
X375825Y125322D01*
X376625Y125536D01*
X377375Y125886D01*
X378053Y126361D01*
X378639Y126947D01*
X379114Y127625D01*
X379464Y128375D01*
X379678Y129175D01*
X379750Y130000D01*
X379678Y130825D01*
X379464Y131625D01*
X379114Y132375D01*
X378639Y133053D01*
X378053Y133639D01*
X377375Y134114D01*
X376625Y134464D01*
X375825Y134678D01*
X375000Y134750D01*
Y135250D01*
X375825Y135322D01*
X376625Y135536D01*
X377375Y135886D01*
X378053Y136361D01*
X378639Y136947D01*
X379114Y137625D01*
X379464Y138375D01*
X379678Y139175D01*
X379750Y140000D01*
X379678Y140825D01*
X379464Y141625D01*
X379114Y142375D01*
X378639Y143053D01*
X378053Y143639D01*
X377375Y144114D01*
X376625Y144464D01*
X375825Y144678D01*
X375000Y144750D01*
Y172759D01*
G37*
G36*
Y190000D02*X375076Y189132D01*
X375302Y188290D01*
X375670Y187500D01*
X376170Y186786D01*
X376786Y186170D01*
X377500Y185670D01*
X378290Y185302D01*
X379132Y185076D01*
X380000Y185000D01*
Y180500D01*
X379045Y180416D01*
X378119Y180168D01*
X377250Y179763D01*
X376465Y179213D01*
X375787Y178535D01*
X375237Y177750D01*
X375000Y177241D01*
Y190000D01*
G37*
G36*
Y210000D02*X375076Y209132D01*
X375302Y208290D01*
X375670Y207500D01*
X376170Y206786D01*
X376786Y206170D01*
X377500Y205670D01*
X378290Y205302D01*
X379132Y205076D01*
X380000Y205000D01*
Y195000D01*
X379132Y194924D01*
X378290Y194698D01*
X377500Y194330D01*
X376786Y193830D01*
X376170Y193214D01*
X375670Y192500D01*
X375302Y191710D01*
X375076Y190868D01*
X375000Y190000D01*
Y210000D01*
G37*
G36*
Y231500D02*X375023Y231240D01*
X375090Y230987D01*
X375201Y230750D01*
X375351Y230536D01*
X375536Y230351D01*
X375750Y230201D01*
X375987Y230090D01*
X376240Y230023D01*
X376500Y230000D01*
X380000D01*
Y215000D01*
X379132Y214924D01*
X378290Y214698D01*
X377500Y214330D01*
X376786Y213830D01*
X376170Y213214D01*
X375670Y212500D01*
X375302Y211710D01*
X375076Y210868D01*
X375000Y210000D01*
Y231500D01*
G37*
G36*
Y247759D02*X375237Y247250D01*
X375787Y246465D01*
X376465Y245787D01*
X377250Y245237D01*
X378119Y244832D01*
X379045Y244584D01*
X380000Y244500D01*
Y240000D01*
X376500D01*
X376240Y239977D01*
X375987Y239910D01*
X375750Y239799D01*
X375536Y239649D01*
X375351Y239464D01*
X375201Y239250D01*
X375090Y239013D01*
X375023Y238760D01*
X375000Y238500D01*
Y247759D01*
G37*
G36*
Y261500D02*X375023Y261240D01*
X375090Y260987D01*
X375201Y260750D01*
X375351Y260536D01*
X375536Y260351D01*
X375750Y260201D01*
X375987Y260090D01*
X376240Y260023D01*
X376500Y260000D01*
X380000D01*
Y255500D01*
X379045Y255416D01*
X378119Y255168D01*
X377250Y254763D01*
X376465Y254213D01*
X375787Y253535D01*
X375237Y252750D01*
X375000Y252241D01*
Y261500D01*
G37*
G36*
Y285000D02*X375076Y284132D01*
X375302Y283290D01*
X375670Y282500D01*
X376170Y281786D01*
X376786Y281170D01*
X377500Y280670D01*
X378290Y280302D01*
X379132Y280076D01*
X380000Y280000D01*
Y270000D01*
X376500D01*
X376240Y269977D01*
X375987Y269910D01*
X375750Y269799D01*
X375536Y269649D01*
X375351Y269464D01*
X375201Y269250D01*
X375090Y269013D01*
X375023Y268760D01*
X375000Y268500D01*
Y285000D01*
G37*
G36*
Y310000D02*X375076Y309132D01*
X375302Y308290D01*
X375670Y307500D01*
X376170Y306786D01*
X376786Y306170D01*
X377500Y305670D01*
X378290Y305302D01*
X379132Y305076D01*
X380000Y305000D01*
Y290000D01*
X379132Y289924D01*
X378290Y289698D01*
X377500Y289330D01*
X376786Y288830D01*
X376170Y288214D01*
X375670Y287500D01*
X375302Y286710D01*
X375076Y285868D01*
X375000Y285000D01*
Y310000D01*
G37*
G36*
Y350000D02*X380000D01*
Y315000D01*
X379132Y314924D01*
X378290Y314698D01*
X377500Y314330D01*
X376786Y313830D01*
X376170Y313214D01*
X375670Y312500D01*
X375302Y311710D01*
X375076Y310868D01*
X375000Y310000D01*
Y324975D01*
X375333Y325680D01*
X375679Y326625D01*
X375939Y327598D01*
X376110Y328591D01*
X376192Y329595D01*
X376183Y330602D01*
X376084Y331604D01*
X375895Y332593D01*
X375618Y333561D01*
X375256Y334501D01*
X375000Y335019D01*
Y350000D01*
G37*
G36*
X368826Y205158D02*X369132Y205076D01*
X370000Y205000D01*
X370868Y205076D01*
X371710Y205302D01*
X372500Y205670D01*
X373214Y206170D01*
X373830Y206786D01*
X374330Y207500D01*
X374698Y208290D01*
X374924Y209132D01*
X375000Y210000D01*
Y177241D01*
X374832Y176881D01*
X374584Y175955D01*
X374500Y175000D01*
X374584Y174045D01*
X374832Y173119D01*
X375000Y172759D01*
Y144750D01*
X374175Y144678D01*
X373375Y144464D01*
X372625Y144114D01*
X371947Y143639D01*
X371361Y143053D01*
X370886Y142375D01*
X370536Y141625D01*
X370322Y140825D01*
X370250Y140000D01*
X370322Y139175D01*
X370536Y138375D01*
X370886Y137625D01*
X371361Y136947D01*
X371947Y136361D01*
X372625Y135886D01*
X373375Y135536D01*
X374175Y135322D01*
X375000Y135250D01*
Y134750D01*
X374175Y134678D01*
X373375Y134464D01*
X372625Y134114D01*
X371947Y133639D01*
X371361Y133053D01*
X370886Y132375D01*
X370536Y131625D01*
X370322Y130825D01*
X370250Y130000D01*
X370322Y129175D01*
X370536Y128375D01*
X370886Y127625D01*
X371361Y126947D01*
X371947Y126361D01*
X372625Y125886D01*
X373375Y125536D01*
X374175Y125322D01*
X375000Y125250D01*
Y124900D01*
X374149Y124826D01*
X373324Y124604D01*
X372550Y124244D01*
X371850Y123754D01*
X371246Y123150D01*
X370756Y122450D01*
X370396Y121676D01*
X370174Y120851D01*
X370100Y120000D01*
X370174Y119149D01*
X370396Y118324D01*
X370756Y117550D01*
X371246Y116850D01*
X371850Y116246D01*
X372550Y115756D01*
X373324Y115396D01*
X374149Y115174D01*
X375000Y115100D01*
Y84900D01*
X371600D01*
X371340Y84877D01*
X371087Y84810D01*
X370850Y84699D01*
X370636Y84549D01*
X370451Y84364D01*
X370301Y84150D01*
X370190Y83913D01*
X370123Y83660D01*
X370100Y83400D01*
Y76600D01*
X370123Y76340D01*
X370190Y76087D01*
X370301Y75850D01*
X370451Y75636D01*
X370636Y75451D01*
X370850Y75301D01*
X371087Y75190D01*
X371340Y75123D01*
X371600Y75100D01*
X375000D01*
Y30019D01*
X374810Y30404D01*
X374285Y31263D01*
X374175Y31398D01*
X374044Y31513D01*
X373894Y31603D01*
X373732Y31665D01*
X373561Y31698D01*
X373386Y31701D01*
X373214Y31674D01*
X373049Y31617D01*
X372897Y31533D01*
X372762Y31423D01*
X372647Y31292D01*
X372557Y31142D01*
X372495Y30980D01*
X372462Y30809D01*
X372459Y30634D01*
X372486Y30462D01*
X372543Y30297D01*
X372627Y30145D01*
X373058Y29439D01*
X373424Y28697D01*
X373722Y27926D01*
X373950Y27130D01*
X374105Y26318D01*
X374186Y25494D01*
X374193Y24667D01*
X374126Y23843D01*
X373985Y23027D01*
X373772Y22228D01*
X373487Y21451D01*
X373134Y20703D01*
X372715Y19990D01*
Y19989D01*
X372633Y19835D01*
X372580Y19669D01*
X372555Y19497D01*
X372562Y19322D01*
X372598Y19152D01*
X372663Y18990D01*
X372756Y18843D01*
X372873Y18713D01*
X373010Y18606D01*
X373164Y18524D01*
X373330Y18471D01*
X373502Y18446D01*
X373677Y18453D01*
X373847Y18489D01*
X374009Y18554D01*
X374156Y18647D01*
X374286Y18764D01*
X374393Y18901D01*
X374903Y19769D01*
X375000Y19975D01*
Y0D01*
X368826D01*
Y14484D01*
X369500Y14744D01*
X370403Y15190D01*
X371262Y15715D01*
X371397Y15825D01*
X371512Y15956D01*
X371602Y16106D01*
X371664Y16268D01*
X371697Y16439D01*
X371700Y16614D01*
X371673Y16786D01*
X371616Y16951D01*
X371532Y17103D01*
X371422Y17238D01*
X371291Y17353D01*
X371141Y17443D01*
X370979Y17505D01*
X370808Y17538D01*
X370633Y17541D01*
X370461Y17514D01*
X370296Y17457D01*
X370144Y17373D01*
X369438Y16942D01*
X368826Y16640D01*
Y33357D01*
X369297Y33135D01*
X370010Y32716D01*
X370011D01*
X370165Y32634D01*
X370331Y32581D01*
X370503Y32556D01*
X370678Y32563D01*
X370848Y32599D01*
X371010Y32664D01*
X371157Y32757D01*
X371287Y32874D01*
X371394Y33011D01*
X371476Y33165D01*
X371529Y33331D01*
X371554Y33503D01*
X371547Y33678D01*
X371511Y33848D01*
X371446Y34010D01*
X371353Y34157D01*
X371236Y34287D01*
X371099Y34394D01*
X370231Y34904D01*
X369320Y35334D01*
X368826Y35515D01*
Y127705D01*
X368901Y127721D01*
X369022Y127770D01*
X369133Y127839D01*
X369230Y127927D01*
X369311Y128030D01*
X369372Y128145D01*
X369523Y128550D01*
X369636Y128968D01*
X369711Y129394D01*
X369746Y129826D01*
X369742Y130258D01*
X369699Y130689D01*
X369617Y131114D01*
X369497Y131530D01*
X369339Y131932D01*
X369276Y132046D01*
X369193Y132148D01*
X369095Y132234D01*
X368983Y132301D01*
X368861Y132348D01*
X368826Y132355D01*
Y137214D01*
X369114Y137625D01*
X369464Y138375D01*
X369678Y139175D01*
X369750Y140000D01*
X369678Y140825D01*
X369464Y141625D01*
X369114Y142375D01*
X368826Y142786D01*
Y205158D01*
G37*
G36*
Y35515D02*X368375Y35680D01*
X367402Y35940D01*
X366409Y36111D01*
X365405Y36193D01*
X364491Y36185D01*
Y125281D01*
X364825Y125254D01*
X365257Y125258D01*
X365688Y125301D01*
X366113Y125383D01*
X366529Y125503D01*
X366931Y125661D01*
X367045Y125724D01*
X367147Y125807D01*
X367233Y125905D01*
X367300Y126017D01*
X367347Y126139D01*
X367372Y126268D01*
X367374Y126398D01*
X367354Y126527D01*
X367311Y126651D01*
X367248Y126765D01*
X367165Y126867D01*
X367067Y126953D01*
X366955Y127020D01*
X366833Y127067D01*
X366704Y127092D01*
X366574Y127094D01*
X366445Y127074D01*
X366321Y127031D01*
X366046Y126923D01*
X365761Y126841D01*
X365471Y126785D01*
X365176Y126755D01*
X364880Y126753D01*
X364585Y126777D01*
X364491Y126793D01*
Y133209D01*
X364528Y133216D01*
X364823Y133246D01*
X365119Y133248D01*
X365414Y133224D01*
X365706Y133173D01*
X365992Y133095D01*
X366269Y132992D01*
Y132993D01*
X366393Y132953D01*
X366523Y132934D01*
X366653Y132939D01*
X366781Y132966D01*
X366902Y133015D01*
X367013Y133084D01*
X367110Y133172D01*
X367191Y133275D01*
X367252Y133390D01*
X367292Y133514D01*
X367311Y133644D01*
X367306Y133774D01*
X367279Y133902D01*
X367230Y134023D01*
X367161Y134134D01*
X367073Y134231D01*
X366970Y134312D01*
X366855Y134373D01*
X366450Y134524D01*
X366032Y134637D01*
X365606Y134712D01*
X365174Y134747D01*
X364742Y134743D01*
X364491Y134718D01*
Y135294D01*
X365000Y135250D01*
X365825Y135322D01*
X366625Y135536D01*
X367375Y135886D01*
X368053Y136361D01*
X368639Y136947D01*
X368826Y137214D01*
Y132355D01*
X368732Y132373D01*
X368602Y132375D01*
X368473Y132355D01*
X368349Y132312D01*
X368235Y132249D01*
X368133Y132166D01*
X368047Y132068D01*
X367980Y131956D01*
X367933Y131834D01*
X367908Y131705D01*
X367906Y131575D01*
X367926Y131446D01*
X367969Y131322D01*
X368077Y131047D01*
X368159Y130762D01*
X368215Y130472D01*
X368245Y130177D01*
X368247Y129881D01*
X368223Y129586D01*
X368172Y129294D01*
X368094Y129008D01*
X367991Y128731D01*
X367992D01*
X367952Y128607D01*
X367933Y128477D01*
X367938Y128347D01*
X367965Y128219D01*
X368014Y128098D01*
X368083Y127987D01*
X368171Y127890D01*
X368274Y127809D01*
X368389Y127748D01*
X368513Y127708D01*
X368643Y127689D01*
X368773Y127694D01*
X368826Y127705D01*
Y35515D01*
G37*
G36*
Y16640D02*X368696Y16576D01*
X367925Y16278D01*
X367129Y16050D01*
X366317Y15895D01*
X365493Y15814D01*
X364666Y15807D01*
X364491Y15821D01*
Y34186D01*
X364506Y34187D01*
X365333Y34194D01*
X366157Y34127D01*
X366973Y33986D01*
X367772Y33773D01*
X368549Y33488D01*
X368826Y33357D01*
Y16640D01*
G37*
G36*
Y0D02*X364491D01*
Y13816D01*
X364594Y13808D01*
X365601Y13817D01*
X366603Y13916D01*
X367592Y14105D01*
X368560Y14382D01*
X368826Y14484D01*
Y0D01*
G37*
G36*
X364491Y207291D02*X364507Y207295D01*
X364625Y207350D01*
X364732Y207425D01*
X364825Y207518D01*
X364900Y207625D01*
X364955Y207743D01*
X364989Y207870D01*
X365000Y208000D01*
Y210000D01*
X365076Y209132D01*
X365302Y208290D01*
X365670Y207500D01*
X366170Y206786D01*
X366786Y206170D01*
X367500Y205670D01*
X368290Y205302D01*
X368826Y205158D01*
Y142786D01*
X368639Y143053D01*
X368053Y143639D01*
X367375Y144114D01*
X366625Y144464D01*
X365825Y144678D01*
X365000Y144750D01*
X364491Y144706D01*
Y172204D01*
X364574Y172233D01*
X364688Y172296D01*
X364790Y172378D01*
X364876Y172477D01*
X364943Y172589D01*
X365144Y173056D01*
X365302Y173540D01*
X365414Y174036D01*
X365480Y174540D01*
X365499Y175048D01*
X365471Y175556D01*
X365397Y176059D01*
X365276Y176553D01*
X365110Y177034D01*
X364900Y177497D01*
Y177498D01*
X364831Y177609D01*
X364743Y177706D01*
X364640Y177786D01*
X364525Y177848D01*
X364491Y177859D01*
Y207291D01*
G37*
G36*
X374050Y323580D02*X374156Y323647D01*
X374286Y323764D01*
X374393Y323901D01*
X374903Y324769D01*
X375000Y324975D01*
Y252241D01*
X374832Y251881D01*
X374584Y250955D01*
X374500Y250000D01*
X374584Y249045D01*
X374832Y248119D01*
X375000Y247759D01*
Y210000D01*
X374924Y210868D01*
X374698Y211710D01*
X374330Y212500D01*
X374050Y212900D01*
Y282543D01*
X374089Y282551D01*
X374211Y282598D01*
X374323Y282665D01*
X374421Y282751D01*
X374504Y282853D01*
X374567Y282967D01*
X374740Y283409D01*
X374869Y283866D01*
X374955Y284333D01*
X374996Y284807D01*
X374992Y285282D01*
X374942Y285754D01*
X374849Y286220D01*
X374711Y286674D01*
X374531Y287114D01*
X374530D01*
X374465Y287227D01*
X374381Y287327D01*
X374281Y287411D01*
X374167Y287476D01*
X374050Y287519D01*
Y323580D01*
G37*
G36*
Y331606D02*X374105Y331318D01*
X374186Y330494D01*
X374193Y329667D01*
X374126Y328843D01*
X374050Y328403D01*
Y331606D01*
G37*
G36*
Y350000D02*X375000D01*
Y335019D01*
X374810Y335404D01*
X374285Y336263D01*
X374175Y336398D01*
X374050Y336508D01*
Y350000D01*
G37*
G36*
X370033D02*X374050D01*
Y336508D01*
X374044Y336513D01*
X373894Y336603D01*
X373732Y336665D01*
X373561Y336698D01*
X373386Y336701D01*
X373214Y336674D01*
X373049Y336617D01*
X372897Y336533D01*
X372762Y336423D01*
X372647Y336292D01*
X372557Y336142D01*
X372495Y335980D01*
X372462Y335809D01*
X372459Y335634D01*
X372486Y335462D01*
X372543Y335297D01*
X372627Y335145D01*
X373058Y334439D01*
X373424Y333697D01*
X373722Y332926D01*
X373950Y332130D01*
X374050Y331606D01*
Y328403D01*
X373985Y328027D01*
X373772Y327228D01*
X373487Y326451D01*
X373134Y325703D01*
X372715Y324990D01*
Y324989D01*
X372633Y324835D01*
X372580Y324669D01*
X372555Y324497D01*
X372562Y324322D01*
X372598Y324152D01*
X372663Y323990D01*
X372756Y323843D01*
X372873Y323713D01*
X373010Y323606D01*
X373164Y323524D01*
X373330Y323471D01*
X373502Y323446D01*
X373677Y323453D01*
X373847Y323489D01*
X374009Y323554D01*
X374050Y323580D01*
Y287519D01*
X374045Y287521D01*
X373916Y287544D01*
X373785Y287543D01*
X373657Y287521D01*
X373534Y287476D01*
X373421Y287411D01*
X373321Y287327D01*
X373237Y287227D01*
X373172Y287113D01*
X373127Y286991D01*
X373104Y286862D01*
X373105Y286731D01*
X373127Y286603D01*
X373172Y286480D01*
X373298Y286172D01*
X373394Y285854D01*
X373460Y285528D01*
X373494Y285197D01*
X373497Y284865D01*
X373468Y284534D01*
X373408Y284207D01*
X373318Y283887D01*
X373197Y283577D01*
X373154Y283453D01*
X373134Y283324D01*
X373136Y283194D01*
X373161Y283065D01*
X373208Y282943D01*
X373275Y282831D01*
X373361Y282733D01*
X373463Y282650D01*
X373577Y282587D01*
X373701Y282544D01*
X373830Y282524D01*
X373960Y282526D01*
X374050Y282543D01*
Y212900D01*
X373830Y213214D01*
X373214Y213830D01*
X372500Y214330D01*
X371710Y214698D01*
X370868Y214924D01*
X370033Y214997D01*
Y280006D01*
X370281Y280008D01*
X370753Y280058D01*
X371219Y280151D01*
X371673Y280289D01*
X372113Y280469D01*
Y280470D01*
X372226Y280535D01*
X372326Y280619D01*
X372410Y280719D01*
X372475Y280833D01*
X372520Y280955D01*
X372543Y281084D01*
X372542Y281215D01*
X372520Y281343D01*
X372475Y281466D01*
X372410Y281579D01*
X372326Y281679D01*
X372226Y281763D01*
X372112Y281828D01*
X371990Y281873D01*
X371861Y281896D01*
X371730Y281895D01*
X371602Y281873D01*
X371479Y281828D01*
X371171Y281702D01*
X370853Y281606D01*
X370527Y281540D01*
X370196Y281506D01*
X370033Y281505D01*
Y288497D01*
X370135Y288498D01*
X370466Y288469D01*
X370793Y288409D01*
X371113Y288319D01*
X371423Y288198D01*
X371547Y288155D01*
X371676Y288135D01*
X371806Y288137D01*
X371935Y288162D01*
X372057Y288209D01*
X372169Y288276D01*
X372267Y288362D01*
X372350Y288464D01*
X372413Y288578D01*
X372456Y288702D01*
X372476Y288831D01*
X372474Y288961D01*
X372449Y289090D01*
X372402Y289212D01*
X372335Y289324D01*
X372249Y289422D01*
X372147Y289505D01*
X372033Y289568D01*
X371591Y289741D01*
X371134Y289870D01*
X370667Y289956D01*
X370193Y289997D01*
X370033Y289996D01*
Y320007D01*
X370403Y320190D01*
X371262Y320715D01*
X371397Y320825D01*
X371512Y320956D01*
X371602Y321106D01*
X371664Y321268D01*
X371697Y321439D01*
X371700Y321614D01*
X371673Y321786D01*
X371616Y321951D01*
X371532Y322103D01*
X371422Y322238D01*
X371291Y322353D01*
X371141Y322443D01*
X370979Y322505D01*
X370808Y322538D01*
X370633Y322541D01*
X370461Y322514D01*
X370296Y322457D01*
X370144Y322373D01*
X370033Y322305D01*
Y337704D01*
X370165Y337634D01*
X370331Y337581D01*
X370503Y337556D01*
X370678Y337563D01*
X370848Y337599D01*
X371010Y337664D01*
X371157Y337757D01*
X371287Y337874D01*
X371394Y338011D01*
X371476Y338165D01*
X371529Y338331D01*
X371554Y338503D01*
X371547Y338678D01*
X371511Y338848D01*
X371446Y339010D01*
X371353Y339157D01*
X371236Y339287D01*
X371099Y339394D01*
X370231Y339904D01*
X370033Y339997D01*
Y350000D01*
G37*
G36*
Y322305D02*X369438Y321942D01*
X368696Y321576D01*
X367925Y321278D01*
X367129Y321050D01*
X366317Y320895D01*
X365493Y320814D01*
X364666Y320807D01*
X364491Y320821D01*
Y339186D01*
X364506Y339187D01*
X365333Y339194D01*
X366157Y339127D01*
X366973Y338986D01*
X367772Y338773D01*
X368549Y338488D01*
X369297Y338135D01*
X370010Y337716D01*
X370011D01*
X370033Y337704D01*
Y322305D01*
G37*
G36*
Y214997D02*X370000Y215000D01*
X369132Y214924D01*
X368290Y214698D01*
X367500Y214330D01*
X366786Y213830D01*
X366170Y213214D01*
X365949Y212898D01*
Y282482D01*
X365954Y282480D01*
X366083Y282457D01*
X366214Y282458D01*
X366342Y282480D01*
X366465Y282525D01*
X366578Y282590D01*
X366678Y282674D01*
X366762Y282774D01*
X366827Y282888D01*
X366872Y283010D01*
X366895Y283139D01*
X366894Y283270D01*
X366872Y283398D01*
X366827Y283521D01*
X366701Y283829D01*
X366605Y284147D01*
X366539Y284473D01*
X366505Y284804D01*
X366502Y285136D01*
X366531Y285467D01*
X366591Y285794D01*
X366681Y286114D01*
X366802Y286424D01*
X366845Y286548D01*
X366865Y286677D01*
X366863Y286807D01*
X366838Y286936D01*
X366791Y287058D01*
X366724Y287170D01*
X366638Y287268D01*
X366536Y287351D01*
X366422Y287414D01*
X366298Y287457D01*
X366169Y287477D01*
X366039Y287475D01*
X365949Y287458D01*
Y318851D01*
X366603Y318916D01*
X367592Y319105D01*
X368560Y319382D01*
X369500Y319744D01*
X370033Y320007D01*
Y289996D01*
X369718Y289993D01*
X369246Y289943D01*
X368780Y289850D01*
X368326Y289712D01*
X367886Y289532D01*
Y289531D01*
X367773Y289466D01*
X367673Y289382D01*
X367589Y289282D01*
X367524Y289168D01*
X367479Y289046D01*
X367456Y288917D01*
X367457Y288786D01*
X367479Y288658D01*
X367524Y288535D01*
X367589Y288422D01*
X367673Y288322D01*
X367773Y288238D01*
X367887Y288173D01*
X368009Y288128D01*
X368138Y288105D01*
X368269Y288106D01*
X368397Y288128D01*
X368520Y288173D01*
X368828Y288299D01*
X369146Y288395D01*
X369472Y288461D01*
X369803Y288495D01*
X370033Y288497D01*
Y281505D01*
X369864Y281503D01*
X369533Y281532D01*
X369206Y281592D01*
X368886Y281682D01*
X368576Y281803D01*
X368452Y281846D01*
X368323Y281866D01*
X368193Y281864D01*
X368064Y281839D01*
X367942Y281792D01*
X367830Y281725D01*
X367732Y281639D01*
X367649Y281537D01*
X367586Y281423D01*
X367543Y281299D01*
X367523Y281170D01*
X367525Y281040D01*
X367550Y280911D01*
X367597Y280789D01*
X367664Y280677D01*
X367750Y280579D01*
X367852Y280496D01*
X367966Y280433D01*
X368408Y280260D01*
X368865Y280131D01*
X369332Y280045D01*
X369806Y280004D01*
X370033Y280006D01*
Y214997D01*
G37*
G36*
X365949Y212898D02*X365670Y212500D01*
X365302Y211710D01*
X365076Y210868D01*
X365000Y210000D01*
Y212000D01*
X364989Y212130D01*
X364955Y212257D01*
X364900Y212375D01*
X364825Y212482D01*
X364732Y212575D01*
X364625Y212650D01*
X364507Y212705D01*
X364491Y212709D01*
Y247204D01*
X364574Y247233D01*
X364688Y247296D01*
X364790Y247378D01*
X364876Y247477D01*
X364943Y247589D01*
X365144Y248056D01*
X365302Y248540D01*
X365414Y249036D01*
X365480Y249540D01*
X365499Y250048D01*
X365471Y250556D01*
X365397Y251059D01*
X365276Y251553D01*
X365110Y252034D01*
X364900Y252497D01*
Y252498D01*
X364831Y252609D01*
X364743Y252706D01*
X364640Y252786D01*
X364525Y252848D01*
X364491Y252859D01*
Y280378D01*
X364649Y280536D01*
X364799Y280750D01*
X364910Y280987D01*
X364977Y281240D01*
X365000Y281500D01*
Y288500D01*
X364977Y288760D01*
X364910Y289013D01*
X364799Y289250D01*
X364649Y289464D01*
X364491Y289622D01*
Y318816D01*
X364594Y318808D01*
X365601Y318817D01*
X365949Y318851D01*
Y287458D01*
X365910Y287450D01*
X365788Y287403D01*
X365676Y287336D01*
X365578Y287250D01*
X365495Y287148D01*
X365432Y287034D01*
X365259Y286592D01*
X365130Y286135D01*
X365044Y285668D01*
X365003Y285194D01*
X365007Y284719D01*
X365057Y284247D01*
X365150Y283781D01*
X365288Y283327D01*
X365468Y282887D01*
X365469D01*
X365534Y282774D01*
X365618Y282674D01*
X365718Y282590D01*
X365832Y282525D01*
X365949Y282482D01*
Y212898D01*
G37*
G36*
X364491Y350000D02*X370033D01*
Y339997D01*
X369320Y340334D01*
X368375Y340680D01*
X367402Y340940D01*
X366409Y341111D01*
X365405Y341193D01*
X364491Y341185D01*
Y350000D01*
G37*
G36*
Y320821D02*X363842Y320874D01*
X363026Y321015D01*
X362227Y321228D01*
X361450Y321513D01*
X360702Y321866D01*
X359989Y322285D01*
X359988D01*
X359834Y322367D01*
X359668Y322420D01*
X359496Y322445D01*
X359321Y322438D01*
X359151Y322402D01*
X359000Y322341D01*
Y337504D01*
X359020Y337496D01*
X359191Y337463D01*
X359366Y337460D01*
X359538Y337487D01*
X359703Y337544D01*
X359855Y337628D01*
X360561Y338059D01*
X361303Y338425D01*
X362074Y338723D01*
X362870Y338951D01*
X363682Y339106D01*
X364491Y339186D01*
Y320821D01*
G37*
G36*
Y289622D02*X364464Y289649D01*
X364250Y289799D01*
X364013Y289910D01*
X363760Y289977D01*
X363500Y290000D01*
X359000D01*
Y320548D01*
X359768Y320097D01*
X360679Y319667D01*
X361624Y319321D01*
X362597Y319061D01*
X363590Y318890D01*
X364491Y318816D01*
Y289622D01*
G37*
G36*
Y15821D02*X363842Y15874D01*
X363026Y16015D01*
X362227Y16228D01*
X361450Y16513D01*
X360702Y16866D01*
X359989Y17285D01*
X359988D01*
X359834Y17367D01*
X359668Y17420D01*
X359496Y17445D01*
X359321Y17438D01*
X359151Y17402D01*
X359000Y17341D01*
Y32504D01*
X359020Y32496D01*
X359191Y32463D01*
X359366Y32460D01*
X359538Y32487D01*
X359703Y32544D01*
X359855Y32628D01*
X360561Y33059D01*
X361303Y33425D01*
X362074Y33723D01*
X362870Y33951D01*
X363682Y34106D01*
X364491Y34186D01*
Y15821D01*
G37*
G36*
Y0D02*X359000D01*
Y15548D01*
X359768Y15097D01*
X360679Y14667D01*
X361624Y14321D01*
X362597Y14061D01*
X363590Y13890D01*
X364491Y13816D01*
Y0D01*
G37*
G36*
X361173Y137215D02*X361361Y136947D01*
X361947Y136361D01*
X362625Y135886D01*
X363375Y135536D01*
X364175Y135322D01*
X364491Y135294D01*
Y134718D01*
X364311Y134700D01*
X363886Y134618D01*
X363470Y134498D01*
X363068Y134340D01*
X362954Y134277D01*
X362852Y134194D01*
X362766Y134096D01*
X362699Y133984D01*
X362652Y133862D01*
X362627Y133733D01*
X362625Y133603D01*
X362645Y133474D01*
X362688Y133350D01*
X362751Y133236D01*
X362834Y133134D01*
X362932Y133048D01*
X363044Y132981D01*
X363166Y132934D01*
X363295Y132909D01*
X363425Y132907D01*
X363554Y132927D01*
X363678Y132970D01*
X363953Y133078D01*
X364238Y133160D01*
X364491Y133209D01*
Y126793D01*
X364293Y126828D01*
X364007Y126906D01*
X363730Y127009D01*
Y127008D01*
X363606Y127048D01*
X363476Y127067D01*
X363346Y127062D01*
X363218Y127035D01*
X363097Y126986D01*
X362986Y126917D01*
X362889Y126829D01*
X362808Y126726D01*
X362747Y126611D01*
X362707Y126487D01*
X362688Y126357D01*
X362693Y126227D01*
X362720Y126099D01*
X362769Y125978D01*
X362838Y125867D01*
X362926Y125770D01*
X363029Y125689D01*
X363144Y125628D01*
X363549Y125477D01*
X363967Y125364D01*
X364393Y125289D01*
X364491Y125281D01*
Y36185D01*
X364398Y36184D01*
X363396Y36085D01*
X362407Y35896D01*
X361439Y35619D01*
X361173Y35517D01*
Y105700D01*
X362090D01*
X362350Y105723D01*
X362603Y105790D01*
X362840Y105901D01*
X363054Y106051D01*
X363239Y106236D01*
X363389Y106450D01*
X363500Y106687D01*
X363567Y106940D01*
X363590Y107200D01*
Y115700D01*
X363567Y115960D01*
X363500Y116213D01*
X363389Y116450D01*
X363239Y116664D01*
X363054Y116849D01*
X362840Y116999D01*
X362603Y117110D01*
X362350Y117177D01*
X362090Y117200D01*
X361173D01*
Y127646D01*
X361267Y127628D01*
X361397Y127626D01*
X361526Y127646D01*
X361650Y127689D01*
X361764Y127752D01*
X361866Y127835D01*
X361952Y127933D01*
X362019Y128045D01*
X362066Y128167D01*
X362091Y128296D01*
X362093Y128426D01*
X362073Y128555D01*
X362030Y128679D01*
X361922Y128954D01*
X361840Y129239D01*
X361784Y129529D01*
X361754Y129824D01*
X361752Y130120D01*
X361776Y130415D01*
X361827Y130707D01*
X361905Y130993D01*
X362008Y131270D01*
X362007D01*
X362047Y131394D01*
X362066Y131524D01*
X362061Y131654D01*
X362034Y131782D01*
X361985Y131903D01*
X361916Y132014D01*
X361828Y132111D01*
X361725Y132192D01*
X361610Y132253D01*
X361486Y132293D01*
X361356Y132312D01*
X361226Y132307D01*
X361173Y132296D01*
Y137215D01*
G37*
G36*
X364491Y212709D02*X364380Y212739D01*
X364250Y212750D01*
X364120Y212739D01*
X363993Y212705D01*
X363875Y212650D01*
X363768Y212575D01*
X363675Y212482D01*
X363600Y212375D01*
X363545Y212257D01*
X363511Y212130D01*
X363500Y212000D01*
Y208000D01*
X363511Y207870D01*
X363545Y207743D01*
X363600Y207625D01*
X363675Y207518D01*
X363768Y207425D01*
X363875Y207350D01*
X363993Y207295D01*
X364120Y207261D01*
X364250Y207250D01*
X364380Y207261D01*
X364491Y207291D01*
Y177859D01*
X364400Y177888D01*
X364271Y177906D01*
X364140Y177901D01*
X364012Y177874D01*
X363891Y177825D01*
X363780Y177756D01*
X363683Y177668D01*
X363603Y177565D01*
X363541Y177450D01*
X363501Y177325D01*
X363483Y177196D01*
X363488Y177065D01*
X363515Y176937D01*
X363564Y176816D01*
X363716Y176479D01*
X363837Y176130D01*
X363925Y175771D01*
X363979Y175405D01*
X363999Y175035D01*
X363985Y174666D01*
X363938Y174299D01*
X363856Y173938D01*
X363741Y173587D01*
X363595Y173247D01*
X363548Y173125D01*
X363523Y172997D01*
X363521Y172866D01*
X363541Y172737D01*
X363584Y172613D01*
X363647Y172499D01*
X363729Y172397D01*
X363828Y172311D01*
X363940Y172244D01*
X364062Y172197D01*
X364190Y172172D01*
X364321Y172170D01*
X364450Y172190D01*
X364491Y172204D01*
Y144706D01*
X364175Y144678D01*
X363375Y144464D01*
X362625Y144114D01*
X361947Y143639D01*
X361361Y143053D01*
X361173Y142785D01*
Y169631D01*
X361552Y169724D01*
X362033Y169890D01*
X362496Y170100D01*
X362497D01*
X362608Y170169D01*
X362705Y170257D01*
X362785Y170360D01*
X362847Y170475D01*
X362887Y170600D01*
X362905Y170729D01*
X362900Y170860D01*
X362873Y170988D01*
X362824Y171109D01*
X362755Y171220D01*
X362667Y171317D01*
X362564Y171397D01*
X362449Y171459D01*
X362324Y171499D01*
X362195Y171517D01*
X362064Y171512D01*
X361936Y171485D01*
X361815Y171436D01*
X361478Y171284D01*
X361173Y171178D01*
Y178821D01*
X361413Y178742D01*
X361753Y178596D01*
X361875Y178549D01*
X362003Y178524D01*
X362134Y178522D01*
X362263Y178542D01*
X362387Y178585D01*
X362501Y178648D01*
X362603Y178730D01*
X362689Y178829D01*
X362756Y178941D01*
X362803Y179063D01*
X362828Y179191D01*
X362830Y179322D01*
X362810Y179451D01*
X362767Y179575D01*
X362704Y179689D01*
X362622Y179791D01*
X362523Y179877D01*
X362411Y179944D01*
X361944Y180145D01*
X361460Y180303D01*
X361173Y180368D01*
Y205000D01*
X362000D01*
X362130Y205011D01*
X362257Y205045D01*
X362375Y205100D01*
X362482Y205175D01*
X362575Y205268D01*
X362650Y205375D01*
X362705Y205493D01*
X362739Y205620D01*
X362750Y205750D01*
X362739Y205880D01*
X362705Y206007D01*
X362650Y206125D01*
X362575Y206232D01*
X362482Y206325D01*
X362375Y206400D01*
X362257Y206455D01*
X362130Y206489D01*
X362000Y206500D01*
X361173D01*
Y213500D01*
X362000D01*
X362130Y213511D01*
X362257Y213545D01*
X362375Y213600D01*
X362482Y213675D01*
X362575Y213768D01*
X362650Y213875D01*
X362705Y213993D01*
X362739Y214120D01*
X362750Y214250D01*
X362739Y214380D01*
X362705Y214507D01*
X362650Y214625D01*
X362575Y214732D01*
X362482Y214825D01*
X362375Y214900D01*
X362257Y214955D01*
X362130Y214989D01*
X362000Y215000D01*
X361173D01*
Y244631D01*
X361552Y244724D01*
X362033Y244890D01*
X362496Y245100D01*
X362497D01*
X362608Y245169D01*
X362705Y245257D01*
X362785Y245360D01*
X362847Y245475D01*
X362887Y245600D01*
X362905Y245729D01*
X362900Y245860D01*
X362873Y245988D01*
X362824Y246109D01*
X362755Y246220D01*
X362667Y246317D01*
X362564Y246397D01*
X362449Y246459D01*
X362324Y246499D01*
X362195Y246517D01*
X362064Y246512D01*
X361936Y246485D01*
X361815Y246436D01*
X361478Y246284D01*
X361173Y246178D01*
Y253821D01*
X361413Y253742D01*
X361753Y253596D01*
X361875Y253549D01*
X362003Y253524D01*
X362134Y253522D01*
X362263Y253542D01*
X362387Y253585D01*
X362501Y253648D01*
X362603Y253730D01*
X362689Y253829D01*
X362756Y253941D01*
X362803Y254063D01*
X362828Y254191D01*
X362830Y254322D01*
X362810Y254451D01*
X362767Y254575D01*
X362704Y254689D01*
X362622Y254791D01*
X362523Y254877D01*
X362411Y254944D01*
X361944Y255145D01*
X361460Y255303D01*
X361173Y255368D01*
Y280000D01*
X363500D01*
X363760Y280023D01*
X364013Y280090D01*
X364250Y280201D01*
X364464Y280351D01*
X364491Y280378D01*
Y252859D01*
X364400Y252888D01*
X364271Y252906D01*
X364140Y252901D01*
X364012Y252874D01*
X363891Y252825D01*
X363780Y252756D01*
X363683Y252668D01*
X363603Y252565D01*
X363541Y252450D01*
X363501Y252325D01*
X363483Y252196D01*
X363488Y252065D01*
X363515Y251937D01*
X363564Y251816D01*
X363716Y251479D01*
X363837Y251130D01*
X363925Y250771D01*
X363979Y250405D01*
X363999Y250035D01*
X363985Y249666D01*
X363938Y249299D01*
X363856Y248938D01*
X363741Y248587D01*
X363595Y248247D01*
X363548Y248125D01*
X363523Y247997D01*
X363521Y247866D01*
X363541Y247737D01*
X363584Y247613D01*
X363647Y247499D01*
X363729Y247397D01*
X363828Y247311D01*
X363940Y247244D01*
X364062Y247197D01*
X364190Y247172D01*
X364321Y247170D01*
X364450Y247190D01*
X364491Y247204D01*
Y212709D01*
G37*
G36*
X361173Y255368D02*X360964Y255415D01*
X360460Y255481D01*
X359952Y255500D01*
X359444Y255472D01*
X359000Y255407D01*
Y280000D01*
X361173D01*
Y255368D01*
G37*
G36*
Y246178D02*X361129Y246163D01*
X360770Y246075D01*
X360404Y246021D01*
X360034Y246001D01*
X359665Y246015D01*
X359298Y246062D01*
X359000Y246130D01*
Y253870D01*
X359229Y253926D01*
X359595Y253980D01*
X359965Y254000D01*
X360334Y253986D01*
X360701Y253939D01*
X361062Y253857D01*
X361173Y253821D01*
Y246178D01*
G37*
G36*
Y215000D02*X359000D01*
Y244594D01*
X359035Y244586D01*
X359539Y244520D01*
X360047Y244501D01*
X360555Y244529D01*
X361058Y244603D01*
X361173Y244631D01*
Y215000D01*
G37*
G36*
Y206500D02*X359000D01*
Y213500D01*
X361173D01*
Y206500D01*
G37*
G36*
Y180368D02*X360964Y180415D01*
X360460Y180481D01*
X359952Y180500D01*
X359444Y180472D01*
X359000Y180407D01*
Y205000D01*
X361173D01*
Y180368D01*
G37*
G36*
Y171178D02*X361129Y171163D01*
X360770Y171075D01*
X360404Y171021D01*
X360034Y171001D01*
X359665Y171015D01*
X359298Y171062D01*
X359000Y171130D01*
Y178870D01*
X359229Y178926D01*
X359595Y178980D01*
X359965Y179000D01*
X360334Y178986D01*
X360701Y178939D01*
X361062Y178857D01*
X361173Y178821D01*
Y171178D01*
G37*
G36*
Y35517D02*X360499Y35257D01*
X359596Y34811D01*
X359000Y34447D01*
Y105700D01*
X361173D01*
Y35517D01*
G37*
G36*
Y142785D02*X360886Y142375D01*
X360536Y141625D01*
X360322Y140825D01*
X360250Y140000D01*
X360322Y139175D01*
X360536Y138375D01*
X360886Y137625D01*
X361173Y137215D01*
Y132296D01*
X361098Y132280D01*
X360977Y132231D01*
X360866Y132162D01*
X360769Y132074D01*
X360688Y131971D01*
X360627Y131856D01*
X360476Y131451D01*
X360363Y131033D01*
X360288Y130607D01*
X360253Y130175D01*
X360257Y129743D01*
X360300Y129312D01*
X360382Y128887D01*
X360502Y128471D01*
X360660Y128069D01*
X360723Y127955D01*
X360806Y127853D01*
X360904Y127767D01*
X361016Y127700D01*
X361138Y127653D01*
X361173Y127646D01*
Y117200D01*
X359000D01*
Y127500D01*
X359130Y127511D01*
X359257Y127545D01*
X359375Y127600D01*
X359482Y127675D01*
X359575Y127768D01*
X359650Y127875D01*
X359705Y127993D01*
X359739Y128120D01*
X359750Y128250D01*
Y131750D01*
X359739Y131880D01*
X359705Y132007D01*
X359650Y132125D01*
X359575Y132232D01*
X359482Y132325D01*
X359375Y132400D01*
X359257Y132455D01*
X359130Y132489D01*
X359000Y132500D01*
Y137462D01*
X359114Y137625D01*
X359464Y138375D01*
X359678Y139175D01*
X359750Y140000D01*
X359678Y140825D01*
X359464Y141625D01*
X359114Y142375D01*
X359000Y142538D01*
Y169594D01*
X359035Y169586D01*
X359539Y169520D01*
X360047Y169501D01*
X360555Y169529D01*
X361058Y169603D01*
X361173Y169631D01*
Y142785D01*
G37*
G36*
X359000Y350000D02*X364491D01*
Y341185D01*
X364398Y341184D01*
X363396Y341085D01*
X362407Y340896D01*
X361439Y340619D01*
X360499Y340257D01*
X359596Y339811D01*
X359000Y339447D01*
Y350000D01*
G37*
G36*
Y142538D02*X358639Y143053D01*
X358053Y143639D01*
X357375Y144114D01*
X356625Y144464D01*
X355825Y144678D01*
X355000Y144750D01*
Y172722D01*
X355099Y172504D01*
Y172503D01*
X355168Y172392D01*
X355256Y172295D01*
X355359Y172215D01*
X355474Y172153D01*
X355599Y172113D01*
X355728Y172095D01*
X355859Y172100D01*
X355987Y172127D01*
X356108Y172176D01*
X356219Y172245D01*
X356316Y172333D01*
X356396Y172436D01*
X356458Y172551D01*
X356498Y172676D01*
X356516Y172805D01*
X356511Y172936D01*
X356484Y173064D01*
X356435Y173185D01*
X356283Y173522D01*
X356162Y173871D01*
X356074Y174230D01*
X356020Y174596D01*
X356000Y174966D01*
X356014Y175335D01*
X356061Y175702D01*
X356143Y176063D01*
X356258Y176414D01*
X356404Y176754D01*
X356451Y176876D01*
X356476Y177004D01*
X356478Y177135D01*
X356458Y177264D01*
X356415Y177388D01*
X356352Y177502D01*
X356270Y177604D01*
X356171Y177690D01*
X356059Y177757D01*
X355937Y177804D01*
X355809Y177829D01*
X355678Y177831D01*
X355549Y177811D01*
X355425Y177768D01*
X355311Y177705D01*
X355209Y177623D01*
X355123Y177524D01*
X355056Y177412D01*
X355000Y177282D01*
Y208000D01*
X355011Y207870D01*
X355045Y207743D01*
X355100Y207625D01*
X355175Y207518D01*
X355268Y207425D01*
X355375Y207350D01*
X355493Y207295D01*
X355620Y207261D01*
X355750Y207250D01*
X355880Y207261D01*
X356007Y207295D01*
X356125Y207350D01*
X356232Y207425D01*
X356325Y207518D01*
X356400Y207625D01*
X356455Y207743D01*
X356489Y207870D01*
X356500Y208000D01*
Y212000D01*
X356489Y212130D01*
X356455Y212257D01*
X356400Y212375D01*
X356325Y212482D01*
X356232Y212575D01*
X356125Y212650D01*
X356007Y212705D01*
X355880Y212739D01*
X355750Y212750D01*
X355620Y212739D01*
X355493Y212705D01*
X355375Y212650D01*
X355268Y212575D01*
X355175Y212482D01*
X355100Y212375D01*
X355045Y212257D01*
X355011Y212130D01*
X355000Y212000D01*
Y247722D01*
X355099Y247504D01*
Y247503D01*
X355168Y247392D01*
X355256Y247295D01*
X355359Y247215D01*
X355474Y247153D01*
X355599Y247113D01*
X355728Y247095D01*
X355859Y247100D01*
X355987Y247127D01*
X356108Y247176D01*
X356219Y247245D01*
X356316Y247333D01*
X356396Y247436D01*
X356458Y247551D01*
X356498Y247676D01*
X356516Y247805D01*
X356511Y247936D01*
X356484Y248064D01*
X356435Y248185D01*
X356283Y248522D01*
X356162Y248871D01*
X356074Y249230D01*
X356020Y249596D01*
X356000Y249966D01*
X356014Y250335D01*
X356061Y250702D01*
X356143Y251063D01*
X356258Y251414D01*
X356404Y251754D01*
X356451Y251876D01*
X356476Y252004D01*
X356478Y252135D01*
X356458Y252264D01*
X356415Y252388D01*
X356352Y252502D01*
X356270Y252604D01*
X356171Y252690D01*
X356059Y252757D01*
X355937Y252804D01*
X355809Y252829D01*
X355678Y252831D01*
X355549Y252811D01*
X355425Y252768D01*
X355311Y252705D01*
X355209Y252623D01*
X355123Y252524D01*
X355056Y252412D01*
X355000Y252282D01*
Y281500D01*
X355023Y281240D01*
X355090Y280987D01*
X355201Y280750D01*
X355351Y280536D01*
X355536Y280351D01*
X355750Y280201D01*
X355987Y280090D01*
X356240Y280023D01*
X356500Y280000D01*
X359000D01*
Y255407D01*
X358941Y255398D01*
X358447Y255277D01*
X357966Y255111D01*
X357503Y254901D01*
X357502D01*
X357391Y254832D01*
X357294Y254744D01*
X357214Y254641D01*
X357152Y254526D01*
X357112Y254401D01*
X357094Y254272D01*
X357099Y254141D01*
X357126Y254013D01*
X357175Y253892D01*
X357244Y253781D01*
X357332Y253684D01*
X357435Y253604D01*
X357550Y253542D01*
X357675Y253502D01*
X357804Y253484D01*
X357935Y253489D01*
X358063Y253516D01*
X358184Y253565D01*
X358521Y253717D01*
X358870Y253838D01*
X359000Y253870D01*
Y246130D01*
X358937Y246144D01*
X358586Y246259D01*
X358246Y246405D01*
X358124Y246452D01*
X357996Y246477D01*
X357865Y246479D01*
X357736Y246459D01*
X357612Y246416D01*
X357498Y246353D01*
X357396Y246271D01*
X357310Y246172D01*
X357243Y246060D01*
X357196Y245938D01*
X357171Y245810D01*
X357169Y245679D01*
X357189Y245550D01*
X357232Y245426D01*
X357295Y245312D01*
X357377Y245210D01*
X357476Y245124D01*
X357588Y245057D01*
X358055Y244856D01*
X358539Y244698D01*
X359000Y244594D01*
Y215000D01*
X358000D01*
X357870Y214989D01*
X357743Y214955D01*
X357625Y214900D01*
X357518Y214825D01*
X357425Y214732D01*
X357350Y214625D01*
X357295Y214507D01*
X357261Y214380D01*
X357250Y214250D01*
X357261Y214120D01*
X357295Y213993D01*
X357350Y213875D01*
X357425Y213768D01*
X357518Y213675D01*
X357625Y213600D01*
X357743Y213545D01*
X357870Y213511D01*
X358000Y213500D01*
X359000D01*
Y206500D01*
X358000D01*
X357870Y206489D01*
X357743Y206455D01*
X357625Y206400D01*
X357518Y206325D01*
X357425Y206232D01*
X357350Y206125D01*
X357295Y206007D01*
X357261Y205880D01*
X357250Y205750D01*
X357261Y205620D01*
X357295Y205493D01*
X357350Y205375D01*
X357425Y205268D01*
X357518Y205175D01*
X357625Y205100D01*
X357743Y205045D01*
X357870Y205011D01*
X358000Y205000D01*
X359000D01*
Y180407D01*
X358941Y180398D01*
X358447Y180277D01*
X357966Y180111D01*
X357503Y179901D01*
X357502D01*
X357391Y179832D01*
X357294Y179744D01*
X357214Y179641D01*
X357152Y179526D01*
X357112Y179401D01*
X357094Y179272D01*
X357099Y179141D01*
X357126Y179013D01*
X357175Y178892D01*
X357244Y178781D01*
X357332Y178684D01*
X357435Y178604D01*
X357550Y178542D01*
X357675Y178502D01*
X357804Y178484D01*
X357935Y178489D01*
X358063Y178516D01*
X358184Y178565D01*
X358521Y178717D01*
X358870Y178838D01*
X359000Y178870D01*
Y171130D01*
X358937Y171144D01*
X358586Y171259D01*
X358246Y171405D01*
X358124Y171452D01*
X357996Y171477D01*
X357865Y171479D01*
X357736Y171459D01*
X357612Y171416D01*
X357498Y171353D01*
X357396Y171271D01*
X357310Y171172D01*
X357243Y171060D01*
X357196Y170938D01*
X357171Y170810D01*
X357169Y170679D01*
X357189Y170550D01*
X357232Y170426D01*
X357295Y170312D01*
X357377Y170210D01*
X357476Y170124D01*
X357588Y170057D01*
X358055Y169856D01*
X358539Y169698D01*
X359000Y169594D01*
Y142538D01*
G37*
G36*
Y117200D02*X355000D01*
Y125250D01*
X356750D01*
X356880Y125261D01*
X357007Y125295D01*
X357125Y125350D01*
X357232Y125425D01*
X357325Y125518D01*
X357400Y125625D01*
X357455Y125743D01*
X357489Y125870D01*
X357500Y126000D01*
X357489Y126130D01*
X357455Y126257D01*
X357400Y126375D01*
X357325Y126482D01*
X357232Y126575D01*
X357125Y126650D01*
X357007Y126705D01*
X356880Y126739D01*
X356750Y126750D01*
X355000D01*
Y133250D01*
X356750D01*
X356880Y133261D01*
X357007Y133295D01*
X357125Y133350D01*
X357232Y133425D01*
X357325Y133518D01*
X357400Y133625D01*
X357455Y133743D01*
X357489Y133870D01*
X357500Y134000D01*
X357489Y134130D01*
X357455Y134257D01*
X357400Y134375D01*
X357325Y134482D01*
X357232Y134575D01*
X357125Y134650D01*
X357007Y134705D01*
X356880Y134739D01*
X356750Y134750D01*
X355000D01*
Y135250D01*
X355825Y135322D01*
X356625Y135536D01*
X357375Y135886D01*
X358053Y136361D01*
X358639Y136947D01*
X359000Y137462D01*
Y132500D01*
X358870Y132489D01*
X358743Y132455D01*
X358625Y132400D01*
X358518Y132325D01*
X358425Y132232D01*
X358350Y132125D01*
X358295Y132007D01*
X358261Y131880D01*
X358250Y131750D01*
Y128250D01*
X358261Y128120D01*
X358295Y127993D01*
X358350Y127875D01*
X358425Y127768D01*
X358518Y127675D01*
X358625Y127600D01*
X358743Y127545D01*
X358870Y127511D01*
X359000Y127500D01*
Y117200D01*
G37*
G36*
Y0D02*X355000D01*
Y19980D01*
X355189Y19597D01*
X355714Y18738D01*
X355824Y18603D01*
X355955Y18488D01*
X356105Y18398D01*
X356267Y18336D01*
X356438Y18303D01*
X356613Y18300D01*
X356785Y18327D01*
X356950Y18384D01*
X357102Y18468D01*
X357237Y18578D01*
X357352Y18709D01*
X357442Y18859D01*
X357504Y19021D01*
X357537Y19192D01*
X357540Y19367D01*
X357513Y19539D01*
X357456Y19704D01*
X357372Y19856D01*
X356941Y20562D01*
X356575Y21304D01*
X356277Y22075D01*
X356049Y22871D01*
X355894Y23683D01*
X355813Y24507D01*
X355806Y25334D01*
X355873Y26158D01*
X356014Y26974D01*
X356227Y27773D01*
X356512Y28550D01*
X356865Y29298D01*
X357284Y30011D01*
Y30012D01*
X357366Y30166D01*
X357419Y30332D01*
X357444Y30504D01*
X357437Y30679D01*
X357401Y30849D01*
X357336Y31011D01*
X357243Y31158D01*
X357126Y31288D01*
X356989Y31395D01*
X356835Y31477D01*
X356669Y31530D01*
X356497Y31555D01*
X356322Y31548D01*
X356152Y31512D01*
X355990Y31447D01*
X355843Y31354D01*
X355713Y31237D01*
X355606Y31100D01*
X355096Y30232D01*
X355000Y30029D01*
Y105700D01*
X359000D01*
Y34447D01*
X358737Y34286D01*
X358602Y34176D01*
X358487Y34045D01*
X358397Y33895D01*
X358335Y33733D01*
X358302Y33562D01*
X358299Y33387D01*
X358326Y33215D01*
X358383Y33050D01*
X358467Y32898D01*
X358577Y32763D01*
X358708Y32648D01*
X358858Y32558D01*
X359000Y32504D01*
Y17341D01*
X358989Y17337D01*
X358842Y17244D01*
X358712Y17127D01*
X358605Y16990D01*
X358523Y16836D01*
X358470Y16670D01*
X358445Y16498D01*
X358452Y16323D01*
X358488Y16153D01*
X358553Y15991D01*
X358646Y15844D01*
X358763Y15714D01*
X358900Y15607D01*
X359000Y15548D01*
Y0D01*
G37*
G36*
X355000Y350000D02*X359000D01*
Y339447D01*
X358737Y339286D01*
X358602Y339176D01*
X358487Y339045D01*
X358397Y338895D01*
X358335Y338733D01*
X358302Y338562D01*
X358299Y338387D01*
X358326Y338215D01*
X358383Y338050D01*
X358467Y337898D01*
X358577Y337763D01*
X358708Y337648D01*
X358858Y337558D01*
X359000Y337504D01*
Y322341D01*
X358989Y322337D01*
X358842Y322244D01*
X358712Y322127D01*
X358605Y321990D01*
X358523Y321836D01*
X358470Y321670D01*
X358445Y321498D01*
X358452Y321323D01*
X358488Y321153D01*
X358553Y320991D01*
X358646Y320844D01*
X358763Y320714D01*
X358900Y320607D01*
X359000Y320548D01*
Y290000D01*
X356500D01*
X356240Y289977D01*
X355987Y289910D01*
X355750Y289799D01*
X355536Y289649D01*
X355351Y289464D01*
X355201Y289250D01*
X355090Y289013D01*
X355023Y288760D01*
X355000Y288500D01*
Y324980D01*
X355189Y324597D01*
X355714Y323738D01*
X355824Y323603D01*
X355955Y323488D01*
X356105Y323398D01*
X356267Y323336D01*
X356438Y323303D01*
X356613Y323300D01*
X356785Y323327D01*
X356950Y323384D01*
X357102Y323468D01*
X357237Y323578D01*
X357352Y323709D01*
X357442Y323859D01*
X357504Y324021D01*
X357537Y324192D01*
X357540Y324367D01*
X357513Y324539D01*
X357456Y324704D01*
X357372Y324856D01*
X356941Y325562D01*
X356575Y326304D01*
X356277Y327075D01*
X356049Y327871D01*
X355894Y328683D01*
X355813Y329507D01*
X355806Y330334D01*
X355873Y331158D01*
X356014Y331974D01*
X356227Y332773D01*
X356512Y333550D01*
X356865Y334298D01*
X357284Y335011D01*
Y335012D01*
X357366Y335166D01*
X357419Y335332D01*
X357444Y335504D01*
X357437Y335679D01*
X357401Y335849D01*
X357336Y336011D01*
X357243Y336158D01*
X357126Y336288D01*
X356989Y336395D01*
X356835Y336477D01*
X356669Y336530D01*
X356497Y336555D01*
X356322Y336548D01*
X356152Y336512D01*
X355990Y336447D01*
X355843Y336354D01*
X355713Y336237D01*
X355606Y336100D01*
X355096Y335232D01*
X355000Y335029D01*
Y350000D01*
G37*
G36*
X351000Y137462D02*X351361Y136947D01*
X351947Y136361D01*
X352625Y135886D01*
X353375Y135536D01*
X354175Y135322D01*
X355000Y135250D01*
Y134750D01*
X353250D01*
X353120Y134739D01*
X352993Y134705D01*
X352875Y134650D01*
X352768Y134575D01*
X352675Y134482D01*
X352600Y134375D01*
X352545Y134257D01*
X352511Y134130D01*
X352500Y134000D01*
X352511Y133870D01*
X352545Y133743D01*
X352600Y133625D01*
X352675Y133518D01*
X352768Y133425D01*
X352875Y133350D01*
X352993Y133295D01*
X353120Y133261D01*
X353250Y133250D01*
X355000D01*
Y126750D01*
X353250D01*
X353120Y126739D01*
X352993Y126705D01*
X352875Y126650D01*
X352768Y126575D01*
X352675Y126482D01*
X352600Y126375D01*
X352545Y126257D01*
X352511Y126130D01*
X352500Y126000D01*
X352511Y125870D01*
X352545Y125743D01*
X352600Y125625D01*
X352675Y125518D01*
X352768Y125425D01*
X352875Y125350D01*
X352993Y125295D01*
X353120Y125261D01*
X353250Y125250D01*
X355000D01*
Y117200D01*
X353590D01*
X353330Y117177D01*
X353077Y117110D01*
X352840Y116999D01*
X352626Y116849D01*
X352441Y116664D01*
X352291Y116450D01*
X352180Y116213D01*
X352113Y115960D01*
X352090Y115700D01*
Y107200D01*
X352113Y106940D01*
X352180Y106687D01*
X352291Y106450D01*
X352441Y106236D01*
X352626Y106051D01*
X352840Y105901D01*
X353077Y105790D01*
X353330Y105723D01*
X353590Y105700D01*
X355000D01*
Y30029D01*
X354666Y29321D01*
X354320Y28376D01*
X354060Y27403D01*
X353889Y26410D01*
X353807Y25406D01*
X353816Y24399D01*
X353915Y23397D01*
X354104Y22408D01*
X354381Y21440D01*
X354743Y20500D01*
X355000Y19980D01*
Y0D01*
X351000D01*
Y50627D01*
X351539Y50771D01*
X352250Y51103D01*
X352893Y51553D01*
X353447Y52107D01*
X353897Y52750D01*
X354229Y53461D01*
X354432Y54219D01*
X354500Y55000D01*
X354432Y55781D01*
X354229Y56539D01*
X353897Y57250D01*
X353447Y57893D01*
X352893Y58447D01*
X352250Y58897D01*
X351539Y59229D01*
X351000Y59373D01*
Y80500D01*
X353000D01*
X353260Y80523D01*
X353513Y80590D01*
X353750Y80701D01*
X353964Y80851D01*
X354149Y81036D01*
X354299Y81250D01*
X354410Y81487D01*
X354477Y81740D01*
X354500Y82000D01*
Y88000D01*
X354477Y88260D01*
X354410Y88513D01*
X354299Y88750D01*
X354149Y88964D01*
X353964Y89149D01*
X353750Y89299D01*
X353513Y89410D01*
X353260Y89477D01*
X353000Y89500D01*
X351000D01*
Y127500D01*
X351130Y127511D01*
X351257Y127545D01*
X351375Y127600D01*
X351482Y127675D01*
X351575Y127768D01*
X351650Y127875D01*
X351705Y127993D01*
X351739Y128120D01*
X351750Y128250D01*
Y131750D01*
X351739Y131880D01*
X351705Y132007D01*
X351650Y132125D01*
X351575Y132232D01*
X351482Y132325D01*
X351375Y132400D01*
X351257Y132455D01*
X351130Y132489D01*
X351000Y132500D01*
Y137462D01*
G37*
G36*
Y350000D02*X355000D01*
Y335029D01*
X354666Y334321D01*
X354320Y333376D01*
X354060Y332403D01*
X353889Y331410D01*
X353807Y330406D01*
X353816Y329399D01*
X353915Y328397D01*
X354104Y327408D01*
X354381Y326440D01*
X354743Y325500D01*
X355000Y324980D01*
Y252282D01*
X354855Y251945D01*
X354697Y251461D01*
X354585Y250965D01*
X354519Y250461D01*
X354500Y249953D01*
X354528Y249445D01*
X354602Y248942D01*
X354723Y248448D01*
X354889Y247967D01*
X355000Y247722D01*
Y177282D01*
X354855Y176945D01*
X354697Y176461D01*
X354585Y175965D01*
X354519Y175461D01*
X354500Y174953D01*
X354528Y174445D01*
X354602Y173942D01*
X354723Y173448D01*
X354889Y172967D01*
X355000Y172722D01*
Y144750D01*
X354175Y144678D01*
X353375Y144464D01*
X352625Y144114D01*
X351947Y143639D01*
X351361Y143053D01*
X351000Y142538D01*
Y350000D01*
G37*
G36*
Y59373D02*X350781Y59432D01*
X350000Y59500D01*
Y80500D01*
X351000D01*
Y59373D01*
G37*
G36*
Y0D02*X350000D01*
Y50500D01*
X350781Y50568D01*
X351000Y50627D01*
Y0D01*
G37*
G36*
X350000Y350000D02*X351000D01*
Y142538D01*
X350886Y142375D01*
X350536Y141625D01*
X350322Y140825D01*
X350250Y140000D01*
X350322Y139175D01*
X350536Y138375D01*
X350886Y137625D01*
X351000Y137462D01*
Y132500D01*
X350870Y132489D01*
X350743Y132455D01*
X350625Y132400D01*
X350518Y132325D01*
X350425Y132232D01*
X350350Y132125D01*
X350295Y132007D01*
X350261Y131880D01*
X350250Y131750D01*
Y128250D01*
X350261Y128120D01*
X350295Y127993D01*
X350350Y127875D01*
X350425Y127768D01*
X350518Y127675D01*
X350625Y127600D01*
X350743Y127545D01*
X350870Y127511D01*
X351000Y127500D01*
Y89500D01*
X350000D01*
Y350000D01*
G37*
G36*
X344250D02*X350000D01*
Y89500D01*
X347000D01*
X346740Y89477D01*
X346487Y89410D01*
X346250Y89299D01*
X346036Y89149D01*
X345851Y88964D01*
X345701Y88750D01*
X345590Y88513D01*
X345523Y88260D01*
X345500Y88000D01*
Y82000D01*
X345523Y81740D01*
X345590Y81487D01*
X345701Y81250D01*
X345851Y81036D01*
X346036Y80851D01*
X346250Y80701D01*
X346487Y80590D01*
X346740Y80523D01*
X347000Y80500D01*
X350000D01*
Y59500D01*
X349219Y59432D01*
X348461Y59229D01*
X347750Y58897D01*
X347107Y58447D01*
X346553Y57893D01*
X346103Y57250D01*
X345771Y56539D01*
X345568Y55781D01*
X345500Y55000D01*
X345568Y54219D01*
X345771Y53461D01*
X346103Y52750D01*
X346553Y52107D01*
X347107Y51553D01*
X347750Y51103D01*
X348461Y50771D01*
X349219Y50568D01*
X350000Y50500D01*
Y0D01*
X344250D01*
Y53539D01*
X344432Y54219D01*
X344500Y55000D01*
X344432Y55781D01*
X344250Y56461D01*
Y83539D01*
X344314Y83722D01*
X344417Y84142D01*
X344479Y84569D01*
X344500Y85000D01*
X344479Y85432D01*
X344417Y85859D01*
X344314Y86279D01*
X344250Y86462D01*
Y185201D01*
X344464Y185351D01*
X344649Y185536D01*
X344799Y185750D01*
X344910Y185987D01*
X344977Y186240D01*
X345000Y186500D01*
Y193500D01*
X344977Y193760D01*
X344910Y194013D01*
X344799Y194250D01*
X344649Y194464D01*
X344464Y194649D01*
X344250Y194799D01*
Y232621D01*
X344323Y232665D01*
X344421Y232751D01*
X344504Y232853D01*
X344567Y232967D01*
X344740Y233409D01*
X344869Y233866D01*
X344955Y234333D01*
X344996Y234807D01*
X344992Y235282D01*
X344942Y235754D01*
X344849Y236220D01*
X344711Y236674D01*
X344531Y237114D01*
X344530D01*
X344465Y237227D01*
X344381Y237327D01*
X344281Y237411D01*
X344250Y237429D01*
Y262386D01*
X344330Y262500D01*
X344698Y263290D01*
X344924Y264132D01*
X345000Y265000D01*
X344924Y265868D01*
X344698Y266710D01*
X344330Y267500D01*
X344250Y267614D01*
Y307250D01*
X344380Y307261D01*
X344507Y307295D01*
X344625Y307350D01*
X344732Y307425D01*
X344825Y307518D01*
X344900Y307625D01*
X344955Y307743D01*
X344989Y307870D01*
X345000Y308000D01*
Y312000D01*
X344989Y312130D01*
X344955Y312257D01*
X344900Y312375D01*
X344825Y312482D01*
X344732Y312575D01*
X344625Y312650D01*
X344507Y312705D01*
X344380Y312739D01*
X344250Y312750D01*
Y350000D01*
G37*
G36*
Y194799D02*X344013Y194910D01*
X343760Y194977D01*
X343500Y195000D01*
X340000D01*
Y230006D01*
X340281Y230008D01*
X340753Y230058D01*
X341219Y230151D01*
X341673Y230289D01*
X342113Y230469D01*
Y230470D01*
X342226Y230535D01*
X342326Y230619D01*
X342410Y230719D01*
X342475Y230833D01*
X342520Y230955D01*
X342543Y231084D01*
X342542Y231215D01*
X342520Y231343D01*
X342475Y231466D01*
X342410Y231579D01*
X342326Y231679D01*
X342226Y231763D01*
X342112Y231828D01*
X341990Y231873D01*
X341861Y231896D01*
X341730Y231895D01*
X341602Y231873D01*
X341479Y231828D01*
X341171Y231702D01*
X340853Y231606D01*
X340527Y231540D01*
X340196Y231506D01*
X340000Y231504D01*
Y238497D01*
X340135Y238498D01*
X340466Y238469D01*
X340793Y238409D01*
X341113Y238319D01*
X341423Y238198D01*
X341547Y238155D01*
X341676Y238135D01*
X341806Y238137D01*
X341935Y238162D01*
X342057Y238209D01*
X342169Y238276D01*
X342267Y238362D01*
X342350Y238464D01*
X342413Y238578D01*
X342456Y238702D01*
X342476Y238831D01*
X342474Y238961D01*
X342449Y239090D01*
X342402Y239212D01*
X342335Y239324D01*
X342249Y239422D01*
X342147Y239505D01*
X342033Y239568D01*
X341591Y239741D01*
X341134Y239870D01*
X340667Y239956D01*
X340193Y239997D01*
X340000Y239995D01*
Y260000D01*
X340868Y260076D01*
X341710Y260302D01*
X342500Y260670D01*
X343214Y261170D01*
X343830Y261786D01*
X344250Y262386D01*
Y237429D01*
X344167Y237476D01*
X344045Y237521D01*
X343916Y237544D01*
X343785Y237543D01*
X343657Y237521D01*
X343534Y237476D01*
X343421Y237411D01*
X343321Y237327D01*
X343237Y237227D01*
X343172Y237113D01*
X343127Y236991D01*
X343104Y236862D01*
X343105Y236731D01*
X343127Y236603D01*
X343172Y236480D01*
X343298Y236172D01*
X343394Y235854D01*
X343460Y235528D01*
X343494Y235197D01*
X343497Y234865D01*
X343468Y234534D01*
X343408Y234207D01*
X343318Y233887D01*
X343197Y233577D01*
X343154Y233453D01*
X343134Y233324D01*
X343136Y233194D01*
X343161Y233065D01*
X343208Y232943D01*
X343275Y232831D01*
X343361Y232733D01*
X343463Y232650D01*
X343577Y232587D01*
X343701Y232544D01*
X343830Y232524D01*
X343960Y232526D01*
X344089Y232551D01*
X344211Y232598D01*
X344250Y232621D01*
Y194799D01*
G37*
G36*
Y56461D02*X344229Y56539D01*
X343897Y57250D01*
X343447Y57893D01*
X342893Y58447D01*
X342250Y58897D01*
X341539Y59229D01*
X340781Y59432D01*
X340000Y59500D01*
Y80500D01*
X340431Y80521D01*
X340858Y80583D01*
X341278Y80686D01*
X341685Y80828D01*
Y80829D01*
X341801Y80888D01*
X341906Y80967D01*
X341995Y81063D01*
X342066Y81172D01*
X342117Y81293D01*
X342146Y81420D01*
X342153Y81550D01*
X342137Y81680D01*
X342099Y81805D01*
X342040Y81921D01*
X341961Y82026D01*
X341865Y82115D01*
X341756Y82186D01*
X341635Y82237D01*
X341508Y82266D01*
X341378Y82273D01*
X341248Y82257D01*
X341123Y82219D01*
X340852Y82124D01*
X340572Y82056D01*
X340287Y82014D01*
X340000Y82000D01*
Y88000D01*
X340287Y87987D01*
X340572Y87945D01*
X340852Y87877D01*
X341123Y87782D01*
Y87781D01*
X341248Y87743D01*
X341378Y87727D01*
X341509Y87734D01*
X341636Y87763D01*
X341757Y87814D01*
X341866Y87886D01*
X341962Y87975D01*
X342041Y88079D01*
X342100Y88196D01*
X342138Y88321D01*
X342154Y88451D01*
X342147Y88582D01*
X342118Y88709D01*
X342067Y88830D01*
X341995Y88939D01*
X341906Y89035D01*
X341802Y89114D01*
X341685Y89173D01*
X341278Y89315D01*
X340858Y89418D01*
X340431Y89480D01*
X340000Y89500D01*
Y185000D01*
X343500D01*
X343760Y185023D01*
X344013Y185090D01*
X344250Y185201D01*
Y86462D01*
X344172Y86686D01*
X344171D01*
X344112Y86802D01*
X344033Y86907D01*
X343937Y86996D01*
X343828Y87067D01*
X343707Y87118D01*
X343580Y87147D01*
X343450Y87154D01*
X343320Y87138D01*
X343195Y87100D01*
X343079Y87041D01*
X342974Y86962D01*
X342885Y86866D01*
X342814Y86757D01*
X342763Y86636D01*
X342734Y86509D01*
X342727Y86379D01*
X342743Y86249D01*
X342781Y86124D01*
X342876Y85853D01*
X342944Y85573D01*
X342986Y85288D01*
X343000Y85000D01*
X342986Y84713D01*
X342944Y84428D01*
X342876Y84148D01*
X342781Y83877D01*
X342780D01*
X342742Y83752D01*
X342726Y83622D01*
X342733Y83491D01*
X342762Y83364D01*
X342813Y83243D01*
X342885Y83134D01*
X342974Y83038D01*
X343078Y82959D01*
X343195Y82900D01*
X343320Y82862D01*
X343450Y82846D01*
X343581Y82853D01*
X343708Y82882D01*
X343829Y82933D01*
X343938Y83005D01*
X344034Y83094D01*
X344113Y83198D01*
X344172Y83315D01*
X344250Y83539D01*
Y56461D01*
G37*
G36*
Y0D02*X340000D01*
Y50500D01*
X340781Y50568D01*
X341539Y50771D01*
X342250Y51103D01*
X342893Y51553D01*
X343447Y52107D01*
X343897Y52750D01*
X344229Y53461D01*
X344250Y53539D01*
Y0D01*
G37*
G36*
X340000Y350000D02*X344250D01*
Y312750D01*
X344120Y312739D01*
X343993Y312705D01*
X343875Y312650D01*
X343768Y312575D01*
X343675Y312482D01*
X343600Y312375D01*
X343545Y312257D01*
X343511Y312130D01*
X343500Y312000D01*
Y308000D01*
X343511Y307870D01*
X343545Y307743D01*
X343600Y307625D01*
X343675Y307518D01*
X343768Y307425D01*
X343875Y307350D01*
X343993Y307295D01*
X344120Y307261D01*
X344250Y307250D01*
Y267614D01*
X343830Y268214D01*
X343214Y268830D01*
X342500Y269330D01*
X341710Y269698D01*
X340868Y269924D01*
X340000Y270000D01*
Y305000D01*
X342000D01*
X342130Y305011D01*
X342257Y305045D01*
X342375Y305100D01*
X342482Y305175D01*
X342575Y305268D01*
X342650Y305375D01*
X342705Y305493D01*
X342739Y305620D01*
X342750Y305750D01*
X342739Y305880D01*
X342705Y306007D01*
X342650Y306125D01*
X342575Y306232D01*
X342482Y306325D01*
X342375Y306400D01*
X342257Y306455D01*
X342130Y306489D01*
X342000Y306500D01*
X340000D01*
Y313500D01*
X342000D01*
X342130Y313511D01*
X342257Y313545D01*
X342375Y313600D01*
X342482Y313675D01*
X342575Y313768D01*
X342650Y313875D01*
X342705Y313993D01*
X342739Y314120D01*
X342750Y314250D01*
X342739Y314380D01*
X342705Y314507D01*
X342650Y314625D01*
X342575Y314732D01*
X342482Y314825D01*
X342375Y314900D01*
X342257Y314955D01*
X342130Y314989D01*
X342000Y315000D01*
X340000D01*
Y350000D01*
G37*
G36*
X335750Y53539D02*X335771Y53461D01*
X336103Y52750D01*
X336553Y52107D01*
X337107Y51553D01*
X337750Y51103D01*
X338461Y50771D01*
X339219Y50568D01*
X340000Y50500D01*
Y0D01*
X335750D01*
Y53539D01*
G37*
G36*
Y185201D02*X335987Y185090D01*
X336240Y185023D01*
X336500Y185000D01*
X340000D01*
Y89500D01*
X339568Y89480D01*
X339141Y89418D01*
X338721Y89315D01*
X338314Y89173D01*
Y89172D01*
X338198Y89113D01*
X338093Y89034D01*
X338004Y88938D01*
X337933Y88829D01*
X337882Y88708D01*
X337853Y88581D01*
X337846Y88451D01*
X337862Y88321D01*
X337900Y88196D01*
X337959Y88080D01*
X338038Y87975D01*
X338134Y87886D01*
X338243Y87815D01*
X338364Y87764D01*
X338491Y87735D01*
X338621Y87728D01*
X338751Y87744D01*
X338876Y87782D01*
X339147Y87877D01*
X339427Y87945D01*
X339712Y87987D01*
X340000Y88000D01*
Y82000D01*
X339712Y82014D01*
X339427Y82056D01*
X339147Y82124D01*
X338876Y82219D01*
Y82220D01*
X338751Y82258D01*
X338621Y82274D01*
X338490Y82267D01*
X338363Y82238D01*
X338242Y82187D01*
X338133Y82115D01*
X338037Y82026D01*
X337958Y81922D01*
X337899Y81805D01*
X337861Y81680D01*
X337845Y81550D01*
X337852Y81419D01*
X337881Y81292D01*
X337932Y81171D01*
X338004Y81062D01*
X338093Y80966D01*
X338197Y80887D01*
X338314Y80828D01*
X338721Y80686D01*
X339141Y80583D01*
X339568Y80521D01*
X340000Y80500D01*
Y59500D01*
X339219Y59432D01*
X338461Y59229D01*
X337750Y58897D01*
X337107Y58447D01*
X336553Y57893D01*
X336103Y57250D01*
X335771Y56539D01*
X335750Y56461D01*
Y83536D01*
X335827Y83315D01*
X335828D01*
X335887Y83199D01*
X335966Y83094D01*
X336062Y83005D01*
X336171Y82934D01*
X336292Y82883D01*
X336419Y82854D01*
X336549Y82847D01*
X336679Y82863D01*
X336804Y82901D01*
X336920Y82960D01*
X337025Y83039D01*
X337114Y83135D01*
X337185Y83244D01*
X337236Y83365D01*
X337265Y83492D01*
X337272Y83622D01*
X337256Y83752D01*
X337218Y83877D01*
X337123Y84148D01*
X337055Y84428D01*
X337013Y84713D01*
X337000Y85000D01*
X337013Y85288D01*
X337055Y85573D01*
X337123Y85853D01*
X337218Y86124D01*
X337219D01*
X337257Y86249D01*
X337273Y86379D01*
X337266Y86510D01*
X337237Y86637D01*
X337186Y86758D01*
X337114Y86867D01*
X337025Y86963D01*
X336921Y87042D01*
X336804Y87101D01*
X336679Y87139D01*
X336549Y87155D01*
X336418Y87148D01*
X336291Y87119D01*
X336170Y87068D01*
X336061Y86996D01*
X335965Y86907D01*
X335886Y86803D01*
X335827Y86686D01*
X335750Y86465D01*
Y185201D01*
G37*
G36*
Y262386D02*X336170Y261786D01*
X336786Y261170D01*
X337500Y260670D01*
X338290Y260302D01*
X339132Y260076D01*
X340000Y260000D01*
Y239995D01*
X339718Y239993D01*
X339246Y239943D01*
X338780Y239850D01*
X338326Y239712D01*
X337886Y239532D01*
Y239531D01*
X337773Y239466D01*
X337673Y239382D01*
X337589Y239282D01*
X337524Y239168D01*
X337479Y239046D01*
X337456Y238917D01*
X337457Y238786D01*
X337479Y238658D01*
X337524Y238535D01*
X337589Y238422D01*
X337673Y238322D01*
X337773Y238238D01*
X337887Y238173D01*
X338009Y238128D01*
X338138Y238105D01*
X338269Y238106D01*
X338397Y238128D01*
X338520Y238173D01*
X338828Y238299D01*
X339146Y238395D01*
X339472Y238461D01*
X339803Y238495D01*
X340000Y238497D01*
Y231504D01*
X339864Y231503D01*
X339533Y231532D01*
X339206Y231592D01*
X338886Y231682D01*
X338576Y231803D01*
X338452Y231846D01*
X338323Y231866D01*
X338193Y231864D01*
X338064Y231839D01*
X337942Y231792D01*
X337830Y231725D01*
X337732Y231639D01*
X337649Y231537D01*
X337586Y231423D01*
X337543Y231299D01*
X337523Y231170D01*
X337525Y231040D01*
X337550Y230911D01*
X337597Y230789D01*
X337664Y230677D01*
X337750Y230579D01*
X337852Y230496D01*
X337966Y230433D01*
X338408Y230260D01*
X338865Y230131D01*
X339332Y230045D01*
X339806Y230004D01*
X340000Y230006D01*
Y195000D01*
X336500D01*
X336240Y194977D01*
X335987Y194910D01*
X335750Y194799D01*
Y232572D01*
X335832Y232525D01*
X335954Y232480D01*
X336083Y232457D01*
X336214Y232458D01*
X336342Y232480D01*
X336465Y232525D01*
X336578Y232590D01*
X336678Y232674D01*
X336762Y232774D01*
X336827Y232888D01*
X336872Y233010D01*
X336895Y233139D01*
X336894Y233270D01*
X336872Y233398D01*
X336827Y233521D01*
X336701Y233829D01*
X336605Y234147D01*
X336539Y234473D01*
X336505Y234804D01*
X336502Y235136D01*
X336531Y235467D01*
X336591Y235794D01*
X336681Y236114D01*
X336802Y236424D01*
X336845Y236548D01*
X336865Y236677D01*
X336863Y236807D01*
X336838Y236936D01*
X336791Y237058D01*
X336724Y237170D01*
X336638Y237268D01*
X336536Y237351D01*
X336422Y237414D01*
X336298Y237457D01*
X336169Y237477D01*
X336039Y237475D01*
X335910Y237450D01*
X335788Y237403D01*
X335750Y237380D01*
Y262386D01*
G37*
G36*
Y350000D02*X340000D01*
Y315000D01*
X338000D01*
X337870Y314989D01*
X337743Y314955D01*
X337625Y314900D01*
X337518Y314825D01*
X337425Y314732D01*
X337350Y314625D01*
X337295Y314507D01*
X337261Y314380D01*
X337250Y314250D01*
X337261Y314120D01*
X337295Y313993D01*
X337350Y313875D01*
X337425Y313768D01*
X337518Y313675D01*
X337625Y313600D01*
X337743Y313545D01*
X337870Y313511D01*
X338000Y313500D01*
X340000D01*
Y306500D01*
X338000D01*
X337870Y306489D01*
X337743Y306455D01*
X337625Y306400D01*
X337518Y306325D01*
X337425Y306232D01*
X337350Y306125D01*
X337295Y306007D01*
X337261Y305880D01*
X337250Y305750D01*
X337261Y305620D01*
X337295Y305493D01*
X337350Y305375D01*
X337425Y305268D01*
X337518Y305175D01*
X337625Y305100D01*
X337743Y305045D01*
X337870Y305011D01*
X338000Y305000D01*
X340000D01*
Y270000D01*
X339132Y269924D01*
X338290Y269698D01*
X337500Y269330D01*
X336786Y268830D01*
X336170Y268214D01*
X335750Y267614D01*
Y307250D01*
X335880Y307261D01*
X336007Y307295D01*
X336125Y307350D01*
X336232Y307425D01*
X336325Y307518D01*
X336400Y307625D01*
X336455Y307743D01*
X336489Y307870D01*
X336500Y308000D01*
Y312000D01*
X336489Y312130D01*
X336455Y312257D01*
X336400Y312375D01*
X336325Y312482D01*
X336232Y312575D01*
X336125Y312650D01*
X336007Y312705D01*
X335880Y312739D01*
X335750Y312750D01*
Y350000D01*
G37*
G36*
X330000D02*X335750D01*
Y312750D01*
X335620Y312739D01*
X335493Y312705D01*
X335375Y312650D01*
X335268Y312575D01*
X335175Y312482D01*
X335100Y312375D01*
X335045Y312257D01*
X335011Y312130D01*
X335000Y312000D01*
Y308000D01*
X335011Y307870D01*
X335045Y307743D01*
X335100Y307625D01*
X335175Y307518D01*
X335268Y307425D01*
X335375Y307350D01*
X335493Y307295D01*
X335620Y307261D01*
X335750Y307250D01*
Y267614D01*
X335670Y267500D01*
X335302Y266710D01*
X335076Y265868D01*
X335000Y265000D01*
X335076Y264132D01*
X335302Y263290D01*
X335670Y262500D01*
X335750Y262386D01*
Y237380D01*
X335676Y237336D01*
X335578Y237250D01*
X335495Y237148D01*
X335432Y237034D01*
X335259Y236592D01*
X335130Y236135D01*
X335044Y235668D01*
X335003Y235194D01*
X335007Y234719D01*
X335057Y234247D01*
X335150Y233781D01*
X335288Y233327D01*
X335468Y232887D01*
X335469D01*
X335534Y232774D01*
X335618Y232674D01*
X335718Y232590D01*
X335750Y232572D01*
Y194799D01*
X335536Y194649D01*
X335351Y194464D01*
X335201Y194250D01*
X335090Y194013D01*
X335023Y193760D01*
X335000Y193500D01*
Y186500D01*
X335023Y186240D01*
X335090Y185987D01*
X335201Y185750D01*
X335351Y185536D01*
X335536Y185351D01*
X335750Y185201D01*
Y86465D01*
X335685Y86279D01*
X335582Y85859D01*
X335520Y85432D01*
X335500Y85000D01*
X335520Y84569D01*
X335582Y84142D01*
X335685Y83722D01*
X335750Y83536D01*
Y56461D01*
X335568Y55781D01*
X335500Y55000D01*
X335568Y54219D01*
X335750Y53539D01*
Y0D01*
X330000D01*
Y50500D01*
X330781Y50568D01*
X331539Y50771D01*
X332250Y51103D01*
X332893Y51553D01*
X333447Y52107D01*
X333897Y52750D01*
X334229Y53461D01*
X334432Y54219D01*
X334500Y55000D01*
X334432Y55781D01*
X334229Y56539D01*
X333897Y57250D01*
X333447Y57893D01*
X332893Y58447D01*
X332250Y58897D01*
X331539Y59229D01*
X330781Y59432D01*
X330000Y59500D01*
Y80500D01*
X330781Y80568D01*
X331539Y80771D01*
X332250Y81103D01*
X332893Y81553D01*
X333447Y82107D01*
X333897Y82750D01*
X334229Y83461D01*
X334432Y84219D01*
X334500Y85000D01*
X334432Y85781D01*
X334229Y86539D01*
X333897Y87250D01*
X333447Y87893D01*
X332893Y88447D01*
X332250Y88897D01*
X331539Y89229D01*
X330781Y89432D01*
X330000Y89500D01*
Y350000D01*
G37*
G36*
X320720D02*X330000D01*
Y89500D01*
X329219Y89432D01*
X328461Y89229D01*
X327750Y88897D01*
X327107Y88447D01*
X326553Y87893D01*
X326103Y87250D01*
X325771Y86539D01*
X325568Y85781D01*
X325500Y85000D01*
X325568Y84219D01*
X325771Y83461D01*
X326103Y82750D01*
X326553Y82107D01*
X327107Y81553D01*
X327750Y81103D01*
X328461Y80771D01*
X329219Y80568D01*
X330000Y80500D01*
Y59500D01*
X329219Y59432D01*
X328461Y59229D01*
X327750Y58897D01*
X327107Y58447D01*
X326553Y57893D01*
X326103Y57250D01*
X325771Y56539D01*
X325568Y55781D01*
X325500Y55000D01*
X325568Y54219D01*
X325771Y53461D01*
X326103Y52750D01*
X326553Y52107D01*
X327107Y51553D01*
X327750Y51103D01*
X328461Y50771D01*
X329219Y50568D01*
X330000Y50500D01*
Y0D01*
X320720D01*
Y135770D01*
X324970D01*
X325230Y135793D01*
X325483Y135860D01*
X325720Y135971D01*
X325934Y136121D01*
X326119Y136306D01*
X326269Y136520D01*
X326380Y136757D01*
X326447Y137010D01*
X326470Y137270D01*
Y145770D01*
X326447Y146030D01*
X326380Y146283D01*
X326269Y146520D01*
X326119Y146734D01*
X325934Y146919D01*
X325720Y147069D01*
X325483Y147180D01*
X325230Y147247D01*
X324970Y147270D01*
X320720D01*
Y350000D01*
G37*
G36*
X305000D02*X320720D01*
Y147270D01*
X316470D01*
X316210Y147247D01*
X315957Y147180D01*
X315720Y147069D01*
X315506Y146919D01*
X315321Y146734D01*
X315171Y146520D01*
X315060Y146283D01*
X314993Y146030D01*
X314970Y145770D01*
Y137270D01*
X314993Y137010D01*
X315060Y136757D01*
X315171Y136520D01*
X315321Y136306D01*
X315506Y136121D01*
X315720Y135971D01*
X315957Y135860D01*
X316210Y135793D01*
X316470Y135770D01*
X320720D01*
Y0D01*
X305000D01*
Y55000D01*
X308500D01*
X308760Y55023D01*
X309013Y55090D01*
X309250Y55201D01*
X309464Y55351D01*
X309649Y55536D01*
X309799Y55750D01*
X309910Y55987D01*
X309977Y56240D01*
X310000Y56500D01*
Y63500D01*
X309977Y63760D01*
X309910Y64013D01*
X309799Y64250D01*
X309649Y64464D01*
X309464Y64649D01*
X309250Y64799D01*
X309013Y64910D01*
X308760Y64977D01*
X308500Y65000D01*
X305000D01*
X305868Y65076D01*
X306710Y65302D01*
X307500Y65670D01*
X308214Y66170D01*
X308830Y66786D01*
X309330Y67500D01*
X309698Y68290D01*
X309924Y69132D01*
X310000Y70000D01*
X309924Y70868D01*
X309698Y71710D01*
X309330Y72500D01*
X308830Y73214D01*
X308214Y73830D01*
X307500Y74330D01*
X306710Y74698D01*
X305868Y74924D01*
X305000Y75000D01*
X305868Y75076D01*
X306710Y75302D01*
X307500Y75670D01*
X308214Y76170D01*
X308830Y76786D01*
X309330Y77500D01*
X309698Y78290D01*
X309924Y79132D01*
X310000Y80000D01*
X309924Y80868D01*
X309698Y81710D01*
X309330Y82500D01*
X308830Y83214D01*
X308214Y83830D01*
X307500Y84330D01*
X306710Y84698D01*
X305868Y84924D01*
X305000Y85000D01*
Y350000D01*
G37*
G36*
X298483D02*X305000D01*
Y85000D01*
X304132Y84924D01*
X303290Y84698D01*
X302500Y84330D01*
X301786Y83830D01*
X301170Y83214D01*
X300670Y82500D01*
X300302Y81710D01*
X300076Y80868D01*
X300000Y80000D01*
X300076Y79132D01*
X300302Y78290D01*
X300670Y77500D01*
X301170Y76786D01*
X301786Y76170D01*
X302500Y75670D01*
X303290Y75302D01*
X304132Y75076D01*
X305000Y75000D01*
X304132Y74924D01*
X303290Y74698D01*
X302500Y74330D01*
X301786Y73830D01*
X301170Y73214D01*
X300670Y72500D01*
X300302Y71710D01*
X300076Y70868D01*
X300000Y70000D01*
X300076Y69132D01*
X300302Y68290D01*
X300670Y67500D01*
X301170Y66786D01*
X301786Y66170D01*
X302500Y65670D01*
X303290Y65302D01*
X304132Y65076D01*
X305000Y65000D01*
X301500D01*
X301240Y64977D01*
X300987Y64910D01*
X300750Y64799D01*
X300536Y64649D01*
X300351Y64464D01*
X300201Y64250D01*
X300090Y64013D01*
X300023Y63760D01*
X300000Y63500D01*
Y56500D01*
X300023Y56240D01*
X300090Y55987D01*
X300201Y55750D01*
X300351Y55536D01*
X300536Y55351D01*
X300750Y55201D01*
X300987Y55090D01*
X301240Y55023D01*
X301500Y55000D01*
X305000D01*
Y0D01*
X298483D01*
Y178499D01*
X298613Y178510D01*
X298740Y178544D01*
X298858Y178599D01*
X298965Y178674D01*
X299058Y178767D01*
X299133Y178874D01*
X299188Y178992D01*
X299222Y179119D01*
X299233Y179249D01*
Y183749D01*
X299222Y183879D01*
X299188Y184006D01*
X299133Y184124D01*
X299058Y184231D01*
X298965Y184324D01*
X298858Y184399D01*
X298740Y184454D01*
X298613Y184488D01*
X298483Y184499D01*
Y218807D01*
X298530Y218874D01*
X298916Y219703D01*
X299153Y220587D01*
X299233Y221499D01*
X299153Y222411D01*
X298916Y223295D01*
X298530Y224124D01*
X298483Y224191D01*
Y276269D01*
X298487Y276268D01*
X298617D01*
X298746Y276290D01*
X298869Y276335D01*
X298982Y276400D01*
X299083Y276485D01*
X299167Y276585D01*
X299232Y276698D01*
X299410Y277130D01*
X299549Y277575D01*
X299648Y278032D01*
X299707Y278495D01*
X299723Y278962D01*
X299698Y279429D01*
X299632Y279891D01*
X299525Y280346D01*
X299378Y280789D01*
X299192Y281218D01*
X299125Y281330D01*
X299039Y281429D01*
X298937Y281511D01*
X298823Y281574D01*
X298699Y281617D01*
X298570Y281637D01*
X298483Y281636D01*
Y313689D01*
X298484D01*
X298737Y313756D01*
X298974Y313867D01*
X299188Y314017D01*
X299373Y314202D01*
X299523Y314416D01*
X299634Y314653D01*
X299701Y314906D01*
X299724Y315166D01*
Y322666D01*
X299701Y322926D01*
X299634Y323179D01*
X299523Y323416D01*
X299373Y323630D01*
X299188Y323815D01*
X298974Y323965D01*
X298737Y324076D01*
X298484Y324143D01*
X298483D01*
Y350000D01*
G37*
G36*
Y224191D02*X298005Y224874D01*
X297358Y225521D01*
X296608Y226046D01*
X295779Y226432D01*
X294895Y226669D01*
X294474Y226706D01*
Y273669D01*
X294519Y273667D01*
X294986Y273692D01*
X295448Y273758D01*
X295903Y273865D01*
X296346Y274012D01*
X296775Y274198D01*
X296887Y274265D01*
X296986Y274351D01*
X297068Y274453D01*
X297131Y274567D01*
X297174Y274691D01*
X297194Y274820D01*
X297192Y274951D01*
X297167Y275079D01*
X297120Y275201D01*
X297053Y275313D01*
X296967Y275412D01*
X296865Y275494D01*
X296751Y275557D01*
X296627Y275600D01*
X296498Y275620D01*
X296367Y275618D01*
X296239Y275593D01*
X296117Y275546D01*
X295811Y275413D01*
X295495Y275308D01*
X295170Y275232D01*
X294839Y275184D01*
X294506Y275167D01*
X294474Y275168D01*
Y282665D01*
X294774Y282654D01*
X295105Y282613D01*
X295431Y282542D01*
X295750Y282443D01*
X296058Y282315D01*
X296181Y282270D01*
X296310Y282248D01*
X296440D01*
X296569Y282270D01*
X296692Y282315D01*
X296805Y282380D01*
X296906Y282465D01*
X296990Y282565D01*
X297055Y282678D01*
X297100Y282801D01*
X297122Y282930D01*
Y283060D01*
X297100Y283189D01*
X297055Y283312D01*
X296990Y283425D01*
X296905Y283526D01*
X296805Y283610D01*
X296692Y283675D01*
X296260Y283853D01*
X295815Y283992D01*
X295358Y284091D01*
X294895Y284150D01*
X294474Y284164D01*
Y313666D01*
X298224D01*
X298483Y313689D01*
Y281636D01*
X298439Y281635D01*
X298311Y281610D01*
X298189Y281563D01*
X298077Y281496D01*
X297978Y281410D01*
X297896Y281308D01*
X297833Y281194D01*
X297790Y281070D01*
X297770Y280941D01*
X297772Y280810D01*
X297797Y280682D01*
X297844Y280560D01*
X297977Y280254D01*
X298082Y279938D01*
X298158Y279613D01*
X298206Y279282D01*
X298223Y278949D01*
X298211Y278616D01*
X298170Y278285D01*
X298099Y277959D01*
X298000Y277640D01*
X297872Y277332D01*
X297827Y277209D01*
X297805Y277080D01*
Y276950D01*
X297827Y276821D01*
X297872Y276698D01*
X297937Y276585D01*
X298022Y276484D01*
X298122Y276400D01*
X298235Y276335D01*
X298358Y276290D01*
X298483Y276269D01*
Y224191D01*
G37*
G36*
Y0D02*X294474D01*
Y176249D01*
X296233D01*
X296363Y176260D01*
X296490Y176294D01*
X296608Y176349D01*
X296715Y176424D01*
X296808Y176517D01*
X296883Y176624D01*
X296938Y176742D01*
X296972Y176869D01*
X296983Y176999D01*
X296972Y177129D01*
X296938Y177256D01*
X296883Y177374D01*
X296808Y177481D01*
X296715Y177574D01*
X296608Y177649D01*
X296490Y177704D01*
X296363Y177738D01*
X296233Y177749D01*
X294474D01*
Y185249D01*
X296233D01*
X296363Y185260D01*
X296490Y185294D01*
X296608Y185349D01*
X296715Y185424D01*
X296808Y185517D01*
X296883Y185624D01*
X296938Y185742D01*
X296972Y185869D01*
X296983Y185999D01*
X296972Y186129D01*
X296938Y186256D01*
X296883Y186374D01*
X296808Y186481D01*
X296715Y186574D01*
X296608Y186649D01*
X296490Y186704D01*
X296363Y186738D01*
X296233Y186749D01*
X294474D01*
Y216292D01*
X294895Y216329D01*
X295779Y216566D01*
X296608Y216952D01*
X297358Y217477D01*
X298005Y218124D01*
X298483Y218807D01*
Y184499D01*
X298353Y184488D01*
X298226Y184454D01*
X298108Y184399D01*
X298001Y184324D01*
X297908Y184231D01*
X297833Y184124D01*
X297778Y184006D01*
X297744Y183879D01*
X297733Y183749D01*
Y179249D01*
X297744Y179119D01*
X297778Y178992D01*
X297833Y178874D01*
X297908Y178767D01*
X298001Y178674D01*
X298108Y178599D01*
X298226Y178544D01*
X298353Y178510D01*
X298483Y178499D01*
Y0D01*
G37*
G36*
X294474Y350000D02*X298483D01*
Y324143D01*
X298224Y324166D01*
X294474D01*
Y350000D01*
G37*
G36*
X251299Y240514D02*X251615Y239375D01*
X251854Y238088D01*
X251979Y236786D01*
X251990Y235477D01*
X251888Y234172D01*
X251672Y232882D01*
X251344Y231615D01*
X251299Y231488D01*
Y240514D01*
G37*
G36*
X289483Y218807D02*X289961Y218124D01*
X290608Y217477D01*
X291358Y216952D01*
X292187Y216566D01*
X293071Y216329D01*
X293983Y216249D01*
X294474Y216292D01*
Y186749D01*
X291733D01*
X291603Y186738D01*
X291476Y186704D01*
X291358Y186649D01*
X291251Y186574D01*
X291158Y186481D01*
X291083Y186374D01*
X291028Y186256D01*
X290994Y186129D01*
X290983Y185999D01*
X290994Y185869D01*
X291028Y185742D01*
X291083Y185624D01*
X291158Y185517D01*
X291251Y185424D01*
X291358Y185349D01*
X291476Y185294D01*
X291603Y185260D01*
X291733Y185249D01*
X294474D01*
Y177749D01*
X291733D01*
X291603Y177738D01*
X291476Y177704D01*
X291358Y177649D01*
X291251Y177574D01*
X291158Y177481D01*
X291083Y177374D01*
X291028Y177256D01*
X290994Y177129D01*
X290983Y176999D01*
X290994Y176869D01*
X291028Y176742D01*
X291083Y176624D01*
X291158Y176517D01*
X291251Y176424D01*
X291358Y176349D01*
X291476Y176294D01*
X291603Y176260D01*
X291733Y176249D01*
X294474D01*
Y0D01*
X289483D01*
Y178499D01*
X289613Y178510D01*
X289740Y178544D01*
X289858Y178599D01*
X289965Y178674D01*
X290058Y178767D01*
X290133Y178874D01*
X290188Y178992D01*
X290222Y179119D01*
X290233Y179249D01*
Y183749D01*
X290222Y183879D01*
X290188Y184006D01*
X290133Y184124D01*
X290058Y184231D01*
X289965Y184324D01*
X289858Y184399D01*
X289740Y184454D01*
X289613Y184488D01*
X289483Y184499D01*
Y218807D01*
G37*
G36*
Y314333D02*X289575Y314202D01*
X289760Y314017D01*
X289974Y313867D01*
X290211Y313756D01*
X290464Y313689D01*
X290724Y313666D01*
X294474D01*
Y284164D01*
X294428Y284166D01*
X293961Y284141D01*
X293499Y284075D01*
X293044Y283968D01*
X292601Y283821D01*
X292172Y283635D01*
X292060Y283568D01*
X291961Y283482D01*
X291879Y283380D01*
X291816Y283266D01*
X291773Y283142D01*
X291753Y283013D01*
X291755Y282882D01*
X291780Y282754D01*
X291827Y282632D01*
X291894Y282520D01*
X291980Y282421D01*
X292082Y282339D01*
X292196Y282276D01*
X292320Y282233D01*
X292449Y282213D01*
X292580Y282215D01*
X292708Y282240D01*
X292830Y282287D01*
X293136Y282420D01*
X293452Y282525D01*
X293777Y282601D01*
X294108Y282649D01*
X294441Y282666D01*
X294474Y282665D01*
Y275168D01*
X294173Y275179D01*
X293842Y275220D01*
X293516Y275291D01*
X293197Y275390D01*
X292889Y275518D01*
X292766Y275563D01*
X292637Y275585D01*
X292507D01*
X292378Y275563D01*
X292255Y275518D01*
X292142Y275453D01*
X292041Y275368D01*
X291957Y275268D01*
X291892Y275155D01*
X291847Y275032D01*
X291825Y274903D01*
Y274773D01*
X291847Y274644D01*
X291892Y274521D01*
X291957Y274408D01*
X292042Y274307D01*
X292142Y274223D01*
X292255Y274158D01*
X292687Y273980D01*
X293132Y273841D01*
X293589Y273742D01*
X294052Y273683D01*
X294474Y273669D01*
Y226706D01*
X293983Y226749D01*
X293071Y226669D01*
X292187Y226432D01*
X291358Y226046D01*
X290608Y225521D01*
X289961Y224874D01*
X289483Y224191D01*
Y277303D01*
X289569Y277044D01*
X289755Y276615D01*
X289822Y276503D01*
X289908Y276404D01*
X290010Y276322D01*
X290124Y276259D01*
X290248Y276216D01*
X290377Y276196D01*
X290508Y276198D01*
X290636Y276223D01*
X290758Y276270D01*
X290870Y276337D01*
X290969Y276423D01*
X291051Y276525D01*
X291114Y276639D01*
X291157Y276763D01*
X291177Y276892D01*
X291175Y277023D01*
X291150Y277151D01*
X291103Y277273D01*
X290970Y277579D01*
X290865Y277895D01*
X290789Y278220D01*
X290741Y278551D01*
X290724Y278884D01*
X290736Y279217D01*
X290777Y279548D01*
X290848Y279874D01*
X290947Y280193D01*
X291075Y280501D01*
X291120Y280624D01*
X291142Y280753D01*
Y280883D01*
X291120Y281012D01*
X291075Y281135D01*
X291010Y281248D01*
X290925Y281349D01*
X290825Y281433D01*
X290712Y281498D01*
X290589Y281543D01*
X290460Y281565D01*
X290330D01*
X290201Y281543D01*
X290078Y281498D01*
X289965Y281433D01*
X289864Y281348D01*
X289780Y281248D01*
X289715Y281135D01*
X289537Y280703D01*
X289483Y280530D01*
Y314333D01*
G37*
G36*
Y350000D02*X294474D01*
Y324166D01*
X290724D01*
X290464Y324143D01*
X290211Y324076D01*
X289974Y323965D01*
X289760Y323815D01*
X289575Y323630D01*
X289483Y323499D01*
Y350000D01*
G37*
G36*
X280000D02*X289483D01*
Y323499D01*
X289425Y323416D01*
X289314Y323179D01*
X289247Y322926D01*
X289224Y322666D01*
Y315166D01*
X289247Y314906D01*
X289314Y314653D01*
X289425Y314416D01*
X289483Y314333D01*
Y280530D01*
X289398Y280258D01*
X289299Y279801D01*
X289240Y279338D01*
X289224Y278871D01*
X289249Y278404D01*
X289315Y277942D01*
X289422Y277487D01*
X289483Y277303D01*
Y224191D01*
X289436Y224124D01*
X289050Y223295D01*
X288813Y222411D01*
X288733Y221499D01*
X288813Y220587D01*
X289050Y219703D01*
X289436Y218874D01*
X289483Y218807D01*
Y184499D01*
X289353Y184488D01*
X289226Y184454D01*
X289108Y184399D01*
X289001Y184324D01*
X288908Y184231D01*
X288833Y184124D01*
X288778Y184006D01*
X288744Y183879D01*
X288733Y183749D01*
Y179249D01*
X288744Y179119D01*
X288778Y178992D01*
X288833Y178874D01*
X288908Y178767D01*
X289001Y178674D01*
X289108Y178599D01*
X289226Y178544D01*
X289353Y178510D01*
X289483Y178499D01*
Y0D01*
X280000D01*
Y32822D01*
X280726Y32885D01*
X281429Y33074D01*
X282089Y33382D01*
X282686Y33799D01*
X283201Y34314D01*
X283618Y34911D01*
X283926Y35571D01*
X284115Y36274D01*
X284178Y37000D01*
X284115Y37726D01*
X283926Y38429D01*
X283618Y39089D01*
X283201Y39686D01*
X282686Y40201D01*
X282089Y40618D01*
X281429Y40926D01*
X280726Y41115D01*
X280000Y41178D01*
Y70322D01*
X280726Y70385D01*
X281429Y70574D01*
X282089Y70882D01*
X282686Y71299D01*
X283201Y71814D01*
X283618Y72411D01*
X283926Y73071D01*
X284115Y73774D01*
X284178Y74500D01*
X284115Y75226D01*
X283926Y75929D01*
X283618Y76589D01*
X283201Y77186D01*
X282686Y77701D01*
X282089Y78118D01*
X281429Y78426D01*
X280726Y78615D01*
X280000Y78678D01*
Y106137D01*
X280715Y106470D01*
X281536Y107045D01*
X282245Y107754D01*
X282820Y108575D01*
X283243Y109483D01*
X283503Y110452D01*
X283590Y111450D01*
X283503Y112448D01*
X283243Y113417D01*
X282820Y114325D01*
X282245Y115146D01*
X281536Y115855D01*
X280715Y116430D01*
X280000Y116763D01*
Y350000D01*
G37*
G36*
X251299D02*X280000D01*
Y116763D01*
X279807Y116853D01*
X278838Y117113D01*
X277840Y117200D01*
X276842Y117113D01*
X275873Y116853D01*
X274965Y116430D01*
X274144Y115855D01*
X273435Y115146D01*
X272860Y114325D01*
X272437Y113417D01*
X272177Y112448D01*
X272090Y111450D01*
X272177Y110452D01*
X272437Y109483D01*
X272860Y108575D01*
X273435Y107754D01*
X274144Y107045D01*
X274965Y106470D01*
X275873Y106047D01*
X276842Y105787D01*
X277840Y105700D01*
X278838Y105787D01*
X279807Y106047D01*
X280000Y106137D01*
Y78678D01*
X279274Y78615D01*
X278571Y78426D01*
X277911Y78118D01*
X277314Y77701D01*
X276799Y77186D01*
X276382Y76589D01*
X276074Y75929D01*
X275885Y75226D01*
X275822Y74500D01*
X275885Y73774D01*
X276074Y73071D01*
X276382Y72411D01*
X276799Y71814D01*
X277314Y71299D01*
X277911Y70882D01*
X278571Y70574D01*
X279274Y70385D01*
X280000Y70322D01*
Y41178D01*
X279274Y41115D01*
X278571Y40926D01*
X277911Y40618D01*
X277314Y40201D01*
X276799Y39686D01*
X276382Y39089D01*
X276074Y38429D01*
X275885Y37726D01*
X275822Y37000D01*
X275885Y36274D01*
X276074Y35571D01*
X276382Y34911D01*
X276799Y34314D01*
X277314Y33799D01*
X277911Y33382D01*
X278571Y33074D01*
X279274Y32885D01*
X280000Y32822D01*
Y0D01*
X251299D01*
Y33610D01*
X258410D01*
X258670Y33633D01*
X258923Y33700D01*
X259160Y33811D01*
X259374Y33961D01*
X259559Y34146D01*
X259709Y34360D01*
X259820Y34597D01*
X259887Y34850D01*
X259910Y35110D01*
Y43610D01*
X259887Y43870D01*
X259820Y44123D01*
X259709Y44360D01*
X259559Y44574D01*
X259374Y44759D01*
X259160Y44909D01*
X258923Y45020D01*
X258670Y45087D01*
X258410Y45110D01*
X251299D01*
Y114373D01*
X252193Y113957D01*
X253162Y113697D01*
X254160Y113610D01*
X255158Y113697D01*
X256127Y113957D01*
X257035Y114380D01*
X257856Y114955D01*
X258565Y115664D01*
X259140Y116485D01*
X259563Y117393D01*
X259823Y118362D01*
X259910Y119360D01*
X259823Y120358D01*
X259563Y121327D01*
X259140Y122235D01*
X258565Y123056D01*
X257856Y123765D01*
X257035Y124340D01*
X256127Y124763D01*
X255158Y125023D01*
X254160Y125110D01*
X253162Y125023D01*
X252193Y124763D01*
X251299Y124347D01*
Y226822D01*
X251416Y226992D01*
X252147Y228283D01*
X252762Y229632D01*
X253257Y231030D01*
X253628Y232466D01*
X253873Y233929D01*
X253989Y235407D01*
X253976Y236890D01*
X253834Y238366D01*
X253564Y239825D01*
X253167Y241254D01*
X252648Y242643D01*
X252010Y243982D01*
X251299Y245188D01*
Y350000D01*
G37*
G36*
X236888D02*X251299D01*
Y245188D01*
X251257Y245259D01*
X250396Y246467D01*
X250277Y246594D01*
X250138Y246699D01*
X249982Y246778D01*
X249816Y246829D01*
X249643Y246851D01*
X249469Y246841D01*
X249299Y246802D01*
X249138Y246734D01*
X248992Y246639D01*
X248865Y246520D01*
X248760Y246381D01*
X248681Y246225D01*
X248630Y246059D01*
X248608Y245886D01*
X248618Y245712D01*
X248657Y245542D01*
X248725Y245381D01*
X248820Y245235D01*
X249580Y244170D01*
X250244Y243043D01*
X250807Y241861D01*
X251265Y240636D01*
X251299Y240514D01*
Y231488D01*
X250907Y230381D01*
X250365Y229191D01*
X249720Y228052D01*
X248979Y226973D01*
X248980Y226972D01*
X248888Y226824D01*
X248823Y226663D01*
X248786Y226492D01*
X248780Y226318D01*
X248805Y226146D01*
X248859Y225980D01*
X248940Y225827D01*
X249048Y225689D01*
X249177Y225573D01*
X249325Y225481D01*
X249486Y225416D01*
X249657Y225379D01*
X249831Y225373D01*
X250003Y225398D01*
X250169Y225452D01*
X250322Y225533D01*
X250460Y225641D01*
X250576Y225770D01*
X251299Y226822D01*
Y124347D01*
X251285Y124340D01*
X250464Y123765D01*
X249755Y123056D01*
X249180Y122235D01*
X248757Y121327D01*
X248497Y120358D01*
X248410Y119360D01*
X248497Y118362D01*
X248757Y117393D01*
X249180Y116485D01*
X249755Y115664D01*
X250464Y114955D01*
X251285Y114380D01*
X251299Y114373D01*
Y45110D01*
X249910D01*
X249650Y45087D01*
X249397Y45020D01*
X249160Y44909D01*
X248946Y44759D01*
X248761Y44574D01*
X248611Y44360D01*
X248500Y44123D01*
X248433Y43870D01*
X248410Y43610D01*
Y35110D01*
X248433Y34850D01*
X248500Y34597D01*
X248611Y34360D01*
X248761Y34146D01*
X248946Y33961D01*
X249160Y33811D01*
X249397Y33700D01*
X249650Y33633D01*
X249910Y33610D01*
X251299D01*
Y0D01*
X236888D01*
Y137251D01*
X237024Y137115D01*
X237845Y136540D01*
X238753Y136117D01*
X239722Y135857D01*
X240720Y135770D01*
X241718Y135857D01*
X242687Y136117D01*
X243595Y136540D01*
X244416Y137115D01*
X245125Y137824D01*
X245700Y138645D01*
X246123Y139553D01*
X246383Y140522D01*
X246470Y141520D01*
X246383Y142518D01*
X246123Y143487D01*
X245700Y144395D01*
X245125Y145216D01*
X244416Y145925D01*
X243595Y146500D01*
X242687Y146923D01*
X241718Y147183D01*
X240720Y147270D01*
X239722Y147183D01*
X238753Y146923D01*
X237845Y146500D01*
X237024Y145925D01*
X236888Y145789D01*
Y219015D01*
X237889Y219024D01*
X239365Y219166D01*
X240824Y219436D01*
X242253Y219833D01*
X243642Y220352D01*
X244981Y220990D01*
X246258Y221743D01*
X247466Y222604D01*
X247593Y222723D01*
X247698Y222862D01*
X247777Y223018D01*
X247828Y223184D01*
X247850Y223357D01*
X247840Y223531D01*
X247801Y223701D01*
X247733Y223862D01*
X247638Y224008D01*
X247519Y224135D01*
X247380Y224240D01*
X247224Y224319D01*
X247058Y224370D01*
X246885Y224392D01*
X246711Y224382D01*
X246541Y224343D01*
X246380Y224275D01*
X246234Y224180D01*
X245169Y223420D01*
X244042Y222756D01*
X242860Y222193D01*
X241635Y221735D01*
X240374Y221385D01*
X239087Y221146D01*
X237785Y221021D01*
X236888Y221013D01*
Y250986D01*
X237523Y250991D01*
X238828Y250889D01*
X240118Y250673D01*
X241385Y250345D01*
X242619Y249908D01*
X243809Y249366D01*
X244948Y248721D01*
X246027Y247980D01*
X246028Y247981D01*
X246176Y247889D01*
X246337Y247824D01*
X246508Y247787D01*
X246682Y247781D01*
X246854Y247806D01*
X247020Y247860D01*
X247173Y247941D01*
X247311Y248049D01*
X247427Y248178D01*
X247519Y248326D01*
X247584Y248487D01*
X247621Y248658D01*
X247627Y248832D01*
X247602Y249004D01*
X247548Y249170D01*
X247467Y249323D01*
X247359Y249461D01*
X247230Y249577D01*
X246008Y250417D01*
X244717Y251148D01*
X243368Y251763D01*
X241970Y252258D01*
X240534Y252629D01*
X239071Y252874D01*
X237593Y252990D01*
X236888Y252984D01*
Y350000D01*
G37*
G36*
X222701D02*X236888D01*
Y252984D01*
X236110Y252977D01*
X234634Y252835D01*
X233175Y252565D01*
X231746Y252168D01*
X230357Y251649D01*
X229018Y251011D01*
X227741Y250258D01*
X226533Y249397D01*
X226406Y249278D01*
X226301Y249139D01*
X226222Y248983D01*
X226171Y248817D01*
X226149Y248644D01*
X226159Y248470D01*
X226198Y248300D01*
X226266Y248139D01*
X226361Y247993D01*
X226480Y247866D01*
X226619Y247761D01*
X226775Y247682D01*
X226941Y247631D01*
X227114Y247609D01*
X227288Y247619D01*
X227458Y247658D01*
X227619Y247726D01*
X227765Y247821D01*
X228830Y248581D01*
X229957Y249245D01*
X231139Y249808D01*
X232364Y250266D01*
X233625Y250616D01*
X234912Y250855D01*
X236214Y250980D01*
X236888Y250986D01*
Y221013D01*
X236476Y221010D01*
X235171Y221112D01*
X233881Y221328D01*
X232614Y221656D01*
X231380Y222093D01*
X230190Y222635D01*
X229051Y223280D01*
X227972Y224021D01*
X227971Y224020D01*
X227823Y224112D01*
X227662Y224177D01*
X227491Y224214D01*
X227317Y224220D01*
X227145Y224195D01*
X226979Y224141D01*
X226826Y224060D01*
X226688Y223952D01*
X226572Y223823D01*
X226480Y223675D01*
X226415Y223514D01*
X226378Y223343D01*
X226372Y223169D01*
X226397Y222997D01*
X226451Y222831D01*
X226532Y222678D01*
X226640Y222540D01*
X226769Y222424D01*
X227991Y221584D01*
X229282Y220853D01*
X230631Y220238D01*
X232029Y219743D01*
X233465Y219372D01*
X234928Y219127D01*
X236406Y219011D01*
X236888Y219015D01*
Y145789D01*
X236315Y145216D01*
X235740Y144395D01*
X235317Y143487D01*
X235057Y142518D01*
X234970Y141520D01*
X235057Y140522D01*
X235317Y139553D01*
X235740Y138645D01*
X236315Y137824D01*
X236888Y137251D01*
Y0D01*
X222701D01*
Y53731D01*
X222715Y53721D01*
X223860Y53187D01*
X225081Y52860D01*
X226340Y52750D01*
X227599Y52860D01*
X228820Y53187D01*
X229965Y53721D01*
X231000Y54446D01*
X231894Y55340D01*
X232619Y56375D01*
X233153Y57520D01*
X233480Y58741D01*
X233590Y60000D01*
X233480Y61259D01*
X233153Y62480D01*
X232619Y63625D01*
X231894Y64660D01*
X231000Y65554D01*
X229965Y66279D01*
X228820Y66813D01*
X227599Y67140D01*
X226340Y67250D01*
X225081Y67140D01*
X223860Y66813D01*
X222715Y66279D01*
X222701Y66269D01*
Y226812D01*
X222742Y226742D01*
X223603Y225534D01*
X223722Y225407D01*
X223861Y225302D01*
X224017Y225223D01*
X224183Y225172D01*
X224356Y225150D01*
X224530Y225160D01*
X224700Y225199D01*
X224861Y225267D01*
X225007Y225362D01*
X225134Y225481D01*
X225239Y225620D01*
X225318Y225776D01*
X225369Y225942D01*
X225391Y226115D01*
X225381Y226289D01*
X225342Y226459D01*
X225274Y226620D01*
X225179Y226766D01*
X224419Y227831D01*
X223755Y228958D01*
X223192Y230140D01*
X222734Y231365D01*
X222701Y231484D01*
Y240516D01*
X223092Y241620D01*
X223634Y242810D01*
X224279Y243949D01*
X225020Y245028D01*
X225019Y245029D01*
X225111Y245177D01*
X225176Y245338D01*
X225213Y245509D01*
X225219Y245683D01*
X225194Y245855D01*
X225140Y246021D01*
X225059Y246174D01*
X224951Y246312D01*
X224822Y246428D01*
X224674Y246520D01*
X224513Y246585D01*
X224342Y246622D01*
X224168Y246628D01*
X223996Y246603D01*
X223830Y246549D01*
X223677Y246468D01*
X223539Y246360D01*
X223423Y246231D01*
X222701Y245181D01*
Y350000D01*
G37*
G36*
Y231484D02*X222384Y232626D01*
X222145Y233913D01*
X222020Y235215D01*
X222009Y236524D01*
X222111Y237829D01*
X222327Y239119D01*
X222655Y240386D01*
X222701Y240516D01*
Y231484D01*
G37*
G36*
X209700Y350000D02*X222701D01*
Y245181D01*
X222583Y245009D01*
X221852Y243718D01*
X221237Y242369D01*
X220742Y240971D01*
X220371Y239535D01*
X220126Y238072D01*
X220010Y236594D01*
X220023Y235111D01*
X220165Y233635D01*
X220435Y232176D01*
X220832Y230747D01*
X221351Y229358D01*
X221989Y228019D01*
X222701Y226812D01*
Y66269D01*
X221680Y65554D01*
X220786Y64660D01*
X220061Y63625D01*
X219527Y62480D01*
X219200Y61259D01*
X219090Y60000D01*
X219200Y58741D01*
X219527Y57520D01*
X220061Y56375D01*
X220786Y55340D01*
X221680Y54446D01*
X222701Y53731D01*
Y0D01*
X209700D01*
Y122500D01*
X211871Y122690D01*
X213975Y123254D01*
X215950Y124175D01*
X217735Y125424D01*
X219276Y126965D01*
X220525Y128750D01*
X221446Y130725D01*
X222010Y132829D01*
X222200Y135000D01*
X222010Y137171D01*
X221446Y139275D01*
X220525Y141250D01*
X219276Y143035D01*
X217735Y144576D01*
X215950Y145825D01*
X213975Y146746D01*
X211871Y147310D01*
X209700Y147500D01*
Y350000D01*
G37*
G36*
X180000D02*X209700D01*
Y147500D01*
X207529Y147310D01*
X205425Y146746D01*
X203450Y145825D01*
X201665Y144576D01*
X200124Y143035D01*
X198875Y141250D01*
X197954Y139275D01*
X197390Y137171D01*
X197200Y135000D01*
X197390Y132829D01*
X197954Y130725D01*
X198875Y128750D01*
X200124Y126965D01*
X201665Y125424D01*
X203450Y124175D01*
X205425Y123254D01*
X207529Y122690D01*
X209700Y122500D01*
Y0D01*
X180000D01*
Y122526D01*
X181871Y122690D01*
X183975Y123254D01*
X185950Y124175D01*
X187735Y125424D01*
X189276Y126965D01*
X190525Y128750D01*
X191446Y130725D01*
X192010Y132829D01*
X192200Y135000D01*
X192010Y137171D01*
X191446Y139275D01*
X190525Y141250D01*
X189276Y143035D01*
X187735Y144576D01*
X185950Y145825D01*
X183975Y146746D01*
X181871Y147310D01*
X180000Y147474D01*
Y164500D01*
X181129Y164599D01*
X182223Y164892D01*
X183250Y165371D01*
X184178Y166021D01*
X184979Y166822D01*
X185629Y167750D01*
X186108Y168777D01*
X186401Y169871D01*
X186500Y171000D01*
X186401Y172129D01*
X186108Y173223D01*
X185629Y174250D01*
X184979Y175178D01*
X184178Y175979D01*
X183250Y176629D01*
X182223Y177108D01*
X181129Y177401D01*
X180000Y177500D01*
Y294500D01*
X181129Y294599D01*
X182223Y294892D01*
X183250Y295371D01*
X184178Y296021D01*
X184979Y296822D01*
X185629Y297750D01*
X186108Y298777D01*
X186401Y299871D01*
X186500Y301000D01*
X186401Y302129D01*
X186108Y303223D01*
X185629Y304250D01*
X184979Y305178D01*
X184178Y305979D01*
X183250Y306629D01*
X182223Y307108D01*
X181129Y307401D01*
X180000Y307500D01*
Y328347D01*
X180468Y328675D01*
X181325Y329532D01*
X182020Y330524D01*
X182532Y331623D01*
X182845Y332793D01*
X182951Y334000D01*
X182845Y335207D01*
X182532Y336377D01*
X182020Y337476D01*
X181325Y338468D01*
X180468Y339325D01*
X180000Y339653D01*
Y350000D01*
G37*
G36*
X160365D02*X180000D01*
Y339653D01*
X179476Y340020D01*
X178377Y340532D01*
X177207Y340845D01*
X176000Y340951D01*
X174793Y340845D01*
X173623Y340532D01*
X172524Y340020D01*
X171532Y339325D01*
X170675Y338468D01*
X169980Y337476D01*
X169468Y336377D01*
X169155Y335207D01*
X169049Y334000D01*
X169155Y332793D01*
X169468Y331623D01*
X169980Y330524D01*
X170675Y329532D01*
X171532Y328675D01*
X172524Y327980D01*
X173623Y327468D01*
X174793Y327155D01*
X176000Y327049D01*
X177207Y327155D01*
X178377Y327468D01*
X179476Y327980D01*
X180000Y328347D01*
Y307500D01*
X178871Y307401D01*
X177777Y307108D01*
X176750Y306629D01*
X175822Y305979D01*
X175021Y305178D01*
X174371Y304250D01*
X173892Y303223D01*
X173599Y302129D01*
X173500Y301000D01*
X173599Y299871D01*
X173892Y298777D01*
X174371Y297750D01*
X175021Y296822D01*
X175822Y296021D01*
X176750Y295371D01*
X177777Y294892D01*
X178871Y294599D01*
X180000Y294500D01*
Y177500D01*
X178871Y177401D01*
X177777Y177108D01*
X176750Y176629D01*
X175822Y175979D01*
X175021Y175178D01*
X174371Y174250D01*
X173892Y173223D01*
X173599Y172129D01*
X173500Y171000D01*
X173599Y169871D01*
X173892Y168777D01*
X174371Y167750D01*
X175021Y166822D01*
X175822Y166021D01*
X176750Y165371D01*
X177777Y164892D01*
X178871Y164599D01*
X180000Y164500D01*
Y147474D01*
X179700Y147500D01*
X177529Y147310D01*
X175425Y146746D01*
X173450Y145825D01*
X171665Y144576D01*
X170124Y143035D01*
X168875Y141250D01*
X167954Y139275D01*
X167390Y137171D01*
X167200Y135000D01*
X167390Y132829D01*
X167954Y130725D01*
X168875Y128750D01*
X170124Y126965D01*
X171665Y125424D01*
X173450Y124175D01*
X175425Y123254D01*
X177529Y122690D01*
X179700Y122500D01*
X180000Y122526D01*
Y0D01*
X160365D01*
Y167373D01*
X160629Y167750D01*
X161108Y168777D01*
X161401Y169871D01*
X161500Y171000D01*
X161401Y172129D01*
X161108Y173223D01*
X160629Y174250D01*
X160365Y174627D01*
Y297483D01*
X160462Y297550D01*
X160554Y297643D01*
X160629Y297750D01*
X160891Y298253D01*
X161108Y298777D01*
X161278Y299318D01*
X161401Y299872D01*
X161475Y300434D01*
X161500Y301000D01*
X161475Y301567D01*
X161401Y302129D01*
X161278Y302683D01*
X161108Y303224D01*
X160891Y303748D01*
X160629Y304250D01*
X160628D01*
X160553Y304357D01*
X160461Y304449D01*
X160365Y304516D01*
Y328603D01*
X160468Y328675D01*
X161325Y329532D01*
X162020Y330524D01*
X162532Y331623D01*
X162845Y332793D01*
X162951Y334000D01*
X162845Y335207D01*
X162532Y336377D01*
X162020Y337476D01*
X161325Y338468D01*
X160468Y339325D01*
X160365Y339397D01*
Y350000D01*
G37*
G36*
Y174627D02*X159979Y175178D01*
X159178Y175979D01*
X158250Y176629D01*
X157223Y177108D01*
X156129Y177401D01*
X155000Y177500D01*
Y294500D01*
X155566Y294525D01*
X156128Y294599D01*
X156682Y294722D01*
X157223Y294892D01*
X157747Y295109D01*
X158250Y295371D01*
Y295372D01*
X158357Y295447D01*
X158449Y295539D01*
X158524Y295646D01*
X158579Y295765D01*
X158613Y295891D01*
X158625Y296021D01*
X158613Y296151D01*
X158579Y296278D01*
X158524Y296396D01*
X158449Y296503D01*
X158357Y296595D01*
X158250Y296670D01*
X158131Y296725D01*
X158005Y296759D01*
X157875Y296771D01*
X157745Y296759D01*
X157618Y296725D01*
X157500Y296670D01*
X157113Y296469D01*
X156710Y296302D01*
X156294Y296171D01*
X155868Y296076D01*
X155435Y296020D01*
X155000Y296000D01*
Y306000D01*
X155435Y305981D01*
X155868Y305925D01*
X156294Y305830D01*
X156710Y305699D01*
X157113Y305532D01*
X157500Y305331D01*
Y305330D01*
X157619Y305275D01*
X157745Y305241D01*
X157875Y305230D01*
X158006Y305241D01*
X158132Y305275D01*
X158250Y305330D01*
X158358Y305405D01*
X158450Y305498D01*
X158525Y305605D01*
X158580Y305724D01*
X158614Y305850D01*
X158625Y305980D01*
X158614Y306111D01*
X158580Y306237D01*
X158525Y306355D01*
X158450Y306463D01*
X158357Y306555D01*
X158250Y306630D01*
X157747Y306892D01*
X157223Y307109D01*
X156682Y307279D01*
X156128Y307402D01*
X155566Y307476D01*
X155000Y307500D01*
Y327137D01*
X156000Y327049D01*
X157207Y327155D01*
X158377Y327468D01*
X159476Y327980D01*
X160365Y328603D01*
Y304516D01*
X160354Y304524D01*
X160235Y304579D01*
X160109Y304613D01*
X159979Y304625D01*
X159849Y304613D01*
X159722Y304579D01*
X159604Y304524D01*
X159497Y304449D01*
X159405Y304357D01*
X159330Y304250D01*
X159275Y304131D01*
X159241Y304005D01*
X159229Y303875D01*
X159241Y303745D01*
X159275Y303618D01*
X159330Y303500D01*
X159531Y303114D01*
X159698Y302711D01*
X159829Y302295D01*
X159924Y301869D01*
X159980Y301436D01*
X160000Y301000D01*
X159980Y300565D01*
X159924Y300132D01*
X159829Y299706D01*
X159698Y299290D01*
X159531Y298887D01*
X159330Y298500D01*
X159329D01*
X159274Y298381D01*
X159240Y298255D01*
X159229Y298125D01*
X159240Y297994D01*
X159274Y297868D01*
X159329Y297750D01*
X159404Y297642D01*
X159497Y297550D01*
X159604Y297475D01*
X159723Y297420D01*
X159849Y297386D01*
X159979Y297375D01*
X160110Y297386D01*
X160236Y297420D01*
X160354Y297475D01*
X160365Y297483D01*
Y174627D01*
G37*
G36*
Y0D02*X155000D01*
Y164500D01*
X156129Y164599D01*
X157223Y164892D01*
X158250Y165371D01*
X159178Y166021D01*
X159979Y166822D01*
X160365Y167373D01*
Y0D01*
G37*
G36*
X155000Y350000D02*X160365D01*
Y339397D01*
X159476Y340020D01*
X158377Y340532D01*
X157207Y340845D01*
X156000Y340951D01*
X155000Y340863D01*
Y350000D01*
G37*
G36*
X149635Y167373D02*X150021Y166822D01*
X150822Y166021D01*
X151750Y165371D01*
X152777Y164892D01*
X153871Y164599D01*
X155000Y164500D01*
Y0D01*
X149635D01*
Y167373D01*
G37*
G36*
Y331265D02*X149980Y330524D01*
X150675Y329532D01*
X151532Y328675D01*
X152524Y327980D01*
X153623Y327468D01*
X154793Y327155D01*
X155000Y327137D01*
Y307500D01*
X154433Y307476D01*
X153871Y307402D01*
X153317Y307279D01*
X152776Y307109D01*
X152252Y306892D01*
X151750Y306630D01*
Y306629D01*
X151643Y306554D01*
X151551Y306462D01*
X151476Y306355D01*
X151421Y306236D01*
X151387Y306110D01*
X151375Y305980D01*
X151387Y305850D01*
X151421Y305723D01*
X151476Y305605D01*
X151551Y305498D01*
X151643Y305406D01*
X151750Y305331D01*
X151869Y305276D01*
X151995Y305242D01*
X152125Y305230D01*
X152255Y305242D01*
X152382Y305276D01*
X152500Y305331D01*
X152886Y305532D01*
X153289Y305699D01*
X153705Y305830D01*
X154131Y305925D01*
X154564Y305981D01*
X155000Y306000D01*
Y296000D01*
X154564Y296020D01*
X154131Y296076D01*
X153705Y296171D01*
X153289Y296302D01*
X152886Y296469D01*
X152500Y296670D01*
Y296671D01*
X152381Y296726D01*
X152255Y296760D01*
X152125Y296771D01*
X151994Y296760D01*
X151868Y296726D01*
X151750Y296671D01*
X151642Y296596D01*
X151550Y296503D01*
X151475Y296396D01*
X151420Y296277D01*
X151386Y296151D01*
X151375Y296021D01*
X151386Y295890D01*
X151420Y295764D01*
X151475Y295646D01*
X151550Y295538D01*
X151643Y295446D01*
X151750Y295371D01*
X152252Y295109D01*
X152776Y294892D01*
X153317Y294722D01*
X153871Y294599D01*
X154433Y294525D01*
X155000Y294500D01*
Y177500D01*
X153871Y177401D01*
X152777Y177108D01*
X151750Y176629D01*
X150822Y175979D01*
X150021Y175178D01*
X149635Y174627D01*
Y297483D01*
X149645Y297476D01*
X149764Y297421D01*
X149890Y297387D01*
X150020Y297375D01*
X150150Y297387D01*
X150277Y297421D01*
X150395Y297476D01*
X150502Y297551D01*
X150594Y297643D01*
X150669Y297750D01*
X150724Y297869D01*
X150758Y297995D01*
X150770Y298125D01*
X150758Y298255D01*
X150724Y298382D01*
X150669Y298500D01*
X150468Y298887D01*
X150301Y299290D01*
X150170Y299706D01*
X150075Y300132D01*
X150019Y300565D01*
X150000Y301000D01*
X150019Y301436D01*
X150075Y301869D01*
X150170Y302295D01*
X150301Y302711D01*
X150468Y303114D01*
X150669Y303500D01*
X150670D01*
X150725Y303619D01*
X150759Y303745D01*
X150770Y303875D01*
X150759Y304006D01*
X150725Y304132D01*
X150670Y304250D01*
X150595Y304358D01*
X150502Y304450D01*
X150395Y304525D01*
X150276Y304580D01*
X150150Y304614D01*
X150020Y304625D01*
X149889Y304614D01*
X149763Y304580D01*
X149645Y304525D01*
X149635Y304518D01*
Y331265D01*
G37*
G36*
Y350000D02*X155000D01*
Y340863D01*
X154793Y340845D01*
X153623Y340532D01*
X152524Y340020D01*
X151532Y339325D01*
X150675Y338468D01*
X149980Y337476D01*
X149635Y336735D01*
Y350000D01*
G37*
G36*
X136000D02*X149635D01*
Y336735D01*
X149468Y336377D01*
X149155Y335207D01*
X149049Y334000D01*
X149155Y332793D01*
X149468Y331623D01*
X149635Y331265D01*
Y304518D01*
X149537Y304450D01*
X149445Y304357D01*
X149370Y304250D01*
X149108Y303748D01*
X148891Y303224D01*
X148721Y302683D01*
X148598Y302129D01*
X148524Y301567D01*
X148500Y301000D01*
X148524Y300434D01*
X148598Y299872D01*
X148721Y299318D01*
X148891Y298777D01*
X149108Y298253D01*
X149370Y297750D01*
X149371D01*
X149446Y297643D01*
X149538Y297551D01*
X149635Y297483D01*
Y174627D01*
X149371Y174250D01*
X148892Y173223D01*
X148599Y172129D01*
X148500Y171000D01*
X148599Y169871D01*
X148892Y168777D01*
X149371Y167750D01*
X149635Y167373D01*
Y0D01*
X136000D01*
Y52837D01*
X136259Y52860D01*
X137480Y53187D01*
X138625Y53721D01*
X139660Y54446D01*
X140554Y55340D01*
X141279Y56375D01*
X141813Y57520D01*
X142140Y58741D01*
X142250Y60000D01*
X142140Y61259D01*
X141813Y62480D01*
X141279Y63625D01*
X140554Y64660D01*
X139660Y65554D01*
X138625Y66279D01*
X137480Y66813D01*
X136259Y67140D01*
X136000Y67163D01*
Y88527D01*
X136033Y88580D01*
X136241Y89037D01*
X136408Y89509D01*
X136534Y89995D01*
X136617Y90490D01*
X136656Y90990D01*
X136652Y91491D01*
X136604Y91991D01*
X136512Y92484D01*
X136378Y92967D01*
X136202Y93437D01*
X136000Y93861D01*
Y168545D01*
X136108Y168777D01*
X136401Y169871D01*
X136500Y171000D01*
X136401Y172129D01*
X136108Y173223D01*
X136000Y173455D01*
Y298516D01*
X136108Y298777D01*
X136278Y299318D01*
X136401Y299872D01*
X136475Y300434D01*
X136500Y301000D01*
X136475Y301567D01*
X136401Y302129D01*
X136278Y302683D01*
X136108Y303224D01*
X136000Y303485D01*
Y327049D01*
X137207Y327155D01*
X138377Y327468D01*
X139476Y327980D01*
X140468Y328675D01*
X141325Y329532D01*
X142020Y330524D01*
X142532Y331623D01*
X142845Y332793D01*
X142951Y334000D01*
X142845Y335207D01*
X142532Y336377D01*
X142020Y337476D01*
X141325Y338468D01*
X140468Y339325D01*
X139476Y340020D01*
X138377Y340532D01*
X137207Y340845D01*
X136000Y340951D01*
Y350000D01*
G37*
G36*
X130871Y54074D02*X131375Y53721D01*
X132520Y53187D01*
X133741Y52860D01*
X135000Y52750D01*
X136000Y52837D01*
Y0D01*
X130871D01*
Y54074D01*
G37*
G36*
Y164576D02*X131129Y164599D01*
X132223Y164892D01*
X133250Y165371D01*
X134178Y166021D01*
X134979Y166822D01*
X135629Y167750D01*
X136000Y168545D01*
Y93861D01*
X135986Y93890D01*
X135915Y94000D01*
X135826Y94095D01*
X135721Y94174D01*
X135605Y94233D01*
X135480Y94271D01*
X135350Y94287D01*
X135220Y94280D01*
X135092Y94251D01*
X134972Y94200D01*
X134862Y94129D01*
X134767Y94040D01*
X134688Y93935D01*
X134629Y93819D01*
X134591Y93694D01*
X134575Y93564D01*
X134582Y93434D01*
X134611Y93306D01*
X134662Y93186D01*
X134822Y92851D01*
X134951Y92504D01*
X135051Y92147D01*
X135118Y91782D01*
X135154Y91413D01*
X135157Y91042D01*
X135128Y90673D01*
X135067Y90307D01*
X134974Y89948D01*
X134850Y89598D01*
X134696Y89261D01*
X134697Y89262D01*
X134648Y89141D01*
X134621Y89013D01*
X134616Y88882D01*
X134634Y88753D01*
X134674Y88628D01*
X134736Y88513D01*
X134816Y88410D01*
X134913Y88322D01*
X135024Y88253D01*
X135145Y88204D01*
X135273Y88177D01*
X135404Y88172D01*
X135533Y88190D01*
X135658Y88230D01*
X135773Y88292D01*
X135876Y88372D01*
X135964Y88469D01*
X136000Y88527D01*
Y67163D01*
X135000Y67250D01*
X133741Y67140D01*
X132520Y66813D01*
X131375Y66279D01*
X130871Y65926D01*
Y85445D01*
X131210Y85448D01*
X131710Y85496D01*
X132203Y85588D01*
X132686Y85722D01*
X133156Y85898D01*
X133609Y86114D01*
X133719Y86185D01*
X133814Y86274D01*
X133893Y86379D01*
X133952Y86495D01*
X133990Y86620D01*
X134006Y86750D01*
X133999Y86880D01*
X133970Y87008D01*
X133919Y87128D01*
X133848Y87238D01*
X133759Y87333D01*
X133654Y87412D01*
X133538Y87471D01*
X133413Y87509D01*
X133283Y87525D01*
X133153Y87518D01*
X133025Y87489D01*
X132905Y87438D01*
X132570Y87278D01*
X132223Y87149D01*
X131866Y87049D01*
X131501Y86982D01*
X131132Y86946D01*
X130871Y86944D01*
Y95436D01*
X131058Y95438D01*
X131427Y95409D01*
X131793Y95348D01*
X132152Y95255D01*
X132502Y95131D01*
X132839Y94977D01*
X132838Y94978D01*
X132959Y94929D01*
X133087Y94902D01*
X133218Y94897D01*
X133347Y94915D01*
X133472Y94955D01*
X133587Y95017D01*
X133690Y95097D01*
X133778Y95194D01*
X133847Y95305D01*
X133896Y95426D01*
X133923Y95554D01*
X133928Y95685D01*
X133910Y95814D01*
X133870Y95939D01*
X133808Y96054D01*
X133728Y96157D01*
X133631Y96245D01*
X133520Y96314D01*
X133063Y96522D01*
X132591Y96689D01*
X132105Y96815D01*
X131610Y96898D01*
X131110Y96937D01*
X130871Y96935D01*
Y164576D01*
G37*
G36*
X126204Y165753D02*X126750Y165371D01*
X127777Y164892D01*
X128871Y164599D01*
X130000Y164500D01*
X130871Y164576D01*
Y96935D01*
X130609Y96933D01*
X130109Y96885D01*
X129616Y96793D01*
X129133Y96659D01*
X128663Y96483D01*
X128210Y96267D01*
X128100Y96196D01*
X128005Y96107D01*
X127926Y96002D01*
X127867Y95886D01*
X127829Y95761D01*
X127813Y95631D01*
X127820Y95501D01*
X127849Y95373D01*
X127900Y95253D01*
X127971Y95143D01*
X128060Y95048D01*
X128165Y94969D01*
X128281Y94910D01*
X128406Y94872D01*
X128536Y94856D01*
X128666Y94863D01*
X128794Y94892D01*
X128914Y94943D01*
X129249Y95103D01*
X129596Y95232D01*
X129953Y95332D01*
X130318Y95399D01*
X130687Y95435D01*
X130871Y95436D01*
Y86944D01*
X130761Y86943D01*
X130392Y86972D01*
X130026Y87033D01*
X129667Y87126D01*
X129317Y87250D01*
X128980Y87404D01*
X128981Y87403D01*
X128860Y87452D01*
X128732Y87479D01*
X128601Y87484D01*
X128472Y87466D01*
X128347Y87426D01*
X128232Y87364D01*
X128129Y87284D01*
X128041Y87187D01*
X127972Y87076D01*
X127923Y86955D01*
X127896Y86827D01*
X127891Y86696D01*
X127909Y86567D01*
X127949Y86442D01*
X128011Y86327D01*
X128091Y86224D01*
X128188Y86136D01*
X128299Y86067D01*
X128756Y85859D01*
X129228Y85692D01*
X129714Y85566D01*
X130209Y85483D01*
X130709Y85444D01*
X130871Y85445D01*
Y65926D01*
X130340Y65554D01*
X129446Y64660D01*
X128721Y63625D01*
X128187Y62480D01*
X127860Y61259D01*
X127750Y60000D01*
X127860Y58741D01*
X128187Y57520D01*
X128721Y56375D01*
X129446Y55340D01*
X130340Y54446D01*
X130871Y54074D01*
Y0D01*
X126204D01*
Y88153D01*
X126214Y88148D01*
X126339Y88110D01*
X126469Y88094D01*
X126599Y88101D01*
X126727Y88130D01*
X126847Y88181D01*
X126957Y88252D01*
X127052Y88341D01*
X127131Y88446D01*
X127190Y88562D01*
X127228Y88687D01*
X127244Y88817D01*
X127237Y88947D01*
X127208Y89075D01*
X127157Y89195D01*
X126997Y89530D01*
X126868Y89877D01*
X126768Y90234D01*
X126701Y90599D01*
X126665Y90968D01*
X126662Y91339D01*
X126691Y91708D01*
X126752Y92074D01*
X126845Y92433D01*
X126969Y92783D01*
X127123Y93120D01*
X127122Y93119D01*
X127171Y93240D01*
X127198Y93368D01*
X127203Y93499D01*
X127185Y93628D01*
X127145Y93753D01*
X127083Y93868D01*
X127003Y93971D01*
X126906Y94059D01*
X126795Y94128D01*
X126674Y94177D01*
X126546Y94204D01*
X126415Y94209D01*
X126286Y94191D01*
X126204Y94165D01*
Y165753D01*
G37*
G36*
X130000Y330495D02*X130675Y329532D01*
X131532Y328675D01*
X132524Y327980D01*
X133623Y327468D01*
X134793Y327155D01*
X136000Y327049D01*
Y303485D01*
X135891Y303748D01*
X135629Y304250D01*
X135628D01*
X135553Y304357D01*
X135461Y304449D01*
X135354Y304524D01*
X135235Y304579D01*
X135109Y304613D01*
X134979Y304625D01*
X134849Y304613D01*
X134722Y304579D01*
X134604Y304524D01*
X134497Y304449D01*
X134405Y304357D01*
X134330Y304250D01*
X134275Y304131D01*
X134241Y304005D01*
X134229Y303875D01*
X134241Y303745D01*
X134275Y303618D01*
X134330Y303500D01*
X134531Y303114D01*
X134698Y302711D01*
X134829Y302295D01*
X134924Y301869D01*
X134980Y301436D01*
X135000Y301000D01*
X134980Y300565D01*
X134924Y300132D01*
X134829Y299706D01*
X134698Y299290D01*
X134531Y298887D01*
X134330Y298500D01*
X134329D01*
X134274Y298381D01*
X134240Y298255D01*
X134229Y298125D01*
X134240Y297994D01*
X134274Y297868D01*
X134329Y297750D01*
X134404Y297642D01*
X134497Y297550D01*
X134604Y297475D01*
X134723Y297420D01*
X134849Y297386D01*
X134979Y297375D01*
X135110Y297386D01*
X135236Y297420D01*
X135354Y297475D01*
X135462Y297550D01*
X135554Y297643D01*
X135629Y297750D01*
X135891Y298253D01*
X136000Y298516D01*
Y173455D01*
X135629Y174250D01*
X134979Y175178D01*
X134178Y175979D01*
X133250Y176629D01*
X132223Y177108D01*
X131129Y177401D01*
X130000Y177500D01*
Y294500D01*
X130566Y294525D01*
X131128Y294599D01*
X131682Y294722D01*
X132223Y294892D01*
X132747Y295109D01*
X133250Y295371D01*
Y295372D01*
X133357Y295447D01*
X133449Y295539D01*
X133524Y295646D01*
X133579Y295765D01*
X133613Y295891D01*
X133625Y296021D01*
X133613Y296151D01*
X133579Y296278D01*
X133524Y296396D01*
X133449Y296503D01*
X133357Y296595D01*
X133250Y296670D01*
X133131Y296725D01*
X133005Y296759D01*
X132875Y296771D01*
X132745Y296759D01*
X132618Y296725D01*
X132500Y296670D01*
X132113Y296469D01*
X131710Y296302D01*
X131294Y296171D01*
X130868Y296076D01*
X130435Y296020D01*
X130000Y296000D01*
Y306000D01*
X130435Y305981D01*
X130868Y305925D01*
X131294Y305830D01*
X131710Y305699D01*
X132113Y305532D01*
X132500Y305331D01*
Y305330D01*
X132619Y305275D01*
X132745Y305241D01*
X132875Y305230D01*
X133006Y305241D01*
X133132Y305275D01*
X133250Y305330D01*
X133358Y305405D01*
X133450Y305498D01*
X133525Y305605D01*
X133580Y305724D01*
X133614Y305850D01*
X133625Y305980D01*
X133614Y306111D01*
X133580Y306237D01*
X133525Y306355D01*
X133450Y306463D01*
X133357Y306555D01*
X133250Y306630D01*
X132747Y306892D01*
X132223Y307109D01*
X131682Y307279D01*
X131128Y307402D01*
X130566Y307476D01*
X130000Y307500D01*
Y330495D01*
G37*
G36*
Y350000D02*X136000D01*
Y340951D01*
X134793Y340845D01*
X133623Y340532D01*
X132524Y340020D01*
X131532Y339325D01*
X130675Y338468D01*
X130000Y337505D01*
Y350000D01*
G37*
G36*
X126204D02*X130000D01*
Y337505D01*
X129980Y337476D01*
X129468Y336377D01*
X129155Y335207D01*
X129049Y334000D01*
X129155Y332793D01*
X129468Y331623D01*
X129980Y330524D01*
X130000Y330495D01*
Y307500D01*
X129433Y307476D01*
X128871Y307402D01*
X128317Y307279D01*
X127776Y307109D01*
X127252Y306892D01*
X126750Y306630D01*
Y306629D01*
X126643Y306554D01*
X126551Y306462D01*
X126476Y306355D01*
X126421Y306236D01*
X126387Y306110D01*
X126375Y305980D01*
X126387Y305850D01*
X126421Y305723D01*
X126476Y305605D01*
X126551Y305498D01*
X126643Y305406D01*
X126750Y305331D01*
X126869Y305276D01*
X126995Y305242D01*
X127125Y305230D01*
X127255Y305242D01*
X127382Y305276D01*
X127500Y305331D01*
X127886Y305532D01*
X128289Y305699D01*
X128705Y305830D01*
X129131Y305925D01*
X129564Y305981D01*
X130000Y306000D01*
Y296000D01*
X129564Y296020D01*
X129131Y296076D01*
X128705Y296171D01*
X128289Y296302D01*
X127886Y296469D01*
X127500Y296670D01*
Y296671D01*
X127381Y296726D01*
X127255Y296760D01*
X127125Y296771D01*
X126994Y296760D01*
X126868Y296726D01*
X126750Y296671D01*
X126642Y296596D01*
X126550Y296503D01*
X126475Y296396D01*
X126420Y296277D01*
X126386Y296151D01*
X126375Y296021D01*
X126386Y295890D01*
X126420Y295764D01*
X126475Y295646D01*
X126550Y295538D01*
X126643Y295446D01*
X126750Y295371D01*
X127252Y295109D01*
X127776Y294892D01*
X128317Y294722D01*
X128871Y294599D01*
X129433Y294525D01*
X130000Y294500D01*
Y177500D01*
X128871Y177401D01*
X127777Y177108D01*
X126750Y176629D01*
X126204Y176247D01*
Y350000D01*
G37*
G36*
X124635Y167373D02*X125021Y166822D01*
X125822Y166021D01*
X126204Y165753D01*
Y94165D01*
X126161Y94151D01*
X126046Y94089D01*
X125943Y94009D01*
X125855Y93912D01*
X125786Y93801D01*
X125578Y93344D01*
X125411Y92872D01*
X125285Y92386D01*
X125202Y91891D01*
X125163Y91391D01*
X125167Y90890D01*
X125215Y90390D01*
X125307Y89897D01*
X125441Y89414D01*
X125617Y88944D01*
X125833Y88491D01*
X125904Y88381D01*
X125993Y88286D01*
X126098Y88207D01*
X126204Y88153D01*
Y0D01*
X124635D01*
Y167373D01*
G37*
G36*
Y350000D02*X126204D01*
Y176247D01*
X125822Y175979D01*
X125021Y175178D01*
X124635Y174627D01*
Y297483D01*
X124645Y297476D01*
X124764Y297421D01*
X124890Y297387D01*
X125020Y297375D01*
X125150Y297387D01*
X125277Y297421D01*
X125395Y297476D01*
X125502Y297551D01*
X125594Y297643D01*
X125669Y297750D01*
X125724Y297869D01*
X125758Y297995D01*
X125770Y298125D01*
X125758Y298255D01*
X125724Y298382D01*
X125669Y298500D01*
X125468Y298887D01*
X125301Y299290D01*
X125170Y299706D01*
X125075Y300132D01*
X125019Y300565D01*
X125000Y301000D01*
X125019Y301436D01*
X125075Y301869D01*
X125170Y302295D01*
X125301Y302711D01*
X125468Y303114D01*
X125669Y303500D01*
X125670D01*
X125725Y303619D01*
X125759Y303745D01*
X125770Y303875D01*
X125759Y304006D01*
X125725Y304132D01*
X125670Y304250D01*
X125595Y304358D01*
X125502Y304450D01*
X125395Y304525D01*
X125276Y304580D01*
X125150Y304614D01*
X125020Y304625D01*
X124889Y304614D01*
X124763Y304580D01*
X124645Y304525D01*
X124635Y304518D01*
Y350000D01*
G37*
G36*
X116000D02*X124635D01*
Y304518D01*
X124537Y304450D01*
X124445Y304357D01*
X124370Y304250D01*
X124108Y303748D01*
X123891Y303224D01*
X123721Y302683D01*
X123598Y302129D01*
X123524Y301567D01*
X123500Y301000D01*
X123524Y300434D01*
X123598Y299872D01*
X123721Y299318D01*
X123891Y298777D01*
X124108Y298253D01*
X124370Y297750D01*
X124371D01*
X124446Y297643D01*
X124538Y297551D01*
X124635Y297483D01*
Y174627D01*
X124371Y174250D01*
X123892Y173223D01*
X123599Y172129D01*
X123500Y171000D01*
X123599Y169871D01*
X123892Y168777D01*
X124371Y167750D01*
X124635Y167373D01*
Y0D01*
X116000D01*
Y42040D01*
X116428Y42340D01*
X117660Y43572D01*
X118660Y45000D01*
X119397Y46580D01*
X119848Y48264D01*
X120000Y50000D01*
X119848Y51736D01*
X119397Y53420D01*
X118660Y55000D01*
X117660Y56428D01*
X116428Y57660D01*
X116000Y57960D01*
Y129125D01*
X116746Y130725D01*
X117310Y132829D01*
X117500Y135000D01*
X117310Y137171D01*
X116746Y139275D01*
X116000Y140875D01*
Y327049D01*
X117207Y327155D01*
X118377Y327468D01*
X119476Y327980D01*
X120468Y328675D01*
X121325Y329532D01*
X122020Y330524D01*
X122532Y331623D01*
X122845Y332793D01*
X122951Y334000D01*
X122845Y335207D01*
X122532Y336377D01*
X122020Y337476D01*
X121325Y338468D01*
X120468Y339325D01*
X119476Y340020D01*
X118377Y340532D01*
X117207Y340845D01*
X116000Y340951D01*
Y350000D01*
G37*
G36*
Y57960D02*X115000Y58660D01*
X113420Y59397D01*
X111736Y59848D01*
X110000Y60000D01*
X108264Y59848D01*
X106580Y59397D01*
X105000Y58660D01*
Y122500D01*
X107171Y122690D01*
X109275Y123254D01*
X111250Y124175D01*
X113035Y125424D01*
X114576Y126965D01*
X115825Y128750D01*
X116000Y129125D01*
Y57960D01*
G37*
G36*
Y0D02*X105000D01*
Y41340D01*
X106580Y40603D01*
X108264Y40152D01*
X110000Y40000D01*
X111736Y40152D01*
X113420Y40603D01*
X115000Y41340D01*
X116000Y42040D01*
Y0D01*
G37*
G36*
X105000Y350000D02*X116000D01*
Y340951D01*
X114793Y340845D01*
X113623Y340532D01*
X112524Y340020D01*
X111532Y339325D01*
X110675Y338468D01*
X109980Y337476D01*
X109468Y336377D01*
X109155Y335207D01*
X109049Y334000D01*
X109155Y332793D01*
X109468Y331623D01*
X109980Y330524D01*
X110675Y329532D01*
X111532Y328675D01*
X112524Y327980D01*
X113623Y327468D01*
X114793Y327155D01*
X116000Y327049D01*
Y140875D01*
X115825Y141250D01*
X114576Y143035D01*
X113035Y144576D01*
X111250Y145825D01*
X109275Y146746D01*
X107171Y147310D01*
X105000Y147500D01*
Y164500D01*
X106129Y164599D01*
X107223Y164892D01*
X108250Y165371D01*
X109178Y166021D01*
X109979Y166822D01*
X110629Y167750D01*
X111108Y168777D01*
X111401Y169871D01*
X111500Y171000D01*
X111401Y172129D01*
X111108Y173223D01*
X110629Y174250D01*
X109979Y175178D01*
X109178Y175979D01*
X108250Y176629D01*
X107223Y177108D01*
X106129Y177401D01*
X105000Y177500D01*
Y294500D01*
X106129Y294599D01*
X107223Y294892D01*
X108250Y295371D01*
X109178Y296021D01*
X109979Y296822D01*
X110629Y297750D01*
X111108Y298777D01*
X111401Y299871D01*
X111500Y301000D01*
X111401Y302129D01*
X111108Y303223D01*
X110629Y304250D01*
X109979Y305178D01*
X109178Y305979D01*
X108250Y306629D01*
X107223Y307108D01*
X106129Y307401D01*
X105000Y307500D01*
Y350000D01*
G37*
G36*
X75000D02*X105000D01*
Y307500D01*
X103871Y307401D01*
X102777Y307108D01*
X101750Y306629D01*
X100822Y305979D01*
X100021Y305178D01*
X99371Y304250D01*
X98892Y303223D01*
X98599Y302129D01*
X98500Y301000D01*
X98599Y299871D01*
X98892Y298777D01*
X99371Y297750D01*
X100021Y296822D01*
X100822Y296021D01*
X101750Y295371D01*
X102777Y294892D01*
X103871Y294599D01*
X105000Y294500D01*
Y177500D01*
X103871Y177401D01*
X102777Y177108D01*
X101750Y176629D01*
X100822Y175979D01*
X100021Y175178D01*
X99371Y174250D01*
X98892Y173223D01*
X98599Y172129D01*
X98500Y171000D01*
X98599Y169871D01*
X98892Y168777D01*
X99371Y167750D01*
X100021Y166822D01*
X100822Y166021D01*
X101750Y165371D01*
X102777Y164892D01*
X103871Y164599D01*
X105000Y164500D01*
Y147500D01*
X102829Y147310D01*
X100725Y146746D01*
X98750Y145825D01*
X96965Y144576D01*
X95424Y143035D01*
X94175Y141250D01*
X93254Y139275D01*
X92690Y137171D01*
X92500Y135000D01*
X92690Y132829D01*
X93254Y130725D01*
X94175Y128750D01*
X95424Y126965D01*
X96965Y125424D01*
X98750Y124175D01*
X100725Y123254D01*
X102829Y122690D01*
X105000Y122500D01*
Y58660D01*
X103572Y57660D01*
X102340Y56428D01*
X101340Y55000D01*
X100603Y53420D01*
X100152Y51736D01*
X100000Y50000D01*
X100152Y48264D01*
X100603Y46580D01*
X101340Y45000D01*
X102340Y43572D01*
X103572Y42340D01*
X105000Y41340D01*
Y0D01*
X75000D01*
Y122500D01*
X77171Y122690D01*
X79275Y123254D01*
X81250Y124175D01*
X83035Y125424D01*
X84576Y126965D01*
X85825Y128750D01*
X86746Y130725D01*
X87310Y132829D01*
X87500Y135000D01*
X87310Y137171D01*
X86746Y139275D01*
X85825Y141250D01*
X84576Y143035D01*
X83035Y144576D01*
X81250Y145825D01*
X79275Y146746D01*
X77171Y147310D01*
X75000Y147500D01*
Y350000D01*
G37*
G36*
Y0D02*X62299D01*
Y40410D01*
X63264Y40152D01*
X65000Y40000D01*
X66736Y40152D01*
X68420Y40603D01*
X70000Y41340D01*
X71428Y42340D01*
X72660Y43572D01*
X73660Y45000D01*
X74397Y46580D01*
X74848Y48264D01*
X75000Y50000D01*
Y0D01*
G37*
G36*
X62299Y350000D02*X75000D01*
Y147500D01*
X72829Y147310D01*
X70725Y146746D01*
X68750Y145825D01*
X66965Y144576D01*
X65424Y143035D01*
X64175Y141250D01*
X63254Y139275D01*
X62690Y137171D01*
X62500Y135000D01*
X62690Y132829D01*
X63254Y130725D01*
X64175Y128750D01*
X65424Y126965D01*
X66965Y125424D01*
X68750Y124175D01*
X70725Y123254D01*
X72829Y122690D01*
X75000Y122500D01*
Y50000D01*
X74848Y51736D01*
X74397Y53420D01*
X73660Y55000D01*
X72660Y56428D01*
X71428Y57660D01*
X70000Y58660D01*
X68420Y59397D01*
X66736Y59848D01*
X65000Y60000D01*
X63264Y59848D01*
X62299Y59590D01*
Y226822D01*
X62416Y226992D01*
X63147Y228283D01*
X63762Y229632D01*
X64257Y231030D01*
X64628Y232466D01*
X64873Y233929D01*
X64989Y235407D01*
X64976Y236890D01*
X64834Y238366D01*
X64564Y239825D01*
X64167Y241254D01*
X63648Y242643D01*
X63010Y243982D01*
X62299Y245188D01*
Y350000D01*
G37*
G36*
X47888D02*X62299D01*
Y245188D01*
X62257Y245259D01*
X61396Y246467D01*
X61277Y246594D01*
X61138Y246699D01*
X60982Y246778D01*
X60816Y246829D01*
X60643Y246851D01*
X60469Y246841D01*
X60299Y246802D01*
X60138Y246734D01*
X59992Y246639D01*
X59865Y246520D01*
X59760Y246381D01*
X59681Y246225D01*
X59630Y246059D01*
X59608Y245886D01*
X59618Y245712D01*
X59657Y245542D01*
X59725Y245381D01*
X59820Y245235D01*
X60580Y244170D01*
X61244Y243043D01*
X61807Y241861D01*
X62265Y240636D01*
X62299Y240514D01*
Y231488D01*
X61907Y230381D01*
X61365Y229191D01*
X60720Y228052D01*
X59979Y226973D01*
X59980Y226972D01*
X59888Y226824D01*
X59823Y226663D01*
X59786Y226492D01*
X59780Y226318D01*
X59805Y226146D01*
X59859Y225980D01*
X59940Y225827D01*
X60048Y225689D01*
X60177Y225573D01*
X60325Y225481D01*
X60486Y225416D01*
X60657Y225379D01*
X60831Y225373D01*
X61003Y225398D01*
X61169Y225452D01*
X61322Y225533D01*
X61460Y225641D01*
X61576Y225770D01*
X62299Y226822D01*
Y59590D01*
X61580Y59397D01*
X60000Y58660D01*
X58572Y57660D01*
X57340Y56428D01*
X56340Y55000D01*
X55603Y53420D01*
X55152Y51736D01*
X55000Y50000D01*
X55152Y48264D01*
X55603Y46580D01*
X56340Y45000D01*
X57340Y43572D01*
X58572Y42340D01*
X60000Y41340D01*
X61580Y40603D01*
X62299Y40410D01*
Y0D01*
X47888D01*
Y85440D01*
X55160D01*
X55420Y85463D01*
X55673Y85530D01*
X55910Y85641D01*
X56124Y85791D01*
X56309Y85976D01*
X56459Y86190D01*
X56570Y86427D01*
X56637Y86680D01*
X56660Y86940D01*
Y95440D01*
X56637Y95700D01*
X56570Y95953D01*
X56459Y96190D01*
X56309Y96404D01*
X56124Y96589D01*
X55910Y96739D01*
X55673Y96850D01*
X55420Y96917D01*
X55160Y96940D01*
X47888D01*
Y219015D01*
X48889Y219024D01*
X50365Y219166D01*
X51824Y219436D01*
X53253Y219833D01*
X54642Y220352D01*
X55981Y220990D01*
X57258Y221743D01*
X58466Y222604D01*
X58593Y222723D01*
X58698Y222862D01*
X58777Y223018D01*
X58828Y223184D01*
X58850Y223357D01*
X58840Y223531D01*
X58801Y223701D01*
X58733Y223862D01*
X58638Y224008D01*
X58519Y224135D01*
X58380Y224240D01*
X58224Y224319D01*
X58058Y224370D01*
X57885Y224392D01*
X57711Y224382D01*
X57541Y224343D01*
X57380Y224275D01*
X57234Y224180D01*
X56169Y223420D01*
X55042Y222756D01*
X53860Y222193D01*
X52635Y221735D01*
X51374Y221385D01*
X50087Y221146D01*
X48785Y221021D01*
X47888Y221013D01*
Y250986D01*
X48523Y250991D01*
X49828Y250889D01*
X51118Y250673D01*
X52385Y250345D01*
X53619Y249908D01*
X54809Y249366D01*
X55948Y248721D01*
X57027Y247980D01*
X57028Y247981D01*
X57176Y247889D01*
X57337Y247824D01*
X57508Y247787D01*
X57682Y247781D01*
X57854Y247806D01*
X58020Y247860D01*
X58173Y247941D01*
X58311Y248049D01*
X58427Y248178D01*
X58519Y248326D01*
X58584Y248487D01*
X58621Y248658D01*
X58627Y248832D01*
X58602Y249004D01*
X58548Y249170D01*
X58467Y249323D01*
X58359Y249461D01*
X58230Y249577D01*
X57008Y250417D01*
X55717Y251148D01*
X54368Y251763D01*
X52970Y252258D01*
X51534Y252629D01*
X50071Y252874D01*
X48593Y252990D01*
X47888Y252984D01*
Y350000D01*
G37*
G36*
X33701D02*X47888D01*
Y252984D01*
X47110Y252977D01*
X45634Y252835D01*
X44175Y252565D01*
X42746Y252168D01*
X41357Y251649D01*
X40018Y251011D01*
X38741Y250258D01*
X37533Y249397D01*
X37406Y249278D01*
X37301Y249139D01*
X37222Y248983D01*
X37171Y248817D01*
X37149Y248644D01*
X37159Y248470D01*
X37198Y248300D01*
X37266Y248139D01*
X37361Y247993D01*
X37480Y247866D01*
X37619Y247761D01*
X37775Y247682D01*
X37941Y247631D01*
X38114Y247609D01*
X38288Y247619D01*
X38458Y247658D01*
X38619Y247726D01*
X38765Y247821D01*
X39830Y248581D01*
X40957Y249245D01*
X42139Y249808D01*
X43364Y250266D01*
X44625Y250616D01*
X45912Y250855D01*
X47214Y250980D01*
X47888Y250986D01*
Y221013D01*
X47476Y221010D01*
X46171Y221112D01*
X44881Y221328D01*
X43614Y221656D01*
X42380Y222093D01*
X41190Y222635D01*
X40051Y223280D01*
X38972Y224021D01*
X38971Y224020D01*
X38823Y224112D01*
X38662Y224177D01*
X38491Y224214D01*
X38317Y224220D01*
X38145Y224195D01*
X37979Y224141D01*
X37826Y224060D01*
X37688Y223952D01*
X37572Y223823D01*
X37480Y223675D01*
X37415Y223514D01*
X37378Y223343D01*
X37372Y223169D01*
X37397Y222997D01*
X37451Y222831D01*
X37532Y222678D01*
X37640Y222540D01*
X37769Y222424D01*
X38991Y221584D01*
X40282Y220853D01*
X41631Y220238D01*
X43029Y219743D01*
X44465Y219372D01*
X45928Y219127D01*
X47406Y219011D01*
X47888Y219015D01*
Y96940D01*
X46660D01*
X46400Y96917D01*
X46147Y96850D01*
X45910Y96739D01*
X45696Y96589D01*
X45511Y96404D01*
X45361Y96190D01*
X45250Y95953D01*
X45183Y95700D01*
X45160Y95440D01*
Y86940D01*
X45183Y86680D01*
X45250Y86427D01*
X45361Y86190D01*
X45511Y85976D01*
X45696Y85791D01*
X45910Y85641D01*
X46147Y85530D01*
X46400Y85463D01*
X46660Y85440D01*
X47888D01*
Y0D01*
X33701D01*
Y18458D01*
X33847Y18489D01*
X34009Y18554D01*
X34156Y18647D01*
X34286Y18764D01*
X34393Y18901D01*
X34903Y19769D01*
X35333Y20680D01*
X35679Y21625D01*
X35939Y22598D01*
X36110Y23591D01*
X36192Y24595D01*
X36183Y25602D01*
X36084Y26604D01*
X35895Y27593D01*
X35618Y28561D01*
X35256Y29501D01*
X34810Y30404D01*
X34285Y31263D01*
X34175Y31398D01*
X34044Y31513D01*
X33894Y31603D01*
X33732Y31665D01*
X33701Y31671D01*
Y75734D01*
X35000Y76340D01*
X36428Y77340D01*
X37660Y78572D01*
X38660Y80000D01*
X39397Y81580D01*
X39848Y83264D01*
X40000Y85000D01*
X39848Y86736D01*
X39397Y88420D01*
X38660Y90000D01*
X37660Y91428D01*
X36428Y92660D01*
X35000Y93660D01*
X33701Y94266D01*
Y125734D01*
X35000Y126340D01*
X36428Y127340D01*
X37660Y128572D01*
X38660Y130000D01*
X39397Y131580D01*
X39848Y133264D01*
X40000Y135000D01*
X39848Y136736D01*
X39397Y138420D01*
X38660Y140000D01*
X37660Y141428D01*
X36428Y142660D01*
X35000Y143660D01*
X33701Y144266D01*
Y175734D01*
X35000Y176340D01*
X36428Y177340D01*
X37660Y178572D01*
X38660Y180000D01*
X39397Y181580D01*
X39848Y183264D01*
X40000Y185000D01*
X39848Y186736D01*
X39397Y188420D01*
X38660Y190000D01*
X37660Y191428D01*
X36428Y192660D01*
X35000Y193660D01*
X33701Y194266D01*
Y226812D01*
X33742Y226742D01*
X34603Y225534D01*
X34722Y225407D01*
X34861Y225302D01*
X35017Y225223D01*
X35183Y225172D01*
X35356Y225150D01*
X35530Y225160D01*
X35700Y225199D01*
X35861Y225267D01*
X36007Y225362D01*
X36134Y225481D01*
X36239Y225620D01*
X36318Y225776D01*
X36369Y225942D01*
X36391Y226115D01*
X36381Y226289D01*
X36342Y226459D01*
X36274Y226620D01*
X36179Y226766D01*
X35419Y227831D01*
X34755Y228958D01*
X34192Y230140D01*
X33734Y231365D01*
X33701Y231484D01*
Y240516D01*
X34092Y241620D01*
X34634Y242810D01*
X35279Y243949D01*
X36020Y245028D01*
X36019Y245029D01*
X36111Y245177D01*
X36176Y245338D01*
X36213Y245509D01*
X36219Y245683D01*
X36194Y245855D01*
X36140Y246021D01*
X36059Y246174D01*
X35951Y246312D01*
X35822Y246428D01*
X35674Y246520D01*
X35513Y246585D01*
X35342Y246622D01*
X35168Y246628D01*
X34996Y246603D01*
X34830Y246549D01*
X34677Y246468D01*
X34539Y246360D01*
X34423Y246231D01*
X33701Y245181D01*
Y323458D01*
X33847Y323489D01*
X34009Y323554D01*
X34156Y323647D01*
X34286Y323764D01*
X34393Y323901D01*
X34903Y324769D01*
X35333Y325680D01*
X35679Y326625D01*
X35939Y327598D01*
X36110Y328591D01*
X36192Y329595D01*
X36183Y330602D01*
X36084Y331604D01*
X35895Y332593D01*
X35618Y333561D01*
X35256Y334501D01*
X34810Y335404D01*
X34285Y336263D01*
X34175Y336398D01*
X34044Y336513D01*
X33894Y336603D01*
X33732Y336665D01*
X33701Y336671D01*
Y350000D01*
G37*
G36*
Y231484D02*X33384Y232626D01*
X33145Y233913D01*
X33020Y235215D01*
X33009Y236524D01*
X33111Y237829D01*
X33327Y239119D01*
X33655Y240386D01*
X33701Y240516D01*
Y231484D01*
G37*
G36*
Y144266D02*X33420Y144397D01*
X31736Y144848D01*
X30000Y145000D01*
Y175000D01*
X31736Y175152D01*
X33420Y175603D01*
X33701Y175734D01*
Y144266D01*
G37*
G36*
Y94266D02*X33420Y94397D01*
X31736Y94848D01*
X30000Y95000D01*
Y125000D01*
X31736Y125152D01*
X33420Y125603D01*
X33701Y125734D01*
Y94266D01*
G37*
G36*
Y0D02*X30000D01*
Y14991D01*
X30403Y15190D01*
X31262Y15715D01*
X31397Y15825D01*
X31512Y15956D01*
X31602Y16106D01*
X31664Y16268D01*
X31697Y16439D01*
X31700Y16614D01*
X31673Y16786D01*
X31616Y16951D01*
X31532Y17103D01*
X31422Y17238D01*
X31291Y17353D01*
X31141Y17443D01*
X30979Y17505D01*
X30808Y17538D01*
X30633Y17541D01*
X30461Y17514D01*
X30296Y17457D01*
X30144Y17373D01*
X30000Y17285D01*
Y32722D01*
X30010Y32716D01*
X30011D01*
X30165Y32634D01*
X30331Y32581D01*
X30503Y32556D01*
X30678Y32563D01*
X30848Y32599D01*
X31010Y32664D01*
X31157Y32757D01*
X31287Y32874D01*
X31394Y33011D01*
X31476Y33165D01*
X31529Y33331D01*
X31554Y33503D01*
X31547Y33678D01*
X31511Y33848D01*
X31446Y34010D01*
X31353Y34157D01*
X31236Y34287D01*
X31099Y34394D01*
X30231Y34904D01*
X30000Y35013D01*
Y75000D01*
X31736Y75152D01*
X33420Y75603D01*
X33701Y75734D01*
Y31671D01*
X33561Y31698D01*
X33386Y31701D01*
X33214Y31674D01*
X33049Y31617D01*
X32897Y31533D01*
X32762Y31423D01*
X32647Y31292D01*
X32557Y31142D01*
X32495Y30980D01*
X32462Y30809D01*
X32459Y30634D01*
X32486Y30462D01*
X32543Y30297D01*
X32627Y30145D01*
X33058Y29439D01*
X33424Y28697D01*
X33701Y27980D01*
Y22034D01*
X33487Y21451D01*
X33134Y20703D01*
X32715Y19990D01*
Y19989D01*
X32633Y19835D01*
X32580Y19669D01*
X32555Y19497D01*
X32562Y19322D01*
X32598Y19152D01*
X32663Y18990D01*
X32756Y18843D01*
X32873Y18713D01*
X33010Y18606D01*
X33164Y18524D01*
X33330Y18471D01*
X33502Y18446D01*
X33677Y18453D01*
X33701Y18458D01*
Y0D01*
G37*
G36*
X30000Y350000D02*X33701D01*
Y336671D01*
X33561Y336698D01*
X33386Y336701D01*
X33214Y336674D01*
X33049Y336617D01*
X32897Y336533D01*
X32762Y336423D01*
X32647Y336292D01*
X32557Y336142D01*
X32495Y335980D01*
X32462Y335809D01*
X32459Y335634D01*
X32486Y335462D01*
X32543Y335297D01*
X32627Y335145D01*
X33058Y334439D01*
X33424Y333697D01*
X33701Y332980D01*
Y327034D01*
X33487Y326451D01*
X33134Y325703D01*
X32715Y324990D01*
Y324989D01*
X32633Y324835D01*
X32580Y324669D01*
X32555Y324497D01*
X32562Y324322D01*
X32598Y324152D01*
X32663Y323990D01*
X32756Y323843D01*
X32873Y323713D01*
X33010Y323606D01*
X33164Y323524D01*
X33330Y323471D01*
X33502Y323446D01*
X33677Y323453D01*
X33701Y323458D01*
Y245181D01*
X33583Y245009D01*
X32852Y243718D01*
X32237Y242369D01*
X31742Y240971D01*
X31371Y239535D01*
X31126Y238072D01*
X31010Y236594D01*
X31023Y235111D01*
X31165Y233635D01*
X31435Y232176D01*
X31832Y230747D01*
X32351Y229358D01*
X32989Y228019D01*
X33701Y226812D01*
Y194266D01*
X33420Y194397D01*
X31736Y194848D01*
X30000Y195000D01*
Y319991D01*
X30403Y320190D01*
X31262Y320715D01*
X31397Y320825D01*
X31512Y320956D01*
X31602Y321106D01*
X31664Y321268D01*
X31697Y321439D01*
X31700Y321614D01*
X31673Y321786D01*
X31616Y321951D01*
X31532Y322103D01*
X31422Y322238D01*
X31291Y322353D01*
X31141Y322443D01*
X30979Y322505D01*
X30808Y322538D01*
X30633Y322541D01*
X30461Y322514D01*
X30296Y322457D01*
X30144Y322373D01*
X30000Y322285D01*
Y337722D01*
X30010Y337716D01*
X30011D01*
X30165Y337634D01*
X30331Y337581D01*
X30503Y337556D01*
X30678Y337563D01*
X30848Y337599D01*
X31010Y337664D01*
X31157Y337757D01*
X31287Y337874D01*
X31394Y338011D01*
X31476Y338165D01*
X31529Y338331D01*
X31554Y338503D01*
X31547Y338678D01*
X31511Y338848D01*
X31446Y339010D01*
X31353Y339157D01*
X31236Y339287D01*
X31099Y339394D01*
X30231Y339904D01*
X30000Y340013D01*
Y350000D01*
G37*
G36*
X15674D02*X30000D01*
Y340013D01*
X29320Y340334D01*
X28375Y340680D01*
X27402Y340940D01*
X26409Y341111D01*
X25405Y341193D01*
X24398Y341184D01*
X23396Y341085D01*
X22407Y340896D01*
X21439Y340619D01*
X20499Y340257D01*
X19596Y339811D01*
X18737Y339286D01*
X18602Y339176D01*
X18487Y339045D01*
X18397Y338895D01*
X18335Y338733D01*
X18302Y338562D01*
X18299Y338387D01*
X18326Y338215D01*
X18383Y338050D01*
X18467Y337898D01*
X18577Y337763D01*
X18708Y337648D01*
X18858Y337558D01*
X19020Y337496D01*
X19191Y337463D01*
X19366Y337460D01*
X19538Y337487D01*
X19703Y337544D01*
X19855Y337628D01*
X20561Y338059D01*
X21303Y338425D01*
X22074Y338723D01*
X22870Y338951D01*
X23682Y339106D01*
X24506Y339187D01*
X25333Y339194D01*
X26157Y339127D01*
X26973Y338986D01*
X27772Y338773D01*
X28549Y338488D01*
X29297Y338135D01*
X30000Y337722D01*
Y322285D01*
X29438Y321942D01*
X28696Y321576D01*
X27925Y321278D01*
X27129Y321050D01*
X26317Y320895D01*
X25493Y320814D01*
X24666Y320807D01*
X23842Y320874D01*
X23026Y321015D01*
X22227Y321228D01*
X21450Y321513D01*
X20702Y321866D01*
X19989Y322285D01*
X19988D01*
X19834Y322367D01*
X19668Y322420D01*
X19496Y322445D01*
X19321Y322438D01*
X19151Y322402D01*
X18989Y322337D01*
X18842Y322244D01*
X18712Y322127D01*
X18605Y321990D01*
X18523Y321836D01*
X18470Y321670D01*
X18445Y321498D01*
X18452Y321323D01*
X18488Y321153D01*
X18553Y320991D01*
X18646Y320844D01*
X18763Y320714D01*
X18900Y320607D01*
X19768Y320097D01*
X20679Y319667D01*
X21624Y319321D01*
X22597Y319061D01*
X23590Y318890D01*
X24594Y318808D01*
X25601Y318817D01*
X26603Y318916D01*
X27592Y319105D01*
X28560Y319382D01*
X29500Y319744D01*
X30000Y319991D01*
Y195000D01*
X28264Y194848D01*
X26580Y194397D01*
X25000Y193660D01*
X23572Y192660D01*
X22340Y191428D01*
X21340Y190000D01*
X20603Y188420D01*
X20152Y186736D01*
X20000Y185000D01*
X20152Y183264D01*
X20603Y181580D01*
X21340Y180000D01*
X22340Y178572D01*
X23572Y177340D01*
X25000Y176340D01*
X26580Y175603D01*
X28264Y175152D01*
X30000Y175000D01*
Y145000D01*
X28264Y144848D01*
X26580Y144397D01*
X25000Y143660D01*
X23572Y142660D01*
X22340Y141428D01*
X21340Y140000D01*
X20603Y138420D01*
X20152Y136736D01*
X20000Y135000D01*
X20152Y133264D01*
X20603Y131580D01*
X21340Y130000D01*
X22340Y128572D01*
X23572Y127340D01*
X25000Y126340D01*
X26580Y125603D01*
X28264Y125152D01*
X30000Y125000D01*
Y95000D01*
X28264Y94848D01*
X26580Y94397D01*
X25000Y93660D01*
X23572Y92660D01*
X22340Y91428D01*
X21340Y90000D01*
X20603Y88420D01*
X20152Y86736D01*
X20000Y85000D01*
X20152Y83264D01*
X20603Y81580D01*
X21340Y80000D01*
X22340Y78572D01*
X23572Y77340D01*
X25000Y76340D01*
X26580Y75603D01*
X28264Y75152D01*
X30000Y75000D01*
Y35013D01*
X29320Y35334D01*
X28375Y35680D01*
X27402Y35940D01*
X26409Y36111D01*
X25405Y36193D01*
X24398Y36184D01*
X23396Y36085D01*
X22407Y35896D01*
X21439Y35619D01*
X20499Y35257D01*
X19596Y34811D01*
X18737Y34286D01*
X18602Y34176D01*
X18487Y34045D01*
X18397Y33895D01*
X18335Y33733D01*
X18302Y33562D01*
X18299Y33387D01*
X18326Y33215D01*
X18383Y33050D01*
X18467Y32898D01*
X18577Y32763D01*
X18708Y32648D01*
X18858Y32558D01*
X19020Y32496D01*
X19191Y32463D01*
X19366Y32460D01*
X19538Y32487D01*
X19703Y32544D01*
X19855Y32628D01*
X20561Y33059D01*
X21303Y33425D01*
X22074Y33723D01*
X22870Y33951D01*
X23682Y34106D01*
X24506Y34187D01*
X25333Y34194D01*
X26157Y34127D01*
X26973Y33986D01*
X27772Y33773D01*
X28549Y33488D01*
X29297Y33135D01*
X30000Y32722D01*
Y17285D01*
X29438Y16942D01*
X28696Y16576D01*
X27925Y16278D01*
X27129Y16050D01*
X26317Y15895D01*
X25493Y15814D01*
X24666Y15807D01*
X23842Y15874D01*
X23026Y16015D01*
X22227Y16228D01*
X21450Y16513D01*
X20702Y16866D01*
X19989Y17285D01*
X19988D01*
X19834Y17367D01*
X19668Y17420D01*
X19496Y17445D01*
X19321Y17438D01*
X19151Y17402D01*
X18989Y17337D01*
X18842Y17244D01*
X18712Y17127D01*
X18605Y16990D01*
X18523Y16836D01*
X18470Y16670D01*
X18445Y16498D01*
X18452Y16323D01*
X18488Y16153D01*
X18553Y15991D01*
X18646Y15844D01*
X18763Y15714D01*
X18900Y15607D01*
X19768Y15097D01*
X20679Y14667D01*
X21624Y14321D01*
X22597Y14061D01*
X23590Y13890D01*
X24594Y13808D01*
X25601Y13817D01*
X26603Y13916D01*
X27592Y14105D01*
X28560Y14382D01*
X29500Y14744D01*
X30000Y14991D01*
Y0D01*
X15674D01*
Y18803D01*
X15714Y18738D01*
X15824Y18603D01*
X15955Y18488D01*
X16105Y18398D01*
X16267Y18336D01*
X16438Y18303D01*
X16613Y18300D01*
X16785Y18327D01*
X16950Y18384D01*
X17102Y18468D01*
X17237Y18578D01*
X17352Y18709D01*
X17442Y18859D01*
X17504Y19021D01*
X17537Y19192D01*
X17540Y19367D01*
X17513Y19539D01*
X17456Y19704D01*
X17372Y19856D01*
X16941Y20562D01*
X16575Y21304D01*
X16277Y22075D01*
X16049Y22871D01*
X15894Y23683D01*
X15813Y24507D01*
X15806Y25334D01*
X15873Y26158D01*
X16014Y26974D01*
X16227Y27773D01*
X16512Y28550D01*
X16865Y29298D01*
X17284Y30011D01*
Y30012D01*
X17366Y30166D01*
X17419Y30332D01*
X17444Y30504D01*
X17437Y30679D01*
X17401Y30849D01*
X17336Y31011D01*
X17243Y31158D01*
X17126Y31288D01*
X16989Y31395D01*
X16835Y31477D01*
X16669Y31530D01*
X16497Y31555D01*
X16322Y31548D01*
X16152Y31512D01*
X15990Y31447D01*
X15843Y31354D01*
X15713Y31237D01*
X15674Y31187D01*
Y323803D01*
X15714Y323738D01*
X15824Y323603D01*
X15955Y323488D01*
X16105Y323398D01*
X16267Y323336D01*
X16438Y323303D01*
X16613Y323300D01*
X16785Y323327D01*
X16950Y323384D01*
X17102Y323468D01*
X17237Y323578D01*
X17352Y323709D01*
X17442Y323859D01*
X17504Y324021D01*
X17537Y324192D01*
X17540Y324367D01*
X17513Y324539D01*
X17456Y324704D01*
X17372Y324856D01*
X16941Y325562D01*
X16575Y326304D01*
X16277Y327075D01*
X16049Y327871D01*
X15894Y328683D01*
X15813Y329507D01*
X15806Y330334D01*
X15873Y331158D01*
X16014Y331974D01*
X16227Y332773D01*
X16512Y333550D01*
X16865Y334298D01*
X17284Y335011D01*
Y335012D01*
X17366Y335166D01*
X17419Y335332D01*
X17444Y335504D01*
X17437Y335679D01*
X17401Y335849D01*
X17336Y336011D01*
X17243Y336158D01*
X17126Y336288D01*
X16989Y336395D01*
X16835Y336477D01*
X16669Y336530D01*
X16497Y336555D01*
X16322Y336548D01*
X16152Y336512D01*
X15990Y336447D01*
X15843Y336354D01*
X15713Y336237D01*
X15674Y336187D01*
Y350000D01*
G37*
G36*
X0Y0D02*Y350000D01*
X15674D01*
Y336187D01*
X15606Y336100D01*
X15096Y335232D01*
X14666Y334321D01*
X14320Y333376D01*
X14060Y332403D01*
X13889Y331410D01*
X13807Y330406D01*
X13816Y329399D01*
X13915Y328397D01*
X14104Y327408D01*
X14381Y326440D01*
X14743Y325500D01*
X15189Y324597D01*
X15674Y323803D01*
Y31187D01*
X15606Y31100D01*
X15096Y30232D01*
X14666Y29321D01*
X14320Y28376D01*
X14060Y27403D01*
X13889Y26410D01*
X13807Y25406D01*
X13816Y24399D01*
X13915Y23397D01*
X14104Y22408D01*
X14381Y21440D01*
X14743Y20500D01*
X15189Y19597D01*
X15674Y18803D01*
Y0D01*
X0D01*
G37*
G36*
X356500Y213500D02*Y206500D01*
X363500D01*
Y213500D01*
X356500D01*
G37*
G54D12*X360000Y175000D03*
G54D13*X370000Y210000D03*
G54D11*G36*
X290233Y185249D02*Y177749D01*
X297733D01*
Y185249D01*
X290233D01*
G37*
G36*
X353590Y115700D02*Y107200D01*
X362090D01*
Y115700D01*
X353590D01*
G37*
G36*
X351750Y133250D02*Y126750D01*
X358250D01*
Y133250D01*
X351750D01*
G37*
G54D14*X355000Y140000D03*
X365000Y130000D03*
Y140000D03*
G54D11*G36*
X336500Y193500D02*Y186500D01*
X343500D01*
Y193500D01*
X336500D01*
G37*
G36*
X347000Y88000D02*Y82000D01*
X353000D01*
Y88000D01*
X347000D01*
G37*
G54D15*X340000Y85000D03*
X330000D03*
G54D13*X380000Y210000D03*
G54D12*Y175000D03*
G54D13*Y190000D03*
G54D11*G36*
X376500Y238500D02*Y231500D01*
X383500D01*
Y238500D01*
X376500D01*
G37*
G54D15*X330000Y55000D03*
X340000D03*
X350000D03*
G54D11*G36*
X371600Y83400D02*Y76600D01*
X378400D01*
Y83400D01*
X371600D01*
G37*
G54D16*X375000Y120000D03*
G54D14*Y130000D03*
Y140000D03*
G54D11*G36*
X356500Y288500D02*Y281500D01*
X363500D01*
Y288500D01*
X356500D01*
G37*
G36*
X336500Y313500D02*Y306500D01*
X343500D01*
Y313500D01*
X336500D01*
G37*
G54D13*X340000Y265000D03*
G54D12*X360000Y250000D03*
G54D13*X340000Y235000D03*
X370000Y285000D03*
X380000D03*
Y310000D03*
G54D11*G36*
X376500Y268500D02*Y261500D01*
X383500D01*
Y268500D01*
X376500D01*
G37*
G54D12*X380000Y250000D03*
G54D17*X65000Y50000D03*
X30000Y135000D03*
G54D11*G36*
X46660Y95440D02*Y86940D01*
X55160D01*
Y95440D01*
X46660D01*
G37*
G54D17*X30000Y85000D03*
G54D18*X75000Y135000D03*
X105000D03*
X179700D03*
X209700D03*
G54D19*X226340Y60000D03*
G54D20*X130910Y91190D03*
G54D19*X135000Y60000D03*
G54D17*X110000Y50000D03*
G54D20*X277840Y111450D03*
X254160Y119360D03*
G54D21*X280000Y74500D03*
Y37000D03*
G54D11*G36*
X249910Y43610D02*Y35110D01*
X258410D01*
Y43610D01*
X249910D01*
G37*
G36*
X316470Y145770D02*Y137270D01*
X324970D01*
Y145770D01*
X316470D01*
G37*
G54D20*X240720Y141520D03*
G54D11*G36*
X301500Y63500D02*Y56500D01*
X308500D01*
Y63500D01*
X301500D01*
G37*
G54D13*X305000Y70000D03*
Y80000D03*
G54D22*X237000Y236000D03*
G54D11*G36*
X290724Y322666D02*Y315166D01*
X298224D01*
Y322666D01*
X290724D01*
G37*
G54D23*X294474Y278916D03*
X293983Y221499D03*
G54D24*X180000Y301000D03*
X155000D03*
X130000D03*
X105000D03*
G54D19*X156000Y334000D03*
X176000D03*
X136000D03*
X116000D03*
G54D24*X105000Y171000D03*
X130000D03*
X155000D03*
X180000D03*
G54D22*X48000Y236000D03*
G54D17*X30000Y185000D03*
G54D25*X365000Y330000D03*
X25000D03*
Y25000D03*
X365000D03*
G54D26*G54D27*G54D26*G54D28*G54D29*G54D30*G54D26*G54D31*G54D26*G54D27*G54D26*G54D31*G54D30*G54D26*G54D27*G54D26*G54D27*G54D32*G54D29*G54D32*G54D24*G54D33*G54D29*G54D33*G54D32*G54D29*G54D34*G54D29*G54D26*G54D18*G54D28*G54D15*G54D18*G54D32*G54D35*M02*
