M48
INCH
T15C0.200
T16C0.060
T20C0.100
T25C0.048
T27C0.028
T29C0.038
T30C0.040
T31C0.030
T32C0.035
T33C0.125
T48C0.051
T49C0.047
%
T27
X035000Y008500
X034000Y008500
X033000Y008500
X035000Y005500
X033000Y005500
X034000Y005500
T31
X028000Y003700
X028000Y007450
T32
X034000Y019000
X036000Y019000
X036000Y025500
X034000Y025500
T29
X035500Y013000
X035500Y014000
X036500Y013000
X037500Y013000
X037500Y012000
X037500Y008000
X036500Y014000
X037500Y014000
T30
X030500Y006000
X030500Y007000
X030500Y008000
X034000Y021000
X035000Y021000
X036000Y021000
X036000Y028500
X036000Y031000
X036000Y023500
X034000Y028500
X035000Y028500
X032000Y031000
X032000Y023500
T49
X013500Y006000
X022634Y006000
T25
X005881Y020091
X005881Y028091
X035784Y011145
X027784Y011145
X032072Y014152
X025416Y003936
X025416Y011936
X024072Y014152
T48
X006500Y005000
X003000Y018500
X003000Y013500
X003000Y023500
X011000Y005000
T16
X022100Y032900
X020100Y032900
X018100Y032900
X016100Y032900
X022500Y029600
X020000Y029600
X017500Y029600
X015000Y029600
X015000Y016600
X017500Y016600
X020000Y016600
X022500Y016600
T20
X007500Y013500
X010500Y013500
X017970Y013500
X020970Y013500
T33
X037500Y032500
X002500Y032500
X002500Y002500
X037500Y002500
T15
X009300Y023100
X028200Y023100
M30
