G04 start of page 3 for group 1 idx 1 *
G04 Title: highvoltage, solder *
G04 Creator: pcb 20091103 *
G04 CreationDate: Wed 03 Feb 2010 09:09:45 PM GMT UTC *
G04 For: srussell *
G04 Format: Gerber/RS-274X *
G04 PCB-Dimensions: 400000 350000 *
G04 PCB-Coordinate-Origin: lower left *
%MOIN*%
%FSLAX25Y25*%
%LNBACK*%
%ADD11C,0.0200*%
%ADD12C,0.0800*%
%ADD13C,0.0700*%
%ADD14C,0.0650*%
%ADD15C,0.0600*%
%ADD16C,0.0680*%
%ADD17C,0.1500*%
%ADD18C,0.2000*%
%ADD19C,0.1150*%
%ADD20C,0.0850*%
%ADD21C,0.0560*%
%ADD22C,0.3000*%
%ADD23C,0.0750*%
%ADD24C,0.1000*%
%ADD25C,0.1840*%
%ADD26C,0.0400*%
%ADD27C,0.0350*%
%ADD28C,0.0500*%
%ADD29C,0.0480*%
%ADD30C,0.0380*%
%ADD31C,0.0280*%
%ADD32C,0.0508*%
%ADD33C,0.0473*%
%ADD34C,0.0300*%
%ADD35C,0.1250*%
%ADD36C,0.0550*%
G54D24*X179700Y135000D02*X209700D01*
X179700D02*X155000Y159700D01*
X121000Y155000D02*X160000D01*
X166000Y185000D02*X180000Y171000D01*
X155000Y159700D02*Y171000D01*
X130000D02*X116000Y185000D01*
X30000D02*X10000Y165000D01*
X105000Y171000D02*X121000Y155000D01*
X65000Y50000D02*X30000D01*
Y135000D02*X105000D01*
X10000Y70000D02*Y165000D01*
X30000Y50000D02*X10000Y70000D01*
X30000Y85000D02*X36190Y91190D01*
X50910D01*
X110000Y50000D02*X120000Y60000D01*
X30000Y185000D02*X166000D01*
X105000Y303000D02*Y301000D01*
X116000Y185000D02*X110000D01*
X85000Y290000D02*X100000Y275000D01*
X180000Y310000D02*Y301000D01*
X100000Y275000D02*X240482D01*
X240000D01*
X136000Y334000D02*X105000Y303000D01*
X99000Y334000D02*X85000Y320000D01*
Y290000D01*
X116000Y334000D02*X99000D01*
X209700Y135000D02*X225340Y119360D01*
X240720Y141520D02*X240000Y140800D01*
Y120000D01*
X120000Y60000D02*X135000D01*
G54D28*X365000Y165000D02*X355000Y155000D01*
X375000Y165000D02*X365000D01*
X380000Y170000D02*X375000Y165000D01*
X390000D02*X380000Y155000D01*
X370000D01*
X390000Y130000D02*Y120000D01*
G54D36*X375000Y130000D02*Y120000D01*
G54D28*Y140000D02*X380000D01*
X390000Y130000D01*
Y120000D02*X381450Y111450D01*
X355000Y155000D02*Y140000D01*
X365000Y150000D02*Y140000D01*
X370000Y155000D02*X365000Y150000D01*
G54D24*X277840Y111450D02*X269930Y119360D01*
G54D28*X320000Y142240D02*X320720Y141520D01*
G54D24*X225340Y119360D02*X269930D01*
G54D12*X283550Y111450D02*X277840D01*
G54D28*X381450D02*X357840D01*
G54D24*X156000Y334000D02*X180000Y310000D01*
X176000Y334000D02*X274390D01*
X294474Y318916D01*
X340000Y273390D01*
X293983Y221499D02*X240482Y275000D01*
X308501Y221499D02*X293983D01*
G54D28*X370000Y205000D02*X355000Y190000D01*
X370000Y210000D02*Y205000D01*
X355000Y190000D02*X340000D01*
G54D24*X308501Y221499D01*
G54D28*X380000Y235000D02*Y170000D01*
G54D24*X340000Y273390D02*Y265000D01*
G54D28*X360000Y285000D02*X330000D01*
X380000Y310000D02*Y250000D01*
X385000D01*
X390000Y245000D01*
Y165000D01*
G54D12*X295000Y100000D02*X283550Y111450D01*
X295000Y75000D02*Y100000D01*
X280000Y65000D02*Y74500D01*
G54D28*X320720Y141520D02*Y84803D01*
X330523Y75000D01*
X305000Y80000D02*X315000D01*
X330000Y65000D01*
G54D12*X300000Y70000D02*X295000Y75000D01*
G54D28*X330000D02*X340000D01*
X350000Y65000D01*
Y55000D01*
X330000Y65000D02*Y55000D01*
X355000Y80000D02*X375000D01*
X350000Y85000D02*X355000Y80000D01*
G54D12*X305000Y70000D02*X300000D01*
G54D24*X244500Y60000D02*X226340D01*
G54D12*X305000D02*X285000D01*
X280000Y65000D01*
G54D24*X245000Y60000D02*X259500Y74500D01*
X280000D01*
X254160Y39360D02*X256520Y37000D01*
X280000D01*
G54D11*G36*
X356500Y213500D02*Y206500D01*
X363500D01*
Y213500D01*
X356500D01*
G37*
G54D12*X360000Y175000D03*
G54D13*X370000Y210000D03*
G54D11*G36*
X290233Y185249D02*Y177749D01*
X297733D01*
Y185249D01*
X290233D01*
G37*
G36*
X353590Y115700D02*Y107200D01*
X362090D01*
Y115700D01*
X353590D01*
G37*
G36*
X351750Y133250D02*Y126750D01*
X358250D01*
Y133250D01*
X351750D01*
G37*
G54D14*X355000Y140000D03*
X365000Y130000D03*
Y140000D03*
G54D11*G36*
X336500Y193500D02*Y186500D01*
X343500D01*
Y193500D01*
X336500D01*
G37*
G36*
X347000Y88000D02*Y82000D01*
X353000D01*
Y88000D01*
X347000D01*
G37*
G54D15*X340000Y85000D03*
X330000D03*
G54D13*X380000Y210000D03*
G54D12*Y175000D03*
G54D13*Y190000D03*
G54D11*G36*
X376500Y238500D02*Y231500D01*
X383500D01*
Y238500D01*
X376500D01*
G37*
G54D15*X330000Y55000D03*
X340000D03*
X350000D03*
G54D11*G36*
X371600Y83400D02*Y76600D01*
X378400D01*
Y83400D01*
X371600D01*
G37*
G54D16*X375000Y120000D03*
G54D14*Y130000D03*
Y140000D03*
G54D11*G36*
X356500Y288500D02*Y281500D01*
X363500D01*
Y288500D01*
X356500D01*
G37*
G36*
X336500Y313500D02*Y306500D01*
X343500D01*
Y313500D01*
X336500D01*
G37*
G54D13*X340000Y265000D03*
G54D12*X360000Y250000D03*
G54D13*X340000Y235000D03*
X370000Y285000D03*
X380000D03*
Y310000D03*
G54D11*G36*
X376500Y268500D02*Y261500D01*
X383500D01*
Y268500D01*
X376500D01*
G37*
G54D12*X380000Y250000D03*
G54D17*X65000Y50000D03*
X30000Y135000D03*
G54D11*G36*
X46660Y95440D02*Y86940D01*
X55160D01*
Y95440D01*
X46660D01*
G37*
G54D17*X30000Y85000D03*
G54D18*X75000Y135000D03*
X105000D03*
X179700D03*
X209700D03*
G54D19*X226340Y60000D03*
G54D20*X130910Y91190D03*
G54D19*X135000Y60000D03*
G54D17*X110000Y50000D03*
G54D20*X277840Y111450D03*
X254160Y119360D03*
G54D21*X280000Y74500D03*
Y37000D03*
G54D11*G36*
X249910Y43610D02*Y35110D01*
X258410D01*
Y43610D01*
X249910D01*
G37*
G36*
X316470Y145770D02*Y137270D01*
X324970D01*
Y145770D01*
X316470D01*
G37*
G54D20*X240720Y141520D03*
G54D11*G36*
X301500Y63500D02*Y56500D01*
X308500D01*
Y63500D01*
X301500D01*
G37*
G54D13*X305000Y70000D03*
Y80000D03*
G54D22*X237000Y236000D03*
G54D11*G36*
X290724Y322666D02*Y315166D01*
X298224D01*
Y322666D01*
X290724D01*
G37*
G54D23*X294474Y278916D03*
X293983Y221499D03*
G54D24*X180000Y301000D03*
X155000D03*
X130000D03*
X105000D03*
G54D19*X156000Y334000D03*
X176000D03*
X136000D03*
X116000D03*
G54D24*X105000Y171000D03*
X130000D03*
X155000D03*
X180000D03*
G54D22*X48000Y236000D03*
G54D17*X30000Y185000D03*
G54D25*X365000Y330000D03*
X25000D03*
Y25000D03*
X365000D03*
G54D26*G54D27*G54D26*G54D28*G54D29*G54D30*G54D26*G54D31*G54D26*G54D27*G54D26*G54D31*G54D30*G54D26*G54D27*G54D26*G54D27*G54D32*G54D29*G54D32*G54D24*G54D33*G54D29*G54D33*G54D32*G54D29*G54D34*G54D29*G54D26*G54D18*G54D28*G54D15*G54D18*G54D32*G54D35*M02*
