G04 start of page 4 for group -4063 idx -4063 *
G04 Title: highvoltage, componentmask *
G04 Creator: pcb 20091103 *
G04 CreationDate: Wed 03 Feb 2010 09:09:45 PM GMT UTC *
G04 For: srussell *
G04 Format: Gerber/RS-274X *
G04 PCB-Dimensions: 400000 350000 *
G04 PCB-Coordinate-Origin: lower left *
%MOIN*%
%FSLAX25Y25*%
%LNFRONTMASK*%
%ADD11C,0.0200*%
%ADD19C,0.1150*%
%ADD37C,0.1100*%
%ADD38C,0.0760*%
%ADD39C,0.0710*%
%ADD40C,0.0660*%
%ADD41C,0.0740*%
%ADD42C,0.1600*%
%ADD43C,0.2100*%
%ADD44C,0.1210*%
%ADD45C,0.0620*%
%ADD46C,0.3050*%
%ADD47C,0.0810*%
%ADD48C,0.1050*%
G54D11*G36*
X356200Y213800D02*Y206200D01*
X363800D01*
Y213800D01*
X356200D01*
G37*
G54D37*X360000Y175000D03*
G54D38*X370000Y210000D03*
G54D11*G36*
X289933Y185549D02*Y177449D01*
X298033D01*
Y185549D01*
X289933D01*
G37*
G36*
X352090Y117200D02*Y105700D01*
X363590D01*
Y117200D01*
X352090D01*
G37*
G36*
X351450Y133550D02*Y126450D01*
X358550D01*
Y133550D01*
X351450D01*
G37*
G54D39*X355000Y140000D03*
X365000Y130000D03*
Y140000D03*
G54D11*G36*
X336200Y193800D02*Y186200D01*
X343800D01*
Y193800D01*
X336200D01*
G37*
G36*
X346700Y88300D02*Y81700D01*
X353300D01*
Y88300D01*
X346700D01*
G37*
G54D40*X340000Y85000D03*
X330000D03*
G54D38*X380000Y210000D03*
G54D37*Y175000D03*
G54D38*Y190000D03*
G54D11*G36*
X376200Y238800D02*Y231200D01*
X383800D01*
Y238800D01*
X376200D01*
G37*
G54D40*X330000Y55000D03*
X340000D03*
X350000D03*
G54D11*G36*
X371300Y83700D02*Y76300D01*
X378700D01*
Y83700D01*
X371300D01*
G37*
G54D41*X375000Y120000D03*
G54D39*Y130000D03*
Y140000D03*
G54D11*G36*
X356200Y288800D02*Y281200D01*
X363800D01*
Y288800D01*
X356200D01*
G37*
G36*
X336200Y313800D02*Y306200D01*
X343800D01*
Y313800D01*
X336200D01*
G37*
G54D38*X340000Y265000D03*
G54D37*X360000Y250000D03*
G54D38*X340000Y235000D03*
X370000Y285000D03*
X380000D03*
Y310000D03*
G54D11*G36*
X376200Y268800D02*Y261200D01*
X383800D01*
Y268800D01*
X376200D01*
G37*
G54D37*X380000Y250000D03*
G54D42*X65000Y50000D03*
X30000Y135000D03*
G54D11*G36*
X45160Y96940D02*Y85440D01*
X56660D01*
Y96940D01*
X45160D01*
G37*
G54D42*X30000Y85000D03*
G54D43*X75000Y135000D03*
X105000D03*
X179700D03*
X209700D03*
G54D44*X226340Y60000D03*
G54D19*X130910Y91190D03*
G54D44*X135000Y60000D03*
G54D42*X110000Y50000D03*
G54D19*X277840Y111450D03*
X254160Y119360D03*
G54D45*X280000Y74500D03*
Y37000D03*
G54D11*G36*
X248410Y45110D02*Y33610D01*
X259910D01*
Y45110D01*
X248410D01*
G37*
G36*
X314970Y147270D02*Y135770D01*
X326470D01*
Y147270D01*
X314970D01*
G37*
G54D19*X240720Y141520D03*
G54D11*G36*
X301200Y63800D02*Y56200D01*
X308800D01*
Y63800D01*
X301200D01*
G37*
G54D38*X305000Y70000D03*
Y80000D03*
G54D46*X237000Y236000D03*
G54D11*G36*
X290424Y322966D02*Y314866D01*
X298524D01*
Y322966D01*
X290424D01*
G37*
G54D47*X294474Y278916D03*
X293983Y221499D03*
G54D48*X180000Y301000D03*
X155000D03*
X130000D03*
X105000D03*
G54D44*X156000Y334000D03*
X176000D03*
X136000D03*
X116000D03*
G54D48*X105000Y171000D03*
X130000D03*
X155000D03*
X180000D03*
G54D46*X48000Y236000D03*
G54D42*X30000Y185000D03*
M02*
