G04 start of page 5 for group 3 idx 3 *
G04 Title: logic, Solder *
G04 Creator: pcb 20091103 *
G04 CreationDate: Wed 28 Apr 2010 01:03:10 AM GMT UTC *
G04 For: srussell *
G04 Format: Gerber/RS-274X *
G04 PCB-Dimensions: 175000 175000 *
G04 PCB-Coordinate-Origin: lower left *
%MOIN*%
%FSLAX25Y25*%
%LNBACK*%
%ADD11C,0.0140*%
%ADD13C,0.0600*%
%ADD14C,0.0200*%
%ADD15C,0.0620*%
%ADD16C,0.0500*%
%ADD17C,0.0490*%
%ADD18C,0.2050*%
%ADD19C,0.0280*%
%ADD20C,0.0380*%
%ADD21C,0.0260*%
%ADD22C,0.0250*%
%ADD23C,0.1250*%
G54D11*X115000Y65000D02*Y68000D01*
X126000Y79000D01*
X149000D01*
X147400Y118246D02*X132863Y103709D01*
X142500Y122500D02*Y117600D01*
X142501D02*X142500D01*
X122500Y122500D02*Y122499D01*
Y122500D02*Y122499D01*
X39068Y116000D02*X96000D01*
X102500Y122500D01*
X53709Y103709D02*X42500Y92500D01*
X10000Y48000D02*Y86932D01*
X39068Y116000D01*
X42500Y92500D02*Y92499D01*
Y92500D02*Y92499D01*
X132863Y103709D02*X53709D01*
X147400Y157501D02*Y118246D01*
X132501Y157501D02*X127500Y152500D01*
X110002Y157501D02*X110001D01*
X127500Y152500D02*Y152499D01*
Y152500D02*Y152499D01*
X147400Y157501D02*X132501D01*
X122500Y137500D02*Y122500D01*
X107400Y130650D02*Y117600D01*
X107401Y130650D02*X107400D01*
Y117600D02*Y117599D01*
X142500Y117600D02*X107400D01*
X122501Y137500D02*X122500D01*
X110001Y157501D02*Y137500D01*
Y137499D01*
X122500Y137500D02*X110001D01*
X147401Y157501D02*X147400D01*
X57501D02*X52500Y152500D01*
X110001Y157501D02*X57501D01*
X65600Y139350D02*Y130650D01*
X52500Y152500D02*Y152499D01*
Y152500D02*Y152499D01*
X65601Y139350D02*X65600D01*
X62500D01*
Y142500D02*Y139350D01*
Y142500D02*Y139350D01*
Y142500D02*Y139350D01*
Y139349D01*
Y139350D02*Y139349D01*
X65600Y130650D02*Y130649D01*
X107400Y130650D02*X65600D01*
G54D13*X62500Y122500D03*
X52500D03*
X42500D03*
X32500D03*
X22500D03*
Y92500D03*
X32500D03*
X42500D03*
X52500D03*
G54D14*G36*
X39400Y145600D02*Y139400D01*
X45600D01*
Y145600D01*
X39400D01*
G37*
G54D15*X52500Y142500D03*
X62500D03*
X42500Y152500D03*
X52500D03*
X62500D03*
G54D13*X122500Y122500D03*
X112500D03*
X102500D03*
X92500D03*
G54D14*G36*
X149500Y125500D02*Y119500D01*
X155500D01*
Y125500D01*
X149500D01*
G37*
G54D13*X142500Y122500D03*
X132500D03*
X82500D03*
G54D14*G36*
X114400Y145600D02*Y139400D01*
X120600D01*
Y145600D01*
X114400D01*
G37*
G54D15*X127500Y142500D03*
X137500D03*
X117500Y152500D03*
X127500D03*
X137500D03*
G54D16*X92500Y150000D03*
X84626D03*
G54D17*X92500Y135000D03*
X82500D03*
G54D13*X132500Y92500D03*
X142500D03*
X152500D03*
X72500Y122500D03*
G54D16*X77500Y64626D03*
Y72500D03*
G54D15*X80000Y12500D03*
X75000Y25000D03*
X65000D03*
X55000D03*
X45000D03*
X70000Y12500D03*
X60000D03*
X50000D03*
X70000Y37500D03*
X60000D03*
X50000D03*
G54D13*X92500Y92500D03*
X102500D03*
X112500D03*
X122500D03*
G54D14*G36*
X92000Y38000D02*Y32000D01*
X98000D01*
Y38000D01*
X92000D01*
G37*
G54D17*X95000Y75000D03*
G54D13*X105000Y35000D03*
G54D17*Y75000D03*
G54D13*X115000Y35000D03*
X125000D03*
X135000D03*
X145000D03*
X155000D03*
X165000D03*
Y65000D03*
X155000D03*
X145000D03*
X135000D03*
X125000D03*
X115000D03*
X105000D03*
X95000D03*
X62500Y92500D03*
X72500D03*
X82500D03*
G54D15*X55000Y75000D03*
Y50000D03*
X50000Y62500D03*
X45000Y75000D03*
Y50000D03*
X40000Y62500D03*
Y37500D03*
X35000Y75000D03*
Y50000D03*
X30000Y62500D03*
X25000Y75000D03*
X65000Y50000D03*
X60000Y62500D03*
G54D18*X17500Y15000D03*
Y160000D03*
X162500Y15000D03*
Y160000D03*
G54D17*X10000Y48000D03*
X149000Y79000D03*
G54D19*G54D20*G54D19*G54D20*G54D21*G54D22*G54D19*G54D21*G54D20*G54D19*G54D22*G54D19*G54D22*G54D19*G54D20*G54D23*G54D22*M02*
