G04 start of page 4 for group 2 idx 2 *
G04 Title: logic, Power *
G04 Creator: pcb 20091103 *
G04 CreationDate: Wed 28 Apr 2010 01:03:10 AM GMT UTC *
G04 For: srussell *
G04 Format: Gerber/RS-274X *
G04 PCB-Dimensions: 175000 175000 *
G04 PCB-Coordinate-Origin: lower left *
%MOIN*%
%FSLAX25Y25*%
%LNGROUP2*%
%ADD13C,0.0600*%
%ADD14C,0.0200*%
%ADD15C,0.0620*%
%ADD16C,0.0500*%
%ADD17C,0.0490*%
%ADD18C,0.2050*%
%ADD19C,0.0280*%
%ADD20C,0.0380*%
%ADD21C,0.0260*%
%ADD22C,0.0250*%
%ADD23C,0.1250*%
G54D14*G36*
X80000Y34000D02*X100000Y0D01*
X80000D01*
Y8200D01*
X80747Y8265D01*
X81471Y8459D01*
X82150Y8776D01*
X82764Y9206D01*
X83294Y9736D01*
X83724Y10350D01*
X84041Y11029D01*
X84235Y11753D01*
X84300Y12500D01*
X84235Y13247D01*
X84041Y13971D01*
X83724Y14650D01*
X83294Y15264D01*
X82764Y15794D01*
X82150Y16224D01*
X81471Y16541D01*
X80747Y16735D01*
X80000Y16800D01*
Y34000D01*
G37*
G36*
X75000Y42500D02*X80000Y34000D01*
Y16800D01*
X79253Y16735D01*
X78529Y16541D01*
X77850Y16224D01*
X77236Y15794D01*
X76706Y15264D01*
X76276Y14650D01*
X75959Y13971D01*
X75765Y13247D01*
X75700Y12500D01*
X75765Y11753D01*
X75959Y11029D01*
X76276Y10350D01*
X76706Y9736D01*
X77236Y9206D01*
X77850Y8776D01*
X78529Y8459D01*
X79253Y8265D01*
X80000Y8200D01*
Y0D01*
X75000D01*
Y20700D01*
X75747Y20765D01*
X76471Y20959D01*
X77150Y21276D01*
X77764Y21706D01*
X78294Y22236D01*
X78724Y22850D01*
X79041Y23529D01*
X79235Y24253D01*
X79300Y25000D01*
X79235Y25747D01*
X79041Y26471D01*
X78724Y27150D01*
X78294Y27764D01*
X77764Y28294D01*
X77150Y28724D01*
X76471Y29041D01*
X75747Y29235D01*
X75000Y29300D01*
Y42500D01*
G37*
G36*
X70000Y51000D02*X75000Y42500D01*
Y29300D01*
X74253Y29235D01*
X73529Y29041D01*
X72850Y28724D01*
X72236Y28294D01*
X71706Y27764D01*
X71276Y27150D01*
X70959Y26471D01*
X70765Y25747D01*
X70700Y25000D01*
X70765Y24253D01*
X70959Y23529D01*
X71276Y22850D01*
X71706Y22236D01*
X72236Y21706D01*
X72850Y21276D01*
X73529Y20959D01*
X74253Y20765D01*
X75000Y20700D01*
Y0D01*
X70000D01*
Y8200D01*
X70747Y8265D01*
X71471Y8459D01*
X72150Y8776D01*
X72764Y9206D01*
X73294Y9736D01*
X73724Y10350D01*
X74041Y11029D01*
X74235Y11753D01*
X74300Y12500D01*
X74235Y13247D01*
X74041Y13971D01*
X73724Y14650D01*
X73294Y15264D01*
X72764Y15794D01*
X72150Y16224D01*
X71471Y16541D01*
X70747Y16735D01*
X70000Y16800D01*
Y33200D01*
X70747Y33265D01*
X71471Y33459D01*
X72150Y33776D01*
X72764Y34206D01*
X73294Y34736D01*
X73724Y35350D01*
X74041Y36029D01*
X74235Y36753D01*
X74300Y37500D01*
X74235Y38247D01*
X74041Y38971D01*
X73724Y39650D01*
X73294Y40264D01*
X72764Y40794D01*
X72150Y41224D01*
X71471Y41541D01*
X70747Y41735D01*
X70000Y41800D01*
Y51000D01*
G37*
G36*
X65000Y59500D02*X70000Y51000D01*
Y41800D01*
X69253Y41735D01*
X68529Y41541D01*
X67850Y41224D01*
X67236Y40794D01*
X66706Y40264D01*
X66276Y39650D01*
X65959Y38971D01*
X65765Y38247D01*
X65700Y37500D01*
X65765Y36753D01*
X65959Y36029D01*
X66276Y35350D01*
X66706Y34736D01*
X67236Y34206D01*
X67850Y33776D01*
X68529Y33459D01*
X69253Y33265D01*
X70000Y33200D01*
Y16800D01*
X69253Y16735D01*
X68529Y16541D01*
X67850Y16224D01*
X67236Y15794D01*
X66706Y15264D01*
X66276Y14650D01*
X65959Y13971D01*
X65765Y13247D01*
X65700Y12500D01*
X65765Y11753D01*
X65959Y11029D01*
X66276Y10350D01*
X66706Y9736D01*
X67236Y9206D01*
X67850Y8776D01*
X68529Y8459D01*
X69253Y8265D01*
X70000Y8200D01*
Y0D01*
X65000D01*
Y20700D01*
X65747Y20765D01*
X66471Y20959D01*
X67150Y21276D01*
X67764Y21706D01*
X68294Y22236D01*
X68724Y22850D01*
X69041Y23529D01*
X69235Y24253D01*
X69300Y25000D01*
X69235Y25747D01*
X69041Y26471D01*
X68724Y27150D01*
X68294Y27764D01*
X67764Y28294D01*
X67150Y28724D01*
X66471Y29041D01*
X65747Y29235D01*
X65000Y29300D01*
Y45700D01*
X65747Y45765D01*
X66471Y45959D01*
X67150Y46276D01*
X67764Y46706D01*
X68294Y47236D01*
X68724Y47850D01*
X69041Y48529D01*
X69235Y49253D01*
X69300Y50000D01*
X69235Y50747D01*
X69041Y51471D01*
X68724Y52150D01*
X68294Y52764D01*
X67764Y53294D01*
X67150Y53724D01*
X66471Y54041D01*
X65747Y54235D01*
X65000Y54300D01*
Y59500D01*
G37*
G36*
X63514Y20966D02*X63529Y20959D01*
X64253Y20765D01*
X65000Y20700D01*
Y0D01*
X63514D01*
Y10312D01*
X63569Y10331D01*
X63660Y10382D01*
X63742Y10448D01*
X63810Y10526D01*
X63864Y10616D01*
X64019Y10974D01*
X64141Y11344D01*
X64229Y11724D01*
X64282Y12111D01*
X64300Y12500D01*
X64282Y12890D01*
X64229Y13277D01*
X64141Y13657D01*
X64019Y14027D01*
X63864Y14385D01*
X63810Y14475D01*
X63742Y14553D01*
X63660Y14619D01*
X63569Y14670D01*
X63514Y14689D01*
Y20966D01*
G37*
G36*
Y45966D02*X63529Y45959D01*
X64253Y45765D01*
X65000Y45700D01*
Y29300D01*
X64253Y29235D01*
X63529Y29041D01*
X63514Y29034D01*
Y35050D01*
X63724Y35350D01*
X64041Y36029D01*
X64235Y36753D01*
X64300Y37500D01*
X64235Y38247D01*
X64041Y38971D01*
X63724Y39650D01*
X63514Y39950D01*
Y45966D01*
G37*
G36*
Y60050D02*X63724Y60350D01*
X64041Y61029D01*
X64060Y61098D01*
X65000Y59500D01*
Y54300D01*
X64253Y54235D01*
X63529Y54041D01*
X63514Y54034D01*
Y60050D01*
G37*
G36*
Y29034D02*X62850Y28724D01*
X62236Y28294D01*
X61706Y27764D01*
X61276Y27150D01*
X60959Y26471D01*
X60765Y25747D01*
X60700Y25000D01*
X60765Y24253D01*
X60959Y23529D01*
X61276Y22850D01*
X61706Y22236D01*
X62236Y21706D01*
X62850Y21276D01*
X63514Y20966D01*
Y14689D01*
X63470Y14704D01*
X63367Y14720D01*
X63262Y14718D01*
X63160Y14698D01*
X63062Y14661D01*
X62972Y14607D01*
X62894Y14539D01*
X62828Y14457D01*
X62777Y14366D01*
X62743Y14267D01*
X62727Y14164D01*
X62729Y14059D01*
X62749Y13957D01*
X62786Y13859D01*
X62897Y13601D01*
X62985Y13334D01*
X63049Y13060D01*
X63087Y12781D01*
X63100Y12500D01*
X63087Y12220D01*
X63049Y11941D01*
X62985Y11667D01*
X62897Y11400D01*
X62786Y11142D01*
X62749Y11044D01*
X62729Y10942D01*
X62727Y10837D01*
X62743Y10734D01*
X62777Y10635D01*
X62828Y10544D01*
X62894Y10462D01*
X62972Y10394D01*
X63062Y10340D01*
X63160Y10303D01*
X63262Y10283D01*
X63367Y10281D01*
X63470Y10297D01*
X63514Y10312D01*
Y0D01*
X60000D01*
Y8200D01*
X60389Y8218D01*
X60776Y8271D01*
X61156Y8359D01*
X61526Y8481D01*
X61884Y8636D01*
X61974Y8690D01*
X62052Y8758D01*
X62118Y8840D01*
X62169Y8931D01*
X62203Y9030D01*
X62219Y9133D01*
X62217Y9238D01*
X62197Y9340D01*
X62160Y9438D01*
X62106Y9528D01*
X62038Y9606D01*
X61956Y9672D01*
X61865Y9723D01*
X61766Y9757D01*
X61663Y9773D01*
X61558Y9771D01*
X61456Y9751D01*
X61358Y9714D01*
X61100Y9603D01*
X60833Y9515D01*
X60559Y9451D01*
X60280Y9413D01*
X60000Y9400D01*
Y15600D01*
X60280Y15588D01*
X60559Y15550D01*
X60833Y15486D01*
X61100Y15398D01*
X61358Y15287D01*
X61456Y15250D01*
X61558Y15230D01*
X61663Y15228D01*
X61766Y15244D01*
X61865Y15278D01*
X61956Y15329D01*
X62038Y15395D01*
X62106Y15473D01*
X62160Y15563D01*
X62197Y15661D01*
X62217Y15763D01*
X62219Y15868D01*
X62203Y15971D01*
X62169Y16070D01*
X62118Y16161D01*
X62052Y16243D01*
X61974Y16311D01*
X61884Y16365D01*
X61526Y16520D01*
X61156Y16642D01*
X60776Y16730D01*
X60389Y16783D01*
X60000Y16800D01*
Y33200D01*
X60747Y33265D01*
X61471Y33459D01*
X62150Y33776D01*
X62764Y34206D01*
X63294Y34736D01*
X63514Y35050D01*
Y29034D01*
G37*
G36*
X60000Y58200D02*X60747Y58265D01*
X61471Y58459D01*
X62150Y58776D01*
X62764Y59206D01*
X63294Y59736D01*
X63514Y60050D01*
Y54034D01*
X62850Y53724D01*
X62236Y53294D01*
X61706Y52764D01*
X61276Y52150D01*
X60959Y51471D01*
X60765Y50747D01*
X60700Y50000D01*
X60765Y49253D01*
X60959Y48529D01*
X61276Y47850D01*
X61706Y47236D01*
X62236Y46706D01*
X62850Y46276D01*
X63514Y45966D01*
Y39950D01*
X63294Y40264D01*
X62764Y40794D01*
X62150Y41224D01*
X61471Y41541D01*
X60747Y41735D01*
X60000Y41800D01*
Y58200D01*
G37*
G36*
Y68000D02*X60744Y66735D01*
X60000Y66800D01*
Y68000D01*
G37*
G36*
X58514Y8467D02*X58843Y8359D01*
X59223Y8271D01*
X59610Y8218D01*
X60000Y8200D01*
Y0D01*
X58514D01*
Y8467D01*
G37*
G36*
Y15244D02*X58543Y15250D01*
X58641Y15287D01*
X58899Y15398D01*
X59166Y15486D01*
X59440Y15550D01*
X59719Y15588D01*
X60000Y15600D01*
Y9400D01*
X59719Y9413D01*
X59440Y9451D01*
X59166Y9515D01*
X58899Y9603D01*
X58641Y9714D01*
X58543Y9751D01*
X58514Y9757D01*
Y15244D01*
G37*
G36*
Y33466D02*X58529Y33459D01*
X59253Y33265D01*
X60000Y33200D01*
Y16800D01*
X59610Y16783D01*
X59223Y16730D01*
X58843Y16642D01*
X58514Y16534D01*
Y22812D01*
X58569Y22831D01*
X58660Y22882D01*
X58742Y22948D01*
X58810Y23026D01*
X58864Y23116D01*
X59019Y23474D01*
X59141Y23844D01*
X59229Y24224D01*
X59282Y24611D01*
X59300Y25000D01*
X59282Y25390D01*
X59229Y25777D01*
X59141Y26157D01*
X59019Y26527D01*
X58864Y26885D01*
X58810Y26975D01*
X58742Y27053D01*
X58660Y27119D01*
X58569Y27170D01*
X58514Y27189D01*
Y33466D01*
G37*
G36*
X56486Y35050D02*X56706Y34736D01*
X57236Y34206D01*
X57850Y33776D01*
X58514Y33466D01*
Y27189D01*
X58470Y27204D01*
X58367Y27220D01*
X58262Y27218D01*
X58160Y27198D01*
X58062Y27161D01*
X57972Y27107D01*
X57894Y27039D01*
X57828Y26957D01*
X57777Y26866D01*
X57743Y26767D01*
X57727Y26664D01*
X57729Y26559D01*
X57749Y26457D01*
X57786Y26359D01*
X57897Y26101D01*
X57985Y25834D01*
X58049Y25560D01*
X58087Y25281D01*
X58100Y25000D01*
X58087Y24720D01*
X58049Y24441D01*
X57985Y24167D01*
X57897Y23900D01*
X57786Y23642D01*
X57749Y23544D01*
X57729Y23442D01*
X57727Y23337D01*
X57743Y23234D01*
X57777Y23135D01*
X57828Y23044D01*
X57894Y22962D01*
X57972Y22894D01*
X58062Y22840D01*
X58160Y22803D01*
X58262Y22783D01*
X58367Y22781D01*
X58470Y22797D01*
X58514Y22812D01*
Y16534D01*
X58473Y16520D01*
X58115Y16365D01*
X58025Y16311D01*
X57947Y16243D01*
X57881Y16161D01*
X57830Y16070D01*
X57796Y15971D01*
X57780Y15868D01*
X57782Y15763D01*
X57802Y15661D01*
X57839Y15563D01*
X57893Y15473D01*
X57961Y15395D01*
X58043Y15329D01*
X58134Y15278D01*
X58233Y15244D01*
X58336Y15228D01*
X58441Y15230D01*
X58514Y15244D01*
Y9757D01*
X58441Y9771D01*
X58336Y9773D01*
X58233Y9757D01*
X58134Y9723D01*
X58043Y9672D01*
X57961Y9606D01*
X57893Y9528D01*
X57839Y9438D01*
X57802Y9340D01*
X57782Y9238D01*
X57780Y9133D01*
X57796Y9030D01*
X57830Y8931D01*
X57881Y8840D01*
X57947Y8758D01*
X58025Y8690D01*
X58115Y8636D01*
X58473Y8481D01*
X58514Y8467D01*
Y0D01*
X56486D01*
Y10312D01*
X56529Y10297D01*
X56632Y10281D01*
X56737Y10283D01*
X56839Y10303D01*
X56937Y10340D01*
X57027Y10394D01*
X57105Y10462D01*
X57171Y10544D01*
X57222Y10635D01*
X57256Y10734D01*
X57272Y10837D01*
X57270Y10942D01*
X57250Y11044D01*
X57213Y11142D01*
X57102Y11400D01*
X57014Y11667D01*
X56950Y11941D01*
X56912Y12220D01*
X56900Y12500D01*
X56912Y12781D01*
X56950Y13060D01*
X57014Y13334D01*
X57102Y13601D01*
X57213Y13859D01*
X57250Y13957D01*
X57270Y14059D01*
X57272Y14164D01*
X57256Y14267D01*
X57222Y14366D01*
X57171Y14457D01*
X57105Y14539D01*
X57027Y14607D01*
X56937Y14661D01*
X56839Y14698D01*
X56737Y14718D01*
X56632Y14720D01*
X56529Y14704D01*
X56486Y14689D01*
Y20968D01*
X56526Y20981D01*
X56884Y21136D01*
X56974Y21190D01*
X57052Y21258D01*
X57118Y21340D01*
X57169Y21431D01*
X57203Y21530D01*
X57219Y21633D01*
X57217Y21738D01*
X57197Y21840D01*
X57160Y21938D01*
X57106Y22028D01*
X57038Y22106D01*
X56956Y22172D01*
X56865Y22223D01*
X56766Y22257D01*
X56663Y22273D01*
X56558Y22271D01*
X56486Y22257D01*
Y27744D01*
X56558Y27730D01*
X56663Y27728D01*
X56766Y27744D01*
X56865Y27778D01*
X56956Y27829D01*
X57038Y27895D01*
X57106Y27973D01*
X57160Y28063D01*
X57197Y28161D01*
X57217Y28263D01*
X57219Y28368D01*
X57203Y28471D01*
X57169Y28570D01*
X57118Y28661D01*
X57052Y28743D01*
X56974Y28811D01*
X56884Y28865D01*
X56526Y29020D01*
X56486Y29033D01*
Y35050D01*
G37*
G36*
Y60050D02*X56706Y59736D01*
X57236Y59206D01*
X57850Y58776D01*
X58529Y58459D01*
X59253Y58265D01*
X60000Y58200D01*
Y41800D01*
X59253Y41735D01*
X58529Y41541D01*
X57850Y41224D01*
X57236Y40794D01*
X56706Y40264D01*
X56486Y39950D01*
Y45966D01*
X57150Y46276D01*
X57764Y46706D01*
X58294Y47236D01*
X58724Y47850D01*
X59041Y48529D01*
X59235Y49253D01*
X59300Y50000D01*
X59235Y50747D01*
X59041Y51471D01*
X58724Y52150D01*
X58294Y52764D01*
X57764Y53294D01*
X57150Y53724D01*
X56486Y54034D01*
Y60050D01*
G37*
G36*
Y70966D02*X57150Y71276D01*
X57764Y71706D01*
X57799Y71741D01*
X60000Y68000D01*
Y66800D01*
X59253Y66735D01*
X58529Y66541D01*
X57850Y66224D01*
X57236Y65794D01*
X56706Y65264D01*
X56486Y64950D01*
Y70966D01*
G37*
G36*
Y22257D02*X56456Y22251D01*
X56358Y22214D01*
X56100Y22103D01*
X55833Y22015D01*
X55559Y21951D01*
X55280Y21913D01*
X55000Y21900D01*
Y28100D01*
X55280Y28088D01*
X55559Y28050D01*
X55833Y27986D01*
X56100Y27898D01*
X56358Y27787D01*
X56456Y27750D01*
X56486Y27744D01*
Y22257D01*
G37*
G36*
Y0D02*X55000D01*
Y20700D01*
X55389Y20718D01*
X55776Y20771D01*
X56156Y20859D01*
X56486Y20968D01*
Y14689D01*
X56430Y14670D01*
X56339Y14619D01*
X56257Y14553D01*
X56189Y14475D01*
X56135Y14385D01*
X55980Y14027D01*
X55858Y13657D01*
X55770Y13277D01*
X55717Y12890D01*
X55700Y12500D01*
X55717Y12111D01*
X55770Y11724D01*
X55858Y11344D01*
X55980Y10974D01*
X56135Y10616D01*
X56189Y10526D01*
X56257Y10448D01*
X56339Y10382D01*
X56430Y10331D01*
X56486Y10312D01*
Y0D01*
G37*
G36*
Y39950D02*X56276Y39650D01*
X55959Y38971D01*
X55765Y38247D01*
X55700Y37500D01*
X55765Y36753D01*
X55959Y36029D01*
X56276Y35350D01*
X56486Y35050D01*
Y29033D01*
X56156Y29142D01*
X55776Y29230D01*
X55389Y29283D01*
X55000Y29300D01*
Y45700D01*
X55747Y45765D01*
X56471Y45959D01*
X56486Y45966D01*
Y39950D01*
G37*
G36*
X55000Y70700D02*X55747Y70765D01*
X56471Y70959D01*
X56486Y70966D01*
Y64950D01*
X56276Y64650D01*
X55959Y63971D01*
X55765Y63247D01*
X55700Y62500D01*
X55765Y61753D01*
X55959Y61029D01*
X56276Y60350D01*
X56486Y60050D01*
Y54034D01*
X56471Y54041D01*
X55747Y54235D01*
X55000Y54300D01*
Y70700D01*
G37*
G36*
X53514Y20967D02*X53843Y20859D01*
X54223Y20771D01*
X54610Y20718D01*
X55000Y20700D01*
Y0D01*
X53514D01*
Y10050D01*
X53724Y10350D01*
X54041Y11029D01*
X54235Y11753D01*
X54300Y12500D01*
X54235Y13247D01*
X54041Y13971D01*
X53724Y14650D01*
X53514Y14950D01*
Y20967D01*
G37*
G36*
Y27744D02*X53543Y27750D01*
X53641Y27787D01*
X53899Y27898D01*
X54166Y27986D01*
X54440Y28050D01*
X54719Y28088D01*
X55000Y28100D01*
Y21900D01*
X54719Y21913D01*
X54440Y21951D01*
X54166Y22015D01*
X53899Y22103D01*
X53641Y22214D01*
X53543Y22251D01*
X53514Y22257D01*
Y27744D01*
G37*
G36*
Y45966D02*X53529Y45959D01*
X54253Y45765D01*
X55000Y45700D01*
Y29300D01*
X54610Y29283D01*
X54223Y29230D01*
X53843Y29142D01*
X53514Y29034D01*
Y35312D01*
X53569Y35331D01*
X53660Y35382D01*
X53742Y35448D01*
X53810Y35526D01*
X53864Y35616D01*
X54019Y35974D01*
X54141Y36344D01*
X54229Y36724D01*
X54282Y37111D01*
X54300Y37500D01*
X54282Y37890D01*
X54229Y38277D01*
X54141Y38657D01*
X54019Y39027D01*
X53864Y39385D01*
X53810Y39475D01*
X53742Y39553D01*
X53660Y39619D01*
X53569Y39670D01*
X53514Y39689D01*
Y45966D01*
G37*
G36*
Y0D02*X51486D01*
Y8466D01*
X52150Y8776D01*
X52764Y9206D01*
X53294Y9736D01*
X53514Y10050D01*
Y0D01*
G37*
G36*
X51486Y47550D02*X51706Y47236D01*
X52236Y46706D01*
X52850Y46276D01*
X53514Y45966D01*
Y39689D01*
X53470Y39704D01*
X53367Y39720D01*
X53262Y39718D01*
X53160Y39698D01*
X53062Y39661D01*
X52972Y39607D01*
X52894Y39539D01*
X52828Y39457D01*
X52777Y39366D01*
X52743Y39267D01*
X52727Y39164D01*
X52729Y39059D01*
X52749Y38957D01*
X52786Y38859D01*
X52897Y38601D01*
X52985Y38334D01*
X53049Y38060D01*
X53087Y37781D01*
X53100Y37500D01*
X53087Y37220D01*
X53049Y36941D01*
X52985Y36667D01*
X52897Y36400D01*
X52786Y36142D01*
X52749Y36044D01*
X52729Y35942D01*
X52727Y35837D01*
X52743Y35734D01*
X52777Y35635D01*
X52828Y35544D01*
X52894Y35462D01*
X52972Y35394D01*
X53062Y35340D01*
X53160Y35303D01*
X53262Y35283D01*
X53367Y35281D01*
X53470Y35297D01*
X53514Y35312D01*
Y29034D01*
X53473Y29020D01*
X53115Y28865D01*
X53025Y28811D01*
X52947Y28743D01*
X52881Y28661D01*
X52830Y28570D01*
X52796Y28471D01*
X52780Y28368D01*
X52782Y28263D01*
X52802Y28161D01*
X52839Y28063D01*
X52893Y27973D01*
X52961Y27895D01*
X53043Y27829D01*
X53134Y27778D01*
X53233Y27744D01*
X53336Y27728D01*
X53441Y27730D01*
X53514Y27744D01*
Y22257D01*
X53441Y22271D01*
X53336Y22273D01*
X53233Y22257D01*
X53134Y22223D01*
X53043Y22172D01*
X52961Y22106D01*
X52893Y22028D01*
X52839Y21938D01*
X52802Y21840D01*
X52782Y21738D01*
X52780Y21633D01*
X52796Y21530D01*
X52830Y21431D01*
X52881Y21340D01*
X52947Y21258D01*
X53025Y21190D01*
X53115Y21136D01*
X53473Y20981D01*
X53514Y20967D01*
Y14950D01*
X53294Y15264D01*
X52764Y15794D01*
X52150Y16224D01*
X51486Y16534D01*
Y22812D01*
X51529Y22797D01*
X51632Y22781D01*
X51737Y22783D01*
X51839Y22803D01*
X51937Y22840D01*
X52027Y22894D01*
X52105Y22962D01*
X52171Y23044D01*
X52222Y23135D01*
X52256Y23234D01*
X52272Y23337D01*
X52270Y23442D01*
X52250Y23544D01*
X52213Y23642D01*
X52102Y23900D01*
X52014Y24167D01*
X51950Y24441D01*
X51912Y24720D01*
X51900Y25000D01*
X51912Y25281D01*
X51950Y25560D01*
X52014Y25834D01*
X52102Y26101D01*
X52213Y26359D01*
X52250Y26457D01*
X52270Y26559D01*
X52272Y26664D01*
X52256Y26767D01*
X52222Y26866D01*
X52171Y26957D01*
X52105Y27039D01*
X52027Y27107D01*
X51937Y27161D01*
X51839Y27198D01*
X51737Y27218D01*
X51632Y27220D01*
X51529Y27204D01*
X51486Y27189D01*
Y33468D01*
X51526Y33481D01*
X51884Y33636D01*
X51974Y33690D01*
X52052Y33758D01*
X52118Y33840D01*
X52169Y33931D01*
X52203Y34030D01*
X52219Y34133D01*
X52217Y34238D01*
X52197Y34340D01*
X52160Y34438D01*
X52106Y34528D01*
X52038Y34606D01*
X51956Y34672D01*
X51865Y34723D01*
X51766Y34757D01*
X51663Y34773D01*
X51558Y34771D01*
X51486Y34757D01*
Y40244D01*
X51558Y40230D01*
X51663Y40228D01*
X51766Y40244D01*
X51865Y40278D01*
X51956Y40329D01*
X52038Y40395D01*
X52106Y40473D01*
X52160Y40563D01*
X52197Y40661D01*
X52217Y40763D01*
X52219Y40868D01*
X52203Y40971D01*
X52169Y41070D01*
X52118Y41161D01*
X52052Y41243D01*
X51974Y41311D01*
X51884Y41365D01*
X51526Y41520D01*
X51486Y41533D01*
Y47550D01*
G37*
G36*
Y72550D02*X51706Y72236D01*
X52236Y71706D01*
X52850Y71276D01*
X53529Y70959D01*
X54253Y70765D01*
X55000Y70700D01*
Y54300D01*
X54253Y54235D01*
X53529Y54041D01*
X52850Y53724D01*
X52236Y53294D01*
X51706Y52764D01*
X51486Y52450D01*
Y58466D01*
X52150Y58776D01*
X52764Y59206D01*
X53294Y59736D01*
X53724Y60350D01*
X54041Y61029D01*
X54235Y61753D01*
X54300Y62500D01*
X54235Y63247D01*
X54041Y63971D01*
X53724Y64650D01*
X53294Y65264D01*
X52764Y65794D01*
X52150Y66224D01*
X51486Y66534D01*
Y72550D01*
G37*
G36*
Y82473D02*X53510Y79032D01*
X52850Y78724D01*
X52236Y78294D01*
X51706Y77764D01*
X51486Y77450D01*
Y82473D01*
G37*
G36*
Y34757D02*X51456Y34751D01*
X51358Y34714D01*
X51100Y34603D01*
X50833Y34515D01*
X50559Y34451D01*
X50280Y34413D01*
X50000Y34400D01*
Y40600D01*
X50280Y40588D01*
X50559Y40550D01*
X50833Y40486D01*
X51100Y40398D01*
X51358Y40287D01*
X51456Y40250D01*
X51486Y40244D01*
Y34757D01*
G37*
G36*
Y16534D02*X51471Y16541D01*
X50747Y16735D01*
X50000Y16800D01*
Y33200D01*
X50389Y33218D01*
X50776Y33271D01*
X51156Y33359D01*
X51486Y33468D01*
Y27189D01*
X51430Y27170D01*
X51339Y27119D01*
X51257Y27053D01*
X51189Y26975D01*
X51135Y26885D01*
X50980Y26527D01*
X50858Y26157D01*
X50770Y25777D01*
X50717Y25390D01*
X50700Y25000D01*
X50717Y24611D01*
X50770Y24224D01*
X50858Y23844D01*
X50980Y23474D01*
X51135Y23116D01*
X51189Y23026D01*
X51257Y22948D01*
X51339Y22882D01*
X51430Y22831D01*
X51486Y22812D01*
Y16534D01*
G37*
G36*
Y0D02*X50000D01*
Y8200D01*
X50747Y8265D01*
X51471Y8459D01*
X51486Y8466D01*
Y0D01*
G37*
G36*
Y52450D02*X51276Y52150D01*
X50959Y51471D01*
X50765Y50747D01*
X50700Y50000D01*
X50765Y49253D01*
X50959Y48529D01*
X51276Y47850D01*
X51486Y47550D01*
Y41533D01*
X51156Y41642D01*
X50776Y41730D01*
X50389Y41783D01*
X50000Y41800D01*
Y58200D01*
X50747Y58265D01*
X51471Y58459D01*
X51486Y58466D01*
Y52450D01*
G37*
G36*
X50000Y85000D02*X51486Y82473D01*
Y77450D01*
X51276Y77150D01*
X50959Y76471D01*
X50765Y75747D01*
X50700Y75000D01*
X50765Y74253D01*
X50959Y73529D01*
X51276Y72850D01*
X51486Y72550D01*
Y66534D01*
X51471Y66541D01*
X50747Y66735D01*
X50000Y66800D01*
Y85000D01*
G37*
G36*
X46014Y10911D02*X46276Y10350D01*
X46706Y9736D01*
X47236Y9206D01*
X47850Y8776D01*
X48529Y8459D01*
X49253Y8265D01*
X50000Y8200D01*
Y0D01*
X46014D01*
Y10911D01*
G37*
G36*
X48514Y33467D02*X48843Y33359D01*
X49223Y33271D01*
X49610Y33218D01*
X50000Y33200D01*
Y16800D01*
X49253Y16735D01*
X48529Y16541D01*
X48514Y16534D01*
Y22550D01*
X48724Y22850D01*
X49041Y23529D01*
X49235Y24253D01*
X49300Y25000D01*
X49235Y25747D01*
X49041Y26471D01*
X48724Y27150D01*
X48514Y27450D01*
Y33467D01*
G37*
G36*
Y40244D02*X48543Y40250D01*
X48641Y40287D01*
X48899Y40398D01*
X49166Y40486D01*
X49440Y40550D01*
X49719Y40588D01*
X50000Y40600D01*
Y34400D01*
X49719Y34413D01*
X49440Y34451D01*
X49166Y34515D01*
X48899Y34603D01*
X48641Y34714D01*
X48543Y34751D01*
X48514Y34757D01*
Y40244D01*
G37*
G36*
Y58466D02*X48529Y58459D01*
X49253Y58265D01*
X50000Y58200D01*
Y41800D01*
X49610Y41783D01*
X49223Y41730D01*
X48843Y41642D01*
X48514Y41534D01*
Y47812D01*
X48569Y47831D01*
X48660Y47882D01*
X48742Y47948D01*
X48810Y48026D01*
X48864Y48116D01*
X49019Y48474D01*
X49141Y48844D01*
X49229Y49224D01*
X49282Y49611D01*
X49300Y50000D01*
X49282Y50390D01*
X49229Y50777D01*
X49141Y51157D01*
X49019Y51527D01*
X48864Y51885D01*
X48810Y51975D01*
X48742Y52053D01*
X48660Y52119D01*
X48569Y52170D01*
X48514Y52189D01*
Y58466D01*
G37*
G36*
Y16534D02*X47850Y16224D01*
X47236Y15794D01*
X46706Y15264D01*
X46276Y14650D01*
X46014Y14089D01*
Y20837D01*
X46471Y20959D01*
X47150Y21276D01*
X47764Y21706D01*
X48294Y22236D01*
X48514Y22550D01*
Y16534D01*
G37*
G36*
X46014Y60911D02*X46276Y60350D01*
X46706Y59736D01*
X47236Y59206D01*
X47850Y58776D01*
X48514Y58466D01*
Y52189D01*
X48470Y52204D01*
X48367Y52220D01*
X48262Y52218D01*
X48160Y52198D01*
X48062Y52161D01*
X47972Y52107D01*
X47894Y52039D01*
X47828Y51957D01*
X47777Y51866D01*
X47743Y51767D01*
X47727Y51664D01*
X47729Y51559D01*
X47749Y51457D01*
X47786Y51359D01*
X47897Y51101D01*
X47985Y50834D01*
X48049Y50560D01*
X48087Y50281D01*
X48100Y50000D01*
X48087Y49720D01*
X48049Y49441D01*
X47985Y49167D01*
X47897Y48900D01*
X47786Y48642D01*
X47749Y48544D01*
X47729Y48442D01*
X47727Y48337D01*
X47743Y48234D01*
X47777Y48135D01*
X47828Y48044D01*
X47894Y47962D01*
X47972Y47894D01*
X48062Y47840D01*
X48160Y47803D01*
X48262Y47783D01*
X48367Y47781D01*
X48470Y47797D01*
X48514Y47812D01*
Y41534D01*
X48473Y41520D01*
X48115Y41365D01*
X48025Y41311D01*
X47947Y41243D01*
X47881Y41161D01*
X47830Y41070D01*
X47796Y40971D01*
X47780Y40868D01*
X47782Y40763D01*
X47802Y40661D01*
X47839Y40563D01*
X47893Y40473D01*
X47961Y40395D01*
X48043Y40329D01*
X48134Y40278D01*
X48233Y40244D01*
X48336Y40228D01*
X48441Y40230D01*
X48514Y40244D01*
Y34757D01*
X48441Y34771D01*
X48336Y34773D01*
X48233Y34757D01*
X48134Y34723D01*
X48043Y34672D01*
X47961Y34606D01*
X47893Y34528D01*
X47839Y34438D01*
X47802Y34340D01*
X47782Y34238D01*
X47780Y34133D01*
X47796Y34030D01*
X47830Y33931D01*
X47881Y33840D01*
X47947Y33758D01*
X48025Y33690D01*
X48115Y33636D01*
X48473Y33481D01*
X48514Y33467D01*
Y27450D01*
X48294Y27764D01*
X47764Y28294D01*
X47150Y28724D01*
X46471Y29041D01*
X46014Y29163D01*
Y35895D01*
X46135Y35616D01*
X46189Y35526D01*
X46257Y35448D01*
X46339Y35382D01*
X46430Y35331D01*
X46529Y35297D01*
X46632Y35281D01*
X46737Y35283D01*
X46839Y35303D01*
X46937Y35340D01*
X47027Y35394D01*
X47105Y35462D01*
X47171Y35544D01*
X47222Y35635D01*
X47256Y35734D01*
X47272Y35837D01*
X47270Y35942D01*
X47250Y36044D01*
X47213Y36142D01*
X47102Y36400D01*
X47014Y36667D01*
X46950Y36941D01*
X46912Y37220D01*
X46900Y37500D01*
X46912Y37781D01*
X46950Y38060D01*
X47014Y38334D01*
X47102Y38601D01*
X47213Y38859D01*
X47250Y38957D01*
X47270Y39059D01*
X47272Y39164D01*
X47256Y39267D01*
X47222Y39366D01*
X47171Y39457D01*
X47105Y39539D01*
X47027Y39607D01*
X46937Y39661D01*
X46839Y39698D01*
X46737Y39718D01*
X46632Y39720D01*
X46529Y39704D01*
X46430Y39670D01*
X46339Y39619D01*
X46257Y39553D01*
X46189Y39475D01*
X46135Y39385D01*
X46014Y39106D01*
Y45826D01*
X46156Y45859D01*
X46526Y45981D01*
X46884Y46136D01*
X46974Y46190D01*
X47052Y46258D01*
X47118Y46340D01*
X47169Y46431D01*
X47203Y46530D01*
X47219Y46633D01*
X47217Y46738D01*
X47197Y46840D01*
X47160Y46938D01*
X47106Y47028D01*
X47038Y47106D01*
X46956Y47172D01*
X46865Y47223D01*
X46766Y47257D01*
X46663Y47273D01*
X46558Y47271D01*
X46456Y47251D01*
X46358Y47214D01*
X46100Y47103D01*
X46014Y47075D01*
Y52926D01*
X46100Y52898D01*
X46358Y52787D01*
X46456Y52750D01*
X46558Y52730D01*
X46663Y52728D01*
X46766Y52744D01*
X46865Y52778D01*
X46956Y52829D01*
X47038Y52895D01*
X47106Y52973D01*
X47160Y53063D01*
X47197Y53161D01*
X47217Y53263D01*
X47219Y53368D01*
X47203Y53471D01*
X47169Y53570D01*
X47118Y53661D01*
X47052Y53743D01*
X46974Y53811D01*
X46884Y53865D01*
X46526Y54020D01*
X46156Y54142D01*
X46014Y54175D01*
Y60911D01*
G37*
G36*
Y175000D02*X50000D01*
Y155979D01*
X49736Y155794D01*
X49206Y155264D01*
X48776Y154650D01*
X48459Y153971D01*
X48265Y153247D01*
X48200Y152500D01*
X48265Y151753D01*
X48459Y151029D01*
X48776Y150350D01*
X49206Y149736D01*
X49736Y149206D01*
X50000Y149021D01*
Y145979D01*
X49736Y145794D01*
X49206Y145264D01*
X48776Y144650D01*
X48459Y143971D01*
X48265Y143247D01*
X48200Y142500D01*
X48265Y141753D01*
X48459Y141029D01*
X48776Y140350D01*
X49206Y139736D01*
X49736Y139206D01*
X50000Y139021D01*
Y126222D01*
X49607Y125947D01*
X49053Y125393D01*
X48603Y124750D01*
X48271Y124039D01*
X48068Y123281D01*
X48000Y122500D01*
X48068Y121719D01*
X48271Y120961D01*
X48603Y120250D01*
X49053Y119607D01*
X49607Y119053D01*
X50000Y118778D01*
Y96222D01*
X49607Y95947D01*
X49053Y95393D01*
X48603Y94750D01*
X48271Y94039D01*
X48068Y93281D01*
X48000Y92500D01*
X48068Y91719D01*
X48271Y90961D01*
X48603Y90250D01*
X49053Y89607D01*
X49607Y89053D01*
X50000Y88778D01*
Y66800D01*
X49253Y66735D01*
X48529Y66541D01*
X47850Y66224D01*
X47236Y65794D01*
X46706Y65264D01*
X46276Y64650D01*
X46014Y64089D01*
Y70837D01*
X46471Y70959D01*
X47150Y71276D01*
X47764Y71706D01*
X48294Y72236D01*
X48724Y72850D01*
X49041Y73529D01*
X49235Y74253D01*
X49300Y75000D01*
X49235Y75747D01*
X49041Y76471D01*
X48724Y77150D01*
X48294Y77764D01*
X47764Y78294D01*
X47150Y78724D01*
X46471Y79041D01*
X46014Y79163D01*
Y89703D01*
X46397Y90250D01*
X46729Y90961D01*
X46932Y91719D01*
X47000Y92500D01*
X46932Y93281D01*
X46729Y94039D01*
X46397Y94750D01*
X46014Y95297D01*
Y119703D01*
X46397Y120250D01*
X46729Y120961D01*
X46932Y121719D01*
X47000Y122500D01*
X46932Y123281D01*
X46729Y124039D01*
X46397Y124750D01*
X46014Y125297D01*
Y138274D01*
X46200Y138361D01*
X46371Y138481D01*
X46519Y138629D01*
X46639Y138800D01*
X46728Y138990D01*
X46782Y139192D01*
X46800Y139400D01*
Y145600D01*
X46782Y145808D01*
X46728Y146010D01*
X46639Y146200D01*
X46519Y146371D01*
X46371Y146519D01*
X46200Y146639D01*
X46014Y146726D01*
Y150312D01*
X46069Y150331D01*
X46160Y150382D01*
X46242Y150448D01*
X46310Y150526D01*
X46364Y150616D01*
X46519Y150974D01*
X46641Y151344D01*
X46729Y151724D01*
X46782Y152111D01*
X46800Y152501D01*
X46782Y152890D01*
X46729Y153277D01*
X46641Y153657D01*
X46519Y154027D01*
X46364Y154385D01*
X46310Y154475D01*
X46242Y154553D01*
X46160Y154619D01*
X46069Y154670D01*
X46014Y154689D01*
Y175000D01*
G37*
G36*
Y125297D02*X45947Y125393D01*
X45393Y125947D01*
X45000Y126222D01*
Y138200D01*
X45600D01*
X45808Y138218D01*
X46010Y138272D01*
X46014Y138274D01*
Y125297D01*
G37*
G36*
Y95297D02*X45947Y95393D01*
X45393Y95947D01*
X45000Y96222D01*
Y118778D01*
X45393Y119053D01*
X45947Y119607D01*
X46014Y119703D01*
Y95297D01*
G37*
G36*
Y79163D02*X45747Y79235D01*
X45000Y79300D01*
Y88778D01*
X45393Y89053D01*
X45947Y89607D01*
X46014Y89703D01*
Y79163D01*
G37*
G36*
Y47075D02*X45833Y47015D01*
X45559Y46951D01*
X45280Y46913D01*
X45000Y46900D01*
Y53100D01*
X45280Y53088D01*
X45559Y53050D01*
X45833Y52986D01*
X46014Y52926D01*
Y47075D01*
G37*
G36*
Y29163D02*X45747Y29235D01*
X45000Y29300D01*
Y45700D01*
X45389Y45718D01*
X45776Y45771D01*
X46014Y45826D01*
Y39106D01*
X45980Y39027D01*
X45858Y38657D01*
X45770Y38277D01*
X45717Y37890D01*
X45700Y37500D01*
X45717Y37111D01*
X45770Y36724D01*
X45858Y36344D01*
X45980Y35974D01*
X46014Y35895D01*
Y29163D01*
G37*
G36*
Y14089D02*X45959Y13971D01*
X45765Y13247D01*
X45700Y12500D01*
X45765Y11753D01*
X45959Y11029D01*
X46014Y10911D01*
Y0D01*
X45000D01*
Y20700D01*
X45747Y20765D01*
X46014Y20837D01*
Y14089D01*
G37*
G36*
Y64089D02*X45959Y63971D01*
X45765Y63247D01*
X45700Y62500D01*
X45765Y61753D01*
X45959Y61029D01*
X46014Y60911D01*
Y54175D01*
X45776Y54230D01*
X45389Y54283D01*
X45000Y54300D01*
Y70700D01*
X45747Y70765D01*
X46014Y70837D01*
Y64089D01*
G37*
G36*
X45000Y175000D02*X46014D01*
Y154689D01*
X45970Y154704D01*
X45867Y154720D01*
X45762Y154718D01*
X45660Y154698D01*
X45562Y154661D01*
X45472Y154607D01*
X45394Y154539D01*
X45328Y154457D01*
X45277Y154366D01*
X45243Y154267D01*
X45227Y154164D01*
X45229Y154059D01*
X45249Y153957D01*
X45286Y153859D01*
X45397Y153601D01*
X45485Y153334D01*
X45549Y153060D01*
X45587Y152781D01*
X45600Y152500D01*
X45587Y152220D01*
X45549Y151941D01*
X45485Y151667D01*
X45397Y151400D01*
X45286Y151142D01*
X45249Y151044D01*
X45229Y150942D01*
X45227Y150837D01*
X45243Y150734D01*
X45277Y150635D01*
X45328Y150544D01*
X45394Y150462D01*
X45472Y150394D01*
X45562Y150340D01*
X45660Y150303D01*
X45762Y150283D01*
X45867Y150281D01*
X45970Y150297D01*
X46014Y150312D01*
Y146726D01*
X46010Y146728D01*
X45808Y146782D01*
X45600Y146800D01*
X45000D01*
Y175000D01*
G37*
G36*
Y126222D02*X44750Y126397D01*
X44039Y126729D01*
X43281Y126932D01*
X42500Y127000D01*
X41719Y126932D01*
X40961Y126729D01*
X40250Y126397D01*
X39607Y125947D01*
X39053Y125393D01*
X38603Y124750D01*
X38514Y124559D01*
Y138596D01*
X38629Y138481D01*
X38800Y138361D01*
X38990Y138272D01*
X39192Y138218D01*
X39400Y138200D01*
X45000D01*
Y126222D01*
G37*
G36*
Y96222D02*X44750Y96397D01*
X44039Y96729D01*
X43281Y96932D01*
X42500Y97000D01*
X41719Y96932D01*
X40961Y96729D01*
X40250Y96397D01*
X39607Y95947D01*
X39053Y95393D01*
X38603Y94750D01*
X38514Y94559D01*
Y120441D01*
X38603Y120250D01*
X39053Y119607D01*
X39607Y119053D01*
X40250Y118603D01*
X40961Y118271D01*
X41719Y118068D01*
X42500Y118000D01*
X43281Y118068D01*
X44039Y118271D01*
X44750Y118603D01*
X45000Y118778D01*
Y96222D01*
G37*
G36*
X41486Y88130D02*X41719Y88068D01*
X42500Y88000D01*
X43281Y88068D01*
X44039Y88271D01*
X44750Y88603D01*
X45000Y88778D01*
Y79300D01*
X44253Y79235D01*
X43529Y79041D01*
X42850Y78724D01*
X42236Y78294D01*
X41706Y77764D01*
X41486Y77450D01*
Y88130D01*
G37*
G36*
X43514Y52744D02*X43543Y52750D01*
X43641Y52787D01*
X43899Y52898D01*
X44166Y52986D01*
X44440Y53050D01*
X44719Y53088D01*
X45000Y53100D01*
Y46900D01*
X44719Y46913D01*
X44440Y46951D01*
X44166Y47015D01*
X43899Y47103D01*
X43641Y47214D01*
X43543Y47251D01*
X43514Y47257D01*
Y52744D01*
G37*
G36*
Y70966D02*X43529Y70959D01*
X44253Y70765D01*
X45000Y70700D01*
Y54300D01*
X44610Y54283D01*
X44223Y54230D01*
X43843Y54142D01*
X43514Y54034D01*
Y60312D01*
X43569Y60331D01*
X43660Y60382D01*
X43742Y60448D01*
X43810Y60526D01*
X43864Y60616D01*
X44019Y60974D01*
X44141Y61344D01*
X44229Y61724D01*
X44282Y62111D01*
X44300Y62500D01*
X44282Y62890D01*
X44229Y63277D01*
X44141Y63657D01*
X44019Y64027D01*
X43864Y64385D01*
X43810Y64475D01*
X43742Y64553D01*
X43660Y64619D01*
X43569Y64670D01*
X43514Y64689D01*
Y70966D01*
G37*
G36*
Y35050D02*X43724Y35350D01*
X44041Y36029D01*
X44235Y36753D01*
X44300Y37500D01*
X44235Y38247D01*
X44041Y38971D01*
X43724Y39650D01*
X43514Y39950D01*
Y45967D01*
X43843Y45859D01*
X44223Y45771D01*
X44610Y45718D01*
X45000Y45700D01*
Y29300D01*
X44253Y29235D01*
X43529Y29041D01*
X43514Y29034D01*
Y35050D01*
G37*
G36*
Y39950D02*X43294Y40264D01*
X42764Y40794D01*
X42150Y41224D01*
X41486Y41534D01*
Y47812D01*
X41529Y47797D01*
X41632Y47781D01*
X41737Y47783D01*
X41839Y47803D01*
X41937Y47840D01*
X42027Y47894D01*
X42105Y47962D01*
X42171Y48044D01*
X42222Y48135D01*
X42256Y48234D01*
X42272Y48337D01*
X42270Y48442D01*
X42250Y48544D01*
X42213Y48642D01*
X42102Y48900D01*
X42014Y49167D01*
X41950Y49441D01*
X41912Y49720D01*
X41900Y50000D01*
X41912Y50281D01*
X41950Y50560D01*
X42014Y50834D01*
X42102Y51101D01*
X42213Y51359D01*
X42250Y51457D01*
X42270Y51559D01*
X42272Y51664D01*
X42256Y51767D01*
X42222Y51866D01*
X42171Y51957D01*
X42105Y52039D01*
X42027Y52107D01*
X41937Y52161D01*
X41839Y52198D01*
X41737Y52218D01*
X41632Y52220D01*
X41529Y52204D01*
X41486Y52189D01*
Y58468D01*
X41526Y58481D01*
X41884Y58636D01*
X41974Y58690D01*
X42052Y58758D01*
X42118Y58840D01*
X42169Y58931D01*
X42203Y59030D01*
X42219Y59133D01*
X42217Y59238D01*
X42197Y59340D01*
X42160Y59438D01*
X42106Y59528D01*
X42038Y59606D01*
X41956Y59672D01*
X41865Y59723D01*
X41766Y59757D01*
X41663Y59773D01*
X41558Y59771D01*
X41486Y59757D01*
Y65244D01*
X41558Y65230D01*
X41663Y65228D01*
X41766Y65244D01*
X41865Y65278D01*
X41956Y65329D01*
X42038Y65395D01*
X42106Y65473D01*
X42160Y65563D01*
X42197Y65661D01*
X42217Y65763D01*
X42219Y65868D01*
X42203Y65971D01*
X42169Y66070D01*
X42118Y66161D01*
X42052Y66243D01*
X41974Y66311D01*
X41884Y66365D01*
X41526Y66520D01*
X41486Y66533D01*
Y72550D01*
X41706Y72236D01*
X42236Y71706D01*
X42850Y71276D01*
X43514Y70966D01*
Y64689D01*
X43470Y64704D01*
X43367Y64720D01*
X43262Y64718D01*
X43160Y64698D01*
X43062Y64661D01*
X42972Y64607D01*
X42894Y64539D01*
X42828Y64457D01*
X42777Y64366D01*
X42743Y64267D01*
X42727Y64164D01*
X42729Y64059D01*
X42749Y63957D01*
X42786Y63859D01*
X42897Y63601D01*
X42985Y63334D01*
X43049Y63060D01*
X43087Y62781D01*
X43100Y62500D01*
X43087Y62220D01*
X43049Y61941D01*
X42985Y61667D01*
X42897Y61400D01*
X42786Y61142D01*
X42749Y61044D01*
X42729Y60942D01*
X42727Y60837D01*
X42743Y60734D01*
X42777Y60635D01*
X42828Y60544D01*
X42894Y60462D01*
X42972Y60394D01*
X43062Y60340D01*
X43160Y60303D01*
X43262Y60283D01*
X43367Y60281D01*
X43470Y60297D01*
X43514Y60312D01*
Y54034D01*
X43473Y54020D01*
X43115Y53865D01*
X43025Y53811D01*
X42947Y53743D01*
X42881Y53661D01*
X42830Y53570D01*
X42796Y53471D01*
X42780Y53368D01*
X42782Y53263D01*
X42802Y53161D01*
X42839Y53063D01*
X42893Y52973D01*
X42961Y52895D01*
X43043Y52829D01*
X43134Y52778D01*
X43233Y52744D01*
X43336Y52728D01*
X43441Y52730D01*
X43514Y52744D01*
Y47257D01*
X43441Y47271D01*
X43336Y47273D01*
X43233Y47257D01*
X43134Y47223D01*
X43043Y47172D01*
X42961Y47106D01*
X42893Y47028D01*
X42839Y46938D01*
X42802Y46840D01*
X42782Y46738D01*
X42780Y46633D01*
X42796Y46530D01*
X42830Y46431D01*
X42881Y46340D01*
X42947Y46258D01*
X43025Y46190D01*
X43115Y46136D01*
X43473Y45981D01*
X43514Y45967D01*
Y39950D01*
G37*
G36*
X41486Y33466D02*X42150Y33776D01*
X42764Y34206D01*
X43294Y34736D01*
X43514Y35050D01*
Y29034D01*
X42850Y28724D01*
X42236Y28294D01*
X41706Y27764D01*
X41486Y27450D01*
Y33466D01*
G37*
G36*
X45000Y0D02*X41486D01*
Y22550D01*
X41706Y22236D01*
X42236Y21706D01*
X42850Y21276D01*
X43529Y20959D01*
X44253Y20765D01*
X45000Y20700D01*
Y0D01*
G37*
G36*
X41486Y66533D02*X41156Y66642D01*
X40776Y66730D01*
X40389Y66783D01*
X40000Y66800D01*
X39610Y66783D01*
X39223Y66730D01*
X38843Y66642D01*
X38514Y66534D01*
Y72812D01*
X38569Y72831D01*
X38660Y72882D01*
X38742Y72948D01*
X38810Y73026D01*
X38864Y73116D01*
X39019Y73474D01*
X39141Y73844D01*
X39229Y74224D01*
X39282Y74611D01*
X39300Y75000D01*
X39282Y75390D01*
X39229Y75777D01*
X39141Y76157D01*
X39019Y76527D01*
X38864Y76885D01*
X38810Y76975D01*
X38742Y77053D01*
X38660Y77119D01*
X38569Y77170D01*
X38514Y77189D01*
Y90441D01*
X38603Y90250D01*
X39053Y89607D01*
X39607Y89053D01*
X40250Y88603D01*
X40961Y88271D01*
X41486Y88130D01*
Y77450D01*
X41276Y77150D01*
X40959Y76471D01*
X40765Y75747D01*
X40700Y75000D01*
X40765Y74253D01*
X40959Y73529D01*
X41276Y72850D01*
X41486Y72550D01*
Y66533D01*
G37*
G36*
Y59757D02*X41456Y59751D01*
X41358Y59714D01*
X41100Y59603D01*
X40833Y59515D01*
X40559Y59451D01*
X40280Y59413D01*
X40000Y59400D01*
X39719Y59413D01*
X39440Y59451D01*
X39166Y59515D01*
X38899Y59603D01*
X38641Y59714D01*
X38543Y59751D01*
X38514Y59757D01*
Y65244D01*
X38543Y65250D01*
X38641Y65287D01*
X38899Y65398D01*
X39166Y65486D01*
X39440Y65550D01*
X39719Y65588D01*
X40000Y65600D01*
X40280Y65588D01*
X40559Y65550D01*
X40833Y65486D01*
X41100Y65398D01*
X41358Y65287D01*
X41456Y65250D01*
X41486Y65244D01*
Y59757D01*
G37*
G36*
Y41534D02*X41471Y41541D01*
X40747Y41735D01*
X40000Y41800D01*
X39253Y41735D01*
X38529Y41541D01*
X38514Y41534D01*
Y47550D01*
X38724Y47850D01*
X39041Y48529D01*
X39235Y49253D01*
X39300Y50000D01*
X39235Y50747D01*
X39041Y51471D01*
X38724Y52150D01*
X38514Y52450D01*
Y58467D01*
X38843Y58359D01*
X39223Y58271D01*
X39610Y58218D01*
X40000Y58200D01*
X40389Y58218D01*
X40776Y58271D01*
X41156Y58359D01*
X41486Y58468D01*
Y52189D01*
X41430Y52170D01*
X41339Y52119D01*
X41257Y52053D01*
X41189Y51975D01*
X41135Y51885D01*
X40980Y51527D01*
X40858Y51157D01*
X40770Y50777D01*
X40717Y50390D01*
X40700Y50000D01*
X40717Y49611D01*
X40770Y49224D01*
X40858Y48844D01*
X40980Y48474D01*
X41135Y48116D01*
X41189Y48026D01*
X41257Y47948D01*
X41339Y47882D01*
X41430Y47831D01*
X41486Y47812D01*
Y41534D01*
G37*
G36*
Y0D02*X38514D01*
Y33466D01*
X38529Y33459D01*
X39253Y33265D01*
X40000Y33200D01*
X40747Y33265D01*
X41471Y33459D01*
X41486Y33466D01*
Y27450D01*
X41276Y27150D01*
X40959Y26471D01*
X40765Y25747D01*
X40700Y25000D01*
X40765Y24253D01*
X40959Y23529D01*
X41276Y22850D01*
X41486Y22550D01*
Y0D01*
G37*
G36*
X42500Y175000D02*X45000D01*
Y146800D01*
X42500D01*
Y148200D01*
X42889Y148218D01*
X43276Y148271D01*
X43656Y148359D01*
X44026Y148481D01*
X44384Y148636D01*
X44474Y148690D01*
X44552Y148758D01*
X44618Y148840D01*
X44669Y148931D01*
X44703Y149030D01*
X44719Y149133D01*
X44717Y149238D01*
X44697Y149340D01*
X44660Y149438D01*
X44606Y149528D01*
X44538Y149606D01*
X44456Y149672D01*
X44365Y149723D01*
X44266Y149757D01*
X44163Y149773D01*
X44058Y149771D01*
X43956Y149751D01*
X43858Y149714D01*
X43600Y149603D01*
X43333Y149515D01*
X43059Y149451D01*
X42780Y149413D01*
X42500Y149400D01*
Y155600D01*
X42780Y155588D01*
X43059Y155550D01*
X43333Y155486D01*
X43600Y155398D01*
X43858Y155287D01*
X43956Y155250D01*
X44058Y155230D01*
X44163Y155228D01*
X44266Y155244D01*
X44365Y155278D01*
X44456Y155329D01*
X44538Y155395D01*
X44606Y155473D01*
X44660Y155563D01*
X44697Y155661D01*
X44717Y155763D01*
X44719Y155868D01*
X44703Y155971D01*
X44669Y156070D01*
X44618Y156161D01*
X44552Y156243D01*
X44474Y156311D01*
X44384Y156365D01*
X44026Y156520D01*
X43656Y156642D01*
X43276Y156730D01*
X42889Y156783D01*
X42500Y156800D01*
Y175000D01*
G37*
G36*
X38514D02*X42500D01*
Y156800D01*
X42110Y156783D01*
X41723Y156730D01*
X41343Y156642D01*
X40973Y156520D01*
X40615Y156365D01*
X40525Y156311D01*
X40447Y156243D01*
X40381Y156161D01*
X40330Y156070D01*
X40296Y155971D01*
X40280Y155868D01*
X40282Y155763D01*
X40302Y155661D01*
X40339Y155563D01*
X40393Y155473D01*
X40461Y155395D01*
X40543Y155329D01*
X40634Y155278D01*
X40733Y155244D01*
X40836Y155228D01*
X40941Y155230D01*
X41043Y155250D01*
X41141Y155287D01*
X41399Y155398D01*
X41666Y155486D01*
X41940Y155550D01*
X42219Y155588D01*
X42500Y155600D01*
Y149400D01*
X42219Y149413D01*
X41940Y149451D01*
X41666Y149515D01*
X41399Y149603D01*
X41141Y149714D01*
X41043Y149751D01*
X40941Y149771D01*
X40836Y149773D01*
X40733Y149757D01*
X40634Y149723D01*
X40543Y149672D01*
X40461Y149606D01*
X40393Y149528D01*
X40339Y149438D01*
X40302Y149340D01*
X40282Y149238D01*
X40280Y149133D01*
X40296Y149030D01*
X40330Y148931D01*
X40381Y148840D01*
X40447Y148758D01*
X40525Y148690D01*
X40615Y148636D01*
X40973Y148481D01*
X41343Y148359D01*
X41723Y148271D01*
X42110Y148218D01*
X42500Y148200D01*
Y146800D01*
X39400D01*
X39192Y146782D01*
X38990Y146728D01*
X38800Y146639D01*
X38629Y146519D01*
X38514Y146404D01*
Y150895D01*
X38635Y150616D01*
X38689Y150526D01*
X38757Y150448D01*
X38839Y150382D01*
X38930Y150331D01*
X39029Y150297D01*
X39132Y150281D01*
X39237Y150283D01*
X39339Y150303D01*
X39437Y150340D01*
X39527Y150394D01*
X39605Y150462D01*
X39671Y150544D01*
X39722Y150635D01*
X39756Y150734D01*
X39772Y150837D01*
X39770Y150942D01*
X39750Y151044D01*
X39713Y151142D01*
X39602Y151400D01*
X39514Y151667D01*
X39450Y151941D01*
X39412Y152220D01*
X39400Y152501D01*
X39412Y152781D01*
X39450Y153060D01*
X39514Y153334D01*
X39602Y153601D01*
X39713Y153859D01*
X39750Y153957D01*
X39770Y154059D01*
X39772Y154164D01*
X39756Y154267D01*
X39722Y154366D01*
X39671Y154457D01*
X39605Y154539D01*
X39527Y154607D01*
X39437Y154661D01*
X39339Y154698D01*
X39237Y154718D01*
X39132Y154720D01*
X39029Y154704D01*
X38930Y154670D01*
X38839Y154619D01*
X38757Y154553D01*
X38689Y154475D01*
X38635Y154385D01*
X38514Y154106D01*
Y175000D01*
G37*
G36*
Y0D02*X35000D01*
Y45700D01*
X35747Y45765D01*
X36471Y45959D01*
X37150Y46276D01*
X37764Y46706D01*
X38294Y47236D01*
X38514Y47550D01*
Y41534D01*
X37850Y41224D01*
X37236Y40794D01*
X36706Y40264D01*
X36276Y39650D01*
X35959Y38971D01*
X35765Y38247D01*
X35700Y37500D01*
X35765Y36753D01*
X35959Y36029D01*
X36276Y35350D01*
X36706Y34736D01*
X37236Y34206D01*
X37850Y33776D01*
X38514Y33466D01*
Y0D01*
G37*
G36*
X36486Y175000D02*X38514D01*
Y154106D01*
X38480Y154027D01*
X38358Y153657D01*
X38270Y153277D01*
X38217Y152890D01*
X38200Y152500D01*
X38217Y152111D01*
X38270Y151724D01*
X38358Y151344D01*
X38480Y150974D01*
X38514Y150895D01*
Y146404D01*
X38481Y146371D01*
X38361Y146200D01*
X38272Y146010D01*
X38218Y145808D01*
X38200Y145600D01*
Y139400D01*
X38218Y139192D01*
X38272Y138990D01*
X38361Y138800D01*
X38481Y138629D01*
X38514Y138596D01*
Y124559D01*
X38271Y124039D01*
X38068Y123281D01*
X38000Y122500D01*
X38068Y121719D01*
X38271Y120961D01*
X38514Y120441D01*
Y94559D01*
X38271Y94039D01*
X38068Y93281D01*
X38000Y92500D01*
X38068Y91719D01*
X38271Y90961D01*
X38514Y90441D01*
Y77189D01*
X38470Y77204D01*
X38367Y77220D01*
X38262Y77218D01*
X38160Y77198D01*
X38062Y77161D01*
X37972Y77107D01*
X37894Y77039D01*
X37828Y76957D01*
X37777Y76866D01*
X37743Y76767D01*
X37727Y76664D01*
X37729Y76559D01*
X37749Y76457D01*
X37786Y76359D01*
X37897Y76101D01*
X37985Y75834D01*
X38049Y75560D01*
X38087Y75281D01*
X38100Y75000D01*
X38087Y74720D01*
X38049Y74441D01*
X37985Y74167D01*
X37897Y73900D01*
X37786Y73642D01*
X37749Y73544D01*
X37729Y73442D01*
X37727Y73337D01*
X37743Y73234D01*
X37777Y73135D01*
X37828Y73044D01*
X37894Y72962D01*
X37972Y72894D01*
X38062Y72840D01*
X38160Y72803D01*
X38262Y72783D01*
X38367Y72781D01*
X38470Y72797D01*
X38514Y72812D01*
Y66534D01*
X38473Y66520D01*
X38115Y66365D01*
X38025Y66311D01*
X37947Y66243D01*
X37881Y66161D01*
X37830Y66070D01*
X37796Y65971D01*
X37780Y65868D01*
X37782Y65763D01*
X37802Y65661D01*
X37839Y65563D01*
X37893Y65473D01*
X37961Y65395D01*
X38043Y65329D01*
X38134Y65278D01*
X38233Y65244D01*
X38336Y65228D01*
X38441Y65230D01*
X38514Y65244D01*
Y59757D01*
X38441Y59771D01*
X38336Y59773D01*
X38233Y59757D01*
X38134Y59723D01*
X38043Y59672D01*
X37961Y59606D01*
X37893Y59528D01*
X37839Y59438D01*
X37802Y59340D01*
X37782Y59238D01*
X37780Y59133D01*
X37796Y59030D01*
X37830Y58931D01*
X37881Y58840D01*
X37947Y58758D01*
X38025Y58690D01*
X38115Y58636D01*
X38473Y58481D01*
X38514Y58467D01*
Y52450D01*
X38294Y52764D01*
X37764Y53294D01*
X37150Y53724D01*
X36486Y54034D01*
Y60312D01*
X36529Y60297D01*
X36632Y60281D01*
X36737Y60283D01*
X36839Y60303D01*
X36937Y60340D01*
X37027Y60394D01*
X37105Y60462D01*
X37171Y60544D01*
X37222Y60635D01*
X37256Y60734D01*
X37272Y60837D01*
X37270Y60942D01*
X37250Y61044D01*
X37213Y61142D01*
X37102Y61400D01*
X37014Y61667D01*
X36950Y61941D01*
X36912Y62220D01*
X36900Y62500D01*
X36912Y62781D01*
X36950Y63060D01*
X37014Y63334D01*
X37102Y63601D01*
X37213Y63859D01*
X37250Y63957D01*
X37270Y64059D01*
X37272Y64164D01*
X37256Y64267D01*
X37222Y64366D01*
X37171Y64457D01*
X37105Y64539D01*
X37027Y64607D01*
X36937Y64661D01*
X36839Y64698D01*
X36737Y64718D01*
X36632Y64720D01*
X36529Y64704D01*
X36486Y64689D01*
Y70968D01*
X36526Y70981D01*
X36884Y71136D01*
X36974Y71190D01*
X37052Y71258D01*
X37118Y71340D01*
X37169Y71431D01*
X37203Y71530D01*
X37219Y71633D01*
X37217Y71738D01*
X37197Y71840D01*
X37160Y71938D01*
X37106Y72028D01*
X37038Y72106D01*
X36956Y72172D01*
X36865Y72223D01*
X36766Y72257D01*
X36663Y72273D01*
X36558Y72271D01*
X36486Y72257D01*
Y77744D01*
X36558Y77730D01*
X36663Y77728D01*
X36766Y77744D01*
X36865Y77778D01*
X36956Y77829D01*
X37038Y77895D01*
X37106Y77973D01*
X37160Y78063D01*
X37197Y78161D01*
X37217Y78263D01*
X37219Y78368D01*
X37203Y78471D01*
X37169Y78570D01*
X37118Y78661D01*
X37052Y78743D01*
X36974Y78811D01*
X36884Y78865D01*
X36526Y79020D01*
X36486Y79033D01*
Y90441D01*
X36729Y90961D01*
X36932Y91719D01*
X37000Y92500D01*
X36932Y93281D01*
X36729Y94039D01*
X36486Y94559D01*
Y120441D01*
X36729Y120961D01*
X36932Y121719D01*
X37000Y122500D01*
X36932Y123281D01*
X36729Y124039D01*
X36486Y124559D01*
Y175000D01*
G37*
G36*
Y94559D02*X36397Y94750D01*
X35947Y95393D01*
X35393Y95947D01*
X35000Y96222D01*
Y118778D01*
X35393Y119053D01*
X35947Y119607D01*
X36397Y120250D01*
X36486Y120441D01*
Y94559D01*
G37*
G36*
Y79033D02*X36156Y79142D01*
X35776Y79230D01*
X35389Y79283D01*
X35000Y79300D01*
Y88778D01*
X35393Y89053D01*
X35947Y89607D01*
X36397Y90250D01*
X36486Y90441D01*
Y79033D01*
G37*
G36*
Y72257D02*X36456Y72251D01*
X36358Y72214D01*
X36100Y72103D01*
X35833Y72015D01*
X35559Y71951D01*
X35280Y71913D01*
X35000Y71900D01*
Y78100D01*
X35280Y78088D01*
X35559Y78050D01*
X35833Y77986D01*
X36100Y77898D01*
X36358Y77787D01*
X36456Y77750D01*
X36486Y77744D01*
Y72257D01*
G37*
G36*
Y54034D02*X36471Y54041D01*
X35747Y54235D01*
X35000Y54300D01*
Y70700D01*
X35389Y70718D01*
X35776Y70771D01*
X36156Y70859D01*
X36486Y70968D01*
Y64689D01*
X36430Y64670D01*
X36339Y64619D01*
X36257Y64553D01*
X36189Y64475D01*
X36135Y64385D01*
X35980Y64027D01*
X35858Y63657D01*
X35770Y63277D01*
X35717Y62890D01*
X35700Y62500D01*
X35717Y62111D01*
X35770Y61724D01*
X35858Y61344D01*
X35980Y60974D01*
X36135Y60616D01*
X36189Y60526D01*
X36257Y60448D01*
X36339Y60382D01*
X36430Y60331D01*
X36486Y60312D01*
Y54034D01*
G37*
G36*
X35000Y175000D02*X36486D01*
Y124559D01*
X36397Y124750D01*
X35947Y125393D01*
X35393Y125947D01*
X35000Y126222D01*
Y175000D01*
G37*
G36*
X31486Y47550D02*X31706Y47236D01*
X32236Y46706D01*
X32850Y46276D01*
X33529Y45959D01*
X34253Y45765D01*
X35000Y45700D01*
Y0D01*
X31486D01*
Y47550D01*
G37*
G36*
Y88130D02*X31719Y88068D01*
X32500Y88000D01*
X33281Y88068D01*
X34039Y88271D01*
X34750Y88603D01*
X35000Y88778D01*
Y79300D01*
X34610Y79283D01*
X34223Y79230D01*
X33843Y79142D01*
X33473Y79020D01*
X33115Y78865D01*
X33025Y78811D01*
X32947Y78743D01*
X32881Y78661D01*
X32830Y78570D01*
X32796Y78471D01*
X32780Y78368D01*
X32782Y78263D01*
X32802Y78161D01*
X32839Y78063D01*
X32893Y77973D01*
X32961Y77895D01*
X33043Y77829D01*
X33134Y77778D01*
X33233Y77744D01*
X33336Y77728D01*
X33441Y77730D01*
X33543Y77750D01*
X33641Y77787D01*
X33899Y77898D01*
X34166Y77986D01*
X34440Y78050D01*
X34719Y78088D01*
X35000Y78100D01*
Y71900D01*
X34719Y71913D01*
X34440Y71951D01*
X34166Y72015D01*
X33899Y72103D01*
X33641Y72214D01*
X33543Y72251D01*
X33441Y72271D01*
X33336Y72273D01*
X33233Y72257D01*
X33134Y72223D01*
X33043Y72172D01*
X32961Y72106D01*
X32893Y72028D01*
X32839Y71938D01*
X32802Y71840D01*
X32782Y71738D01*
X32780Y71633D01*
X32796Y71530D01*
X32830Y71431D01*
X32881Y71340D01*
X32947Y71258D01*
X33025Y71190D01*
X33115Y71136D01*
X33473Y70981D01*
X33843Y70859D01*
X34223Y70771D01*
X34610Y70718D01*
X35000Y70700D01*
Y54300D01*
X34253Y54235D01*
X33529Y54041D01*
X32850Y53724D01*
X32236Y53294D01*
X31706Y52764D01*
X31486Y52450D01*
Y58466D01*
X32150Y58776D01*
X32764Y59206D01*
X33294Y59736D01*
X33724Y60350D01*
X34041Y61029D01*
X34235Y61753D01*
X34300Y62500D01*
X34235Y63247D01*
X34041Y63971D01*
X33724Y64650D01*
X33294Y65264D01*
X32764Y65794D01*
X32150Y66224D01*
X31486Y66534D01*
Y72812D01*
X31529Y72797D01*
X31632Y72781D01*
X31737Y72783D01*
X31839Y72803D01*
X31937Y72840D01*
X32027Y72894D01*
X32105Y72962D01*
X32171Y73044D01*
X32222Y73135D01*
X32256Y73234D01*
X32272Y73337D01*
X32270Y73442D01*
X32250Y73544D01*
X32213Y73642D01*
X32102Y73900D01*
X32014Y74167D01*
X31950Y74441D01*
X31912Y74720D01*
X31900Y75000D01*
X31912Y75281D01*
X31950Y75560D01*
X32014Y75834D01*
X32102Y76101D01*
X32213Y76359D01*
X32250Y76457D01*
X32270Y76559D01*
X32272Y76664D01*
X32256Y76767D01*
X32222Y76866D01*
X32171Y76957D01*
X32105Y77039D01*
X32027Y77107D01*
X31937Y77161D01*
X31839Y77198D01*
X31737Y77218D01*
X31632Y77220D01*
X31529Y77204D01*
X31486Y77189D01*
Y88130D01*
G37*
G36*
Y118130D02*X31719Y118068D01*
X32500Y118000D01*
X33281Y118068D01*
X34039Y118271D01*
X34750Y118603D01*
X35000Y118778D01*
Y96222D01*
X34750Y96397D01*
X34039Y96729D01*
X33281Y96932D01*
X32500Y97000D01*
X31719Y96932D01*
X31486Y96870D01*
Y118130D01*
G37*
G36*
Y175000D02*X35000D01*
Y126222D01*
X34750Y126397D01*
X34039Y126729D01*
X33281Y126932D01*
X32500Y127000D01*
X31719Y126932D01*
X31486Y126870D01*
Y175000D01*
G37*
G36*
X25000D02*X31486D01*
Y126870D01*
X30961Y126729D01*
X30250Y126397D01*
X29607Y125947D01*
X29053Y125393D01*
X28603Y124750D01*
X28271Y124039D01*
X28068Y123281D01*
X28000Y122500D01*
X28068Y121719D01*
X28271Y120961D01*
X28603Y120250D01*
X29053Y119607D01*
X29607Y119053D01*
X30250Y118603D01*
X30961Y118271D01*
X31486Y118130D01*
Y96870D01*
X30961Y96729D01*
X30250Y96397D01*
X29607Y95947D01*
X29053Y95393D01*
X28603Y94750D01*
X28271Y94039D01*
X28068Y93281D01*
X28000Y92500D01*
X28068Y91719D01*
X28271Y90961D01*
X28603Y90250D01*
X29053Y89607D01*
X29607Y89053D01*
X30250Y88603D01*
X30961Y88271D01*
X31486Y88130D01*
Y77189D01*
X31430Y77170D01*
X31339Y77119D01*
X31257Y77053D01*
X31189Y76975D01*
X31135Y76885D01*
X30980Y76527D01*
X30858Y76157D01*
X30770Y75777D01*
X30717Y75390D01*
X30700Y75000D01*
X30717Y74611D01*
X30770Y74224D01*
X30858Y73844D01*
X30980Y73474D01*
X31135Y73116D01*
X31189Y73026D01*
X31257Y72948D01*
X31339Y72882D01*
X31430Y72831D01*
X31486Y72812D01*
Y66534D01*
X31471Y66541D01*
X30747Y66735D01*
X30000Y66800D01*
X29253Y66735D01*
X28529Y66541D01*
X27850Y66224D01*
X27236Y65794D01*
X26706Y65264D01*
X26276Y64650D01*
X25959Y63971D01*
X25765Y63247D01*
X25700Y62500D01*
X25765Y61753D01*
X25959Y61029D01*
X26276Y60350D01*
X26706Y59736D01*
X27236Y59206D01*
X27850Y58776D01*
X28529Y58459D01*
X29253Y58265D01*
X30000Y58200D01*
X30747Y58265D01*
X31471Y58459D01*
X31486Y58466D01*
Y52450D01*
X31276Y52150D01*
X30959Y51471D01*
X30765Y50747D01*
X30700Y50000D01*
X30765Y49253D01*
X30959Y48529D01*
X31276Y47850D01*
X31486Y47550D01*
Y0D01*
X25000D01*
Y6369D01*
X26271Y7640D01*
X27416Y9275D01*
X28259Y11084D01*
X28776Y13012D01*
X28950Y15000D01*
X28776Y16988D01*
X28259Y18916D01*
X27416Y20725D01*
X26271Y22360D01*
X25000Y23631D01*
Y70700D01*
X25747Y70765D01*
X26471Y70959D01*
X27150Y71276D01*
X27764Y71706D01*
X28294Y72236D01*
X28724Y72850D01*
X29041Y73529D01*
X29235Y74253D01*
X29300Y75000D01*
X29235Y75747D01*
X29041Y76471D01*
X28724Y77150D01*
X28294Y77764D01*
X27764Y78294D01*
X27150Y78724D01*
X26471Y79041D01*
X25747Y79235D01*
X25000Y79300D01*
Y88778D01*
X25393Y89053D01*
X25947Y89607D01*
X26397Y90250D01*
X26729Y90961D01*
X26932Y91719D01*
X27000Y92500D01*
X26932Y93281D01*
X26729Y94039D01*
X26397Y94750D01*
X25947Y95393D01*
X25393Y95947D01*
X25000Y96222D01*
Y118778D01*
X25393Y119053D01*
X25947Y119607D01*
X26397Y120250D01*
X26729Y120961D01*
X26932Y121719D01*
X27000Y122500D01*
X26932Y123281D01*
X26729Y124039D01*
X26397Y124750D01*
X25947Y125393D01*
X25393Y125947D01*
X25000Y126222D01*
Y151369D01*
X26271Y152640D01*
X27416Y154275D01*
X28259Y156084D01*
X28776Y158012D01*
X28950Y160000D01*
X28776Y161988D01*
X28259Y163916D01*
X27416Y165725D01*
X26271Y167360D01*
X25000Y168631D01*
Y175000D01*
G37*
G36*
X10000Y6369D02*X10140Y6229D01*
X11775Y5084D01*
X13584Y4241D01*
X15512Y3724D01*
X17500Y3550D01*
X19488Y3724D01*
X21416Y4241D01*
X23225Y5084D01*
X24860Y6229D01*
X25000Y6369D01*
Y0D01*
X10000D01*
Y6369D01*
G37*
G36*
Y151369D02*X10140Y151229D01*
X11775Y150084D01*
X13584Y149241D01*
X15512Y148724D01*
X17500Y148550D01*
X19488Y148724D01*
X21416Y149241D01*
X23225Y150084D01*
X24860Y151229D01*
X25000Y151369D01*
Y126222D01*
X24750Y126397D01*
X24039Y126729D01*
X23281Y126932D01*
X22500Y127000D01*
X21719Y126932D01*
X20961Y126729D01*
X20250Y126397D01*
X19607Y125947D01*
X19053Y125393D01*
X18603Y124750D01*
X18271Y124039D01*
X18068Y123281D01*
X18000Y122500D01*
X18068Y121719D01*
X18271Y120961D01*
X18603Y120250D01*
X19053Y119607D01*
X19607Y119053D01*
X20250Y118603D01*
X20961Y118271D01*
X21719Y118068D01*
X22500Y118000D01*
X23281Y118068D01*
X24039Y118271D01*
X24750Y118603D01*
X25000Y118778D01*
Y96222D01*
X24750Y96397D01*
X24039Y96729D01*
X23281Y96932D01*
X22500Y97000D01*
X21719Y96932D01*
X20961Y96729D01*
X20250Y96397D01*
X19607Y95947D01*
X19053Y95393D01*
X18603Y94750D01*
X18271Y94039D01*
X18068Y93281D01*
X18000Y92500D01*
X18068Y91719D01*
X18271Y90961D01*
X18603Y90250D01*
X19053Y89607D01*
X19607Y89053D01*
X20250Y88603D01*
X20961Y88271D01*
X21719Y88068D01*
X22500Y88000D01*
X23281Y88068D01*
X24039Y88271D01*
X24750Y88603D01*
X25000Y88778D01*
Y79300D01*
X24253Y79235D01*
X23529Y79041D01*
X22850Y78724D01*
X22236Y78294D01*
X21706Y77764D01*
X21276Y77150D01*
X20959Y76471D01*
X20765Y75747D01*
X20700Y75000D01*
X20765Y74253D01*
X20959Y73529D01*
X21276Y72850D01*
X21706Y72236D01*
X22236Y71706D01*
X22850Y71276D01*
X23529Y70959D01*
X24253Y70765D01*
X25000Y70700D01*
Y23631D01*
X24860Y23771D01*
X23225Y24916D01*
X21416Y25759D01*
X19488Y26276D01*
X17500Y26450D01*
X15512Y26276D01*
X13584Y25759D01*
X11775Y24916D01*
X10140Y23771D01*
X10000Y23631D01*
Y44350D01*
X10634Y44405D01*
X11248Y44570D01*
X11825Y44839D01*
X12346Y45204D01*
X12796Y45654D01*
X13161Y46175D01*
X13430Y46752D01*
X13595Y47366D01*
X13650Y48000D01*
X13595Y48634D01*
X13430Y49248D01*
X13161Y49825D01*
X12796Y50346D01*
X12346Y50796D01*
X11825Y51161D01*
X11248Y51430D01*
X10634Y51595D01*
X10000Y51650D01*
Y151369D01*
G37*
G36*
Y175000D02*X25000D01*
Y168631D01*
X24860Y168771D01*
X23225Y169916D01*
X21416Y170759D01*
X19488Y171276D01*
X17500Y171450D01*
X15512Y171276D01*
X13584Y170759D01*
X11775Y169916D01*
X10140Y168771D01*
X10000Y168631D01*
Y175000D01*
G37*
G36*
X0D02*X10000D01*
Y168631D01*
X8729Y167360D01*
X7584Y165725D01*
X6741Y163916D01*
X6224Y161988D01*
X6050Y160000D01*
X6224Y158012D01*
X6741Y156084D01*
X7584Y154275D01*
X8729Y152640D01*
X10000Y151369D01*
Y51650D01*
X9366Y51595D01*
X8752Y51430D01*
X8175Y51161D01*
X7654Y50796D01*
X7204Y50346D01*
X6839Y49825D01*
X6570Y49248D01*
X6405Y48634D01*
X6350Y48000D01*
X6405Y47366D01*
X6570Y46752D01*
X6839Y46175D01*
X7204Y45654D01*
X7654Y45204D01*
X8175Y44839D01*
X8752Y44570D01*
X9366Y44405D01*
X10000Y44350D01*
Y23631D01*
X8729Y22360D01*
X7584Y20725D01*
X6741Y18916D01*
X6224Y16988D01*
X6050Y15000D01*
X6224Y13012D01*
X6741Y11084D01*
X7584Y9275D01*
X8729Y7640D01*
X10000Y6369D01*
Y0D01*
X0D01*
Y175000D01*
G37*
G36*
X175000D02*Y0D01*
X165000D01*
Y3861D01*
X166416Y4241D01*
X168225Y5084D01*
X169860Y6229D01*
X171271Y7640D01*
X172416Y9275D01*
X173259Y11084D01*
X173776Y13012D01*
X173950Y15000D01*
X173776Y16988D01*
X173259Y18916D01*
X172416Y20725D01*
X171271Y22360D01*
X169860Y23771D01*
X168225Y24916D01*
X166416Y25759D01*
X165000Y26139D01*
Y30500D01*
X165781Y30568D01*
X166539Y30771D01*
X167250Y31103D01*
X167893Y31553D01*
X168447Y32107D01*
X168897Y32750D01*
X169229Y33461D01*
X169432Y34219D01*
X169500Y35000D01*
X169432Y35781D01*
X169229Y36539D01*
X168897Y37250D01*
X168447Y37893D01*
X167893Y38447D01*
X167250Y38897D01*
X166539Y39229D01*
X165781Y39432D01*
X165000Y39500D01*
Y60500D01*
X165781Y60568D01*
X166539Y60771D01*
X167250Y61103D01*
X167893Y61553D01*
X168447Y62107D01*
X168897Y62750D01*
X169229Y63461D01*
X169432Y64219D01*
X169500Y65000D01*
X169432Y65781D01*
X169229Y66539D01*
X168897Y67250D01*
X168447Y67893D01*
X167893Y68447D01*
X167250Y68897D01*
X166539Y69229D01*
X165781Y69432D01*
X165000Y69500D01*
Y148861D01*
X166416Y149241D01*
X168225Y150084D01*
X169860Y151229D01*
X171271Y152640D01*
X172416Y154275D01*
X173259Y156084D01*
X173776Y158012D01*
X173950Y160000D01*
X173776Y161988D01*
X173259Y163916D01*
X172416Y165725D01*
X171271Y167360D01*
X169860Y168771D01*
X168225Y169916D01*
X166416Y170759D01*
X165000Y171139D01*
Y175000D01*
X175000D01*
G37*
G36*
X155000Y151369D02*X155140Y151229D01*
X156775Y150084D01*
X158584Y149241D01*
X160512Y148724D01*
X162500Y148550D01*
X164488Y148724D01*
X165000Y148861D01*
Y69500D01*
X164219Y69432D01*
X163461Y69229D01*
X162750Y68897D01*
X162107Y68447D01*
X161553Y67893D01*
X161103Y67250D01*
X160771Y66539D01*
X160568Y65781D01*
X160500Y65000D01*
X160568Y64219D01*
X160771Y63461D01*
X161103Y62750D01*
X161553Y62107D01*
X162107Y61553D01*
X162750Y61103D01*
X163461Y60771D01*
X164219Y60568D01*
X165000Y60500D01*
Y39500D01*
X164219Y39432D01*
X163461Y39229D01*
X162750Y38897D01*
X162107Y38447D01*
X161553Y37893D01*
X161103Y37250D01*
X160771Y36539D01*
X160568Y35781D01*
X160500Y35000D01*
X160568Y34219D01*
X160771Y33461D01*
X161103Y32750D01*
X161553Y32107D01*
X162107Y31553D01*
X162750Y31103D01*
X163461Y30771D01*
X164219Y30568D01*
X165000Y30500D01*
Y26139D01*
X164488Y26276D01*
X162500Y26450D01*
X160512Y26276D01*
X158584Y25759D01*
X156775Y24916D01*
X155140Y23771D01*
X155000Y23631D01*
Y30500D01*
X155781Y30568D01*
X156539Y30771D01*
X157250Y31103D01*
X157893Y31553D01*
X158447Y32107D01*
X158897Y32750D01*
X159229Y33461D01*
X159432Y34219D01*
X159500Y35000D01*
X159432Y35781D01*
X159229Y36539D01*
X158897Y37250D01*
X158447Y37893D01*
X157893Y38447D01*
X157250Y38897D01*
X156539Y39229D01*
X155781Y39432D01*
X155000Y39500D01*
Y60500D01*
X155781Y60568D01*
X156539Y60771D01*
X157250Y61103D01*
X157893Y61553D01*
X158447Y62107D01*
X158897Y62750D01*
X159229Y63461D01*
X159432Y64219D01*
X159500Y65000D01*
X159432Y65781D01*
X159229Y66539D01*
X158897Y67250D01*
X158447Y67893D01*
X157893Y68447D01*
X157250Y68897D01*
X156539Y69229D01*
X155781Y69432D01*
X155000Y69500D01*
Y88778D01*
X155393Y89053D01*
X155947Y89607D01*
X156397Y90250D01*
X156729Y90961D01*
X156932Y91719D01*
X157000Y92500D01*
X156932Y93281D01*
X156729Y94039D01*
X156397Y94750D01*
X155947Y95393D01*
X155393Y95947D01*
X155000Y96222D01*
Y118000D01*
X155500D01*
X155760Y118023D01*
X156013Y118090D01*
X156250Y118201D01*
X156464Y118351D01*
X156649Y118536D01*
X156799Y118750D01*
X156910Y118987D01*
X156977Y119240D01*
X157000Y119500D01*
Y125500D01*
X156977Y125760D01*
X156910Y126013D01*
X156799Y126250D01*
X156649Y126464D01*
X156464Y126649D01*
X156250Y126799D01*
X156013Y126910D01*
X155760Y126977D01*
X155500Y127000D01*
X155000D01*
Y151369D01*
G37*
G36*
Y175000D02*X165000D01*
Y171139D01*
X164488Y171276D01*
X162500Y171450D01*
X160512Y171276D01*
X158584Y170759D01*
X156775Y169916D01*
X155140Y168771D01*
X155000Y168631D01*
Y175000D01*
G37*
G36*
X165000Y0D02*X155000D01*
Y6369D01*
X155140Y6229D01*
X156775Y5084D01*
X158584Y4241D01*
X160512Y3724D01*
X162500Y3550D01*
X164488Y3724D01*
X165000Y3861D01*
Y0D01*
G37*
G36*
X149000Y118087D02*X149240Y118023D01*
X149500Y118000D01*
X155000D01*
Y96222D01*
X154750Y96397D01*
X154039Y96729D01*
X153281Y96932D01*
X152500Y97000D01*
X151719Y96932D01*
X150961Y96729D01*
X150250Y96397D01*
X149607Y95947D01*
X149053Y95393D01*
X149000Y95317D01*
Y118087D01*
G37*
G36*
Y175000D02*X155000D01*
Y168631D01*
X153729Y167360D01*
X152584Y165725D01*
X151741Y163916D01*
X151224Y161988D01*
X151050Y160000D01*
X151224Y158012D01*
X151741Y156084D01*
X152584Y154275D01*
X153729Y152640D01*
X155000Y151369D01*
Y127000D01*
X149500D01*
X149240Y126977D01*
X149000Y126913D01*
Y175000D01*
G37*
G36*
X155000Y0D02*X149000D01*
Y32971D01*
X149229Y33461D01*
X149432Y34219D01*
X149500Y35000D01*
X149432Y35781D01*
X149229Y36539D01*
X149000Y37029D01*
Y62971D01*
X149229Y63461D01*
X149432Y64219D01*
X149500Y65000D01*
X149432Y65781D01*
X149229Y66539D01*
X149000Y67029D01*
Y75350D01*
X149634Y75405D01*
X150248Y75570D01*
X150825Y75839D01*
X151346Y76204D01*
X151796Y76654D01*
X152161Y77175D01*
X152430Y77752D01*
X152595Y78366D01*
X152650Y79000D01*
X152595Y79634D01*
X152430Y80248D01*
X152161Y80825D01*
X151796Y81346D01*
X151346Y81796D01*
X150825Y82161D01*
X150248Y82430D01*
X149634Y82595D01*
X149000Y82650D01*
Y89683D01*
X149053Y89607D01*
X149607Y89053D01*
X150250Y88603D01*
X150961Y88271D01*
X151719Y88068D01*
X152500Y88000D01*
X153281Y88068D01*
X154039Y88271D01*
X154750Y88603D01*
X155000Y88778D01*
Y69500D01*
X154219Y69432D01*
X153461Y69229D01*
X152750Y68897D01*
X152107Y68447D01*
X151553Y67893D01*
X151103Y67250D01*
X150771Y66539D01*
X150568Y65781D01*
X150500Y65000D01*
X150568Y64219D01*
X150771Y63461D01*
X151103Y62750D01*
X151553Y62107D01*
X152107Y61553D01*
X152750Y61103D01*
X153461Y60771D01*
X154219Y60568D01*
X155000Y60500D01*
Y39500D01*
X154219Y39432D01*
X153461Y39229D01*
X152750Y38897D01*
X152107Y38447D01*
X151553Y37893D01*
X151103Y37250D01*
X150771Y36539D01*
X150568Y35781D01*
X150500Y35000D01*
X150568Y34219D01*
X150771Y33461D01*
X151103Y32750D01*
X151553Y32107D01*
X152107Y31553D01*
X152750Y31103D01*
X153461Y30771D01*
X154219Y30568D01*
X155000Y30500D01*
Y23631D01*
X153729Y22360D01*
X152584Y20725D01*
X151741Y18916D01*
X151224Y16988D01*
X151050Y15000D01*
X151224Y13012D01*
X151741Y11084D01*
X152584Y9275D01*
X153729Y7640D01*
X155000Y6369D01*
Y0D01*
G37*
G36*
X149000Y67029D02*X148897Y67250D01*
X148447Y67893D01*
X147893Y68447D01*
X147250Y68897D01*
X146539Y69229D01*
X145781Y69432D01*
X145000Y69500D01*
Y88778D01*
X145393Y89053D01*
X145947Y89607D01*
X146397Y90250D01*
X146729Y90961D01*
X146932Y91719D01*
X147000Y92500D01*
X146932Y93281D01*
X146729Y94039D01*
X146397Y94750D01*
X145947Y95393D01*
X145393Y95947D01*
X145000Y96222D01*
Y118778D01*
X145393Y119053D01*
X145947Y119607D01*
X146397Y120250D01*
X146729Y120961D01*
X146932Y121719D01*
X147000Y122500D01*
X146932Y123281D01*
X146729Y124039D01*
X146397Y124750D01*
X145947Y125393D01*
X145393Y125947D01*
X145000Y126222D01*
Y175000D01*
X149000D01*
Y126913D01*
X148987Y126910D01*
X148750Y126799D01*
X148536Y126649D01*
X148351Y126464D01*
X148201Y126250D01*
X148090Y126013D01*
X148023Y125760D01*
X148000Y125500D01*
Y119500D01*
X148023Y119240D01*
X148090Y118987D01*
X148201Y118750D01*
X148351Y118536D01*
X148536Y118351D01*
X148750Y118201D01*
X148987Y118090D01*
X149000Y118087D01*
Y95317D01*
X148603Y94750D01*
X148271Y94039D01*
X148068Y93281D01*
X148000Y92500D01*
X148068Y91719D01*
X148271Y90961D01*
X148603Y90250D01*
X149000Y89683D01*
Y82650D01*
X148366Y82595D01*
X147752Y82430D01*
X147175Y82161D01*
X146654Y81796D01*
X146204Y81346D01*
X145839Y80825D01*
X145570Y80248D01*
X145405Y79634D01*
X145350Y79000D01*
X145405Y78366D01*
X145570Y77752D01*
X145839Y77175D01*
X146204Y76654D01*
X146654Y76204D01*
X147175Y75839D01*
X147752Y75570D01*
X148366Y75405D01*
X149000Y75350D01*
Y67029D01*
G37*
G36*
Y37029D02*X148897Y37250D01*
X148447Y37893D01*
X147893Y38447D01*
X147250Y38897D01*
X146539Y39229D01*
X145781Y39432D01*
X145000Y39500D01*
Y60500D01*
X145781Y60568D01*
X146539Y60771D01*
X147250Y61103D01*
X147893Y61553D01*
X148447Y62107D01*
X148897Y62750D01*
X149000Y62971D01*
Y37029D01*
G37*
G36*
Y0D02*X145000D01*
Y30500D01*
X145781Y30568D01*
X146539Y30771D01*
X147250Y31103D01*
X147893Y31553D01*
X148447Y32107D01*
X148897Y32750D01*
X149000Y32971D01*
Y0D01*
G37*
G36*
X145000D02*X135000D01*
Y30500D01*
X135781Y30568D01*
X136539Y30771D01*
X137250Y31103D01*
X137893Y31553D01*
X138447Y32107D01*
X138897Y32750D01*
X139229Y33461D01*
X139432Y34219D01*
X139500Y35000D01*
X139432Y35781D01*
X139229Y36539D01*
X138897Y37250D01*
X138447Y37893D01*
X137893Y38447D01*
X137250Y38897D01*
X136539Y39229D01*
X135781Y39432D01*
X135000Y39500D01*
Y60500D01*
X135781Y60568D01*
X136539Y60771D01*
X137250Y61103D01*
X137893Y61553D01*
X138447Y62107D01*
X138897Y62750D01*
X139229Y63461D01*
X139432Y64219D01*
X139500Y65000D01*
X139432Y65781D01*
X139229Y66539D01*
X138897Y67250D01*
X138447Y67893D01*
X137893Y68447D01*
X137250Y68897D01*
X136539Y69229D01*
X135781Y69432D01*
X135000Y69500D01*
Y88778D01*
X135393Y89053D01*
X135947Y89607D01*
X136397Y90250D01*
X136729Y90961D01*
X136932Y91719D01*
X137000Y92500D01*
X136932Y93281D01*
X136729Y94039D01*
X136397Y94750D01*
X135947Y95393D01*
X135393Y95947D01*
X135000Y96222D01*
Y118778D01*
X135393Y119053D01*
X135947Y119607D01*
X136397Y120250D01*
X136729Y120961D01*
X136932Y121719D01*
X137000Y122500D01*
X136932Y123281D01*
X136729Y124039D01*
X136397Y124750D01*
X135947Y125393D01*
X135393Y125947D01*
X135000Y126222D01*
Y139021D01*
X135350Y138776D01*
X136029Y138459D01*
X136753Y138265D01*
X137500Y138200D01*
X138247Y138265D01*
X138971Y138459D01*
X139650Y138776D01*
X140264Y139206D01*
X140794Y139736D01*
X141224Y140350D01*
X141541Y141029D01*
X141735Y141753D01*
X141800Y142500D01*
X141735Y143247D01*
X141541Y143971D01*
X141224Y144650D01*
X140794Y145264D01*
X140264Y145794D01*
X139650Y146224D01*
X138971Y146541D01*
X138247Y146735D01*
X137500Y146800D01*
X136753Y146735D01*
X136029Y146541D01*
X135350Y146224D01*
X135000Y145979D01*
Y149021D01*
X135350Y148776D01*
X136029Y148459D01*
X136753Y148265D01*
X137500Y148200D01*
X138247Y148265D01*
X138971Y148459D01*
X139650Y148776D01*
X140264Y149206D01*
X140794Y149736D01*
X141224Y150350D01*
X141541Y151029D01*
X141735Y151753D01*
X141800Y152500D01*
X141735Y153247D01*
X141541Y153971D01*
X141224Y154650D01*
X140794Y155264D01*
X140264Y155794D01*
X139650Y156224D01*
X138971Y156541D01*
X138247Y156735D01*
X137500Y156800D01*
X136753Y156735D01*
X136029Y156541D01*
X135350Y156224D01*
X135000Y155979D01*
Y175000D01*
X145000D01*
Y126222D01*
X144750Y126397D01*
X144039Y126729D01*
X143281Y126932D01*
X142500Y127000D01*
X141719Y126932D01*
X140961Y126729D01*
X140250Y126397D01*
X139607Y125947D01*
X139053Y125393D01*
X138603Y124750D01*
X138271Y124039D01*
X138068Y123281D01*
X138000Y122500D01*
X138068Y121719D01*
X138271Y120961D01*
X138603Y120250D01*
X139053Y119607D01*
X139607Y119053D01*
X140250Y118603D01*
X140961Y118271D01*
X141719Y118068D01*
X142500Y118000D01*
X143281Y118068D01*
X144039Y118271D01*
X144750Y118603D01*
X145000Y118778D01*
Y96222D01*
X144750Y96397D01*
X144039Y96729D01*
X143281Y96932D01*
X142500Y97000D01*
X141719Y96932D01*
X140961Y96729D01*
X140250Y96397D01*
X139607Y95947D01*
X139053Y95393D01*
X138603Y94750D01*
X138271Y94039D01*
X138068Y93281D01*
X138000Y92500D01*
X138068Y91719D01*
X138271Y90961D01*
X138603Y90250D01*
X139053Y89607D01*
X139607Y89053D01*
X140250Y88603D01*
X140961Y88271D01*
X141719Y88068D01*
X142500Y88000D01*
X143281Y88068D01*
X144039Y88271D01*
X144750Y88603D01*
X145000Y88778D01*
Y69500D01*
X144219Y69432D01*
X143461Y69229D01*
X142750Y68897D01*
X142107Y68447D01*
X141553Y67893D01*
X141103Y67250D01*
X140771Y66539D01*
X140568Y65781D01*
X140500Y65000D01*
X140568Y64219D01*
X140771Y63461D01*
X141103Y62750D01*
X141553Y62107D01*
X142107Y61553D01*
X142750Y61103D01*
X143461Y60771D01*
X144219Y60568D01*
X145000Y60500D01*
Y39500D01*
X144219Y39432D01*
X143461Y39229D01*
X142750Y38897D01*
X142107Y38447D01*
X141553Y37893D01*
X141103Y37250D01*
X140771Y36539D01*
X140568Y35781D01*
X140500Y35000D01*
X140568Y34219D01*
X140771Y33461D01*
X141103Y32750D01*
X141553Y32107D01*
X142107Y31553D01*
X142750Y31103D01*
X143461Y30771D01*
X144219Y30568D01*
X145000Y30500D01*
Y0D01*
G37*
G36*
X135000D02*X125000D01*
Y30500D01*
X125781Y30568D01*
X126539Y30771D01*
X127250Y31103D01*
X127893Y31553D01*
X128447Y32107D01*
X128897Y32750D01*
X129229Y33461D01*
X129432Y34219D01*
X129500Y35000D01*
X129432Y35781D01*
X129229Y36539D01*
X128897Y37250D01*
X128447Y37893D01*
X127893Y38447D01*
X127250Y38897D01*
X126539Y39229D01*
X125781Y39432D01*
X125000Y39500D01*
Y60500D01*
X125781Y60568D01*
X126539Y60771D01*
X127250Y61103D01*
X127893Y61553D01*
X128447Y62107D01*
X128897Y62750D01*
X129229Y63461D01*
X129432Y64219D01*
X129500Y65000D01*
X129432Y65781D01*
X129229Y66539D01*
X128897Y67250D01*
X128447Y67893D01*
X127893Y68447D01*
X127250Y68897D01*
X126539Y69229D01*
X125781Y69432D01*
X125000Y69500D01*
Y88778D01*
X125393Y89053D01*
X125947Y89607D01*
X126397Y90250D01*
X126729Y90961D01*
X126932Y91719D01*
X127000Y92500D01*
X126932Y93281D01*
X126729Y94039D01*
X126397Y94750D01*
X125947Y95393D01*
X125393Y95947D01*
X125000Y96222D01*
Y118778D01*
X125393Y119053D01*
X125947Y119607D01*
X126397Y120250D01*
X126729Y120961D01*
X126932Y121719D01*
X127000Y122500D01*
X126932Y123281D01*
X126729Y124039D01*
X126397Y124750D01*
X125947Y125393D01*
X125393Y125947D01*
X125000Y126222D01*
Y139021D01*
X125350Y138776D01*
X126029Y138459D01*
X126753Y138265D01*
X127500Y138200D01*
X128247Y138265D01*
X128971Y138459D01*
X129650Y138776D01*
X130264Y139206D01*
X130794Y139736D01*
X131224Y140350D01*
X131541Y141029D01*
X131735Y141753D01*
X131800Y142500D01*
X131735Y143247D01*
X131541Y143971D01*
X131224Y144650D01*
X130794Y145264D01*
X130264Y145794D01*
X129650Y146224D01*
X128971Y146541D01*
X128247Y146735D01*
X127500Y146800D01*
X126753Y146735D01*
X126029Y146541D01*
X125350Y146224D01*
X125000Y145979D01*
Y149021D01*
X125350Y148776D01*
X126029Y148459D01*
X126753Y148265D01*
X127500Y148200D01*
X128247Y148265D01*
X128971Y148459D01*
X129650Y148776D01*
X130264Y149206D01*
X130794Y149736D01*
X131224Y150350D01*
X131541Y151029D01*
X131735Y151753D01*
X131800Y152500D01*
X131735Y153247D01*
X131541Y153971D01*
X131224Y154650D01*
X130794Y155264D01*
X130264Y155794D01*
X129650Y156224D01*
X128971Y156541D01*
X128247Y156735D01*
X127500Y156800D01*
X126753Y156735D01*
X126029Y156541D01*
X125350Y156224D01*
X125000Y155979D01*
Y175000D01*
X135000D01*
Y155979D01*
X134736Y155794D01*
X134206Y155264D01*
X133776Y154650D01*
X133459Y153971D01*
X133265Y153247D01*
X133200Y152500D01*
X133265Y151753D01*
X133459Y151029D01*
X133776Y150350D01*
X134206Y149736D01*
X134736Y149206D01*
X135000Y149021D01*
Y145979D01*
X134736Y145794D01*
X134206Y145264D01*
X133776Y144650D01*
X133459Y143971D01*
X133265Y143247D01*
X133200Y142500D01*
X133265Y141753D01*
X133459Y141029D01*
X133776Y140350D01*
X134206Y139736D01*
X134736Y139206D01*
X135000Y139021D01*
Y126222D01*
X134750Y126397D01*
X134039Y126729D01*
X133281Y126932D01*
X132500Y127000D01*
X131719Y126932D01*
X130961Y126729D01*
X130250Y126397D01*
X129607Y125947D01*
X129053Y125393D01*
X128603Y124750D01*
X128271Y124039D01*
X128068Y123281D01*
X128000Y122500D01*
X128068Y121719D01*
X128271Y120961D01*
X128603Y120250D01*
X129053Y119607D01*
X129607Y119053D01*
X130250Y118603D01*
X130961Y118271D01*
X131719Y118068D01*
X132500Y118000D01*
X133281Y118068D01*
X134039Y118271D01*
X134750Y118603D01*
X135000Y118778D01*
Y96222D01*
X134750Y96397D01*
X134039Y96729D01*
X133281Y96932D01*
X132500Y97000D01*
X131719Y96932D01*
X130961Y96729D01*
X130250Y96397D01*
X129607Y95947D01*
X129053Y95393D01*
X128603Y94750D01*
X128271Y94039D01*
X128068Y93281D01*
X128000Y92500D01*
X128068Y91719D01*
X128271Y90961D01*
X128603Y90250D01*
X129053Y89607D01*
X129607Y89053D01*
X130250Y88603D01*
X130961Y88271D01*
X131719Y88068D01*
X132500Y88000D01*
X133281Y88068D01*
X134039Y88271D01*
X134750Y88603D01*
X135000Y88778D01*
Y69500D01*
X134219Y69432D01*
X133461Y69229D01*
X132750Y68897D01*
X132107Y68447D01*
X131553Y67893D01*
X131103Y67250D01*
X130771Y66539D01*
X130568Y65781D01*
X130500Y65000D01*
X130568Y64219D01*
X130771Y63461D01*
X131103Y62750D01*
X131553Y62107D01*
X132107Y61553D01*
X132750Y61103D01*
X133461Y60771D01*
X134219Y60568D01*
X135000Y60500D01*
Y39500D01*
X134219Y39432D01*
X133461Y39229D01*
X132750Y38897D01*
X132107Y38447D01*
X131553Y37893D01*
X131103Y37250D01*
X130771Y36539D01*
X130568Y35781D01*
X130500Y35000D01*
X130568Y34219D01*
X130771Y33461D01*
X131103Y32750D01*
X131553Y32107D01*
X132107Y31553D01*
X132750Y31103D01*
X133461Y30771D01*
X134219Y30568D01*
X135000Y30500D01*
Y0D01*
G37*
G36*
X121014Y62941D02*X121103Y62750D01*
X121553Y62107D01*
X122107Y61553D01*
X122750Y61103D01*
X123461Y60771D01*
X124219Y60568D01*
X125000Y60500D01*
Y39500D01*
X124219Y39432D01*
X123461Y39229D01*
X122750Y38897D01*
X122107Y38447D01*
X121553Y37893D01*
X121103Y37250D01*
X121014Y37059D01*
Y62941D01*
G37*
G36*
Y88257D02*X121719Y88068D01*
X122500Y88000D01*
X123281Y88068D01*
X124039Y88271D01*
X124750Y88603D01*
X125000Y88778D01*
Y69500D01*
X124219Y69432D01*
X123461Y69229D01*
X122750Y68897D01*
X122107Y68447D01*
X121553Y67893D01*
X121103Y67250D01*
X121014Y67059D01*
Y88257D01*
G37*
G36*
Y118257D02*X121719Y118068D01*
X122500Y118000D01*
X123281Y118068D01*
X124039Y118271D01*
X124750Y118603D01*
X125000Y118778D01*
Y96222D01*
X124750Y96397D01*
X124039Y96729D01*
X123281Y96932D01*
X122500Y97000D01*
X121719Y96932D01*
X121014Y96743D01*
Y118257D01*
G37*
G36*
Y138274D02*X121200Y138361D01*
X121371Y138481D01*
X121519Y138629D01*
X121639Y138800D01*
X121728Y138990D01*
X121782Y139192D01*
X121800Y139400D01*
Y145600D01*
X121782Y145808D01*
X121728Y146010D01*
X121639Y146200D01*
X121519Y146371D01*
X121371Y146519D01*
X121200Y146639D01*
X121014Y146726D01*
Y150312D01*
X121069Y150331D01*
X121160Y150382D01*
X121242Y150448D01*
X121310Y150526D01*
X121364Y150616D01*
X121519Y150974D01*
X121641Y151344D01*
X121729Y151724D01*
X121782Y152111D01*
X121800Y152501D01*
X121782Y152890D01*
X121729Y153277D01*
X121641Y153657D01*
X121519Y154027D01*
X121364Y154385D01*
X121310Y154475D01*
X121242Y154553D01*
X121160Y154619D01*
X121069Y154670D01*
X121014Y154689D01*
Y175000D01*
X125000D01*
Y155979D01*
X124736Y155794D01*
X124206Y155264D01*
X123776Y154650D01*
X123459Y153971D01*
X123265Y153247D01*
X123200Y152500D01*
X123265Y151753D01*
X123459Y151029D01*
X123776Y150350D01*
X124206Y149736D01*
X124736Y149206D01*
X125000Y149021D01*
Y145979D01*
X124736Y145794D01*
X124206Y145264D01*
X123776Y144650D01*
X123459Y143971D01*
X123265Y143247D01*
X123200Y142500D01*
X123265Y141753D01*
X123459Y141029D01*
X123776Y140350D01*
X124206Y139736D01*
X124736Y139206D01*
X125000Y139021D01*
Y126222D01*
X124750Y126397D01*
X124039Y126729D01*
X123281Y126932D01*
X122500Y127000D01*
X121719Y126932D01*
X121014Y126743D01*
Y138274D01*
G37*
G36*
X125000Y0D02*X121014D01*
Y32941D01*
X121103Y32750D01*
X121553Y32107D01*
X122107Y31553D01*
X122750Y31103D01*
X123461Y30771D01*
X124219Y30568D01*
X125000Y30500D01*
Y0D01*
G37*
G36*
X121014Y146726D02*X121010Y146728D01*
X120808Y146782D01*
X120600Y146800D01*
X117500D01*
Y148200D01*
X117889Y148218D01*
X118276Y148271D01*
X118656Y148359D01*
X119026Y148481D01*
X119384Y148636D01*
X119474Y148690D01*
X119552Y148758D01*
X119618Y148840D01*
X119669Y148931D01*
X119703Y149030D01*
X119719Y149133D01*
X119717Y149238D01*
X119697Y149340D01*
X119660Y149438D01*
X119606Y149528D01*
X119538Y149606D01*
X119456Y149672D01*
X119365Y149723D01*
X119266Y149757D01*
X119163Y149773D01*
X119058Y149771D01*
X118956Y149751D01*
X118858Y149714D01*
X118600Y149603D01*
X118333Y149515D01*
X118059Y149451D01*
X117780Y149413D01*
X117500Y149400D01*
Y155600D01*
X117780Y155588D01*
X118059Y155550D01*
X118333Y155486D01*
X118600Y155398D01*
X118858Y155287D01*
X118956Y155250D01*
X119058Y155230D01*
X119163Y155228D01*
X119266Y155244D01*
X119365Y155278D01*
X119456Y155329D01*
X119538Y155395D01*
X119606Y155473D01*
X119660Y155563D01*
X119697Y155661D01*
X119717Y155763D01*
X119719Y155868D01*
X119703Y155971D01*
X119669Y156070D01*
X119618Y156161D01*
X119552Y156243D01*
X119474Y156311D01*
X119384Y156365D01*
X119026Y156520D01*
X118656Y156642D01*
X118276Y156730D01*
X117889Y156783D01*
X117500Y156800D01*
Y175000D01*
X121014D01*
Y154689D01*
X120970Y154704D01*
X120867Y154720D01*
X120762Y154718D01*
X120660Y154698D01*
X120562Y154661D01*
X120472Y154607D01*
X120394Y154539D01*
X120328Y154457D01*
X120277Y154366D01*
X120243Y154267D01*
X120227Y154164D01*
X120229Y154059D01*
X120249Y153957D01*
X120286Y153859D01*
X120397Y153601D01*
X120485Y153334D01*
X120549Y153060D01*
X120587Y152781D01*
X120600Y152500D01*
X120587Y152220D01*
X120549Y151941D01*
X120485Y151667D01*
X120397Y151400D01*
X120286Y151142D01*
X120249Y151044D01*
X120229Y150942D01*
X120227Y150837D01*
X120243Y150734D01*
X120277Y150635D01*
X120328Y150544D01*
X120394Y150462D01*
X120472Y150394D01*
X120562Y150340D01*
X120660Y150303D01*
X120762Y150283D01*
X120867Y150281D01*
X120970Y150297D01*
X121014Y150312D01*
Y146726D01*
G37*
G36*
Y0D02*X117500D01*
Y31278D01*
X117893Y31553D01*
X118447Y32107D01*
X118897Y32750D01*
X119229Y33461D01*
X119432Y34219D01*
X119500Y35000D01*
X119432Y35781D01*
X119229Y36539D01*
X118897Y37250D01*
X118447Y37893D01*
X117893Y38447D01*
X117500Y38722D01*
Y61278D01*
X117893Y61553D01*
X118447Y62107D01*
X118897Y62750D01*
X119229Y63461D01*
X119432Y64219D01*
X119500Y65000D01*
X119432Y65781D01*
X119229Y66539D01*
X118897Y67250D01*
X118447Y67893D01*
X117893Y68447D01*
X117500Y68722D01*
Y138200D01*
X120600D01*
X120808Y138218D01*
X121010Y138272D01*
X121014Y138274D01*
Y126743D01*
X120961Y126729D01*
X120250Y126397D01*
X119607Y125947D01*
X119053Y125393D01*
X118603Y124750D01*
X118271Y124039D01*
X118068Y123281D01*
X118000Y122500D01*
X118068Y121719D01*
X118271Y120961D01*
X118603Y120250D01*
X119053Y119607D01*
X119607Y119053D01*
X120250Y118603D01*
X120961Y118271D01*
X121014Y118257D01*
Y96743D01*
X120961Y96729D01*
X120250Y96397D01*
X119607Y95947D01*
X119053Y95393D01*
X118603Y94750D01*
X118271Y94039D01*
X118068Y93281D01*
X118000Y92500D01*
X118068Y91719D01*
X118271Y90961D01*
X118603Y90250D01*
X119053Y89607D01*
X119607Y89053D01*
X120250Y88603D01*
X120961Y88271D01*
X121014Y88257D01*
Y67059D01*
X120771Y66539D01*
X120568Y65781D01*
X120500Y65000D01*
X120568Y64219D01*
X120771Y63461D01*
X121014Y62941D01*
Y37059D01*
X120771Y36539D01*
X120568Y35781D01*
X120500Y35000D01*
X120568Y34219D01*
X120771Y33461D01*
X121014Y32941D01*
Y0D01*
G37*
G36*
X117500Y146800D02*X115000D01*
Y175000D01*
X117500D01*
Y156800D01*
X117110Y156783D01*
X116723Y156730D01*
X116343Y156642D01*
X115973Y156520D01*
X115615Y156365D01*
X115525Y156311D01*
X115447Y156243D01*
X115381Y156161D01*
X115330Y156070D01*
X115296Y155971D01*
X115280Y155868D01*
X115282Y155763D01*
X115302Y155661D01*
X115339Y155563D01*
X115393Y155473D01*
X115461Y155395D01*
X115543Y155329D01*
X115634Y155278D01*
X115733Y155244D01*
X115836Y155228D01*
X115941Y155230D01*
X116043Y155250D01*
X116141Y155287D01*
X116399Y155398D01*
X116666Y155486D01*
X116940Y155550D01*
X117219Y155588D01*
X117500Y155600D01*
Y149400D01*
X117219Y149413D01*
X116940Y149451D01*
X116666Y149515D01*
X116399Y149603D01*
X116141Y149714D01*
X116043Y149751D01*
X115941Y149771D01*
X115836Y149773D01*
X115733Y149757D01*
X115634Y149723D01*
X115543Y149672D01*
X115461Y149606D01*
X115393Y149528D01*
X115339Y149438D01*
X115302Y149340D01*
X115282Y149238D01*
X115280Y149133D01*
X115296Y149030D01*
X115330Y148931D01*
X115381Y148840D01*
X115447Y148758D01*
X115525Y148690D01*
X115615Y148636D01*
X115973Y148481D01*
X116343Y148359D01*
X116723Y148271D01*
X117110Y148218D01*
X117500Y148200D01*
Y146800D01*
G37*
G36*
Y68722D02*X117250Y68897D01*
X116539Y69229D01*
X115781Y69432D01*
X115000Y69500D01*
Y88778D01*
X115393Y89053D01*
X115947Y89607D01*
X116397Y90250D01*
X116729Y90961D01*
X116932Y91719D01*
X117000Y92500D01*
X116932Y93281D01*
X116729Y94039D01*
X116397Y94750D01*
X115947Y95393D01*
X115393Y95947D01*
X115000Y96222D01*
Y118778D01*
X115393Y119053D01*
X115947Y119607D01*
X116397Y120250D01*
X116729Y120961D01*
X116932Y121719D01*
X117000Y122500D01*
X116932Y123281D01*
X116729Y124039D01*
X116397Y124750D01*
X115947Y125393D01*
X115393Y125947D01*
X115000Y126222D01*
Y138200D01*
X117500D01*
Y68722D01*
G37*
G36*
Y38722D02*X117250Y38897D01*
X116539Y39229D01*
X115781Y39432D01*
X115000Y39500D01*
Y60500D01*
X115781Y60568D01*
X116539Y60771D01*
X117250Y61103D01*
X117500Y61278D01*
Y38722D01*
G37*
G36*
Y0D02*X115000D01*
Y30500D01*
X115781Y30568D01*
X116539Y30771D01*
X117250Y31103D01*
X117500Y31278D01*
Y0D01*
G37*
G36*
X113986Y60630D02*X114219Y60568D01*
X115000Y60500D01*
Y39500D01*
X114219Y39432D01*
X113986Y39370D01*
Y60630D01*
G37*
G36*
Y88257D02*X114039Y88271D01*
X114750Y88603D01*
X115000Y88778D01*
Y69500D01*
X114219Y69432D01*
X113986Y69370D01*
Y88257D01*
G37*
G36*
Y118257D02*X114039Y118271D01*
X114750Y118603D01*
X115000Y118778D01*
Y96222D01*
X114750Y96397D01*
X114039Y96729D01*
X113986Y96743D01*
Y118257D01*
G37*
G36*
Y138274D02*X113990Y138272D01*
X114192Y138218D01*
X114400Y138200D01*
X115000D01*
Y126222D01*
X114750Y126397D01*
X114039Y126729D01*
X113986Y126743D01*
Y138274D01*
G37*
G36*
Y175000D02*X115000D01*
Y146800D01*
X114400D01*
X114192Y146782D01*
X113990Y146728D01*
X113986Y146726D01*
Y150312D01*
X114029Y150297D01*
X114132Y150281D01*
X114237Y150283D01*
X114339Y150303D01*
X114437Y150340D01*
X114527Y150394D01*
X114605Y150462D01*
X114671Y150544D01*
X114722Y150635D01*
X114756Y150734D01*
X114772Y150837D01*
X114770Y150942D01*
X114750Y151044D01*
X114713Y151142D01*
X114602Y151400D01*
X114514Y151667D01*
X114450Y151941D01*
X114412Y152220D01*
X114400Y152501D01*
X114412Y152781D01*
X114450Y153060D01*
X114514Y153334D01*
X114602Y153601D01*
X114713Y153859D01*
X114750Y153957D01*
X114770Y154059D01*
X114772Y154164D01*
X114756Y154267D01*
X114722Y154366D01*
X114671Y154457D01*
X114605Y154539D01*
X114527Y154607D01*
X114437Y154661D01*
X114339Y154698D01*
X114237Y154718D01*
X114132Y154720D01*
X114029Y154704D01*
X113986Y154689D01*
Y175000D01*
G37*
G36*
X115000Y0D02*X113986D01*
Y30630D01*
X114219Y30568D01*
X115000Y30500D01*
Y0D01*
G37*
G36*
X113986D02*X105000D01*
Y30500D01*
X105781Y30568D01*
X106539Y30771D01*
X107250Y31103D01*
X107893Y31553D01*
X108447Y32107D01*
X108897Y32750D01*
X109229Y33461D01*
X109432Y34219D01*
X109500Y35000D01*
X109432Y35781D01*
X109229Y36539D01*
X108897Y37250D01*
X108447Y37893D01*
X107893Y38447D01*
X107250Y38897D01*
X106539Y39229D01*
X105781Y39432D01*
X105000Y39500D01*
Y60500D01*
X105781Y60568D01*
X106539Y60771D01*
X107250Y61103D01*
X107893Y61553D01*
X108447Y62107D01*
X108897Y62750D01*
X109229Y63461D01*
X109432Y64219D01*
X109500Y65000D01*
X109432Y65781D01*
X109229Y66539D01*
X108897Y67250D01*
X108447Y67893D01*
X107893Y68447D01*
X107250Y68897D01*
X106539Y69229D01*
X105781Y69432D01*
X105000Y69500D01*
Y71350D01*
X105634Y71405D01*
X106248Y71570D01*
X106825Y71839D01*
X107346Y72204D01*
X107796Y72654D01*
X108161Y73175D01*
X108430Y73752D01*
X108595Y74366D01*
X108650Y75000D01*
X108595Y75634D01*
X108430Y76248D01*
X108161Y76825D01*
X107796Y77346D01*
X107346Y77796D01*
X106825Y78161D01*
X106248Y78430D01*
X105634Y78595D01*
X105000Y78650D01*
Y88778D01*
X105393Y89053D01*
X105947Y89607D01*
X106397Y90250D01*
X106729Y90961D01*
X106932Y91719D01*
X107000Y92500D01*
X106932Y93281D01*
X106729Y94039D01*
X106397Y94750D01*
X105947Y95393D01*
X105393Y95947D01*
X105000Y96222D01*
Y118778D01*
X105393Y119053D01*
X105947Y119607D01*
X106397Y120250D01*
X106729Y120961D01*
X106932Y121719D01*
X107000Y122500D01*
X106932Y123281D01*
X106729Y124039D01*
X106397Y124750D01*
X105947Y125393D01*
X105393Y125947D01*
X105000Y126222D01*
Y175000D01*
X113986D01*
Y154689D01*
X113930Y154670D01*
X113839Y154619D01*
X113757Y154553D01*
X113689Y154475D01*
X113635Y154385D01*
X113480Y154027D01*
X113358Y153657D01*
X113270Y153277D01*
X113217Y152890D01*
X113200Y152500D01*
X113217Y152111D01*
X113270Y151724D01*
X113358Y151344D01*
X113480Y150974D01*
X113635Y150616D01*
X113689Y150526D01*
X113757Y150448D01*
X113839Y150382D01*
X113930Y150331D01*
X113986Y150312D01*
Y146726D01*
X113800Y146639D01*
X113629Y146519D01*
X113481Y146371D01*
X113361Y146200D01*
X113272Y146010D01*
X113218Y145808D01*
X113200Y145600D01*
Y139400D01*
X113218Y139192D01*
X113272Y138990D01*
X113361Y138800D01*
X113481Y138629D01*
X113629Y138481D01*
X113800Y138361D01*
X113986Y138274D01*
Y126743D01*
X113281Y126932D01*
X112500Y127000D01*
X111719Y126932D01*
X110961Y126729D01*
X110250Y126397D01*
X109607Y125947D01*
X109053Y125393D01*
X108603Y124750D01*
X108271Y124039D01*
X108068Y123281D01*
X108000Y122500D01*
X108068Y121719D01*
X108271Y120961D01*
X108603Y120250D01*
X109053Y119607D01*
X109607Y119053D01*
X110250Y118603D01*
X110961Y118271D01*
X111719Y118068D01*
X112500Y118000D01*
X113281Y118068D01*
X113986Y118257D01*
Y96743D01*
X113281Y96932D01*
X112500Y97000D01*
X111719Y96932D01*
X110961Y96729D01*
X110250Y96397D01*
X109607Y95947D01*
X109053Y95393D01*
X108603Y94750D01*
X108271Y94039D01*
X108068Y93281D01*
X108000Y92500D01*
X108068Y91719D01*
X108271Y90961D01*
X108603Y90250D01*
X109053Y89607D01*
X109607Y89053D01*
X110250Y88603D01*
X110961Y88271D01*
X111719Y88068D01*
X112500Y88000D01*
X113281Y88068D01*
X113986Y88257D01*
Y69370D01*
X113461Y69229D01*
X112750Y68897D01*
X112107Y68447D01*
X111553Y67893D01*
X111103Y67250D01*
X110771Y66539D01*
X110568Y65781D01*
X110500Y65000D01*
X110568Y64219D01*
X110771Y63461D01*
X111103Y62750D01*
X111553Y62107D01*
X112107Y61553D01*
X112750Y61103D01*
X113461Y60771D01*
X113986Y60630D01*
Y39370D01*
X113461Y39229D01*
X112750Y38897D01*
X112107Y38447D01*
X111553Y37893D01*
X111103Y37250D01*
X110771Y36539D01*
X110568Y35781D01*
X110500Y35000D01*
X110568Y34219D01*
X110771Y33461D01*
X111103Y32750D01*
X111553Y32107D01*
X112107Y31553D01*
X112750Y31103D01*
X113461Y30771D01*
X113986Y30630D01*
Y0D01*
G37*
G36*
X105000D02*X95000Y17000D01*
Y30500D01*
X98000D01*
X98260Y30523D01*
X98513Y30590D01*
X98750Y30701D01*
X98964Y30851D01*
X99149Y31036D01*
X99299Y31250D01*
X99410Y31487D01*
X99477Y31740D01*
X99500Y32000D01*
Y38000D01*
X99477Y38260D01*
X99410Y38513D01*
X99299Y38750D01*
X99149Y38964D01*
X98964Y39149D01*
X98750Y39299D01*
X98513Y39410D01*
X98260Y39477D01*
X98000Y39500D01*
X95000D01*
Y60500D01*
X95781Y60568D01*
X96539Y60771D01*
X97250Y61103D01*
X97893Y61553D01*
X98447Y62107D01*
X98897Y62750D01*
X99229Y63461D01*
X99432Y64219D01*
X99500Y65000D01*
X99432Y65781D01*
X99229Y66539D01*
X98897Y67250D01*
X98447Y67893D01*
X97893Y68447D01*
X97250Y68897D01*
X96539Y69229D01*
X95781Y69432D01*
X95000Y69500D01*
Y71350D01*
X95634Y71405D01*
X96248Y71570D01*
X96825Y71839D01*
X97346Y72204D01*
X97796Y72654D01*
X98161Y73175D01*
X98430Y73752D01*
X98595Y74366D01*
X98650Y75000D01*
X98595Y75634D01*
X98430Y76248D01*
X98161Y76825D01*
X97796Y77346D01*
X97346Y77796D01*
X96825Y78161D01*
X96248Y78430D01*
X95634Y78595D01*
X95000Y78650D01*
Y88778D01*
X95393Y89053D01*
X95947Y89607D01*
X96397Y90250D01*
X96729Y90961D01*
X96932Y91719D01*
X97000Y92500D01*
X96932Y93281D01*
X96729Y94039D01*
X96397Y94750D01*
X95947Y95393D01*
X95393Y95947D01*
X95000Y96222D01*
Y118778D01*
X95393Y119053D01*
X95947Y119607D01*
X96397Y120250D01*
X96729Y120961D01*
X96932Y121719D01*
X97000Y122500D01*
X96932Y123281D01*
X96729Y124039D01*
X96397Y124750D01*
X95947Y125393D01*
X95393Y125947D01*
X95000Y126222D01*
Y132358D01*
X95296Y132654D01*
X95661Y133175D01*
X95930Y133752D01*
X96095Y134366D01*
X96150Y135000D01*
X96095Y135634D01*
X95930Y136248D01*
X95661Y136825D01*
X95296Y137346D01*
X95000Y137642D01*
Y148372D01*
X95056Y148331D01*
X95149Y148283D01*
X95249Y148252D01*
X95353Y148240D01*
X95457Y148245D01*
X95559Y148268D01*
X95655Y148309D01*
X95743Y148366D01*
X95820Y148437D01*
X95882Y148521D01*
X95930Y148614D01*
X96038Y148919D01*
X96119Y149231D01*
X96172Y149550D01*
X96197Y149871D01*
X96194Y150194D01*
X96163Y150515D01*
X96105Y150833D01*
X96018Y151144D01*
X95905Y151446D01*
Y151447D01*
X95856Y151539D01*
X95791Y151622D01*
X95714Y151692D01*
X95625Y151747D01*
X95528Y151786D01*
X95425Y151808D01*
X95321Y151811D01*
X95217Y151796D01*
X95118Y151764D01*
X95026Y151715D01*
X95000Y151695D01*
Y175000D01*
X105000D01*
Y126222D01*
X104750Y126397D01*
X104039Y126729D01*
X103281Y126932D01*
X102500Y127000D01*
X101719Y126932D01*
X100961Y126729D01*
X100250Y126397D01*
X99607Y125947D01*
X99053Y125393D01*
X98603Y124750D01*
X98271Y124039D01*
X98068Y123281D01*
X98000Y122500D01*
X98068Y121719D01*
X98271Y120961D01*
X98603Y120250D01*
X99053Y119607D01*
X99607Y119053D01*
X100250Y118603D01*
X100961Y118271D01*
X101719Y118068D01*
X102500Y118000D01*
X103281Y118068D01*
X104039Y118271D01*
X104750Y118603D01*
X105000Y118778D01*
Y96222D01*
X104750Y96397D01*
X104039Y96729D01*
X103281Y96932D01*
X102500Y97000D01*
X101719Y96932D01*
X100961Y96729D01*
X100250Y96397D01*
X99607Y95947D01*
X99053Y95393D01*
X98603Y94750D01*
X98271Y94039D01*
X98068Y93281D01*
X98000Y92500D01*
X98068Y91719D01*
X98271Y90961D01*
X98603Y90250D01*
X99053Y89607D01*
X99607Y89053D01*
X100250Y88603D01*
X100961Y88271D01*
X101719Y88068D01*
X102500Y88000D01*
X103281Y88068D01*
X104039Y88271D01*
X104750Y88603D01*
X105000Y88778D01*
Y78650D01*
X104366Y78595D01*
X103752Y78430D01*
X103175Y78161D01*
X102654Y77796D01*
X102204Y77346D01*
X101839Y76825D01*
X101570Y76248D01*
X101405Y75634D01*
X101350Y75000D01*
X101405Y74366D01*
X101570Y73752D01*
X101839Y73175D01*
X102204Y72654D01*
X102654Y72204D01*
X103175Y71839D01*
X103752Y71570D01*
X104366Y71405D01*
X105000Y71350D01*
Y69500D01*
X104219Y69432D01*
X103461Y69229D01*
X102750Y68897D01*
X102107Y68447D01*
X101553Y67893D01*
X101103Y67250D01*
X100771Y66539D01*
X100568Y65781D01*
X100500Y65000D01*
X100568Y64219D01*
X100771Y63461D01*
X101103Y62750D01*
X101553Y62107D01*
X102107Y61553D01*
X102750Y61103D01*
X103461Y60771D01*
X104219Y60568D01*
X105000Y60500D01*
Y39500D01*
X104219Y39432D01*
X103461Y39229D01*
X102750Y38897D01*
X102107Y38447D01*
X101553Y37893D01*
X101103Y37250D01*
X100771Y36539D01*
X100568Y35781D01*
X100500Y35000D01*
X100568Y34219D01*
X100771Y33461D01*
X101103Y32750D01*
X101553Y32107D01*
X102107Y31553D01*
X102750Y31103D01*
X103461Y30771D01*
X104219Y30568D01*
X105000Y30500D01*
Y0D01*
G37*
G36*
X92525Y61260D02*X92750Y61103D01*
X93461Y60771D01*
X94219Y60568D01*
X95000Y60500D01*
Y39500D01*
X92525D01*
Y61260D01*
G37*
G36*
Y72333D02*X92654Y72204D01*
X93175Y71839D01*
X93752Y71570D01*
X94366Y71405D01*
X95000Y71350D01*
Y69500D01*
X94219Y69432D01*
X93461Y69229D01*
X92750Y68897D01*
X92525Y68740D01*
Y72333D01*
G37*
G36*
Y88002D02*X93281Y88068D01*
X94039Y88271D01*
X94750Y88603D01*
X95000Y88778D01*
Y78650D01*
X94366Y78595D01*
X93752Y78430D01*
X93175Y78161D01*
X92654Y77796D01*
X92525Y77667D01*
Y88002D01*
G37*
G36*
Y118002D02*X93281Y118068D01*
X94039Y118271D01*
X94750Y118603D01*
X95000Y118778D01*
Y96222D01*
X94750Y96397D01*
X94039Y96729D01*
X93281Y96932D01*
X92525Y96998D01*
Y118002D01*
G37*
G36*
Y131352D02*X93134Y131405D01*
X93748Y131570D01*
X94325Y131839D01*
X94846Y132204D01*
X95000Y132358D01*
Y126222D01*
X94750Y126397D01*
X94039Y126729D01*
X93281Y126932D01*
X92525Y126998D01*
Y131352D01*
G37*
G36*
Y175000D02*X95000D01*
Y151695D01*
X94943Y151650D01*
X94873Y151573D01*
X94818Y151484D01*
X94779Y151387D01*
X94757Y151284D01*
X94754Y151180D01*
X94769Y151076D01*
X94801Y150977D01*
X94877Y150773D01*
X94935Y150563D01*
X94975Y150348D01*
X94996Y150131D01*
X94998Y149913D01*
X94981Y149696D01*
X94945Y149481D01*
X94890Y149270D01*
X94817Y149064D01*
X94818D01*
X94787Y148964D01*
X94775Y148860D01*
X94780Y148756D01*
X94803Y148654D01*
X94844Y148558D01*
X94901Y148470D01*
X94972Y148393D01*
X95000Y148372D01*
Y137642D01*
X94846Y137796D01*
X94325Y138161D01*
X93748Y138430D01*
X93134Y138595D01*
X92525Y138648D01*
Y146304D01*
X92693Y146306D01*
X93014Y146337D01*
X93332Y146395D01*
X93643Y146482D01*
X93945Y146595D01*
X93946D01*
X94038Y146644D01*
X94121Y146709D01*
X94191Y146786D01*
X94246Y146875D01*
X94285Y146972D01*
X94307Y147075D01*
X94310Y147179D01*
X94295Y147283D01*
X94263Y147382D01*
X94214Y147474D01*
X94149Y147557D01*
X94072Y147627D01*
X93983Y147682D01*
X93886Y147721D01*
X93783Y147743D01*
X93679Y147746D01*
X93575Y147731D01*
X93476Y147699D01*
X93272Y147623D01*
X93062Y147565D01*
X92847Y147525D01*
X92630Y147504D01*
X92525Y147503D01*
Y152498D01*
X92587Y152499D01*
X92804Y152482D01*
X93019Y152446D01*
X93230Y152391D01*
X93436Y152318D01*
Y152319D01*
X93536Y152288D01*
X93640Y152276D01*
X93744Y152281D01*
X93846Y152304D01*
X93942Y152345D01*
X94030Y152402D01*
X94107Y152473D01*
X94169Y152557D01*
X94217Y152650D01*
X94248Y152750D01*
X94260Y152854D01*
X94255Y152958D01*
X94232Y153060D01*
X94191Y153156D01*
X94134Y153244D01*
X94063Y153321D01*
X93979Y153383D01*
X93886Y153431D01*
X93581Y153539D01*
X93269Y153620D01*
X92950Y153673D01*
X92629Y153698D01*
X92525Y153697D01*
Y175000D01*
G37*
G36*
X95000Y17000D02*X92525Y21208D01*
Y30500D01*
X95000D01*
Y17000D01*
G37*
G36*
X89524Y119136D02*X89607Y119053D01*
X90250Y118603D01*
X90961Y118271D01*
X91719Y118068D01*
X92500Y118000D01*
X92525Y118002D01*
Y96998D01*
X92500Y97000D01*
X91719Y96932D01*
X90961Y96729D01*
X90250Y96397D01*
X89607Y95947D01*
X89524Y95864D01*
Y119136D01*
G37*
G36*
Y132911D02*X89704Y132654D01*
X90154Y132204D01*
X90675Y131839D01*
X91252Y131570D01*
X91866Y131405D01*
X92500Y131350D01*
X92525Y131352D01*
Y126998D01*
X92500Y127000D01*
X91719Y126932D01*
X90961Y126729D01*
X90250Y126397D01*
X89607Y125947D01*
X89524Y125864D01*
Y132911D01*
G37*
G36*
Y175000D02*X92525D01*
Y153697D01*
X92306Y153695D01*
X91985Y153664D01*
X91667Y153606D01*
X91356Y153519D01*
X91054Y153406D01*
X91053D01*
X90961Y153357D01*
X90878Y153292D01*
X90808Y153215D01*
X90753Y153126D01*
X90714Y153029D01*
X90692Y152926D01*
X90689Y152822D01*
X90704Y152718D01*
X90736Y152619D01*
X90785Y152527D01*
X90850Y152444D01*
X90927Y152374D01*
X91016Y152319D01*
X91113Y152280D01*
X91216Y152258D01*
X91320Y152255D01*
X91424Y152270D01*
X91523Y152302D01*
X91727Y152378D01*
X91937Y152436D01*
X92152Y152476D01*
X92369Y152497D01*
X92525Y152498D01*
Y147503D01*
X92412Y147502D01*
X92195Y147519D01*
X91980Y147555D01*
X91769Y147610D01*
X91563Y147683D01*
Y147682D01*
X91463Y147713D01*
X91359Y147725D01*
X91255Y147720D01*
X91153Y147697D01*
X91057Y147656D01*
X90969Y147599D01*
X90892Y147528D01*
X90830Y147444D01*
X90782Y147351D01*
X90751Y147251D01*
X90739Y147147D01*
X90744Y147043D01*
X90767Y146941D01*
X90808Y146845D01*
X90865Y146757D01*
X90936Y146680D01*
X91020Y146618D01*
X91113Y146570D01*
X91418Y146462D01*
X91730Y146381D01*
X92049Y146328D01*
X92370Y146303D01*
X92525Y146304D01*
Y138648D01*
X92500Y138650D01*
X91866Y138595D01*
X91252Y138430D01*
X90675Y138161D01*
X90154Y137796D01*
X89704Y137346D01*
X89524Y137089D01*
Y148204D01*
X89574Y148193D01*
X89678Y148190D01*
X89782Y148205D01*
X89881Y148237D01*
X89973Y148286D01*
X90056Y148351D01*
X90126Y148428D01*
X90181Y148517D01*
X90220Y148614D01*
X90242Y148717D01*
X90245Y148821D01*
X90230Y148925D01*
X90198Y149024D01*
X90122Y149228D01*
X90064Y149438D01*
X90024Y149653D01*
X90003Y149870D01*
X90001Y150088D01*
X90018Y150305D01*
X90054Y150520D01*
X90109Y150731D01*
X90182Y150937D01*
X90181D01*
X90212Y151037D01*
X90224Y151141D01*
X90219Y151245D01*
X90196Y151347D01*
X90155Y151443D01*
X90098Y151531D01*
X90027Y151608D01*
X89943Y151670D01*
X89850Y151718D01*
X89750Y151749D01*
X89646Y151761D01*
X89542Y151756D01*
X89524Y151752D01*
Y175000D01*
G37*
G36*
X92525Y21208D02*X89524Y26310D01*
Y89136D01*
X89607Y89053D01*
X90250Y88603D01*
X90961Y88271D01*
X91719Y88068D01*
X92500Y88000D01*
X92525Y88002D01*
Y77667D01*
X92204Y77346D01*
X91839Y76825D01*
X91570Y76248D01*
X91405Y75634D01*
X91350Y75000D01*
X91405Y74366D01*
X91570Y73752D01*
X91839Y73175D01*
X92204Y72654D01*
X92525Y72333D01*
Y68740D01*
X92107Y68447D01*
X91553Y67893D01*
X91103Y67250D01*
X90771Y66539D01*
X90568Y65781D01*
X90500Y65000D01*
X90568Y64219D01*
X90771Y63461D01*
X91103Y62750D01*
X91553Y62107D01*
X92107Y61553D01*
X92525Y61260D01*
Y39500D01*
X92000D01*
X91740Y39477D01*
X91487Y39410D01*
X91250Y39299D01*
X91036Y39149D01*
X90851Y38964D01*
X90701Y38750D01*
X90590Y38513D01*
X90523Y38260D01*
X90500Y38000D01*
Y32000D01*
X90523Y31740D01*
X90590Y31487D01*
X90701Y31250D01*
X90851Y31036D01*
X91036Y30851D01*
X91250Y30701D01*
X91487Y30590D01*
X91740Y30523D01*
X92000Y30500D01*
X92525D01*
Y21208D01*
G37*
G36*
X89524Y26310D02*X84626Y34636D01*
Y88545D01*
X84750Y88603D01*
X85393Y89053D01*
X85947Y89607D01*
X86397Y90250D01*
X86729Y90961D01*
X86932Y91719D01*
X87000Y92500D01*
X86932Y93281D01*
X86729Y94039D01*
X86397Y94750D01*
X85947Y95393D01*
X85393Y95947D01*
X84750Y96397D01*
X84626Y96455D01*
Y118545D01*
X84750Y118603D01*
X85393Y119053D01*
X85947Y119607D01*
X86397Y120250D01*
X86729Y120961D01*
X86932Y121719D01*
X87000Y122500D01*
X86932Y123281D01*
X86729Y124039D01*
X86397Y124750D01*
X85947Y125393D01*
X85393Y125947D01*
X84750Y126397D01*
X84626Y126455D01*
Y132050D01*
X84846Y132204D01*
X85296Y132654D01*
X85661Y133175D01*
X85930Y133752D01*
X86095Y134366D01*
X86150Y135000D01*
X86095Y135634D01*
X85930Y136248D01*
X85661Y136825D01*
X85296Y137346D01*
X84846Y137796D01*
X84626Y137950D01*
Y146300D01*
X85268Y146356D01*
X85891Y146523D01*
X86476Y146796D01*
X87004Y147166D01*
X87460Y147622D01*
X87830Y148150D01*
X88103Y148735D01*
X88270Y149358D01*
X88326Y150000D01*
X88270Y150642D01*
X88103Y151265D01*
X87830Y151850D01*
X87460Y152378D01*
X87004Y152834D01*
X86476Y153204D01*
X85891Y153477D01*
X85268Y153644D01*
X84626Y153700D01*
Y175000D01*
X89524D01*
Y151752D01*
X89440Y151733D01*
X89344Y151692D01*
X89256Y151635D01*
X89179Y151564D01*
X89117Y151480D01*
X89069Y151387D01*
X88961Y151082D01*
X88880Y150770D01*
X88827Y150451D01*
X88802Y150130D01*
X88805Y149807D01*
X88836Y149486D01*
X88894Y149168D01*
X88981Y148857D01*
X89094Y148555D01*
Y148554D01*
X89143Y148462D01*
X89208Y148379D01*
X89285Y148309D01*
X89374Y148254D01*
X89471Y148215D01*
X89524Y148204D01*
Y137089D01*
X89339Y136825D01*
X89070Y136248D01*
X88905Y135634D01*
X88850Y135000D01*
X88905Y134366D01*
X89070Y133752D01*
X89339Y133175D01*
X89524Y132911D01*
Y125864D01*
X89053Y125393D01*
X88603Y124750D01*
X88271Y124039D01*
X88068Y123281D01*
X88000Y122500D01*
X88068Y121719D01*
X88271Y120961D01*
X88603Y120250D01*
X89053Y119607D01*
X89524Y119136D01*
Y95864D01*
X89053Y95393D01*
X88603Y94750D01*
X88271Y94039D01*
X88068Y93281D01*
X88000Y92500D01*
X88068Y91719D01*
X88271Y90961D01*
X88603Y90250D01*
X89053Y89607D01*
X89524Y89136D01*
Y26310D01*
G37*
G36*
X84626Y137950D02*X84325Y138161D01*
X83748Y138430D01*
X83134Y138595D01*
X82500Y138650D01*
X81866Y138595D01*
X81252Y138430D01*
X80675Y138161D01*
X80476Y138022D01*
Y175000D01*
X84626D01*
Y153700D01*
X83984Y153644D01*
X83361Y153477D01*
X82776Y153204D01*
X82248Y152834D01*
X81792Y152378D01*
X81422Y151850D01*
X81149Y151265D01*
X80982Y150642D01*
X80926Y150000D01*
X80982Y149358D01*
X81149Y148735D01*
X81422Y148150D01*
X81792Y147622D01*
X82248Y147166D01*
X82776Y146796D01*
X83361Y146523D01*
X83984Y146356D01*
X84626Y146300D01*
Y137950D01*
G37*
G36*
Y126455D02*X84039Y126729D01*
X83281Y126932D01*
X82500Y127000D01*
X81719Y126932D01*
X80961Y126729D01*
X80476Y126503D01*
Y131978D01*
X80675Y131839D01*
X81252Y131570D01*
X81866Y131405D01*
X82500Y131350D01*
X83134Y131405D01*
X83748Y131570D01*
X84325Y131839D01*
X84626Y132050D01*
Y126455D01*
G37*
G36*
Y96455D02*X84039Y96729D01*
X83281Y96932D01*
X82500Y97000D01*
X81719Y96932D01*
X80961Y96729D01*
X80476Y96503D01*
Y118497D01*
X80961Y118271D01*
X81719Y118068D01*
X82500Y118000D01*
X83281Y118068D01*
X84039Y118271D01*
X84626Y118545D01*
Y96455D01*
G37*
G36*
Y34636D02*X80476Y41691D01*
Y62875D01*
X80559Y62894D01*
X80655Y62935D01*
X80743Y62992D01*
X80820Y63063D01*
X80882Y63147D01*
X80930Y63240D01*
X81038Y63545D01*
X81119Y63857D01*
X81172Y64176D01*
X81197Y64497D01*
X81194Y64820D01*
X81163Y65141D01*
X81105Y65459D01*
X81018Y65770D01*
X80905Y66072D01*
Y66073D01*
X80856Y66165D01*
X80791Y66248D01*
X80714Y66318D01*
X80625Y66373D01*
X80528Y66412D01*
X80476Y66423D01*
Y70325D01*
X80704Y70650D01*
X80977Y71235D01*
X81144Y71858D01*
X81200Y72500D01*
X81144Y73142D01*
X80977Y73765D01*
X80704Y74350D01*
X80476Y74675D01*
Y88497D01*
X80961Y88271D01*
X81719Y88068D01*
X82500Y88000D01*
X83281Y88068D01*
X84039Y88271D01*
X84626Y88545D01*
Y34636D01*
G37*
G36*
X80476Y74675D02*X80334Y74878D01*
X79878Y75334D01*
X79350Y75704D01*
X78765Y75977D01*
X78142Y76144D01*
X77500Y76200D01*
Y175000D01*
X80476D01*
Y138022D01*
X80154Y137796D01*
X79704Y137346D01*
X79339Y136825D01*
X79070Y136248D01*
X78905Y135634D01*
X78850Y135000D01*
X78905Y134366D01*
X79070Y133752D01*
X79339Y133175D01*
X79704Y132654D01*
X80154Y132204D01*
X80476Y131978D01*
Y126503D01*
X80250Y126397D01*
X79607Y125947D01*
X79053Y125393D01*
X78603Y124750D01*
X78271Y124039D01*
X78068Y123281D01*
X78000Y122500D01*
X78068Y121719D01*
X78271Y120961D01*
X78603Y120250D01*
X79053Y119607D01*
X79607Y119053D01*
X80250Y118603D01*
X80476Y118497D01*
Y96503D01*
X80250Y96397D01*
X79607Y95947D01*
X79053Y95393D01*
X78603Y94750D01*
X78271Y94039D01*
X78068Y93281D01*
X78000Y92500D01*
X78068Y91719D01*
X78271Y90961D01*
X78603Y90250D01*
X79053Y89607D01*
X79607Y89053D01*
X80250Y88603D01*
X80476Y88497D01*
Y74675D01*
G37*
G36*
Y41691D02*X77500Y46750D01*
Y60930D01*
X77693Y60932D01*
X78014Y60963D01*
X78332Y61021D01*
X78643Y61108D01*
X78945Y61221D01*
X78946D01*
X79038Y61270D01*
X79121Y61335D01*
X79191Y61412D01*
X79246Y61501D01*
X79285Y61598D01*
X79307Y61701D01*
X79310Y61805D01*
X79295Y61909D01*
X79263Y62008D01*
X79214Y62100D01*
X79149Y62183D01*
X79072Y62253D01*
X78983Y62308D01*
X78886Y62347D01*
X78783Y62369D01*
X78679Y62372D01*
X78575Y62357D01*
X78476Y62325D01*
X78272Y62249D01*
X78062Y62191D01*
X77847Y62151D01*
X77630Y62130D01*
X77500Y62129D01*
Y67124D01*
X77587Y67125D01*
X77804Y67108D01*
X78019Y67072D01*
X78230Y67017D01*
X78436Y66944D01*
Y66945D01*
X78536Y66914D01*
X78640Y66902D01*
X78744Y66907D01*
X78846Y66930D01*
X78942Y66971D01*
X79030Y67028D01*
X79107Y67099D01*
X79169Y67183D01*
X79217Y67276D01*
X79248Y67376D01*
X79260Y67480D01*
X79255Y67584D01*
X79232Y67686D01*
X79191Y67782D01*
X79134Y67870D01*
X79063Y67947D01*
X78979Y68009D01*
X78886Y68057D01*
X78581Y68165D01*
X78269Y68246D01*
X77950Y68299D01*
X77629Y68324D01*
X77500Y68323D01*
Y68800D01*
X78142Y68856D01*
X78765Y69023D01*
X79350Y69296D01*
X79878Y69666D01*
X80334Y70122D01*
X80476Y70325D01*
Y66423D01*
X80425Y66434D01*
X80321Y66437D01*
X80217Y66422D01*
X80118Y66390D01*
X80026Y66341D01*
X79943Y66276D01*
X79873Y66199D01*
X79818Y66110D01*
X79779Y66013D01*
X79757Y65910D01*
X79754Y65806D01*
X79769Y65702D01*
X79801Y65603D01*
X79877Y65399D01*
X79935Y65189D01*
X79975Y64974D01*
X79996Y64757D01*
X79998Y64539D01*
X79981Y64322D01*
X79945Y64107D01*
X79890Y63896D01*
X79817Y63690D01*
X79818D01*
X79787Y63590D01*
X79775Y63486D01*
X79780Y63382D01*
X79803Y63280D01*
X79844Y63184D01*
X79901Y63096D01*
X79972Y63019D01*
X80056Y62957D01*
X80149Y62909D01*
X80249Y62878D01*
X80353Y62866D01*
X80457Y62871D01*
X80476Y62875D01*
Y41691D01*
G37*
G36*
X76113Y175000D02*X77500D01*
Y76200D01*
X76858Y76144D01*
X76235Y75977D01*
X76113Y75920D01*
Y90360D01*
X76208Y90382D01*
X76329Y90433D01*
X76438Y90505D01*
X76534Y90594D01*
X76613Y90698D01*
X76672Y90815D01*
X76814Y91222D01*
X76917Y91642D01*
X76979Y92069D01*
X77000Y92500D01*
X76979Y92932D01*
X76917Y93359D01*
X76814Y93779D01*
X76672Y94186D01*
X76671D01*
X76612Y94302D01*
X76533Y94407D01*
X76437Y94496D01*
X76328Y94567D01*
X76207Y94618D01*
X76113Y94639D01*
Y119844D01*
X76397Y120250D01*
X76729Y120961D01*
X76932Y121719D01*
X77000Y122500D01*
X76932Y123281D01*
X76729Y124039D01*
X76397Y124750D01*
X76113Y125156D01*
Y175000D01*
G37*
G36*
Y75920D02*X75650Y75704D01*
X75122Y75334D01*
X74666Y74878D01*
X74524Y74675D01*
Y88608D01*
X74566Y88672D01*
X74617Y88793D01*
X74646Y88920D01*
X74653Y89050D01*
X74637Y89180D01*
X74599Y89305D01*
X74540Y89421D01*
X74524Y89442D01*
Y95557D01*
X74541Y95579D01*
X74600Y95696D01*
X74638Y95821D01*
X74654Y95951D01*
X74647Y96082D01*
X74618Y96209D01*
X74567Y96330D01*
X74524Y96395D01*
Y118497D01*
X74750Y118603D01*
X75393Y119053D01*
X75947Y119607D01*
X76113Y119844D01*
Y94639D01*
X76080Y94647D01*
X75950Y94654D01*
X75820Y94638D01*
X75695Y94600D01*
X75579Y94541D01*
X75474Y94462D01*
X75385Y94366D01*
X75314Y94257D01*
X75263Y94136D01*
X75234Y94009D01*
X75227Y93879D01*
X75243Y93749D01*
X75281Y93624D01*
X75376Y93353D01*
X75444Y93073D01*
X75486Y92788D01*
X75500Y92500D01*
X75486Y92213D01*
X75444Y91928D01*
X75376Y91648D01*
X75281Y91377D01*
X75280D01*
X75242Y91252D01*
X75226Y91122D01*
X75233Y90991D01*
X75262Y90864D01*
X75313Y90743D01*
X75385Y90634D01*
X75474Y90538D01*
X75578Y90459D01*
X75695Y90400D01*
X75820Y90362D01*
X75950Y90346D01*
X76081Y90353D01*
X76113Y90360D01*
Y75920D01*
G37*
G36*
X74524Y175000D02*X76113D01*
Y125156D01*
X75947Y125393D01*
X75393Y125947D01*
X74750Y126397D01*
X74524Y126503D01*
Y175000D01*
G37*
G36*
X77500Y46750D02*X74524Y51809D01*
Y62830D01*
X74574Y62819D01*
X74678Y62816D01*
X74782Y62831D01*
X74881Y62863D01*
X74973Y62912D01*
X75056Y62977D01*
X75126Y63054D01*
X75181Y63143D01*
X75220Y63240D01*
X75242Y63343D01*
X75245Y63447D01*
X75230Y63551D01*
X75198Y63650D01*
X75122Y63854D01*
X75064Y64064D01*
X75024Y64279D01*
X75003Y64496D01*
X75001Y64714D01*
X75018Y64931D01*
X75054Y65146D01*
X75109Y65357D01*
X75182Y65563D01*
X75181D01*
X75212Y65663D01*
X75224Y65767D01*
X75219Y65871D01*
X75196Y65973D01*
X75155Y66069D01*
X75098Y66157D01*
X75027Y66234D01*
X74943Y66296D01*
X74850Y66344D01*
X74750Y66375D01*
X74646Y66387D01*
X74542Y66382D01*
X74524Y66378D01*
Y70325D01*
X74666Y70122D01*
X75122Y69666D01*
X75650Y69296D01*
X76235Y69023D01*
X76858Y68856D01*
X77500Y68800D01*
Y68323D01*
X77306Y68321D01*
X76985Y68290D01*
X76667Y68232D01*
X76356Y68145D01*
X76054Y68032D01*
X76053D01*
X75961Y67983D01*
X75878Y67918D01*
X75808Y67841D01*
X75753Y67752D01*
X75714Y67655D01*
X75692Y67552D01*
X75689Y67448D01*
X75704Y67344D01*
X75736Y67245D01*
X75785Y67153D01*
X75850Y67070D01*
X75927Y67000D01*
X76016Y66945D01*
X76113Y66906D01*
X76216Y66884D01*
X76320Y66881D01*
X76424Y66896D01*
X76523Y66928D01*
X76727Y67004D01*
X76937Y67062D01*
X77152Y67102D01*
X77369Y67123D01*
X77500Y67124D01*
Y62129D01*
X77412Y62128D01*
X77195Y62145D01*
X76980Y62181D01*
X76769Y62236D01*
X76563Y62309D01*
Y62308D01*
X76463Y62339D01*
X76359Y62351D01*
X76255Y62346D01*
X76153Y62323D01*
X76057Y62282D01*
X75969Y62225D01*
X75892Y62154D01*
X75830Y62070D01*
X75782Y61977D01*
X75751Y61877D01*
X75739Y61773D01*
X75744Y61669D01*
X75767Y61567D01*
X75808Y61471D01*
X75865Y61383D01*
X75936Y61306D01*
X76020Y61244D01*
X76113Y61196D01*
X76418Y61088D01*
X76730Y61007D01*
X77049Y60954D01*
X77370Y60929D01*
X77500Y60930D01*
Y46750D01*
G37*
G36*
X68887Y175000D02*X74524D01*
Y126503D01*
X74039Y126729D01*
X73281Y126932D01*
X72500Y127000D01*
X71719Y126932D01*
X70961Y126729D01*
X70250Y126397D01*
X69607Y125947D01*
X69053Y125393D01*
X68887Y125156D01*
Y175000D01*
G37*
G36*
X74524Y51809D02*X68887Y61392D01*
Y90361D01*
X68919Y90354D01*
X69049Y90347D01*
X69179Y90363D01*
X69304Y90401D01*
X69420Y90460D01*
X69525Y90539D01*
X69614Y90635D01*
X69685Y90744D01*
X69736Y90865D01*
X69765Y90992D01*
X69772Y91122D01*
X69756Y91252D01*
X69718Y91377D01*
X69623Y91648D01*
X69555Y91928D01*
X69513Y92213D01*
X69500Y92500D01*
X69513Y92788D01*
X69555Y93073D01*
X69623Y93353D01*
X69718Y93624D01*
X69719D01*
X69757Y93749D01*
X69773Y93879D01*
X69766Y94010D01*
X69737Y94137D01*
X69686Y94258D01*
X69614Y94367D01*
X69525Y94463D01*
X69421Y94542D01*
X69304Y94601D01*
X69179Y94639D01*
X69049Y94655D01*
X68918Y94648D01*
X68887Y94641D01*
Y119844D01*
X69053Y119607D01*
X69607Y119053D01*
X70250Y118603D01*
X70961Y118271D01*
X71719Y118068D01*
X72500Y118000D01*
X73281Y118068D01*
X74039Y118271D01*
X74524Y118497D01*
Y96395D01*
X74495Y96439D01*
X74406Y96535D01*
X74302Y96614D01*
X74185Y96673D01*
X73778Y96815D01*
X73358Y96918D01*
X72931Y96980D01*
X72500Y97000D01*
X72068Y96980D01*
X71641Y96918D01*
X71221Y96815D01*
X70814Y96673D01*
Y96672D01*
X70698Y96613D01*
X70593Y96534D01*
X70504Y96438D01*
X70433Y96329D01*
X70382Y96208D01*
X70353Y96081D01*
X70346Y95951D01*
X70362Y95821D01*
X70400Y95696D01*
X70459Y95580D01*
X70538Y95475D01*
X70634Y95386D01*
X70743Y95315D01*
X70864Y95264D01*
X70991Y95235D01*
X71121Y95228D01*
X71251Y95244D01*
X71376Y95282D01*
X71647Y95377D01*
X71927Y95445D01*
X72212Y95487D01*
X72500Y95500D01*
X72787Y95487D01*
X73072Y95445D01*
X73352Y95377D01*
X73623Y95282D01*
Y95281D01*
X73748Y95243D01*
X73878Y95227D01*
X74009Y95234D01*
X74136Y95263D01*
X74257Y95314D01*
X74366Y95386D01*
X74462Y95475D01*
X74524Y95557D01*
Y89442D01*
X74461Y89526D01*
X74365Y89615D01*
X74256Y89686D01*
X74135Y89737D01*
X74008Y89766D01*
X73878Y89773D01*
X73748Y89757D01*
X73623Y89719D01*
X73352Y89624D01*
X73072Y89556D01*
X72787Y89514D01*
X72500Y89500D01*
X72212Y89514D01*
X71927Y89556D01*
X71647Y89624D01*
X71376Y89719D01*
Y89720D01*
X71251Y89758D01*
X71121Y89774D01*
X70990Y89767D01*
X70863Y89738D01*
X70742Y89687D01*
X70633Y89615D01*
X70537Y89526D01*
X70458Y89422D01*
X70399Y89305D01*
X70361Y89180D01*
X70345Y89050D01*
X70352Y88919D01*
X70381Y88792D01*
X70432Y88671D01*
X70504Y88562D01*
X70593Y88466D01*
X70697Y88387D01*
X70814Y88328D01*
X71221Y88186D01*
X71641Y88083D01*
X72068Y88021D01*
X72500Y88000D01*
X72931Y88021D01*
X73358Y88083D01*
X73778Y88186D01*
X74185Y88328D01*
Y88329D01*
X74301Y88388D01*
X74406Y88467D01*
X74495Y88563D01*
X74524Y88608D01*
Y74675D01*
X74296Y74350D01*
X74023Y73765D01*
X73856Y73142D01*
X73800Y72500D01*
X73856Y71858D01*
X74023Y71235D01*
X74296Y70650D01*
X74524Y70325D01*
Y66378D01*
X74440Y66359D01*
X74344Y66318D01*
X74256Y66261D01*
X74179Y66190D01*
X74117Y66106D01*
X74069Y66013D01*
X73961Y65708D01*
X73880Y65396D01*
X73827Y65077D01*
X73802Y64756D01*
X73805Y64433D01*
X73836Y64112D01*
X73894Y63794D01*
X73981Y63483D01*
X74094Y63181D01*
Y63180D01*
X74143Y63088D01*
X74208Y63005D01*
X74285Y62935D01*
X74374Y62880D01*
X74471Y62841D01*
X74524Y62830D01*
Y51809D01*
G37*
G36*
X68887Y61392D02*X66014Y66276D01*
Y89703D01*
X66397Y90250D01*
X66729Y90961D01*
X66932Y91719D01*
X67000Y92500D01*
X66932Y93281D01*
X66729Y94039D01*
X66397Y94750D01*
X66014Y95297D01*
Y119703D01*
X66397Y120250D01*
X66729Y120961D01*
X66932Y121719D01*
X67000Y122500D01*
X66932Y123281D01*
X66729Y124039D01*
X66397Y124750D01*
X66014Y125297D01*
Y140050D01*
X66224Y140350D01*
X66541Y141029D01*
X66735Y141753D01*
X66800Y142500D01*
X66735Y143247D01*
X66541Y143971D01*
X66224Y144650D01*
X66014Y144950D01*
Y150312D01*
X66069Y150331D01*
X66160Y150382D01*
X66242Y150448D01*
X66310Y150526D01*
X66364Y150616D01*
X66519Y150974D01*
X66641Y151344D01*
X66729Y151724D01*
X66782Y152111D01*
X66800Y152501D01*
X66782Y152890D01*
X66729Y153277D01*
X66641Y153657D01*
X66519Y154027D01*
X66364Y154385D01*
X66310Y154475D01*
X66242Y154553D01*
X66160Y154619D01*
X66069Y154670D01*
X66014Y154689D01*
Y175000D01*
X68887D01*
Y125156D01*
X68603Y124750D01*
X68271Y124039D01*
X68068Y123281D01*
X68000Y122500D01*
X68068Y121719D01*
X68271Y120961D01*
X68603Y120250D01*
X68887Y119844D01*
Y94641D01*
X68791Y94619D01*
X68670Y94568D01*
X68561Y94496D01*
X68465Y94407D01*
X68386Y94303D01*
X68327Y94186D01*
X68185Y93779D01*
X68082Y93359D01*
X68020Y92932D01*
X68000Y92500D01*
X68020Y92069D01*
X68082Y91642D01*
X68185Y91222D01*
X68327Y90815D01*
X68328D01*
X68387Y90699D01*
X68466Y90594D01*
X68562Y90505D01*
X68671Y90434D01*
X68792Y90383D01*
X68887Y90361D01*
Y61392D01*
G37*
G36*
X66014Y144950D02*X65794Y145264D01*
X65264Y145794D01*
X64650Y146224D01*
X63971Y146541D01*
X63247Y146735D01*
X62500Y146800D01*
Y148200D01*
X62889Y148218D01*
X63276Y148271D01*
X63656Y148359D01*
X64026Y148481D01*
X64384Y148636D01*
X64474Y148690D01*
X64552Y148758D01*
X64618Y148840D01*
X64669Y148931D01*
X64703Y149030D01*
X64719Y149133D01*
X64717Y149238D01*
X64697Y149340D01*
X64660Y149438D01*
X64606Y149528D01*
X64538Y149606D01*
X64456Y149672D01*
X64365Y149723D01*
X64266Y149757D01*
X64163Y149773D01*
X64058Y149771D01*
X63956Y149751D01*
X63858Y149714D01*
X63600Y149603D01*
X63333Y149515D01*
X63059Y149451D01*
X62780Y149413D01*
X62500Y149400D01*
Y155600D01*
X62780Y155588D01*
X63059Y155550D01*
X63333Y155486D01*
X63600Y155398D01*
X63858Y155287D01*
X63956Y155250D01*
X64058Y155230D01*
X64163Y155228D01*
X64266Y155244D01*
X64365Y155278D01*
X64456Y155329D01*
X64538Y155395D01*
X64606Y155473D01*
X64660Y155563D01*
X64697Y155661D01*
X64717Y155763D01*
X64719Y155868D01*
X64703Y155971D01*
X64669Y156070D01*
X64618Y156161D01*
X64552Y156243D01*
X64474Y156311D01*
X64384Y156365D01*
X64026Y156520D01*
X63656Y156642D01*
X63276Y156730D01*
X62889Y156783D01*
X62500Y156800D01*
Y175000D01*
X66014D01*
Y154689D01*
X65970Y154704D01*
X65867Y154720D01*
X65762Y154718D01*
X65660Y154698D01*
X65562Y154661D01*
X65472Y154607D01*
X65394Y154539D01*
X65328Y154457D01*
X65277Y154366D01*
X65243Y154267D01*
X65227Y154164D01*
X65229Y154059D01*
X65249Y153957D01*
X65286Y153859D01*
X65397Y153601D01*
X65485Y153334D01*
X65549Y153060D01*
X65587Y152781D01*
X65600Y152500D01*
X65587Y152220D01*
X65549Y151941D01*
X65485Y151667D01*
X65397Y151400D01*
X65286Y151142D01*
X65249Y151044D01*
X65229Y150942D01*
X65227Y150837D01*
X65243Y150734D01*
X65277Y150635D01*
X65328Y150544D01*
X65394Y150462D01*
X65472Y150394D01*
X65562Y150340D01*
X65660Y150303D01*
X65762Y150283D01*
X65867Y150281D01*
X65970Y150297D01*
X66014Y150312D01*
Y144950D01*
G37*
G36*
Y125297D02*X65947Y125393D01*
X65393Y125947D01*
X64750Y126397D01*
X64039Y126729D01*
X63281Y126932D01*
X62500Y127000D01*
Y138200D01*
X63247Y138265D01*
X63971Y138459D01*
X64650Y138776D01*
X65264Y139206D01*
X65794Y139736D01*
X66014Y140050D01*
Y125297D01*
G37*
G36*
Y95297D02*X65947Y95393D01*
X65393Y95947D01*
X64750Y96397D01*
X64039Y96729D01*
X63281Y96932D01*
X62500Y97000D01*
Y118000D01*
X63281Y118068D01*
X64039Y118271D01*
X64750Y118603D01*
X65393Y119053D01*
X65947Y119607D01*
X66014Y119703D01*
Y95297D01*
G37*
G36*
Y66276D02*X62500Y72250D01*
Y88000D01*
X63281Y88068D01*
X64039Y88271D01*
X64750Y88603D01*
X65393Y89053D01*
X65947Y89607D01*
X66014Y89703D01*
Y66276D01*
G37*
G36*
X58986Y119703D02*X59053Y119607D01*
X59607Y119053D01*
X60250Y118603D01*
X60961Y118271D01*
X61719Y118068D01*
X62500Y118000D01*
Y97000D01*
X61719Y96932D01*
X60961Y96729D01*
X60250Y96397D01*
X59607Y95947D01*
X59053Y95393D01*
X58986Y95297D01*
Y119703D01*
G37*
G36*
Y140050D02*X59206Y139736D01*
X59736Y139206D01*
X60350Y138776D01*
X61029Y138459D01*
X61753Y138265D01*
X62500Y138200D01*
Y127000D01*
X61719Y126932D01*
X60961Y126729D01*
X60250Y126397D01*
X59607Y125947D01*
X59053Y125393D01*
X58986Y125297D01*
Y140050D01*
G37*
G36*
Y175000D02*X62500D01*
Y156800D01*
X62110Y156783D01*
X61723Y156730D01*
X61343Y156642D01*
X60973Y156520D01*
X60615Y156365D01*
X60525Y156311D01*
X60447Y156243D01*
X60381Y156161D01*
X60330Y156070D01*
X60296Y155971D01*
X60280Y155868D01*
X60282Y155763D01*
X60302Y155661D01*
X60339Y155563D01*
X60393Y155473D01*
X60461Y155395D01*
X60543Y155329D01*
X60634Y155278D01*
X60733Y155244D01*
X60836Y155228D01*
X60941Y155230D01*
X61043Y155250D01*
X61141Y155287D01*
X61399Y155398D01*
X61666Y155486D01*
X61940Y155550D01*
X62219Y155588D01*
X62500Y155600D01*
Y149400D01*
X62219Y149413D01*
X61940Y149451D01*
X61666Y149515D01*
X61399Y149603D01*
X61141Y149714D01*
X61043Y149751D01*
X60941Y149771D01*
X60836Y149773D01*
X60733Y149757D01*
X60634Y149723D01*
X60543Y149672D01*
X60461Y149606D01*
X60393Y149528D01*
X60339Y149438D01*
X60302Y149340D01*
X60282Y149238D01*
X60280Y149133D01*
X60296Y149030D01*
X60330Y148931D01*
X60381Y148840D01*
X60447Y148758D01*
X60525Y148690D01*
X60615Y148636D01*
X60973Y148481D01*
X61343Y148359D01*
X61723Y148271D01*
X62110Y148218D01*
X62500Y148200D01*
Y146800D01*
X61753Y146735D01*
X61029Y146541D01*
X60350Y146224D01*
X59736Y145794D01*
X59206Y145264D01*
X58986Y144950D01*
Y150312D01*
X59029Y150297D01*
X59132Y150281D01*
X59237Y150283D01*
X59339Y150303D01*
X59437Y150340D01*
X59527Y150394D01*
X59605Y150462D01*
X59671Y150544D01*
X59722Y150635D01*
X59756Y150734D01*
X59772Y150837D01*
X59770Y150942D01*
X59750Y151044D01*
X59713Y151142D01*
X59602Y151400D01*
X59514Y151667D01*
X59450Y151941D01*
X59412Y152220D01*
X59400Y152501D01*
X59412Y152781D01*
X59450Y153060D01*
X59514Y153334D01*
X59602Y153601D01*
X59713Y153859D01*
X59750Y153957D01*
X59770Y154059D01*
X59772Y154164D01*
X59756Y154267D01*
X59722Y154366D01*
X59671Y154457D01*
X59605Y154539D01*
X59527Y154607D01*
X59437Y154661D01*
X59339Y154698D01*
X59237Y154718D01*
X59132Y154720D01*
X59029Y154704D01*
X58986Y154689D01*
Y175000D01*
G37*
G36*
X62500Y72250D02*X58986Y78224D01*
Y89703D01*
X59053Y89607D01*
X59607Y89053D01*
X60250Y88603D01*
X60961Y88271D01*
X61719Y88068D01*
X62500Y88000D01*
Y72250D01*
G37*
G36*
X58986Y78224D02*X55000Y85000D01*
Y88778D01*
X55393Y89053D01*
X55947Y89607D01*
X56397Y90250D01*
X56729Y90961D01*
X56932Y91719D01*
X57000Y92500D01*
X56932Y93281D01*
X56729Y94039D01*
X56397Y94750D01*
X55947Y95393D01*
X55393Y95947D01*
X55000Y96222D01*
Y118778D01*
X55393Y119053D01*
X55947Y119607D01*
X56397Y120250D01*
X56729Y120961D01*
X56932Y121719D01*
X57000Y122500D01*
X56932Y123281D01*
X56729Y124039D01*
X56397Y124750D01*
X55947Y125393D01*
X55393Y125947D01*
X55000Y126222D01*
Y139021D01*
X55264Y139206D01*
X55794Y139736D01*
X56224Y140350D01*
X56541Y141029D01*
X56735Y141753D01*
X56800Y142500D01*
X56735Y143247D01*
X56541Y143971D01*
X56224Y144650D01*
X55794Y145264D01*
X55264Y145794D01*
X55000Y145979D01*
Y149021D01*
X55264Y149206D01*
X55794Y149736D01*
X56224Y150350D01*
X56541Y151029D01*
X56735Y151753D01*
X56800Y152500D01*
X56735Y153247D01*
X56541Y153971D01*
X56224Y154650D01*
X55794Y155264D01*
X55264Y155794D01*
X55000Y155979D01*
Y175000D01*
X58986D01*
Y154689D01*
X58930Y154670D01*
X58839Y154619D01*
X58757Y154553D01*
X58689Y154475D01*
X58635Y154385D01*
X58480Y154027D01*
X58358Y153657D01*
X58270Y153277D01*
X58217Y152890D01*
X58200Y152500D01*
X58217Y152111D01*
X58270Y151724D01*
X58358Y151344D01*
X58480Y150974D01*
X58635Y150616D01*
X58689Y150526D01*
X58757Y150448D01*
X58839Y150382D01*
X58930Y150331D01*
X58986Y150312D01*
Y144950D01*
X58776Y144650D01*
X58459Y143971D01*
X58265Y143247D01*
X58200Y142500D01*
X58265Y141753D01*
X58459Y141029D01*
X58776Y140350D01*
X58986Y140050D01*
Y125297D01*
X58603Y124750D01*
X58271Y124039D01*
X58068Y123281D01*
X58000Y122500D01*
X58068Y121719D01*
X58271Y120961D01*
X58603Y120250D01*
X58986Y119703D01*
Y95297D01*
X58603Y94750D01*
X58271Y94039D01*
X58068Y93281D01*
X58000Y92500D01*
X58068Y91719D01*
X58271Y90961D01*
X58603Y90250D01*
X58986Y89703D01*
Y78224D01*
G37*
G54D13*X62500Y122500D03*
X52500D03*
X42500D03*
X32500D03*
X22500D03*
Y92500D03*
X32500D03*
X42500D03*
X52500D03*
G54D14*G36*
X39400Y145600D02*Y139400D01*
X45600D01*
Y145600D01*
X39400D01*
G37*
G54D15*X52500Y142500D03*
X62500D03*
X42500Y152500D03*
X52500D03*
X62500D03*
G54D13*X122500Y122500D03*
X112500D03*
X102500D03*
X92500D03*
G54D14*G36*
X149500Y125500D02*Y119500D01*
X155500D01*
Y125500D01*
X149500D01*
G37*
G54D13*X142500Y122500D03*
X132500D03*
X82500D03*
G54D14*G36*
X114400Y145600D02*Y139400D01*
X120600D01*
Y145600D01*
X114400D01*
G37*
G54D15*X127500Y142500D03*
X137500D03*
X117500Y152500D03*
X127500D03*
X137500D03*
G54D16*X92500Y150000D03*
X84626D03*
G54D17*X92500Y135000D03*
X82500D03*
G54D13*X132500Y92500D03*
X142500D03*
X152500D03*
X72500Y122500D03*
G54D16*X77500Y64626D03*
Y72500D03*
G54D15*X80000Y12500D03*
X75000Y25000D03*
X65000D03*
X55000D03*
X45000D03*
X70000Y12500D03*
X60000D03*
X50000D03*
X70000Y37500D03*
X60000D03*
X50000D03*
G54D13*X92500Y92500D03*
X102500D03*
X112500D03*
X122500D03*
G54D14*G36*
X92000Y38000D02*Y32000D01*
X98000D01*
Y38000D01*
X92000D01*
G37*
G54D17*X95000Y75000D03*
G54D13*X105000Y35000D03*
G54D17*Y75000D03*
G54D13*X115000Y35000D03*
X125000D03*
X135000D03*
X145000D03*
X155000D03*
X165000D03*
Y65000D03*
X155000D03*
X145000D03*
X135000D03*
X125000D03*
X115000D03*
X105000D03*
X95000D03*
X62500Y92500D03*
X72500D03*
X82500D03*
G54D15*X55000Y75000D03*
Y50000D03*
X50000Y62500D03*
X45000Y75000D03*
Y50000D03*
X40000Y62500D03*
Y37500D03*
X35000Y75000D03*
Y50000D03*
X30000Y62500D03*
X25000Y75000D03*
X65000Y50000D03*
X60000Y62500D03*
G54D18*X17500Y15000D03*
Y160000D03*
X162500Y15000D03*
Y160000D03*
G54D17*X10000Y48000D03*
X149000Y79000D03*
G54D19*G54D20*G54D19*G54D20*G54D21*G54D22*G54D19*G54D21*G54D20*G54D19*G54D22*G54D19*G54D22*G54D19*G54D20*G54D23*G54D22*M02*
