G04 start of page 5 for group 3 idx 3 *
G04 Title: logic, Solder *
G04 Creator: pcb 20091103 *
G04 CreationDate: Wed 03 Feb 2010 10:59:49 PM GMT UTC *
G04 For: srussell *
G04 Format: Gerber/RS-274X *
G04 PCB-Dimensions: 475000 475000 *
G04 PCB-Coordinate-Origin: lower left *
%MOIN*%
%FSLAX25Y25*%
%LNBACK*%
%ADD11C,0.0140*%
%ADD12C,0.0600*%
%ADD13C,0.0200*%
%ADD14C,0.0490*%
%ADD15C,0.0500*%
%ADD16C,0.0620*%
%ADD17C,0.0590*%
%ADD18C,0.0720*%
%ADD19C,0.2050*%
%ADD20C,0.0280*%
%ADD21C,0.0250*%
%ADD22C,0.0260*%
%ADD23C,0.0380*%
%ADD24C,0.0350*%
%ADD25C,0.0420*%
%ADD26C,0.1250*%
G54D11*X372600Y344901D02*X333149D01*
X372599D02*Y309999D01*
X357500Y310000D02*Y305099D01*
X333150Y346851D02*X208098D01*
X286549Y323099D02*Y327802D01*
X367500Y340000D02*Y335099D01*
X332998Y305498D02*Y305149D01*
Y305150D02*X292650D01*
X357500Y305100D02*X340201D01*
X337500Y310000D02*X332998Y305498D01*
X335599Y300498D02*X340201Y305100D01*
X376300Y299947D02*X353694D01*
X382400Y340000D02*Y306047D01*
X382401Y340000D02*X377500D01*
X377501Y310000D02*X372599D01*
X382400Y306047D02*X376300Y299947D01*
X385002Y290000D02*X365002Y270000D01*
X395001Y290000D02*X385002D01*
X365002Y270000D02*X365000D01*
X412649D02*X407500D01*
X413897Y285150D02*X412649Y283902D01*
X427500Y285150D02*X413897D01*
X427500Y290000D02*Y285149D01*
X292650Y305150D02*X277500Y290000D01*
X286549Y323100D02*X272599Y309150D01*
X262500Y425000D02*X265599D01*
X269850Y421900D02*Y394999D01*
X269851Y421900D02*X265598D01*
Y425000D02*Y421899D01*
Y425000D02*X262500D01*
X275001Y395000D02*X269850D01*
X277501Y357401D02*X257500D01*
X293847Y335100D02*X286549Y327802D01*
X263149Y323398D02*X263151Y323399D01*
X277500Y357401D02*Y352499D01*
Y352500D02*Y352499D01*
X263150Y323399D02*X263151D01*
X277500Y290000D02*Y289999D01*
X333149Y346851D02*Y344900D01*
X337501Y310000D02*X337500D01*
X367500Y335100D02*X293847D01*
X353694Y299947D02*X347649Y293902D01*
X79901Y285000D02*X75000D01*
X117500Y305000D02*Y294999D01*
Y295000D02*Y294999D01*
X79900Y285000D02*Y249901D01*
X105000Y265000D02*X100099Y260099D01*
X105001Y265000D02*X105000D01*
X100099Y245000D02*X75000D01*
X100099Y244999D02*Y260099D01*
X79901Y249901D02*X71048D01*
X70099Y248952D01*
X152351Y224851D02*X143598D01*
X142350Y223603D01*
X157599Y220000D02*X147500D01*
X122649Y222500D02*Y207649D01*
X147500Y295000D02*Y294999D01*
X192501Y237500D02*X185225D01*
X157599Y272599D02*Y219999D01*
X303747Y255100D02*X295099Y246452D01*
X322500Y250000D02*Y229999D01*
Y240000D02*Y239999D01*
X274901Y225100D02*X272599D01*
X260000Y272500D02*Y218149D01*
X263149Y212500D02*X260000D01*
Y212499D01*
X263150Y212500D02*X260000Y212499D01*
Y212500D02*X263150D01*
X272599Y309150D02*Y225099D01*
X274900Y225100D02*Y182499D01*
X335599Y260000D02*X307500D01*
X347649Y255100D02*X303747D01*
X347649Y255099D02*Y293902D01*
X335599Y300498D02*Y259999D01*
X295099Y175849D02*Y246452D01*
X274900Y182500D02*X270000D01*
X292126Y132500D02*Y132499D01*
X270000Y182500D02*X266976Y179476D01*
X302126Y132500D02*Y119999D01*
Y120000D02*Y119999D01*
X292126Y142500D02*Y119999D01*
X266976Y179476D02*Y137650D01*
X260000Y182500D02*Y170000D01*
X292126Y120000D02*Y119999D01*
X282126Y120000D02*Y115099D01*
X302127Y115100D02*X282126D01*
X302126Y90000D02*Y89999D01*
Y57500D02*Y57499D01*
Y62351D02*Y57499D01*
Y115100D02*Y89999D01*
X292126Y77500D02*Y77499D01*
Y67500D02*X294627D01*
X294626D02*X292126D01*
X302127Y62351D02*X284626D01*
X294627Y67500D02*X292126Y67499D01*
X282126Y90000D02*Y87000D01*
X280275Y67499D02*Y85150D01*
X282126Y87001D02*X280275Y85150D01*
X282126Y87001D02*Y87000D01*
X292126Y90000D02*Y67499D01*
X282127Y87001D02*X282126D01*
X252126Y90000D02*Y77499D01*
Y77500D02*Y77499D01*
X284626Y67500D02*Y62350D01*
X284627Y67500D02*X280275D01*
X395001Y250000D02*X395000D01*
X369900Y224900D01*
X407501Y212500D02*X407500D01*
X412649Y192500D02*X407500D01*
X413897Y207650D02*X412649Y206402D01*
Y192499D02*Y206402D01*
Y269999D02*Y283902D01*
X407500Y212500D02*X399900Y204900D01*
X427500Y207650D02*X413897D01*
X427500Y212500D02*Y207649D01*
X452500Y185000D02*Y149999D01*
Y150000D02*X447500D01*
X452500Y165000D02*Y164999D01*
Y262500D02*Y227499D01*
Y227500D02*X447500D01*
X452500Y242500D02*Y242499D01*
X352500Y150000D02*Y149999D01*
Y160000D02*Y149999D01*
Y237500D02*Y227499D01*
Y227500D02*Y227499D01*
X270000Y182500D02*X270001D01*
X322501Y172500D02*X307500D01*
Y230000D02*Y172499D01*
X322500Y152500D02*Y152499D01*
Y162500D02*Y152499D01*
X399900Y204900D02*Y197401D01*
X399901D02*X369901D01*
X359350Y112499D02*Y112498D01*
X361048Y207401D02*X359350Y205703D01*
X369900Y224900D02*Y207401D01*
X369901Y197401D02*X365000Y192500D01*
Y192499D01*
X369901Y207401D02*X361048D01*
X359350Y112498D02*Y205703D01*
X185225Y330952D02*Y237499D01*
X162500Y277500D02*X157599Y272599D01*
X162501Y277500D02*X162500D01*
X162501Y287500D02*X157599D01*
X177500Y330000D02*Y329999D01*
X147500Y305000D02*Y284999D01*
X152350Y376203D02*Y224851D01*
X195099Y216452D02*Y182499D01*
Y182500D02*X190000D01*
X196797Y218150D02*X195099Y216452D01*
X190001Y212500D02*X190000D01*
X184900Y207400D01*
Y175951D01*
X260000Y218150D02*X196797D01*
X260001Y272500D02*X255000D01*
X266977Y137650D02*X139900D01*
X147500Y199999D02*Y220000D01*
X263149Y323398D02*Y212500D01*
X144951Y156578D02*Y146851D01*
X260000Y170000D02*X241500D01*
X231500Y160000D01*
X189000D01*
X192423Y338150D02*X185225Y330952D01*
X205149Y338150D02*X192423D01*
X208098Y346851D02*X205149Y343902D01*
X187500Y357401D02*Y352499D01*
X205149Y343902D02*Y338149D01*
X187500Y352500D02*Y352499D01*
X217500Y382500D02*Y382499D01*
X220001Y395000D02*X217500D01*
X207500Y387401D02*Y382499D01*
X217500Y395000D02*Y382499D01*
X207500Y382500D02*Y382499D01*
X257500Y382500D02*Y357400D01*
X207501Y387401D02*X163548D01*
X152350Y376203D01*
X162600Y375850D02*X157599Y370849D01*
X162601Y375850D02*X162600D01*
X172600Y382500D02*X167500D01*
X187501Y395000D02*X182350D01*
X157599Y370849D02*Y287499D01*
X167500Y340000D02*Y339999D01*
X182350Y410150D02*Y394999D01*
X182351Y410150D02*X167500D01*
Y415000D02*Y410149D01*
X172599Y382500D02*Y357400D01*
X187501Y357401D02*X172599D01*
X177500Y340000D02*Y339999D01*
X167500Y352500D02*Y339999D01*
X177500Y352500D02*Y329999D01*
X219626Y132500D02*Y119999D01*
Y115100D02*Y89999D01*
X222127Y132500D02*X219626D01*
Y120000D02*Y119999D01*
Y90000D02*Y89999D01*
X199626Y120000D02*Y115099D01*
X219627Y115100D02*X199626D01*
X105000Y135000D02*Y134999D01*
X116846Y149952D02*X105000Y138106D01*
X119901Y139901D02*X115000Y135000D01*
X117998Y146851D02*X109900Y138753D01*
X115000Y135000D02*Y134999D01*
X105000Y138106D02*Y134999D01*
X142350Y223603D02*Y149952D01*
X137500Y210000D02*Y207649D01*
X137501Y207650D02*X122649D01*
X137500D02*Y207649D01*
X147500Y210000D02*Y209999D01*
X122650Y222500D02*X117500D01*
X109900Y138753D02*Y105000D01*
X109901D02*X105000D01*
X100099Y159999D02*Y175099D01*
X105000Y180000D02*X100099Y175099D01*
X105001Y180000D02*X105000D01*
X142351Y149952D02*X116846D01*
X139900Y139901D02*Y137649D01*
X139901Y139901D02*X119901D01*
X144952Y146851D02*X117998D01*
X164324Y175951D02*X144951Y156578D01*
X184901Y175951D02*X164324D01*
X70099Y248952D02*Y109900D01*
X95000Y105000D02*Y104999D01*
Y109901D02*Y104999D01*
X100099Y160000D02*X75000D01*
X95001Y109901D02*X70099D01*
X199626Y90000D02*Y77499D01*
Y77500D02*Y77499D01*
X204776Y77500D02*X199626D01*
X209626D02*Y77499D01*
Y90000D02*Y67499D01*
X219627Y62351D02*X204775D01*
X219626Y57500D02*Y57499D01*
Y62351D02*Y57499D01*
X212127Y45000D02*X209027Y44999D01*
X209028Y48101D02*X202174D01*
X209027D02*Y44999D01*
X212126Y45000D02*X209027D01*
X212127D02*X209027D01*
X204775Y77500D02*Y62350D01*
X199626Y67500D02*X202175D01*
X202174D02*Y48100D01*
Y67500D02*X199626D01*
X52501Y180000D02*X52500D01*
X47350Y174850D01*
X47351Y160000D02*X42500D01*
X47350Y174850D02*Y160000D01*
X52500Y262500D02*X47350Y257350D01*
X17500Y184999D02*Y217500D01*
X22501Y305000D02*X22500D01*
X17500Y300000D01*
X22501Y222500D02*X22500D01*
X17500Y217500D01*
Y269999D02*Y300000D01*
X52501Y262500D02*X52500D01*
X47351Y242500D02*X42500D01*
X47350Y257350D02*Y242500D01*
G54D12*X270000Y212500D03*
X260000D03*
X250000D03*
X240000D03*
G54D13*G36*
X297000Y215500D02*Y209500D01*
X303000D01*
Y215500D01*
X297000D01*
G37*
G54D12*X290000Y212500D03*
X280000D03*
X230000D03*
G54D14*X240000Y222500D03*
G54D12*X220000Y212500D03*
X192500Y267500D03*
Y277500D03*
Y287500D03*
G54D14*X202500D03*
G54D15*X217500D03*
G54D13*G36*
X204400Y258100D02*Y251900D01*
X210600D01*
Y258100D01*
X204400D01*
G37*
G54D16*X207500Y265000D03*
X217500Y255000D03*
X227500D03*
G54D15*X235000Y237500D03*
X227126D03*
G54D16*X217500Y265000D03*
X227500D03*
G54D13*G36*
X241900Y285600D02*Y279400D01*
X248100D01*
Y285600D01*
X241900D01*
G37*
G54D16*X255000Y282500D03*
X245000Y272500D03*
X255000D03*
X245000Y262500D03*
X255000D03*
G54D12*X240000Y182500D03*
X250000D03*
X260000D03*
G54D15*X252500Y232126D03*
G54D14*X267500Y230000D03*
G54D15*X252500Y240000D03*
G54D14*X267500D03*
G54D12*X277500Y250000D03*
Y240000D03*
Y230000D03*
G54D13*G36*
X239176Y155450D02*Y149550D01*
X245076D01*
Y155450D01*
X239176D01*
G37*
G54D17*X242126Y162500D03*
G54D12*X290000Y182500D03*
G54D13*G36*
X299176Y145450D02*Y139550D01*
X305076D01*
Y145450D01*
X299176D01*
G37*
G54D17*X292126Y142500D03*
G54D13*G36*
X289176Y135450D02*Y129550D01*
X295076D01*
Y135450D01*
X289176D01*
G37*
G54D17*X302126Y132500D03*
G54D15*X279626Y145000D03*
G54D12*X307500Y280000D03*
Y290000D03*
X277500D03*
Y280000D03*
Y270000D03*
Y260000D03*
X270000Y182500D03*
G54D13*G36*
X259176Y155450D02*Y149550D01*
X265076D01*
Y155450D01*
X259176D01*
G37*
G54D17*X262126Y162500D03*
G54D15*X271752Y145000D03*
G54D14*X355000Y260000D03*
X342500Y227500D03*
X352500D03*
X355000Y270000D03*
X407500D03*
X417500D03*
X405000Y250000D03*
Y260000D03*
X355000Y192500D03*
X342500Y150000D03*
X352500D03*
X405000Y172500D03*
X407500Y192500D03*
X417500D03*
X405000Y182500D03*
X355000D03*
G54D12*X280000D03*
X300000D03*
X365000D03*
G54D15*X340000Y182126D03*
G54D13*G36*
X339550Y160450D02*Y154550D01*
X345450D01*
Y160450D01*
X339550D01*
G37*
G54D17*X342500Y167500D03*
G54D13*G36*
X319550Y165450D02*Y159550D01*
X325450D01*
Y165450D01*
X319550D01*
G37*
G54D17*X332500Y162500D03*
G54D13*G36*
X329550Y155450D02*Y149550D01*
X335450D01*
Y155450D01*
X329550D01*
G37*
G54D17*X322500Y152500D03*
G54D13*G36*
X329550Y175450D02*Y169550D01*
X335450D01*
Y175450D01*
X329550D01*
G37*
G54D17*X322500Y172500D03*
G54D13*G36*
X339550Y215450D02*Y209550D01*
X345450D01*
Y215450D01*
X339550D01*
G37*
G54D17*X342500Y202500D03*
X352500Y212500D03*
G54D12*X395000Y192500D03*
Y202500D03*
Y212500D03*
G54D13*G36*
X349550Y205450D02*Y199550D01*
X355450D01*
Y205450D01*
X349550D01*
G37*
G54D12*X365000Y212500D03*
Y202500D03*
Y192500D03*
G54D15*X340000Y190000D03*
G54D13*G36*
X434400Y205600D02*Y199400D01*
X440600D01*
Y205600D01*
X434400D01*
G37*
G54D16*X447500Y202500D03*
G54D13*G36*
X349550Y172950D02*Y167050D01*
X355450D01*
Y172950D01*
X349550D01*
G37*
G54D17*X352500Y160000D03*
G54D12*X365000Y172500D03*
Y162500D03*
Y152500D03*
G54D13*G36*
X404550Y152950D02*Y147050D01*
X410450D01*
Y152950D01*
X404550D01*
G37*
G36*
X392000Y155500D02*Y149500D01*
X398000D01*
Y155500D01*
X392000D01*
G37*
G54D12*X395000Y162500D03*
Y172500D03*
Y182500D03*
G54D17*X407500Y160000D03*
G54D13*G36*
X414550Y162950D02*Y157050D01*
X420450D01*
Y162950D01*
X414550D01*
G37*
G54D17*X417500Y150000D03*
G54D13*G36*
X444400Y153100D02*Y146900D01*
X450600D01*
Y153100D01*
X444400D01*
G37*
G54D16*X437500Y150000D03*
G54D14*X230000Y222500D03*
G54D13*G36*
X246676Y145450D02*Y139550D01*
X252576D01*
Y145450D01*
X246676D01*
G37*
G36*
X249176Y165450D02*Y159550D01*
X255076D01*
Y165450D01*
X249176D01*
G37*
G54D17*X252126Y152500D03*
X259626Y142500D03*
G54D13*G36*
X256676Y135450D02*Y129550D01*
X262576D01*
Y135450D01*
X256676D01*
G37*
G54D17*X249626Y132500D03*
G54D14*X239626Y142500D03*
Y132500D03*
G54D12*X210000Y182500D03*
X220000D03*
X230000D03*
G54D13*G36*
X219176Y145450D02*Y139550D01*
X225076D01*
Y145450D01*
X219176D01*
G37*
G54D17*X222126Y132500D03*
G54D15*X200000Y147500D03*
X192126D03*
G54D13*G36*
X176676Y135450D02*Y129550D01*
X182576D01*
Y135450D01*
X176676D01*
G37*
G54D17*X179626Y142500D03*
X212126D03*
G54D13*G36*
X209176Y135450D02*Y129550D01*
X215076D01*
Y135450D01*
X209176D01*
G37*
G54D17*X169626Y132500D03*
G54D13*G36*
X166676Y145450D02*Y139550D01*
X172576D01*
Y145450D01*
X166676D01*
G37*
G36*
X169176Y167950D02*Y162050D01*
X175076D01*
Y167950D01*
X169176D01*
G37*
G54D17*X172126Y155000D03*
G54D12*X210000Y212500D03*
X200000D03*
X190000D03*
X180000D03*
X192500Y237500D03*
Y247500D03*
Y257500D03*
X170000Y212500D03*
Y182500D03*
X180000D03*
X190000D03*
X200000D03*
G54D17*X182126Y165000D03*
X162126D03*
G54D13*G36*
X144550Y212950D02*Y207050D01*
X150450D01*
Y212950D01*
X144550D01*
G37*
G54D17*X137500Y210000D03*
G54D13*G36*
X134550Y222950D02*Y217050D01*
X140450D01*
Y222950D01*
X134550D01*
G37*
G54D17*X147500Y220000D03*
G54D13*G36*
X134550Y202950D02*Y197050D01*
X140450D01*
Y202950D01*
X134550D01*
G37*
G54D17*X147500Y200000D03*
G54D13*G36*
X179176Y157950D02*Y152050D01*
X185076D01*
Y157950D01*
X179176D01*
G37*
G36*
X159176D02*Y152050D01*
X165076D01*
Y157950D01*
X159176D01*
G37*
G54D15*X130000Y264626D03*
G54D13*G36*
X114550Y252950D02*Y247050D01*
X120450D01*
Y252950D01*
X114550D01*
G37*
G54D17*X117500Y240000D03*
G54D14*Y222500D03*
G54D12*X162500Y257500D03*
Y247500D03*
Y237500D03*
G54D13*G36*
X114550Y172950D02*Y167050D01*
X120450D01*
Y172950D01*
X114550D01*
G37*
G54D17*X117500Y160000D03*
G54D13*G36*
X114550Y205450D02*Y199550D01*
X120450D01*
Y205450D01*
X114550D01*
G37*
G54D17*X117500Y212500D03*
G54D14*X115000Y190000D03*
Y180000D03*
X127500Y222500D03*
G54D13*G36*
X124550Y215450D02*Y209550D01*
X130450D01*
Y215450D01*
X124550D01*
G37*
G54D17*X127500Y202500D03*
G54D12*X105000Y160000D03*
Y170000D03*
Y180000D03*
Y190000D03*
Y200000D03*
Y210000D03*
Y220000D03*
G54D14*X65000Y200000D03*
Y190000D03*
G54D15*X130000Y180000D03*
Y187874D03*
G54D13*G36*
X124550Y160450D02*Y154550D01*
X130450D01*
Y160450D01*
X124550D01*
G37*
G54D17*X127500Y167500D03*
G54D13*G36*
X124550Y242950D02*Y237050D01*
X130450D01*
Y242950D01*
X124550D01*
G37*
G54D17*X127500Y250000D03*
G54D12*X105000Y245000D03*
Y255000D03*
Y265000D03*
Y275000D03*
Y285000D03*
Y295000D03*
Y305000D03*
G54D13*G36*
X114550Y287950D02*Y282050D01*
X120450D01*
Y287950D01*
X114550D01*
G37*
G54D14*X115000Y272500D03*
Y262500D03*
G54D17*X117500Y295000D03*
G54D13*G36*
X159500Y300500D02*Y294500D01*
X165500D01*
Y300500D01*
X159500D01*
G37*
G54D12*X162500Y287500D03*
Y277500D03*
Y267500D03*
G54D13*G36*
X49550Y245450D02*Y239550D01*
X55450D01*
Y245450D01*
X49550D01*
G37*
G54D17*X52500Y252500D03*
G54D13*G36*
X39550Y255450D02*Y249550D01*
X45450D01*
Y255450D01*
X39550D01*
G37*
G54D17*X42500Y242500D03*
G54D14*X52500Y262500D03*
G54D15*X50000Y275000D03*
G54D13*G36*
X29400Y255600D02*Y249400D01*
X35600D01*
Y255600D01*
X29400D01*
G37*
G54D16*X22500Y252500D03*
G54D13*G36*
X72000Y308000D02*Y302000D01*
X78000D01*
Y308000D01*
X72000D01*
G37*
G54D12*X75000Y295000D03*
Y285000D03*
G54D14*X62500Y262500D03*
G54D12*X75000Y275000D03*
Y265000D03*
G54D14*X65000Y272500D03*
G54D13*G36*
X47050Y295450D02*Y289550D01*
X52950D01*
Y295450D01*
X47050D01*
G37*
G54D17*X50000Y302500D03*
G54D13*G36*
X59550Y307950D02*Y302050D01*
X65450D01*
Y307950D01*
X59550D01*
G37*
G54D17*X62500Y295000D03*
G54D12*X75000Y255000D03*
Y245000D03*
G54D13*G36*
X59550Y255450D02*Y249550D01*
X65450D01*
Y255450D01*
X59550D01*
G37*
G54D17*X62500Y242500D03*
G54D14*X65000Y282500D03*
G54D13*G36*
X13900Y293600D02*Y286400D01*
X21100D01*
Y293600D01*
X13900D01*
G37*
G36*
Y273600D02*Y266400D01*
X21100D01*
Y273600D01*
X13900D01*
G37*
G54D18*X27500Y270000D03*
X37500D03*
X27500Y290000D03*
X37500D03*
G54D15*X50000Y282874D03*
G54D13*G36*
X19400Y308100D02*Y301900D01*
X25600D01*
Y308100D01*
X19400D01*
G37*
G54D16*X32500Y305000D03*
G54D14*X127500D03*
G54D13*G36*
X124550Y300450D02*Y294550D01*
X130450D01*
Y300450D01*
X124550D01*
G37*
G54D17*X127500Y287500D03*
G54D14*X117500Y305000D03*
G54D13*G36*
X134550Y307950D02*Y302050D01*
X140450D01*
Y307950D01*
X134550D01*
G37*
G54D17*X147500Y305000D03*
G54D15*X130000Y272500D03*
G54D13*G36*
X134550Y287950D02*Y282050D01*
X140450D01*
Y287950D01*
X134550D01*
G37*
G54D17*X147500Y285000D03*
G54D13*G36*
X144550Y297950D02*Y292050D01*
X150450D01*
Y297950D01*
X144550D01*
G37*
G54D17*X137500Y295000D03*
G54D12*X75000Y135000D03*
Y190000D03*
Y180000D03*
Y170000D03*
Y160000D03*
X65000Y135000D03*
G54D17*X42500Y160000D03*
G54D13*G36*
X29400Y170600D02*Y164400D01*
X35600D01*
Y170600D01*
X29400D01*
G37*
G54D16*X22500Y167500D03*
G54D13*G36*
X13900Y188600D02*Y181400D01*
X21100D01*
Y188600D01*
X13900D01*
G37*
G54D18*X27500Y185000D03*
X37500D03*
G54D13*G36*
X39550Y172950D02*Y167050D01*
X45450D01*
Y172950D01*
X39550D01*
G37*
G54D14*X52500Y180000D03*
X62500D03*
G54D13*G36*
X49550Y162950D02*Y157050D01*
X55450D01*
Y162950D01*
X49550D01*
G37*
G54D17*X52500Y170000D03*
G54D15*X50000Y192126D03*
G54D13*G36*
X59550Y172950D02*Y167050D01*
X65450D01*
Y172950D01*
X59550D01*
G37*
G54D17*X62500Y160000D03*
G54D13*G36*
X19400Y225600D02*Y219400D01*
X25600D01*
Y225600D01*
X19400D01*
G37*
G36*
X13900Y211100D02*Y203900D01*
X21100D01*
Y211100D01*
X13900D01*
G37*
G54D18*X27500Y207500D03*
G54D16*X32500Y222500D03*
G54D18*X37500Y207500D03*
G54D13*G36*
X72000Y223000D02*Y217000D01*
X78000D01*
Y223000D01*
X72000D01*
G37*
G54D12*X75000Y210000D03*
Y200000D03*
G54D13*G36*
X59550Y225450D02*Y219550D01*
X65450D01*
Y225450D01*
X59550D01*
G37*
G54D17*X62500Y212500D03*
G54D15*X50000Y200000D03*
G54D13*G36*
X49550Y215450D02*Y209550D01*
X55450D01*
Y215450D01*
X49550D01*
G37*
G54D17*X52500Y222500D03*
G54D13*G36*
X132000Y138000D02*Y132000D01*
X138000D01*
Y138000D01*
X132000D01*
G37*
G54D12*X125000Y135000D03*
X115000D03*
X105000D03*
X95000D03*
X85000D03*
X65000Y105000D03*
X75000D03*
X85000D03*
X95000D03*
X105000D03*
X115000D03*
X125000D03*
X135000D03*
G54D15*X127126Y80000D03*
G54D14*X135000Y95000D03*
X125000D03*
X159626Y142500D03*
Y132500D03*
X189626Y130000D03*
X199626D03*
G54D15*X135000Y80000D03*
G54D13*G36*
X156626Y93000D02*Y87000D01*
X162626D01*
Y93000D01*
X156626D01*
G37*
G54D12*X169626Y90000D03*
X179626D03*
X189626Y120000D03*
X179626D03*
X169626D03*
X159626D03*
G54D13*G36*
X171026Y33600D02*Y26400D01*
X178226D01*
Y33600D01*
X171026D01*
G37*
G36*
X156526Y38100D02*Y31900D01*
X162726D01*
Y38100D01*
X156526D01*
G37*
G54D16*X159626Y45000D03*
G54D18*X174626Y40000D03*
Y50000D03*
G54D13*G36*
X164176Y70450D02*Y64550D01*
X170076D01*
Y70450D01*
X164176D01*
G37*
G54D17*X157126Y67500D03*
G54D15*X187126Y65000D03*
X179252D03*
G54D13*G36*
X154176Y80450D02*Y74550D01*
X160076D01*
Y80450D01*
X154176D01*
G37*
G54D17*X167126Y77500D03*
G54D13*G36*
X191026Y33600D02*Y26400D01*
X198226D01*
Y33600D01*
X191026D01*
G37*
G54D18*X194626Y40000D03*
Y50000D03*
G54D14*X199626Y67500D03*
G54D13*G36*
X239176Y80450D02*Y74550D01*
X245076D01*
Y80450D01*
X239176D01*
G37*
G54D17*X252126Y77500D03*
G54D13*G36*
X239126Y93000D02*Y87000D01*
X245126D01*
Y93000D01*
X239126D01*
G37*
G54D12*X252126Y90000D03*
X262126D03*
G54D14*X284626Y77500D03*
G54D13*G36*
X289176Y80450D02*Y74550D01*
X295076D01*
Y80450D01*
X289176D01*
G37*
G54D17*X302126Y77500D03*
G54D13*G36*
X236526Y40600D02*Y34400D01*
X242726D01*
Y40600D01*
X236526D01*
G37*
G54D16*X292126Y37500D03*
X212126Y35000D03*
G54D13*G36*
X251026Y36100D02*Y28900D01*
X258226D01*
Y36100D01*
X251026D01*
G37*
G36*
X271026D02*Y28900D01*
X278226D01*
Y36100D01*
X271026D01*
G37*
G54D16*X239626Y47500D03*
G54D13*G36*
X209026Y48100D02*Y41900D01*
X215226D01*
Y48100D01*
X209026D01*
G37*
G54D18*X254626Y42500D03*
Y52500D03*
X274626Y42500D03*
Y52500D03*
G54D13*G36*
X206676Y60450D02*Y54550D01*
X212576D01*
Y60450D01*
X206676D01*
G37*
G54D17*X219626Y57500D03*
G54D13*G36*
X216676Y70450D02*Y64550D01*
X222576D01*
Y70450D01*
X216676D01*
G37*
G54D17*X209626Y67500D03*
G54D13*G36*
X289026Y50600D02*Y44400D01*
X295226D01*
Y50600D01*
X289026D01*
G37*
G36*
X289176Y60450D02*Y54550D01*
X295076D01*
Y60450D01*
X289176D01*
G37*
G54D17*X302126Y57500D03*
G54D15*X272500Y65000D03*
G54D14*X284626Y67500D03*
G54D13*G36*
X301676Y70450D02*Y64550D01*
X307576D01*
Y70450D01*
X301676D01*
G37*
G54D17*X294626Y67500D03*
G54D15*X264626Y65000D03*
G54D13*G36*
X249176Y70450D02*Y64550D01*
X255076D01*
Y70450D01*
X249176D01*
G37*
G54D17*X242126Y67500D03*
G54D14*X272126Y130000D03*
X282126D03*
G54D12*X272126Y90000D03*
X282126D03*
X292126D03*
X302126D03*
Y120000D03*
X292126D03*
X282126D03*
X272126D03*
X262126D03*
X252126D03*
G54D14*X264626Y80000D03*
X274626D03*
X179626D03*
X189626D03*
G54D13*G36*
X206676Y80450D02*Y74550D01*
X212576D01*
Y80450D01*
X206676D01*
G37*
G54D17*X219626Y77500D03*
G54D14*X199626D03*
G54D12*X189626Y90000D03*
X199626D03*
X209626D03*
X219626D03*
X242126Y120000D03*
X219626D03*
X209626D03*
X199626D03*
G54D13*G36*
X191400Y443600D02*Y436400D01*
X198600D01*
Y443600D01*
X191400D01*
G37*
G54D18*X195000Y430000D03*
Y420000D03*
G54D12*X197500Y382500D03*
G54D15*X200000Y407500D03*
G54D14*X197500Y392500D03*
G54D13*G36*
X174400Y428100D02*Y421900D01*
X180600D01*
Y428100D01*
X174400D01*
G37*
G36*
X174550Y417950D02*Y412050D01*
X180450D01*
Y417950D01*
X174550D01*
G37*
G54D16*X177500Y435000D03*
G54D13*G36*
X164550Y407950D02*Y402050D01*
X170450D01*
Y407950D01*
X164550D01*
G37*
G54D17*X167500Y395000D03*
G54D12*Y382500D03*
G54D17*Y415000D03*
X177500Y405000D03*
G54D13*G36*
X174550Y397950D02*Y392050D01*
X180450D01*
Y397950D01*
X174550D01*
G37*
G54D12*X187500Y382500D03*
X177500D03*
G54D14*X187500Y395000D03*
Y405000D03*
G54D15*X189626Y327500D03*
G54D12*X187500Y352500D03*
X197500D03*
G54D14*Y342500D03*
X187500D03*
G54D13*G36*
X164550Y332950D02*Y327050D01*
X170450D01*
Y332950D01*
X164550D01*
G37*
G54D17*X177500Y330000D03*
G54D13*G36*
X174550Y342950D02*Y337050D01*
X180450D01*
Y342950D01*
X174550D01*
G37*
G54D17*X167500Y340000D03*
G54D12*Y352500D03*
X177500D03*
X192500Y297500D03*
G54D13*G36*
X207050Y342950D02*Y337050D01*
X212950D01*
Y342950D01*
X207050D01*
G37*
G54D12*X207500Y352500D03*
X217500D03*
X227500D03*
G54D17*X220000Y340000D03*
G54D13*G36*
X217050Y332950D02*Y327050D01*
X222950D01*
Y332950D01*
X217050D01*
G37*
G54D14*X230000Y330000D03*
Y340000D03*
G54D15*X197500Y327500D03*
G54D13*G36*
X204550Y322950D02*Y317050D01*
X210450D01*
Y322950D01*
X204550D01*
G37*
G54D17*X207500Y310000D03*
X210000Y330000D03*
G54D13*G36*
X224550Y322950D02*Y317050D01*
X230450D01*
Y322950D01*
X224550D01*
G37*
G54D17*X227500Y310000D03*
G54D13*G36*
X214550Y312950D02*Y307050D01*
X220450D01*
Y312950D01*
X214550D01*
G37*
G54D17*X217500Y320000D03*
G54D14*X202500Y297500D03*
G54D15*X217500Y295374D03*
G54D13*G36*
X226900Y438100D02*Y431900D01*
X233100D01*
Y438100D01*
X226900D01*
G37*
G36*
X224500Y385500D02*Y379500D01*
X230500D01*
Y385500D01*
X224500D01*
G37*
G54D12*X217500Y382500D03*
G54D13*G36*
X227050Y397950D02*Y392050D01*
X232950D01*
Y397950D01*
X227050D01*
G37*
G54D12*X207500Y382500D03*
G54D17*X220000Y395000D03*
G54D15*X207874Y407500D03*
G54D14*X207500Y392500D03*
G54D13*G36*
X217050Y407950D02*Y402050D01*
X222950D01*
Y407950D01*
X217050D01*
G37*
G54D17*X230000Y405000D03*
G54D13*G36*
X211400Y443600D02*Y436400D01*
X218600D01*
Y443600D01*
X211400D01*
G37*
G54D18*X215000Y430000D03*
Y420000D03*
G54D13*G36*
X314550Y322950D02*Y317050D01*
X320450D01*
Y322950D01*
X314550D01*
G37*
G54D17*X307500Y320000D03*
G54D13*G36*
X294550Y322950D02*Y317050D01*
X300450D01*
Y322950D01*
X294550D01*
G37*
G36*
X304550Y312950D02*Y307050D01*
X310450D01*
Y312950D01*
X304550D01*
G37*
G54D17*X297500Y310000D03*
G54D13*G36*
X314500Y385500D02*Y379500D01*
X320500D01*
Y385500D01*
X314500D01*
G37*
G54D12*X307500Y382500D03*
X297500D03*
Y352500D03*
X307500D03*
X317500D03*
G54D13*G36*
X304550Y332950D02*Y327050D01*
X310450D01*
Y332950D01*
X304550D01*
G37*
G54D14*X317500Y330000D03*
Y340000D03*
G54D17*X297500Y330000D03*
G54D13*G36*
X294550Y342950D02*Y337050D01*
X300450D01*
Y342950D01*
X294550D01*
G37*
G54D17*X307500Y340000D03*
G54D13*G36*
X249550Y332950D02*Y327050D01*
X255450D01*
Y332950D01*
X249550D01*
G37*
G36*
X259550Y342950D02*Y337050D01*
X265450D01*
Y342950D01*
X259550D01*
G37*
G54D17*X252500Y340000D03*
X262500Y330000D03*
G54D12*X257500Y352500D03*
X267500D03*
X277500D03*
X287500D03*
G54D15*X274252Y327500D03*
X282126D03*
G54D14*X285000Y342500D03*
X275000D03*
G54D13*G36*
X311900Y438100D02*Y431900D01*
X318100D01*
Y438100D01*
X311900D01*
G37*
G54D16*X315000Y425000D03*
G54D13*G36*
X296400Y443600D02*Y436400D01*
X303600D01*
Y443600D01*
X296400D01*
G37*
G54D18*X300000Y430000D03*
G54D14*X295000Y392500D03*
G54D18*X300000Y420000D03*
G54D15*X287500Y407500D03*
G54D13*G36*
X314550Y397950D02*Y392050D01*
X320450D01*
Y397950D01*
X314550D01*
G37*
G54D17*X317500Y405000D03*
X307500Y395000D03*
G54D13*G36*
X304550Y407950D02*Y402050D01*
X310450D01*
Y407950D01*
X304550D01*
G37*
G36*
X259400Y428100D02*Y421900D01*
X265600D01*
Y428100D01*
X259400D01*
G37*
G54D16*X262500Y435000D03*
G54D14*X285000Y392500D03*
X275000Y405000D03*
Y395000D03*
G54D12*X287500Y382500D03*
X277500D03*
X267500D03*
X257500D03*
G54D15*X295374Y407500D03*
G54D17*X265000Y405000D03*
G54D16*X230000Y425000D03*
G54D13*G36*
X262050Y397950D02*Y392050D01*
X267950D01*
Y397950D01*
X262050D01*
G37*
G54D17*X255000Y395000D03*
G54D13*G36*
X262050Y417950D02*Y412050D01*
X267950D01*
Y417950D01*
X262050D01*
G37*
G54D17*X255000Y415000D03*
G54D13*G36*
X252050Y407950D02*Y402050D01*
X257950D01*
Y407950D01*
X252050D01*
G37*
G36*
X276400Y443600D02*Y436400D01*
X283600D01*
Y443600D01*
X276400D01*
G37*
G54D18*X280000Y430000D03*
Y420000D03*
G54D13*G36*
X448900Y188600D02*Y181400D01*
X456100D01*
Y188600D01*
X448900D01*
G37*
G54D18*X442500Y185000D03*
X432500D03*
G54D13*G36*
X448900Y168600D02*Y161400D01*
X456100D01*
Y168600D01*
X448900D01*
G37*
G54D18*X442500Y165000D03*
X432500D03*
G54D13*G36*
X414550Y215450D02*Y209550D01*
X420450D01*
Y215450D01*
X414550D01*
G37*
G54D17*X407500Y212500D03*
X427500D03*
G54D13*G36*
X444400Y230600D02*Y224400D01*
X450600D01*
Y230600D01*
X444400D01*
G37*
G54D16*X437500Y227500D03*
G54D17*X417500D03*
Y202500D03*
G54D13*G36*
X404550Y205450D02*Y199550D01*
X410450D01*
Y205450D01*
X404550D01*
G37*
G36*
X424550D02*Y199550D01*
X430450D01*
Y205450D01*
X424550D01*
G37*
G54D15*X420000Y180000D03*
Y172126D03*
G54D13*G36*
X434400Y283100D02*Y276900D01*
X440600D01*
Y283100D01*
X434400D01*
G37*
G54D16*X447500Y280000D03*
G54D13*G36*
X448900Y266100D02*Y258900D01*
X456100D01*
Y266100D01*
X448900D01*
G37*
G54D18*X442500Y262500D03*
G54D13*G36*
X448900Y246100D02*Y238900D01*
X456100D01*
Y246100D01*
X448900D01*
G37*
G54D18*X442500Y242500D03*
X432500Y262500D03*
Y242500D03*
G54D13*G36*
X424550Y282950D02*Y277050D01*
X430450D01*
Y282950D01*
X424550D01*
G37*
G54D17*X427500Y290000D03*
G54D13*G36*
X414550Y292950D02*Y287050D01*
X420450D01*
Y292950D01*
X414550D01*
G37*
G54D17*X417500Y280000D03*
G54D13*G36*
X404550Y282950D02*Y277050D01*
X410450D01*
Y282950D01*
X404550D01*
G37*
G54D17*X407500Y290000D03*
G54D13*G36*
X304500Y233000D02*Y227000D01*
X310500D01*
Y233000D01*
X304500D01*
G37*
G36*
X329550Y232950D02*Y227050D01*
X335450D01*
Y232950D01*
X329550D01*
G37*
G54D17*X322500Y230000D03*
G54D13*G36*
X349550Y250450D02*Y244550D01*
X355450D01*
Y250450D01*
X349550D01*
G37*
G54D17*X352500Y237500D03*
G54D12*X307500Y240000D03*
Y250000D03*
G54D13*G36*
X319550Y242950D02*Y237050D01*
X325450D01*
Y242950D01*
X319550D01*
G37*
G54D17*X322500Y250000D03*
X332500Y240000D03*
G54D13*G36*
X329550Y252950D02*Y247050D01*
X335450D01*
Y252950D01*
X329550D01*
G37*
G36*
X339550Y240450D02*Y234550D01*
X345450D01*
Y240450D01*
X339550D01*
G37*
G54D17*X342500Y247500D03*
G54D12*X365000Y250000D03*
Y240000D03*
Y230000D03*
G54D15*X420000Y257500D03*
Y249626D03*
G54D13*G36*
X404550Y230450D02*Y224550D01*
X410450D01*
Y230450D01*
X404550D01*
G37*
G54D17*X407500Y237500D03*
G54D13*G36*
X414550Y240450D02*Y234550D01*
X420450D01*
Y240450D01*
X414550D01*
G37*
G36*
X392000Y233000D02*Y227000D01*
X398000D01*
Y233000D01*
X392000D01*
G37*
G54D12*X395000Y240000D03*
Y250000D03*
Y260000D03*
Y270000D03*
Y280000D03*
Y290000D03*
G54D17*X342500Y280000D03*
G54D12*X307500Y260000D03*
Y270000D03*
G54D15*X340000Y267874D03*
Y260000D03*
G54D13*G36*
X349550Y282950D02*Y277050D01*
X355450D01*
Y282950D01*
X349550D01*
G37*
G54D17*X352500Y290000D03*
G54D13*G36*
X339550Y292950D02*Y287050D01*
X345450D01*
Y292950D01*
X339550D01*
G37*
G54D12*X365000Y290000D03*
Y280000D03*
Y270000D03*
Y260000D03*
G54D17*X317500Y310000D03*
G54D13*G36*
X334500Y313000D02*Y307000D01*
X340500D01*
Y313000D01*
X334500D01*
G37*
G54D12*X347500Y310000D03*
X367500Y340000D03*
X357500D03*
X347500D03*
X337500D03*
G54D15*Y365000D03*
X345374D03*
G54D14*X337500Y350000D03*
X347500D03*
G54D12*X357500Y310000D03*
X367500D03*
X377500D03*
X387500D03*
X397500D03*
X407500D03*
Y340000D03*
X397500D03*
X387500D03*
X377500D03*
G54D19*X350000Y50000D03*
G54D14*X359350Y112499D03*
G54D19*X125000Y425000D03*
X350000D03*
X125000Y50000D03*
G54D14*X263150Y323399D03*
X295099Y175850D03*
X162600Y375850D03*
X189000Y160000D03*
G54D20*G54D21*G54D20*G54D21*G54D22*G54D23*G54D22*G54D23*G54D20*G54D22*G54D21*G54D22*G54D21*G54D20*G54D24*G54D20*G54D24*G54D22*G54D20*G54D24*G54D22*G54D21*G54D20*G54D22*G54D24*G54D20*G54D24*G54D20*G54D22*G54D23*G54D24*G54D20*G54D24*G54D20*G54D24*G54D23*G54D21*G54D24*G54D21*G54D20*G54D24*G54D22*G54D24*G54D20*G54D24*G54D22*G54D24*G54D21*G54D20*G54D24*G54D21*G54D24*G54D20*G54D21*G54D22*G54D24*G54D20*G54D24*G54D21*G54D24*G54D20*G54D24*G54D21*G54D22*G54D23*G54D20*G54D21*G54D20*G54D21*G54D24*G54D20*G54D24*G54D21*G54D25*G54D22*G54D23*G54D21*G54D24*G54D21*G54D24*G54D22*G54D24*G54D20*G54D24*G54D23*G54D25*G54D24*G54D21*G54D24*G54D22*G54D24*G54D23*G54D25*G54D23*G54D25*G54D20*G54D24*G54D22*G54D24*G54D20*G54D22*G54D21*G54D22*G54D20*G54D25*G54D23*G54D25*G54D24*G54D22*G54D24*G54D25*G54D21*G54D24*G54D20*G54D21*G54D24*G54D23*G54D25*G54D23*G54D25*G54D24*G54D23*G54D24*G54D22*G54D21*G54D24*G54D22*G54D24*G54D21*G54D20*G54D21*G54D24*G54D21*G54D20*G54D25*G54D20*G54D22*G54D21*G54D23*G54D24*G54D23*G54D24*G54D20*G54D24*G54D20*G54D21*G54D22*G54D20*G54D21*G54D24*G54D20*G54D24*G54D20*G54D24*G54D21*G54D22*G54D24*G54D21*G54D22*G54D23*G54D20*G54D24*G54D20*G54D24*G54D22*G54D21*G54D24*G54D25*G54D24*G54D20*G54D24*G54D21*G54D24*G54D20*G54D22*G54D21*G54D23*G54D25*G54D21*G54D25*G54D22*G54D24*G54D23*G54D21*G54D20*G54D22*G54D24*G54D23*G54D24*G54D25*G54D24*G54D23*G54D24*G54D22*G54D23*G54D25*G54D24*G54D20*G54D24*G54D20*G54D24*G54D20*G54D22*G54D24*G54D20*G54D24*G54D20*G54D22*G54D24*G54D20*G54D24*G54D20*G54D22*G54D21*G54D20*G54D26*G54D21*G54D26*G54D21*M02*
