G04 start of page 7 for group -4063 idx -4063 *
G04 Title: logic, componentmask *
G04 Creator: pcb 20091103 *
G04 CreationDate: Tue 04 May 2010 05:21:54 PM GMT UTC *
G04 For: srussell *
G04 Format: Gerber/RS-274X *
G04 PCB-Dimensions: 175000 175000 *
G04 PCB-Coordinate-Origin: lower left *
%MOIN*%
%FSLAX25Y25*%
%LNFRONTMASK*%
%ADD13C,0.0600*%
%ADD14C,0.0200*%
%ADD24C,0.0660*%
%ADD25C,0.0680*%
%ADD26C,0.0590*%
%ADD27C,0.2200*%
G54D24*X62500Y122500D03*
X52500D03*
X42500D03*
X32500D03*
X22500D03*
Y92500D03*
X32500D03*
X42500D03*
X52500D03*
G54D14*G36*
X38600Y145400D02*Y138600D01*
X45400D01*
Y145400D01*
X38600D01*
G37*
G54D25*X52000Y142000D03*
X62000D03*
X42000Y152000D03*
X52000D03*
X62000D03*
G54D24*X122500Y122500D03*
X112500D03*
X102500D03*
X92500D03*
G54D14*G36*
X149200Y125800D02*Y119200D01*
X155800D01*
Y125800D01*
X149200D01*
G37*
G54D24*X142500Y122500D03*
X132500D03*
X82500D03*
G54D26*X92500Y135000D03*
G54D14*G36*
X108101Y145900D02*Y139100D01*
X114901D01*
Y145900D01*
X108101D01*
G37*
G54D25*X121501Y142500D03*
X131501D03*
G54D26*X82500Y135000D03*
G54D13*X92500Y150000D03*
X84626D03*
G54D25*X111501Y152500D03*
X121501D03*
X131501D03*
G54D24*X72500Y122500D03*
X62500Y92500D03*
X72500D03*
X82500D03*
G54D13*X77500Y72500D03*
G54D25*X55000Y75500D03*
X45000D03*
X35000D03*
X25000D03*
G54D24*X92500Y92500D03*
X102500D03*
X112500D03*
X122500D03*
G54D14*G36*
X91700Y43300D02*Y36700D01*
X98300D01*
Y43300D01*
X91700D01*
G37*
G54D24*X105000Y40000D03*
X115000D03*
Y70000D03*
X105000D03*
X95000D03*
G54D26*Y80000D03*
X105000D03*
G54D24*X132500Y92500D03*
X135000Y70000D03*
X125000D03*
X142500Y92500D03*
X152500D03*
X165000Y70000D03*
X155000D03*
X145000D03*
X125000Y40000D03*
X135000D03*
X145000D03*
X155000D03*
X165000D03*
G54D13*X77500Y64626D03*
G54D25*X81000Y12000D03*
X71000D03*
X70000Y38000D03*
X75000Y25000D03*
X65000D03*
X60000Y38000D03*
X50000D03*
X40000D03*
X55000Y25000D03*
X45000D03*
X61000Y12000D03*
X51000D03*
X64000Y50000D03*
X59596Y62720D03*
X49596D03*
X39596D03*
X29596D03*
X54000Y50000D03*
X44000D03*
X34000D03*
G54D27*X20000Y20000D03*
Y155000D03*
X155000Y20000D03*
Y155000D03*
G54D13*X10000Y48000D03*
X149000Y79000D03*
M02*
