M48
INCH
T19C0.028
T20C0.038
T22C0.025
T23C0.125
T28C0.026
%
T22
X009250Y013500
X008250Y013500
X009500Y007500
X010500Y007500
X001000Y004800
X014900Y007900
T28
X009250Y015000
X008462Y015000
X007750Y006462
X007750Y007250
T19
X006250Y012250
X005250Y012250
X004250Y012250
X003250Y012250
X002250Y012250
X002250Y009250
X003250Y009250
X004250Y009250
X005250Y009250
X012250Y012250
X011250Y012250
X010250Y012250
X009250Y012250
X015250Y012250
X014250Y012250
X013250Y012250
X008250Y012250
X013250Y009250
X014250Y009250
X015250Y009250
X007250Y012250
X009250Y009250
X010250Y009250
X011250Y009250
X012250Y009250
X009500Y003500
X010500Y003500
X011500Y003500
X012500Y003500
X013500Y003500
X014500Y003500
X015500Y003500
X016500Y003500
X016500Y006500
X015500Y006500
X014500Y006500
X013500Y006500
X012500Y006500
X011500Y006500
X010500Y006500
X009500Y006500
X006250Y009250
X007250Y009250
X008250Y009250
T20
X004250Y014250
X005250Y014250
X006250Y014250
X004250Y015250
X005250Y015250
X006250Y015250
X011750Y014250
X012750Y014250
X013750Y014250
X011750Y015250
X012750Y015250
X013750Y015250
X008000Y001250
X007500Y002500
X006500Y002500
X005500Y002500
X004500Y002500
X007000Y001250
X006000Y001250
X005000Y001250
X007000Y003750
X006000Y003750
X005000Y003750
X005500Y007500
X005500Y005000
X005000Y006250
X004500Y007500
X004500Y005000
X004000Y006250
X004000Y003750
X003500Y007500
X003500Y005000
X003000Y006250
X002500Y007500
X006500Y005000
X006000Y006250
T23
X001750Y001500
X001750Y016000
X016250Y001500
X016250Y016000
M30
