G04 start of page 3 for group 1 idx 1 *
G04 Title: logic, GND *
G04 Creator: pcb 20091103 *
G04 CreationDate: Tue 04 May 2010 05:21:54 PM GMT UTC *
G04 For: srussell *
G04 Format: Gerber/RS-274X *
G04 PCB-Dimensions: 175000 175000 *
G04 PCB-Coordinate-Origin: lower left *
%MOIN*%
%FSLAX25Y25*%
%LNGROUP1*%
%ADD13C,0.0600*%
%ADD14C,0.0200*%
%ADD15C,0.0620*%
%ADD16C,0.0490*%
%ADD17C,0.0500*%
%ADD18C,0.2050*%
%ADD19C,0.0280*%
%ADD20C,0.0380*%
%ADD21C,0.0250*%
%ADD22C,0.0260*%
%ADD23C,0.1250*%
G54D14*G36*
X164637Y158468D02*X164722Y158247D01*
X164973Y157364D01*
X165145Y156462D01*
X165235Y155549D01*
X165243Y154631D01*
X165169Y153716D01*
X165013Y152811D01*
X164777Y151924D01*
X164637Y151540D01*
Y158468D01*
G37*
G36*
Y23468D02*X164722Y23247D01*
X164973Y22364D01*
X165145Y21462D01*
X165235Y20549D01*
X165243Y19631D01*
X165169Y18716D01*
X165013Y17811D01*
X164777Y16924D01*
X164637Y16540D01*
Y23468D01*
G37*
G36*
X168613Y175004D02*X174997D01*
Y4D01*
X168613D01*
Y37860D01*
X168708Y37882D01*
X168829Y37933D01*
X168938Y38005D01*
X169034Y38094D01*
X169113Y38198D01*
X169172Y38315D01*
X169314Y38722D01*
X169417Y39142D01*
X169479Y39569D01*
X169500Y40000D01*
X169479Y40432D01*
X169417Y40859D01*
X169314Y41279D01*
X169172Y41686D01*
X169171D01*
X169112Y41802D01*
X169033Y41907D01*
X168937Y41996D01*
X168828Y42067D01*
X168707Y42118D01*
X168613Y42139D01*
Y67860D01*
X168708Y67882D01*
X168829Y67933D01*
X168938Y68005D01*
X169034Y68094D01*
X169113Y68198D01*
X169172Y68315D01*
X169314Y68722D01*
X169417Y69142D01*
X169479Y69569D01*
X169500Y70000D01*
X169479Y70432D01*
X169417Y70859D01*
X169314Y71279D01*
X169172Y71686D01*
X169171D01*
X169112Y71802D01*
X169033Y71907D01*
X168937Y71996D01*
X168828Y72067D01*
X168707Y72118D01*
X168613Y72139D01*
Y175004D01*
G37*
G36*
X164637D02*X168613D01*
Y72139D01*
X168580Y72147D01*
X168450Y72154D01*
X168320Y72138D01*
X168195Y72100D01*
X168079Y72041D01*
X167974Y71962D01*
X167885Y71866D01*
X167814Y71757D01*
X167763Y71636D01*
X167734Y71509D01*
X167727Y71379D01*
X167743Y71249D01*
X167781Y71124D01*
X167876Y70853D01*
X167944Y70573D01*
X167986Y70288D01*
X168000Y70000D01*
X167986Y69713D01*
X167944Y69428D01*
X167876Y69148D01*
X167781Y68877D01*
X167780D01*
X167742Y68752D01*
X167726Y68622D01*
X167733Y68491D01*
X167762Y68364D01*
X167813Y68243D01*
X167885Y68134D01*
X167974Y68038D01*
X168078Y67959D01*
X168195Y67900D01*
X168320Y67862D01*
X168450Y67846D01*
X168581Y67853D01*
X168613Y67860D01*
Y42139D01*
X168580Y42147D01*
X168450Y42154D01*
X168320Y42138D01*
X168195Y42100D01*
X168079Y42041D01*
X167974Y41962D01*
X167885Y41866D01*
X167814Y41757D01*
X167763Y41636D01*
X167734Y41509D01*
X167727Y41379D01*
X167743Y41249D01*
X167781Y41124D01*
X167876Y40853D01*
X167944Y40573D01*
X167986Y40288D01*
X168000Y40000D01*
X167986Y39713D01*
X167944Y39428D01*
X167876Y39148D01*
X167781Y38877D01*
X167780D01*
X167742Y38752D01*
X167726Y38622D01*
X167733Y38491D01*
X167762Y38364D01*
X167813Y38243D01*
X167885Y38134D01*
X167974Y38038D01*
X168078Y37959D01*
X168195Y37900D01*
X168320Y37862D01*
X168450Y37846D01*
X168581Y37853D01*
X168613Y37860D01*
Y4D01*
X164637D01*
Y13821D01*
X165134Y14672D01*
X165570Y15600D01*
X165922Y16564D01*
X166185Y17555D01*
X166359Y18565D01*
X166442Y19588D01*
X166433Y20613D01*
X166332Y21634D01*
X166141Y22641D01*
X165860Y23627D01*
X165492Y24584D01*
X165040Y25505D01*
X164637Y26167D01*
Y35518D01*
X165000Y35500D01*
X165431Y35521D01*
X165858Y35583D01*
X166278Y35686D01*
X166685Y35828D01*
Y35829D01*
X166801Y35888D01*
X166906Y35967D01*
X166995Y36063D01*
X167066Y36172D01*
X167117Y36293D01*
X167146Y36420D01*
X167153Y36550D01*
X167137Y36680D01*
X167099Y36805D01*
X167040Y36921D01*
X166961Y37026D01*
X166865Y37115D01*
X166756Y37186D01*
X166635Y37237D01*
X166508Y37266D01*
X166378Y37273D01*
X166248Y37257D01*
X166123Y37219D01*
X165852Y37124D01*
X165572Y37056D01*
X165287Y37014D01*
X165000Y37000D01*
X164712Y37014D01*
X164637Y37025D01*
Y42976D01*
X164712Y42987D01*
X165000Y43000D01*
X165287Y42987D01*
X165572Y42945D01*
X165852Y42877D01*
X166123Y42782D01*
Y42781D01*
X166248Y42743D01*
X166378Y42727D01*
X166509Y42734D01*
X166636Y42763D01*
X166757Y42814D01*
X166866Y42886D01*
X166962Y42975D01*
X167041Y43079D01*
X167100Y43196D01*
X167138Y43321D01*
X167154Y43451D01*
X167147Y43582D01*
X167118Y43709D01*
X167067Y43830D01*
X166995Y43939D01*
X166906Y44035D01*
X166802Y44114D01*
X166685Y44173D01*
X166278Y44315D01*
X165858Y44418D01*
X165431Y44480D01*
X165000Y44500D01*
X164637Y44483D01*
Y65518D01*
X165000Y65500D01*
X165431Y65521D01*
X165858Y65583D01*
X166278Y65686D01*
X166685Y65828D01*
Y65829D01*
X166801Y65888D01*
X166906Y65967D01*
X166995Y66063D01*
X167066Y66172D01*
X167117Y66293D01*
X167146Y66420D01*
X167153Y66550D01*
X167137Y66680D01*
X167099Y66805D01*
X167040Y66921D01*
X166961Y67026D01*
X166865Y67115D01*
X166756Y67186D01*
X166635Y67237D01*
X166508Y67266D01*
X166378Y67273D01*
X166248Y67257D01*
X166123Y67219D01*
X165852Y67124D01*
X165572Y67056D01*
X165287Y67014D01*
X165000Y67000D01*
X164712Y67014D01*
X164637Y67025D01*
Y72976D01*
X164712Y72987D01*
X165000Y73000D01*
X165287Y72987D01*
X165572Y72945D01*
X165852Y72877D01*
X166123Y72782D01*
Y72781D01*
X166248Y72743D01*
X166378Y72727D01*
X166509Y72734D01*
X166636Y72763D01*
X166757Y72814D01*
X166866Y72886D01*
X166962Y72975D01*
X167041Y73079D01*
X167100Y73196D01*
X167138Y73321D01*
X167154Y73451D01*
X167147Y73582D01*
X167118Y73709D01*
X167067Y73830D01*
X166995Y73939D01*
X166906Y74035D01*
X166802Y74114D01*
X166685Y74173D01*
X166278Y74315D01*
X165858Y74418D01*
X165431Y74480D01*
X165000Y74500D01*
X164637Y74483D01*
Y148821D01*
X165134Y149672D01*
X165570Y150600D01*
X165922Y151564D01*
X166185Y152555D01*
X166359Y153565D01*
X166442Y154588D01*
X166433Y155613D01*
X166332Y156634D01*
X166141Y157641D01*
X165860Y158627D01*
X165492Y159584D01*
X165040Y160505D01*
X164637Y161167D01*
Y175004D01*
G37*
G36*
X161387D02*X164637D01*
Y161167D01*
X164507Y161381D01*
X163898Y162206D01*
X163899Y162207D01*
X163826Y162282D01*
X163742Y162344D01*
X163647Y162390D01*
X163547Y162419D01*
X163443Y162430D01*
X163338Y162422D01*
X163237Y162397D01*
X163141Y162355D01*
X163054Y162296D01*
X162979Y162223D01*
X162917Y162139D01*
X162871Y162044D01*
X162842Y161944D01*
X162831Y161840D01*
X162839Y161735D01*
X162864Y161634D01*
X162906Y161538D01*
X162965Y161451D01*
X163510Y160712D01*
X163987Y159928D01*
X164392Y159104D01*
X164637Y158468D01*
Y151540D01*
X164462Y151061D01*
X164072Y150231D01*
X163609Y149438D01*
X163077Y148690D01*
X163076Y148691D01*
X163019Y148603D01*
X162978Y148507D01*
X162954Y148405D01*
X162949Y148300D01*
X162962Y148196D01*
X162992Y148096D01*
X163040Y148003D01*
X163102Y147919D01*
X163179Y147848D01*
X163267Y147791D01*
X163363Y147750D01*
X163465Y147726D01*
X163570Y147721D01*
X163674Y147734D01*
X163774Y147764D01*
X163867Y147812D01*
X163951Y147874D01*
X164022Y147951D01*
X164617Y148787D01*
X164637Y148821D01*
Y74483D01*
X164568Y74480D01*
X164141Y74418D01*
X163721Y74315D01*
X163314Y74173D01*
Y74172D01*
X163198Y74113D01*
X163093Y74034D01*
X163004Y73938D01*
X162933Y73829D01*
X162882Y73708D01*
X162853Y73581D01*
X162846Y73451D01*
X162862Y73321D01*
X162900Y73196D01*
X162959Y73080D01*
X163038Y72975D01*
X163134Y72886D01*
X163243Y72815D01*
X163364Y72764D01*
X163491Y72735D01*
X163621Y72728D01*
X163751Y72744D01*
X163876Y72782D01*
X164147Y72877D01*
X164427Y72945D01*
X164637Y72976D01*
Y67025D01*
X164427Y67056D01*
X164147Y67124D01*
X163876Y67219D01*
Y67220D01*
X163751Y67258D01*
X163621Y67274D01*
X163490Y67267D01*
X163363Y67238D01*
X163242Y67187D01*
X163133Y67115D01*
X163037Y67026D01*
X162958Y66922D01*
X162899Y66805D01*
X162861Y66680D01*
X162845Y66550D01*
X162852Y66419D01*
X162881Y66292D01*
X162932Y66171D01*
X163004Y66062D01*
X163093Y65966D01*
X163197Y65887D01*
X163314Y65828D01*
X163721Y65686D01*
X164141Y65583D01*
X164568Y65521D01*
X164637Y65518D01*
Y44483D01*
X164568Y44480D01*
X164141Y44418D01*
X163721Y44315D01*
X163314Y44173D01*
Y44172D01*
X163198Y44113D01*
X163093Y44034D01*
X163004Y43938D01*
X162933Y43829D01*
X162882Y43708D01*
X162853Y43581D01*
X162846Y43451D01*
X162862Y43321D01*
X162900Y43196D01*
X162959Y43080D01*
X163038Y42975D01*
X163134Y42886D01*
X163243Y42815D01*
X163364Y42764D01*
X163491Y42735D01*
X163621Y42728D01*
X163751Y42744D01*
X163876Y42782D01*
X164147Y42877D01*
X164427Y42945D01*
X164637Y42976D01*
Y37025D01*
X164427Y37056D01*
X164147Y37124D01*
X163876Y37219D01*
Y37220D01*
X163751Y37258D01*
X163621Y37274D01*
X163490Y37267D01*
X163363Y37238D01*
X163242Y37187D01*
X163133Y37115D01*
X163037Y37026D01*
X162958Y36922D01*
X162899Y36805D01*
X162861Y36680D01*
X162845Y36550D01*
X162852Y36419D01*
X162881Y36292D01*
X162932Y36171D01*
X163004Y36062D01*
X163093Y35966D01*
X163197Y35887D01*
X163314Y35828D01*
X163721Y35686D01*
X164141Y35583D01*
X164568Y35521D01*
X164637Y35518D01*
Y26167D01*
X164507Y26381D01*
X163898Y27206D01*
X163899Y27207D01*
X163826Y27282D01*
X163742Y27344D01*
X163647Y27390D01*
X163547Y27419D01*
X163443Y27430D01*
X163338Y27422D01*
X163237Y27397D01*
X163141Y27355D01*
X163054Y27296D01*
X162979Y27223D01*
X162917Y27139D01*
X162871Y27044D01*
X162842Y26944D01*
X162831Y26840D01*
X162839Y26735D01*
X162864Y26634D01*
X162906Y26538D01*
X162965Y26451D01*
X163510Y25712D01*
X163987Y24928D01*
X164392Y24104D01*
X164637Y23468D01*
Y16540D01*
X164462Y16061D01*
X164072Y15231D01*
X163609Y14438D01*
X163077Y13690D01*
X163076Y13691D01*
X163019Y13603D01*
X162978Y13507D01*
X162954Y13405D01*
X162949Y13300D01*
X162962Y13196D01*
X162992Y13096D01*
X163040Y13003D01*
X163102Y12919D01*
X163179Y12848D01*
X163267Y12791D01*
X163363Y12750D01*
X163465Y12726D01*
X163570Y12721D01*
X163674Y12734D01*
X163774Y12764D01*
X163867Y12812D01*
X163951Y12874D01*
X164022Y12951D01*
X164617Y13787D01*
X164637Y13821D01*
Y4D01*
X161387D01*
Y10498D01*
X162205Y11102D01*
X162206Y11101D01*
X162281Y11174D01*
X162343Y11258D01*
X162389Y11353D01*
X162418Y11453D01*
X162429Y11557D01*
X162421Y11662D01*
X162396Y11763D01*
X162354Y11859D01*
X162295Y11946D01*
X162222Y12021D01*
X162138Y12083D01*
X162043Y12129D01*
X161943Y12158D01*
X161839Y12169D01*
X161734Y12161D01*
X161633Y12136D01*
X161537Y12094D01*
X161450Y12035D01*
X161387Y11989D01*
Y28026D01*
X161397Y28020D01*
X161493Y27979D01*
X161595Y27955D01*
X161700Y27950D01*
X161804Y27963D01*
X161904Y27993D01*
X161997Y28041D01*
X162081Y28103D01*
X162152Y28180D01*
X162209Y28268D01*
X162250Y28364D01*
X162274Y28466D01*
X162279Y28571D01*
X162266Y28675D01*
X162236Y28775D01*
X162188Y28868D01*
X162126Y28952D01*
X162049Y29023D01*
X161387Y29494D01*
Y37861D01*
X161419Y37854D01*
X161549Y37847D01*
X161679Y37863D01*
X161804Y37901D01*
X161920Y37960D01*
X162025Y38039D01*
X162114Y38135D01*
X162185Y38244D01*
X162236Y38365D01*
X162265Y38492D01*
X162272Y38622D01*
X162256Y38752D01*
X162218Y38877D01*
X162123Y39148D01*
X162055Y39428D01*
X162013Y39713D01*
X162000Y40000D01*
X162013Y40288D01*
X162055Y40573D01*
X162123Y40853D01*
X162218Y41124D01*
X162219D01*
X162257Y41249D01*
X162273Y41379D01*
X162266Y41510D01*
X162237Y41637D01*
X162186Y41758D01*
X162114Y41867D01*
X162025Y41963D01*
X161921Y42042D01*
X161804Y42101D01*
X161679Y42139D01*
X161549Y42155D01*
X161418Y42148D01*
X161387Y42141D01*
Y67861D01*
X161419Y67854D01*
X161549Y67847D01*
X161679Y67863D01*
X161804Y67901D01*
X161920Y67960D01*
X162025Y68039D01*
X162114Y68135D01*
X162185Y68244D01*
X162236Y68365D01*
X162265Y68492D01*
X162272Y68622D01*
X162256Y68752D01*
X162218Y68877D01*
X162123Y69148D01*
X162055Y69428D01*
X162013Y69713D01*
X162000Y70000D01*
X162013Y70288D01*
X162055Y70573D01*
X162123Y70853D01*
X162218Y71124D01*
X162219D01*
X162257Y71249D01*
X162273Y71379D01*
X162266Y71510D01*
X162237Y71637D01*
X162186Y71758D01*
X162114Y71867D01*
X162025Y71963D01*
X161921Y72042D01*
X161804Y72101D01*
X161679Y72139D01*
X161549Y72155D01*
X161418Y72148D01*
X161387Y72141D01*
Y145498D01*
X162205Y146102D01*
X162206Y146101D01*
X162281Y146174D01*
X162343Y146258D01*
X162389Y146353D01*
X162418Y146453D01*
X162429Y146557D01*
X162421Y146662D01*
X162396Y146763D01*
X162354Y146859D01*
X162295Y146946D01*
X162222Y147021D01*
X162138Y147083D01*
X162043Y147129D01*
X161943Y147158D01*
X161839Y147169D01*
X161734Y147161D01*
X161633Y147136D01*
X161537Y147094D01*
X161450Y147035D01*
X161387Y146989D01*
Y163026D01*
X161397Y163020D01*
X161493Y162979D01*
X161595Y162955D01*
X161700Y162950D01*
X161804Y162963D01*
X161904Y162993D01*
X161997Y163041D01*
X162081Y163103D01*
X162152Y163180D01*
X162209Y163268D01*
X162250Y163364D01*
X162274Y163466D01*
X162279Y163571D01*
X162266Y163675D01*
X162236Y163775D01*
X162188Y163868D01*
X162126Y163952D01*
X162049Y164023D01*
X161387Y164494D01*
Y175004D01*
G37*
G36*
Y146989D02*X160711Y146490D01*
X159927Y146013D01*
X159103Y145608D01*
X158246Y145278D01*
X157363Y145027D01*
X156461Y144855D01*
X155548Y144765D01*
X154630Y144757D01*
X153715Y144831D01*
X152810Y144987D01*
X152500Y145069D01*
Y164935D01*
X152636Y164974D01*
X153538Y165146D01*
X154451Y165236D01*
X155369Y165244D01*
X156284Y165170D01*
X157189Y165014D01*
X158076Y164778D01*
X158939Y164463D01*
X159769Y164073D01*
X160562Y163610D01*
X161310Y163078D01*
X161309Y163077D01*
X161387Y163026D01*
Y146989D01*
G37*
G36*
Y29494D02*X161213Y29618D01*
X160328Y30135D01*
X159400Y30571D01*
X158613Y30858D01*
Y37860D01*
X158708Y37882D01*
X158829Y37933D01*
X158938Y38005D01*
X159034Y38094D01*
X159113Y38198D01*
X159172Y38315D01*
X159314Y38722D01*
X159417Y39142D01*
X159479Y39569D01*
X159500Y40000D01*
X159479Y40432D01*
X159417Y40859D01*
X159314Y41279D01*
X159172Y41686D01*
X159171D01*
X159112Y41802D01*
X159033Y41907D01*
X158937Y41996D01*
X158828Y42067D01*
X158707Y42118D01*
X158613Y42139D01*
Y67860D01*
X158708Y67882D01*
X158829Y67933D01*
X158938Y68005D01*
X159034Y68094D01*
X159113Y68198D01*
X159172Y68315D01*
X159314Y68722D01*
X159417Y69142D01*
X159479Y69569D01*
X159500Y70000D01*
X159479Y70432D01*
X159417Y70859D01*
X159314Y71279D01*
X159172Y71686D01*
X159171D01*
X159112Y71802D01*
X159033Y71907D01*
X158937Y71996D01*
X158828Y72067D01*
X158707Y72118D01*
X158613Y72139D01*
Y144136D01*
X158626Y144140D01*
X159583Y144508D01*
X160504Y144960D01*
X161380Y145493D01*
X161387Y145498D01*
Y72141D01*
X161291Y72119D01*
X161170Y72068D01*
X161061Y71996D01*
X160965Y71907D01*
X160886Y71803D01*
X160827Y71686D01*
X160685Y71279D01*
X160582Y70859D01*
X160520Y70432D01*
X160500Y70000D01*
X160520Y69569D01*
X160582Y69142D01*
X160685Y68722D01*
X160827Y68315D01*
X160828D01*
X160887Y68199D01*
X160966Y68094D01*
X161062Y68005D01*
X161171Y67934D01*
X161292Y67883D01*
X161387Y67861D01*
Y42141D01*
X161291Y42119D01*
X161170Y42068D01*
X161061Y41996D01*
X160965Y41907D01*
X160886Y41803D01*
X160827Y41686D01*
X160685Y41279D01*
X160582Y40859D01*
X160520Y40432D01*
X160500Y40000D01*
X160520Y39569D01*
X160582Y39142D01*
X160685Y38722D01*
X160827Y38315D01*
X160828D01*
X160887Y38199D01*
X160966Y38094D01*
X161062Y38005D01*
X161171Y37934D01*
X161292Y37883D01*
X161387Y37861D01*
Y29494D01*
G37*
G36*
X158613Y30858D02*X158436Y30923D01*
X157445Y31186D01*
X156435Y31360D01*
X155412Y31443D01*
X154999Y31439D01*
Y35500D01*
X155000D01*
X155431Y35521D01*
X155858Y35583D01*
X156278Y35686D01*
X156685Y35828D01*
Y35829D01*
X156801Y35888D01*
X156906Y35967D01*
X156995Y36063D01*
X157066Y36172D01*
X157117Y36293D01*
X157146Y36420D01*
X157153Y36550D01*
X157137Y36680D01*
X157099Y36805D01*
X157040Y36921D01*
X156961Y37026D01*
X156865Y37115D01*
X156756Y37186D01*
X156635Y37237D01*
X156508Y37266D01*
X156378Y37273D01*
X156248Y37257D01*
X156123Y37219D01*
X155852Y37124D01*
X155572Y37056D01*
X155287Y37014D01*
X155000Y37000D01*
X154999D01*
Y43000D01*
X155000D01*
X155287Y42987D01*
X155572Y42945D01*
X155852Y42877D01*
X156123Y42782D01*
Y42781D01*
X156248Y42743D01*
X156378Y42727D01*
X156509Y42734D01*
X156636Y42763D01*
X156757Y42814D01*
X156866Y42886D01*
X156962Y42975D01*
X157041Y43079D01*
X157100Y43196D01*
X157138Y43321D01*
X157154Y43451D01*
X157147Y43582D01*
X157118Y43709D01*
X157067Y43830D01*
X156995Y43939D01*
X156906Y44035D01*
X156802Y44114D01*
X156685Y44173D01*
X156278Y44315D01*
X155858Y44418D01*
X155431Y44480D01*
X155000Y44500D01*
X154999D01*
Y65500D01*
X155000D01*
X155431Y65521D01*
X155858Y65583D01*
X156278Y65686D01*
X156685Y65828D01*
Y65829D01*
X156801Y65888D01*
X156906Y65967D01*
X156995Y66063D01*
X157066Y66172D01*
X157117Y66293D01*
X157146Y66420D01*
X157153Y66550D01*
X157137Y66680D01*
X157099Y66805D01*
X157040Y66921D01*
X156961Y67026D01*
X156865Y67115D01*
X156756Y67186D01*
X156635Y67237D01*
X156508Y67266D01*
X156378Y67273D01*
X156248Y67257D01*
X156123Y67219D01*
X155852Y67124D01*
X155572Y67056D01*
X155287Y67014D01*
X155000Y67000D01*
X154999D01*
Y73000D01*
X155000D01*
X155287Y72987D01*
X155572Y72945D01*
X155852Y72877D01*
X156123Y72782D01*
Y72781D01*
X156248Y72743D01*
X156378Y72727D01*
X156509Y72734D01*
X156636Y72763D01*
X156757Y72814D01*
X156866Y72886D01*
X156962Y72975D01*
X157041Y73079D01*
X157100Y73196D01*
X157138Y73321D01*
X157154Y73451D01*
X157147Y73582D01*
X157118Y73709D01*
X157067Y73830D01*
X156995Y73939D01*
X156906Y74035D01*
X156802Y74114D01*
X156685Y74173D01*
X156278Y74315D01*
X155858Y74418D01*
X155431Y74480D01*
X155000Y74500D01*
X154999D01*
Y88777D01*
X155393Y89053D01*
X155947Y89607D01*
X156397Y90250D01*
X156729Y90961D01*
X156932Y91719D01*
X157000Y92500D01*
X156932Y93281D01*
X156729Y94039D01*
X156397Y94750D01*
X155947Y95393D01*
X155393Y95947D01*
X154999Y96223D01*
Y118000D01*
X155500D01*
X155760Y118023D01*
X156013Y118090D01*
X156250Y118201D01*
X156464Y118351D01*
X156649Y118536D01*
X156799Y118750D01*
X156910Y118987D01*
X156977Y119240D01*
X157000Y119500D01*
Y125500D01*
X156977Y125760D01*
X156910Y126013D01*
X156799Y126250D01*
X156649Y126464D01*
X156464Y126649D01*
X156250Y126799D01*
X156013Y126910D01*
X155760Y126977D01*
X155500Y127000D01*
X154999D01*
Y143562D01*
X155612Y143567D01*
X156633Y143668D01*
X157640Y143859D01*
X158613Y144136D01*
Y72139D01*
X158580Y72147D01*
X158450Y72154D01*
X158320Y72138D01*
X158195Y72100D01*
X158079Y72041D01*
X157974Y71962D01*
X157885Y71866D01*
X157814Y71757D01*
X157763Y71636D01*
X157734Y71509D01*
X157727Y71379D01*
X157743Y71249D01*
X157781Y71124D01*
X157876Y70853D01*
X157944Y70573D01*
X157986Y70288D01*
X158000Y70000D01*
X157986Y69713D01*
X157944Y69428D01*
X157876Y69148D01*
X157781Y68877D01*
X157780D01*
X157742Y68752D01*
X157726Y68622D01*
X157733Y68491D01*
X157762Y68364D01*
X157813Y68243D01*
X157885Y68134D01*
X157974Y68038D01*
X158078Y67959D01*
X158195Y67900D01*
X158320Y67862D01*
X158450Y67846D01*
X158581Y67853D01*
X158613Y67860D01*
Y42139D01*
X158580Y42147D01*
X158450Y42154D01*
X158320Y42138D01*
X158195Y42100D01*
X158079Y42041D01*
X157974Y41962D01*
X157885Y41866D01*
X157814Y41757D01*
X157763Y41636D01*
X157734Y41509D01*
X157727Y41379D01*
X157743Y41249D01*
X157781Y41124D01*
X157876Y40853D01*
X157944Y40573D01*
X157986Y40288D01*
X158000Y40000D01*
X157986Y39713D01*
X157944Y39428D01*
X157876Y39148D01*
X157781Y38877D01*
X157780D01*
X157742Y38752D01*
X157726Y38622D01*
X157733Y38491D01*
X157762Y38364D01*
X157813Y38243D01*
X157885Y38134D01*
X157974Y38038D01*
X158078Y37959D01*
X158195Y37900D01*
X158320Y37862D01*
X158450Y37846D01*
X158581Y37853D01*
X158613Y37860D01*
Y30858D01*
G37*
G36*
X154999Y127000D02*X152500D01*
Y143829D01*
X152554Y143815D01*
X153564Y143641D01*
X154587Y143558D01*
X154999Y143562D01*
Y127000D01*
G37*
G36*
Y96223D02*X154750Y96397D01*
X154039Y96729D01*
X153281Y96932D01*
X152500Y97000D01*
Y118000D01*
X154999D01*
Y96223D01*
G37*
G36*
Y31439D02*X154387Y31434D01*
X153366Y31333D01*
X152500Y31169D01*
Y78012D01*
X152595Y78366D01*
X152650Y79000D01*
X152595Y79634D01*
X152500Y79988D01*
Y88000D01*
X153281Y88068D01*
X154039Y88271D01*
X154750Y88603D01*
X154999Y88777D01*
Y74500D01*
X154568Y74480D01*
X154141Y74418D01*
X153721Y74315D01*
X153314Y74173D01*
Y74172D01*
X153198Y74113D01*
X153093Y74034D01*
X153004Y73938D01*
X152933Y73829D01*
X152882Y73708D01*
X152853Y73581D01*
X152846Y73451D01*
X152862Y73321D01*
X152900Y73196D01*
X152959Y73080D01*
X153038Y72975D01*
X153134Y72886D01*
X153243Y72815D01*
X153364Y72764D01*
X153491Y72735D01*
X153621Y72728D01*
X153751Y72744D01*
X153876Y72782D01*
X154147Y72877D01*
X154427Y72945D01*
X154712Y72987D01*
X154999Y73000D01*
Y67000D01*
X154712Y67014D01*
X154427Y67056D01*
X154147Y67124D01*
X153876Y67219D01*
Y67220D01*
X153751Y67258D01*
X153621Y67274D01*
X153490Y67267D01*
X153363Y67238D01*
X153242Y67187D01*
X153133Y67115D01*
X153037Y67026D01*
X152958Y66922D01*
X152899Y66805D01*
X152861Y66680D01*
X152845Y66550D01*
X152852Y66419D01*
X152881Y66292D01*
X152932Y66171D01*
X153004Y66062D01*
X153093Y65966D01*
X153197Y65887D01*
X153314Y65828D01*
X153721Y65686D01*
X154141Y65583D01*
X154568Y65521D01*
X154999Y65500D01*
Y44500D01*
X154568Y44480D01*
X154141Y44418D01*
X153721Y44315D01*
X153314Y44173D01*
Y44172D01*
X153198Y44113D01*
X153093Y44034D01*
X153004Y43938D01*
X152933Y43829D01*
X152882Y43708D01*
X152853Y43581D01*
X152846Y43451D01*
X152862Y43321D01*
X152900Y43196D01*
X152959Y43080D01*
X153038Y42975D01*
X153134Y42886D01*
X153243Y42815D01*
X153364Y42764D01*
X153491Y42735D01*
X153621Y42728D01*
X153751Y42744D01*
X153876Y42782D01*
X154147Y42877D01*
X154427Y42945D01*
X154712Y42987D01*
X154999Y43000D01*
Y37000D01*
X154712Y37014D01*
X154427Y37056D01*
X154147Y37124D01*
X153876Y37219D01*
Y37220D01*
X153751Y37258D01*
X153621Y37274D01*
X153490Y37267D01*
X153363Y37238D01*
X153242Y37187D01*
X153133Y37115D01*
X153037Y37026D01*
X152958Y36922D01*
X152899Y36805D01*
X152861Y36680D01*
X152845Y36550D01*
X152852Y36419D01*
X152881Y36292D01*
X152932Y36171D01*
X153004Y36062D01*
X153093Y35966D01*
X153197Y35887D01*
X153314Y35828D01*
X153721Y35686D01*
X154141Y35583D01*
X154568Y35521D01*
X154999Y35500D01*
Y31439D01*
G37*
G36*
X161387Y11989D02*X160711Y11490D01*
X159927Y11013D01*
X159103Y10608D01*
X158246Y10278D01*
X157363Y10027D01*
X156461Y9855D01*
X155548Y9765D01*
X154630Y9757D01*
X153715Y9831D01*
X152810Y9987D01*
X152500Y10069D01*
Y29935D01*
X152636Y29974D01*
X153538Y30146D01*
X154451Y30236D01*
X155369Y30244D01*
X156284Y30170D01*
X157189Y30014D01*
X158076Y29778D01*
X158939Y29463D01*
X159769Y29073D01*
X160562Y28610D01*
X161310Y28078D01*
X161309Y28077D01*
X161387Y28026D01*
Y11989D01*
G37*
G36*
Y4D02*X152500D01*
Y8829D01*
X152554Y8815D01*
X153564Y8641D01*
X154587Y8558D01*
X155612Y8567D01*
X156633Y8668D01*
X157640Y8859D01*
X158626Y9140D01*
X159583Y9508D01*
X160504Y9960D01*
X161380Y10493D01*
X161387Y10498D01*
Y4D01*
G37*
G36*
X152500Y175004D02*X161387D01*
Y164494D01*
X161213Y164618D01*
X160328Y165135D01*
X159400Y165571D01*
X158436Y165923D01*
X157445Y166186D01*
X156435Y166360D01*
X155412Y166443D01*
X154387Y166434D01*
X153366Y166333D01*
X152500Y166169D01*
Y175004D01*
G37*
G36*
X151387Y9142D02*X151563Y9078D01*
X152500Y8829D01*
Y4D01*
X151387D01*
Y9142D01*
G37*
G36*
Y29582D02*X151753Y29723D01*
X152500Y29935D01*
Y10069D01*
X151923Y10223D01*
X151387Y10419D01*
Y29582D01*
G37*
G36*
Y76245D02*X151796Y76654D01*
X152161Y77175D01*
X152430Y77752D01*
X152500Y78012D01*
Y31169D01*
X152359Y31142D01*
X151387Y30865D01*
Y37861D01*
X151419Y37854D01*
X151549Y37847D01*
X151679Y37863D01*
X151804Y37901D01*
X151920Y37960D01*
X152025Y38039D01*
X152114Y38135D01*
X152185Y38244D01*
X152236Y38365D01*
X152265Y38492D01*
X152272Y38622D01*
X152256Y38752D01*
X152218Y38877D01*
X152123Y39148D01*
X152055Y39428D01*
X152013Y39713D01*
X152000Y40000D01*
X152013Y40288D01*
X152055Y40573D01*
X152123Y40853D01*
X152218Y41124D01*
X152219D01*
X152257Y41249D01*
X152273Y41379D01*
X152266Y41510D01*
X152237Y41637D01*
X152186Y41758D01*
X152114Y41867D01*
X152025Y41963D01*
X151921Y42042D01*
X151804Y42101D01*
X151679Y42139D01*
X151549Y42155D01*
X151418Y42148D01*
X151387Y42141D01*
Y67861D01*
X151419Y67854D01*
X151549Y67847D01*
X151679Y67863D01*
X151804Y67901D01*
X151920Y67960D01*
X152025Y68039D01*
X152114Y68135D01*
X152185Y68244D01*
X152236Y68365D01*
X152265Y68492D01*
X152272Y68622D01*
X152256Y68752D01*
X152218Y68877D01*
X152123Y69148D01*
X152055Y69428D01*
X152013Y69713D01*
X152000Y70000D01*
X152013Y70288D01*
X152055Y70573D01*
X152123Y70853D01*
X152218Y71124D01*
X152219D01*
X152257Y71249D01*
X152273Y71379D01*
X152266Y71510D01*
X152237Y71637D01*
X152186Y71758D01*
X152114Y71867D01*
X152025Y71963D01*
X151921Y72042D01*
X151804Y72101D01*
X151679Y72139D01*
X151549Y72155D01*
X151418Y72148D01*
X151387Y72141D01*
Y76245D01*
G37*
G36*
Y88157D02*X151719Y88068D01*
X152500Y88000D01*
Y79988D01*
X152430Y80248D01*
X152161Y80825D01*
X151796Y81346D01*
X151387Y81755D01*
Y88157D01*
G37*
G36*
Y118000D02*X152500D01*
Y97000D01*
X151719Y96932D01*
X151387Y96843D01*
Y118000D01*
G37*
G36*
Y144142D02*X151563Y144078D01*
X152500Y143829D01*
Y127000D01*
X151387D01*
Y144142D01*
G37*
G36*
Y164582D02*X151753Y164723D01*
X152500Y164935D01*
Y145069D01*
X151923Y145223D01*
X151387Y145419D01*
Y164582D01*
G37*
G36*
Y175004D02*X152500D01*
Y166169D01*
X152359Y166142D01*
X151387Y165865D01*
Y175004D01*
G37*
G36*
X145000D02*X151387D01*
Y165865D01*
X151373Y165861D01*
X150416Y165493D01*
X149495Y165041D01*
X148619Y164508D01*
X147794Y163899D01*
X147793Y163900D01*
X147718Y163827D01*
X147656Y163743D01*
X147610Y163648D01*
X147581Y163548D01*
X147570Y163444D01*
X147578Y163339D01*
X147603Y163238D01*
X147645Y163142D01*
X147704Y163055D01*
X147777Y162980D01*
X147861Y162918D01*
X147956Y162872D01*
X148056Y162843D01*
X148160Y162832D01*
X148265Y162840D01*
X148366Y162865D01*
X148462Y162907D01*
X148549Y162966D01*
X149288Y163511D01*
X150072Y163988D01*
X150896Y164393D01*
X151387Y164582D01*
Y145419D01*
X151060Y145538D01*
X150230Y145928D01*
X149437Y146391D01*
X148689Y146923D01*
X148690Y146924D01*
X148602Y146981D01*
X148506Y147022D01*
X148404Y147046D01*
X148299Y147051D01*
X148195Y147038D01*
X148095Y147008D01*
X148002Y146960D01*
X147918Y146898D01*
X147847Y146821D01*
X147790Y146733D01*
X147749Y146637D01*
X147725Y146535D01*
X147720Y146430D01*
X147733Y146326D01*
X147763Y146226D01*
X147811Y146133D01*
X147873Y146049D01*
X147950Y145978D01*
X148786Y145383D01*
X149671Y144866D01*
X150599Y144430D01*
X151387Y144142D01*
Y127000D01*
X149500D01*
X149240Y126977D01*
X148987Y126910D01*
X148750Y126799D01*
X148536Y126649D01*
X148351Y126464D01*
X148201Y126250D01*
X148090Y126013D01*
X148023Y125760D01*
X148000Y125500D01*
Y119500D01*
X148023Y119240D01*
X148090Y118987D01*
X148201Y118750D01*
X148351Y118536D01*
X148536Y118351D01*
X148750Y118201D01*
X148987Y118090D01*
X149240Y118023D01*
X149500Y118000D01*
X151387D01*
Y96843D01*
X150961Y96729D01*
X150250Y96397D01*
X149607Y95947D01*
X149053Y95393D01*
X148603Y94750D01*
X148271Y94039D01*
X148068Y93281D01*
X148000Y92500D01*
X148068Y91719D01*
X148271Y90961D01*
X148603Y90250D01*
X149053Y89607D01*
X149607Y89053D01*
X150250Y88603D01*
X150961Y88271D01*
X151387Y88157D01*
Y81755D01*
X151346Y81796D01*
X150825Y82161D01*
X150248Y82430D01*
X149634Y82595D01*
X149000Y82650D01*
X148366Y82595D01*
X147752Y82430D01*
X147175Y82161D01*
X146654Y81796D01*
X146204Y81346D01*
X145839Y80825D01*
X145570Y80248D01*
X145405Y79634D01*
X145350Y79000D01*
X145405Y78366D01*
X145570Y77752D01*
X145839Y77175D01*
X146204Y76654D01*
X146654Y76204D01*
X147175Y75839D01*
X147752Y75570D01*
X148366Y75405D01*
X149000Y75350D01*
X149634Y75405D01*
X150248Y75570D01*
X150825Y75839D01*
X151346Y76204D01*
X151387Y76245D01*
Y72141D01*
X151291Y72119D01*
X151170Y72068D01*
X151061Y71996D01*
X150965Y71907D01*
X150886Y71803D01*
X150827Y71686D01*
X150685Y71279D01*
X150582Y70859D01*
X150520Y70432D01*
X150500Y70000D01*
X150520Y69569D01*
X150582Y69142D01*
X150685Y68722D01*
X150827Y68315D01*
X150828D01*
X150887Y68199D01*
X150966Y68094D01*
X151062Y68005D01*
X151171Y67934D01*
X151292Y67883D01*
X151387Y67861D01*
Y42141D01*
X151291Y42119D01*
X151170Y42068D01*
X151061Y41996D01*
X150965Y41907D01*
X150886Y41803D01*
X150827Y41686D01*
X150685Y41279D01*
X150582Y40859D01*
X150520Y40432D01*
X150500Y40000D01*
X150520Y39569D01*
X150582Y39142D01*
X150685Y38722D01*
X150827Y38315D01*
X150828D01*
X150887Y38199D01*
X150966Y38094D01*
X151062Y38005D01*
X151171Y37934D01*
X151292Y37883D01*
X151387Y37861D01*
Y30865D01*
X151373Y30861D01*
X150416Y30493D01*
X149495Y30041D01*
X148619Y29508D01*
X147794Y28899D01*
X147793Y28900D01*
X147718Y28827D01*
X147656Y28743D01*
X147610Y28648D01*
X147581Y28548D01*
X147570Y28444D01*
X147578Y28339D01*
X147603Y28238D01*
X147645Y28142D01*
X147704Y28055D01*
X147777Y27980D01*
X147861Y27918D01*
X147956Y27872D01*
X148056Y27843D01*
X148160Y27832D01*
X148265Y27840D01*
X148366Y27865D01*
X148462Y27907D01*
X148549Y27966D01*
X149288Y28511D01*
X150072Y28988D01*
X150896Y29393D01*
X151387Y29582D01*
Y10419D01*
X151060Y10538D01*
X150230Y10928D01*
X149437Y11391D01*
X148689Y11923D01*
X148690Y11924D01*
X148602Y11981D01*
X148506Y12022D01*
X148404Y12046D01*
X148299Y12051D01*
X148195Y12038D01*
X148095Y12008D01*
X148002Y11960D01*
X147918Y11898D01*
X147847Y11821D01*
X147790Y11733D01*
X147749Y11637D01*
X147725Y11535D01*
X147720Y11430D01*
X147733Y11326D01*
X147763Y11226D01*
X147811Y11133D01*
X147873Y11049D01*
X147950Y10978D01*
X148786Y10383D01*
X149671Y9866D01*
X150599Y9430D01*
X151387Y9142D01*
Y4D01*
X145000D01*
Y14429D01*
X145492Y13620D01*
X146101Y12795D01*
X146100Y12794D01*
X146173Y12719D01*
X146257Y12657D01*
X146352Y12611D01*
X146452Y12582D01*
X146556Y12571D01*
X146661Y12579D01*
X146762Y12604D01*
X146858Y12646D01*
X146945Y12705D01*
X147020Y12778D01*
X147082Y12862D01*
X147128Y12957D01*
X147157Y13057D01*
X147168Y13161D01*
X147160Y13266D01*
X147135Y13367D01*
X147093Y13463D01*
X147034Y13550D01*
X146489Y14289D01*
X146012Y15073D01*
X145607Y15897D01*
X145277Y16754D01*
X145026Y17637D01*
X145000Y17773D01*
Y22243D01*
X145222Y23077D01*
X145537Y23940D01*
X145927Y24770D01*
X146390Y25563D01*
X146922Y26311D01*
X146923Y26310D01*
X146980Y26398D01*
X147021Y26494D01*
X147045Y26596D01*
X147050Y26701D01*
X147037Y26805D01*
X147007Y26905D01*
X146959Y26998D01*
X146897Y27082D01*
X146820Y27153D01*
X146732Y27210D01*
X146636Y27251D01*
X146534Y27275D01*
X146429Y27280D01*
X146325Y27267D01*
X146225Y27237D01*
X146132Y27189D01*
X146048Y27127D01*
X145977Y27050D01*
X145382Y26214D01*
X145000Y25560D01*
Y35500D01*
X145781Y35568D01*
X146539Y35771D01*
X147250Y36103D01*
X147893Y36553D01*
X148447Y37107D01*
X148897Y37750D01*
X149229Y38461D01*
X149432Y39219D01*
X149500Y40000D01*
X149432Y40781D01*
X149229Y41539D01*
X148897Y42250D01*
X148447Y42893D01*
X147893Y43447D01*
X147250Y43897D01*
X146539Y44229D01*
X145781Y44432D01*
X145000Y44500D01*
Y65500D01*
X145781Y65568D01*
X146539Y65771D01*
X147250Y66103D01*
X147893Y66553D01*
X148447Y67107D01*
X148897Y67750D01*
X149229Y68461D01*
X149432Y69219D01*
X149500Y70000D01*
X149432Y70781D01*
X149229Y71539D01*
X148897Y72250D01*
X148447Y72893D01*
X147893Y73447D01*
X147250Y73897D01*
X146539Y74229D01*
X145781Y74432D01*
X145000Y74500D01*
Y88778D01*
X145393Y89053D01*
X145947Y89607D01*
X146397Y90250D01*
X146729Y90961D01*
X146932Y91719D01*
X147000Y92500D01*
X146932Y93281D01*
X146729Y94039D01*
X146397Y94750D01*
X145947Y95393D01*
X145393Y95947D01*
X145000Y96222D01*
Y118778D01*
X145393Y119053D01*
X145947Y119607D01*
X146397Y120250D01*
X146729Y120961D01*
X146932Y121719D01*
X147000Y122500D01*
X146932Y123281D01*
X146729Y124039D01*
X146397Y124750D01*
X145947Y125393D01*
X145393Y125947D01*
X145000Y126222D01*
Y149429D01*
X145492Y148620D01*
X146101Y147795D01*
X146100Y147794D01*
X146173Y147719D01*
X146257Y147657D01*
X146352Y147611D01*
X146452Y147582D01*
X146556Y147571D01*
X146661Y147579D01*
X146762Y147604D01*
X146858Y147646D01*
X146945Y147705D01*
X147020Y147778D01*
X147082Y147862D01*
X147128Y147957D01*
X147157Y148057D01*
X147168Y148161D01*
X147160Y148266D01*
X147135Y148367D01*
X147093Y148463D01*
X147034Y148550D01*
X146489Y149289D01*
X146012Y150073D01*
X145607Y150897D01*
X145277Y151754D01*
X145026Y152637D01*
X145000Y152773D01*
Y157243D01*
X145222Y158077D01*
X145537Y158940D01*
X145927Y159770D01*
X146390Y160563D01*
X146922Y161311D01*
X146923Y161310D01*
X146980Y161398D01*
X147021Y161494D01*
X147045Y161596D01*
X147050Y161701D01*
X147037Y161805D01*
X147007Y161905D01*
X146959Y161998D01*
X146897Y162082D01*
X146820Y162153D01*
X146732Y162210D01*
X146636Y162251D01*
X146534Y162275D01*
X146429Y162280D01*
X146325Y162267D01*
X146225Y162237D01*
X146132Y162189D01*
X146048Y162127D01*
X145977Y162050D01*
X145382Y161214D01*
X145000Y160560D01*
Y175004D01*
G37*
G36*
Y152773D02*X144854Y153539D01*
X144764Y154452D01*
X144756Y155370D01*
X144830Y156285D01*
X144986Y157190D01*
X145000Y157243D01*
Y152773D01*
G37*
G36*
Y17773D02*X144854Y18539D01*
X144764Y19452D01*
X144756Y20370D01*
X144830Y21285D01*
X144986Y22190D01*
X145000Y22243D01*
Y17773D01*
G37*
G36*
X135015Y175004D02*X145000D01*
Y160560D01*
X144865Y160329D01*
X144429Y159401D01*
X144077Y158437D01*
X143814Y157446D01*
X143640Y156436D01*
X143557Y155413D01*
X143566Y154388D01*
X143667Y153367D01*
X143858Y152360D01*
X144139Y151374D01*
X144507Y150417D01*
X144959Y149496D01*
X145000Y149429D01*
Y126222D01*
X144750Y126397D01*
X144039Y126729D01*
X143281Y126932D01*
X142500Y127000D01*
X141719Y126932D01*
X140961Y126729D01*
X140250Y126397D01*
X139607Y125947D01*
X139053Y125393D01*
X138603Y124750D01*
X138271Y124039D01*
X138068Y123281D01*
X138000Y122500D01*
X138068Y121719D01*
X138271Y120961D01*
X138603Y120250D01*
X139053Y119607D01*
X139607Y119053D01*
X140250Y118603D01*
X140961Y118271D01*
X141719Y118068D01*
X142500Y118000D01*
X143281Y118068D01*
X144039Y118271D01*
X144750Y118603D01*
X145000Y118778D01*
Y96222D01*
X144750Y96397D01*
X144039Y96729D01*
X143281Y96932D01*
X142500Y97000D01*
X141719Y96932D01*
X140961Y96729D01*
X140250Y96397D01*
X139607Y95947D01*
X139053Y95393D01*
X138603Y94750D01*
X138271Y94039D01*
X138068Y93281D01*
X138000Y92500D01*
X138068Y91719D01*
X138271Y90961D01*
X138603Y90250D01*
X139053Y89607D01*
X139607Y89053D01*
X140250Y88603D01*
X140961Y88271D01*
X141719Y88068D01*
X142500Y88000D01*
X143281Y88068D01*
X144039Y88271D01*
X144750Y88603D01*
X145000Y88778D01*
Y74500D01*
X144219Y74432D01*
X143461Y74229D01*
X142750Y73897D01*
X142107Y73447D01*
X141553Y72893D01*
X141103Y72250D01*
X140771Y71539D01*
X140568Y70781D01*
X140500Y70000D01*
X140568Y69219D01*
X140771Y68461D01*
X141103Y67750D01*
X141553Y67107D01*
X142107Y66553D01*
X142750Y66103D01*
X143461Y65771D01*
X144219Y65568D01*
X145000Y65500D01*
Y44500D01*
X144219Y44432D01*
X143461Y44229D01*
X142750Y43897D01*
X142107Y43447D01*
X141553Y42893D01*
X141103Y42250D01*
X140771Y41539D01*
X140568Y40781D01*
X140500Y40000D01*
X140568Y39219D01*
X140771Y38461D01*
X141103Y37750D01*
X141553Y37107D01*
X142107Y36553D01*
X142750Y36103D01*
X143461Y35771D01*
X144219Y35568D01*
X145000Y35500D01*
Y25560D01*
X144865Y25329D01*
X144429Y24401D01*
X144077Y23437D01*
X143814Y22446D01*
X143640Y21436D01*
X143557Y20413D01*
X143566Y19388D01*
X143667Y18367D01*
X143858Y17360D01*
X144139Y16374D01*
X144507Y15417D01*
X144959Y14496D01*
X145000Y14429D01*
Y4D01*
X135015D01*
Y35501D01*
X135781Y35568D01*
X136539Y35771D01*
X137250Y36103D01*
X137893Y36553D01*
X138447Y37107D01*
X138897Y37750D01*
X139229Y38461D01*
X139432Y39219D01*
X139500Y40000D01*
X139432Y40781D01*
X139229Y41539D01*
X138897Y42250D01*
X138447Y42893D01*
X137893Y43447D01*
X137250Y43897D01*
X136539Y44229D01*
X135781Y44432D01*
X135015Y44499D01*
Y65501D01*
X135781Y65568D01*
X136539Y65771D01*
X137250Y66103D01*
X137893Y66553D01*
X138447Y67107D01*
X138897Y67750D01*
X139229Y68461D01*
X139432Y69219D01*
X139500Y70000D01*
X139432Y70781D01*
X139229Y71539D01*
X138897Y72250D01*
X138447Y72893D01*
X137893Y73447D01*
X137250Y73897D01*
X136539Y74229D01*
X135781Y74432D01*
X135015Y74499D01*
Y88788D01*
X135393Y89053D01*
X135947Y89607D01*
X136397Y90250D01*
X136729Y90961D01*
X136932Y91719D01*
X137000Y92500D01*
X136932Y93281D01*
X136729Y94039D01*
X136397Y94750D01*
X135947Y95393D01*
X135393Y95947D01*
X135015Y96212D01*
Y118788D01*
X135393Y119053D01*
X135947Y119607D01*
X136397Y120250D01*
X136729Y120961D01*
X136932Y121719D01*
X137000Y122500D01*
X136932Y123281D01*
X136729Y124039D01*
X136397Y124750D01*
X135947Y125393D01*
X135393Y125947D01*
X135015Y126212D01*
Y140050D01*
X135225Y140350D01*
X135542Y141029D01*
X135736Y141753D01*
X135801Y142500D01*
X135736Y143247D01*
X135542Y143971D01*
X135225Y144650D01*
X135015Y144950D01*
Y150312D01*
X135070Y150331D01*
X135161Y150382D01*
X135243Y150448D01*
X135311Y150526D01*
X135365Y150616D01*
X135520Y150974D01*
X135642Y151344D01*
X135730Y151724D01*
X135783Y152111D01*
X135801Y152501D01*
X135783Y152890D01*
X135730Y153277D01*
X135642Y153657D01*
X135520Y154027D01*
X135365Y154385D01*
X135311Y154475D01*
X135243Y154553D01*
X135161Y154619D01*
X135070Y154670D01*
X135015Y154689D01*
Y175004D01*
G37*
G36*
Y126212D02*X134750Y126397D01*
X134039Y126729D01*
X133281Y126932D01*
X132500Y127000D01*
Y138333D01*
X132972Y138459D01*
X133651Y138776D01*
X134265Y139206D01*
X134795Y139736D01*
X135015Y140050D01*
Y126212D01*
G37*
G36*
Y96212D02*X134750Y96397D01*
X134039Y96729D01*
X133281Y96932D01*
X132500Y97000D01*
Y118000D01*
X133281Y118068D01*
X134039Y118271D01*
X134750Y118603D01*
X135015Y118788D01*
Y96212D01*
G37*
G36*
Y74499D02*X135000Y74500D01*
X134219Y74432D01*
X133461Y74229D01*
X132750Y73897D01*
X132500Y73722D01*
Y88000D01*
X133281Y88068D01*
X134039Y88271D01*
X134750Y88603D01*
X135015Y88788D01*
Y74499D01*
G37*
G36*
Y44499D02*X135000Y44500D01*
X134219Y44432D01*
X133461Y44229D01*
X132750Y43897D01*
X132500Y43722D01*
Y66278D01*
X132750Y66103D01*
X133461Y65771D01*
X134219Y65568D01*
X135000Y65500D01*
X135015Y65501D01*
Y44499D01*
G37*
G36*
Y4D02*X132500D01*
Y36278D01*
X132750Y36103D01*
X133461Y35771D01*
X134219Y35568D01*
X135000Y35500D01*
X135015Y35501D01*
Y4D01*
G37*
G36*
X132500Y175004D02*X135015D01*
Y154689D01*
X134971Y154704D01*
X134868Y154720D01*
X134763Y154718D01*
X134661Y154698D01*
X134563Y154661D01*
X134473Y154607D01*
X134395Y154539D01*
X134329Y154457D01*
X134278Y154366D01*
X134244Y154267D01*
X134228Y154164D01*
X134230Y154059D01*
X134250Y153957D01*
X134287Y153859D01*
X134398Y153601D01*
X134486Y153334D01*
X134550Y153060D01*
X134588Y152781D01*
X134601Y152500D01*
X134588Y152220D01*
X134550Y151941D01*
X134486Y151667D01*
X134398Y151400D01*
X134287Y151142D01*
X134250Y151044D01*
X134230Y150942D01*
X134228Y150837D01*
X134244Y150734D01*
X134278Y150635D01*
X134329Y150544D01*
X134395Y150462D01*
X134473Y150394D01*
X134563Y150340D01*
X134661Y150303D01*
X134763Y150283D01*
X134868Y150281D01*
X134971Y150297D01*
X135015Y150312D01*
Y144950D01*
X134795Y145264D01*
X134265Y145794D01*
X133651Y146224D01*
X132972Y146541D01*
X132500Y146667D01*
Y148323D01*
X132657Y148359D01*
X133027Y148481D01*
X133385Y148636D01*
X133475Y148690D01*
X133553Y148758D01*
X133619Y148840D01*
X133670Y148931D01*
X133704Y149030D01*
X133720Y149133D01*
X133718Y149238D01*
X133698Y149340D01*
X133661Y149438D01*
X133607Y149528D01*
X133539Y149606D01*
X133457Y149672D01*
X133366Y149723D01*
X133267Y149757D01*
X133164Y149773D01*
X133059Y149771D01*
X132957Y149751D01*
X132859Y149714D01*
X132601Y149603D01*
X132500Y149570D01*
Y155431D01*
X132601Y155398D01*
X132859Y155287D01*
X132957Y155250D01*
X133059Y155230D01*
X133164Y155228D01*
X133267Y155244D01*
X133366Y155278D01*
X133457Y155329D01*
X133539Y155395D01*
X133607Y155473D01*
X133661Y155563D01*
X133698Y155661D01*
X133718Y155763D01*
X133720Y155868D01*
X133704Y155971D01*
X133670Y156070D01*
X133619Y156161D01*
X133553Y156243D01*
X133475Y156311D01*
X133385Y156365D01*
X133027Y156520D01*
X132657Y156642D01*
X132500Y156678D01*
Y175004D01*
G37*
G36*
X127987Y140050D02*X128207Y139736D01*
X128737Y139206D01*
X129351Y138776D01*
X130030Y138459D01*
X130754Y138265D01*
X131501Y138200D01*
X132248Y138265D01*
X132500Y138333D01*
Y127000D01*
X131719Y126932D01*
X130961Y126729D01*
X130250Y126397D01*
X129607Y125947D01*
X129053Y125393D01*
X128603Y124750D01*
X128271Y124039D01*
X128068Y123281D01*
X128000Y122500D01*
X128068Y121719D01*
X128271Y120961D01*
X128603Y120250D01*
X129053Y119607D01*
X129607Y119053D01*
X130250Y118603D01*
X130961Y118271D01*
X131719Y118068D01*
X132500Y118000D01*
Y97000D01*
X131719Y96932D01*
X130961Y96729D01*
X130250Y96397D01*
X129607Y95947D01*
X129053Y95393D01*
X128603Y94750D01*
X128271Y94039D01*
X128068Y93281D01*
X128000Y92500D01*
X128068Y91719D01*
X128271Y90961D01*
X128603Y90250D01*
X129053Y89607D01*
X129607Y89053D01*
X130250Y88603D01*
X130961Y88271D01*
X131719Y88068D01*
X132500Y88000D01*
Y73722D01*
X132107Y73447D01*
X131553Y72893D01*
X131103Y72250D01*
X130771Y71539D01*
X130568Y70781D01*
X130500Y70000D01*
X130568Y69219D01*
X130771Y68461D01*
X131103Y67750D01*
X131553Y67107D01*
X132107Y66553D01*
X132500Y66278D01*
Y43722D01*
X132107Y43447D01*
X131553Y42893D01*
X131103Y42250D01*
X130771Y41539D01*
X130568Y40781D01*
X130500Y40000D01*
X130568Y39219D01*
X130771Y38461D01*
X131103Y37750D01*
X131553Y37107D01*
X132107Y36553D01*
X132500Y36278D01*
Y4D01*
X127987D01*
Y36647D01*
X128447Y37107D01*
X128897Y37750D01*
X129229Y38461D01*
X129432Y39219D01*
X129500Y40000D01*
X129432Y40781D01*
X129229Y41539D01*
X128897Y42250D01*
X128447Y42893D01*
X127987Y43353D01*
Y66647D01*
X128447Y67107D01*
X128897Y67750D01*
X129229Y68461D01*
X129432Y69219D01*
X129500Y70000D01*
X129432Y70781D01*
X129229Y71539D01*
X128897Y72250D01*
X128447Y72893D01*
X127987Y73353D01*
Y140050D01*
G37*
G36*
Y175004D02*X132500D01*
Y156678D01*
X132277Y156730D01*
X131890Y156783D01*
X131501Y156800D01*
X131111Y156783D01*
X130724Y156730D01*
X130344Y156642D01*
X129974Y156520D01*
X129616Y156365D01*
X129526Y156311D01*
X129448Y156243D01*
X129382Y156161D01*
X129331Y156070D01*
X129297Y155971D01*
X129281Y155868D01*
X129283Y155763D01*
X129303Y155661D01*
X129340Y155563D01*
X129394Y155473D01*
X129462Y155395D01*
X129544Y155329D01*
X129635Y155278D01*
X129734Y155244D01*
X129837Y155228D01*
X129942Y155230D01*
X130044Y155250D01*
X130142Y155287D01*
X130400Y155398D01*
X130667Y155486D01*
X130941Y155550D01*
X131220Y155588D01*
X131501Y155600D01*
X131781Y155588D01*
X132060Y155550D01*
X132334Y155486D01*
X132500Y155431D01*
Y149570D01*
X132334Y149515D01*
X132060Y149451D01*
X131781Y149413D01*
X131501Y149400D01*
X131220Y149413D01*
X130941Y149451D01*
X130667Y149515D01*
X130400Y149603D01*
X130142Y149714D01*
X130044Y149751D01*
X129942Y149771D01*
X129837Y149773D01*
X129734Y149757D01*
X129635Y149723D01*
X129544Y149672D01*
X129462Y149606D01*
X129394Y149528D01*
X129340Y149438D01*
X129303Y149340D01*
X129283Y149238D01*
X129281Y149133D01*
X129297Y149030D01*
X129331Y148931D01*
X129382Y148840D01*
X129448Y148758D01*
X129526Y148690D01*
X129616Y148636D01*
X129974Y148481D01*
X130344Y148359D01*
X130724Y148271D01*
X131111Y148218D01*
X131501Y148200D01*
X131890Y148218D01*
X132277Y148271D01*
X132500Y148323D01*
Y146667D01*
X132248Y146735D01*
X131501Y146800D01*
X130754Y146735D01*
X130030Y146541D01*
X129351Y146224D01*
X128737Y145794D01*
X128207Y145264D01*
X127987Y144950D01*
Y150312D01*
X128030Y150297D01*
X128133Y150281D01*
X128238Y150283D01*
X128340Y150303D01*
X128438Y150340D01*
X128528Y150394D01*
X128606Y150462D01*
X128672Y150544D01*
X128723Y150635D01*
X128757Y150734D01*
X128773Y150837D01*
X128771Y150942D01*
X128751Y151044D01*
X128714Y151142D01*
X128603Y151400D01*
X128515Y151667D01*
X128451Y151941D01*
X128413Y152220D01*
X128401Y152501D01*
X128413Y152781D01*
X128451Y153060D01*
X128515Y153334D01*
X128603Y153601D01*
X128714Y153859D01*
X128751Y153957D01*
X128771Y154059D01*
X128773Y154164D01*
X128757Y154267D01*
X128723Y154366D01*
X128672Y154457D01*
X128606Y154539D01*
X128528Y154607D01*
X128438Y154661D01*
X128340Y154698D01*
X128238Y154718D01*
X128133Y154720D01*
X128030Y154704D01*
X127987Y154689D01*
Y175004D01*
G37*
G36*
Y43353D02*X127893Y43447D01*
X127250Y43897D01*
X126539Y44229D01*
X125781Y44432D01*
X125000Y44500D01*
Y65500D01*
X125781Y65568D01*
X126539Y65771D01*
X127250Y66103D01*
X127893Y66553D01*
X127987Y66647D01*
Y43353D01*
G37*
G36*
Y4D02*X125000D01*
Y35500D01*
X125781Y35568D01*
X126539Y35771D01*
X127250Y36103D01*
X127893Y36553D01*
X127987Y36647D01*
Y4D01*
G37*
G36*
X125000Y175004D02*X127987D01*
Y154689D01*
X127931Y154670D01*
X127840Y154619D01*
X127758Y154553D01*
X127690Y154475D01*
X127636Y154385D01*
X127481Y154027D01*
X127359Y153657D01*
X127271Y153277D01*
X127218Y152890D01*
X127201Y152500D01*
X127218Y152111D01*
X127271Y151724D01*
X127359Y151344D01*
X127481Y150974D01*
X127636Y150616D01*
X127690Y150526D01*
X127758Y150448D01*
X127840Y150382D01*
X127931Y150331D01*
X127987Y150312D01*
Y144950D01*
X127777Y144650D01*
X127460Y143971D01*
X127266Y143247D01*
X127201Y142500D01*
X127266Y141753D01*
X127460Y141029D01*
X127777Y140350D01*
X127987Y140050D01*
Y73353D01*
X127893Y73447D01*
X127250Y73897D01*
X126539Y74229D01*
X125781Y74432D01*
X125000Y74500D01*
Y88778D01*
X125393Y89053D01*
X125947Y89607D01*
X126397Y90250D01*
X126729Y90961D01*
X126932Y91719D01*
X127000Y92500D01*
X126932Y93281D01*
X126729Y94039D01*
X126397Y94750D01*
X125947Y95393D01*
X125393Y95947D01*
X125000Y96222D01*
Y118778D01*
X125393Y119053D01*
X125947Y119607D01*
X126397Y120250D01*
X126729Y120961D01*
X126932Y121719D01*
X127000Y122500D01*
X126932Y123281D01*
X126729Y124039D01*
X126397Y124750D01*
X125947Y125393D01*
X125393Y125947D01*
X125000Y126222D01*
Y140029D01*
X125225Y140350D01*
X125542Y141029D01*
X125736Y141753D01*
X125801Y142500D01*
X125736Y143247D01*
X125542Y143971D01*
X125225Y144650D01*
X125000Y144971D01*
Y150029D01*
X125225Y150350D01*
X125542Y151029D01*
X125736Y151753D01*
X125801Y152500D01*
X125736Y153247D01*
X125542Y153971D01*
X125225Y154650D01*
X125000Y154971D01*
Y175004D01*
G37*
G36*
X115000D02*X125000D01*
Y154971D01*
X124795Y155264D01*
X124265Y155794D01*
X123651Y156224D01*
X122972Y156541D01*
X122248Y156735D01*
X121501Y156800D01*
X120754Y156735D01*
X120030Y156541D01*
X119351Y156224D01*
X118737Y155794D01*
X118207Y155264D01*
X117777Y154650D01*
X117460Y153971D01*
X117266Y153247D01*
X117201Y152500D01*
X117266Y151753D01*
X117460Y151029D01*
X117777Y150350D01*
X118207Y149736D01*
X118737Y149206D01*
X119351Y148776D01*
X120030Y148459D01*
X120754Y148265D01*
X121501Y148200D01*
X122248Y148265D01*
X122972Y148459D01*
X123651Y148776D01*
X124265Y149206D01*
X124795Y149736D01*
X125000Y150029D01*
Y144971D01*
X124795Y145264D01*
X124265Y145794D01*
X123651Y146224D01*
X122972Y146541D01*
X122248Y146735D01*
X121501Y146800D01*
X120754Y146735D01*
X120030Y146541D01*
X119351Y146224D01*
X118737Y145794D01*
X118207Y145264D01*
X117777Y144650D01*
X117460Y143971D01*
X117266Y143247D01*
X117201Y142500D01*
X117266Y141753D01*
X117460Y141029D01*
X117777Y140350D01*
X118207Y139736D01*
X118737Y139206D01*
X119351Y138776D01*
X120030Y138459D01*
X120754Y138265D01*
X121501Y138200D01*
X122248Y138265D01*
X122972Y138459D01*
X123651Y138776D01*
X124265Y139206D01*
X124795Y139736D01*
X125000Y140029D01*
Y126222D01*
X124750Y126397D01*
X124039Y126729D01*
X123281Y126932D01*
X122500Y127000D01*
X121719Y126932D01*
X120961Y126729D01*
X120250Y126397D01*
X119607Y125947D01*
X119053Y125393D01*
X118603Y124750D01*
X118271Y124039D01*
X118068Y123281D01*
X118000Y122500D01*
X118068Y121719D01*
X118271Y120961D01*
X118603Y120250D01*
X119053Y119607D01*
X119607Y119053D01*
X120250Y118603D01*
X120961Y118271D01*
X121719Y118068D01*
X122500Y118000D01*
X123281Y118068D01*
X124039Y118271D01*
X124750Y118603D01*
X125000Y118778D01*
Y96222D01*
X124750Y96397D01*
X124039Y96729D01*
X123281Y96932D01*
X122500Y97000D01*
X121719Y96932D01*
X120961Y96729D01*
X120250Y96397D01*
X119607Y95947D01*
X119053Y95393D01*
X118603Y94750D01*
X118271Y94039D01*
X118068Y93281D01*
X118000Y92500D01*
X118068Y91719D01*
X118271Y90961D01*
X118603Y90250D01*
X119053Y89607D01*
X119607Y89053D01*
X120250Y88603D01*
X120961Y88271D01*
X121719Y88068D01*
X122500Y88000D01*
X123281Y88068D01*
X124039Y88271D01*
X124750Y88603D01*
X125000Y88778D01*
Y74500D01*
X124219Y74432D01*
X123461Y74229D01*
X122750Y73897D01*
X122107Y73447D01*
X121553Y72893D01*
X121103Y72250D01*
X120771Y71539D01*
X120568Y70781D01*
X120500Y70000D01*
X120568Y69219D01*
X120771Y68461D01*
X121103Y67750D01*
X121553Y67107D01*
X122107Y66553D01*
X122750Y66103D01*
X123461Y65771D01*
X124219Y65568D01*
X125000Y65500D01*
Y44500D01*
X124219Y44432D01*
X123461Y44229D01*
X122750Y43897D01*
X122107Y43447D01*
X121553Y42893D01*
X121103Y42250D01*
X120771Y41539D01*
X120568Y40781D01*
X120500Y40000D01*
X120568Y39219D01*
X120771Y38461D01*
X121103Y37750D01*
X121553Y37107D01*
X122107Y36553D01*
X122750Y36103D01*
X123461Y35771D01*
X124219Y35568D01*
X125000Y35500D01*
Y4D01*
X115000D01*
Y35500D01*
X115781Y35568D01*
X116539Y35771D01*
X117250Y36103D01*
X117893Y36553D01*
X118447Y37107D01*
X118897Y37750D01*
X119229Y38461D01*
X119432Y39219D01*
X119500Y40000D01*
X119432Y40781D01*
X119229Y41539D01*
X118897Y42250D01*
X118447Y42893D01*
X117893Y43447D01*
X117250Y43897D01*
X116539Y44229D01*
X115781Y44432D01*
X115000Y44500D01*
Y65500D01*
X115781Y65568D01*
X116539Y65771D01*
X117250Y66103D01*
X117893Y66553D01*
X118447Y67107D01*
X118897Y67750D01*
X119229Y68461D01*
X119432Y69219D01*
X119500Y70000D01*
X119432Y70781D01*
X119229Y71539D01*
X118897Y72250D01*
X118447Y72893D01*
X117893Y73447D01*
X117250Y73897D01*
X116539Y74229D01*
X115781Y74432D01*
X115000Y74500D01*
Y88778D01*
X115393Y89053D01*
X115947Y89607D01*
X116397Y90250D01*
X116729Y90961D01*
X116932Y91719D01*
X117000Y92500D01*
X116932Y93281D01*
X116729Y94039D01*
X116397Y94750D01*
X115947Y95393D01*
X115393Y95947D01*
X115000Y96222D01*
Y118778D01*
X115393Y119053D01*
X115947Y119607D01*
X116397Y120250D01*
X116729Y120961D01*
X116932Y121719D01*
X117000Y122500D01*
X116932Y123281D01*
X116729Y124039D01*
X116397Y124750D01*
X115947Y125393D01*
X115393Y125947D01*
X115000Y126222D01*
Y138269D01*
X115011Y138272D01*
X115201Y138361D01*
X115372Y138481D01*
X115520Y138629D01*
X115640Y138800D01*
X115729Y138990D01*
X115783Y139192D01*
X115801Y139400D01*
Y145600D01*
X115783Y145808D01*
X115729Y146010D01*
X115640Y146200D01*
X115520Y146371D01*
X115372Y146519D01*
X115201Y146639D01*
X115011Y146728D01*
X115000Y146731D01*
Y150029D01*
X115225Y150350D01*
X115542Y151029D01*
X115736Y151753D01*
X115801Y152500D01*
X115736Y153247D01*
X115542Y153971D01*
X115225Y154650D01*
X115000Y154971D01*
Y175004D01*
G37*
G36*
X105000D02*X115000D01*
Y154971D01*
X114795Y155264D01*
X114265Y155794D01*
X113651Y156224D01*
X112972Y156541D01*
X112248Y156735D01*
X111501Y156800D01*
X110754Y156735D01*
X110030Y156541D01*
X109351Y156224D01*
X108737Y155794D01*
X108207Y155264D01*
X107777Y154650D01*
X107460Y153971D01*
X107266Y153247D01*
X107201Y152500D01*
X107266Y151753D01*
X107460Y151029D01*
X107777Y150350D01*
X108207Y149736D01*
X108737Y149206D01*
X109351Y148776D01*
X110030Y148459D01*
X110754Y148265D01*
X111501Y148200D01*
X112248Y148265D01*
X112972Y148459D01*
X113651Y148776D01*
X114265Y149206D01*
X114795Y149736D01*
X115000Y150029D01*
Y146731D01*
X114809Y146782D01*
X114601Y146800D01*
X108401D01*
X108193Y146782D01*
X107991Y146728D01*
X107801Y146639D01*
X107630Y146519D01*
X107482Y146371D01*
X107362Y146200D01*
X107273Y146010D01*
X107219Y145808D01*
X107201Y145600D01*
Y139400D01*
X107219Y139192D01*
X107273Y138990D01*
X107362Y138800D01*
X107482Y138629D01*
X107630Y138481D01*
X107801Y138361D01*
X107991Y138272D01*
X108193Y138218D01*
X108401Y138200D01*
X114601D01*
X114809Y138218D01*
X115000Y138269D01*
Y126222D01*
X114750Y126397D01*
X114039Y126729D01*
X113281Y126932D01*
X112500Y127000D01*
X111719Y126932D01*
X110961Y126729D01*
X110250Y126397D01*
X109607Y125947D01*
X109053Y125393D01*
X108603Y124750D01*
X108271Y124039D01*
X108068Y123281D01*
X108000Y122500D01*
X108068Y121719D01*
X108271Y120961D01*
X108603Y120250D01*
X109053Y119607D01*
X109607Y119053D01*
X110250Y118603D01*
X110961Y118271D01*
X111719Y118068D01*
X112500Y118000D01*
X113281Y118068D01*
X114039Y118271D01*
X114750Y118603D01*
X115000Y118778D01*
Y96222D01*
X114750Y96397D01*
X114039Y96729D01*
X113281Y96932D01*
X112500Y97000D01*
X111719Y96932D01*
X110961Y96729D01*
X110250Y96397D01*
X109607Y95947D01*
X109053Y95393D01*
X108603Y94750D01*
X108271Y94039D01*
X108068Y93281D01*
X108000Y92500D01*
X108068Y91719D01*
X108271Y90961D01*
X108603Y90250D01*
X109053Y89607D01*
X109607Y89053D01*
X110250Y88603D01*
X110961Y88271D01*
X111719Y88068D01*
X112500Y88000D01*
X113281Y88068D01*
X114039Y88271D01*
X114750Y88603D01*
X115000Y88778D01*
Y74500D01*
X114219Y74432D01*
X113461Y74229D01*
X112750Y73897D01*
X112107Y73447D01*
X111553Y72893D01*
X111103Y72250D01*
X110771Y71539D01*
X110568Y70781D01*
X110500Y70000D01*
X110568Y69219D01*
X110771Y68461D01*
X111103Y67750D01*
X111553Y67107D01*
X112107Y66553D01*
X112750Y66103D01*
X113461Y65771D01*
X114219Y65568D01*
X115000Y65500D01*
Y44500D01*
X114219Y44432D01*
X113461Y44229D01*
X112750Y43897D01*
X112107Y43447D01*
X111553Y42893D01*
X111103Y42250D01*
X110771Y41539D01*
X110568Y40781D01*
X110500Y40000D01*
X110568Y39219D01*
X110771Y38461D01*
X111103Y37750D01*
X111553Y37107D01*
X112107Y36553D01*
X112750Y36103D01*
X113461Y35771D01*
X114219Y35568D01*
X115000Y35500D01*
Y4D01*
X105000D01*
Y35500D01*
X105781Y35568D01*
X106539Y35771D01*
X107250Y36103D01*
X107893Y36553D01*
X108447Y37107D01*
X108897Y37750D01*
X109229Y38461D01*
X109432Y39219D01*
X109500Y40000D01*
X109432Y40781D01*
X109229Y41539D01*
X108897Y42250D01*
X108447Y42893D01*
X107893Y43447D01*
X107250Y43897D01*
X106539Y44229D01*
X105781Y44432D01*
X105000Y44500D01*
Y65500D01*
X105781Y65568D01*
X106539Y65771D01*
X107250Y66103D01*
X107893Y66553D01*
X108447Y67107D01*
X108897Y67750D01*
X109229Y68461D01*
X109432Y69219D01*
X109500Y70000D01*
X109432Y70781D01*
X109229Y71539D01*
X108897Y72250D01*
X108447Y72893D01*
X107893Y73447D01*
X107250Y73897D01*
X106539Y74229D01*
X105781Y74432D01*
X105000Y74500D01*
Y76350D01*
X105634Y76405D01*
X106248Y76570D01*
X106825Y76839D01*
X107346Y77204D01*
X107796Y77654D01*
X108161Y78175D01*
X108430Y78752D01*
X108595Y79366D01*
X108650Y80000D01*
X108595Y80634D01*
X108430Y81248D01*
X108161Y81825D01*
X107796Y82346D01*
X107346Y82796D01*
X106825Y83161D01*
X106248Y83430D01*
X105634Y83595D01*
X105000Y83650D01*
Y88778D01*
X105393Y89053D01*
X105947Y89607D01*
X106397Y90250D01*
X106729Y90961D01*
X106932Y91719D01*
X107000Y92500D01*
X106932Y93281D01*
X106729Y94039D01*
X106397Y94750D01*
X105947Y95393D01*
X105393Y95947D01*
X105000Y96222D01*
Y118778D01*
X105393Y119053D01*
X105947Y119607D01*
X106397Y120250D01*
X106729Y120961D01*
X106932Y121719D01*
X107000Y122500D01*
X106932Y123281D01*
X106729Y124039D01*
X106397Y124750D01*
X105947Y125393D01*
X105393Y125947D01*
X105000Y126222D01*
Y175004D01*
G37*
G36*
X96113D02*X105000D01*
Y126222D01*
X104750Y126397D01*
X104039Y126729D01*
X103281Y126932D01*
X102500Y127000D01*
X101719Y126932D01*
X100961Y126729D01*
X100250Y126397D01*
X99607Y125947D01*
X99053Y125393D01*
X98603Y124750D01*
X98271Y124039D01*
X98068Y123281D01*
X98000Y122500D01*
X98068Y121719D01*
X98271Y120961D01*
X98603Y120250D01*
X99053Y119607D01*
X99607Y119053D01*
X100250Y118603D01*
X100961Y118271D01*
X101719Y118068D01*
X102500Y118000D01*
X103281Y118068D01*
X104039Y118271D01*
X104750Y118603D01*
X105000Y118778D01*
Y96222D01*
X104750Y96397D01*
X104039Y96729D01*
X103281Y96932D01*
X102500Y97000D01*
X101719Y96932D01*
X100961Y96729D01*
X100250Y96397D01*
X99607Y95947D01*
X99053Y95393D01*
X98603Y94750D01*
X98271Y94039D01*
X98068Y93281D01*
X98000Y92500D01*
X98068Y91719D01*
X98271Y90961D01*
X98603Y90250D01*
X99053Y89607D01*
X99607Y89053D01*
X100250Y88603D01*
X100961Y88271D01*
X101719Y88068D01*
X102500Y88000D01*
X103281Y88068D01*
X104039Y88271D01*
X104750Y88603D01*
X105000Y88778D01*
Y83650D01*
X104366Y83595D01*
X103752Y83430D01*
X103175Y83161D01*
X102654Y82796D01*
X102204Y82346D01*
X101839Y81825D01*
X101570Y81248D01*
X101405Y80634D01*
X101350Y80000D01*
X101405Y79366D01*
X101570Y78752D01*
X101839Y78175D01*
X102204Y77654D01*
X102654Y77204D01*
X103175Y76839D01*
X103752Y76570D01*
X104366Y76405D01*
X105000Y76350D01*
Y74500D01*
X104219Y74432D01*
X103461Y74229D01*
X102750Y73897D01*
X102107Y73447D01*
X101553Y72893D01*
X101103Y72250D01*
X100771Y71539D01*
X100568Y70781D01*
X100500Y70000D01*
X100568Y69219D01*
X100771Y68461D01*
X101103Y67750D01*
X101553Y67107D01*
X102107Y66553D01*
X102750Y66103D01*
X103461Y65771D01*
X104219Y65568D01*
X105000Y65500D01*
Y44500D01*
X104219Y44432D01*
X103461Y44229D01*
X102750Y43897D01*
X102107Y43447D01*
X101553Y42893D01*
X101103Y42250D01*
X100771Y41539D01*
X100568Y40781D01*
X100500Y40000D01*
X100568Y39219D01*
X100771Y38461D01*
X101103Y37750D01*
X101553Y37107D01*
X102107Y36553D01*
X102750Y36103D01*
X103461Y35771D01*
X104219Y35568D01*
X105000Y35500D01*
Y4D01*
X96113D01*
Y35500D01*
X98000D01*
X98260Y35523D01*
X98513Y35590D01*
X98750Y35701D01*
X98964Y35851D01*
X99149Y36036D01*
X99299Y36250D01*
X99410Y36487D01*
X99477Y36740D01*
X99500Y37000D01*
Y43000D01*
X99477Y43260D01*
X99410Y43513D01*
X99299Y43750D01*
X99149Y43964D01*
X98964Y44149D01*
X98750Y44299D01*
X98513Y44410D01*
X98260Y44477D01*
X98000Y44500D01*
X96113D01*
Y65657D01*
X96539Y65771D01*
X97250Y66103D01*
X97893Y66553D01*
X98447Y67107D01*
X98897Y67750D01*
X99229Y68461D01*
X99432Y69219D01*
X99500Y70000D01*
X99432Y70781D01*
X99229Y71539D01*
X98897Y72250D01*
X98447Y72893D01*
X97893Y73447D01*
X97250Y73897D01*
X96539Y74229D01*
X96113Y74343D01*
Y76534D01*
X96248Y76570D01*
X96825Y76839D01*
X97346Y77204D01*
X97796Y77654D01*
X98161Y78175D01*
X98430Y78752D01*
X98595Y79366D01*
X98650Y80000D01*
X98595Y80634D01*
X98430Y81248D01*
X98161Y81825D01*
X97796Y82346D01*
X97346Y82796D01*
X96825Y83161D01*
X96248Y83430D01*
X96113Y83466D01*
Y90360D01*
X96208Y90382D01*
X96329Y90433D01*
X96438Y90505D01*
X96534Y90594D01*
X96613Y90698D01*
X96672Y90815D01*
X96814Y91222D01*
X96917Y91642D01*
X96979Y92069D01*
X97000Y92500D01*
X96979Y92932D01*
X96917Y93359D01*
X96814Y93779D01*
X96672Y94186D01*
X96671D01*
X96612Y94302D01*
X96533Y94407D01*
X96437Y94496D01*
X96328Y94567D01*
X96207Y94618D01*
X96113Y94639D01*
Y119844D01*
X96397Y120250D01*
X96729Y120961D01*
X96932Y121719D01*
X97000Y122500D01*
X96932Y123281D01*
X96729Y124039D01*
X96397Y124750D01*
X96113Y125156D01*
Y134573D01*
X96150Y135000D01*
X96113Y135427D01*
Y149242D01*
X96144Y149358D01*
X96200Y150000D01*
X96144Y150642D01*
X96113Y150758D01*
Y175004D01*
G37*
G36*
Y135427D02*X96095Y135634D01*
X95930Y136248D01*
X95661Y136825D01*
X95296Y137346D01*
X95000Y137642D01*
Y147288D01*
X95334Y147622D01*
X95704Y148150D01*
X95977Y148735D01*
X96113Y149242D01*
Y135427D01*
G37*
G36*
Y125156D02*X95947Y125393D01*
X95393Y125947D01*
X95000Y126222D01*
Y132358D01*
X95296Y132654D01*
X95661Y133175D01*
X95930Y133752D01*
X96095Y134366D01*
X96113Y134573D01*
Y125156D01*
G37*
G36*
Y83466D02*X95634Y83595D01*
X95000Y83650D01*
Y118778D01*
X95393Y119053D01*
X95947Y119607D01*
X96113Y119844D01*
Y94639D01*
X96080Y94647D01*
X95950Y94654D01*
X95820Y94638D01*
X95695Y94600D01*
X95579Y94541D01*
X95474Y94462D01*
X95385Y94366D01*
X95314Y94257D01*
X95263Y94136D01*
X95234Y94009D01*
X95227Y93879D01*
X95243Y93749D01*
X95281Y93624D01*
X95376Y93353D01*
X95444Y93073D01*
X95486Y92788D01*
X95500Y92500D01*
X95486Y92213D01*
X95444Y91928D01*
X95376Y91648D01*
X95281Y91377D01*
X95280D01*
X95242Y91252D01*
X95226Y91122D01*
X95233Y90991D01*
X95262Y90864D01*
X95313Y90743D01*
X95385Y90634D01*
X95474Y90538D01*
X95578Y90459D01*
X95695Y90400D01*
X95820Y90362D01*
X95950Y90346D01*
X96081Y90353D01*
X96113Y90360D01*
Y83466D01*
G37*
G36*
Y74343D02*X95781Y74432D01*
X95000Y74500D01*
Y76350D01*
X95634Y76405D01*
X96113Y76534D01*
Y74343D01*
G37*
G36*
Y44500D02*X95000D01*
Y65500D01*
X95781Y65568D01*
X96113Y65657D01*
Y44500D01*
G37*
G36*
Y4D02*X95000D01*
Y35500D01*
X96113D01*
Y4D01*
G37*
G36*
X95000Y175004D02*X96113D01*
Y150758D01*
X95977Y151265D01*
X95704Y151850D01*
X95334Y152378D01*
X95000Y152712D01*
Y175004D01*
G37*
G36*
X92499Y35500D02*X95000D01*
Y4D01*
X92499D01*
Y35500D01*
G37*
G36*
Y66279D02*X92750Y66103D01*
X93461Y65771D01*
X94219Y65568D01*
X95000Y65500D01*
Y44500D01*
X92499D01*
Y66279D01*
G37*
G36*
Y77359D02*X92654Y77204D01*
X93175Y76839D01*
X93752Y76570D01*
X94366Y76405D01*
X95000Y76350D01*
Y74500D01*
X94219Y74432D01*
X93461Y74229D01*
X92750Y73897D01*
X92499Y73721D01*
Y77359D01*
G37*
G36*
Y118000D02*X92500D01*
X93281Y118068D01*
X94039Y118271D01*
X94750Y118603D01*
X95000Y118778D01*
Y83650D01*
X94366Y83595D01*
X93752Y83430D01*
X93175Y83161D01*
X92654Y82796D01*
X92499Y82641D01*
Y88000D01*
X92500D01*
X92931Y88021D01*
X93358Y88083D01*
X93778Y88186D01*
X94185Y88328D01*
Y88329D01*
X94301Y88388D01*
X94406Y88467D01*
X94495Y88563D01*
X94566Y88672D01*
X94617Y88793D01*
X94646Y88920D01*
X94653Y89050D01*
X94637Y89180D01*
X94599Y89305D01*
X94540Y89421D01*
X94461Y89526D01*
X94365Y89615D01*
X94256Y89686D01*
X94135Y89737D01*
X94008Y89766D01*
X93878Y89773D01*
X93748Y89757D01*
X93623Y89719D01*
X93352Y89624D01*
X93072Y89556D01*
X92787Y89514D01*
X92500Y89500D01*
X92499D01*
Y95500D01*
X92500D01*
X92787Y95487D01*
X93072Y95445D01*
X93352Y95377D01*
X93623Y95282D01*
Y95281D01*
X93748Y95243D01*
X93878Y95227D01*
X94009Y95234D01*
X94136Y95263D01*
X94257Y95314D01*
X94366Y95386D01*
X94462Y95475D01*
X94541Y95579D01*
X94600Y95696D01*
X94638Y95821D01*
X94654Y95951D01*
X94647Y96082D01*
X94618Y96209D01*
X94567Y96330D01*
X94495Y96439D01*
X94406Y96535D01*
X94302Y96614D01*
X94185Y96673D01*
X93778Y96815D01*
X93358Y96918D01*
X92931Y96980D01*
X92500Y97000D01*
X92499D01*
Y118000D01*
G37*
G36*
Y131350D02*X92500D01*
X93134Y131405D01*
X93748Y131570D01*
X94325Y131839D01*
X94846Y132204D01*
X95000Y132358D01*
Y126222D01*
X94750Y126397D01*
X94039Y126729D01*
X93281Y126932D01*
X92500Y127000D01*
X92499D01*
Y131350D01*
G37*
G36*
Y146300D02*X92500D01*
X93142Y146356D01*
X93765Y146523D01*
X94350Y146796D01*
X94878Y147166D01*
X95000Y147288D01*
Y137642D01*
X94846Y137796D01*
X94325Y138161D01*
X93748Y138430D01*
X93134Y138595D01*
X92500Y138650D01*
X92499D01*
Y146300D01*
G37*
G36*
Y175004D02*X95000D01*
Y152712D01*
X94878Y152834D01*
X94350Y153204D01*
X93765Y153477D01*
X93142Y153644D01*
X92500Y153700D01*
X92499D01*
Y175004D01*
G37*
G36*
X88887Y119844D02*X89053Y119607D01*
X89607Y119053D01*
X90250Y118603D01*
X90961Y118271D01*
X91719Y118068D01*
X92499Y118000D01*
Y97000D01*
X92068Y96980D01*
X91641Y96918D01*
X91221Y96815D01*
X90814Y96673D01*
Y96672D01*
X90698Y96613D01*
X90593Y96534D01*
X90504Y96438D01*
X90433Y96329D01*
X90382Y96208D01*
X90353Y96081D01*
X90346Y95951D01*
X90362Y95821D01*
X90400Y95696D01*
X90459Y95580D01*
X90538Y95475D01*
X90634Y95386D01*
X90743Y95315D01*
X90864Y95264D01*
X90991Y95235D01*
X91121Y95228D01*
X91251Y95244D01*
X91376Y95282D01*
X91647Y95377D01*
X91927Y95445D01*
X92212Y95487D01*
X92499Y95500D01*
Y89500D01*
X92212Y89514D01*
X91927Y89556D01*
X91647Y89624D01*
X91376Y89719D01*
Y89720D01*
X91251Y89758D01*
X91121Y89774D01*
X90990Y89767D01*
X90863Y89738D01*
X90742Y89687D01*
X90633Y89615D01*
X90537Y89526D01*
X90458Y89422D01*
X90399Y89305D01*
X90361Y89180D01*
X90345Y89050D01*
X90352Y88919D01*
X90381Y88792D01*
X90432Y88671D01*
X90504Y88562D01*
X90593Y88466D01*
X90697Y88387D01*
X90814Y88328D01*
X91221Y88186D01*
X91641Y88083D01*
X92068Y88021D01*
X92499Y88000D01*
Y82641D01*
X92204Y82346D01*
X91839Y81825D01*
X91570Y81248D01*
X91405Y80634D01*
X91350Y80000D01*
X91405Y79366D01*
X91570Y78752D01*
X91839Y78175D01*
X92204Y77654D01*
X92499Y77359D01*
Y73721D01*
X92107Y73447D01*
X91553Y72893D01*
X91103Y72250D01*
X90771Y71539D01*
X90568Y70781D01*
X90500Y70000D01*
X90568Y69219D01*
X90771Y68461D01*
X91103Y67750D01*
X91553Y67107D01*
X92107Y66553D01*
X92499Y66279D01*
Y44500D01*
X92000D01*
X91740Y44477D01*
X91487Y44410D01*
X91250Y44299D01*
X91036Y44149D01*
X90851Y43964D01*
X90701Y43750D01*
X90590Y43513D01*
X90523Y43260D01*
X90500Y43000D01*
Y37000D01*
X90523Y36740D01*
X90590Y36487D01*
X90701Y36250D01*
X90851Y36036D01*
X91036Y35851D01*
X91250Y35701D01*
X91487Y35590D01*
X91740Y35523D01*
X92000Y35500D01*
X92499D01*
Y4D01*
X88887D01*
Y90361D01*
X88919Y90354D01*
X89049Y90347D01*
X89179Y90363D01*
X89304Y90401D01*
X89420Y90460D01*
X89525Y90539D01*
X89614Y90635D01*
X89685Y90744D01*
X89736Y90865D01*
X89765Y90992D01*
X89772Y91122D01*
X89756Y91252D01*
X89718Y91377D01*
X89623Y91648D01*
X89555Y91928D01*
X89513Y92213D01*
X89500Y92500D01*
X89513Y92788D01*
X89555Y93073D01*
X89623Y93353D01*
X89718Y93624D01*
X89719D01*
X89757Y93749D01*
X89773Y93879D01*
X89766Y94010D01*
X89737Y94137D01*
X89686Y94258D01*
X89614Y94367D01*
X89525Y94463D01*
X89421Y94542D01*
X89304Y94601D01*
X89179Y94639D01*
X89049Y94655D01*
X88918Y94648D01*
X88887Y94641D01*
Y119844D01*
G37*
G36*
Y134573D02*X88905Y134366D01*
X89070Y133752D01*
X89339Y133175D01*
X89704Y132654D01*
X90154Y132204D01*
X90675Y131839D01*
X91252Y131570D01*
X91866Y131405D01*
X92499Y131350D01*
Y127000D01*
X91719Y126932D01*
X90961Y126729D01*
X90250Y126397D01*
X89607Y125947D01*
X89053Y125393D01*
X88887Y125156D01*
Y134573D01*
G37*
G36*
Y149242D02*X89023Y148735D01*
X89296Y148150D01*
X89666Y147622D01*
X90122Y147166D01*
X90650Y146796D01*
X91235Y146523D01*
X91858Y146356D01*
X92499Y146300D01*
Y138650D01*
X91866Y138595D01*
X91252Y138430D01*
X90675Y138161D01*
X90154Y137796D01*
X89704Y137346D01*
X89339Y136825D01*
X89070Y136248D01*
X88905Y135634D01*
X88887Y135427D01*
Y149242D01*
G37*
G36*
Y175004D02*X92499D01*
Y153700D01*
X91858Y153644D01*
X91235Y153477D01*
X90650Y153204D01*
X90122Y152834D01*
X89666Y152378D01*
X89296Y151850D01*
X89023Y151265D01*
X88887Y150758D01*
Y175004D01*
G37*
G36*
X87602D02*X88887D01*
Y150758D01*
X88856Y150642D01*
X88800Y150000D01*
X88856Y149358D01*
X88887Y149242D01*
Y135427D01*
X88850Y135000D01*
X88887Y134573D01*
Y125156D01*
X88603Y124750D01*
X88271Y124039D01*
X88068Y123281D01*
X88000Y122500D01*
X88068Y121719D01*
X88271Y120961D01*
X88603Y120250D01*
X88887Y119844D01*
Y94641D01*
X88791Y94619D01*
X88670Y94568D01*
X88561Y94496D01*
X88465Y94407D01*
X88386Y94303D01*
X88327Y94186D01*
X88185Y93779D01*
X88082Y93359D01*
X88020Y92932D01*
X88000Y92500D01*
X88020Y92069D01*
X88082Y91642D01*
X88185Y91222D01*
X88327Y90815D01*
X88328D01*
X88387Y90699D01*
X88466Y90594D01*
X88562Y90505D01*
X88671Y90434D01*
X88792Y90383D01*
X88887Y90361D01*
Y4D01*
X87602D01*
Y148249D01*
X87685Y148268D01*
X87781Y148309D01*
X87869Y148366D01*
X87946Y148437D01*
X88008Y148521D01*
X88056Y148614D01*
X88164Y148919D01*
X88245Y149231D01*
X88298Y149550D01*
X88323Y149871D01*
X88320Y150194D01*
X88289Y150515D01*
X88231Y150833D01*
X88144Y151144D01*
X88031Y151446D01*
Y151447D01*
X87982Y151539D01*
X87917Y151622D01*
X87840Y151692D01*
X87751Y151747D01*
X87654Y151786D01*
X87602Y151797D01*
Y175004D01*
G37*
G36*
X84514D02*X87602D01*
Y151797D01*
X87551Y151808D01*
X87447Y151811D01*
X87343Y151796D01*
X87244Y151764D01*
X87152Y151715D01*
X87069Y151650D01*
X86999Y151573D01*
X86944Y151484D01*
X86905Y151387D01*
X86883Y151284D01*
X86880Y151180D01*
X86895Y151076D01*
X86927Y150977D01*
X87003Y150773D01*
X87061Y150563D01*
X87101Y150348D01*
X87122Y150131D01*
X87124Y149913D01*
X87107Y149696D01*
X87071Y149481D01*
X87016Y149270D01*
X86943Y149064D01*
X86944D01*
X86913Y148964D01*
X86901Y148860D01*
X86906Y148756D01*
X86929Y148654D01*
X86970Y148558D01*
X87027Y148470D01*
X87098Y148393D01*
X87182Y148331D01*
X87275Y148283D01*
X87375Y148252D01*
X87479Y148240D01*
X87583Y148245D01*
X87602Y148249D01*
Y4D01*
X84514D01*
Y9812D01*
X84569Y9831D01*
X84660Y9882D01*
X84742Y9948D01*
X84810Y10026D01*
X84864Y10116D01*
X85019Y10474D01*
X85141Y10844D01*
X85229Y11224D01*
X85282Y11611D01*
X85300Y12000D01*
X85282Y12390D01*
X85229Y12777D01*
X85141Y13157D01*
X85019Y13527D01*
X84864Y13885D01*
X84810Y13975D01*
X84742Y14053D01*
X84660Y14119D01*
X84569Y14170D01*
X84514Y14189D01*
Y88493D01*
X84750Y88603D01*
X85393Y89053D01*
X85947Y89607D01*
X86397Y90250D01*
X86729Y90961D01*
X86932Y91719D01*
X87000Y92500D01*
X86932Y93281D01*
X86729Y94039D01*
X86397Y94750D01*
X85947Y95393D01*
X85393Y95947D01*
X84750Y96397D01*
X84514Y96507D01*
Y118493D01*
X84750Y118603D01*
X85393Y119053D01*
X85947Y119607D01*
X86397Y120250D01*
X86729Y120961D01*
X86932Y121719D01*
X87000Y122500D01*
X86932Y123281D01*
X86729Y124039D01*
X86397Y124750D01*
X85947Y125393D01*
X85393Y125947D01*
X84750Y126397D01*
X84514Y126507D01*
Y131971D01*
X84846Y132204D01*
X85296Y132654D01*
X85661Y133175D01*
X85930Y133752D01*
X86095Y134366D01*
X86150Y135000D01*
X86095Y135634D01*
X85930Y136248D01*
X85661Y136825D01*
X85296Y137346D01*
X84846Y137796D01*
X84514Y138029D01*
Y146303D01*
X84819Y146306D01*
X85140Y146337D01*
X85458Y146395D01*
X85769Y146482D01*
X86071Y146595D01*
X86072D01*
X86164Y146644D01*
X86247Y146709D01*
X86317Y146786D01*
X86372Y146875D01*
X86411Y146972D01*
X86433Y147075D01*
X86436Y147179D01*
X86421Y147283D01*
X86389Y147382D01*
X86340Y147474D01*
X86275Y147557D01*
X86198Y147627D01*
X86109Y147682D01*
X86012Y147721D01*
X85909Y147743D01*
X85805Y147746D01*
X85701Y147731D01*
X85602Y147699D01*
X85398Y147623D01*
X85188Y147565D01*
X84973Y147525D01*
X84756Y147504D01*
X84538Y147502D01*
X84514Y147504D01*
Y152497D01*
X84713Y152499D01*
X84930Y152482D01*
X85145Y152446D01*
X85356Y152391D01*
X85562Y152318D01*
Y152319D01*
X85662Y152288D01*
X85766Y152276D01*
X85870Y152281D01*
X85972Y152304D01*
X86068Y152345D01*
X86156Y152402D01*
X86233Y152473D01*
X86295Y152557D01*
X86343Y152650D01*
X86374Y152750D01*
X86386Y152854D01*
X86381Y152958D01*
X86358Y153060D01*
X86317Y153156D01*
X86260Y153244D01*
X86189Y153321D01*
X86105Y153383D01*
X86012Y153431D01*
X85707Y153539D01*
X85395Y153620D01*
X85076Y153673D01*
X84755Y153698D01*
X84514Y153696D01*
Y175004D01*
G37*
G36*
Y126507D02*X84039Y126729D01*
X83281Y126932D01*
X82500Y127000D01*
X81719Y126932D01*
X81000Y126739D01*
Y131687D01*
X81252Y131570D01*
X81866Y131405D01*
X82500Y131350D01*
X83134Y131405D01*
X83748Y131570D01*
X84325Y131839D01*
X84514Y131971D01*
Y126507D01*
G37*
G36*
Y96507D02*X84039Y96729D01*
X83281Y96932D01*
X82500Y97000D01*
X81719Y96932D01*
X81000Y96739D01*
Y118261D01*
X81719Y118068D01*
X82500Y118000D01*
X83281Y118068D01*
X84039Y118271D01*
X84514Y118493D01*
Y96507D01*
G37*
G36*
Y4D02*X81000D01*
Y7700D01*
X81389Y7718D01*
X81776Y7771D01*
X82156Y7859D01*
X82526Y7981D01*
X82884Y8136D01*
X82974Y8190D01*
X83052Y8258D01*
X83118Y8340D01*
X83169Y8431D01*
X83203Y8530D01*
X83219Y8633D01*
X83217Y8738D01*
X83197Y8840D01*
X83160Y8938D01*
X83106Y9028D01*
X83038Y9106D01*
X82956Y9172D01*
X82865Y9223D01*
X82766Y9257D01*
X82663Y9273D01*
X82558Y9271D01*
X82456Y9251D01*
X82358Y9214D01*
X82100Y9103D01*
X81833Y9015D01*
X81559Y8951D01*
X81280Y8913D01*
X81000Y8900D01*
Y15100D01*
X81280Y15088D01*
X81559Y15050D01*
X81833Y14986D01*
X82100Y14898D01*
X82358Y14787D01*
X82456Y14750D01*
X82558Y14730D01*
X82663Y14728D01*
X82766Y14744D01*
X82865Y14778D01*
X82956Y14829D01*
X83038Y14895D01*
X83106Y14973D01*
X83160Y15063D01*
X83197Y15161D01*
X83217Y15263D01*
X83219Y15368D01*
X83203Y15471D01*
X83169Y15570D01*
X83118Y15661D01*
X83052Y15743D01*
X82974Y15811D01*
X82884Y15865D01*
X82526Y16020D01*
X82156Y16142D01*
X81776Y16230D01*
X81389Y16283D01*
X81000Y16300D01*
Y63447D01*
X81144Y63984D01*
X81200Y64626D01*
X81144Y65268D01*
X81000Y65805D01*
Y71312D01*
X81038Y71419D01*
X81119Y71731D01*
X81172Y72050D01*
X81197Y72371D01*
X81194Y72694D01*
X81163Y73015D01*
X81105Y73333D01*
X81018Y73644D01*
X81000Y73692D01*
Y88261D01*
X81719Y88068D01*
X82500Y88000D01*
X83281Y88068D01*
X84039Y88271D01*
X84514Y88493D01*
Y14189D01*
X84470Y14204D01*
X84367Y14220D01*
X84262Y14218D01*
X84160Y14198D01*
X84062Y14161D01*
X83972Y14107D01*
X83894Y14039D01*
X83828Y13957D01*
X83777Y13866D01*
X83743Y13767D01*
X83727Y13664D01*
X83729Y13559D01*
X83749Y13457D01*
X83786Y13359D01*
X83897Y13101D01*
X83985Y12834D01*
X84049Y12560D01*
X84087Y12281D01*
X84100Y12000D01*
X84087Y11720D01*
X84049Y11441D01*
X83985Y11167D01*
X83897Y10900D01*
X83786Y10642D01*
X83749Y10544D01*
X83729Y10442D01*
X83727Y10337D01*
X83743Y10234D01*
X83777Y10135D01*
X83828Y10044D01*
X83894Y9962D01*
X83972Y9894D01*
X84062Y9840D01*
X84160Y9803D01*
X84262Y9783D01*
X84367Y9781D01*
X84470Y9797D01*
X84514Y9812D01*
Y4D01*
G37*
G36*
X81000Y175004D02*X84514D01*
Y153696D01*
X84432Y153695D01*
X84111Y153664D01*
X83793Y153606D01*
X83482Y153519D01*
X83180Y153406D01*
X83179D01*
X83087Y153357D01*
X83004Y153292D01*
X82934Y153215D01*
X82879Y153126D01*
X82840Y153029D01*
X82818Y152926D01*
X82815Y152822D01*
X82830Y152718D01*
X82862Y152619D01*
X82911Y152527D01*
X82976Y152444D01*
X83053Y152374D01*
X83142Y152319D01*
X83239Y152280D01*
X83342Y152258D01*
X83446Y152255D01*
X83550Y152270D01*
X83649Y152302D01*
X83853Y152378D01*
X84063Y152436D01*
X84278Y152476D01*
X84495Y152497D01*
X84514D01*
Y147504D01*
X84321Y147519D01*
X84106Y147555D01*
X83895Y147610D01*
X83689Y147683D01*
Y147682D01*
X83589Y147713D01*
X83485Y147725D01*
X83381Y147720D01*
X83279Y147697D01*
X83183Y147656D01*
X83095Y147599D01*
X83018Y147528D01*
X82956Y147444D01*
X82908Y147351D01*
X82877Y147251D01*
X82865Y147147D01*
X82870Y147043D01*
X82893Y146941D01*
X82934Y146845D01*
X82991Y146757D01*
X83062Y146680D01*
X83146Y146618D01*
X83239Y146570D01*
X83544Y146462D01*
X83856Y146381D01*
X84175Y146328D01*
X84496Y146303D01*
X84514D01*
Y138029D01*
X84325Y138161D01*
X83748Y138430D01*
X83134Y138595D01*
X82500Y138650D01*
X81866Y138595D01*
X81252Y138430D01*
X81000Y138313D01*
Y149278D01*
X81020Y149168D01*
X81107Y148857D01*
X81220Y148555D01*
Y148554D01*
X81269Y148462D01*
X81334Y148379D01*
X81411Y148309D01*
X81500Y148254D01*
X81597Y148215D01*
X81700Y148193D01*
X81804Y148190D01*
X81908Y148205D01*
X82007Y148237D01*
X82099Y148286D01*
X82182Y148351D01*
X82252Y148428D01*
X82307Y148517D01*
X82346Y148614D01*
X82368Y148717D01*
X82371Y148821D01*
X82356Y148925D01*
X82324Y149024D01*
X82248Y149228D01*
X82190Y149438D01*
X82150Y149653D01*
X82129Y149870D01*
X82127Y150088D01*
X82144Y150305D01*
X82180Y150520D01*
X82235Y150731D01*
X82308Y150937D01*
X82307D01*
X82338Y151037D01*
X82350Y151141D01*
X82345Y151245D01*
X82322Y151347D01*
X82281Y151443D01*
X82224Y151531D01*
X82153Y151608D01*
X82069Y151670D01*
X81976Y151718D01*
X81876Y151749D01*
X81772Y151761D01*
X81668Y151756D01*
X81566Y151733D01*
X81470Y151692D01*
X81382Y151635D01*
X81305Y151564D01*
X81243Y151480D01*
X81195Y151387D01*
X81087Y151082D01*
X81006Y150770D01*
X81000Y150734D01*
Y175004D01*
G37*
G36*
Y4D02*X78514D01*
Y22812D01*
X78569Y22831D01*
X78660Y22882D01*
X78742Y22948D01*
X78810Y23026D01*
X78864Y23116D01*
X79019Y23474D01*
X79141Y23844D01*
X79229Y24224D01*
X79282Y24611D01*
X79300Y25000D01*
X79282Y25390D01*
X79229Y25777D01*
X79141Y26157D01*
X79019Y26527D01*
X78864Y26885D01*
X78810Y26975D01*
X78742Y27053D01*
X78660Y27119D01*
X78569Y27170D01*
X78514Y27189D01*
Y61082D01*
X78765Y61149D01*
X79350Y61422D01*
X79878Y61792D01*
X80334Y62248D01*
X80704Y62776D01*
X80977Y63361D01*
X81000Y63447D01*
Y16300D01*
X80610Y16283D01*
X80223Y16230D01*
X79843Y16142D01*
X79473Y16020D01*
X79115Y15865D01*
X79025Y15811D01*
X78947Y15743D01*
X78881Y15661D01*
X78830Y15570D01*
X78796Y15471D01*
X78780Y15368D01*
X78782Y15263D01*
X78802Y15161D01*
X78839Y15063D01*
X78893Y14973D01*
X78961Y14895D01*
X79043Y14829D01*
X79134Y14778D01*
X79233Y14744D01*
X79336Y14728D01*
X79441Y14730D01*
X79543Y14750D01*
X79641Y14787D01*
X79899Y14898D01*
X80166Y14986D01*
X80440Y15050D01*
X80719Y15088D01*
X81000Y15100D01*
Y8900D01*
X80719Y8913D01*
X80440Y8951D01*
X80166Y9015D01*
X79899Y9103D01*
X79641Y9214D01*
X79543Y9251D01*
X79441Y9271D01*
X79336Y9273D01*
X79233Y9257D01*
X79134Y9223D01*
X79043Y9172D01*
X78961Y9106D01*
X78893Y9028D01*
X78839Y8938D01*
X78802Y8840D01*
X78782Y8738D01*
X78780Y8633D01*
X78796Y8530D01*
X78830Y8431D01*
X78881Y8340D01*
X78947Y8258D01*
X79025Y8190D01*
X79115Y8136D01*
X79473Y7981D01*
X79843Y7859D01*
X80223Y7771D01*
X80610Y7718D01*
X81000Y7700D01*
Y4D01*
G37*
G36*
X78514D02*X77486D01*
Y9812D01*
X77529Y9797D01*
X77632Y9781D01*
X77737Y9783D01*
X77839Y9803D01*
X77937Y9840D01*
X78027Y9894D01*
X78105Y9962D01*
X78171Y10044D01*
X78222Y10135D01*
X78256Y10234D01*
X78272Y10337D01*
X78270Y10442D01*
X78250Y10544D01*
X78213Y10642D01*
X78102Y10900D01*
X78014Y11167D01*
X77950Y11441D01*
X77912Y11720D01*
X77900Y12000D01*
X77912Y12281D01*
X77950Y12560D01*
X78014Y12834D01*
X78102Y13101D01*
X78213Y13359D01*
X78250Y13457D01*
X78270Y13559D01*
X78272Y13664D01*
X78256Y13767D01*
X78222Y13866D01*
X78171Y13957D01*
X78105Y14039D01*
X78027Y14107D01*
X77937Y14161D01*
X77839Y14198D01*
X77737Y14218D01*
X77632Y14220D01*
X77529Y14204D01*
X77486Y14189D01*
Y60927D01*
X77500Y60926D01*
X78142Y60982D01*
X78514Y61082D01*
Y27189D01*
X78470Y27204D01*
X78367Y27220D01*
X78262Y27218D01*
X78160Y27198D01*
X78062Y27161D01*
X77972Y27107D01*
X77894Y27039D01*
X77828Y26957D01*
X77777Y26866D01*
X77743Y26767D01*
X77727Y26664D01*
X77729Y26559D01*
X77749Y26457D01*
X77786Y26359D01*
X77897Y26101D01*
X77985Y25834D01*
X78049Y25560D01*
X78087Y25281D01*
X78100Y25000D01*
X78087Y24720D01*
X78049Y24441D01*
X77985Y24167D01*
X77897Y23900D01*
X77786Y23642D01*
X77749Y23544D01*
X77729Y23442D01*
X77727Y23337D01*
X77743Y23234D01*
X77777Y23135D01*
X77828Y23044D01*
X77894Y22962D01*
X77972Y22894D01*
X78062Y22840D01*
X78160Y22803D01*
X78262Y22783D01*
X78367Y22781D01*
X78470Y22797D01*
X78514Y22812D01*
Y4D01*
G37*
G36*
X77486Y175004D02*X81000D01*
Y150734D01*
X80953Y150451D01*
X80928Y150130D01*
X80931Y149807D01*
X80962Y149486D01*
X81000Y149278D01*
Y138313D01*
X80675Y138161D01*
X80154Y137796D01*
X79704Y137346D01*
X79339Y136825D01*
X79070Y136248D01*
X78905Y135634D01*
X78850Y135000D01*
X78905Y134366D01*
X79070Y133752D01*
X79339Y133175D01*
X79704Y132654D01*
X80154Y132204D01*
X80675Y131839D01*
X81000Y131687D01*
Y126739D01*
X80961Y126729D01*
X80250Y126397D01*
X79607Y125947D01*
X79053Y125393D01*
X78603Y124750D01*
X78271Y124039D01*
X78068Y123281D01*
X78000Y122500D01*
X78068Y121719D01*
X78271Y120961D01*
X78603Y120250D01*
X79053Y119607D01*
X79607Y119053D01*
X80250Y118603D01*
X80961Y118271D01*
X81000Y118261D01*
Y96739D01*
X80961Y96729D01*
X80250Y96397D01*
X79607Y95947D01*
X79053Y95393D01*
X78603Y94750D01*
X78271Y94039D01*
X78068Y93281D01*
X78000Y92500D01*
X78068Y91719D01*
X78271Y90961D01*
X78603Y90250D01*
X79053Y89607D01*
X79607Y89053D01*
X80250Y88603D01*
X80961Y88271D01*
X81000Y88261D01*
Y73692D01*
X80905Y73946D01*
Y73947D01*
X80856Y74039D01*
X80791Y74122D01*
X80714Y74192D01*
X80625Y74247D01*
X80528Y74286D01*
X80425Y74308D01*
X80321Y74311D01*
X80217Y74296D01*
X80118Y74264D01*
X80026Y74215D01*
X79943Y74150D01*
X79873Y74073D01*
X79818Y73984D01*
X79779Y73887D01*
X79757Y73784D01*
X79754Y73680D01*
X79769Y73576D01*
X79801Y73477D01*
X79877Y73273D01*
X79935Y73063D01*
X79975Y72848D01*
X79996Y72631D01*
X79998Y72413D01*
X79981Y72196D01*
X79945Y71981D01*
X79890Y71770D01*
X79817Y71564D01*
X79818D01*
X79787Y71464D01*
X79775Y71360D01*
X79780Y71256D01*
X79803Y71154D01*
X79844Y71058D01*
X79901Y70970D01*
X79972Y70893D01*
X80056Y70831D01*
X80149Y70783D01*
X80249Y70752D01*
X80353Y70740D01*
X80457Y70745D01*
X80559Y70768D01*
X80655Y70809D01*
X80743Y70866D01*
X80820Y70937D01*
X80882Y71021D01*
X80930Y71114D01*
X81000Y71312D01*
Y65805D01*
X80977Y65891D01*
X80704Y66476D01*
X80334Y67004D01*
X79878Y67460D01*
X79350Y67830D01*
X78765Y68103D01*
X78142Y68270D01*
X77500Y68326D01*
X77486Y68325D01*
Y68804D01*
X77693Y68806D01*
X78014Y68837D01*
X78332Y68895D01*
X78643Y68982D01*
X78945Y69095D01*
X78946D01*
X79038Y69144D01*
X79121Y69209D01*
X79191Y69286D01*
X79246Y69375D01*
X79285Y69472D01*
X79307Y69575D01*
X79310Y69679D01*
X79295Y69783D01*
X79263Y69882D01*
X79214Y69974D01*
X79149Y70057D01*
X79072Y70127D01*
X78983Y70182D01*
X78886Y70221D01*
X78783Y70243D01*
X78679Y70246D01*
X78575Y70231D01*
X78476Y70199D01*
X78272Y70123D01*
X78062Y70065D01*
X77847Y70025D01*
X77630Y70004D01*
X77486Y70003D01*
Y74998D01*
X77587Y74999D01*
X77804Y74982D01*
X78019Y74946D01*
X78230Y74891D01*
X78436Y74818D01*
Y74819D01*
X78536Y74788D01*
X78640Y74776D01*
X78744Y74781D01*
X78846Y74804D01*
X78942Y74845D01*
X79030Y74902D01*
X79107Y74973D01*
X79169Y75057D01*
X79217Y75150D01*
X79248Y75250D01*
X79260Y75354D01*
X79255Y75458D01*
X79232Y75560D01*
X79191Y75656D01*
X79134Y75744D01*
X79063Y75821D01*
X78979Y75883D01*
X78886Y75931D01*
X78581Y76039D01*
X78269Y76120D01*
X77950Y76173D01*
X77629Y76198D01*
X77486Y76197D01*
Y175004D01*
G37*
G36*
X74524Y62451D02*X74666Y62248D01*
X75122Y61792D01*
X75650Y61422D01*
X76235Y61149D01*
X76858Y60982D01*
X77486Y60927D01*
Y14189D01*
X77430Y14170D01*
X77339Y14119D01*
X77257Y14053D01*
X77189Y13975D01*
X77135Y13885D01*
X76980Y13527D01*
X76858Y13157D01*
X76770Y12777D01*
X76717Y12390D01*
X76700Y12000D01*
X76717Y11611D01*
X76770Y11224D01*
X76858Y10844D01*
X76980Y10474D01*
X77135Y10116D01*
X77189Y10026D01*
X77257Y9948D01*
X77339Y9882D01*
X77430Y9831D01*
X77486Y9812D01*
Y4D01*
X74524D01*
Y9564D01*
X74724Y9850D01*
X75041Y10529D01*
X75235Y11253D01*
X75300Y12000D01*
X75235Y12747D01*
X75041Y13471D01*
X74724Y14150D01*
X74524Y14436D01*
Y20730D01*
X74610Y20718D01*
X75000Y20700D01*
X75389Y20718D01*
X75776Y20771D01*
X76156Y20859D01*
X76526Y20981D01*
X76884Y21136D01*
X76974Y21190D01*
X77052Y21258D01*
X77118Y21340D01*
X77169Y21431D01*
X77203Y21530D01*
X77219Y21633D01*
X77217Y21738D01*
X77197Y21840D01*
X77160Y21938D01*
X77106Y22028D01*
X77038Y22106D01*
X76956Y22172D01*
X76865Y22223D01*
X76766Y22257D01*
X76663Y22273D01*
X76558Y22271D01*
X76456Y22251D01*
X76358Y22214D01*
X76100Y22103D01*
X75833Y22015D01*
X75559Y21951D01*
X75280Y21913D01*
X75000Y21900D01*
X74719Y21913D01*
X74524Y21940D01*
Y28061D01*
X74719Y28088D01*
X75000Y28100D01*
X75280Y28088D01*
X75559Y28050D01*
X75833Y27986D01*
X76100Y27898D01*
X76358Y27787D01*
X76456Y27750D01*
X76558Y27730D01*
X76663Y27728D01*
X76766Y27744D01*
X76865Y27778D01*
X76956Y27829D01*
X77038Y27895D01*
X77106Y27973D01*
X77160Y28063D01*
X77197Y28161D01*
X77217Y28263D01*
X77219Y28368D01*
X77203Y28471D01*
X77169Y28570D01*
X77118Y28661D01*
X77052Y28743D01*
X76974Y28811D01*
X76884Y28865D01*
X76526Y29020D01*
X76156Y29142D01*
X75776Y29230D01*
X75389Y29283D01*
X75000Y29300D01*
X74610Y29283D01*
X74524Y29271D01*
Y62451D01*
G37*
G36*
Y175004D02*X77486D01*
Y76197D01*
X77306Y76195D01*
X76985Y76164D01*
X76667Y76106D01*
X76356Y76019D01*
X76054Y75906D01*
X76053D01*
X75961Y75857D01*
X75878Y75792D01*
X75808Y75715D01*
X75753Y75626D01*
X75714Y75529D01*
X75692Y75426D01*
X75689Y75322D01*
X75704Y75218D01*
X75736Y75119D01*
X75785Y75027D01*
X75850Y74944D01*
X75927Y74874D01*
X76016Y74819D01*
X76113Y74780D01*
X76216Y74758D01*
X76320Y74755D01*
X76424Y74770D01*
X76523Y74802D01*
X76727Y74878D01*
X76937Y74936D01*
X77152Y74976D01*
X77369Y74997D01*
X77486Y74998D01*
Y70003D01*
X77412Y70002D01*
X77195Y70019D01*
X76980Y70055D01*
X76769Y70110D01*
X76563Y70183D01*
Y70182D01*
X76463Y70213D01*
X76359Y70225D01*
X76255Y70220D01*
X76153Y70197D01*
X76057Y70156D01*
X75969Y70099D01*
X75892Y70028D01*
X75830Y69944D01*
X75782Y69851D01*
X75751Y69751D01*
X75739Y69647D01*
X75744Y69543D01*
X75767Y69441D01*
X75808Y69345D01*
X75865Y69257D01*
X75936Y69180D01*
X76020Y69118D01*
X76113Y69070D01*
X76418Y68962D01*
X76730Y68881D01*
X77049Y68828D01*
X77370Y68803D01*
X77486Y68804D01*
Y68325D01*
X76858Y68270D01*
X76235Y68103D01*
X75650Y67830D01*
X75122Y67460D01*
X74666Y67004D01*
X74524Y66801D01*
Y70704D01*
X74574Y70693D01*
X74678Y70690D01*
X74782Y70705D01*
X74881Y70737D01*
X74973Y70786D01*
X75056Y70851D01*
X75126Y70928D01*
X75181Y71017D01*
X75220Y71114D01*
X75242Y71217D01*
X75245Y71321D01*
X75230Y71425D01*
X75198Y71524D01*
X75122Y71728D01*
X75064Y71938D01*
X75024Y72153D01*
X75003Y72370D01*
X75001Y72588D01*
X75018Y72805D01*
X75054Y73020D01*
X75109Y73231D01*
X75182Y73437D01*
X75181D01*
X75212Y73537D01*
X75224Y73641D01*
X75219Y73745D01*
X75196Y73847D01*
X75155Y73943D01*
X75098Y74031D01*
X75027Y74108D01*
X74943Y74170D01*
X74850Y74218D01*
X74750Y74249D01*
X74646Y74261D01*
X74542Y74256D01*
X74524Y74252D01*
Y88497D01*
X74750Y88603D01*
X75393Y89053D01*
X75947Y89607D01*
X76397Y90250D01*
X76729Y90961D01*
X76932Y91719D01*
X77000Y92500D01*
X76932Y93281D01*
X76729Y94039D01*
X76397Y94750D01*
X75947Y95393D01*
X75393Y95947D01*
X74750Y96397D01*
X74524Y96503D01*
Y118497D01*
X74750Y118603D01*
X75393Y119053D01*
X75947Y119607D01*
X76397Y120250D01*
X76729Y120961D01*
X76932Y121719D01*
X77000Y122500D01*
X76932Y123281D01*
X76729Y124039D01*
X76397Y124750D01*
X75947Y125393D01*
X75393Y125947D01*
X74750Y126397D01*
X74524Y126503D01*
Y175004D01*
G37*
G36*
Y96503D02*X74039Y96729D01*
X73281Y96932D01*
X72500Y97000D01*
X71719Y96932D01*
X71000Y96739D01*
Y118261D01*
X71719Y118068D01*
X72500Y118000D01*
X73281Y118068D01*
X74039Y118271D01*
X74524Y118497D01*
Y96503D01*
G37*
G36*
Y4D02*X71000D01*
Y7700D01*
X71747Y7765D01*
X72471Y7959D01*
X73150Y8276D01*
X73764Y8706D01*
X74294Y9236D01*
X74524Y9564D01*
Y4D01*
G37*
G36*
X73514Y20967D02*X73843Y20859D01*
X74223Y20771D01*
X74524Y20730D01*
Y14436D01*
X74294Y14764D01*
X73764Y15294D01*
X73514Y15469D01*
Y20967D01*
G37*
G36*
Y27744D02*X73543Y27750D01*
X73641Y27787D01*
X73899Y27898D01*
X74166Y27986D01*
X74440Y28050D01*
X74524Y28061D01*
Y21940D01*
X74440Y21951D01*
X74166Y22015D01*
X73899Y22103D01*
X73641Y22214D01*
X73543Y22251D01*
X73514Y22257D01*
Y27744D01*
G37*
G36*
X74524Y66801D02*X74296Y66476D01*
X74023Y65891D01*
X73856Y65268D01*
X73800Y64626D01*
X73856Y63984D01*
X74023Y63361D01*
X74296Y62776D01*
X74524Y62451D01*
Y29271D01*
X74223Y29230D01*
X73843Y29142D01*
X73514Y29034D01*
Y35812D01*
X73569Y35831D01*
X73660Y35882D01*
X73742Y35948D01*
X73810Y36026D01*
X73864Y36116D01*
X74019Y36474D01*
X74141Y36844D01*
X74229Y37224D01*
X74282Y37611D01*
X74300Y38000D01*
X74282Y38390D01*
X74229Y38777D01*
X74141Y39157D01*
X74019Y39527D01*
X73864Y39885D01*
X73810Y39975D01*
X73742Y40053D01*
X73660Y40119D01*
X73569Y40170D01*
X73514Y40189D01*
Y88130D01*
X74039Y88271D01*
X74524Y88497D01*
Y74252D01*
X74440Y74233D01*
X74344Y74192D01*
X74256Y74135D01*
X74179Y74064D01*
X74117Y73980D01*
X74069Y73887D01*
X73961Y73582D01*
X73880Y73270D01*
X73827Y72951D01*
X73802Y72630D01*
X73805Y72307D01*
X73836Y71986D01*
X73894Y71668D01*
X73981Y71357D01*
X74094Y71055D01*
Y71054D01*
X74143Y70962D01*
X74208Y70879D01*
X74285Y70809D01*
X74374Y70754D01*
X74471Y70715D01*
X74524Y70704D01*
Y66801D01*
G37*
G36*
X73514Y29034D02*X73473Y29020D01*
X73115Y28865D01*
X73025Y28811D01*
X72947Y28743D01*
X72881Y28661D01*
X72830Y28570D01*
X72796Y28471D01*
X72780Y28368D01*
X72782Y28263D01*
X72802Y28161D01*
X72839Y28063D01*
X72893Y27973D01*
X72961Y27895D01*
X73043Y27829D01*
X73134Y27778D01*
X73233Y27744D01*
X73336Y27728D01*
X73441Y27730D01*
X73514Y27744D01*
Y22257D01*
X73441Y22271D01*
X73336Y22273D01*
X73233Y22257D01*
X73134Y22223D01*
X73043Y22172D01*
X72961Y22106D01*
X72893Y22028D01*
X72839Y21938D01*
X72802Y21840D01*
X72782Y21738D01*
X72780Y21633D01*
X72796Y21530D01*
X72830Y21431D01*
X72881Y21340D01*
X72947Y21258D01*
X73025Y21190D01*
X73115Y21136D01*
X73473Y20981D01*
X73514Y20967D01*
Y15469D01*
X73150Y15724D01*
X72471Y16041D01*
X71747Y16235D01*
X71000Y16300D01*
Y23428D01*
X71135Y23116D01*
X71189Y23026D01*
X71257Y22948D01*
X71339Y22882D01*
X71430Y22831D01*
X71529Y22797D01*
X71632Y22781D01*
X71737Y22783D01*
X71839Y22803D01*
X71937Y22840D01*
X72027Y22894D01*
X72105Y22962D01*
X72171Y23044D01*
X72222Y23135D01*
X72256Y23234D01*
X72272Y23337D01*
X72270Y23442D01*
X72250Y23544D01*
X72213Y23642D01*
X72102Y23900D01*
X72014Y24167D01*
X71950Y24441D01*
X71912Y24720D01*
X71900Y25000D01*
X71912Y25281D01*
X71950Y25560D01*
X72014Y25834D01*
X72102Y26101D01*
X72213Y26359D01*
X72250Y26457D01*
X72270Y26559D01*
X72272Y26664D01*
X72256Y26767D01*
X72222Y26866D01*
X72171Y26957D01*
X72105Y27039D01*
X72027Y27107D01*
X71937Y27161D01*
X71839Y27198D01*
X71737Y27218D01*
X71632Y27220D01*
X71529Y27204D01*
X71430Y27170D01*
X71339Y27119D01*
X71257Y27053D01*
X71189Y26975D01*
X71135Y26885D01*
X71000Y26573D01*
Y33823D01*
X71156Y33859D01*
X71526Y33981D01*
X71884Y34136D01*
X71974Y34190D01*
X72052Y34258D01*
X72118Y34340D01*
X72169Y34431D01*
X72203Y34530D01*
X72219Y34633D01*
X72217Y34738D01*
X72197Y34840D01*
X72160Y34938D01*
X72106Y35028D01*
X72038Y35106D01*
X71956Y35172D01*
X71865Y35223D01*
X71766Y35257D01*
X71663Y35273D01*
X71558Y35271D01*
X71456Y35251D01*
X71358Y35214D01*
X71100Y35103D01*
X71000Y35070D01*
Y40931D01*
X71100Y40898D01*
X71358Y40787D01*
X71456Y40750D01*
X71558Y40730D01*
X71663Y40728D01*
X71766Y40744D01*
X71865Y40778D01*
X71956Y40829D01*
X72038Y40895D01*
X72106Y40973D01*
X72160Y41063D01*
X72197Y41161D01*
X72217Y41263D01*
X72219Y41368D01*
X72203Y41471D01*
X72169Y41570D01*
X72118Y41661D01*
X72052Y41743D01*
X71974Y41811D01*
X71884Y41865D01*
X71526Y42020D01*
X71156Y42142D01*
X71000Y42178D01*
Y88261D01*
X71719Y88068D01*
X72500Y88000D01*
X73281Y88068D01*
X73514Y88130D01*
Y40189D01*
X73470Y40204D01*
X73367Y40220D01*
X73262Y40218D01*
X73160Y40198D01*
X73062Y40161D01*
X72972Y40107D01*
X72894Y40039D01*
X72828Y39957D01*
X72777Y39866D01*
X72743Y39767D01*
X72727Y39664D01*
X72729Y39559D01*
X72749Y39457D01*
X72786Y39359D01*
X72897Y39101D01*
X72985Y38834D01*
X73049Y38560D01*
X73087Y38281D01*
X73100Y38000D01*
X73087Y37720D01*
X73049Y37441D01*
X72985Y37167D01*
X72897Y36900D01*
X72786Y36642D01*
X72749Y36544D01*
X72729Y36442D01*
X72727Y36337D01*
X72743Y36234D01*
X72777Y36135D01*
X72828Y36044D01*
X72894Y35962D01*
X72972Y35894D01*
X73062Y35840D01*
X73160Y35803D01*
X73262Y35783D01*
X73367Y35781D01*
X73470Y35797D01*
X73514Y35812D01*
Y29034D01*
G37*
G36*
X71000Y175004D02*X74524D01*
Y126503D01*
X74039Y126729D01*
X73281Y126932D01*
X72500Y127000D01*
X71719Y126932D01*
X71000Y126739D01*
Y175004D01*
G37*
G36*
X67514Y9510D02*X67706Y9236D01*
X68236Y8706D01*
X68850Y8276D01*
X69529Y7959D01*
X70253Y7765D01*
X71000Y7700D01*
Y4D01*
X67514D01*
Y9510D01*
G37*
G36*
Y175004D02*X71000D01*
Y126739D01*
X70961Y126729D01*
X70250Y126397D01*
X69607Y125947D01*
X69053Y125393D01*
X68603Y124750D01*
X68271Y124039D01*
X68068Y123281D01*
X68000Y122500D01*
X68068Y121719D01*
X68271Y120961D01*
X68603Y120250D01*
X69053Y119607D01*
X69607Y119053D01*
X70250Y118603D01*
X70961Y118271D01*
X71000Y118261D01*
Y96739D01*
X70961Y96729D01*
X70250Y96397D01*
X69607Y95947D01*
X69053Y95393D01*
X68603Y94750D01*
X68271Y94039D01*
X68068Y93281D01*
X68000Y92500D01*
X68068Y91719D01*
X68271Y90961D01*
X68603Y90250D01*
X69053Y89607D01*
X69607Y89053D01*
X70250Y88603D01*
X70961Y88271D01*
X71000Y88261D01*
Y42178D01*
X70776Y42230D01*
X70389Y42283D01*
X70000Y42300D01*
X69610Y42283D01*
X69223Y42230D01*
X68843Y42142D01*
X68473Y42020D01*
X68115Y41865D01*
X68025Y41811D01*
X67947Y41743D01*
X67881Y41661D01*
X67830Y41570D01*
X67796Y41471D01*
X67780Y41368D01*
X67782Y41263D01*
X67802Y41161D01*
X67839Y41063D01*
X67893Y40973D01*
X67961Y40895D01*
X68043Y40829D01*
X68134Y40778D01*
X68233Y40744D01*
X68336Y40728D01*
X68441Y40730D01*
X68543Y40750D01*
X68641Y40787D01*
X68899Y40898D01*
X69166Y40986D01*
X69440Y41050D01*
X69719Y41088D01*
X70000Y41100D01*
X70280Y41088D01*
X70559Y41050D01*
X70833Y40986D01*
X71000Y40931D01*
Y35070D01*
X70833Y35015D01*
X70559Y34951D01*
X70280Y34913D01*
X70000Y34900D01*
X69719Y34913D01*
X69440Y34951D01*
X69166Y35015D01*
X68899Y35103D01*
X68641Y35214D01*
X68543Y35251D01*
X68441Y35271D01*
X68336Y35273D01*
X68233Y35257D01*
X68134Y35223D01*
X68043Y35172D01*
X67961Y35106D01*
X67893Y35028D01*
X67839Y34938D01*
X67802Y34840D01*
X67782Y34738D01*
X67780Y34633D01*
X67796Y34530D01*
X67830Y34431D01*
X67881Y34340D01*
X67947Y34258D01*
X68025Y34190D01*
X68115Y34136D01*
X68473Y33981D01*
X68843Y33859D01*
X69223Y33771D01*
X69610Y33718D01*
X70000Y33700D01*
X70389Y33718D01*
X70776Y33771D01*
X71000Y33823D01*
Y26573D01*
X70980Y26527D01*
X70858Y26157D01*
X70770Y25777D01*
X70717Y25390D01*
X70700Y25000D01*
X70717Y24611D01*
X70770Y24224D01*
X70858Y23844D01*
X70980Y23474D01*
X71000Y23428D01*
Y16300D01*
X70253Y16235D01*
X69529Y16041D01*
X68850Y15724D01*
X68236Y15294D01*
X67706Y14764D01*
X67514Y14490D01*
Y21531D01*
X67764Y21706D01*
X68294Y22236D01*
X68724Y22850D01*
X69041Y23529D01*
X69235Y24253D01*
X69300Y25000D01*
X69235Y25747D01*
X69041Y26471D01*
X68724Y27150D01*
X68294Y27764D01*
X67764Y28294D01*
X67514Y28469D01*
Y47812D01*
X67569Y47831D01*
X67660Y47882D01*
X67742Y47948D01*
X67810Y48026D01*
X67864Y48116D01*
X68019Y48474D01*
X68141Y48844D01*
X68229Y49224D01*
X68282Y49611D01*
X68300Y50000D01*
X68282Y50390D01*
X68229Y50777D01*
X68141Y51157D01*
X68019Y51527D01*
X67864Y51885D01*
X67810Y51975D01*
X67742Y52053D01*
X67660Y52119D01*
X67569Y52170D01*
X67514Y52189D01*
Y175004D01*
G37*
G36*
Y14490D02*X67276Y14150D01*
X66959Y13471D01*
X66765Y12747D01*
X66700Y12000D01*
X66765Y11253D01*
X66959Y10529D01*
X67276Y9850D01*
X67514Y9510D01*
Y4D01*
X66486D01*
Y20966D01*
X67150Y21276D01*
X67514Y21531D01*
Y14490D01*
G37*
G36*
X66486Y175004D02*X67514D01*
Y52189D01*
X67470Y52204D01*
X67367Y52220D01*
X67262Y52218D01*
X67160Y52198D01*
X67062Y52161D01*
X66972Y52107D01*
X66894Y52039D01*
X66828Y51957D01*
X66777Y51866D01*
X66743Y51767D01*
X66727Y51664D01*
X66729Y51559D01*
X66749Y51457D01*
X66786Y51359D01*
X66897Y51101D01*
X66985Y50834D01*
X67049Y50560D01*
X67087Y50281D01*
X67100Y50000D01*
X67087Y49720D01*
X67049Y49441D01*
X66985Y49167D01*
X66897Y48900D01*
X66786Y48642D01*
X66749Y48544D01*
X66729Y48442D01*
X66727Y48337D01*
X66743Y48234D01*
X66777Y48135D01*
X66828Y48044D01*
X66894Y47962D01*
X66972Y47894D01*
X67062Y47840D01*
X67160Y47803D01*
X67262Y47783D01*
X67367Y47781D01*
X67470Y47797D01*
X67514Y47812D01*
Y28469D01*
X67150Y28724D01*
X66486Y29034D01*
Y35812D01*
X66529Y35797D01*
X66632Y35781D01*
X66737Y35783D01*
X66839Y35803D01*
X66937Y35840D01*
X67027Y35894D01*
X67105Y35962D01*
X67171Y36044D01*
X67222Y36135D01*
X67256Y36234D01*
X67272Y36337D01*
X67270Y36442D01*
X67250Y36544D01*
X67213Y36642D01*
X67102Y36900D01*
X67014Y37167D01*
X66950Y37441D01*
X66912Y37720D01*
X66900Y38000D01*
X66912Y38281D01*
X66950Y38560D01*
X67014Y38834D01*
X67102Y39101D01*
X67213Y39359D01*
X67250Y39457D01*
X67270Y39559D01*
X67272Y39664D01*
X67256Y39767D01*
X67222Y39866D01*
X67171Y39957D01*
X67105Y40039D01*
X67027Y40107D01*
X66937Y40161D01*
X66839Y40198D01*
X66737Y40218D01*
X66632Y40220D01*
X66529Y40204D01*
X66486Y40189D01*
Y90441D01*
X66729Y90961D01*
X66932Y91719D01*
X67000Y92500D01*
X66932Y93281D01*
X66729Y94039D01*
X66486Y94559D01*
Y120441D01*
X66729Y120961D01*
X66932Y121719D01*
X67000Y122500D01*
X66932Y123281D01*
X66729Y124039D01*
X66486Y124559D01*
Y175004D01*
G37*
G36*
Y94559D02*X66397Y94750D01*
X65947Y95393D01*
X65393Y95947D01*
X64750Y96397D01*
X64039Y96729D01*
X63281Y96932D01*
X62500Y97000D01*
X61719Y96932D01*
X60961Y96729D01*
X60250Y96397D01*
X60000Y96222D01*
Y118778D01*
X60250Y118603D01*
X60961Y118271D01*
X61719Y118068D01*
X62500Y118000D01*
X63281Y118068D01*
X64039Y118271D01*
X64750Y118603D01*
X65393Y119053D01*
X65947Y119607D01*
X66397Y120250D01*
X66486Y120441D01*
Y94559D01*
G37*
G36*
X64000Y36441D02*X64041Y36529D01*
X64235Y37253D01*
X64300Y38000D01*
X64235Y38747D01*
X64041Y39471D01*
X64000Y39559D01*
Y45700D01*
X64389Y45718D01*
X64776Y45771D01*
X65156Y45859D01*
X65526Y45981D01*
X65884Y46136D01*
X65974Y46190D01*
X66052Y46258D01*
X66118Y46340D01*
X66169Y46431D01*
X66203Y46530D01*
X66219Y46633D01*
X66217Y46738D01*
X66197Y46840D01*
X66160Y46938D01*
X66106Y47028D01*
X66038Y47106D01*
X65956Y47172D01*
X65865Y47223D01*
X65766Y47257D01*
X65663Y47273D01*
X65558Y47271D01*
X65456Y47251D01*
X65358Y47214D01*
X65100Y47103D01*
X64833Y47015D01*
X64559Y46951D01*
X64280Y46913D01*
X64000Y46900D01*
Y53100D01*
X64280Y53088D01*
X64559Y53050D01*
X64833Y52986D01*
X65100Y52898D01*
X65358Y52787D01*
X65456Y52750D01*
X65558Y52730D01*
X65663Y52728D01*
X65766Y52744D01*
X65865Y52778D01*
X65956Y52829D01*
X66038Y52895D01*
X66106Y52973D01*
X66160Y53063D01*
X66197Y53161D01*
X66217Y53263D01*
X66219Y53368D01*
X66203Y53471D01*
X66169Y53570D01*
X66118Y53661D01*
X66052Y53743D01*
X65974Y53811D01*
X65884Y53865D01*
X65526Y54020D01*
X65156Y54142D01*
X64776Y54230D01*
X64389Y54283D01*
X64000Y54300D01*
Y88261D01*
X64039Y88271D01*
X64750Y88603D01*
X65393Y89053D01*
X65947Y89607D01*
X66397Y90250D01*
X66486Y90441D01*
Y40189D01*
X66430Y40170D01*
X66339Y40119D01*
X66257Y40053D01*
X66189Y39975D01*
X66135Y39885D01*
X65980Y39527D01*
X65858Y39157D01*
X65770Y38777D01*
X65717Y38390D01*
X65700Y38000D01*
X65717Y37611D01*
X65770Y37224D01*
X65858Y36844D01*
X65980Y36474D01*
X66135Y36116D01*
X66189Y36026D01*
X66257Y35948D01*
X66339Y35882D01*
X66430Y35831D01*
X66486Y35812D01*
Y29034D01*
X66471Y29041D01*
X65747Y29235D01*
X65000Y29300D01*
X64253Y29235D01*
X64000Y29167D01*
Y36441D01*
G37*
G36*
X66486Y4D02*X64000D01*
Y8942D01*
X64294Y9236D01*
X64724Y9850D01*
X65041Y10529D01*
X65235Y11253D01*
X65300Y12000D01*
X65235Y12747D01*
X65041Y13471D01*
X64724Y14150D01*
X64294Y14764D01*
X64000Y15058D01*
Y20833D01*
X64253Y20765D01*
X65000Y20700D01*
X65747Y20765D01*
X66471Y20959D01*
X66486Y20966D01*
Y4D01*
G37*
G36*
X63110Y52968D02*X63166Y52986D01*
X63440Y53050D01*
X63719Y53088D01*
X64000Y53100D01*
Y46900D01*
X63719Y46913D01*
X63440Y46951D01*
X63166Y47015D01*
X63110Y47033D01*
Y52968D01*
G37*
G36*
Y88053D02*X63281Y88068D01*
X64000Y88261D01*
Y54300D01*
X63610Y54283D01*
X63223Y54230D01*
X63110Y54204D01*
Y60532D01*
X63165Y60551D01*
X63256Y60602D01*
X63338Y60668D01*
X63406Y60746D01*
X63460Y60836D01*
X63615Y61194D01*
X63737Y61564D01*
X63825Y61944D01*
X63878Y62331D01*
X63896Y62720D01*
X63878Y63110D01*
X63825Y63497D01*
X63737Y63877D01*
X63615Y64247D01*
X63460Y64605D01*
X63406Y64695D01*
X63338Y64773D01*
X63256Y64839D01*
X63165Y64890D01*
X63110Y64909D01*
Y88053D01*
G37*
G36*
X64000Y39559D02*X63724Y40150D01*
X63294Y40764D01*
X63110Y40948D01*
Y45797D01*
X63223Y45771D01*
X63610Y45718D01*
X64000Y45700D01*
Y39559D01*
G37*
G36*
X63110Y40948D02*X62764Y41294D01*
X62150Y41724D01*
X61471Y42041D01*
X60747Y42235D01*
X60000Y42300D01*
Y48428D01*
X60135Y48116D01*
X60189Y48026D01*
X60257Y47948D01*
X60339Y47882D01*
X60430Y47831D01*
X60529Y47797D01*
X60632Y47781D01*
X60737Y47783D01*
X60839Y47803D01*
X60937Y47840D01*
X61027Y47894D01*
X61105Y47962D01*
X61171Y48044D01*
X61222Y48135D01*
X61256Y48234D01*
X61272Y48337D01*
X61270Y48442D01*
X61250Y48544D01*
X61213Y48642D01*
X61102Y48900D01*
X61014Y49167D01*
X60950Y49441D01*
X60912Y49720D01*
X60900Y50000D01*
X60912Y50281D01*
X60950Y50560D01*
X61014Y50834D01*
X61102Y51101D01*
X61213Y51359D01*
X61250Y51457D01*
X61270Y51559D01*
X61272Y51664D01*
X61256Y51767D01*
X61222Y51866D01*
X61171Y51957D01*
X61105Y52039D01*
X61027Y52107D01*
X60937Y52161D01*
X60839Y52198D01*
X60737Y52218D01*
X60632Y52220D01*
X60529Y52204D01*
X60430Y52170D01*
X60339Y52119D01*
X60257Y52053D01*
X60189Y51975D01*
X60135Y51885D01*
X60000Y51573D01*
Y58440D01*
X60372Y58491D01*
X60752Y58579D01*
X61122Y58701D01*
X61480Y58856D01*
X61570Y58910D01*
X61648Y58978D01*
X61714Y59060D01*
X61765Y59151D01*
X61799Y59250D01*
X61815Y59353D01*
X61813Y59458D01*
X61793Y59560D01*
X61756Y59658D01*
X61702Y59748D01*
X61634Y59826D01*
X61552Y59892D01*
X61461Y59943D01*
X61362Y59977D01*
X61259Y59993D01*
X61154Y59991D01*
X61052Y59971D01*
X60954Y59934D01*
X60696Y59823D01*
X60429Y59735D01*
X60155Y59671D01*
X60000Y59650D01*
Y65791D01*
X60155Y65770D01*
X60429Y65706D01*
X60696Y65618D01*
X60954Y65507D01*
X61052Y65470D01*
X61154Y65450D01*
X61259Y65448D01*
X61362Y65464D01*
X61461Y65498D01*
X61552Y65549D01*
X61634Y65615D01*
X61702Y65693D01*
X61756Y65783D01*
X61793Y65881D01*
X61813Y65983D01*
X61815Y66088D01*
X61799Y66191D01*
X61765Y66290D01*
X61714Y66381D01*
X61648Y66463D01*
X61570Y66531D01*
X61480Y66585D01*
X61122Y66740D01*
X60752Y66862D01*
X60372Y66950D01*
X60000Y67001D01*
Y88778D01*
X60250Y88603D01*
X60961Y88271D01*
X61719Y88068D01*
X62500Y88000D01*
X63110Y88053D01*
Y64909D01*
X63066Y64924D01*
X62963Y64940D01*
X62858Y64938D01*
X62756Y64918D01*
X62658Y64881D01*
X62568Y64827D01*
X62490Y64759D01*
X62424Y64677D01*
X62373Y64586D01*
X62339Y64487D01*
X62323Y64384D01*
X62325Y64279D01*
X62345Y64177D01*
X62382Y64079D01*
X62493Y63821D01*
X62581Y63554D01*
X62645Y63280D01*
X62683Y63001D01*
X62696Y62720D01*
X62683Y62440D01*
X62645Y62161D01*
X62581Y61887D01*
X62493Y61620D01*
X62382Y61362D01*
X62345Y61264D01*
X62325Y61162D01*
X62323Y61057D01*
X62339Y60954D01*
X62373Y60855D01*
X62424Y60764D01*
X62490Y60682D01*
X62568Y60614D01*
X62658Y60560D01*
X62756Y60523D01*
X62858Y60503D01*
X62963Y60501D01*
X63066Y60517D01*
X63110Y60532D01*
Y54204D01*
X62843Y54142D01*
X62473Y54020D01*
X62115Y53865D01*
X62025Y53811D01*
X61947Y53743D01*
X61881Y53661D01*
X61830Y53570D01*
X61796Y53471D01*
X61780Y53368D01*
X61782Y53263D01*
X61802Y53161D01*
X61839Y53063D01*
X61893Y52973D01*
X61961Y52895D01*
X62043Y52829D01*
X62134Y52778D01*
X62233Y52744D01*
X62336Y52728D01*
X62441Y52730D01*
X62543Y52750D01*
X62641Y52787D01*
X62899Y52898D01*
X63110Y52968D01*
Y47033D01*
X62899Y47103D01*
X62641Y47214D01*
X62543Y47251D01*
X62441Y47271D01*
X62336Y47273D01*
X62233Y47257D01*
X62134Y47223D01*
X62043Y47172D01*
X61961Y47106D01*
X61893Y47028D01*
X61839Y46938D01*
X61802Y46840D01*
X61782Y46738D01*
X61780Y46633D01*
X61796Y46530D01*
X61830Y46431D01*
X61881Y46340D01*
X61947Y46258D01*
X62025Y46190D01*
X62115Y46136D01*
X62473Y45981D01*
X62843Y45859D01*
X63110Y45797D01*
Y40948D01*
G37*
G36*
X64000Y15058D02*X63764Y15294D01*
X63150Y15724D01*
X62471Y16041D01*
X61747Y16235D01*
X61000Y16300D01*
X60253Y16235D01*
X60000Y16167D01*
Y33700D01*
X60747Y33765D01*
X61471Y33959D01*
X62150Y34276D01*
X62764Y34706D01*
X63294Y35236D01*
X63724Y35850D01*
X64000Y36441D01*
Y29167D01*
X63529Y29041D01*
X62850Y28724D01*
X62236Y28294D01*
X61706Y27764D01*
X61276Y27150D01*
X60959Y26471D01*
X60765Y25747D01*
X60700Y25000D01*
X60765Y24253D01*
X60959Y23529D01*
X61276Y22850D01*
X61706Y22236D01*
X62236Y21706D01*
X62850Y21276D01*
X63529Y20959D01*
X64000Y20833D01*
Y15058D01*
G37*
G36*
Y4D02*X60000D01*
Y7833D01*
X60253Y7765D01*
X61000Y7700D01*
X61747Y7765D01*
X62471Y7959D01*
X63150Y8276D01*
X63764Y8706D01*
X64000Y8942D01*
Y4D01*
G37*
G36*
X60000Y175004D02*X66486D01*
Y124559D01*
X66397Y124750D01*
X65947Y125393D01*
X65393Y125947D01*
X64750Y126397D01*
X64039Y126729D01*
X63281Y126932D01*
X62500Y127000D01*
X61719Y126932D01*
X60961Y126729D01*
X60250Y126397D01*
X60000Y126222D01*
Y138206D01*
X60529Y137959D01*
X61253Y137765D01*
X62000Y137700D01*
X62747Y137765D01*
X63471Y137959D01*
X64150Y138276D01*
X64764Y138706D01*
X65294Y139236D01*
X65724Y139850D01*
X66041Y140529D01*
X66235Y141253D01*
X66300Y142000D01*
X66235Y142747D01*
X66041Y143471D01*
X65724Y144150D01*
X65294Y144764D01*
X64764Y145294D01*
X64150Y145724D01*
X63471Y146041D01*
X62747Y146235D01*
X62000Y146300D01*
X61253Y146235D01*
X60529Y146041D01*
X60000Y145794D01*
Y148206D01*
X60529Y147959D01*
X61253Y147765D01*
X62000Y147700D01*
X62747Y147765D01*
X63471Y147959D01*
X64150Y148276D01*
X64764Y148706D01*
X65294Y149236D01*
X65724Y149850D01*
X66041Y150529D01*
X66235Y151253D01*
X66300Y152000D01*
X66235Y152747D01*
X66041Y153471D01*
X65724Y154150D01*
X65294Y154764D01*
X64764Y155294D01*
X64150Y155724D01*
X63471Y156041D01*
X62747Y156235D01*
X62000Y156300D01*
X61253Y156235D01*
X60529Y156041D01*
X60000Y155794D01*
Y175004D01*
G37*
G36*
X58514Y8511D02*X58850Y8276D01*
X59529Y7959D01*
X60000Y7833D01*
Y4D01*
X58514D01*
Y8511D01*
G37*
G36*
Y33966D02*X58529Y33959D01*
X59253Y33765D01*
X60000Y33700D01*
Y16167D01*
X59529Y16041D01*
X58850Y15724D01*
X58514Y15489D01*
Y22550D01*
X58724Y22850D01*
X59041Y23529D01*
X59235Y24253D01*
X59300Y25000D01*
X59235Y25747D01*
X59041Y26471D01*
X58724Y27150D01*
X58514Y27450D01*
Y33966D01*
G37*
G36*
Y58562D02*X58819Y58491D01*
X59206Y58438D01*
X59596Y58420D01*
X59985Y58438D01*
X60000Y58440D01*
Y51573D01*
X59980Y51527D01*
X59858Y51157D01*
X59770Y50777D01*
X59717Y50390D01*
X59700Y50000D01*
X59717Y49611D01*
X59770Y49224D01*
X59858Y48844D01*
X59980Y48474D01*
X60000Y48428D01*
Y42300D01*
X59253Y42235D01*
X58529Y42041D01*
X58514Y42034D01*
Y58562D01*
G37*
G36*
Y65624D02*X58762Y65706D01*
X59036Y65770D01*
X59315Y65808D01*
X59596Y65820D01*
X59876Y65808D01*
X60000Y65791D01*
Y59650D01*
X59876Y59633D01*
X59596Y59620D01*
X59315Y59633D01*
X59036Y59671D01*
X58762Y59735D01*
X58514Y59817D01*
Y65624D01*
G37*
G36*
Y90441D02*X58603Y90250D01*
X59053Y89607D01*
X59607Y89053D01*
X60000Y88778D01*
Y67001D01*
X59985Y67003D01*
X59596Y67020D01*
X59206Y67003D01*
X58819Y66950D01*
X58514Y66879D01*
Y73312D01*
X58569Y73331D01*
X58660Y73382D01*
X58742Y73448D01*
X58810Y73526D01*
X58864Y73616D01*
X59019Y73974D01*
X59141Y74344D01*
X59229Y74724D01*
X59282Y75111D01*
X59300Y75500D01*
X59282Y75890D01*
X59229Y76277D01*
X59141Y76657D01*
X59019Y77027D01*
X58864Y77385D01*
X58810Y77475D01*
X58742Y77553D01*
X58660Y77619D01*
X58569Y77670D01*
X58514Y77689D01*
Y90441D01*
G37*
G36*
Y120441D02*X58603Y120250D01*
X59053Y119607D01*
X59607Y119053D01*
X60000Y118778D01*
Y96222D01*
X59607Y95947D01*
X59053Y95393D01*
X58603Y94750D01*
X58514Y94559D01*
Y120441D01*
G37*
G36*
Y139510D02*X58706Y139236D01*
X59236Y138706D01*
X59850Y138276D01*
X60000Y138206D01*
Y126222D01*
X59607Y125947D01*
X59053Y125393D01*
X58603Y124750D01*
X58514Y124559D01*
Y139510D01*
G37*
G36*
Y149510D02*X58706Y149236D01*
X59236Y148706D01*
X59850Y148276D01*
X60000Y148206D01*
Y145794D01*
X59850Y145724D01*
X59236Y145294D01*
X58706Y144764D01*
X58514Y144490D01*
Y149510D01*
G37*
G36*
Y175004D02*X60000D01*
Y155794D01*
X59850Y155724D01*
X59236Y155294D01*
X58706Y154764D01*
X58514Y154490D01*
Y175004D01*
G37*
G36*
Y15489D02*X58236Y15294D01*
X57706Y14764D01*
X57276Y14150D01*
X56959Y13471D01*
X56765Y12747D01*
X56700Y12000D01*
X56765Y11253D01*
X56959Y10529D01*
X57276Y9850D01*
X57706Y9236D01*
X58236Y8706D01*
X58514Y8511D01*
Y4D01*
X54000D01*
Y8942D01*
X54294Y9236D01*
X54724Y9850D01*
X55041Y10529D01*
X55235Y11253D01*
X55300Y12000D01*
X55235Y12747D01*
X55041Y13471D01*
X54724Y14150D01*
X54294Y14764D01*
X54000Y15058D01*
Y20833D01*
X54253Y20765D01*
X55000Y20700D01*
X55747Y20765D01*
X56471Y20959D01*
X57150Y21276D01*
X57764Y21706D01*
X58294Y22236D01*
X58514Y22550D01*
Y15489D01*
G37*
G36*
X55514Y175004D02*X58514D01*
Y154490D01*
X58276Y154150D01*
X57959Y153471D01*
X57765Y152747D01*
X57700Y152000D01*
X57765Y151253D01*
X57959Y150529D01*
X58276Y149850D01*
X58514Y149510D01*
Y144490D01*
X58276Y144150D01*
X57959Y143471D01*
X57765Y142747D01*
X57700Y142000D01*
X57765Y141253D01*
X57959Y140529D01*
X58276Y139850D01*
X58514Y139510D01*
Y124559D01*
X58271Y124039D01*
X58068Y123281D01*
X58000Y122500D01*
X58068Y121719D01*
X58271Y120961D01*
X58514Y120441D01*
Y94559D01*
X58271Y94039D01*
X58068Y93281D01*
X58000Y92500D01*
X58068Y91719D01*
X58271Y90961D01*
X58514Y90441D01*
Y77689D01*
X58470Y77704D01*
X58367Y77720D01*
X58262Y77718D01*
X58160Y77698D01*
X58062Y77661D01*
X57972Y77607D01*
X57894Y77539D01*
X57828Y77457D01*
X57777Y77366D01*
X57743Y77267D01*
X57727Y77164D01*
X57729Y77059D01*
X57749Y76957D01*
X57786Y76859D01*
X57897Y76601D01*
X57985Y76334D01*
X58049Y76060D01*
X58087Y75781D01*
X58100Y75500D01*
X58087Y75220D01*
X58049Y74941D01*
X57985Y74667D01*
X57897Y74400D01*
X57786Y74142D01*
X57749Y74044D01*
X57729Y73942D01*
X57727Y73837D01*
X57743Y73734D01*
X57777Y73635D01*
X57828Y73544D01*
X57894Y73462D01*
X57972Y73394D01*
X58062Y73340D01*
X58160Y73303D01*
X58262Y73283D01*
X58367Y73281D01*
X58470Y73297D01*
X58514Y73312D01*
Y66879D01*
X58439Y66862D01*
X58069Y66740D01*
X57711Y66585D01*
X57621Y66531D01*
X57543Y66463D01*
X57477Y66381D01*
X57426Y66290D01*
X57392Y66191D01*
X57376Y66088D01*
X57378Y65983D01*
X57398Y65881D01*
X57435Y65783D01*
X57489Y65693D01*
X57557Y65615D01*
X57639Y65549D01*
X57730Y65498D01*
X57829Y65464D01*
X57932Y65448D01*
X58037Y65450D01*
X58139Y65470D01*
X58237Y65507D01*
X58495Y65618D01*
X58514Y65624D01*
Y59817D01*
X58495Y59823D01*
X58237Y59934D01*
X58139Y59971D01*
X58037Y59991D01*
X57932Y59993D01*
X57829Y59977D01*
X57730Y59943D01*
X57639Y59892D01*
X57557Y59826D01*
X57489Y59748D01*
X57435Y59658D01*
X57398Y59560D01*
X57378Y59458D01*
X57376Y59353D01*
X57392Y59250D01*
X57426Y59151D01*
X57477Y59060D01*
X57543Y58978D01*
X57621Y58910D01*
X57711Y58856D01*
X58069Y58701D01*
X58439Y58579D01*
X58514Y58562D01*
Y42034D01*
X57850Y41724D01*
X57236Y41294D01*
X56706Y40764D01*
X56276Y40150D01*
X55959Y39471D01*
X55765Y38747D01*
X55700Y38000D01*
X55765Y37253D01*
X55959Y36529D01*
X56276Y35850D01*
X56706Y35236D01*
X57236Y34706D01*
X57850Y34276D01*
X58514Y33966D01*
Y27450D01*
X58294Y27764D01*
X57764Y28294D01*
X57150Y28724D01*
X56471Y29041D01*
X55747Y29235D01*
X55514Y29255D01*
Y45979D01*
X56150Y46276D01*
X56764Y46706D01*
X57294Y47236D01*
X57724Y47850D01*
X58041Y48529D01*
X58235Y49253D01*
X58300Y50000D01*
X58235Y50747D01*
X58041Y51471D01*
X57724Y52150D01*
X57294Y52764D01*
X56764Y53294D01*
X56150Y53724D01*
X55514Y54021D01*
Y61382D01*
X55576Y61194D01*
X55731Y60836D01*
X55785Y60746D01*
X55853Y60668D01*
X55935Y60602D01*
X56026Y60551D01*
X56125Y60517D01*
X56228Y60501D01*
X56333Y60503D01*
X56435Y60523D01*
X56533Y60560D01*
X56623Y60614D01*
X56701Y60682D01*
X56767Y60764D01*
X56818Y60855D01*
X56852Y60954D01*
X56868Y61057D01*
X56866Y61162D01*
X56846Y61264D01*
X56809Y61362D01*
X56698Y61620D01*
X56610Y61887D01*
X56546Y62161D01*
X56508Y62440D01*
X56496Y62720D01*
X56508Y63001D01*
X56546Y63280D01*
X56610Y63554D01*
X56698Y63821D01*
X56809Y64079D01*
X56846Y64177D01*
X56866Y64279D01*
X56868Y64384D01*
X56852Y64487D01*
X56818Y64586D01*
X56767Y64677D01*
X56701Y64759D01*
X56623Y64827D01*
X56533Y64881D01*
X56435Y64918D01*
X56333Y64938D01*
X56228Y64940D01*
X56125Y64924D01*
X56026Y64890D01*
X55935Y64839D01*
X55853Y64773D01*
X55785Y64695D01*
X55731Y64605D01*
X55576Y64247D01*
X55514Y64059D01*
Y71235D01*
X55776Y71271D01*
X56156Y71359D01*
X56526Y71481D01*
X56884Y71636D01*
X56974Y71690D01*
X57052Y71758D01*
X57118Y71840D01*
X57169Y71931D01*
X57203Y72030D01*
X57219Y72133D01*
X57217Y72238D01*
X57197Y72340D01*
X57160Y72438D01*
X57106Y72528D01*
X57038Y72606D01*
X56956Y72672D01*
X56865Y72723D01*
X56766Y72757D01*
X56663Y72773D01*
X56558Y72771D01*
X56456Y72751D01*
X56358Y72714D01*
X56100Y72603D01*
X55833Y72515D01*
X55559Y72451D01*
X55514Y72445D01*
Y78556D01*
X55559Y78550D01*
X55833Y78486D01*
X56100Y78398D01*
X56358Y78287D01*
X56456Y78250D01*
X56558Y78230D01*
X56663Y78228D01*
X56766Y78244D01*
X56865Y78278D01*
X56956Y78329D01*
X57038Y78395D01*
X57106Y78473D01*
X57160Y78563D01*
X57197Y78661D01*
X57217Y78763D01*
X57219Y78868D01*
X57203Y78971D01*
X57169Y79070D01*
X57118Y79161D01*
X57052Y79243D01*
X56974Y79311D01*
X56884Y79365D01*
X56526Y79520D01*
X56156Y79642D01*
X55776Y79730D01*
X55514Y79766D01*
Y89174D01*
X55947Y89607D01*
X56397Y90250D01*
X56729Y90961D01*
X56932Y91719D01*
X57000Y92500D01*
X56932Y93281D01*
X56729Y94039D01*
X56397Y94750D01*
X55947Y95393D01*
X55514Y95826D01*
Y119174D01*
X55947Y119607D01*
X56397Y120250D01*
X56729Y120961D01*
X56932Y121719D01*
X57000Y122500D01*
X56932Y123281D01*
X56729Y124039D01*
X56397Y124750D01*
X55947Y125393D01*
X55514Y125826D01*
Y139812D01*
X55569Y139831D01*
X55660Y139882D01*
X55742Y139948D01*
X55810Y140026D01*
X55864Y140116D01*
X56019Y140474D01*
X56141Y140844D01*
X56229Y141224D01*
X56282Y141611D01*
X56300Y142000D01*
X56282Y142390D01*
X56229Y142777D01*
X56141Y143157D01*
X56019Y143527D01*
X55864Y143885D01*
X55810Y143975D01*
X55742Y144053D01*
X55660Y144119D01*
X55569Y144170D01*
X55514Y144189D01*
Y149550D01*
X55724Y149850D01*
X56041Y150529D01*
X56235Y151253D01*
X56300Y152000D01*
X56235Y152747D01*
X56041Y153471D01*
X55724Y154150D01*
X55514Y154450D01*
Y175004D01*
G37*
G36*
Y125826D02*X55393Y125947D01*
X54750Y126397D01*
X54039Y126729D01*
X54000Y126739D01*
Y138213D01*
X54052Y138258D01*
X54118Y138340D01*
X54169Y138431D01*
X54203Y138530D01*
X54219Y138633D01*
X54217Y138738D01*
X54197Y138840D01*
X54160Y138938D01*
X54106Y139028D01*
X54038Y139106D01*
X54000Y139137D01*
Y144864D01*
X54038Y144895D01*
X54106Y144973D01*
X54160Y145063D01*
X54197Y145161D01*
X54217Y145263D01*
X54219Y145368D01*
X54203Y145471D01*
X54169Y145570D01*
X54118Y145661D01*
X54052Y145743D01*
X54000Y145788D01*
Y148206D01*
X54150Y148276D01*
X54764Y148706D01*
X55294Y149236D01*
X55514Y149550D01*
Y144189D01*
X55470Y144204D01*
X55367Y144220D01*
X55262Y144218D01*
X55160Y144198D01*
X55062Y144161D01*
X54972Y144107D01*
X54894Y144039D01*
X54828Y143957D01*
X54777Y143866D01*
X54743Y143767D01*
X54727Y143664D01*
X54729Y143559D01*
X54749Y143457D01*
X54786Y143359D01*
X54897Y143101D01*
X54985Y142834D01*
X55049Y142560D01*
X55087Y142281D01*
X55100Y142000D01*
X55087Y141720D01*
X55049Y141441D01*
X54985Y141167D01*
X54897Y140900D01*
X54786Y140642D01*
X54749Y140544D01*
X54729Y140442D01*
X54727Y140337D01*
X54743Y140234D01*
X54777Y140135D01*
X54828Y140044D01*
X54894Y139962D01*
X54972Y139894D01*
X55062Y139840D01*
X55160Y139803D01*
X55262Y139783D01*
X55367Y139781D01*
X55470Y139797D01*
X55514Y139812D01*
Y125826D01*
G37*
G36*
Y95826D02*X55393Y95947D01*
X54750Y96397D01*
X54039Y96729D01*
X54000Y96739D01*
Y118261D01*
X54039Y118271D01*
X54750Y118603D01*
X55393Y119053D01*
X55514Y119174D01*
Y95826D01*
G37*
G36*
Y79766D02*X55389Y79783D01*
X55000Y79800D01*
X54610Y79783D01*
X54223Y79730D01*
X54000Y79678D01*
Y88261D01*
X54039Y88271D01*
X54750Y88603D01*
X55393Y89053D01*
X55514Y89174D01*
Y79766D01*
G37*
G36*
Y72445D02*X55280Y72413D01*
X55000Y72400D01*
X54719Y72413D01*
X54440Y72451D01*
X54166Y72515D01*
X54000Y72570D01*
Y78431D01*
X54166Y78486D01*
X54440Y78550D01*
X54719Y78588D01*
X55000Y78600D01*
X55280Y78588D01*
X55514Y78556D01*
Y72445D01*
G37*
G36*
Y54021D02*X55471Y54041D01*
X54747Y54235D01*
X54000Y54300D01*
Y71323D01*
X54223Y71271D01*
X54610Y71218D01*
X55000Y71200D01*
X55389Y71218D01*
X55514Y71235D01*
Y64059D01*
X55454Y63877D01*
X55366Y63497D01*
X55313Y63110D01*
X55296Y62720D01*
X55313Y62331D01*
X55366Y61944D01*
X55454Y61564D01*
X55514Y61382D01*
Y54021D01*
G37*
G36*
Y29255D02*X55000Y29300D01*
X54253Y29235D01*
X54000Y29167D01*
Y36441D01*
X54041Y36529D01*
X54235Y37253D01*
X54300Y38000D01*
X54235Y38747D01*
X54041Y39471D01*
X54000Y39559D01*
Y45700D01*
X54747Y45765D01*
X55471Y45959D01*
X55514Y45979D01*
Y29255D01*
G37*
G36*
X54000Y175004D02*X55514D01*
Y154450D01*
X55294Y154764D01*
X54764Y155294D01*
X54150Y155724D01*
X54000Y155794D01*
Y175004D01*
G37*
G36*
X51486Y7742D02*X51747Y7765D01*
X52471Y7959D01*
X53150Y8276D01*
X53764Y8706D01*
X54000Y8942D01*
Y4D01*
X51486D01*
Y7742D01*
G37*
G36*
Y22550D02*X51706Y22236D01*
X52236Y21706D01*
X52850Y21276D01*
X53529Y20959D01*
X54000Y20833D01*
Y15058D01*
X53764Y15294D01*
X53150Y15724D01*
X52471Y16041D01*
X51747Y16235D01*
X51486Y16258D01*
Y22550D01*
G37*
G36*
Y33966D02*X52150Y34276D01*
X52764Y34706D01*
X53294Y35236D01*
X53724Y35850D01*
X54000Y36441D01*
Y29167D01*
X53529Y29041D01*
X52850Y28724D01*
X52236Y28294D01*
X51706Y27764D01*
X51486Y27450D01*
Y33966D01*
G37*
G36*
Y46531D02*X51850Y46276D01*
X52529Y45959D01*
X53253Y45765D01*
X54000Y45700D01*
Y39559D01*
X53724Y40150D01*
X53294Y40764D01*
X52764Y41294D01*
X52150Y41724D01*
X51486Y42034D01*
Y46531D01*
G37*
G36*
Y88130D02*X51719Y88068D01*
X52500Y88000D01*
X53281Y88068D01*
X54000Y88261D01*
Y79678D01*
X53843Y79642D01*
X53473Y79520D01*
X53115Y79365D01*
X53025Y79311D01*
X52947Y79243D01*
X52881Y79161D01*
X52830Y79070D01*
X52796Y78971D01*
X52780Y78868D01*
X52782Y78763D01*
X52802Y78661D01*
X52839Y78563D01*
X52893Y78473D01*
X52961Y78395D01*
X53043Y78329D01*
X53134Y78278D01*
X53233Y78244D01*
X53336Y78228D01*
X53441Y78230D01*
X53543Y78250D01*
X53641Y78287D01*
X53899Y78398D01*
X54000Y78431D01*
Y72570D01*
X53899Y72603D01*
X53641Y72714D01*
X53543Y72751D01*
X53441Y72771D01*
X53336Y72773D01*
X53233Y72757D01*
X53134Y72723D01*
X53043Y72672D01*
X52961Y72606D01*
X52893Y72528D01*
X52839Y72438D01*
X52802Y72340D01*
X52782Y72238D01*
X52780Y72133D01*
X52796Y72030D01*
X52830Y71931D01*
X52881Y71840D01*
X52947Y71758D01*
X53025Y71690D01*
X53115Y71636D01*
X53473Y71481D01*
X53843Y71359D01*
X54000Y71323D01*
Y54300D01*
X53253Y54235D01*
X52529Y54041D01*
X51850Y53724D01*
X51486Y53469D01*
Y58875D01*
X51746Y58996D01*
X52360Y59426D01*
X52890Y59956D01*
X53320Y60570D01*
X53637Y61249D01*
X53831Y61973D01*
X53896Y62720D01*
X53831Y63467D01*
X53637Y64191D01*
X53320Y64870D01*
X52890Y65484D01*
X52360Y66014D01*
X51746Y66444D01*
X51486Y66565D01*
Y73312D01*
X51529Y73297D01*
X51632Y73281D01*
X51737Y73283D01*
X51839Y73303D01*
X51937Y73340D01*
X52027Y73394D01*
X52105Y73462D01*
X52171Y73544D01*
X52222Y73635D01*
X52256Y73734D01*
X52272Y73837D01*
X52270Y73942D01*
X52250Y74044D01*
X52213Y74142D01*
X52102Y74400D01*
X52014Y74667D01*
X51950Y74941D01*
X51912Y75220D01*
X51900Y75500D01*
X51912Y75781D01*
X51950Y76060D01*
X52014Y76334D01*
X52102Y76601D01*
X52213Y76859D01*
X52250Y76957D01*
X52270Y77059D01*
X52272Y77164D01*
X52256Y77267D01*
X52222Y77366D01*
X52171Y77457D01*
X52105Y77539D01*
X52027Y77607D01*
X51937Y77661D01*
X51839Y77698D01*
X51737Y77718D01*
X51632Y77720D01*
X51529Y77704D01*
X51486Y77689D01*
Y88130D01*
G37*
G36*
Y118130D02*X51719Y118068D01*
X52500Y118000D01*
X53281Y118068D01*
X54000Y118261D01*
Y96739D01*
X53281Y96932D01*
X52500Y97000D01*
X51719Y96932D01*
X51486Y96870D01*
Y118130D01*
G37*
G36*
Y137735D02*X51610Y137718D01*
X52000Y137700D01*
X52389Y137718D01*
X52776Y137771D01*
X53156Y137859D01*
X53526Y137981D01*
X53884Y138136D01*
X53974Y138190D01*
X54000Y138213D01*
Y126739D01*
X53281Y126932D01*
X52500Y127000D01*
X51719Y126932D01*
X51486Y126870D01*
Y137735D01*
G37*
G36*
Y145056D02*X51719Y145088D01*
X52000Y145100D01*
X52280Y145088D01*
X52559Y145050D01*
X52833Y144986D01*
X53100Y144898D01*
X53358Y144787D01*
X53456Y144750D01*
X53558Y144730D01*
X53663Y144728D01*
X53766Y144744D01*
X53865Y144778D01*
X53956Y144829D01*
X54000Y144864D01*
Y139137D01*
X53956Y139172D01*
X53865Y139223D01*
X53766Y139257D01*
X53663Y139273D01*
X53558Y139271D01*
X53456Y139251D01*
X53358Y139214D01*
X53100Y139103D01*
X52833Y139015D01*
X52559Y138951D01*
X52280Y138913D01*
X52000Y138900D01*
X51719Y138913D01*
X51486Y138945D01*
Y145056D01*
G37*
G36*
Y147745D02*X52000Y147700D01*
X52747Y147765D01*
X53471Y147959D01*
X54000Y148206D01*
Y145788D01*
X53974Y145811D01*
X53884Y145865D01*
X53526Y146020D01*
X53156Y146142D01*
X52776Y146230D01*
X52389Y146283D01*
X52000Y146300D01*
X51610Y146283D01*
X51486Y146266D01*
Y147745D01*
G37*
G36*
Y175004D02*X54000D01*
Y155794D01*
X53471Y156041D01*
X52747Y156235D01*
X52000Y156300D01*
X51486Y156255D01*
Y175004D01*
G37*
G36*
X48486Y8531D02*X48850Y8276D01*
X49529Y7959D01*
X50253Y7765D01*
X51000Y7700D01*
X51486Y7742D01*
Y4D01*
X48486D01*
Y8531D01*
G37*
G36*
Y33979D02*X48529Y33959D01*
X49253Y33765D01*
X50000Y33700D01*
X50747Y33765D01*
X51471Y33959D01*
X51486Y33966D01*
Y27450D01*
X51276Y27150D01*
X50959Y26471D01*
X50765Y25747D01*
X50700Y25000D01*
X50765Y24253D01*
X50959Y23529D01*
X51276Y22850D01*
X51486Y22550D01*
Y16258D01*
X51000Y16300D01*
X50253Y16235D01*
X49529Y16041D01*
X48850Y15724D01*
X48486Y15469D01*
Y22510D01*
X48724Y22850D01*
X49041Y23529D01*
X49235Y24253D01*
X49300Y25000D01*
X49235Y25747D01*
X49041Y26471D01*
X48724Y27150D01*
X48486Y27490D01*
Y33979D01*
G37*
G36*
Y58582D02*X48849Y58485D01*
X49596Y58420D01*
X50343Y58485D01*
X51067Y58679D01*
X51486Y58875D01*
Y53469D01*
X51236Y53294D01*
X50706Y52764D01*
X50276Y52150D01*
X49959Y51471D01*
X49765Y50747D01*
X49700Y50000D01*
X49765Y49253D01*
X49959Y48529D01*
X50276Y47850D01*
X50706Y47236D01*
X51236Y46706D01*
X51486Y46531D01*
Y42034D01*
X51471Y42041D01*
X50747Y42235D01*
X50000Y42300D01*
X49253Y42235D01*
X48529Y42041D01*
X48486Y42021D01*
Y58582D01*
G37*
G36*
Y90501D02*X48603Y90250D01*
X49053Y89607D01*
X49607Y89053D01*
X50250Y88603D01*
X50961Y88271D01*
X51486Y88130D01*
Y77689D01*
X51430Y77670D01*
X51339Y77619D01*
X51257Y77553D01*
X51189Y77475D01*
X51135Y77385D01*
X50980Y77027D01*
X50858Y76657D01*
X50770Y76277D01*
X50717Y75890D01*
X50700Y75500D01*
X50717Y75111D01*
X50770Y74724D01*
X50858Y74344D01*
X50980Y73974D01*
X51135Y73616D01*
X51189Y73526D01*
X51257Y73448D01*
X51339Y73382D01*
X51430Y73331D01*
X51486Y73312D01*
Y66565D01*
X51067Y66761D01*
X50343Y66955D01*
X49596Y67020D01*
X48849Y66955D01*
X48486Y66858D01*
Y73010D01*
X48724Y73350D01*
X49041Y74029D01*
X49235Y74753D01*
X49300Y75500D01*
X49235Y76247D01*
X49041Y76971D01*
X48724Y77650D01*
X48486Y77990D01*
Y90501D01*
G37*
G36*
Y120501D02*X48603Y120250D01*
X49053Y119607D01*
X49607Y119053D01*
X50250Y118603D01*
X50961Y118271D01*
X51486Y118130D01*
Y96870D01*
X50961Y96729D01*
X50250Y96397D01*
X49607Y95947D01*
X49053Y95393D01*
X48603Y94750D01*
X48486Y94499D01*
Y120501D01*
G37*
G36*
Y149550D02*X48706Y149236D01*
X49236Y148706D01*
X49850Y148276D01*
X50529Y147959D01*
X51253Y147765D01*
X51486Y147745D01*
Y146266D01*
X51223Y146230D01*
X50843Y146142D01*
X50473Y146020D01*
X50115Y145865D01*
X50025Y145811D01*
X49947Y145743D01*
X49881Y145661D01*
X49830Y145570D01*
X49796Y145471D01*
X49780Y145368D01*
X49782Y145263D01*
X49802Y145161D01*
X49839Y145063D01*
X49893Y144973D01*
X49961Y144895D01*
X50043Y144829D01*
X50134Y144778D01*
X50233Y144744D01*
X50336Y144728D01*
X50441Y144730D01*
X50543Y144750D01*
X50641Y144787D01*
X50899Y144898D01*
X51166Y144986D01*
X51440Y145050D01*
X51486Y145056D01*
Y138945D01*
X51440Y138951D01*
X51166Y139015D01*
X50899Y139103D01*
X50641Y139214D01*
X50543Y139251D01*
X50441Y139271D01*
X50336Y139273D01*
X50233Y139257D01*
X50134Y139223D01*
X50043Y139172D01*
X49961Y139106D01*
X49893Y139028D01*
X49839Y138938D01*
X49802Y138840D01*
X49782Y138738D01*
X49780Y138633D01*
X49796Y138530D01*
X49830Y138431D01*
X49881Y138340D01*
X49947Y138258D01*
X50025Y138190D01*
X50115Y138136D01*
X50473Y137981D01*
X50843Y137859D01*
X51223Y137771D01*
X51486Y137735D01*
Y126870D01*
X50961Y126729D01*
X50250Y126397D01*
X49607Y125947D01*
X49053Y125393D01*
X48603Y124750D01*
X48486Y124499D01*
Y139812D01*
X48529Y139797D01*
X48632Y139781D01*
X48737Y139783D01*
X48839Y139803D01*
X48937Y139840D01*
X49027Y139894D01*
X49105Y139962D01*
X49171Y140044D01*
X49222Y140135D01*
X49256Y140234D01*
X49272Y140337D01*
X49270Y140442D01*
X49250Y140544D01*
X49213Y140642D01*
X49102Y140900D01*
X49014Y141167D01*
X48950Y141441D01*
X48912Y141720D01*
X48900Y142000D01*
X48912Y142281D01*
X48950Y142560D01*
X49014Y142834D01*
X49102Y143101D01*
X49213Y143359D01*
X49250Y143457D01*
X49270Y143559D01*
X49272Y143664D01*
X49256Y143767D01*
X49222Y143866D01*
X49171Y143957D01*
X49105Y144039D01*
X49027Y144107D01*
X48937Y144161D01*
X48839Y144198D01*
X48737Y144218D01*
X48632Y144220D01*
X48529Y144204D01*
X48486Y144189D01*
Y149550D01*
G37*
G36*
Y175004D02*X51486D01*
Y156255D01*
X51253Y156235D01*
X50529Y156041D01*
X49850Y155724D01*
X49236Y155294D01*
X48706Y154764D01*
X48486Y154450D01*
Y175004D01*
G37*
G36*
Y15469D02*X48236Y15294D01*
X47706Y14764D01*
X47276Y14150D01*
X46959Y13471D01*
X46765Y12747D01*
X46700Y12000D01*
X46765Y11253D01*
X46959Y10529D01*
X47276Y9850D01*
X47706Y9236D01*
X48236Y8706D01*
X48486Y8531D01*
Y4D01*
X45000D01*
Y20700D01*
X45747Y20765D01*
X46471Y20959D01*
X47150Y21276D01*
X47764Y21706D01*
X48294Y22236D01*
X48486Y22510D01*
Y15469D01*
G37*
G36*
Y66858D02*X48125Y66761D01*
X47446Y66444D01*
X46832Y66014D01*
X46302Y65484D01*
X45872Y64870D01*
X45555Y64191D01*
X45361Y63467D01*
X45296Y62720D01*
X45361Y61973D01*
X45555Y61249D01*
X45872Y60570D01*
X46302Y59956D01*
X46832Y59426D01*
X47446Y58996D01*
X48125Y58679D01*
X48486Y58582D01*
Y42021D01*
X47850Y41724D01*
X47236Y41294D01*
X46706Y40764D01*
X46276Y40150D01*
X45959Y39471D01*
X45765Y38747D01*
X45700Y38000D01*
X45765Y37253D01*
X45959Y36529D01*
X46276Y35850D01*
X46706Y35236D01*
X47236Y34706D01*
X47850Y34276D01*
X48486Y33979D01*
Y27490D01*
X48294Y27764D01*
X47764Y28294D01*
X47150Y28724D01*
X46471Y29041D01*
X45747Y29235D01*
X45000Y29300D01*
Y45833D01*
X45471Y45959D01*
X46150Y46276D01*
X46764Y46706D01*
X47294Y47236D01*
X47724Y47850D01*
X48041Y48529D01*
X48235Y49253D01*
X48300Y50000D01*
X48235Y50747D01*
X48041Y51471D01*
X47724Y52150D01*
X47294Y52764D01*
X46764Y53294D01*
X46150Y53724D01*
X45471Y54041D01*
X45000Y54167D01*
Y71200D01*
X45747Y71265D01*
X46471Y71459D01*
X47150Y71776D01*
X47764Y72206D01*
X48294Y72736D01*
X48486Y73010D01*
Y66858D01*
G37*
G36*
X45700Y175004D02*X48486D01*
Y154450D01*
X48276Y154150D01*
X47959Y153471D01*
X47765Y152747D01*
X47700Y152000D01*
X47765Y151253D01*
X47959Y150529D01*
X48276Y149850D01*
X48486Y149550D01*
Y144189D01*
X48430Y144170D01*
X48339Y144119D01*
X48257Y144053D01*
X48189Y143975D01*
X48135Y143885D01*
X47980Y143527D01*
X47858Y143157D01*
X47770Y142777D01*
X47717Y142390D01*
X47700Y142000D01*
X47717Y141611D01*
X47770Y141224D01*
X47858Y140844D01*
X47980Y140474D01*
X48135Y140116D01*
X48189Y140026D01*
X48257Y139948D01*
X48339Y139882D01*
X48430Y139831D01*
X48486Y139812D01*
Y124499D01*
X48271Y124039D01*
X48068Y123281D01*
X48000Y122500D01*
X48068Y121719D01*
X48271Y120961D01*
X48486Y120501D01*
Y94499D01*
X48271Y94039D01*
X48068Y93281D01*
X48000Y92500D01*
X48068Y91719D01*
X48271Y90961D01*
X48486Y90501D01*
Y77990D01*
X48294Y78264D01*
X47764Y78794D01*
X47150Y79224D01*
X46471Y79541D01*
X45747Y79735D01*
X45700Y79739D01*
Y89360D01*
X45947Y89607D01*
X46397Y90250D01*
X46729Y90961D01*
X46932Y91719D01*
X47000Y92500D01*
X46932Y93281D01*
X46729Y94039D01*
X46397Y94750D01*
X45947Y95393D01*
X45700Y95640D01*
Y119360D01*
X45947Y119607D01*
X46397Y120250D01*
X46729Y120961D01*
X46932Y121719D01*
X47000Y122500D01*
X46932Y123281D01*
X46729Y124039D01*
X46397Y124750D01*
X45947Y125393D01*
X45700Y125640D01*
Y139500D01*
X45804Y139509D01*
X45905Y139536D01*
X46000Y139580D01*
X46086Y139640D01*
X46160Y139714D01*
X46220Y139800D01*
X46264Y139895D01*
X46291Y139996D01*
X46300Y140100D01*
Y143900D01*
X46291Y144004D01*
X46264Y144105D01*
X46220Y144200D01*
X46160Y144286D01*
X46086Y144360D01*
X46000Y144420D01*
X45905Y144464D01*
X45804Y144491D01*
X45700Y144500D01*
Y149816D01*
X45724Y149850D01*
X46041Y150529D01*
X46235Y151253D01*
X46300Y152000D01*
X46235Y152747D01*
X46041Y153471D01*
X45724Y154150D01*
X45700Y154184D01*
Y175004D01*
G37*
G36*
Y125640D02*X45393Y125947D01*
X45000Y126222D01*
Y148942D01*
X45294Y149236D01*
X45700Y149816D01*
Y144500D01*
X45596Y144491D01*
X45495Y144464D01*
X45400Y144420D01*
X45314Y144360D01*
X45240Y144286D01*
X45180Y144200D01*
X45136Y144105D01*
X45109Y144004D01*
X45100Y143900D01*
Y140100D01*
X45109Y139996D01*
X45136Y139895D01*
X45180Y139800D01*
X45240Y139714D01*
X45314Y139640D01*
X45400Y139580D01*
X45495Y139536D01*
X45596Y139509D01*
X45700Y139500D01*
Y125640D01*
G37*
G36*
Y95640D02*X45393Y95947D01*
X45000Y96222D01*
Y118778D01*
X45393Y119053D01*
X45700Y119360D01*
Y95640D01*
G37*
G36*
Y79739D02*X45000Y79800D01*
Y88778D01*
X45393Y89053D01*
X45700Y89360D01*
Y79739D01*
G37*
G36*
X45000Y175004D02*X45700D01*
Y154184D01*
X45294Y154764D01*
X45000Y155058D01*
Y175004D01*
G37*
G36*
Y126222D02*X44750Y126397D01*
X44039Y126729D01*
X43281Y126932D01*
X42500Y127000D01*
X41719Y126932D01*
X40961Y126729D01*
X40250Y126397D01*
X39607Y125947D01*
X39596Y125936D01*
Y137977D01*
X39640Y137914D01*
X39714Y137840D01*
X39800Y137780D01*
X39895Y137736D01*
X39996Y137709D01*
X40100Y137700D01*
X43900D01*
X44004Y137709D01*
X44105Y137736D01*
X44200Y137780D01*
X44286Y137840D01*
X44360Y137914D01*
X44420Y138000D01*
X44464Y138095D01*
X44491Y138196D01*
X44500Y138300D01*
X44491Y138404D01*
X44464Y138505D01*
X44420Y138600D01*
X44360Y138686D01*
X44286Y138760D01*
X44200Y138820D01*
X44105Y138864D01*
X44004Y138891D01*
X43900Y138900D01*
X40100D01*
X39996Y138891D01*
X39895Y138864D01*
X39800Y138820D01*
X39714Y138760D01*
X39640Y138686D01*
X39596Y138623D01*
Y145377D01*
X39640Y145314D01*
X39714Y145240D01*
X39800Y145180D01*
X39895Y145136D01*
X39996Y145109D01*
X40100Y145100D01*
X43900D01*
X44004Y145109D01*
X44105Y145136D01*
X44200Y145180D01*
X44286Y145240D01*
X44360Y145314D01*
X44420Y145400D01*
X44464Y145495D01*
X44491Y145596D01*
X44500Y145700D01*
X44491Y145804D01*
X44464Y145905D01*
X44420Y146000D01*
X44360Y146086D01*
X44286Y146160D01*
X44200Y146220D01*
X44105Y146264D01*
X44004Y146291D01*
X43900Y146300D01*
X40100D01*
X39996Y146291D01*
X39895Y146264D01*
X39800Y146220D01*
X39714Y146160D01*
X39640Y146086D01*
X39596Y146023D01*
Y148454D01*
X39850Y148276D01*
X40529Y147959D01*
X41253Y147765D01*
X42000Y147700D01*
X42747Y147765D01*
X43471Y147959D01*
X44150Y148276D01*
X44764Y148706D01*
X45000Y148942D01*
Y126222D01*
G37*
G36*
Y96222D02*X44750Y96397D01*
X44039Y96729D01*
X43281Y96932D01*
X42500Y97000D01*
X41719Y96932D01*
X40961Y96729D01*
X40250Y96397D01*
X39607Y95947D01*
X39596Y95936D01*
Y119064D01*
X39607Y119053D01*
X40250Y118603D01*
X40961Y118271D01*
X41719Y118068D01*
X42500Y118000D01*
X43281Y118068D01*
X44039Y118271D01*
X44750Y118603D01*
X45000Y118778D01*
Y96222D01*
G37*
G36*
Y4D02*X39596D01*
Y33735D01*
X40000Y33700D01*
X40747Y33765D01*
X41471Y33959D01*
X42150Y34276D01*
X42764Y34706D01*
X43294Y35236D01*
X43724Y35850D01*
X44041Y36529D01*
X44235Y37253D01*
X44300Y38000D01*
X44235Y38747D01*
X44041Y39471D01*
X43724Y40150D01*
X43294Y40764D01*
X42764Y41294D01*
X42150Y41724D01*
X41471Y42041D01*
X40747Y42235D01*
X40000Y42300D01*
X39596Y42265D01*
Y58420D01*
X40343Y58485D01*
X41067Y58679D01*
X41746Y58996D01*
X42360Y59426D01*
X42890Y59956D01*
X43320Y60570D01*
X43637Y61249D01*
X43831Y61973D01*
X43896Y62720D01*
X43831Y63467D01*
X43637Y64191D01*
X43320Y64870D01*
X42890Y65484D01*
X42360Y66014D01*
X41746Y66444D01*
X41067Y66761D01*
X40343Y66955D01*
X39596Y67020D01*
Y89064D01*
X39607Y89053D01*
X40250Y88603D01*
X40961Y88271D01*
X41719Y88068D01*
X42500Y88000D01*
X43281Y88068D01*
X44039Y88271D01*
X44750Y88603D01*
X45000Y88778D01*
Y79800D01*
X44253Y79735D01*
X43529Y79541D01*
X42850Y79224D01*
X42236Y78794D01*
X41706Y78264D01*
X41276Y77650D01*
X40959Y76971D01*
X40765Y76247D01*
X40700Y75500D01*
X40765Y74753D01*
X40959Y74029D01*
X41276Y73350D01*
X41706Y72736D01*
X42236Y72206D01*
X42850Y71776D01*
X43529Y71459D01*
X44253Y71265D01*
X45000Y71200D01*
Y54167D01*
X44747Y54235D01*
X44000Y54300D01*
X43253Y54235D01*
X42529Y54041D01*
X41850Y53724D01*
X41236Y53294D01*
X40706Y52764D01*
X40276Y52150D01*
X39959Y51471D01*
X39765Y50747D01*
X39700Y50000D01*
X39765Y49253D01*
X39959Y48529D01*
X40276Y47850D01*
X40706Y47236D01*
X41236Y46706D01*
X41850Y46276D01*
X42529Y45959D01*
X43253Y45765D01*
X44000Y45700D01*
X44747Y45765D01*
X45000Y45833D01*
Y29300D01*
X44253Y29235D01*
X43529Y29041D01*
X42850Y28724D01*
X42236Y28294D01*
X41706Y27764D01*
X41276Y27150D01*
X40959Y26471D01*
X40765Y25747D01*
X40700Y25000D01*
X40765Y24253D01*
X40959Y23529D01*
X41276Y22850D01*
X41706Y22236D01*
X42236Y21706D01*
X42850Y21276D01*
X43529Y20959D01*
X44253Y20765D01*
X45000Y20700D01*
Y4D01*
G37*
G36*
X39596Y175004D02*X45000D01*
Y155058D01*
X44764Y155294D01*
X44150Y155724D01*
X43471Y156041D01*
X42747Y156235D01*
X42000Y156300D01*
X41253Y156235D01*
X40529Y156041D01*
X39850Y155724D01*
X39596Y155546D01*
Y175004D01*
G37*
G36*
X38300Y34066D02*X38529Y33959D01*
X39253Y33765D01*
X39596Y33735D01*
Y4D01*
X38300D01*
Y34066D01*
G37*
G36*
Y58632D02*X38849Y58485D01*
X39596Y58420D01*
Y42265D01*
X39253Y42235D01*
X38529Y42041D01*
X38300Y41934D01*
Y58632D01*
G37*
G36*
Y90899D02*X38603Y90250D01*
X39053Y89607D01*
X39596Y89064D01*
Y67020D01*
X38849Y66955D01*
X38300Y66808D01*
Y72745D01*
X38724Y73350D01*
X39041Y74029D01*
X39235Y74753D01*
X39300Y75500D01*
X39235Y76247D01*
X39041Y76971D01*
X38724Y77650D01*
X38300Y78255D01*
Y90899D01*
G37*
G36*
Y120899D02*X38603Y120250D01*
X39053Y119607D01*
X39596Y119064D01*
Y95936D01*
X39053Y95393D01*
X38603Y94750D01*
X38300Y94101D01*
Y120899D01*
G37*
G36*
Y149816D02*X38706Y149236D01*
X39236Y148706D01*
X39596Y148454D01*
Y146023D01*
X39580Y146000D01*
X39536Y145905D01*
X39509Y145804D01*
X39500Y145700D01*
X39509Y145596D01*
X39536Y145495D01*
X39580Y145400D01*
X39596Y145377D01*
Y138623D01*
X39580Y138600D01*
X39536Y138505D01*
X39509Y138404D01*
X39500Y138300D01*
X39509Y138196D01*
X39536Y138095D01*
X39580Y138000D01*
X39596Y137977D01*
Y125936D01*
X39053Y125393D01*
X38603Y124750D01*
X38300Y124101D01*
Y139500D01*
X38404Y139509D01*
X38505Y139536D01*
X38600Y139580D01*
X38686Y139640D01*
X38760Y139714D01*
X38820Y139800D01*
X38864Y139895D01*
X38891Y139996D01*
X38900Y140100D01*
Y143900D01*
X38891Y144004D01*
X38864Y144105D01*
X38820Y144200D01*
X38760Y144286D01*
X38686Y144360D01*
X38600Y144420D01*
X38505Y144464D01*
X38404Y144491D01*
X38300Y144500D01*
Y149816D01*
G37*
G36*
Y175004D02*X39596D01*
Y155546D01*
X39236Y155294D01*
X38706Y154764D01*
X38300Y154184D01*
Y175004D01*
G37*
G36*
Y41934D02*X37850Y41724D01*
X37236Y41294D01*
X36706Y40764D01*
X36276Y40150D01*
X35959Y39471D01*
X35765Y38747D01*
X35700Y38000D01*
X35765Y37253D01*
X35959Y36529D01*
X36276Y35850D01*
X36706Y35236D01*
X37236Y34706D01*
X37850Y34276D01*
X38300Y34066D01*
Y4D01*
X34000D01*
Y45700D01*
X34747Y45765D01*
X35471Y45959D01*
X36150Y46276D01*
X36764Y46706D01*
X37294Y47236D01*
X37724Y47850D01*
X38041Y48529D01*
X38235Y49253D01*
X38300Y50000D01*
Y41934D01*
G37*
G36*
Y66808D02*X38125Y66761D01*
X37446Y66444D01*
X36832Y66014D01*
X36302Y65484D01*
X35872Y64870D01*
X35555Y64191D01*
X35361Y63467D01*
X35296Y62720D01*
X35361Y61973D01*
X35555Y61249D01*
X35872Y60570D01*
X36302Y59956D01*
X36832Y59426D01*
X37446Y58996D01*
X38125Y58679D01*
X38300Y58632D01*
Y50000D01*
X38235Y50747D01*
X38041Y51471D01*
X37724Y52150D01*
X37294Y52764D01*
X36764Y53294D01*
X36150Y53724D01*
X35471Y54041D01*
X34747Y54235D01*
X34000Y54300D01*
Y71333D01*
X34253Y71265D01*
X35000Y71200D01*
X35747Y71265D01*
X36471Y71459D01*
X37150Y71776D01*
X37764Y72206D01*
X38294Y72736D01*
X38300Y72745D01*
Y66808D01*
G37*
G36*
X34000Y175004D02*X38300D01*
Y154184D01*
X38276Y154150D01*
X37959Y153471D01*
X37765Y152747D01*
X37700Y152000D01*
X37765Y151253D01*
X37959Y150529D01*
X38276Y149850D01*
X38300Y149816D01*
Y144500D01*
X38196Y144491D01*
X38095Y144464D01*
X38000Y144420D01*
X37914Y144360D01*
X37840Y144286D01*
X37780Y144200D01*
X37736Y144105D01*
X37709Y144004D01*
X37700Y143900D01*
Y140100D01*
X37709Y139996D01*
X37736Y139895D01*
X37780Y139800D01*
X37840Y139714D01*
X37914Y139640D01*
X38000Y139580D01*
X38095Y139536D01*
X38196Y139509D01*
X38300Y139500D01*
Y124101D01*
X38271Y124039D01*
X38068Y123281D01*
X38000Y122500D01*
X38068Y121719D01*
X38271Y120961D01*
X38300Y120899D01*
Y94101D01*
X38271Y94039D01*
X38068Y93281D01*
X38000Y92500D01*
X38068Y91719D01*
X38271Y90961D01*
X38300Y90899D01*
Y78255D01*
X38294Y78264D01*
X37764Y78794D01*
X37150Y79224D01*
X36471Y79541D01*
X35747Y79735D01*
X35000Y79800D01*
X34253Y79735D01*
X34000Y79667D01*
Y88261D01*
X34039Y88271D01*
X34750Y88603D01*
X35393Y89053D01*
X35947Y89607D01*
X36397Y90250D01*
X36729Y90961D01*
X36932Y91719D01*
X37000Y92500D01*
X36932Y93281D01*
X36729Y94039D01*
X36397Y94750D01*
X35947Y95393D01*
X35393Y95947D01*
X34750Y96397D01*
X34039Y96729D01*
X34000Y96739D01*
Y118261D01*
X34039Y118271D01*
X34750Y118603D01*
X35393Y119053D01*
X35947Y119607D01*
X36397Y120250D01*
X36729Y120961D01*
X36932Y121719D01*
X37000Y122500D01*
X36932Y123281D01*
X36729Y124039D01*
X36397Y124750D01*
X35947Y125393D01*
X35393Y125947D01*
X34750Y126397D01*
X34039Y126729D01*
X34000Y126739D01*
Y175004D01*
G37*
G36*
X29637Y158468D02*X29722Y158247D01*
X29973Y157364D01*
X30145Y156462D01*
X30235Y155549D01*
X30243Y154631D01*
X30169Y153716D01*
X30013Y152811D01*
X29777Y151924D01*
X29637Y151540D01*
Y158468D01*
G37*
G36*
Y23468D02*X29722Y23247D01*
X29973Y22364D01*
X30145Y21462D01*
X30235Y20549D01*
X30243Y19631D01*
X30169Y18716D01*
X30013Y17811D01*
X29777Y16924D01*
X29637Y16540D01*
Y23468D01*
G37*
G36*
Y89032D02*X30250Y88603D01*
X30961Y88271D01*
X31719Y88068D01*
X32500Y88000D01*
X33281Y88068D01*
X34000Y88261D01*
Y79667D01*
X33529Y79541D01*
X32850Y79224D01*
X32236Y78794D01*
X31706Y78264D01*
X31276Y77650D01*
X30959Y76971D01*
X30765Y76247D01*
X30700Y75500D01*
X30765Y74753D01*
X30959Y74029D01*
X31276Y73350D01*
X31706Y72736D01*
X32236Y72206D01*
X32850Y71776D01*
X33529Y71459D01*
X34000Y71333D01*
Y54300D01*
X33253Y54235D01*
X32529Y54041D01*
X31850Y53724D01*
X31236Y53294D01*
X30706Y52764D01*
X30276Y52150D01*
X29959Y51471D01*
X29765Y50747D01*
X29700Y50000D01*
X29765Y49253D01*
X29959Y48529D01*
X30276Y47850D01*
X30706Y47236D01*
X31236Y46706D01*
X31850Y46276D01*
X32529Y45959D01*
X33253Y45765D01*
X34000Y45700D01*
Y4D01*
X29637D01*
Y13821D01*
X30134Y14672D01*
X30570Y15600D01*
X30922Y16564D01*
X31185Y17555D01*
X31359Y18565D01*
X31442Y19588D01*
X31433Y20613D01*
X31332Y21634D01*
X31141Y22641D01*
X30860Y23627D01*
X30492Y24584D01*
X30040Y25505D01*
X29637Y26167D01*
Y58424D01*
X30343Y58485D01*
X31067Y58679D01*
X31746Y58996D01*
X32360Y59426D01*
X32890Y59956D01*
X33320Y60570D01*
X33637Y61249D01*
X33831Y61973D01*
X33896Y62720D01*
X33831Y63467D01*
X33637Y64191D01*
X33320Y64870D01*
X32890Y65484D01*
X32360Y66014D01*
X31746Y66444D01*
X31067Y66761D01*
X30343Y66955D01*
X29637Y67016D01*
Y89032D01*
G37*
G36*
Y119032D02*X30250Y118603D01*
X30961Y118271D01*
X31719Y118068D01*
X32500Y118000D01*
X33281Y118068D01*
X34000Y118261D01*
Y96739D01*
X33281Y96932D01*
X32500Y97000D01*
X31719Y96932D01*
X30961Y96729D01*
X30250Y96397D01*
X29637Y95968D01*
Y119032D01*
G37*
G36*
Y175004D02*X34000D01*
Y126739D01*
X33281Y126932D01*
X32500Y127000D01*
X31719Y126932D01*
X30961Y126729D01*
X30250Y126397D01*
X29637Y125968D01*
Y148821D01*
X30134Y149672D01*
X30570Y150600D01*
X30922Y151564D01*
X31185Y152555D01*
X31359Y153565D01*
X31442Y154588D01*
X31433Y155613D01*
X31332Y156634D01*
X31141Y157641D01*
X30860Y158627D01*
X30492Y159584D01*
X30040Y160505D01*
X29637Y161167D01*
Y175004D01*
G37*
G36*
X25000D02*X29637D01*
Y161167D01*
X29507Y161381D01*
X28898Y162206D01*
X28899Y162207D01*
X28826Y162282D01*
X28742Y162344D01*
X28647Y162390D01*
X28547Y162419D01*
X28443Y162430D01*
X28338Y162422D01*
X28237Y162397D01*
X28141Y162355D01*
X28054Y162296D01*
X27979Y162223D01*
X27917Y162139D01*
X27871Y162044D01*
X27842Y161944D01*
X27831Y161840D01*
X27839Y161735D01*
X27864Y161634D01*
X27906Y161538D01*
X27965Y161451D01*
X28510Y160712D01*
X28987Y159928D01*
X29392Y159104D01*
X29637Y158468D01*
Y151540D01*
X29462Y151061D01*
X29072Y150231D01*
X28609Y149438D01*
X28077Y148690D01*
X28076Y148691D01*
X28019Y148603D01*
X27978Y148507D01*
X27954Y148405D01*
X27949Y148300D01*
X27962Y148196D01*
X27992Y148096D01*
X28040Y148003D01*
X28102Y147919D01*
X28179Y147848D01*
X28267Y147791D01*
X28363Y147750D01*
X28465Y147726D01*
X28570Y147721D01*
X28674Y147734D01*
X28774Y147764D01*
X28867Y147812D01*
X28951Y147874D01*
X29022Y147951D01*
X29617Y148787D01*
X29637Y148821D01*
Y125968D01*
X29607Y125947D01*
X29053Y125393D01*
X28603Y124750D01*
X28271Y124039D01*
X28068Y123281D01*
X28000Y122500D01*
X28068Y121719D01*
X28271Y120961D01*
X28603Y120250D01*
X29053Y119607D01*
X29607Y119053D01*
X29637Y119032D01*
Y95968D01*
X29607Y95947D01*
X29053Y95393D01*
X28603Y94750D01*
X28271Y94039D01*
X28068Y93281D01*
X28000Y92500D01*
X28068Y91719D01*
X28271Y90961D01*
X28603Y90250D01*
X29053Y89607D01*
X29607Y89053D01*
X29637Y89032D01*
Y67016D01*
X29596Y67020D01*
X28849Y66955D01*
X28125Y66761D01*
X27446Y66444D01*
X26832Y66014D01*
X26302Y65484D01*
X25872Y64870D01*
X25555Y64191D01*
X25361Y63467D01*
X25296Y62720D01*
X25361Y61973D01*
X25555Y61249D01*
X25872Y60570D01*
X26302Y59956D01*
X26832Y59426D01*
X27446Y58996D01*
X28125Y58679D01*
X28849Y58485D01*
X29596Y58420D01*
X29637Y58424D01*
Y26167D01*
X29507Y26381D01*
X28898Y27206D01*
X28899Y27207D01*
X28826Y27282D01*
X28742Y27344D01*
X28647Y27390D01*
X28547Y27419D01*
X28443Y27430D01*
X28338Y27422D01*
X28237Y27397D01*
X28141Y27355D01*
X28054Y27296D01*
X27979Y27223D01*
X27917Y27139D01*
X27871Y27044D01*
X27842Y26944D01*
X27831Y26840D01*
X27839Y26735D01*
X27864Y26634D01*
X27906Y26538D01*
X27965Y26451D01*
X28510Y25712D01*
X28987Y24928D01*
X29392Y24104D01*
X29637Y23468D01*
Y16540D01*
X29462Y16061D01*
X29072Y15231D01*
X28609Y14438D01*
X28077Y13690D01*
X28076Y13691D01*
X28019Y13603D01*
X27978Y13507D01*
X27954Y13405D01*
X27949Y13300D01*
X27962Y13196D01*
X27992Y13096D01*
X28040Y13003D01*
X28102Y12919D01*
X28179Y12848D01*
X28267Y12791D01*
X28363Y12750D01*
X28465Y12726D01*
X28570Y12721D01*
X28674Y12734D01*
X28774Y12764D01*
X28867Y12812D01*
X28951Y12874D01*
X29022Y12951D01*
X29617Y13787D01*
X29637Y13821D01*
Y4D01*
X25000D01*
Y9713D01*
X25504Y9960D01*
X26380Y10493D01*
X27205Y11102D01*
X27206Y11101D01*
X27281Y11174D01*
X27343Y11258D01*
X27389Y11353D01*
X27418Y11453D01*
X27429Y11557D01*
X27421Y11662D01*
X27396Y11763D01*
X27354Y11859D01*
X27295Y11946D01*
X27222Y12021D01*
X27138Y12083D01*
X27043Y12129D01*
X26943Y12158D01*
X26839Y12169D01*
X26734Y12161D01*
X26633Y12136D01*
X26537Y12094D01*
X26450Y12035D01*
X25711Y11490D01*
X25000Y11057D01*
Y28938D01*
X25562Y28610D01*
X26310Y28078D01*
X26309Y28077D01*
X26397Y28020D01*
X26493Y27979D01*
X26595Y27955D01*
X26700Y27950D01*
X26804Y27963D01*
X26904Y27993D01*
X26997Y28041D01*
X27081Y28103D01*
X27152Y28180D01*
X27209Y28268D01*
X27250Y28364D01*
X27274Y28466D01*
X27279Y28571D01*
X27266Y28675D01*
X27236Y28775D01*
X27188Y28868D01*
X27126Y28952D01*
X27049Y29023D01*
X26213Y29618D01*
X25328Y30135D01*
X25000Y30289D01*
Y71200D01*
X25747Y71265D01*
X26471Y71459D01*
X27150Y71776D01*
X27764Y72206D01*
X28294Y72736D01*
X28724Y73350D01*
X29041Y74029D01*
X29235Y74753D01*
X29300Y75500D01*
X29235Y76247D01*
X29041Y76971D01*
X28724Y77650D01*
X28294Y78264D01*
X27764Y78794D01*
X27150Y79224D01*
X26471Y79541D01*
X25747Y79735D01*
X25000Y79800D01*
Y88778D01*
X25393Y89053D01*
X25947Y89607D01*
X26397Y90250D01*
X26729Y90961D01*
X26932Y91719D01*
X27000Y92500D01*
X26932Y93281D01*
X26729Y94039D01*
X26397Y94750D01*
X25947Y95393D01*
X25393Y95947D01*
X25000Y96222D01*
Y118778D01*
X25393Y119053D01*
X25947Y119607D01*
X26397Y120250D01*
X26729Y120961D01*
X26932Y121719D01*
X27000Y122500D01*
X26932Y123281D01*
X26729Y124039D01*
X26397Y124750D01*
X25947Y125393D01*
X25393Y125947D01*
X25000Y126222D01*
Y144713D01*
X25504Y144960D01*
X26380Y145493D01*
X27205Y146102D01*
X27206Y146101D01*
X27281Y146174D01*
X27343Y146258D01*
X27389Y146353D01*
X27418Y146453D01*
X27429Y146557D01*
X27421Y146662D01*
X27396Y146763D01*
X27354Y146859D01*
X27295Y146946D01*
X27222Y147021D01*
X27138Y147083D01*
X27043Y147129D01*
X26943Y147158D01*
X26839Y147169D01*
X26734Y147161D01*
X26633Y147136D01*
X26537Y147094D01*
X26450Y147035D01*
X25711Y146490D01*
X25000Y146057D01*
Y163938D01*
X25562Y163610D01*
X26310Y163078D01*
X26309Y163077D01*
X26397Y163020D01*
X26493Y162979D01*
X26595Y162955D01*
X26700Y162950D01*
X26804Y162963D01*
X26904Y162993D01*
X26997Y163041D01*
X27081Y163103D01*
X27152Y163180D01*
X27209Y163268D01*
X27250Y163364D01*
X27274Y163466D01*
X27279Y163571D01*
X27266Y163675D01*
X27236Y163775D01*
X27188Y163868D01*
X27126Y163952D01*
X27049Y164023D01*
X26213Y164618D01*
X25328Y165135D01*
X25000Y165289D01*
Y175004D01*
G37*
G36*
X10363D02*X25000D01*
Y165289D01*
X24400Y165571D01*
X23436Y165923D01*
X22445Y166186D01*
X21435Y166360D01*
X20412Y166443D01*
X19387Y166434D01*
X18366Y166333D01*
X17359Y166142D01*
X16373Y165861D01*
X15416Y165493D01*
X14495Y165041D01*
X13619Y164508D01*
X12794Y163899D01*
X12793Y163900D01*
X12718Y163827D01*
X12656Y163743D01*
X12610Y163648D01*
X12581Y163548D01*
X12570Y163444D01*
X12578Y163339D01*
X12603Y163238D01*
X12645Y163142D01*
X12704Y163055D01*
X12777Y162980D01*
X12861Y162918D01*
X12956Y162872D01*
X13056Y162843D01*
X13160Y162832D01*
X13265Y162840D01*
X13366Y162865D01*
X13462Y162907D01*
X13549Y162966D01*
X14288Y163511D01*
X15072Y163988D01*
X15896Y164393D01*
X16753Y164723D01*
X17636Y164974D01*
X18538Y165146D01*
X19451Y165236D01*
X20369Y165244D01*
X21284Y165170D01*
X22189Y165014D01*
X23076Y164778D01*
X23939Y164463D01*
X24769Y164073D01*
X25000Y163938D01*
Y146057D01*
X24927Y146013D01*
X24103Y145608D01*
X23246Y145278D01*
X22363Y145027D01*
X21461Y144855D01*
X20548Y144765D01*
X19630Y144757D01*
X18715Y144831D01*
X17810Y144987D01*
X16923Y145223D01*
X16060Y145538D01*
X15230Y145928D01*
X14437Y146391D01*
X13689Y146923D01*
X13690Y146924D01*
X13602Y146981D01*
X13506Y147022D01*
X13404Y147046D01*
X13299Y147051D01*
X13195Y147038D01*
X13095Y147008D01*
X13002Y146960D01*
X12918Y146898D01*
X12847Y146821D01*
X12790Y146733D01*
X12749Y146637D01*
X12725Y146535D01*
X12720Y146430D01*
X12733Y146326D01*
X12763Y146226D01*
X12811Y146133D01*
X12873Y146049D01*
X12950Y145978D01*
X13786Y145383D01*
X14671Y144866D01*
X15599Y144430D01*
X16563Y144078D01*
X17554Y143815D01*
X18564Y143641D01*
X19587Y143558D01*
X20612Y143567D01*
X21633Y143668D01*
X22640Y143859D01*
X23626Y144140D01*
X24583Y144508D01*
X25000Y144713D01*
Y126222D01*
X24750Y126397D01*
X24039Y126729D01*
X23281Y126932D01*
X22500Y127000D01*
X21719Y126932D01*
X20961Y126729D01*
X20250Y126397D01*
X19607Y125947D01*
X19053Y125393D01*
X18603Y124750D01*
X18271Y124039D01*
X18068Y123281D01*
X18000Y122500D01*
X18068Y121719D01*
X18271Y120961D01*
X18603Y120250D01*
X19053Y119607D01*
X19607Y119053D01*
X20250Y118603D01*
X20961Y118271D01*
X21719Y118068D01*
X22500Y118000D01*
X23281Y118068D01*
X24039Y118271D01*
X24750Y118603D01*
X25000Y118778D01*
Y96222D01*
X24750Y96397D01*
X24039Y96729D01*
X23281Y96932D01*
X22500Y97000D01*
X21719Y96932D01*
X20961Y96729D01*
X20250Y96397D01*
X19607Y95947D01*
X19053Y95393D01*
X18603Y94750D01*
X18271Y94039D01*
X18068Y93281D01*
X18000Y92500D01*
X18068Y91719D01*
X18271Y90961D01*
X18603Y90250D01*
X19053Y89607D01*
X19607Y89053D01*
X20250Y88603D01*
X20961Y88271D01*
X21719Y88068D01*
X22500Y88000D01*
X23281Y88068D01*
X24039Y88271D01*
X24750Y88603D01*
X25000Y88778D01*
Y79800D01*
X24253Y79735D01*
X23529Y79541D01*
X22850Y79224D01*
X22236Y78794D01*
X21706Y78264D01*
X21276Y77650D01*
X20959Y76971D01*
X20765Y76247D01*
X20700Y75500D01*
X20765Y74753D01*
X20959Y74029D01*
X21276Y73350D01*
X21706Y72736D01*
X22236Y72206D01*
X22850Y71776D01*
X23529Y71459D01*
X24253Y71265D01*
X25000Y71200D01*
Y30289D01*
X24400Y30571D01*
X23436Y30923D01*
X22445Y31186D01*
X21435Y31360D01*
X20412Y31443D01*
X19387Y31434D01*
X18366Y31333D01*
X17359Y31142D01*
X16373Y30861D01*
X15416Y30493D01*
X14495Y30041D01*
X13619Y29508D01*
X12794Y28899D01*
X12793Y28900D01*
X12718Y28827D01*
X12656Y28743D01*
X12610Y28648D01*
X12581Y28548D01*
X12570Y28444D01*
X12578Y28339D01*
X12603Y28238D01*
X12645Y28142D01*
X12704Y28055D01*
X12777Y27980D01*
X12861Y27918D01*
X12956Y27872D01*
X13056Y27843D01*
X13160Y27832D01*
X13265Y27840D01*
X13366Y27865D01*
X13462Y27907D01*
X13549Y27966D01*
X14288Y28511D01*
X15072Y28988D01*
X15896Y29393D01*
X16753Y29723D01*
X17636Y29974D01*
X18538Y30146D01*
X19451Y30236D01*
X20369Y30244D01*
X21284Y30170D01*
X22189Y30014D01*
X23076Y29778D01*
X23939Y29463D01*
X24769Y29073D01*
X25000Y28938D01*
Y11057D01*
X24927Y11013D01*
X24103Y10608D01*
X23246Y10278D01*
X22363Y10027D01*
X21461Y9855D01*
X20548Y9765D01*
X19630Y9757D01*
X18715Y9831D01*
X17810Y9987D01*
X16923Y10223D01*
X16060Y10538D01*
X15230Y10928D01*
X14437Y11391D01*
X13689Y11923D01*
X13690Y11924D01*
X13602Y11981D01*
X13506Y12022D01*
X13404Y12046D01*
X13299Y12051D01*
X13195Y12038D01*
X13095Y12008D01*
X13002Y11960D01*
X12918Y11898D01*
X12847Y11821D01*
X12790Y11733D01*
X12749Y11637D01*
X12725Y11535D01*
X12720Y11430D01*
X12733Y11326D01*
X12763Y11226D01*
X12811Y11133D01*
X12873Y11049D01*
X12950Y10978D01*
X13786Y10383D01*
X14671Y9866D01*
X15599Y9430D01*
X16563Y9078D01*
X17554Y8815D01*
X18564Y8641D01*
X19587Y8558D01*
X20612Y8567D01*
X21633Y8668D01*
X22640Y8859D01*
X23626Y9140D01*
X24583Y9508D01*
X25000Y9713D01*
Y4D01*
X10363D01*
Y13832D01*
X10492Y13620D01*
X11101Y12795D01*
X11100Y12794D01*
X11173Y12719D01*
X11257Y12657D01*
X11352Y12611D01*
X11452Y12582D01*
X11556Y12571D01*
X11661Y12579D01*
X11762Y12604D01*
X11858Y12646D01*
X11945Y12705D01*
X12020Y12778D01*
X12082Y12862D01*
X12128Y12957D01*
X12157Y13057D01*
X12168Y13161D01*
X12160Y13266D01*
X12135Y13367D01*
X12093Y13463D01*
X12034Y13550D01*
X11489Y14289D01*
X11012Y15073D01*
X10607Y15897D01*
X10363Y16531D01*
Y23463D01*
X10537Y23940D01*
X10927Y24770D01*
X11390Y25563D01*
X11922Y26311D01*
X11923Y26310D01*
X11980Y26398D01*
X12021Y26494D01*
X12045Y26596D01*
X12050Y26701D01*
X12037Y26805D01*
X12007Y26905D01*
X11959Y26998D01*
X11897Y27082D01*
X11820Y27153D01*
X11732Y27210D01*
X11636Y27251D01*
X11534Y27275D01*
X11429Y27280D01*
X11325Y27267D01*
X11225Y27237D01*
X11132Y27189D01*
X11048Y27127D01*
X10977Y27050D01*
X10382Y26214D01*
X10363Y26181D01*
Y44381D01*
X10634Y44405D01*
X11248Y44570D01*
X11825Y44839D01*
X12346Y45204D01*
X12796Y45654D01*
X13161Y46175D01*
X13430Y46752D01*
X13595Y47366D01*
X13650Y48000D01*
X13595Y48634D01*
X13430Y49248D01*
X13161Y49825D01*
X12796Y50346D01*
X12346Y50796D01*
X11825Y51161D01*
X11248Y51430D01*
X10634Y51595D01*
X10363Y51619D01*
Y148832D01*
X10492Y148620D01*
X11101Y147795D01*
X11100Y147794D01*
X11173Y147719D01*
X11257Y147657D01*
X11352Y147611D01*
X11452Y147582D01*
X11556Y147571D01*
X11661Y147579D01*
X11762Y147604D01*
X11858Y147646D01*
X11945Y147705D01*
X12020Y147778D01*
X12082Y147862D01*
X12128Y147957D01*
X12157Y148057D01*
X12168Y148161D01*
X12160Y148266D01*
X12135Y148367D01*
X12093Y148463D01*
X12034Y148550D01*
X11489Y149289D01*
X11012Y150073D01*
X10607Y150897D01*
X10363Y151531D01*
Y158463D01*
X10537Y158940D01*
X10927Y159770D01*
X11390Y160563D01*
X11922Y161311D01*
X11923Y161310D01*
X11980Y161398D01*
X12021Y161494D01*
X12045Y161596D01*
X12050Y161701D01*
X12037Y161805D01*
X12007Y161905D01*
X11959Y161998D01*
X11897Y162082D01*
X11820Y162153D01*
X11732Y162210D01*
X11636Y162251D01*
X11534Y162275D01*
X11429Y162280D01*
X11325Y162267D01*
X11225Y162237D01*
X11132Y162189D01*
X11048Y162127D01*
X10977Y162050D01*
X10382Y161214D01*
X10363Y161181D01*
Y175004D01*
G37*
G36*
Y151531D02*X10277Y151754D01*
X10026Y152637D01*
X9854Y153539D01*
X9764Y154452D01*
X9756Y155370D01*
X9830Y156285D01*
X9986Y157190D01*
X10222Y158077D01*
X10363Y158463D01*
Y151531D01*
G37*
G36*
Y16531D02*X10277Y16754D01*
X10026Y17637D01*
X9854Y18539D01*
X9764Y19452D01*
X9756Y20370D01*
X9830Y21285D01*
X9986Y22190D01*
X10222Y23077D01*
X10363Y23463D01*
Y16531D01*
G37*
G36*
X-3Y4D02*Y175004D01*
X10363D01*
Y161181D01*
X9865Y160329D01*
X9429Y159401D01*
X9077Y158437D01*
X8814Y157446D01*
X8640Y156436D01*
X8557Y155413D01*
X8566Y154388D01*
X8667Y153367D01*
X8858Y152360D01*
X9139Y151374D01*
X9507Y150417D01*
X9959Y149496D01*
X10363Y148832D01*
Y51619D01*
X10000Y51650D01*
X9366Y51595D01*
X8752Y51430D01*
X8175Y51161D01*
X7654Y50796D01*
X7204Y50346D01*
X6839Y49825D01*
X6570Y49248D01*
X6405Y48634D01*
X6350Y48000D01*
X6405Y47366D01*
X6570Y46752D01*
X6839Y46175D01*
X7204Y45654D01*
X7654Y45204D01*
X8175Y44839D01*
X8752Y44570D01*
X9366Y44405D01*
X10000Y44350D01*
X10363Y44381D01*
Y26181D01*
X9865Y25329D01*
X9429Y24401D01*
X9077Y23437D01*
X8814Y22446D01*
X8640Y21436D01*
X8557Y20413D01*
X8566Y19388D01*
X8667Y18367D01*
X8858Y17360D01*
X9139Y16374D01*
X9507Y15417D01*
X9959Y14496D01*
X10363Y13832D01*
Y4D01*
X-3D01*
G37*
G54D13*X62500Y122500D03*
X52500D03*
X42500D03*
X32500D03*
X22500D03*
Y92500D03*
X32500D03*
X42500D03*
X52500D03*
G54D14*G36*
X38900Y145100D02*Y138900D01*
X45100D01*
Y145100D01*
X38900D01*
G37*
G54D15*X52000Y142000D03*
X62000D03*
X42000Y152000D03*
X52000D03*
X62000D03*
G54D13*X122500Y122500D03*
X112500D03*
X102500D03*
X92500D03*
G54D14*G36*
X149500Y125500D02*Y119500D01*
X155500D01*
Y125500D01*
X149500D01*
G37*
G54D13*X142500Y122500D03*
X132500D03*
X82500D03*
G54D16*X92500Y135000D03*
G54D14*G36*
X108401Y145600D02*Y139400D01*
X114601D01*
Y145600D01*
X108401D01*
G37*
G54D15*X121501Y142500D03*
X131501D03*
G54D16*X82500Y135000D03*
G54D17*X92500Y150000D03*
X84626D03*
G54D15*X111501Y152500D03*
X121501D03*
X131501D03*
G54D13*X72500Y122500D03*
X62500Y92500D03*
X72500D03*
X82500D03*
G54D17*X77500Y72500D03*
G54D15*X55000Y75500D03*
X45000D03*
X35000D03*
X25000D03*
G54D13*X92500Y92500D03*
X102500D03*
X112500D03*
X122500D03*
G54D14*G36*
X92000Y43000D02*Y37000D01*
X98000D01*
Y43000D01*
X92000D01*
G37*
G54D13*X105000Y40000D03*
X115000D03*
Y70000D03*
X105000D03*
X95000D03*
G54D16*Y80000D03*
X105000D03*
G54D13*X132500Y92500D03*
X135000Y70000D03*
X125000D03*
X142500Y92500D03*
X152500D03*
X165000Y70000D03*
X155000D03*
X145000D03*
X125000Y40000D03*
X135000D03*
X145000D03*
X155000D03*
X165000D03*
G54D17*X77500Y64626D03*
G54D15*X81000Y12000D03*
X71000D03*
X70000Y38000D03*
X75000Y25000D03*
X65000D03*
X60000Y38000D03*
X50000D03*
X40000D03*
X55000Y25000D03*
X45000D03*
X61000Y12000D03*
X51000D03*
X64000Y50000D03*
X59596Y62720D03*
X49596D03*
X39596D03*
X29596D03*
X54000Y50000D03*
X44000D03*
X34000D03*
G54D18*X20000Y20000D03*
Y155000D03*
X155000Y20000D03*
Y155000D03*
G54D16*X10000Y48000D03*
X149000Y79000D03*
G54D19*G54D20*G54D19*G54D21*G54D20*G54D21*G54D22*G54D20*G54D19*G54D22*G54D20*G54D19*G54D21*G54D19*G54D22*G54D20*G54D23*G54D21*M02*
