G04 start of page 5 for group 3 idx 3 *
G04 Title: logic, Solder *
G04 Creator: pcb 20091103 *
G04 CreationDate: Tue 04 May 2010 04:01:06 PM GMT UTC *
G04 For: srussell *
G04 Format: Gerber/RS-274X *
G04 PCB-Dimensions: 175000 175000 *
G04 PCB-Coordinate-Origin: lower left *
%MOIN*%
%FSLAX25Y25*%
%LNBACK*%
%ADD11C,0.0140*%
%ADD13C,0.0600*%
%ADD14C,0.0200*%
%ADD15C,0.0490*%
%ADD16C,0.0620*%
%ADD17C,0.0500*%
%ADD18C,0.2050*%
%ADD19C,0.0280*%
%ADD20C,0.0250*%
%ADD21C,0.0380*%
%ADD22C,0.0260*%
%ADD23C,0.1250*%
G54D11*X39068Y116000D02*X96000D01*
X102500Y122500D01*
X10000Y48000D02*Y86932D01*
X39068Y116000D01*
X42500Y92500D02*Y92499D01*
Y92500D02*Y92499D01*
X62500Y92500D02*Y92499D01*
Y92500D02*Y92499D01*
X83400Y113400D02*X62500Y92500D01*
X52500Y152500D02*Y152499D01*
Y152500D02*Y152499D01*
Y152500D02*Y152499D01*
X57501Y157501D02*X52500Y152500D01*
X66552Y157501D02*X57501D01*
X142500Y122500D02*Y117600D01*
X142501D02*X142500D01*
X122500Y122500D02*Y122499D01*
Y122500D02*Y122499D01*
Y122500D01*
X115000Y70000D02*X124000Y79000D01*
X149000D02*X124000D01*
X147400Y113399D02*Y113400D01*
X107400Y117600D02*Y117599D01*
X142500Y117600D02*X107400D01*
X147400Y113400D02*X83400D01*
X136353Y137500D02*X123199D01*
X147400Y126453D02*X136353Y137500D01*
X147400Y113400D02*Y126453D01*
X104056Y129007D02*X107402Y125661D01*
Y117604D01*
X106499Y133251D02*X97799Y141951D01*
X82102D01*
X66552Y157501D02*X80225Y143828D01*
D03*
X82102Y141951D02*X80225Y143828D01*
X62500Y142500D02*X76000Y129000D01*
X104000D01*
X121500Y152500D02*Y152499D01*
Y152500D02*Y152499D01*
X123200Y142500D02*X123199D01*
Y137500D02*Y137499D01*
Y142500D02*Y137500D01*
X121500Y142500D02*X123199D01*
X123200D01*
X121500D02*X123199D01*
X121500D01*
X122500Y122500D02*X111749Y133251D01*
X106499D01*
G54D13*X122500Y122500D03*
X112500D03*
X102500D03*
X92500D03*
G54D14*G36*
X149500Y125500D02*Y119500D01*
X155500D01*
Y125500D01*
X149500D01*
G37*
G54D13*X142500Y122500D03*
X132500D03*
X82500D03*
G54D15*X92500Y135000D03*
G54D14*G36*
X108400Y145600D02*Y139400D01*
X114600D01*
Y145600D01*
X108400D01*
G37*
G54D16*X121500Y142500D03*
X131500D03*
G54D15*X82500Y135000D03*
G54D17*X92500Y150000D03*
X84626D03*
G54D16*X111500Y152500D03*
X121500D03*
X131500D03*
G54D13*X132500Y92500D03*
X142500D03*
X152500D03*
X72500Y122500D03*
G54D16*X80000Y12500D03*
X75000Y25000D03*
X65000D03*
X55000D03*
X45000D03*
X70000Y12500D03*
X60000D03*
X50000D03*
X70000Y37500D03*
X60000D03*
X50000D03*
G54D13*X92500Y92500D03*
X102500D03*
X112500D03*
X122500D03*
G54D15*X95000Y80000D03*
X105000D03*
G54D16*X55000Y75000D03*
Y50000D03*
X50000Y62500D03*
X45000Y75000D03*
Y50000D03*
X40000Y62500D03*
Y37500D03*
X35000Y75000D03*
Y50000D03*
X30000Y62500D03*
X25000Y75000D03*
G54D13*X62500Y92500D03*
X72500D03*
X82500D03*
G54D17*X77500Y64626D03*
Y72500D03*
G54D16*X65000Y50000D03*
X60000Y62500D03*
G54D14*G36*
X92000Y43000D02*Y37000D01*
X98000D01*
Y43000D01*
X92000D01*
G37*
G54D13*X105000Y40000D03*
X115000D03*
X125000D03*
Y70000D03*
X115000D03*
X105000D03*
X95000D03*
X135000Y40000D03*
Y70000D03*
X145000Y40000D03*
X155000D03*
X165000D03*
Y70000D03*
X155000D03*
X145000D03*
X62500Y122500D03*
X52500D03*
X42500D03*
X32500D03*
X22500D03*
Y92500D03*
X32500D03*
X42500D03*
X52500D03*
G54D14*G36*
X39400Y145600D02*Y139400D01*
X45600D01*
Y145600D01*
X39400D01*
G37*
G54D16*X52500Y142500D03*
X62500D03*
X42500Y152500D03*
X52500D03*
X62500D03*
G54D15*X10000Y48000D03*
X149000Y79000D03*
G54D18*X20000Y155000D03*
X155000D03*
X20000Y20000D03*
X155000D03*
G54D19*G54D20*G54D21*G54D20*G54D22*G54D21*G54D19*G54D21*G54D19*G54D20*G54D21*G54D19*G54D22*G54D21*G54D19*G54D21*G54D20*G54D23*M02*
