G04 start of page 11 for group -3984 idx -3984 *
G04 Title: logic, fab *
G04 Creator: pcb 20091103 *
G04 CreationDate: Tue 04 May 2010 04:01:06 PM GMT UTC *
G04 For: srussell *
G04 Format: Gerber/RS-274X *
G04 PCB-Dimensions: 175000 175000 *
G04 PCB-Coordinate-Origin: lower left *
%MOIN*%
%FSLAX25Y25*%
%LNFAB*%
%ADD29C,0.0100*%
%ADD30C,0.0080*%
%ADD31C,0.0060*%
G54D30*X18400Y21600D02*X21600D01*
X18400D02*Y18400D01*
X21600D01*
Y21600D02*Y18400D01*
X18400Y156600D02*X21600D01*
X18400D02*Y153400D01*
X21600D01*
Y156600D02*Y153400D01*
X153400Y21600D02*X156600D01*
X153400D02*Y18400D01*
X156600D01*
Y21600D02*Y18400D01*
X153400Y156600D02*X156600D01*
X153400D02*Y153400D01*
X156600D01*
Y156600D02*Y153400D01*
X13400Y187850D02*X16600D01*
X13400D02*Y184650D01*
X16600D01*
Y187850D02*Y184650D01*
G54D31*X135000Y188500D02*Y187750D01*
X136500Y186250D01*
X138000Y187750D01*
Y188500D02*Y187750D01*
X136500Y186250D02*Y182500D01*
X139801Y185500D02*X142051D01*
X139801Y182500D02*X142801D01*
X139801Y188500D02*Y182500D01*
Y188500D02*X142801D01*
X147603D02*X148353Y187750D01*
X145353Y188500D02*X147603D01*
X144603Y187750D02*X145353Y188500D01*
X144603Y187750D02*Y186250D01*
X145353Y185500D01*
X147603D01*
X148353Y184750D01*
Y183250D01*
X147603Y182500D02*X148353Y183250D01*
X145353Y182500D02*X147603D01*
X144603Y183250D02*X145353Y182500D01*
X135000Y179249D02*X150154D01*
X98000Y185500D02*X101000Y188500D01*
X98000Y185500D02*X101750D01*
X101000Y188500D02*Y182500D01*
X98000Y179249D02*X103551D01*
X45000Y183250D02*X45750Y182500D01*
X45000Y187750D02*Y183250D01*
Y187750D02*X45750Y188500D01*
X47250D01*
X48000Y187750D01*
Y183250D01*
X47250Y182500D02*X48000Y183250D01*
X45750Y182500D02*X47250D01*
X45000Y184000D02*X48000Y187000D01*
X49801Y182500D02*X50551D01*
X53103D02*X54603D01*
X53853Y188500D02*Y182500D01*
X52353Y187000D02*X53853Y188500D01*
X56404Y187750D02*X57154Y188500D01*
X59404D01*
X60154Y187750D01*
Y186250D01*
X56404Y182500D02*X60154Y186250D01*
X56404Y182500D02*X60154D01*
X61956Y188500D02*X64956D01*
X61956D02*Y185500D01*
X62706Y186250D01*
X64206D01*
X64956Y185500D01*
Y183250D01*
X64206Y182500D02*X64956Y183250D01*
X62706Y182500D02*X64206D01*
X61956Y183250D02*X62706Y182500D01*
X45000Y179249D02*X66757D01*
X79200Y12500D02*G75*G03X80800Y12500I800J0D01*G01*
G75*G03X79200Y12500I-800J0D01*G01*
X69200D02*G75*G03X70800Y12500I800J0D01*G01*
G75*G03X69200Y12500I-800J0D01*G01*
X59200D02*G75*G03X60800Y12500I800J0D01*G01*
G75*G03X59200Y12500I-800J0D01*G01*
X49200D02*G75*G03X50800Y12500I800J0D01*G01*
G75*G03X49200Y12500I-800J0D01*G01*
X59200Y62500D02*G75*G03X60800Y62500I800J0D01*G01*
G75*G03X59200Y62500I-800J0D01*G01*
X49200D02*G75*G03X50800Y62500I800J0D01*G01*
G75*G03X49200Y62500I-800J0D01*G01*
X39200D02*G75*G03X40800Y62500I800J0D01*G01*
G75*G03X39200Y62500I-800J0D01*G01*
X29200D02*G75*G03X30800Y62500I800J0D01*G01*
G75*G03X29200Y62500I-800J0D01*G01*
X64200Y50000D02*G75*G03X65800Y50000I800J0D01*G01*
G75*G03X64200Y50000I-800J0D01*G01*
X54200D02*G75*G03X55800Y50000I800J0D01*G01*
G75*G03X54200Y50000I-800J0D01*G01*
X44200D02*G75*G03X45800Y50000I800J0D01*G01*
G75*G03X44200Y50000I-800J0D01*G01*
X34200D02*G75*G03X35800Y50000I800J0D01*G01*
G75*G03X34200Y50000I-800J0D01*G01*
X54200Y75000D02*G75*G03X55800Y75000I800J0D01*G01*
G75*G03X54200Y75000I-800J0D01*G01*
X44200D02*G75*G03X45800Y75000I800J0D01*G01*
G75*G03X44200Y75000I-800J0D01*G01*
X34200D02*G75*G03X35800Y75000I800J0D01*G01*
G75*G03X34200Y75000I-800J0D01*G01*
X24200D02*G75*G03X25800Y75000I800J0D01*G01*
G75*G03X24200Y75000I-800J0D01*G01*
X110700Y142500D02*G75*G03X112300Y142500I800J0D01*G01*
G75*G03X110700Y142500I-800J0D01*G01*
Y152500D02*G75*G03X112300Y152500I800J0D01*G01*
G75*G03X110700Y152500I-800J0D01*G01*
X120700Y142500D02*G75*G03X122300Y142500I800J0D01*G01*
G75*G03X120700Y142500I-800J0D01*G01*
Y152500D02*G75*G03X122300Y152500I800J0D01*G01*
G75*G03X120700Y152500I-800J0D01*G01*
X130700Y142500D02*G75*G03X132300Y142500I800J0D01*G01*
G75*G03X130700Y142500I-800J0D01*G01*
Y152500D02*G75*G03X132300Y152500I800J0D01*G01*
G75*G03X130700Y152500I-800J0D01*G01*
X74200Y25000D02*G75*G03X75800Y25000I800J0D01*G01*
G75*G03X74200Y25000I-800J0D01*G01*
X64200D02*G75*G03X65800Y25000I800J0D01*G01*
G75*G03X64200Y25000I-800J0D01*G01*
X54200D02*G75*G03X55800Y25000I800J0D01*G01*
G75*G03X54200Y25000I-800J0D01*G01*
X44200D02*G75*G03X45800Y25000I800J0D01*G01*
G75*G03X44200Y25000I-800J0D01*G01*
X69200Y37500D02*G75*G03X70800Y37500I800J0D01*G01*
G75*G03X69200Y37500I-800J0D01*G01*
X59200D02*G75*G03X60800Y37500I800J0D01*G01*
G75*G03X59200Y37500I-800J0D01*G01*
X49200D02*G75*G03X50800Y37500I800J0D01*G01*
G75*G03X49200Y37500I-800J0D01*G01*
X39200D02*G75*G03X40800Y37500I800J0D01*G01*
G75*G03X39200Y37500I-800J0D01*G01*
X41700Y142500D02*G75*G03X43300Y142500I800J0D01*G01*
G75*G03X41700Y142500I-800J0D01*G01*
Y152500D02*G75*G03X43300Y152500I800J0D01*G01*
G75*G03X41700Y152500I-800J0D01*G01*
X51700Y142500D02*G75*G03X53300Y142500I800J0D01*G01*
G75*G03X51700Y142500I-800J0D01*G01*
Y152500D02*G75*G03X53300Y152500I800J0D01*G01*
G75*G03X51700Y152500I-800J0D01*G01*
X61700Y142500D02*G75*G03X63300Y142500I800J0D01*G01*
G75*G03X61700Y142500I-800J0D01*G01*
Y152500D02*G75*G03X63300Y152500I800J0D01*G01*
G75*G03X61700Y152500I-800J0D01*G01*
X14200Y201250D02*G75*G03X15800Y201250I800J0D01*G01*
G75*G03X14200Y201250I-800J0D01*G01*
X135000Y203500D02*Y202750D01*
X136500Y201250D01*
X138000Y202750D01*
Y203500D02*Y202750D01*
X136500Y201250D02*Y197500D01*
X139801Y200500D02*X142051D01*
X139801Y197500D02*X142801D01*
X139801Y203500D02*Y197500D01*
Y203500D02*X142801D01*
X147603D02*X148353Y202750D01*
X145353Y203500D02*X147603D01*
X144603Y202750D02*X145353Y203500D01*
X144603Y202750D02*Y201250D01*
X145353Y200500D01*
X147603D01*
X148353Y199750D01*
Y198250D01*
X147603Y197500D02*X148353Y198250D01*
X145353Y197500D02*X147603D01*
X144603Y198250D02*X145353Y197500D01*
X135000Y194249D02*X150154D01*
X98000Y202750D02*X98750Y203500D01*
X100250D01*
X101000Y202750D01*
Y198250D01*
X100250Y197500D02*X101000Y198250D01*
X98750Y197500D02*X100250D01*
X98000Y198250D02*X98750Y197500D01*
Y200500D02*X101000D01*
X105051Y203500D02*X105801Y202750D01*
X103551Y203500D02*X105051D01*
X102801Y202750D02*X103551Y203500D01*
X102801Y202750D02*Y198250D01*
X103551Y197500D01*
X105051Y200500D02*X105801Y199750D01*
X102801Y200500D02*X105051D01*
X103551Y197500D02*X105051D01*
X105801Y198250D01*
Y199750D02*Y198250D01*
X98000Y194249D02*X107603D01*
X45000Y198250D02*X45750Y197500D01*
X45000Y202750D02*Y198250D01*
Y202750D02*X45750Y203500D01*
X47250D01*
X48000Y202750D01*
Y198250D01*
X47250Y197500D02*X48000Y198250D01*
X45750Y197500D02*X47250D01*
X45000Y199000D02*X48000Y202000D01*
X49801Y197500D02*X50551D01*
X52353Y198250D02*X53103Y197500D01*
X52353Y202750D02*Y198250D01*
Y202750D02*X53103Y203500D01*
X54603D01*
X55353Y202750D01*
Y198250D01*
X54603Y197500D02*X55353Y198250D01*
X53103Y197500D02*X54603D01*
X52353Y199000D02*X55353Y202000D01*
X57154Y202750D02*X57904Y203500D01*
X59404D01*
X60154Y202750D01*
Y198250D01*
X59404Y197500D02*X60154Y198250D01*
X57904Y197500D02*X59404D01*
X57154Y198250D02*X57904Y197500D01*
Y200500D02*X60154D01*
X61956Y198250D02*X62706Y197500D01*
X61956Y199750D02*Y198250D01*
Y199750D02*X62706Y200500D01*
X64206D01*
X64956Y199750D01*
Y198250D01*
X64206Y197500D02*X64956Y198250D01*
X62706Y197500D02*X64206D01*
X61956Y201250D02*X62706Y200500D01*
X61956Y202750D02*Y201250D01*
Y202750D02*X62706Y203500D01*
X64206D01*
X64956Y202750D01*
Y201250D01*
X64206Y200500D02*X64956Y201250D01*
X45000Y194249D02*X66757D01*
X93800Y41200D02*X96200Y38800D01*
X93800D02*X96200Y41200D01*
X103800D02*X106200Y38800D01*
X103800D02*X106200Y41200D01*
X113800D02*X116200Y38800D01*
X113800D02*X116200Y41200D01*
X123800D02*X126200Y38800D01*
X123800D02*X126200Y41200D01*
X133800D02*X136200Y38800D01*
X133800D02*X136200Y41200D01*
X143800D02*X146200Y38800D01*
X143800D02*X146200Y41200D01*
X153800D02*X156200Y38800D01*
X153800D02*X156200Y41200D01*
X163800D02*X166200Y38800D01*
X163800D02*X166200Y41200D01*
X163800Y71200D02*X166200Y68800D01*
X163800D02*X166200Y71200D01*
X153800D02*X156200Y68800D01*
X153800D02*X156200Y71200D01*
X143800D02*X146200Y68800D01*
X143800D02*X146200Y71200D01*
X133800D02*X136200Y68800D01*
X133800D02*X136200Y71200D01*
X123800D02*X126200Y68800D01*
X123800D02*X126200Y71200D01*
X113800D02*X116200Y68800D01*
X113800D02*X116200Y71200D01*
X103800D02*X106200Y68800D01*
X103800D02*X106200Y71200D01*
X93800D02*X96200Y68800D01*
X93800D02*X96200Y71200D01*
X151300Y123700D02*X153700Y121300D01*
X151300D02*X153700Y123700D01*
X141300D02*X143700Y121300D01*
X141300D02*X143700Y123700D01*
X131300D02*X133700Y121300D01*
X131300D02*X133700Y123700D01*
X121300D02*X123700Y121300D01*
X121300D02*X123700Y123700D01*
X111300D02*X113700Y121300D01*
X111300D02*X113700Y123700D01*
X101300D02*X103700Y121300D01*
X101300D02*X103700Y123700D01*
X91300D02*X93700Y121300D01*
X91300D02*X93700Y123700D01*
X81300D02*X83700Y121300D01*
X81300D02*X83700Y123700D01*
X71300D02*X73700Y121300D01*
X71300D02*X73700Y123700D01*
X61300D02*X63700Y121300D01*
X61300D02*X63700Y123700D01*
X51300D02*X53700Y121300D01*
X51300D02*X53700Y123700D01*
X41300D02*X43700Y121300D01*
X41300D02*X43700Y123700D01*
X31300D02*X33700Y121300D01*
X31300D02*X33700Y123700D01*
X21300D02*X23700Y121300D01*
X21300D02*X23700Y123700D01*
X21300Y93700D02*X23700Y91300D01*
X21300D02*X23700Y93700D01*
X31300D02*X33700Y91300D01*
X31300D02*X33700Y93700D01*
X41300D02*X43700Y91300D01*
X41300D02*X43700Y93700D01*
X51300D02*X53700Y91300D01*
X51300D02*X53700Y93700D01*
X61300D02*X63700Y91300D01*
X61300D02*X63700Y93700D01*
X71300D02*X73700Y91300D01*
X71300D02*X73700Y93700D01*
X81300D02*X83700Y91300D01*
X81300D02*X83700Y93700D01*
X91300D02*X93700Y91300D01*
X91300D02*X93700Y93700D01*
X101300D02*X103700Y91300D01*
X101300D02*X103700Y93700D01*
X111300D02*X113700Y91300D01*
X111300D02*X113700Y93700D01*
X121300D02*X123700Y91300D01*
X121300D02*X123700Y93700D01*
X131300D02*X133700Y91300D01*
X131300D02*X133700Y93700D01*
X141300D02*X143700Y91300D01*
X141300D02*X143700Y93700D01*
X151300D02*X153700Y91300D01*
X151300D02*X153700Y93700D01*
X13800Y217450D02*X16200Y215050D01*
X13800D02*X16200Y217450D01*
X135000Y218500D02*Y217750D01*
X136500Y216250D01*
X138000Y217750D01*
Y218500D02*Y217750D01*
X136500Y216250D02*Y212500D01*
X139801Y215500D02*X142051D01*
X139801Y212500D02*X142801D01*
X139801Y218500D02*Y212500D01*
Y218500D02*X142801D01*
X147603D02*X148353Y217750D01*
X145353Y218500D02*X147603D01*
X144603Y217750D02*X145353Y218500D01*
X144603Y217750D02*Y216250D01*
X145353Y215500D01*
X147603D01*
X148353Y214750D01*
Y213250D01*
X147603Y212500D02*X148353Y213250D01*
X145353Y212500D02*X147603D01*
X144603Y213250D02*X145353Y212500D01*
X135000Y209249D02*X150154D01*
X98000Y215500D02*X101000Y218500D01*
X98000Y215500D02*X101750D01*
X101000Y218500D02*Y212500D01*
X103551Y215500D02*X106551Y218500D01*
X103551Y215500D02*X107301D01*
X106551Y218500D02*Y212500D01*
X98000Y209249D02*X109103D01*
X45000Y213250D02*X45750Y212500D01*
X45000Y217750D02*Y213250D01*
Y217750D02*X45750Y218500D01*
X47250D01*
X48000Y217750D01*
Y213250D01*
X47250Y212500D02*X48000Y213250D01*
X45750Y212500D02*X47250D01*
X45000Y214000D02*X48000Y217000D01*
X49801Y212500D02*X50551D01*
X52353Y213250D02*X53103Y212500D01*
X52353Y217750D02*Y213250D01*
Y217750D02*X53103Y218500D01*
X54603D01*
X55353Y217750D01*
Y213250D01*
X54603Y212500D02*X55353Y213250D01*
X53103Y212500D02*X54603D01*
X52353Y214000D02*X55353Y217000D01*
X57154Y217750D02*X57904Y218500D01*
X60154D01*
X60904Y217750D01*
Y216250D01*
X57154Y212500D02*X60904Y216250D01*
X57154Y212500D02*X60904D01*
X62706Y213250D02*X63456Y212500D01*
X62706Y214750D02*Y213250D01*
Y214750D02*X63456Y215500D01*
X64956D01*
X65706Y214750D01*
Y213250D01*
X64956Y212500D02*X65706Y213250D01*
X63456Y212500D02*X64956D01*
X62706Y216250D02*X63456Y215500D01*
X62706Y217750D02*Y216250D01*
Y217750D02*X63456Y218500D01*
X64956D01*
X65706Y217750D01*
Y216250D01*
X64956Y215500D02*X65706Y216250D01*
X45000Y209249D02*X67507D01*
X92500Y151600D02*Y148400D01*
X90900Y150000D02*X94100D01*
X84626Y151600D02*Y148400D01*
X83026Y150000D02*X86226D01*
X77500Y66226D02*Y63026D01*
X75900Y64626D02*X79100D01*
X77500Y74100D02*Y70900D01*
X75900Y72500D02*X79100D01*
X15000Y232850D02*Y229650D01*
X13400Y231250D02*X16600D01*
X135000Y233500D02*Y232750D01*
X136500Y231250D01*
X138000Y232750D01*
Y233500D02*Y232750D01*
X136500Y231250D02*Y227500D01*
X139801Y230500D02*X142051D01*
X139801Y227500D02*X142801D01*
X139801Y233500D02*Y227500D01*
Y233500D02*X142801D01*
X147603D02*X148353Y232750D01*
X145353Y233500D02*X147603D01*
X144603Y232750D02*X145353Y233500D01*
X144603Y232750D02*Y231250D01*
X145353Y230500D01*
X147603D01*
X148353Y229750D01*
Y228250D01*
X147603Y227500D02*X148353Y228250D01*
X145353Y227500D02*X147603D01*
X144603Y228250D02*X145353Y227500D01*
X135000Y224249D02*X150154D01*
X98000Y230500D02*X101000Y233500D01*
X98000Y230500D02*X101750D01*
X101000Y233500D02*Y227500D01*
X98000Y224249D02*X103551D01*
X45000Y228250D02*X45750Y227500D01*
X45000Y232750D02*Y228250D01*
Y232750D02*X45750Y233500D01*
X47250D01*
X48000Y232750D01*
Y228250D01*
X47250Y227500D02*X48000Y228250D01*
X45750Y227500D02*X47250D01*
X45000Y229000D02*X48000Y232000D01*
X49801Y227500D02*X50551D01*
X52353Y228250D02*X53103Y227500D01*
X52353Y232750D02*Y228250D01*
Y232750D02*X53103Y233500D01*
X54603D01*
X55353Y232750D01*
Y228250D01*
X54603Y227500D02*X55353Y228250D01*
X53103Y227500D02*X54603D01*
X52353Y229000D02*X55353Y232000D01*
X57154Y232750D02*X57904Y233500D01*
X60154D01*
X60904Y232750D01*
Y231250D01*
X57154Y227500D02*X60904Y231250D01*
X57154Y227500D02*X60904D01*
X64956Y233500D02*X65706Y232750D01*
X63456Y233500D02*X64956D01*
X62706Y232750D02*X63456Y233500D01*
X62706Y232750D02*Y228250D01*
X63456Y227500D01*
X64956Y230500D02*X65706Y229750D01*
X62706Y230500D02*X64956D01*
X63456Y227500D02*X64956D01*
X65706Y228250D01*
Y229750D02*Y228250D01*
X45000Y224249D02*X67507D01*
X95000Y80000D02*Y78400D01*
Y80000D02*X96386Y80800D01*
X95000Y80000D02*X93614Y80800D01*
X105000Y80000D02*Y78400D01*
Y80000D02*X106386Y80800D01*
X105000Y80000D02*X103614Y80800D01*
X92500Y135000D02*Y133400D01*
Y135000D02*X93886Y135800D01*
X92500Y135000D02*X91114Y135800D01*
X82500Y135000D02*Y133400D01*
Y135000D02*X83886Y135800D01*
X82500Y135000D02*X81114Y135800D01*
X10000Y48000D02*Y46400D01*
Y48000D02*X11386Y48800D01*
X10000Y48000D02*X8614Y48800D01*
X149000Y79000D02*Y77400D01*
Y79000D02*X150386Y79800D01*
X149000Y79000D02*X147614Y79800D01*
X15000Y246250D02*Y244650D01*
Y246250D02*X16386Y247050D01*
X15000Y246250D02*X13614Y247050D01*
X135000Y248500D02*Y247750D01*
X136500Y246250D01*
X138000Y247750D01*
Y248500D02*Y247750D01*
X136500Y246250D02*Y242500D01*
X139801Y245500D02*X142051D01*
X139801Y242500D02*X142801D01*
X139801Y248500D02*Y242500D01*
Y248500D02*X142801D01*
X147603D02*X148353Y247750D01*
X145353Y248500D02*X147603D01*
X144603Y247750D02*X145353Y248500D01*
X144603Y247750D02*Y246250D01*
X145353Y245500D01*
X147603D01*
X148353Y244750D01*
Y243250D01*
X147603Y242500D02*X148353Y243250D01*
X145353Y242500D02*X147603D01*
X144603Y243250D02*X145353Y242500D01*
X135000Y239249D02*X150154D01*
X100250Y248500D02*X101000Y247750D01*
X98750Y248500D02*X100250D01*
X98000Y247750D02*X98750Y248500D01*
X98000Y247750D02*Y243250D01*
X98750Y242500D01*
X100250Y245500D02*X101000Y244750D01*
X98000Y245500D02*X100250D01*
X98750Y242500D02*X100250D01*
X101000Y243250D01*
Y244750D02*Y243250D01*
X98000Y239249D02*X102801D01*
X45000Y243250D02*X45750Y242500D01*
X45000Y247750D02*Y243250D01*
Y247750D02*X45750Y248500D01*
X47250D01*
X48000Y247750D01*
Y243250D01*
X47250Y242500D02*X48000Y243250D01*
X45750Y242500D02*X47250D01*
X45000Y244000D02*X48000Y247000D01*
X49801Y242500D02*X50551D01*
X52353Y243250D02*X53103Y242500D01*
X52353Y247750D02*Y243250D01*
Y247750D02*X53103Y248500D01*
X54603D01*
X55353Y247750D01*
Y243250D01*
X54603Y242500D02*X55353Y243250D01*
X53103Y242500D02*X54603D01*
X52353Y244000D02*X55353Y247000D01*
X57154Y247750D02*X57904Y248500D01*
X60154D01*
X60904Y247750D01*
Y246250D01*
X57154Y242500D02*X60904Y246250D01*
X57154Y242500D02*X60904D01*
X62706Y248500D02*X65706D01*
X62706D02*Y245500D01*
X63456Y246250D01*
X64956D01*
X65706Y245500D01*
Y243250D01*
X64956Y242500D02*X65706Y243250D01*
X63456Y242500D02*X64956D01*
X62706Y243250D02*X63456Y242500D01*
X45000Y239249D02*X67507D01*
X3000Y263500D02*X3750Y262750D01*
X750Y263500D02*X3000D01*
X0Y262750D02*X750Y263500D01*
X0Y262750D02*Y261250D01*
X750Y260500D01*
X3000D01*
X3750Y259750D01*
Y258250D01*
X3000Y257500D02*X3750Y258250D01*
X750Y257500D02*X3000D01*
X0Y258250D02*X750Y257500D01*
X5551Y260500D02*Y258250D01*
X6301Y257500D01*
X8551Y260500D02*Y256000D01*
X7801Y255250D02*X8551Y256000D01*
X6301Y255250D02*X7801D01*
X5551Y256000D02*X6301Y255250D01*
Y257500D02*X7801D01*
X8551Y258250D01*
X11103Y259750D02*Y257500D01*
Y259750D02*X11853Y260500D01*
X12603D01*
X13353Y259750D01*
Y257500D01*
Y259750D02*X14103Y260500D01*
X14853D01*
X15603Y259750D01*
Y257500D01*
X10353Y260500D02*X11103Y259750D01*
X17404Y263500D02*Y257500D01*
Y258250D02*X18154Y257500D01*
X19654D01*
X20404Y258250D01*
Y259750D02*Y258250D01*
X19654Y260500D02*X20404Y259750D01*
X18154Y260500D02*X19654D01*
X17404Y259750D02*X18154Y260500D01*
X22206Y259750D02*Y258250D01*
Y259750D02*X22956Y260500D01*
X24456D01*
X25206Y259750D01*
Y258250D01*
X24456Y257500D02*X25206Y258250D01*
X22956Y257500D02*X24456D01*
X22206Y258250D02*X22956Y257500D01*
X27007Y263500D02*Y258250D01*
X27757Y257500D01*
X41750Y263500D02*Y257500D01*
X44000Y263500D02*X44750Y262750D01*
Y258250D01*
X44000Y257500D02*X44750Y258250D01*
X41000Y257500D02*X44000D01*
X41000Y263500D02*X44000D01*
X46551Y262000D02*Y261250D01*
Y259750D02*Y257500D01*
X50303Y260500D02*X51053Y259750D01*
X48803Y260500D02*X50303D01*
X48053Y259750D02*X48803Y260500D01*
X48053Y259750D02*Y258250D01*
X48803Y257500D01*
X51053Y260500D02*Y258250D01*
X51803Y257500D01*
X48803D02*X50303D01*
X51053Y258250D01*
X54354Y259750D02*Y257500D01*
Y259750D02*X55104Y260500D01*
X55854D01*
X56604Y259750D01*
Y257500D01*
Y259750D02*X57354Y260500D01*
X58104D01*
X58854Y259750D01*
Y257500D01*
X53604Y260500D02*X54354Y259750D01*
X60656Y257500D02*X61406D01*
X65907Y258250D02*X66657Y257500D01*
X65907Y262750D02*X66657Y263500D01*
X65907Y262750D02*Y258250D01*
X68459Y263500D02*X69959D01*
X69209D02*Y257500D01*
X68459D02*X69959D01*
X72510Y259750D02*Y257500D01*
Y259750D02*X73260Y260500D01*
X74010D01*
X74760Y259750D01*
Y257500D01*
X71760Y260500D02*X72510Y259750D01*
X77312Y260500D02*X79562D01*
X76562Y259750D02*X77312Y260500D01*
X76562Y259750D02*Y258250D01*
X77312Y257500D01*
X79562D01*
X81363Y263500D02*Y257500D01*
Y259750D02*X82113Y260500D01*
X83613D01*
X84363Y259750D01*
Y257500D01*
X86165Y263500D02*X86915Y262750D01*
Y258250D01*
X86165Y257500D02*X86915Y258250D01*
X95750Y257500D02*X98000D01*
X95000Y258250D02*X95750Y257500D01*
X95000Y262750D02*Y258250D01*
Y262750D02*X95750Y263500D01*
X98000D01*
X99801Y259750D02*Y258250D01*
Y259750D02*X100551Y260500D01*
X102051D01*
X102801Y259750D01*
Y258250D01*
X102051Y257500D02*X102801Y258250D01*
X100551Y257500D02*X102051D01*
X99801Y258250D02*X100551Y257500D01*
X104603Y260500D02*Y258250D01*
X105353Y257500D01*
X106853D01*
X107603Y258250D01*
Y260500D02*Y258250D01*
X110154Y259750D02*Y257500D01*
Y259750D02*X110904Y260500D01*
X111654D01*
X112404Y259750D01*
Y257500D01*
X109404Y260500D02*X110154Y259750D01*
X114956Y263500D02*Y258250D01*
X115706Y257500D01*
X114206Y261250D02*X115706D01*
X130750Y263500D02*Y257500D01*
X130000Y263500D02*X133000D01*
X133750Y262750D01*
Y261250D01*
X133000Y260500D02*X133750Y261250D01*
X130750Y260500D02*X133000D01*
X135551Y263500D02*Y258250D01*
X136301Y257500D01*
X140053Y260500D02*X140803Y259750D01*
X138553Y260500D02*X140053D01*
X137803Y259750D02*X138553Y260500D01*
X137803Y259750D02*Y258250D01*
X138553Y257500D01*
X140803Y260500D02*Y258250D01*
X141553Y257500D01*
X138553D02*X140053D01*
X140803Y258250D01*
X144104Y263500D02*Y258250D01*
X144854Y257500D01*
X143354Y261250D02*X144854D01*
X147106Y257500D02*X149356D01*
X146356Y258250D02*X147106Y257500D01*
X146356Y259750D02*Y258250D01*
Y259750D02*X147106Y260500D01*
X148606D01*
X149356Y259750D01*
X146356Y259000D02*X149356D01*
Y259750D02*Y259000D01*
X154157Y263500D02*Y257500D01*
X153407D02*X154157Y258250D01*
X151907Y257500D02*X153407D01*
X151157Y258250D02*X151907Y257500D01*
X151157Y259750D02*Y258250D01*
Y259750D02*X151907Y260500D01*
X153407D01*
X154157Y259750D01*
X157459Y260500D02*Y259750D01*
Y258250D02*Y257500D01*
X155959Y262750D02*Y262000D01*
Y262750D02*X156709Y263500D01*
X158209D01*
X158959Y262750D01*
Y262000D01*
X157459Y260500D02*X158959Y262000D01*
X0Y278500D02*X3000D01*
X1500D02*Y272500D01*
X4801Y278500D02*Y272500D01*
Y274750D02*X5551Y275500D01*
X7051D01*
X7801Y274750D01*
Y272500D01*
X10353D02*X12603D01*
X9603Y273250D02*X10353Y272500D01*
X9603Y274750D02*Y273250D01*
Y274750D02*X10353Y275500D01*
X11853D01*
X12603Y274750D01*
X9603Y274000D02*X12603D01*
Y274750D02*Y274000D01*
X15154Y274750D02*Y272500D01*
Y274750D02*X15904Y275500D01*
X17404D01*
X14404D02*X15154Y274750D01*
X19956Y272500D02*X22206D01*
X19206Y273250D02*X19956Y272500D01*
X19206Y274750D02*Y273250D01*
Y274750D02*X19956Y275500D01*
X21456D01*
X22206Y274750D01*
X19206Y274000D02*X22206D01*
Y274750D02*Y274000D01*
X28957Y275500D02*X29707Y274750D01*
X27457Y275500D02*X28957D01*
X26707Y274750D02*X27457Y275500D01*
X26707Y274750D02*Y273250D01*
X27457Y272500D01*
X29707Y275500D02*Y273250D01*
X30457Y272500D01*
X27457D02*X28957D01*
X29707Y273250D01*
X33009Y274750D02*Y272500D01*
Y274750D02*X33759Y275500D01*
X35259D01*
X32259D02*X33009Y274750D01*
X37810Y272500D02*X40060D01*
X37060Y273250D02*X37810Y272500D01*
X37060Y274750D02*Y273250D01*
Y274750D02*X37810Y275500D01*
X39310D01*
X40060Y274750D01*
X37060Y274000D02*X40060D01*
Y274750D02*Y274000D01*
X44562Y278500D02*X47562D01*
X44562D02*Y275500D01*
X45312Y276250D01*
X46812D01*
X47562Y275500D01*
Y273250D01*
X46812Y272500D02*X47562Y273250D01*
X45312Y272500D02*X46812D01*
X44562Y273250D02*X45312Y272500D01*
X55063Y278500D02*Y272500D01*
X54313D02*X55063Y273250D01*
X52813Y272500D02*X54313D01*
X52063Y273250D02*X52813Y272500D01*
X52063Y274750D02*Y273250D01*
Y274750D02*X52813Y275500D01*
X54313D01*
X55063Y274750D01*
X56865Y277000D02*Y276250D01*
Y274750D02*Y272500D01*
X59116Y277750D02*Y272500D01*
Y277750D02*X59866Y278500D01*
X60616D01*
X58366Y275500D02*X59866D01*
X62868Y277750D02*Y272500D01*
Y277750D02*X63618Y278500D01*
X64368D01*
X62118Y275500D02*X63618D01*
X66619Y272500D02*X68869D01*
X65869Y273250D02*X66619Y272500D01*
X65869Y274750D02*Y273250D01*
Y274750D02*X66619Y275500D01*
X68119D01*
X68869Y274750D01*
X65869Y274000D02*X68869D01*
Y274750D02*Y274000D01*
X71421Y274750D02*Y272500D01*
Y274750D02*X72171Y275500D01*
X73671D01*
X70671D02*X71421Y274750D01*
X76222Y272500D02*X78472D01*
X75472Y273250D02*X76222Y272500D01*
X75472Y274750D02*Y273250D01*
Y274750D02*X76222Y275500D01*
X77722D01*
X78472Y274750D01*
X75472Y274000D02*X78472D01*
Y274750D02*Y274000D01*
X81024Y274750D02*Y272500D01*
Y274750D02*X81774Y275500D01*
X82524D01*
X83274Y274750D01*
Y272500D01*
X80274Y275500D02*X81024Y274750D01*
X85825Y278500D02*Y273250D01*
X86575Y272500D01*
X85075Y276250D02*X86575D01*
X93777Y278500D02*Y272500D01*
X93027D02*X93777Y273250D01*
X91527Y272500D02*X93027D01*
X90777Y273250D02*X91527Y272500D01*
X90777Y274750D02*Y273250D01*
Y274750D02*X91527Y275500D01*
X93027D01*
X93777Y274750D01*
X96328D02*Y272500D01*
Y274750D02*X97078Y275500D01*
X98578D01*
X95578D02*X96328Y274750D01*
X100380Y277000D02*Y276250D01*
Y274750D02*Y272500D01*
X101881Y278500D02*Y273250D01*
X102631Y272500D01*
X104133Y278500D02*Y273250D01*
X104883Y272500D01*
X109834D02*X112084D01*
X112834Y273250D01*
X112084Y274000D02*X112834Y273250D01*
X109834Y274000D02*X112084D01*
X109084Y274750D02*X109834Y274000D01*
X109084Y274750D02*X109834Y275500D01*
X112084D01*
X112834Y274750D01*
X109084Y273250D02*X109834Y272500D01*
X114636Y277000D02*Y276250D01*
Y274750D02*Y272500D01*
X116137Y275500D02*X119137D01*
X116137Y272500D02*X119137Y275500D01*
X116137Y272500D02*X119137D01*
X121689D02*X123939D01*
X120939Y273250D02*X121689Y272500D01*
X120939Y274750D02*Y273250D01*
Y274750D02*X121689Y275500D01*
X123189D01*
X123939Y274750D01*
X120939Y274000D02*X123939D01*
Y274750D02*Y274000D01*
X126490Y272500D02*X128740D01*
X129490Y273250D01*
X128740Y274000D02*X129490Y273250D01*
X126490Y274000D02*X128740D01*
X125740Y274750D02*X126490Y274000D01*
X125740Y274750D02*X126490Y275500D01*
X128740D01*
X129490Y274750D01*
X125740Y273250D02*X126490Y272500D01*
X133992Y275500D02*Y273250D01*
X134742Y272500D01*
X136242D01*
X136992Y273250D01*
Y275500D02*Y273250D01*
X139543Y272500D02*X141793D01*
X142543Y273250D01*
X141793Y274000D02*X142543Y273250D01*
X139543Y274000D02*X141793D01*
X138793Y274750D02*X139543Y274000D01*
X138793Y274750D02*X139543Y275500D01*
X141793D01*
X142543Y274750D01*
X138793Y273250D02*X139543Y272500D01*
X145095D02*X147345D01*
X144345Y273250D02*X145095Y272500D01*
X144345Y274750D02*Y273250D01*
Y274750D02*X145095Y275500D01*
X146595D01*
X147345Y274750D01*
X144345Y274000D02*X147345D01*
Y274750D02*Y274000D01*
X152146Y278500D02*Y272500D01*
X151396D02*X152146Y273250D01*
X149896Y272500D02*X151396D01*
X149146Y273250D02*X149896Y272500D01*
X149146Y274750D02*Y273250D01*
Y274750D02*X149896Y275500D01*
X151396D01*
X152146Y274750D01*
X156648Y277000D02*Y276250D01*
Y274750D02*Y272500D01*
X158899Y274750D02*Y272500D01*
Y274750D02*X159649Y275500D01*
X160399D01*
X161149Y274750D01*
Y272500D01*
X158149Y275500D02*X158899Y274750D01*
X166401Y278500D02*Y273250D01*
X167151Y272500D01*
X165651Y276250D02*X167151D01*
X168652Y278500D02*Y272500D01*
Y274750D02*X169402Y275500D01*
X170902D01*
X171652Y274750D01*
Y272500D01*
X173454Y277000D02*Y276250D01*
Y274750D02*Y272500D01*
X175705D02*X177955D01*
X178705Y273250D01*
X177955Y274000D02*X178705Y273250D01*
X175705Y274000D02*X177955D01*
X174955Y274750D02*X175705Y274000D01*
X174955Y274750D02*X175705Y275500D01*
X177955D01*
X178705Y274750D01*
X174955Y273250D02*X175705Y272500D01*
X183207Y278500D02*Y273250D01*
X183957Y272500D01*
X187708Y275500D02*X188458Y274750D01*
X186208Y275500D02*X187708D01*
X185458Y274750D02*X186208Y275500D01*
X185458Y274750D02*Y273250D01*
X186208Y272500D01*
X188458Y275500D02*Y273250D01*
X189208Y272500D01*
X186208D02*X187708D01*
X188458Y273250D01*
X191010Y275500D02*Y273250D01*
X191760Y272500D01*
X194010Y275500D02*Y271000D01*
X193260Y270250D02*X194010Y271000D01*
X191760Y270250D02*X193260D01*
X191010Y271000D02*X191760Y270250D01*
Y272500D02*X193260D01*
X194010Y273250D01*
X195811Y274750D02*Y273250D01*
Y274750D02*X196561Y275500D01*
X198061D01*
X198811Y274750D01*
Y273250D01*
X198061Y272500D02*X198811Y273250D01*
X196561Y272500D02*X198061D01*
X195811Y273250D02*X196561Y272500D01*
X200613Y275500D02*Y273250D01*
X201363Y272500D01*
X202863D01*
X203613Y273250D01*
Y275500D02*Y273250D01*
X206164Y278500D02*Y273250D01*
X206914Y272500D01*
X205414Y276250D02*X206914D01*
X208416Y271000D02*X209916Y272500D01*
X214417D02*X217417Y275500D01*
Y277750D02*Y275500D01*
X216667Y278500D02*X217417Y277750D01*
X215167Y278500D02*X216667D01*
X214417Y277750D02*X215167Y278500D01*
X214417Y277750D02*Y276250D01*
X215167Y275500D01*
X217417D01*
X219219D02*X222219Y278500D01*
X219219Y275500D02*X222969D01*
X222219Y278500D02*Y272500D01*
X227470Y278500D02*Y272500D01*
Y274750D02*X228220Y275500D01*
X229720D01*
X230470Y274750D01*
Y272500D01*
X232272Y274750D02*Y273250D01*
Y274750D02*X233022Y275500D01*
X234522D01*
X235272Y274750D01*
Y273250D01*
X234522Y272500D02*X235272Y273250D01*
X233022Y272500D02*X234522D01*
X232272Y273250D02*X233022Y272500D01*
X237073Y278500D02*Y273250D01*
X237823Y272500D01*
X240075D02*X242325D01*
X239325Y273250D02*X240075Y272500D01*
X239325Y274750D02*Y273250D01*
Y274750D02*X240075Y275500D01*
X241575D01*
X242325Y274750D01*
X239325Y274000D02*X242325D01*
Y274750D02*Y274000D01*
X244876Y272500D02*X247126D01*
X247876Y273250D01*
X247126Y274000D02*X247876Y273250D01*
X244876Y274000D02*X247126D01*
X244126Y274750D02*X244876Y274000D01*
X244126Y274750D02*X244876Y275500D01*
X247126D01*
X247876Y274750D01*
X244126Y273250D02*X244876Y272500D01*
X253128Y278500D02*Y273250D01*
X253878Y272500D01*
X252378Y276250D02*X253878D01*
X255379Y274750D02*Y273250D01*
Y274750D02*X256129Y275500D01*
X257629D01*
X258379Y274750D01*
Y273250D01*
X257629Y272500D02*X258379Y273250D01*
X256129Y272500D02*X257629D01*
X255379Y273250D02*X256129Y272500D01*
X260931Y278500D02*Y273250D01*
X261681Y272500D01*
X260181Y276250D02*X261681D01*
X265432Y275500D02*X266182Y274750D01*
X263932Y275500D02*X265432D01*
X263182Y274750D02*X263932Y275500D01*
X263182Y274750D02*Y273250D01*
X263932Y272500D01*
X266182Y275500D02*Y273250D01*
X266932Y272500D01*
X263932D02*X265432D01*
X266182Y273250D01*
X268734Y278500D02*Y273250D01*
X269484Y272500D01*
G54D29*X175000Y175000D02*Y0D01*
X0D01*
Y175000D01*
X175000D01*
G54D31*X1148Y-9500D02*X4148D01*
X4898Y-8750D01*
Y-7250D02*Y-8750D01*
X4148Y-6500D02*X4898Y-7250D01*
X1898Y-6500D02*X4148D01*
X1898Y-3500D02*Y-9500D01*
X1148Y-3500D02*X4148D01*
X4898Y-4250D01*
Y-5750D01*
X4148Y-6500D02*X4898Y-5750D01*
X6699Y-7250D02*Y-8750D01*
Y-7250D02*X7449Y-6500D01*
X8949D01*
X9699Y-7250D01*
Y-8750D01*
X8949Y-9500D02*X9699Y-8750D01*
X7449Y-9500D02*X8949D01*
X6699Y-8750D02*X7449Y-9500D01*
X13751Y-6500D02*X14501Y-7250D01*
X12251Y-6500D02*X13751D01*
X11501Y-7250D02*X12251Y-6500D01*
X11501Y-7250D02*Y-8750D01*
X12251Y-9500D01*
X14501Y-6500D02*Y-8750D01*
X15251Y-9500D01*
X12251D02*X13751D01*
X14501Y-8750D01*
X17802Y-7250D02*Y-9500D01*
Y-7250D02*X18552Y-6500D01*
X20052D01*
X17052D02*X17802Y-7250D01*
X24854Y-3500D02*Y-9500D01*
X24104D02*X24854Y-8750D01*
X22604Y-9500D02*X24104D01*
X21854Y-8750D02*X22604Y-9500D01*
X21854Y-7250D02*Y-8750D01*
Y-7250D02*X22604Y-6500D01*
X24104D01*
X24854Y-7250D01*
X29355D02*Y-8750D01*
Y-7250D02*X30105Y-6500D01*
X31605D01*
X32355Y-7250D01*
Y-8750D01*
X31605Y-9500D02*X32355Y-8750D01*
X30105Y-9500D02*X31605D01*
X29355Y-8750D02*X30105Y-9500D01*
X34157Y-6500D02*Y-8750D01*
X34907Y-9500D01*
X36407D01*
X37157Y-8750D01*
Y-6500D02*Y-8750D01*
X39708Y-3500D02*Y-8750D01*
X40458Y-9500D01*
X38958Y-5750D02*X40458D01*
X41960Y-3500D02*Y-8750D01*
X42710Y-9500D01*
X44211Y-5000D02*Y-5750D01*
Y-7250D02*Y-9500D01*
X46463Y-7250D02*Y-9500D01*
Y-7250D02*X47213Y-6500D01*
X47963D01*
X48713Y-7250D01*
Y-9500D01*
X45713Y-6500D02*X46463Y-7250D01*
X51264Y-9500D02*X53514D01*
X50514Y-8750D02*X51264Y-9500D01*
X50514Y-7250D02*Y-8750D01*
Y-7250D02*X51264Y-6500D01*
X52764D01*
X53514Y-7250D01*
X50514Y-8000D02*X53514D01*
Y-7250D02*Y-8000D01*
X58016Y-5000D02*Y-5750D01*
Y-7250D02*Y-9500D01*
X60267D02*X62517D01*
X63267Y-8750D01*
X62517Y-8000D02*X63267Y-8750D01*
X60267Y-8000D02*X62517D01*
X59517Y-7250D02*X60267Y-8000D01*
X59517Y-7250D02*X60267Y-6500D01*
X62517D01*
X63267Y-7250D01*
X59517Y-8750D02*X60267Y-9500D01*
X68519Y-3500D02*Y-8750D01*
X69269Y-9500D01*
X67769Y-5750D02*X69269D01*
X70770Y-3500D02*Y-9500D01*
Y-7250D02*X71520Y-6500D01*
X73020D01*
X73770Y-7250D01*
Y-9500D01*
X76322D02*X78572D01*
X75572Y-8750D02*X76322Y-9500D01*
X75572Y-7250D02*Y-8750D01*
Y-7250D02*X76322Y-6500D01*
X77822D01*
X78572Y-7250D01*
X75572Y-8000D02*X78572D01*
Y-7250D02*Y-8000D01*
X83823Y-6500D02*X86073D01*
X83073Y-7250D02*X83823Y-6500D01*
X83073Y-7250D02*Y-8750D01*
X83823Y-9500D01*
X86073D01*
X88625D02*X90875D01*
X87875Y-8750D02*X88625Y-9500D01*
X87875Y-7250D02*Y-8750D01*
Y-7250D02*X88625Y-6500D01*
X90125D01*
X90875Y-7250D01*
X87875Y-8000D02*X90875D01*
Y-7250D02*Y-8000D01*
X93426Y-7250D02*Y-9500D01*
Y-7250D02*X94176Y-6500D01*
X94926D01*
X95676Y-7250D01*
Y-9500D01*
X92676Y-6500D02*X93426Y-7250D01*
X98228Y-3500D02*Y-8750D01*
X98978Y-9500D01*
X97478Y-5750D02*X98978D01*
X101229Y-9500D02*X103479D01*
X100479Y-8750D02*X101229Y-9500D01*
X100479Y-7250D02*Y-8750D01*
Y-7250D02*X101229Y-6500D01*
X102729D01*
X103479Y-7250D01*
X100479Y-8000D02*X103479D01*
Y-7250D02*Y-8000D01*
X106031Y-7250D02*Y-9500D01*
Y-7250D02*X106781Y-6500D01*
X108281D01*
X105281D02*X106031Y-7250D01*
X110082Y-3500D02*Y-8750D01*
X110832Y-9500D01*
X112334Y-5000D02*Y-5750D01*
Y-7250D02*Y-9500D01*
X114585Y-7250D02*Y-9500D01*
Y-7250D02*X115335Y-6500D01*
X116085D01*
X116835Y-7250D01*
Y-9500D01*
X113835Y-6500D02*X114585Y-7250D01*
X119387Y-9500D02*X121637D01*
X118637Y-8750D02*X119387Y-9500D01*
X118637Y-7250D02*Y-8750D01*
Y-7250D02*X119387Y-6500D01*
X120887D01*
X121637Y-7250D01*
X118637Y-8000D02*X121637D01*
Y-7250D02*Y-8000D01*
X126138Y-7250D02*Y-8750D01*
Y-7250D02*X126888Y-6500D01*
X128388D01*
X129138Y-7250D01*
Y-8750D01*
X128388Y-9500D02*X129138Y-8750D01*
X126888Y-9500D02*X128388D01*
X126138Y-8750D02*X126888Y-9500D01*
X131690Y-4250D02*Y-9500D01*
Y-4250D02*X132440Y-3500D01*
X133190D01*
X130940Y-6500D02*X132440D01*
X138141Y-3500D02*Y-8750D01*
X138891Y-9500D01*
X137391Y-5750D02*X138891D01*
X140393Y-3500D02*Y-9500D01*
Y-7250D02*X141143Y-6500D01*
X142643D01*
X143393Y-7250D01*
Y-9500D01*
X145194Y-5000D02*Y-5750D01*
Y-7250D02*Y-9500D01*
X147446D02*X149696D01*
X150446Y-8750D01*
X149696Y-8000D02*X150446Y-8750D01*
X147446Y-8000D02*X149696D01*
X146696Y-7250D02*X147446Y-8000D01*
X146696Y-7250D02*X147446Y-6500D01*
X149696D01*
X150446Y-7250D01*
X146696Y-8750D02*X147446Y-9500D01*
X155697Y-7250D02*Y-11750D01*
X154947Y-6500D02*X155697Y-7250D01*
X156447Y-6500D01*
X157947D01*
X158697Y-7250D01*
Y-8750D01*
X157947Y-9500D02*X158697Y-8750D01*
X156447Y-9500D02*X157947D01*
X155697Y-8750D02*X156447Y-9500D01*
X162749Y-6500D02*X163499Y-7250D01*
X161249Y-6500D02*X162749D01*
X160499Y-7250D02*X161249Y-6500D01*
X160499Y-7250D02*Y-8750D01*
X161249Y-9500D01*
X163499Y-6500D02*Y-8750D01*
X164249Y-9500D01*
X161249D02*X162749D01*
X163499Y-8750D01*
X166800Y-3500D02*Y-8750D01*
X167550Y-9500D01*
X166050Y-5750D02*X167550D01*
X169052Y-3500D02*Y-9500D01*
Y-7250D02*X169802Y-6500D01*
X171302D01*
X172052Y-7250D01*
Y-9500D01*
X200750Y203500D02*Y197500D01*
X203000Y203500D02*X203750Y202750D01*
Y198250D01*
X203000Y197500D02*X203750Y198250D01*
X200000Y197500D02*X203000D01*
X200000Y203500D02*X203000D01*
X207801Y200500D02*X208551Y199750D01*
X206301Y200500D02*X207801D01*
X205551Y199750D02*X206301Y200500D01*
X205551Y199750D02*Y198250D01*
X206301Y197500D01*
X208551Y200500D02*Y198250D01*
X209301Y197500D01*
X206301D02*X207801D01*
X208551Y198250D01*
X211853Y203500D02*Y198250D01*
X212603Y197500D01*
X211103Y201250D02*X212603D01*
X214854Y197500D02*X217104D01*
X214104Y198250D02*X214854Y197500D01*
X214104Y199750D02*Y198250D01*
Y199750D02*X214854Y200500D01*
X216354D01*
X217104Y199750D01*
X214104Y199000D02*X217104D01*
Y199750D02*Y199000D01*
X218906Y201250D02*X219656D01*
X218906Y199750D02*X219656D01*
X224157Y203500D02*X227157D01*
X225657D02*Y197500D01*
X228959Y200500D02*Y198250D01*
X229709Y197500D01*
X231209D01*
X231959Y198250D01*
Y200500D02*Y198250D01*
X234510Y197500D02*X236760D01*
X233760Y198250D02*X234510Y197500D01*
X233760Y199750D02*Y198250D01*
Y199750D02*X234510Y200500D01*
X236010D01*
X236760Y199750D01*
X233760Y199000D02*X236760D01*
Y199750D02*Y199000D01*
X241262Y198250D02*X242012Y197500D01*
X241262Y202750D02*Y198250D01*
Y202750D02*X242012Y203500D01*
X243512D01*
X244262Y202750D01*
Y198250D01*
X243512Y197500D02*X244262Y198250D01*
X242012Y197500D02*X243512D01*
X241262Y199000D02*X244262Y202000D01*
X246063Y200500D02*X249063Y203500D01*
X246063Y200500D02*X249813D01*
X249063Y203500D02*Y197500D01*
X254315Y203500D02*Y197500D01*
Y203500D02*X256565Y201250D01*
X258815Y203500D01*
Y197500D01*
X262866Y200500D02*X263616Y199750D01*
X261366Y200500D02*X262866D01*
X260616Y199750D02*X261366Y200500D01*
X260616Y199750D02*Y198250D01*
X261366Y197500D01*
X263616Y200500D02*Y198250D01*
X264366Y197500D01*
X261366D02*X262866D01*
X263616Y198250D01*
X266168Y200500D02*Y198250D01*
X266918Y197500D01*
X269168Y200500D02*Y196000D01*
X268418Y195250D02*X269168Y196000D01*
X266918Y195250D02*X268418D01*
X266168Y196000D02*X266918Y195250D01*
Y197500D02*X268418D01*
X269168Y198250D01*
X273669Y202750D02*X274419Y203500D01*
X276669D01*
X277419Y202750D01*
Y201250D01*
X273669Y197500D02*X277419Y201250D01*
X273669Y197500D02*X277419D01*
X279221Y198250D02*X279971Y197500D01*
X279221Y202750D02*Y198250D01*
Y202750D02*X279971Y203500D01*
X281471D01*
X282221Y202750D01*
Y198250D01*
X281471Y197500D02*X282221Y198250D01*
X279971Y197500D02*X281471D01*
X279221Y199000D02*X282221Y202000D01*
X284772Y197500D02*X286272D01*
X285522Y203500D02*Y197500D01*
X284022Y202000D02*X285522Y203500D01*
X288074Y198250D02*X288824Y197500D01*
X288074Y202750D02*Y198250D01*
Y202750D02*X288824Y203500D01*
X290324D01*
X291074Y202750D01*
Y198250D01*
X290324Y197500D02*X291074Y198250D01*
X288824Y197500D02*X290324D01*
X288074Y199000D02*X291074Y202000D01*
X295575Y198250D02*X296325Y197500D01*
X295575Y202750D02*Y198250D01*
Y202750D02*X296325Y203500D01*
X297825D01*
X298575Y202750D01*
Y198250D01*
X297825Y197500D02*X298575Y198250D01*
X296325Y197500D02*X297825D01*
X295575Y199000D02*X298575Y202000D01*
X300377Y200500D02*X303377Y203500D01*
X300377Y200500D02*X304127D01*
X303377Y203500D02*Y197500D01*
X305928Y201250D02*X306678D01*
X305928Y199750D02*X306678D01*
X308480Y198250D02*X309230Y197500D01*
X308480Y202750D02*Y198250D01*
Y202750D02*X309230Y203500D01*
X310730D01*
X311480Y202750D01*
Y198250D01*
X310730Y197500D02*X311480Y198250D01*
X309230Y197500D02*X310730D01*
X308480Y199000D02*X311480Y202000D01*
X314031Y197500D02*X315531D01*
X314781Y203500D02*Y197500D01*
X313281Y202000D02*X314781Y203500D01*
X317333Y201250D02*X318083D01*
X317333Y199750D02*X318083D01*
X319884Y198250D02*X320634Y197500D01*
X319884Y202750D02*Y198250D01*
Y202750D02*X320634Y203500D01*
X322134D01*
X322884Y202750D01*
Y198250D01*
X322134Y197500D02*X322884Y198250D01*
X320634Y197500D02*X322134D01*
X319884Y199000D02*X322884Y202000D01*
X326936Y203500D02*X327686Y202750D01*
X325436Y203500D02*X326936D01*
X324686Y202750D02*X325436Y203500D01*
X324686Y202750D02*Y198250D01*
X325436Y197500D01*
X326936Y200500D02*X327686Y199750D01*
X324686Y200500D02*X326936D01*
X325436Y197500D02*X326936D01*
X327686Y198250D01*
Y199750D02*Y198250D01*
X332937Y203500D02*Y197500D01*
X332187Y203500D02*X335187D01*
X335937Y202750D01*
Y201250D01*
X335187Y200500D02*X335937Y201250D01*
X332937Y200500D02*X335187D01*
X337739Y203500D02*Y197500D01*
Y203500D02*X339989Y201250D01*
X342239Y203500D01*
Y197500D01*
X349740Y203500D02*X350490Y202750D01*
X347490Y203500D02*X349740D01*
X346740Y202750D02*X347490Y203500D01*
X346740Y202750D02*Y198250D01*
X347490Y197500D01*
X349740D01*
X350490Y198250D01*
Y199750D02*Y198250D01*
X349740Y200500D02*X350490Y199750D01*
X348240Y200500D02*X349740D01*
X352292Y203500D02*Y197500D01*
Y203500D02*X354542Y201250D01*
X356792Y203500D01*
Y197500D01*
X358593Y203500D02*X361593D01*
X360093D02*Y197500D01*
X366095Y203500D02*Y198250D01*
X366845Y197500D01*
X368345D01*
X369095Y198250D01*
Y203500D02*Y198250D01*
X370896Y203500D02*X373896D01*
X372396D02*Y197500D01*
X376448D02*X378698D01*
X375698Y198250D02*X376448Y197500D01*
X375698Y202750D02*Y198250D01*
Y202750D02*X376448Y203500D01*
X378698D01*
X200000Y217750D02*Y212500D01*
Y217750D02*X200750Y218500D01*
X203000D01*
X203750Y217750D01*
Y212500D01*
X200000Y215500D02*X203750D01*
X205551D02*Y213250D01*
X206301Y212500D01*
X207801D01*
X208551Y213250D01*
Y215500D02*Y213250D01*
X211103Y218500D02*Y213250D01*
X211853Y212500D01*
X210353Y216250D02*X211853D01*
X213354Y218500D02*Y212500D01*
Y214750D02*X214104Y215500D01*
X215604D01*
X216354Y214750D01*
Y212500D01*
X218156Y214750D02*Y213250D01*
Y214750D02*X218906Y215500D01*
X220406D01*
X221156Y214750D01*
Y213250D01*
X220406Y212500D02*X221156Y213250D01*
X218906Y212500D02*X220406D01*
X218156Y213250D02*X218906Y212500D01*
X223707Y214750D02*Y212500D01*
Y214750D02*X224457Y215500D01*
X225957D01*
X222957D02*X223707Y214750D01*
X227759Y216250D02*X228509D01*
X227759Y214750D02*X228509D01*
X236010Y218500D02*X236760Y217750D01*
X233760Y218500D02*X236010D01*
X233010Y217750D02*X233760Y218500D01*
X233010Y217750D02*Y216250D01*
X233760Y215500D01*
X236010D01*
X236760Y214750D01*
Y213250D01*
X236010Y212500D02*X236760Y213250D01*
X233760Y212500D02*X236010D01*
X233010Y213250D02*X233760Y212500D01*
X239312Y214750D02*Y210250D01*
X238562Y215500D02*X239312Y214750D01*
X240062Y215500D01*
X241562D01*
X242312Y214750D01*
Y213250D01*
X241562Y212500D02*X242312Y213250D01*
X240062Y212500D02*X241562D01*
X239312Y213250D02*X240062Y212500D01*
X244863D02*X247113D01*
X244113Y213250D02*X244863Y212500D01*
X244113Y214750D02*Y213250D01*
Y214750D02*X244863Y215500D01*
X246363D01*
X247113Y214750D01*
X244113Y214000D02*X247113D01*
Y214750D02*Y214000D01*
X249665Y214750D02*Y212500D01*
Y214750D02*X250415Y215500D01*
X251165D01*
X251915Y214750D01*
Y212500D01*
X248915Y215500D02*X249665Y214750D01*
X254466Y215500D02*X256716D01*
X253716Y214750D02*X254466Y215500D01*
X253716Y214750D02*Y213250D01*
X254466Y212500D01*
X256716D01*
X259268D02*X261518D01*
X258518Y213250D02*X259268Y212500D01*
X258518Y214750D02*Y213250D01*
Y214750D02*X259268Y215500D01*
X260768D01*
X261518Y214750D01*
X258518Y214000D02*X261518D01*
Y214750D02*Y214000D01*
X264069Y214750D02*Y212500D01*
Y214750D02*X264819Y215500D01*
X266319D01*
X263319D02*X264069Y214750D01*
X270821Y218500D02*X273821D01*
X274571Y217750D01*
Y216250D01*
X273821Y215500D02*X274571Y216250D01*
X271571Y215500D02*X273821D01*
X271571Y218500D02*Y212500D01*
Y215500D02*X274571Y212500D01*
X276372Y215500D02*Y213250D01*
X277122Y212500D01*
X278622D01*
X279372Y213250D01*
Y215500D02*Y213250D01*
X281924Y212500D02*X284174D01*
X284924Y213250D01*
X284174Y214000D02*X284924Y213250D01*
X281924Y214000D02*X284174D01*
X281174Y214750D02*X281924Y214000D01*
X281174Y214750D02*X281924Y215500D01*
X284174D01*
X284924Y214750D01*
X281174Y213250D02*X281924Y212500D01*
X287475D02*X289725D01*
X290475Y213250D01*
X289725Y214000D02*X290475Y213250D01*
X287475Y214000D02*X289725D01*
X286725Y214750D02*X287475Y214000D01*
X286725Y214750D02*X287475Y215500D01*
X289725D01*
X290475Y214750D01*
X286725Y213250D02*X287475Y212500D01*
X293027D02*X295277D01*
X292277Y213250D02*X293027Y212500D01*
X292277Y214750D02*Y213250D01*
Y214750D02*X293027Y215500D01*
X294527D01*
X295277Y214750D01*
X292277Y214000D02*X295277D01*
Y214750D02*Y214000D01*
X297078Y218500D02*Y213250D01*
X297828Y212500D01*
X299330Y218500D02*Y213250D01*
X300080Y212500D01*
X200000Y233500D02*X203000D01*
X201500D02*Y227500D01*
X204801Y232000D02*Y231250D01*
Y229750D02*Y227500D01*
X207053Y233500D02*Y228250D01*
X207803Y227500D01*
X206303Y231250D02*X207803D01*
X209304Y233500D02*Y228250D01*
X210054Y227500D01*
X212306D02*X214556D01*
X211556Y228250D02*X212306Y227500D01*
X211556Y229750D02*Y228250D01*
Y229750D02*X212306Y230500D01*
X213806D01*
X214556Y229750D01*
X211556Y229000D02*X214556D01*
Y229750D02*Y229000D01*
X216357Y231250D02*X217107D01*
X216357Y229750D02*X217107D01*
X221609Y233500D02*Y228250D01*
X222359Y227500D01*
X223860Y229750D02*Y228250D01*
Y229750D02*X224610Y230500D01*
X226110D01*
X226860Y229750D01*
Y228250D01*
X226110Y227500D02*X226860Y228250D01*
X224610Y227500D02*X226110D01*
X223860Y228250D02*X224610Y227500D01*
X230912Y230500D02*X231662Y229750D01*
X229412Y230500D02*X230912D01*
X228662Y229750D02*X229412Y230500D01*
X228662Y229750D02*Y228250D01*
X229412Y227500D01*
X230912D01*
X231662Y228250D01*
X228662Y226000D02*X229412Y225250D01*
X230912D01*
X231662Y226000D01*
Y230500D02*Y226000D01*
X233463Y232000D02*Y231250D01*
Y229750D02*Y227500D01*
X235715Y230500D02*X237965D01*
X234965Y229750D02*X235715Y230500D01*
X234965Y229750D02*Y228250D01*
X235715Y227500D01*
X237965D01*
X242466Y230500D02*X245466D01*
X249968Y233500D02*Y227500D01*
Y233500D02*X252968D01*
X249968Y230500D02*X252218D01*
X257019D02*X257769Y229750D01*
X255519Y230500D02*X257019D01*
X254769Y229750D02*X255519Y230500D01*
X254769Y229750D02*Y228250D01*
X255519Y227500D01*
X257769Y230500D02*Y228250D01*
X258519Y227500D01*
X255519D02*X257019D01*
X257769Y228250D01*
X260321Y233500D02*Y227500D01*
Y228250D02*X261071Y227500D01*
X262571D01*
X263321Y228250D01*
Y229750D02*Y228250D01*
X262571Y230500D02*X263321Y229750D01*
X261071Y230500D02*X262571D01*
X260321Y229750D02*X261071Y230500D01*
X265872Y229750D02*Y227500D01*
Y229750D02*X266622Y230500D01*
X268122D01*
X265122D02*X265872Y229750D01*
X269924Y232000D02*Y231250D01*
Y229750D02*Y227500D01*
X272175Y230500D02*X274425D01*
X271425Y229750D02*X272175Y230500D01*
X271425Y229750D02*Y228250D01*
X272175Y227500D01*
X274425D01*
X278477Y230500D02*X279227Y229750D01*
X276977Y230500D02*X278477D01*
X276227Y229750D02*X276977Y230500D01*
X276227Y229750D02*Y228250D01*
X276977Y227500D01*
X279227Y230500D02*Y228250D01*
X279977Y227500D01*
X276977D02*X278477D01*
X279227Y228250D01*
X282528Y233500D02*Y228250D01*
X283278Y227500D01*
X281778Y231250D02*X283278D01*
X284780Y232000D02*Y231250D01*
Y229750D02*Y227500D01*
X286281Y229750D02*Y228250D01*
Y229750D02*X287031Y230500D01*
X288531D01*
X289281Y229750D01*
Y228250D01*
X288531Y227500D02*X289281Y228250D01*
X287031Y227500D02*X288531D01*
X286281Y228250D02*X287031Y227500D01*
X291833Y229750D02*Y227500D01*
Y229750D02*X292583Y230500D01*
X293333D01*
X294083Y229750D01*
Y227500D01*
X291083Y230500D02*X291833Y229750D01*
X299334Y233500D02*Y227500D01*
X301584Y233500D02*X302334Y232750D01*
Y228250D01*
X301584Y227500D02*X302334Y228250D01*
X298584Y227500D02*X301584D01*
X298584Y233500D02*X301584D01*
X304886Y229750D02*Y227500D01*
Y229750D02*X305636Y230500D01*
X307136D01*
X304136D02*X304886Y229750D01*
X311187Y230500D02*X311937Y229750D01*
X309687Y230500D02*X311187D01*
X308937Y229750D02*X309687Y230500D01*
X308937Y229750D02*Y228250D01*
X309687Y227500D01*
X311937Y230500D02*Y228250D01*
X312687Y227500D01*
X309687D02*X311187D01*
X311937Y228250D01*
X314489Y230500D02*Y228250D01*
X315239Y227500D01*
X315989D01*
X316739Y228250D01*
Y230500D02*Y228250D01*
X317489Y227500D01*
X318239D01*
X318989Y228250D01*
Y230500D02*Y228250D01*
X320790Y232000D02*Y231250D01*
Y229750D02*Y227500D01*
X323042Y229750D02*Y227500D01*
Y229750D02*X323792Y230500D01*
X324542D01*
X325292Y229750D01*
Y227500D01*
X322292Y230500D02*X323042Y229750D01*
X329343Y230500D02*X330093Y229750D01*
X327843Y230500D02*X329343D01*
X327093Y229750D02*X327843Y230500D01*
X327093Y229750D02*Y228250D01*
X327843Y227500D01*
X329343D01*
X330093Y228250D01*
X327093Y226000D02*X327843Y225250D01*
X329343D01*
X330093Y226000D01*
Y230500D02*Y226000D01*
M02*
