M48
INCH
T20C0.028
T21C0.025
T23C0.038
T24C0.035
T25C0.042
T26C0.125
T35C0.026
%
T21
X024000Y022250
X020250Y028750
X026750Y023000
X026750Y024000
X035500Y026000
X034250Y022750
X035250Y022750
X035500Y027000
X040750Y027000
X041750Y027000
X040500Y025000
X040500Y026000
X035500Y019250
X034250Y015000
X035250Y015000
X040500Y017250
X040750Y019250
X041750Y019250
X040500Y018250
X035500Y018250
X023000Y022250
X023962Y014250
X023962Y013250
X011750Y022250
X011500Y019000
X011500Y018000
X012750Y022250
X006500Y020000
X006500Y019000
X011500Y027250
X011500Y026250
X005250Y026250
X006250Y026250
X006500Y027250
X006500Y028250
X012750Y030500
X011750Y030500
X005250Y018000
X006250Y018000
X013500Y009500
X012500Y009500
X015962Y014250
X015962Y013250
X018962Y013000
X019962Y013000
X019962Y006750
X028462Y007750
X028462Y006750
X027212Y013000
X028212Y013000
X026462Y008000
X027462Y008000
X017962Y008000
X018962Y008000
X019962Y007750
X019750Y039250
X018750Y039500
X018750Y040500
X019750Y034250
X018750Y034250
X023000Y033000
X023000Y034000
X020250Y029750
X020750Y039250
X031750Y033000
X031750Y034000
X028500Y034250
X027500Y034250
X029500Y039250
X028500Y039250
X027500Y040500
X027500Y039500
X033750Y035000
X034750Y035000
X035935Y011249
X026315Y032339
X029509Y017585
X016260Y037585
X018900Y016000
T35
X021750Y028750
X023500Y023750
X022712Y023750
X025250Y023212
X025250Y024000
X027962Y014500
X027175Y014500
X034000Y018212
X034000Y019000
X020000Y014750
X019212Y014750
X013000Y026462
X013000Y018000
X013000Y018787
X005000Y027500
X005000Y028287
X013000Y027250
X005000Y019212
X005000Y020000
X012712Y008000
X013500Y008000
X018712Y006500
X017925Y006500
X027250Y006500
X026462Y006500
X020000Y040750
X018962Y032750
X019750Y032750
X021750Y029537
X020787Y040750
X027425Y032750
X028212Y032750
X028750Y040750
X029537Y040750
X042000Y018000
X042000Y017212
X042000Y025750
X042000Y024962
X034000Y026787
X034000Y026000
X033750Y036500
X034537Y036500
T20
X027000Y021250
X026000Y021250
X025000Y021250
X024000Y021250
X030000Y021250
X029000Y021250
X028000Y021250
X023000Y021250
X022000Y021250
X019250Y026750
X019250Y027750
X019250Y028750
X024000Y018250
X025000Y018250
X026000Y018250
X027750Y025000
X027750Y024000
X027750Y023000
X029000Y018250
X030750Y028000
X030750Y029000
X027750Y029000
X027750Y028000
X027750Y027000
X027750Y026000
X027000Y018250
X028000Y018250
X030000Y018250
X036500Y018250
X039500Y019250
X039500Y020250
X039500Y021250
X036500Y021250
X036500Y020250
X036500Y019250
X036500Y017250
X036500Y016250
X036500Y015250
X039500Y015250
X039500Y016250
X039500Y017250
X039500Y018250
X021000Y018250
X022000Y018250
X023000Y018250
X021000Y021250
X020000Y021250
X019000Y021250
X018000Y021250
X019250Y023750
X019250Y024750
X019250Y025750
X017000Y021250
X017000Y018250
X018000Y018250
X019000Y018250
X020000Y018250
X016250Y025750
X016250Y024750
X016250Y023750
X010500Y016000
X010500Y017000
X010500Y018000
X010500Y019000
X010500Y020000
X010500Y021000
X010500Y022000
X010500Y024500
X010500Y025500
X010500Y026500
X010500Y027500
X010500Y028500
X010500Y029500
X010500Y030500
X016250Y029750
X016250Y028750
X016250Y027750
X016250Y026750
X007500Y030500
X007500Y029500
X007500Y028500
X007500Y027500
X007500Y026500
X007500Y025500
X007500Y024500
X007500Y013500
X007500Y019000
X007500Y018000
X007500Y017000
X007500Y016000
X006500Y013500
X007500Y022000
X007500Y021000
X007500Y020000
X013500Y013500
X012500Y013500
X011500Y013500
X010500Y013500
X009500Y013500
X008500Y013500
X006500Y010500
X007500Y010500
X008500Y010500
X009500Y010500
X010500Y010500
X011500Y010500
X012500Y010500
X013500Y010500
X015962Y009000
X016962Y009000
X017962Y009000
X018962Y012000
X017962Y012000
X016962Y012000
X015962Y012000
X024212Y009000
X025212Y009000
X026212Y009000
X027212Y009000
X028212Y009000
X029212Y009000
X030212Y009000
X030212Y012000
X029212Y012000
X028212Y012000
X027212Y012000
X026212Y012000
X025212Y012000
X018962Y009000
X019962Y009000
X020962Y009000
X021962Y009000
X024212Y012000
X021962Y012000
X020962Y012000
X019962Y012000
X019750Y038250
X016750Y038250
X018750Y038250
X017750Y038250
X018750Y035250
X019750Y035250
X016750Y035250
X017750Y035250
X019250Y029750
X020750Y035250
X021750Y035250
X022750Y035250
X022750Y038250
X021750Y038250
X020750Y038250
X031750Y038250
X030750Y038250
X029750Y038250
X029750Y035250
X030750Y035250
X031750Y035250
X025750Y035250
X026750Y035250
X027750Y035250
X028750Y035250
X028750Y038250
X027750Y038250
X026750Y038250
X025750Y038250
X030750Y023000
X030750Y024000
X030750Y025000
X036500Y025000
X036500Y024000
X036500Y023000
X039500Y023000
X039500Y024000
X039500Y025000
X039500Y026000
X039500Y027000
X039500Y028000
X039500Y029000
X030750Y026000
X030750Y027000
X036500Y029000
X036500Y028000
X036500Y027000
X036500Y026000
X033750Y031000
X034750Y031000
X036750Y034000
X035750Y034000
X034750Y034000
X033750Y034000
X035750Y031000
X036750Y031000
X037750Y031000
X038750Y031000
X039750Y031000
X040750Y031000
X040750Y034000
X039750Y034000
X038750Y034000
X037750Y034000
T24
X024212Y015250
X024212Y016250
X030212Y014250
X029212Y014250
X029212Y013250
X030212Y013250
X026212Y015250
X026212Y016250
X034250Y015750
X034250Y016750
X032250Y016250
X033250Y016250
X033250Y015250
X032250Y015250
X033250Y017250
X032250Y017250
X034250Y021250
X034250Y020250
X035250Y021250
X035250Y020250
X035250Y017000
X035250Y016000
X040750Y015000
X040750Y016000
X041750Y016000
X041750Y015000
X024962Y014250
X025212Y016250
X025212Y015250
X025962Y014250
X025962Y013250
X024962Y013250
X022212Y014250
X022212Y013250
X017962Y013250
X017962Y014250
X021212Y014250
X021212Y013250
X016962Y013250
X016962Y014250
X017212Y016500
X017212Y015500
X018212Y016500
X016212Y016500
X014750Y021000
X013750Y021000
X013750Y022000
X014750Y022000
X013750Y020000
X014750Y020000
X018212Y015500
X016212Y015500
X011750Y025000
X011750Y024000
X011750Y017000
X011750Y016000
X011750Y020250
X011750Y021250
X012750Y021250
X012750Y020250
X012750Y015750
X012750Y016750
X012750Y024000
X012750Y025000
X011750Y028500
X011750Y029500
X005250Y024250
X005250Y025250
X004250Y025250
X004250Y024250
X005000Y029250
X005000Y030250
X006250Y030500
X006250Y029500
X006250Y025250
X006250Y024250
X012750Y029750
X012750Y028750
X013750Y030500
X014750Y030500
X013750Y028500
X014750Y028500
X014750Y029500
X013750Y029500
X004250Y016000
X004250Y017000
X005250Y016000
X005250Y017000
X006250Y017000
X006250Y016000
X006250Y022250
X006250Y021250
X005250Y021250
X005250Y022250
X016712Y006750
X015712Y006750
X015712Y007750
X016712Y007750
X024212Y007750
X025212Y007750
X029212Y007750
X030212Y007750
X020962Y005750
X021962Y005750
X021962Y006750
X020962Y006750
X029212Y005750
X030212Y005750
X030462Y006750
X029462Y006750
X025212Y006750
X024212Y006750
X020962Y007750
X021962Y007750
X017750Y041500
X016750Y040500
X016750Y039500
X016750Y041500
X017750Y040500
X017750Y039500
X016750Y033000
X017750Y033000
X017750Y034000
X016750Y034000
X021000Y034000
X022000Y034000
X022000Y033000
X020750Y032000
X020750Y031000
X021000Y033000
X022750Y032000
X022750Y031000
X021750Y031000
X021750Y032000
X023000Y039500
X022000Y039500
X022000Y040500
X023000Y040500
X031750Y032000
X030750Y032000
X029750Y032000
X030750Y031000
X029750Y031000
X030750Y033000
X029750Y033000
X029750Y034000
X030750Y034000
X025250Y033000
X026250Y034000
X025250Y034000
X026250Y033000
X031750Y039500
X031750Y040500
X030750Y039500
X030750Y040500
X026500Y040500
X026500Y039500
X025500Y039500
X026500Y041500
X025500Y041500
X025500Y040500
X041750Y021250
X040750Y021250
X042750Y021250
X041750Y022750
X041750Y020250
X040750Y020250
X042750Y020250
X042750Y028000
X042750Y029000
X041750Y029000
X041750Y028000
X040750Y028000
X040750Y029000
X033250Y023000
X032250Y023000
X035250Y024750
X035250Y023750
X032250Y024000
X032250Y025000
X033250Y024000
X033250Y025000
X034250Y023750
X034250Y024750
X040750Y022750
X040750Y023750
X041750Y023750
X034250Y028000
X035250Y028000
X035250Y029000
X034250Y029000
X031750Y031000
T23
X020750Y025500
X020750Y026500
X021750Y025500
X022750Y025500
X021750Y026500
X022750Y026500
X024500Y028250
X025500Y028250
X024500Y027250
X025500Y027250
X024500Y026250
X025500Y026250
X043750Y020250
X044750Y020250
X044750Y015000
X043750Y015000
X003250Y025250
X002250Y025250
X002250Y030500
X003250Y030500
X003250Y016750
X002250Y016750
X002250Y022250
X003250Y022250
X015962Y003500
X015962Y004500
X023962Y003750
X029212Y003750
X021212Y003500
X023962Y004750
X021212Y004500
X029212Y004750
X017750Y042500
X017750Y043500
X023000Y043500
X031500Y043500
X031500Y042500
X026250Y042500
X026250Y043500
X023000Y042500
X044750Y022750
X043750Y022750
X043750Y028000
X044750Y028000
T25
X001750Y029000
X001750Y027000
X002750Y027000
X003750Y027000
X002750Y029000
X003750Y029000
X001750Y018500
X002750Y018500
X003750Y018500
X001750Y020750
X002750Y020750
X003750Y020750
X017462Y003000
X017462Y004000
X017462Y005000
X019462Y003000
X019462Y004000
X019462Y005000
X025462Y003250
X027462Y003250
X025462Y004250
X025462Y005250
X027462Y004250
X027462Y005250
X019500Y044000
X019500Y043000
X019500Y042000
X021500Y044000
X021500Y043000
X021500Y042000
X030000Y044000
X030000Y043000
X030000Y042000
X028000Y044000
X028000Y043000
X028000Y042000
X045250Y018500
X044250Y018500
X043250Y018500
X045250Y016500
X044250Y016500
X043250Y016500
X045250Y026250
X044250Y026250
X045250Y024250
X044250Y024250
X043250Y026250
X043250Y024250
T26
X035000Y005000
X012500Y042500
X035000Y042500
X012500Y005000
M30
