G04 start of page 8 for group -4062 idx -4062 *
G04 Title: logic, soldermask *
G04 Creator: pcb 20091103 *
G04 CreationDate: Wed 03 Feb 2010 10:59:49 PM GMT UTC *
G04 For: srussell *
G04 Format: Gerber/RS-274X *
G04 PCB-Dimensions: 475000 475000 *
G04 PCB-Coordinate-Origin: lower left *
%MOIN*%
%FSLAX25Y25*%
%LNBACKMASK*%
%ADD13C,0.0200*%
%ADD28C,0.0660*%
%ADD29C,0.0550*%
%ADD30C,0.0560*%
%ADD31C,0.0680*%
%ADD32C,0.0650*%
%ADD33C,0.0780*%
%ADD34C,0.2200*%
G54D28*X270000Y212500D03*
X260000D03*
X250000D03*
X240000D03*
G54D13*G36*
X296700Y215800D02*Y209200D01*
X303300D01*
Y215800D01*
X296700D01*
G37*
G54D28*X290000Y212500D03*
X280000D03*
X230000D03*
G54D29*X240000Y222500D03*
G54D28*X220000Y212500D03*
X192500Y267500D03*
Y277500D03*
Y287500D03*
G54D29*X202500D03*
G54D30*X217500D03*
G54D13*G36*
X204100Y258400D02*Y251600D01*
X210900D01*
Y258400D01*
X204100D01*
G37*
G54D31*X207500Y265000D03*
X217500Y255000D03*
X227500D03*
G54D30*X235000Y237500D03*
X227126D03*
G54D31*X217500Y265000D03*
X227500D03*
G54D13*G36*
X241600Y285900D02*Y279100D01*
X248400D01*
Y285900D01*
X241600D01*
G37*
G54D31*X255000Y282500D03*
X245000Y272500D03*
X255000D03*
X245000Y262500D03*
X255000D03*
G54D28*X240000Y182500D03*
X250000D03*
X260000D03*
G54D30*X252500Y232126D03*
G54D29*X267500Y230000D03*
G54D30*X252500Y240000D03*
G54D29*X267500D03*
G54D28*X277500Y250000D03*
Y240000D03*
Y230000D03*
G54D13*G36*
X238876Y155750D02*Y149250D01*
X245376D01*
Y155750D01*
X238876D01*
G37*
G54D32*X242126Y162500D03*
G54D28*X290000Y182500D03*
G54D13*G36*
X298876Y145750D02*Y139250D01*
X305376D01*
Y145750D01*
X298876D01*
G37*
G54D32*X292126Y142500D03*
G54D13*G36*
X288876Y135750D02*Y129250D01*
X295376D01*
Y135750D01*
X288876D01*
G37*
G54D32*X302126Y132500D03*
G54D30*X279626Y145000D03*
G54D28*X307500Y280000D03*
Y290000D03*
X277500D03*
Y280000D03*
Y270000D03*
Y260000D03*
X270000Y182500D03*
G54D13*G36*
X258876Y155750D02*Y149250D01*
X265376D01*
Y155750D01*
X258876D01*
G37*
G54D32*X262126Y162500D03*
G54D30*X271752Y145000D03*
X355000Y260000D03*
X342500Y227500D03*
X352500D03*
X355000Y270000D03*
X407500D03*
X417500D03*
X405000Y250000D03*
Y260000D03*
G54D29*X355000Y192500D03*
X342500Y150000D03*
X352500D03*
X405000Y172500D03*
X407500Y192500D03*
X417500D03*
X405000Y182500D03*
X355000D03*
G54D28*X280000D03*
X300000D03*
X365000D03*
G54D30*X340000Y182126D03*
G54D13*G36*
X339250Y160750D02*Y154250D01*
X345750D01*
Y160750D01*
X339250D01*
G37*
G54D32*X342500Y167500D03*
G54D13*G36*
X319250Y165750D02*Y159250D01*
X325750D01*
Y165750D01*
X319250D01*
G37*
G54D32*X332500Y162500D03*
G54D13*G36*
X329250Y155750D02*Y149250D01*
X335750D01*
Y155750D01*
X329250D01*
G37*
G54D32*X322500Y152500D03*
G54D13*G36*
X329250Y175750D02*Y169250D01*
X335750D01*
Y175750D01*
X329250D01*
G37*
G54D32*X322500Y172500D03*
G54D13*G36*
X339250Y215750D02*Y209250D01*
X345750D01*
Y215750D01*
X339250D01*
G37*
G54D32*X342500Y202500D03*
X352500Y212500D03*
G54D28*X395000Y192500D03*
Y202500D03*
Y212500D03*
G54D13*G36*
X349250Y205750D02*Y199250D01*
X355750D01*
Y205750D01*
X349250D01*
G37*
G54D28*X365000Y212500D03*
Y202500D03*
Y192500D03*
G54D30*X340000Y190000D03*
G54D13*G36*
X434100Y205900D02*Y199100D01*
X440900D01*
Y205900D01*
X434100D01*
G37*
G54D31*X447500Y202500D03*
G54D13*G36*
X349250Y173250D02*Y166750D01*
X355750D01*
Y173250D01*
X349250D01*
G37*
G54D32*X352500Y160000D03*
G54D28*X365000Y172500D03*
Y162500D03*
Y152500D03*
G54D13*G36*
X404250Y153250D02*Y146750D01*
X410750D01*
Y153250D01*
X404250D01*
G37*
G36*
X391700Y155800D02*Y149200D01*
X398300D01*
Y155800D01*
X391700D01*
G37*
G54D28*X395000Y162500D03*
Y172500D03*
Y182500D03*
G54D32*X407500Y160000D03*
G54D13*G36*
X414250Y163250D02*Y156750D01*
X420750D01*
Y163250D01*
X414250D01*
G37*
G54D32*X417500Y150000D03*
G54D13*G36*
X444100Y153400D02*Y146600D01*
X450900D01*
Y153400D01*
X444100D01*
G37*
G54D31*X437500Y150000D03*
G54D29*X230000Y222500D03*
G54D13*G36*
X246376Y145750D02*Y139250D01*
X252876D01*
Y145750D01*
X246376D01*
G37*
G36*
X248876Y165750D02*Y159250D01*
X255376D01*
Y165750D01*
X248876D01*
G37*
G54D32*X252126Y152500D03*
X259626Y142500D03*
G54D13*G36*
X256376Y135750D02*Y129250D01*
X262876D01*
Y135750D01*
X256376D01*
G37*
G54D32*X249626Y132500D03*
G54D29*X239626Y142500D03*
Y132500D03*
G54D28*X210000Y182500D03*
X220000D03*
X230000D03*
G54D13*G36*
X218876Y145750D02*Y139250D01*
X225376D01*
Y145750D01*
X218876D01*
G37*
G54D32*X222126Y132500D03*
G54D30*X200000Y147500D03*
X192126D03*
G54D13*G36*
X176376Y135750D02*Y129250D01*
X182876D01*
Y135750D01*
X176376D01*
G37*
G54D32*X179626Y142500D03*
X212126D03*
G54D13*G36*
X208876Y135750D02*Y129250D01*
X215376D01*
Y135750D01*
X208876D01*
G37*
G54D32*X169626Y132500D03*
G54D13*G36*
X166376Y145750D02*Y139250D01*
X172876D01*
Y145750D01*
X166376D01*
G37*
G36*
X168876Y168250D02*Y161750D01*
X175376D01*
Y168250D01*
X168876D01*
G37*
G54D32*X172126Y155000D03*
G54D28*X210000Y212500D03*
X200000D03*
X190000D03*
X180000D03*
X192500Y237500D03*
Y247500D03*
Y257500D03*
X170000Y212500D03*
Y182500D03*
X180000D03*
X190000D03*
X200000D03*
G54D32*X182126Y165000D03*
X162126D03*
G54D13*G36*
X144250Y213250D02*Y206750D01*
X150750D01*
Y213250D01*
X144250D01*
G37*
G54D32*X137500Y210000D03*
G54D13*G36*
X134250Y223250D02*Y216750D01*
X140750D01*
Y223250D01*
X134250D01*
G37*
G54D32*X147500Y220000D03*
G54D13*G36*
X134250Y203250D02*Y196750D01*
X140750D01*
Y203250D01*
X134250D01*
G37*
G54D32*X147500Y200000D03*
G54D13*G36*
X178876Y158250D02*Y151750D01*
X185376D01*
Y158250D01*
X178876D01*
G37*
G36*
X158876D02*Y151750D01*
X165376D01*
Y158250D01*
X158876D01*
G37*
G54D30*X130000Y264626D03*
G54D13*G36*
X114250Y253250D02*Y246750D01*
X120750D01*
Y253250D01*
X114250D01*
G37*
G54D32*X117500Y240000D03*
G54D29*Y222500D03*
G54D28*X162500Y257500D03*
Y247500D03*
Y237500D03*
G54D13*G36*
X114250Y173250D02*Y166750D01*
X120750D01*
Y173250D01*
X114250D01*
G37*
G54D32*X117500Y160000D03*
G54D13*G36*
X114250Y205750D02*Y199250D01*
X120750D01*
Y205750D01*
X114250D01*
G37*
G54D32*X117500Y212500D03*
G54D29*X115000Y190000D03*
Y180000D03*
X127500Y222500D03*
G54D13*G36*
X124250Y215750D02*Y209250D01*
X130750D01*
Y215750D01*
X124250D01*
G37*
G54D32*X127500Y202500D03*
G54D28*X105000Y160000D03*
Y170000D03*
Y180000D03*
Y190000D03*
Y200000D03*
Y210000D03*
Y220000D03*
G54D29*X65000Y200000D03*
Y190000D03*
G54D30*X130000Y180000D03*
Y187874D03*
G54D13*G36*
X124250Y160750D02*Y154250D01*
X130750D01*
Y160750D01*
X124250D01*
G37*
G54D32*X127500Y167500D03*
G54D13*G36*
X124250Y243250D02*Y236750D01*
X130750D01*
Y243250D01*
X124250D01*
G37*
G54D32*X127500Y250000D03*
G54D28*X105000Y245000D03*
Y255000D03*
Y265000D03*
Y275000D03*
Y285000D03*
Y295000D03*
Y305000D03*
G54D13*G36*
X114250Y288250D02*Y281750D01*
X120750D01*
Y288250D01*
X114250D01*
G37*
G54D29*X115000Y272500D03*
Y262500D03*
G54D32*X117500Y295000D03*
G54D13*G36*
X159200Y300800D02*Y294200D01*
X165800D01*
Y300800D01*
X159200D01*
G37*
G54D28*X162500Y287500D03*
Y277500D03*
Y267500D03*
G54D13*G36*
X49250Y245750D02*Y239250D01*
X55750D01*
Y245750D01*
X49250D01*
G37*
G54D32*X52500Y252500D03*
G54D13*G36*
X39250Y255750D02*Y249250D01*
X45750D01*
Y255750D01*
X39250D01*
G37*
G54D32*X42500Y242500D03*
G54D29*X52500Y262500D03*
G54D30*X50000Y275000D03*
G54D13*G36*
X29100Y255900D02*Y249100D01*
X35900D01*
Y255900D01*
X29100D01*
G37*
G54D31*X22500Y252500D03*
G54D13*G36*
X71700Y308300D02*Y301700D01*
X78300D01*
Y308300D01*
X71700D01*
G37*
G54D28*X75000Y295000D03*
Y285000D03*
G54D29*X62500Y262500D03*
G54D28*X75000Y275000D03*
Y265000D03*
G54D29*X65000Y272500D03*
G54D13*G36*
X46750Y295750D02*Y289250D01*
X53250D01*
Y295750D01*
X46750D01*
G37*
G54D32*X50000Y302500D03*
G54D13*G36*
X59250Y308250D02*Y301750D01*
X65750D01*
Y308250D01*
X59250D01*
G37*
G54D32*X62500Y295000D03*
G54D28*X75000Y255000D03*
Y245000D03*
G54D13*G36*
X59250Y255750D02*Y249250D01*
X65750D01*
Y255750D01*
X59250D01*
G37*
G54D32*X62500Y242500D03*
G54D29*X65000Y282500D03*
G54D13*G36*
X13600Y293900D02*Y286100D01*
X21400D01*
Y293900D01*
X13600D01*
G37*
G36*
Y273900D02*Y266100D01*
X21400D01*
Y273900D01*
X13600D01*
G37*
G54D33*X27500Y270000D03*
X37500D03*
X27500Y290000D03*
X37500D03*
G54D30*X50000Y282874D03*
G54D13*G36*
X19100Y308400D02*Y301600D01*
X25900D01*
Y308400D01*
X19100D01*
G37*
G54D31*X32500Y305000D03*
G54D29*X127500D03*
G54D13*G36*
X124250Y300750D02*Y294250D01*
X130750D01*
Y300750D01*
X124250D01*
G37*
G54D32*X127500Y287500D03*
G54D29*X117500Y305000D03*
G54D13*G36*
X134250Y308250D02*Y301750D01*
X140750D01*
Y308250D01*
X134250D01*
G37*
G54D32*X147500Y305000D03*
G54D30*X130000Y272500D03*
G54D13*G36*
X134250Y288250D02*Y281750D01*
X140750D01*
Y288250D01*
X134250D01*
G37*
G54D32*X147500Y285000D03*
G54D13*G36*
X144250Y298250D02*Y291750D01*
X150750D01*
Y298250D01*
X144250D01*
G37*
G54D32*X137500Y295000D03*
G54D28*X75000Y135000D03*
Y190000D03*
Y180000D03*
Y170000D03*
Y160000D03*
X65000Y135000D03*
G54D32*X42500Y160000D03*
G54D13*G36*
X29100Y170900D02*Y164100D01*
X35900D01*
Y170900D01*
X29100D01*
G37*
G54D31*X22500Y167500D03*
G54D13*G36*
X13600Y188900D02*Y181100D01*
X21400D01*
Y188900D01*
X13600D01*
G37*
G54D33*X27500Y185000D03*
X37500D03*
G54D13*G36*
X39250Y173250D02*Y166750D01*
X45750D01*
Y173250D01*
X39250D01*
G37*
G54D29*X52500Y180000D03*
X62500D03*
G54D13*G36*
X49250Y163250D02*Y156750D01*
X55750D01*
Y163250D01*
X49250D01*
G37*
G54D32*X52500Y170000D03*
G54D30*X50000Y192126D03*
G54D13*G36*
X59250Y173250D02*Y166750D01*
X65750D01*
Y173250D01*
X59250D01*
G37*
G54D32*X62500Y160000D03*
G54D13*G36*
X19100Y225900D02*Y219100D01*
X25900D01*
Y225900D01*
X19100D01*
G37*
G36*
X13600Y211400D02*Y203600D01*
X21400D01*
Y211400D01*
X13600D01*
G37*
G54D33*X27500Y207500D03*
G54D31*X32500Y222500D03*
G54D33*X37500Y207500D03*
G54D13*G36*
X71700Y223300D02*Y216700D01*
X78300D01*
Y223300D01*
X71700D01*
G37*
G54D28*X75000Y210000D03*
Y200000D03*
G54D13*G36*
X59250Y225750D02*Y219250D01*
X65750D01*
Y225750D01*
X59250D01*
G37*
G54D32*X62500Y212500D03*
G54D30*X50000Y200000D03*
G54D13*G36*
X49250Y215750D02*Y209250D01*
X55750D01*
Y215750D01*
X49250D01*
G37*
G54D32*X52500Y222500D03*
G54D13*G36*
X131700Y138300D02*Y131700D01*
X138300D01*
Y138300D01*
X131700D01*
G37*
G54D28*X125000Y135000D03*
X115000D03*
X105000D03*
X95000D03*
X85000D03*
X65000Y105000D03*
X75000D03*
X85000D03*
X95000D03*
X105000D03*
X115000D03*
X125000D03*
X135000D03*
G54D30*X127126Y80000D03*
G54D29*X135000Y95000D03*
X125000D03*
X159626Y142500D03*
Y132500D03*
X189626Y130000D03*
X199626D03*
G54D30*X135000Y80000D03*
G54D13*G36*
X156326Y93300D02*Y86700D01*
X162926D01*
Y93300D01*
X156326D01*
G37*
G54D28*X169626Y90000D03*
X179626D03*
X189626Y120000D03*
X179626D03*
X169626D03*
X159626D03*
G54D13*G36*
X170726Y33900D02*Y26100D01*
X178526D01*
Y33900D01*
X170726D01*
G37*
G36*
X156226Y38400D02*Y31600D01*
X163026D01*
Y38400D01*
X156226D01*
G37*
G54D31*X159626Y45000D03*
G54D33*X174626Y40000D03*
Y50000D03*
G54D13*G36*
X163876Y70750D02*Y64250D01*
X170376D01*
Y70750D01*
X163876D01*
G37*
G54D32*X157126Y67500D03*
G54D30*X187126Y65000D03*
X179252D03*
G54D13*G36*
X153876Y80750D02*Y74250D01*
X160376D01*
Y80750D01*
X153876D01*
G37*
G54D32*X167126Y77500D03*
G54D13*G36*
X190726Y33900D02*Y26100D01*
X198526D01*
Y33900D01*
X190726D01*
G37*
G54D33*X194626Y40000D03*
Y50000D03*
G54D29*X199626Y67500D03*
G54D13*G36*
X238876Y80750D02*Y74250D01*
X245376D01*
Y80750D01*
X238876D01*
G37*
G54D32*X252126Y77500D03*
G54D13*G36*
X238826Y93300D02*Y86700D01*
X245426D01*
Y93300D01*
X238826D01*
G37*
G54D28*X252126Y90000D03*
X262126D03*
G54D29*X284626Y77500D03*
G54D13*G36*
X288876Y80750D02*Y74250D01*
X295376D01*
Y80750D01*
X288876D01*
G37*
G54D32*X302126Y77500D03*
G54D13*G36*
X236226Y40900D02*Y34100D01*
X243026D01*
Y40900D01*
X236226D01*
G37*
G54D31*X292126Y37500D03*
X212126Y35000D03*
G54D13*G36*
X250726Y36400D02*Y28600D01*
X258526D01*
Y36400D01*
X250726D01*
G37*
G36*
X270726D02*Y28600D01*
X278526D01*
Y36400D01*
X270726D01*
G37*
G54D31*X239626Y47500D03*
G54D13*G36*
X208726Y48400D02*Y41600D01*
X215526D01*
Y48400D01*
X208726D01*
G37*
G54D33*X254626Y42500D03*
Y52500D03*
X274626Y42500D03*
Y52500D03*
G54D13*G36*
X206376Y60750D02*Y54250D01*
X212876D01*
Y60750D01*
X206376D01*
G37*
G54D32*X219626Y57500D03*
G54D13*G36*
X216376Y70750D02*Y64250D01*
X222876D01*
Y70750D01*
X216376D01*
G37*
G54D32*X209626Y67500D03*
G54D13*G36*
X288726Y50900D02*Y44100D01*
X295526D01*
Y50900D01*
X288726D01*
G37*
G36*
X288876Y60750D02*Y54250D01*
X295376D01*
Y60750D01*
X288876D01*
G37*
G54D32*X302126Y57500D03*
G54D30*X272500Y65000D03*
G54D29*X284626Y67500D03*
G54D13*G36*
X301376Y70750D02*Y64250D01*
X307876D01*
Y70750D01*
X301376D01*
G37*
G54D32*X294626Y67500D03*
G54D30*X264626Y65000D03*
G54D13*G36*
X248876Y70750D02*Y64250D01*
X255376D01*
Y70750D01*
X248876D01*
G37*
G54D32*X242126Y67500D03*
G54D29*X272126Y130000D03*
X282126D03*
G54D28*X272126Y90000D03*
X282126D03*
X292126D03*
X302126D03*
Y120000D03*
X292126D03*
X282126D03*
X272126D03*
X262126D03*
X252126D03*
G54D29*X264626Y80000D03*
X274626D03*
X179626D03*
X189626D03*
G54D13*G36*
X206376Y80750D02*Y74250D01*
X212876D01*
Y80750D01*
X206376D01*
G37*
G54D32*X219626Y77500D03*
G54D29*X199626D03*
G54D28*X189626Y90000D03*
X199626D03*
X209626D03*
X219626D03*
X242126Y120000D03*
X219626D03*
X209626D03*
X199626D03*
G54D13*G36*
X191100Y443900D02*Y436100D01*
X198900D01*
Y443900D01*
X191100D01*
G37*
G54D33*X195000Y430000D03*
Y420000D03*
G54D28*X197500Y382500D03*
G54D30*X200000Y407500D03*
G54D29*X197500Y392500D03*
G54D13*G36*
X174100Y428400D02*Y421600D01*
X180900D01*
Y428400D01*
X174100D01*
G37*
G36*
X174250Y418250D02*Y411750D01*
X180750D01*
Y418250D01*
X174250D01*
G37*
G54D31*X177500Y435000D03*
G54D13*G36*
X164250Y408250D02*Y401750D01*
X170750D01*
Y408250D01*
X164250D01*
G37*
G54D32*X167500Y395000D03*
G54D28*Y382500D03*
G54D32*Y415000D03*
X177500Y405000D03*
G54D13*G36*
X174250Y398250D02*Y391750D01*
X180750D01*
Y398250D01*
X174250D01*
G37*
G54D28*X187500Y382500D03*
X177500D03*
G54D29*X187500Y395000D03*
Y405000D03*
G54D30*X189626Y327500D03*
G54D28*X187500Y352500D03*
X197500D03*
G54D29*Y342500D03*
X187500D03*
G54D13*G36*
X164250Y333250D02*Y326750D01*
X170750D01*
Y333250D01*
X164250D01*
G37*
G54D32*X177500Y330000D03*
G54D13*G36*
X174250Y343250D02*Y336750D01*
X180750D01*
Y343250D01*
X174250D01*
G37*
G54D32*X167500Y340000D03*
G54D28*Y352500D03*
X177500D03*
X192500Y297500D03*
G54D13*G36*
X206750Y343250D02*Y336750D01*
X213250D01*
Y343250D01*
X206750D01*
G37*
G54D28*X207500Y352500D03*
X217500D03*
X227500D03*
G54D32*X220000Y340000D03*
G54D13*G36*
X216750Y333250D02*Y326750D01*
X223250D01*
Y333250D01*
X216750D01*
G37*
G54D29*X230000Y330000D03*
Y340000D03*
G54D30*X197500Y327500D03*
G54D13*G36*
X204250Y323250D02*Y316750D01*
X210750D01*
Y323250D01*
X204250D01*
G37*
G54D32*X207500Y310000D03*
X210000Y330000D03*
G54D13*G36*
X224250Y323250D02*Y316750D01*
X230750D01*
Y323250D01*
X224250D01*
G37*
G54D32*X227500Y310000D03*
G54D13*G36*
X214250Y313250D02*Y306750D01*
X220750D01*
Y313250D01*
X214250D01*
G37*
G54D32*X217500Y320000D03*
G54D29*X202500Y297500D03*
G54D30*X217500Y295374D03*
G54D13*G36*
X226600Y438400D02*Y431600D01*
X233400D01*
Y438400D01*
X226600D01*
G37*
G36*
X224200Y385800D02*Y379200D01*
X230800D01*
Y385800D01*
X224200D01*
G37*
G54D28*X217500Y382500D03*
G54D13*G36*
X226750Y398250D02*Y391750D01*
X233250D01*
Y398250D01*
X226750D01*
G37*
G54D28*X207500Y382500D03*
G54D32*X220000Y395000D03*
G54D30*X207874Y407500D03*
G54D29*X207500Y392500D03*
G54D13*G36*
X216750Y408250D02*Y401750D01*
X223250D01*
Y408250D01*
X216750D01*
G37*
G54D32*X230000Y405000D03*
G54D13*G36*
X211100Y443900D02*Y436100D01*
X218900D01*
Y443900D01*
X211100D01*
G37*
G54D33*X215000Y430000D03*
Y420000D03*
G54D13*G36*
X314250Y323250D02*Y316750D01*
X320750D01*
Y323250D01*
X314250D01*
G37*
G54D32*X307500Y320000D03*
G54D13*G36*
X294250Y323250D02*Y316750D01*
X300750D01*
Y323250D01*
X294250D01*
G37*
G36*
X304250Y313250D02*Y306750D01*
X310750D01*
Y313250D01*
X304250D01*
G37*
G54D32*X297500Y310000D03*
G54D13*G36*
X314200Y385800D02*Y379200D01*
X320800D01*
Y385800D01*
X314200D01*
G37*
G54D28*X307500Y382500D03*
X297500D03*
Y352500D03*
X307500D03*
X317500D03*
G54D13*G36*
X304250Y333250D02*Y326750D01*
X310750D01*
Y333250D01*
X304250D01*
G37*
G54D29*X317500Y330000D03*
Y340000D03*
G54D32*X297500Y330000D03*
G54D13*G36*
X294250Y343250D02*Y336750D01*
X300750D01*
Y343250D01*
X294250D01*
G37*
G54D32*X307500Y340000D03*
G54D13*G36*
X249250Y333250D02*Y326750D01*
X255750D01*
Y333250D01*
X249250D01*
G37*
G36*
X259250Y343250D02*Y336750D01*
X265750D01*
Y343250D01*
X259250D01*
G37*
G54D32*X252500Y340000D03*
X262500Y330000D03*
G54D28*X257500Y352500D03*
X267500D03*
X277500D03*
X287500D03*
G54D30*X274252Y327500D03*
X282126D03*
G54D29*X285000Y342500D03*
X275000D03*
G54D13*G36*
X311600Y438400D02*Y431600D01*
X318400D01*
Y438400D01*
X311600D01*
G37*
G54D31*X315000Y425000D03*
G54D13*G36*
X296100Y443900D02*Y436100D01*
X303900D01*
Y443900D01*
X296100D01*
G37*
G54D33*X300000Y430000D03*
G54D29*X295000Y392500D03*
G54D33*X300000Y420000D03*
G54D30*X287500Y407500D03*
G54D13*G36*
X314250Y398250D02*Y391750D01*
X320750D01*
Y398250D01*
X314250D01*
G37*
G54D32*X317500Y405000D03*
X307500Y395000D03*
G54D13*G36*
X304250Y408250D02*Y401750D01*
X310750D01*
Y408250D01*
X304250D01*
G37*
G36*
X259100Y428400D02*Y421600D01*
X265900D01*
Y428400D01*
X259100D01*
G37*
G54D31*X262500Y435000D03*
G54D29*X285000Y392500D03*
X275000Y405000D03*
Y395000D03*
G54D28*X287500Y382500D03*
X277500D03*
X267500D03*
X257500D03*
G54D30*X295374Y407500D03*
G54D32*X265000Y405000D03*
G54D31*X230000Y425000D03*
G54D13*G36*
X261750Y398250D02*Y391750D01*
X268250D01*
Y398250D01*
X261750D01*
G37*
G54D32*X255000Y395000D03*
G54D13*G36*
X261750Y418250D02*Y411750D01*
X268250D01*
Y418250D01*
X261750D01*
G37*
G54D32*X255000Y415000D03*
G54D13*G36*
X251750Y408250D02*Y401750D01*
X258250D01*
Y408250D01*
X251750D01*
G37*
G36*
X276100Y443900D02*Y436100D01*
X283900D01*
Y443900D01*
X276100D01*
G37*
G54D33*X280000Y430000D03*
Y420000D03*
G54D13*G36*
X448600Y188900D02*Y181100D01*
X456400D01*
Y188900D01*
X448600D01*
G37*
G54D33*X442500Y185000D03*
X432500D03*
G54D13*G36*
X448600Y168900D02*Y161100D01*
X456400D01*
Y168900D01*
X448600D01*
G37*
G54D33*X442500Y165000D03*
X432500D03*
G54D13*G36*
X414250Y215750D02*Y209250D01*
X420750D01*
Y215750D01*
X414250D01*
G37*
G54D32*X407500Y212500D03*
X427500D03*
G54D13*G36*
X444100Y230900D02*Y224100D01*
X450900D01*
Y230900D01*
X444100D01*
G37*
G54D31*X437500Y227500D03*
G54D32*X417500D03*
Y202500D03*
G54D13*G36*
X404250Y205750D02*Y199250D01*
X410750D01*
Y205750D01*
X404250D01*
G37*
G36*
X424250D02*Y199250D01*
X430750D01*
Y205750D01*
X424250D01*
G37*
G54D30*X420000Y180000D03*
Y172126D03*
G54D13*G36*
X434100Y283400D02*Y276600D01*
X440900D01*
Y283400D01*
X434100D01*
G37*
G54D31*X447500Y280000D03*
G54D13*G36*
X448600Y266400D02*Y258600D01*
X456400D01*
Y266400D01*
X448600D01*
G37*
G54D33*X442500Y262500D03*
G54D13*G36*
X448600Y246400D02*Y238600D01*
X456400D01*
Y246400D01*
X448600D01*
G37*
G54D33*X442500Y242500D03*
X432500Y262500D03*
Y242500D03*
G54D13*G36*
X424250Y283250D02*Y276750D01*
X430750D01*
Y283250D01*
X424250D01*
G37*
G54D32*X427500Y290000D03*
G54D13*G36*
X414250Y293250D02*Y286750D01*
X420750D01*
Y293250D01*
X414250D01*
G37*
G54D32*X417500Y280000D03*
G54D13*G36*
X404250Y283250D02*Y276750D01*
X410750D01*
Y283250D01*
X404250D01*
G37*
G54D32*X407500Y290000D03*
G54D13*G36*
X304200Y233300D02*Y226700D01*
X310800D01*
Y233300D01*
X304200D01*
G37*
G36*
X329250Y233250D02*Y226750D01*
X335750D01*
Y233250D01*
X329250D01*
G37*
G54D32*X322500Y230000D03*
G54D13*G36*
X349250Y250750D02*Y244250D01*
X355750D01*
Y250750D01*
X349250D01*
G37*
G54D32*X352500Y237500D03*
G54D28*X307500Y240000D03*
Y250000D03*
G54D13*G36*
X319250Y243250D02*Y236750D01*
X325750D01*
Y243250D01*
X319250D01*
G37*
G54D32*X322500Y250000D03*
X332500Y240000D03*
G54D13*G36*
X329250Y253250D02*Y246750D01*
X335750D01*
Y253250D01*
X329250D01*
G37*
G36*
X339250Y240750D02*Y234250D01*
X345750D01*
Y240750D01*
X339250D01*
G37*
G54D32*X342500Y247500D03*
G54D28*X365000Y250000D03*
Y240000D03*
Y230000D03*
G54D30*X420000Y257500D03*
Y249626D03*
G54D13*G36*
X404250Y230750D02*Y224250D01*
X410750D01*
Y230750D01*
X404250D01*
G37*
G54D32*X407500Y237500D03*
G54D13*G36*
X414250Y240750D02*Y234250D01*
X420750D01*
Y240750D01*
X414250D01*
G37*
G36*
X391700Y233300D02*Y226700D01*
X398300D01*
Y233300D01*
X391700D01*
G37*
G54D28*X395000Y240000D03*
Y250000D03*
Y260000D03*
Y270000D03*
Y280000D03*
Y290000D03*
G54D32*X342500Y280000D03*
G54D28*X307500Y260000D03*
Y270000D03*
G54D30*X340000Y267874D03*
Y260000D03*
G54D13*G36*
X349250Y283250D02*Y276750D01*
X355750D01*
Y283250D01*
X349250D01*
G37*
G54D32*X352500Y290000D03*
G54D13*G36*
X339250Y293250D02*Y286750D01*
X345750D01*
Y293250D01*
X339250D01*
G37*
G54D28*X365000Y290000D03*
Y280000D03*
Y270000D03*
Y260000D03*
G54D32*X317500Y310000D03*
G54D13*G36*
X334200Y313300D02*Y306700D01*
X340800D01*
Y313300D01*
X334200D01*
G37*
G54D28*X347500Y310000D03*
X367500Y340000D03*
X357500D03*
X347500D03*
X337500D03*
G54D30*Y365000D03*
X345374D03*
G54D29*X337500Y350000D03*
X347500D03*
G54D28*X357500Y310000D03*
X367500D03*
X377500D03*
X387500D03*
X397500D03*
X407500D03*
Y340000D03*
X397500D03*
X387500D03*
X377500D03*
G54D34*X350000Y50000D03*
G54D30*X359350Y112499D03*
G54D34*X125000Y425000D03*
X350000D03*
X125000Y50000D03*
G54D30*X263150Y323399D03*
X295099Y175850D03*
X162600Y375850D03*
X189000Y160000D03*
M02*
