G04 start of page 4 for group 2 idx 2 *
G04 Title: logic, Power *
G04 Creator: pcb 20091103 *
G04 CreationDate: Wed 03 Feb 2010 10:59:49 PM GMT UTC *
G04 For: srussell *
G04 Format: Gerber/RS-274X *
G04 PCB-Dimensions: 475000 475000 *
G04 PCB-Coordinate-Origin: lower left *
%MOIN*%
%FSLAX25Y25*%
%LNGROUP2*%
%ADD12C,0.0600*%
%ADD13C,0.0200*%
%ADD14C,0.0490*%
%ADD15C,0.0500*%
%ADD16C,0.0620*%
%ADD17C,0.0590*%
%ADD18C,0.0720*%
%ADD19C,0.2050*%
%ADD20C,0.0280*%
%ADD21C,0.0250*%
%ADD22C,0.0260*%
%ADD23C,0.0380*%
%ADD24C,0.0350*%
%ADD25C,0.0420*%
%ADD26C,0.1250*%
%ADD27C,0.0400*%
G54D27*X275000Y342500D02*Y328248D01*
X274252Y327500D01*
X282126D02*Y339626D01*
X285000Y342500D01*
Y350000D01*
X287500Y352500D01*
X275000Y297500D02*X280000D01*
X410500Y302000D02*X289500D01*
X280000Y297500D02*X287500Y290000D01*
X289500Y302000D02*X282500Y309000D01*
Y327126D01*
X282126Y327500D01*
X326500Y329000D02*X317500Y320000D01*
X230000Y272500D02*X235000Y267500D01*
X217500D02*Y265000D01*
X222500Y272500D02*X217500Y267500D01*
X222500Y272500D02*X230000D01*
X224626Y295374D02*X230000Y290000D01*
X270000Y292500D02*X275000Y297500D01*
X255000Y282500D02*Y285000D01*
X250000Y290000D01*
X239000Y243000D02*X235000D01*
Y227500D02*Y267500D01*
X243500Y231500D02*Y238500D01*
X205000Y265000D02*X200000Y260000D01*
X207500Y265000D02*X205000D01*
X200000Y260000D02*Y232500D01*
X230000Y290000D02*X222500Y282500D01*
Y272500D01*
X243500Y238500D02*X239000Y243000D01*
X252500Y232126D02*X265374D01*
X267500Y230000D01*
X277500D01*
X252500Y240000D02*X267500D01*
X270000Y242500D01*
X200000Y232500D02*X197500Y230000D01*
X252500Y222500D02*X325000D01*
X332500Y230000D01*
X252500Y232126D02*Y223000D01*
Y222500D02*X243500Y231500D01*
X270000Y242500D02*Y292500D01*
X287500Y290000D02*X307500D01*
X332500Y265500D02*Y302000D01*
X338000Y260000D02*X332500Y265500D01*
X340000Y260000D02*X338000D01*
X192500Y305000D02*X197500Y310000D01*
X217500Y287500D02*X192500D01*
Y297500D02*X215374D01*
X189626Y327500D02*Y340374D01*
X197500Y352500D02*Y310000D01*
X217500Y295374D02*X215374Y297500D01*
X227500Y320000D02*X242500D01*
X217500Y295374D02*X224626D01*
X250000Y290000D02*X230000D01*
X240000Y212500D02*Y222500D01*
X235000Y227500D01*
X230000Y212500D02*Y222500D01*
X227500Y225000D01*
Y237126D01*
X227126Y237500D01*
X160000Y230000D02*X197500D01*
X155000Y270000D02*X152500Y272500D01*
X157500Y305000D02*X192500D01*
X155000Y302500D02*X157500Y305000D01*
X192500Y287500D02*X175000Y270000D01*
X165000Y237500D02*X162500D01*
X155000Y235000D02*Y302500D01*
X175000Y270000D02*Y247500D01*
X165000Y237500D01*
X15900Y261000D02*Y249100D01*
X37500Y261000D02*X15900D01*
X37501Y276801D02*X10699D01*
Y214300D01*
X37501Y214301D02*X10699D01*
X37500D02*Y207499D01*
X75000Y275000D02*X72500Y272500D01*
X56250Y275000D02*Y269999D01*
X56251Y270000D02*X37500D01*
X72500Y272500D02*X65000D01*
X15900Y249100D02*X44500Y220500D01*
X81201Y228651D02*X52500D01*
Y222499D01*
X53000Y228500D02*X44500Y220000D01*
X46500Y270000D02*X37500Y261000D01*
X107500Y272500D02*X105000Y275000D01*
X137501Y311201D02*X89100D01*
X137500D02*Y304999D01*
X130000Y264626D02*X117126D01*
X115000Y262500D01*
X152500Y272500D02*X107500D01*
X156001Y335701D02*X41100D01*
Y289999D01*
X50000Y275000D02*X62500D01*
X65000Y272500D01*
Y282500D02*X50374D01*
X50000Y282874D01*
X37500Y290000D02*Y276800D01*
X41101Y290000D02*X37500D01*
X89100Y311201D02*Y281512D01*
X89101Y311201D02*X52950D01*
Y302499D01*
X52951Y302500D02*X50000D01*
X89100Y311201D02*Y251824D01*
X115000Y180000D02*X130000D01*
Y187874D02*X117126D01*
X115000Y190000D01*
X105000D01*
X130374Y187500D02*X130000Y187874D01*
X145000Y187500D02*X130374D01*
X111350Y228651D02*X66850D01*
X111349D02*Y228150D01*
X137501Y228151D02*X111349D01*
X137500D02*Y219999D01*
X50000Y200000D02*X65000D01*
X50000Y192126D02*X52126Y190000D01*
X52299Y153800D02*X50000Y151501D01*
X52126Y190000D02*X75000D01*
X81200D02*Y153799D01*
X89100Y275000D02*Y228650D01*
X81200Y228651D02*Y171899D01*
X37500Y185651D02*Y184999D01*
Y196500D02*Y185000D01*
Y192000D02*X37626Y192126D01*
X50000D01*
X81201Y153800D02*X52299D01*
X44500Y220000D02*Y201501D01*
X42501D01*
X37500Y196500D01*
X340000Y267874D02*X352874D01*
X355000Y270000D01*
X347500Y350000D02*X407500D01*
X415000Y342500D01*
Y337500D01*
X407500Y330000D01*
Y310000D01*
X354000Y357500D02*X412000D01*
X422000Y347500D01*
Y331000D01*
X417000Y326000D01*
X345374Y365000D02*Y352126D01*
X326500Y368500D02*Y329000D01*
X337500Y395500D02*Y340000D01*
X332000Y374000D02*X326500Y368500D01*
X345000Y399000D02*Y376000D01*
X337500Y374000D02*X332000D01*
X345374Y352126D02*X347500Y350000D01*
X345000Y376000D02*X353500Y367500D01*
Y358000D01*
X354000Y357500D01*
X189626Y340374D02*X187500Y342500D01*
X197500Y320500D02*X166000D01*
X156000Y429000D02*Y330500D01*
Y379750D02*Y335700D01*
Y330500D02*X166000Y320500D01*
X242500Y447500D02*X285000D01*
X198500Y450500D02*X233000D01*
X237000Y454500D01*
X287500D01*
X280000Y420000D02*X287500D01*
X230000Y405000D02*X242500D01*
Y412500D02*X212000D01*
X242500Y447500D02*Y290000D01*
X177500Y450500D02*X198000D01*
X204500Y444000D01*
Y430500D01*
X215000Y420000D01*
X197500Y382500D02*Y392500D01*
X200000Y395000D02*X197500Y392500D01*
X200000Y395000D02*Y410000D01*
X207500Y392500D02*Y407126D01*
X207874Y407500D01*
X195000Y420000D02*X202000Y413000D01*
X200000Y407500D02*Y410000D01*
X205500Y415500D02*X200000Y410000D01*
X212000Y412500D02*X209000Y415500D01*
X205500D01*
X177500Y450500D02*X156000Y429000D01*
X320000Y413000D02*X337500Y395500D01*
X317500Y405000D02*Y413000D01*
X326000Y418000D02*X345000Y399000D01*
X285000Y447500D02*X287500Y445000D01*
X293000Y449000D02*Y427000D01*
X287500Y454500D02*X293000Y449000D01*
Y448500D02*X317500D01*
X326000Y440000D01*
Y418000D01*
X287500Y395000D02*X285000Y392500D01*
X287500Y390000D02*X285000Y392500D01*
X291500Y418500D02*X287500D01*
Y445000D02*Y395000D01*
X296875Y413125D02*X291500Y418500D01*
X293000Y427000D02*X300000Y420000D01*
X287500Y382500D02*Y390000D01*
X295000Y392500D02*Y407126D01*
X295374Y407500D01*
X296875Y413000D02*Y413125D01*
X320000Y413000D02*X296875D01*
X340374Y182500D02*X340000Y182126D01*
X310000Y156301D02*X321801Y144500D01*
X324500D02*X332500Y152500D01*
X321801Y144500D02*X324500D01*
X310000Y182500D02*Y156301D01*
X340000Y190000D02*X352500D01*
X355000Y192500D01*
X310000Y222500D02*Y182759D01*
X296241Y169000D01*
X319500Y147000D02*X324500Y142000D01*
X310000Y145053D02*X303053Y152000D01*
X405000Y250000D02*X419626D01*
X420000Y249626D01*
Y257500D02*X407500D01*
X405000Y260000D01*
X441500Y251500D02*X432500Y242500D01*
Y254770D02*X425330Y247600D01*
X417000Y326000D02*Y308500D01*
X410500Y302000D01*
X417000Y309000D02*X427411D01*
X460500Y275911D01*
Y258773D01*
X453227Y251500D01*
X441500D01*
X432500Y262500D02*Y254770D01*
X420000Y257500D02*X425000Y262500D01*
X432500D01*
X465701Y267342D02*X460500D01*
X371200Y260000D02*Y182499D01*
X338000Y260000D02*X371201D01*
X405000D02*X395000D01*
X425330Y247600D02*Y224830D01*
X417500Y227500D02*X422500Y222500D01*
X429000D01*
X442000Y209500D01*
X465700Y267342D02*Y171800D01*
X465701Y171801D02*X432500D01*
X340374Y182500D02*X371201D01*
X417500D02*X420000Y180000D01*
X405000Y172500D02*X419626D01*
X420000Y172126D01*
X427500Y180000D02*X420000D01*
X395000Y182500D02*X417500D01*
X442000Y209500D02*X449411D01*
X455000Y203911D01*
Y201089D01*
X446411Y192500D01*
X440000D01*
X427500Y180000D01*
X417500Y150000D02*X419000D01*
X424000Y155000D01*
Y168063D01*
X324500Y142000D02*X421500D01*
X424000Y144500D01*
Y158000D01*
Y168063D02*X426000Y170063D01*
X432500Y171801D02*Y164999D01*
X426000Y170063D02*Y180000D01*
X125000Y82126D02*X127126Y80000D01*
X122500Y97500D02*X125000Y95000D01*
Y82126D01*
X135000Y105000D02*Y68500D01*
X65000Y135000D02*Y120000D01*
X57500Y112500D01*
X50000Y95000D02*X76500Y68500D01*
X50000Y151501D02*Y95000D01*
X57500Y112500D02*Y97500D01*
X122500D01*
X76500Y68500D02*X135000D01*
X157127Y67500D02*X137500D01*
X148500Y89401D02*Y68500D01*
X155599Y96500D02*X148500Y89401D01*
X143500Y127356D02*X164856Y106000D01*
X162000Y96500D02*X155599D01*
X199626Y147126D02*X200000Y147500D01*
X189626Y145000D02*X192126Y147500D01*
X200000D02*Y130374D01*
Y147126D02*X199626D01*
X230725Y96201D02*X162313D01*
X160000Y230000D02*X155000Y235000D01*
X160000Y230000D02*Y202500D01*
X145000Y187500D01*
X239927Y169000D02*X234000Y163073D01*
X240500Y169000D02*X238000Y171500D01*
X220000Y182500D02*Y172000D01*
X238000Y171500D02*X156000D01*
X153000Y168500D01*
Y162000D01*
X160000Y155000D01*
X162126D01*
X143500Y187500D02*Y127356D01*
X274626Y67126D02*Y80000D01*
X264626Y65000D02*Y80000D01*
X272500Y65000D02*X274626Y67126D01*
Y52500D02*X282500D01*
X274627D02*X263477D01*
X254627Y53801D02*X225776D01*
X258277Y83651D02*X235925D01*
X258276D02*Y56100D01*
X242127Y67500D02*X230724D01*
X274626Y80000D02*X272126Y82500D01*
Y90000D01*
X283500Y54000D02*X272500Y65000D01*
X313500Y104000D02*Y49963D01*
X200000Y130374D02*X199626Y130000D01*
X189626Y67500D02*X187126Y65000D01*
X189626Y90000D02*Y67500D01*
X179252Y79626D02*X179626Y80000D01*
X187126Y65000D02*Y64126D01*
X179500Y56500D01*
X179252Y65000D02*Y79626D01*
X174651Y61349D02*X166000D01*
X179500Y56500D02*X174651Y61349D01*
X157126Y67500D02*Y61349D01*
X182500Y50000D02*X190000Y57500D01*
X200500D01*
X201500Y56500D01*
X174626Y50000D02*X182500D01*
X164856Y106000D02*X214396D01*
X235925D02*Y83650D01*
X230724Y96201D02*Y67499D01*
X279626Y145000D02*Y132500D01*
X296500Y169000D02*X239927D01*
X303053Y152000D02*X278563D01*
X271752Y145189D01*
X279626Y132500D02*X282126Y130000D01*
X271752Y145000D02*Y130374D01*
X272126Y130000D01*
Y120000D01*
X296896Y106000D02*X310000Y119104D01*
Y145053D01*
X323500Y143500D02*Y114000D01*
X313500Y104000D01*
X234000Y163073D02*Y160626D01*
X242126Y152500D01*
X230500Y144553D02*X220053Y155000D01*
X199437D01*
X192126Y147689D01*
X213000Y106000D02*X296896D01*
X189626Y120000D02*Y145000D01*
X214396Y106000D02*X230500Y122104D01*
Y144553D01*
X254949Y106000D02*X235925D01*
X263478Y23200D02*X187825D01*
X194626Y50000D02*X187500Y42874D01*
Y24000D01*
X225776Y53801D02*Y51349D01*
X225777Y51350D02*X201426D01*
Y56801D02*Y51349D01*
X263477Y52500D02*Y23199D01*
X258226Y52500D02*X254626D01*
X258225Y56101D02*Y52499D01*
X254626Y53801D02*Y52499D01*
X258277Y56101D02*X258225D01*
X283500Y34500D02*Y54000D01*
X313500Y49963D02*X293037Y29500D01*
X288500D01*
X283500Y34500D01*
X187826Y23200D02*X165926D01*
Y61350D02*Y23199D01*
X165927Y61350D02*X157126D01*
G54D12*X270000Y212500D03*
X260000D03*
X250000D03*
X240000D03*
G54D13*G36*
X297000Y215500D02*Y209500D01*
X303000D01*
Y215500D01*
X297000D01*
G37*
G54D12*X290000Y212500D03*
X280000D03*
X230000D03*
G54D14*X240000Y222500D03*
G54D12*X220000Y212500D03*
X192500Y267500D03*
Y277500D03*
Y287500D03*
G54D14*X202500D03*
G54D15*X217500D03*
G54D13*G36*
X204400Y258100D02*Y251900D01*
X210600D01*
Y258100D01*
X204400D01*
G37*
G54D16*X207500Y265000D03*
X217500Y255000D03*
X227500D03*
G54D15*X235000Y237500D03*
X227126D03*
G54D16*X217500Y265000D03*
X227500D03*
G54D13*G36*
X241900Y285600D02*Y279400D01*
X248100D01*
Y285600D01*
X241900D01*
G37*
G54D16*X255000Y282500D03*
X245000Y272500D03*
X255000D03*
X245000Y262500D03*
X255000D03*
G54D12*X240000Y182500D03*
X250000D03*
X260000D03*
G54D15*X252500Y232126D03*
G54D14*X267500Y230000D03*
G54D15*X252500Y240000D03*
G54D14*X267500D03*
G54D12*X277500Y250000D03*
Y240000D03*
Y230000D03*
G54D13*G36*
X239176Y155450D02*Y149550D01*
X245076D01*
Y155450D01*
X239176D01*
G37*
G54D17*X242126Y162500D03*
G54D12*X290000Y182500D03*
G54D13*G36*
X299176Y145450D02*Y139550D01*
X305076D01*
Y145450D01*
X299176D01*
G37*
G54D17*X292126Y142500D03*
G54D13*G36*
X289176Y135450D02*Y129550D01*
X295076D01*
Y135450D01*
X289176D01*
G37*
G54D17*X302126Y132500D03*
G54D15*X279626Y145000D03*
G54D12*X307500Y280000D03*
Y290000D03*
X277500D03*
Y280000D03*
Y270000D03*
Y260000D03*
X270000Y182500D03*
G54D13*G36*
X259176Y155450D02*Y149550D01*
X265076D01*
Y155450D01*
X259176D01*
G37*
G54D17*X262126Y162500D03*
G54D15*X271752Y145000D03*
G54D14*X355000Y260000D03*
X342500Y227500D03*
X352500D03*
X355000Y270000D03*
X407500D03*
X417500D03*
X405000Y250000D03*
Y260000D03*
X355000Y192500D03*
X342500Y150000D03*
X352500D03*
X405000Y172500D03*
X407500Y192500D03*
X417500D03*
X405000Y182500D03*
X355000D03*
G54D12*X280000D03*
X300000D03*
X365000D03*
G54D15*X340000Y182126D03*
G54D13*G36*
X339550Y160450D02*Y154550D01*
X345450D01*
Y160450D01*
X339550D01*
G37*
G54D17*X342500Y167500D03*
G54D13*G36*
X319550Y165450D02*Y159550D01*
X325450D01*
Y165450D01*
X319550D01*
G37*
G54D17*X332500Y162500D03*
G54D13*G36*
X329550Y155450D02*Y149550D01*
X335450D01*
Y155450D01*
X329550D01*
G37*
G54D17*X322500Y152500D03*
G54D13*G36*
X329550Y175450D02*Y169550D01*
X335450D01*
Y175450D01*
X329550D01*
G37*
G54D17*X322500Y172500D03*
G54D13*G36*
X339550Y215450D02*Y209550D01*
X345450D01*
Y215450D01*
X339550D01*
G37*
G54D17*X342500Y202500D03*
X352500Y212500D03*
G54D12*X395000Y192500D03*
Y202500D03*
Y212500D03*
G54D13*G36*
X349550Y205450D02*Y199550D01*
X355450D01*
Y205450D01*
X349550D01*
G37*
G54D12*X365000Y212500D03*
Y202500D03*
Y192500D03*
G54D15*X340000Y190000D03*
G54D13*G36*
X434400Y205600D02*Y199400D01*
X440600D01*
Y205600D01*
X434400D01*
G37*
G54D16*X447500Y202500D03*
G54D13*G36*
X349550Y172950D02*Y167050D01*
X355450D01*
Y172950D01*
X349550D01*
G37*
G54D17*X352500Y160000D03*
G54D12*X365000Y172500D03*
Y162500D03*
Y152500D03*
G54D13*G36*
X404550Y152950D02*Y147050D01*
X410450D01*
Y152950D01*
X404550D01*
G37*
G36*
X392000Y155500D02*Y149500D01*
X398000D01*
Y155500D01*
X392000D01*
G37*
G54D12*X395000Y162500D03*
Y172500D03*
Y182500D03*
G54D17*X407500Y160000D03*
G54D13*G36*
X414550Y162950D02*Y157050D01*
X420450D01*
Y162950D01*
X414550D01*
G37*
G54D17*X417500Y150000D03*
G54D13*G36*
X444400Y153100D02*Y146900D01*
X450600D01*
Y153100D01*
X444400D01*
G37*
G54D16*X437500Y150000D03*
G54D14*X230000Y222500D03*
G54D13*G36*
X246676Y145450D02*Y139550D01*
X252576D01*
Y145450D01*
X246676D01*
G37*
G36*
X249176Y165450D02*Y159550D01*
X255076D01*
Y165450D01*
X249176D01*
G37*
G54D17*X252126Y152500D03*
X259626Y142500D03*
G54D13*G36*
X256676Y135450D02*Y129550D01*
X262576D01*
Y135450D01*
X256676D01*
G37*
G54D17*X249626Y132500D03*
G54D14*X239626Y142500D03*
Y132500D03*
G54D12*X210000Y182500D03*
X220000D03*
X230000D03*
G54D13*G36*
X219176Y145450D02*Y139550D01*
X225076D01*
Y145450D01*
X219176D01*
G37*
G54D17*X222126Y132500D03*
G54D15*X200000Y147500D03*
X192126D03*
G54D13*G36*
X176676Y135450D02*Y129550D01*
X182576D01*
Y135450D01*
X176676D01*
G37*
G54D17*X179626Y142500D03*
X212126D03*
G54D13*G36*
X209176Y135450D02*Y129550D01*
X215076D01*
Y135450D01*
X209176D01*
G37*
G54D17*X169626Y132500D03*
G54D13*G36*
X166676Y145450D02*Y139550D01*
X172576D01*
Y145450D01*
X166676D01*
G37*
G36*
X169176Y167950D02*Y162050D01*
X175076D01*
Y167950D01*
X169176D01*
G37*
G54D17*X172126Y155000D03*
G54D12*X210000Y212500D03*
X200000D03*
X190000D03*
X180000D03*
X192500Y237500D03*
Y247500D03*
Y257500D03*
X170000Y212500D03*
Y182500D03*
X180000D03*
X190000D03*
X200000D03*
G54D17*X182126Y165000D03*
X162126D03*
G54D13*G36*
X144550Y212950D02*Y207050D01*
X150450D01*
Y212950D01*
X144550D01*
G37*
G54D17*X137500Y210000D03*
G54D13*G36*
X134550Y222950D02*Y217050D01*
X140450D01*
Y222950D01*
X134550D01*
G37*
G54D17*X147500Y220000D03*
G54D13*G36*
X134550Y202950D02*Y197050D01*
X140450D01*
Y202950D01*
X134550D01*
G37*
G54D17*X147500Y200000D03*
G54D13*G36*
X179176Y157950D02*Y152050D01*
X185076D01*
Y157950D01*
X179176D01*
G37*
G36*
X159176D02*Y152050D01*
X165076D01*
Y157950D01*
X159176D01*
G37*
G54D15*X130000Y264626D03*
G54D13*G36*
X114550Y252950D02*Y247050D01*
X120450D01*
Y252950D01*
X114550D01*
G37*
G54D17*X117500Y240000D03*
G54D14*Y222500D03*
G54D12*X162500Y257500D03*
Y247500D03*
Y237500D03*
G54D13*G36*
X114550Y172950D02*Y167050D01*
X120450D01*
Y172950D01*
X114550D01*
G37*
G54D17*X117500Y160000D03*
G54D13*G36*
X114550Y205450D02*Y199550D01*
X120450D01*
Y205450D01*
X114550D01*
G37*
G54D17*X117500Y212500D03*
G54D14*X115000Y190000D03*
Y180000D03*
X127500Y222500D03*
G54D13*G36*
X124550Y215450D02*Y209550D01*
X130450D01*
Y215450D01*
X124550D01*
G37*
G54D17*X127500Y202500D03*
G54D12*X105000Y160000D03*
Y170000D03*
Y180000D03*
Y190000D03*
Y200000D03*
Y210000D03*
Y220000D03*
G54D14*X65000Y200000D03*
Y190000D03*
G54D15*X130000Y180000D03*
Y187874D03*
G54D13*G36*
X124550Y160450D02*Y154550D01*
X130450D01*
Y160450D01*
X124550D01*
G37*
G54D17*X127500Y167500D03*
G54D13*G36*
X124550Y242950D02*Y237050D01*
X130450D01*
Y242950D01*
X124550D01*
G37*
G54D17*X127500Y250000D03*
G54D12*X105000Y245000D03*
Y255000D03*
Y265000D03*
Y275000D03*
Y285000D03*
Y295000D03*
Y305000D03*
G54D13*G36*
X114550Y287950D02*Y282050D01*
X120450D01*
Y287950D01*
X114550D01*
G37*
G54D14*X115000Y272500D03*
Y262500D03*
G54D17*X117500Y295000D03*
G54D13*G36*
X159500Y300500D02*Y294500D01*
X165500D01*
Y300500D01*
X159500D01*
G37*
G54D12*X162500Y287500D03*
Y277500D03*
Y267500D03*
G54D13*G36*
X49550Y245450D02*Y239550D01*
X55450D01*
Y245450D01*
X49550D01*
G37*
G54D17*X52500Y252500D03*
G54D13*G36*
X39550Y255450D02*Y249550D01*
X45450D01*
Y255450D01*
X39550D01*
G37*
G54D17*X42500Y242500D03*
G54D14*X52500Y262500D03*
G54D15*X50000Y275000D03*
G54D13*G36*
X29400Y255600D02*Y249400D01*
X35600D01*
Y255600D01*
X29400D01*
G37*
G54D16*X22500Y252500D03*
G54D13*G36*
X72000Y308000D02*Y302000D01*
X78000D01*
Y308000D01*
X72000D01*
G37*
G54D12*X75000Y295000D03*
Y285000D03*
G54D14*X62500Y262500D03*
G54D12*X75000Y275000D03*
Y265000D03*
G54D14*X65000Y272500D03*
G54D13*G36*
X47050Y295450D02*Y289550D01*
X52950D01*
Y295450D01*
X47050D01*
G37*
G54D17*X50000Y302500D03*
G54D13*G36*
X59550Y307950D02*Y302050D01*
X65450D01*
Y307950D01*
X59550D01*
G37*
G54D17*X62500Y295000D03*
G54D12*X75000Y255000D03*
Y245000D03*
G54D13*G36*
X59550Y255450D02*Y249550D01*
X65450D01*
Y255450D01*
X59550D01*
G37*
G54D17*X62500Y242500D03*
G54D14*X65000Y282500D03*
G54D13*G36*
X13900Y293600D02*Y286400D01*
X21100D01*
Y293600D01*
X13900D01*
G37*
G36*
Y273600D02*Y266400D01*
X21100D01*
Y273600D01*
X13900D01*
G37*
G54D18*X27500Y270000D03*
X37500D03*
X27500Y290000D03*
X37500D03*
G54D15*X50000Y282874D03*
G54D13*G36*
X19400Y308100D02*Y301900D01*
X25600D01*
Y308100D01*
X19400D01*
G37*
G54D16*X32500Y305000D03*
G54D14*X127500D03*
G54D13*G36*
X124550Y300450D02*Y294550D01*
X130450D01*
Y300450D01*
X124550D01*
G37*
G54D17*X127500Y287500D03*
G54D14*X117500Y305000D03*
G54D13*G36*
X134550Y307950D02*Y302050D01*
X140450D01*
Y307950D01*
X134550D01*
G37*
G54D17*X147500Y305000D03*
G54D15*X130000Y272500D03*
G54D13*G36*
X134550Y287950D02*Y282050D01*
X140450D01*
Y287950D01*
X134550D01*
G37*
G54D17*X147500Y285000D03*
G54D13*G36*
X144550Y297950D02*Y292050D01*
X150450D01*
Y297950D01*
X144550D01*
G37*
G54D17*X137500Y295000D03*
G54D12*X75000Y135000D03*
Y190000D03*
Y180000D03*
Y170000D03*
Y160000D03*
X65000Y135000D03*
G54D17*X42500Y160000D03*
G54D13*G36*
X29400Y170600D02*Y164400D01*
X35600D01*
Y170600D01*
X29400D01*
G37*
G54D16*X22500Y167500D03*
G54D13*G36*
X13900Y188600D02*Y181400D01*
X21100D01*
Y188600D01*
X13900D01*
G37*
G54D18*X27500Y185000D03*
X37500D03*
G54D13*G36*
X39550Y172950D02*Y167050D01*
X45450D01*
Y172950D01*
X39550D01*
G37*
G54D14*X52500Y180000D03*
X62500D03*
G54D13*G36*
X49550Y162950D02*Y157050D01*
X55450D01*
Y162950D01*
X49550D01*
G37*
G54D17*X52500Y170000D03*
G54D15*X50000Y192126D03*
G54D13*G36*
X59550Y172950D02*Y167050D01*
X65450D01*
Y172950D01*
X59550D01*
G37*
G54D17*X62500Y160000D03*
G54D13*G36*
X19400Y225600D02*Y219400D01*
X25600D01*
Y225600D01*
X19400D01*
G37*
G36*
X13900Y211100D02*Y203900D01*
X21100D01*
Y211100D01*
X13900D01*
G37*
G54D18*X27500Y207500D03*
G54D16*X32500Y222500D03*
G54D18*X37500Y207500D03*
G54D13*G36*
X72000Y223000D02*Y217000D01*
X78000D01*
Y223000D01*
X72000D01*
G37*
G54D12*X75000Y210000D03*
Y200000D03*
G54D13*G36*
X59550Y225450D02*Y219550D01*
X65450D01*
Y225450D01*
X59550D01*
G37*
G54D17*X62500Y212500D03*
G54D15*X50000Y200000D03*
G54D13*G36*
X49550Y215450D02*Y209550D01*
X55450D01*
Y215450D01*
X49550D01*
G37*
G54D17*X52500Y222500D03*
G54D13*G36*
X132000Y138000D02*Y132000D01*
X138000D01*
Y138000D01*
X132000D01*
G37*
G54D12*X125000Y135000D03*
X115000D03*
X105000D03*
X95000D03*
X85000D03*
X65000Y105000D03*
X75000D03*
X85000D03*
X95000D03*
X105000D03*
X115000D03*
X125000D03*
X135000D03*
G54D15*X127126Y80000D03*
G54D14*X135000Y95000D03*
X125000D03*
X159626Y142500D03*
Y132500D03*
X189626Y130000D03*
X199626D03*
G54D15*X135000Y80000D03*
G54D13*G36*
X156626Y93000D02*Y87000D01*
X162626D01*
Y93000D01*
X156626D01*
G37*
G54D12*X169626Y90000D03*
X179626D03*
X189626Y120000D03*
X179626D03*
X169626D03*
X159626D03*
G54D13*G36*
X171026Y33600D02*Y26400D01*
X178226D01*
Y33600D01*
X171026D01*
G37*
G36*
X156526Y38100D02*Y31900D01*
X162726D01*
Y38100D01*
X156526D01*
G37*
G54D16*X159626Y45000D03*
G54D18*X174626Y40000D03*
Y50000D03*
G54D13*G36*
X164176Y70450D02*Y64550D01*
X170076D01*
Y70450D01*
X164176D01*
G37*
G54D17*X157126Y67500D03*
G54D15*X187126Y65000D03*
X179252D03*
G54D13*G36*
X154176Y80450D02*Y74550D01*
X160076D01*
Y80450D01*
X154176D01*
G37*
G54D17*X167126Y77500D03*
G54D13*G36*
X191026Y33600D02*Y26400D01*
X198226D01*
Y33600D01*
X191026D01*
G37*
G54D18*X194626Y40000D03*
Y50000D03*
G54D14*X199626Y67500D03*
G54D13*G36*
X239176Y80450D02*Y74550D01*
X245076D01*
Y80450D01*
X239176D01*
G37*
G54D17*X252126Y77500D03*
G54D13*G36*
X239126Y93000D02*Y87000D01*
X245126D01*
Y93000D01*
X239126D01*
G37*
G54D12*X252126Y90000D03*
X262126D03*
G54D14*X284626Y77500D03*
G54D13*G36*
X289176Y80450D02*Y74550D01*
X295076D01*
Y80450D01*
X289176D01*
G37*
G54D17*X302126Y77500D03*
G54D13*G36*
X236526Y40600D02*Y34400D01*
X242726D01*
Y40600D01*
X236526D01*
G37*
G54D16*X292126Y37500D03*
X212126Y35000D03*
G54D13*G36*
X251026Y36100D02*Y28900D01*
X258226D01*
Y36100D01*
X251026D01*
G37*
G36*
X271026D02*Y28900D01*
X278226D01*
Y36100D01*
X271026D01*
G37*
G54D16*X239626Y47500D03*
G54D13*G36*
X209026Y48100D02*Y41900D01*
X215226D01*
Y48100D01*
X209026D01*
G37*
G54D18*X254626Y42500D03*
Y52500D03*
X274626Y42500D03*
Y52500D03*
G54D13*G36*
X206676Y60450D02*Y54550D01*
X212576D01*
Y60450D01*
X206676D01*
G37*
G54D17*X219626Y57500D03*
G54D13*G36*
X216676Y70450D02*Y64550D01*
X222576D01*
Y70450D01*
X216676D01*
G37*
G54D17*X209626Y67500D03*
G54D13*G36*
X289026Y50600D02*Y44400D01*
X295226D01*
Y50600D01*
X289026D01*
G37*
G36*
X289176Y60450D02*Y54550D01*
X295076D01*
Y60450D01*
X289176D01*
G37*
G54D17*X302126Y57500D03*
G54D15*X272500Y65000D03*
G54D14*X284626Y67500D03*
G54D13*G36*
X301676Y70450D02*Y64550D01*
X307576D01*
Y70450D01*
X301676D01*
G37*
G54D17*X294626Y67500D03*
G54D15*X264626Y65000D03*
G54D13*G36*
X249176Y70450D02*Y64550D01*
X255076D01*
Y70450D01*
X249176D01*
G37*
G54D17*X242126Y67500D03*
G54D14*X272126Y130000D03*
X282126D03*
G54D12*X272126Y90000D03*
X282126D03*
X292126D03*
X302126D03*
Y120000D03*
X292126D03*
X282126D03*
X272126D03*
X262126D03*
X252126D03*
G54D14*X264626Y80000D03*
X274626D03*
X179626D03*
X189626D03*
G54D13*G36*
X206676Y80450D02*Y74550D01*
X212576D01*
Y80450D01*
X206676D01*
G37*
G54D17*X219626Y77500D03*
G54D14*X199626D03*
G54D12*X189626Y90000D03*
X199626D03*
X209626D03*
X219626D03*
X242126Y120000D03*
X219626D03*
X209626D03*
X199626D03*
G54D13*G36*
X191400Y443600D02*Y436400D01*
X198600D01*
Y443600D01*
X191400D01*
G37*
G54D18*X195000Y430000D03*
Y420000D03*
G54D12*X197500Y382500D03*
G54D15*X200000Y407500D03*
G54D14*X197500Y392500D03*
G54D13*G36*
X174400Y428100D02*Y421900D01*
X180600D01*
Y428100D01*
X174400D01*
G37*
G36*
X174550Y417950D02*Y412050D01*
X180450D01*
Y417950D01*
X174550D01*
G37*
G54D16*X177500Y435000D03*
G54D13*G36*
X164550Y407950D02*Y402050D01*
X170450D01*
Y407950D01*
X164550D01*
G37*
G54D17*X167500Y395000D03*
G54D12*Y382500D03*
G54D17*Y415000D03*
X177500Y405000D03*
G54D13*G36*
X174550Y397950D02*Y392050D01*
X180450D01*
Y397950D01*
X174550D01*
G37*
G54D12*X187500Y382500D03*
X177500D03*
G54D14*X187500Y395000D03*
Y405000D03*
G54D15*X189626Y327500D03*
G54D12*X187500Y352500D03*
X197500D03*
G54D14*Y342500D03*
X187500D03*
G54D13*G36*
X164550Y332950D02*Y327050D01*
X170450D01*
Y332950D01*
X164550D01*
G37*
G54D17*X177500Y330000D03*
G54D13*G36*
X174550Y342950D02*Y337050D01*
X180450D01*
Y342950D01*
X174550D01*
G37*
G54D17*X167500Y340000D03*
G54D12*Y352500D03*
X177500D03*
X192500Y297500D03*
G54D13*G36*
X207050Y342950D02*Y337050D01*
X212950D01*
Y342950D01*
X207050D01*
G37*
G54D12*X207500Y352500D03*
X217500D03*
X227500D03*
G54D17*X220000Y340000D03*
G54D13*G36*
X217050Y332950D02*Y327050D01*
X222950D01*
Y332950D01*
X217050D01*
G37*
G54D14*X230000Y330000D03*
Y340000D03*
G54D15*X197500Y327500D03*
G54D13*G36*
X204550Y322950D02*Y317050D01*
X210450D01*
Y322950D01*
X204550D01*
G37*
G54D17*X207500Y310000D03*
X210000Y330000D03*
G54D13*G36*
X224550Y322950D02*Y317050D01*
X230450D01*
Y322950D01*
X224550D01*
G37*
G54D17*X227500Y310000D03*
G54D13*G36*
X214550Y312950D02*Y307050D01*
X220450D01*
Y312950D01*
X214550D01*
G37*
G54D17*X217500Y320000D03*
G54D14*X202500Y297500D03*
G54D15*X217500Y295374D03*
G54D13*G36*
X226900Y438100D02*Y431900D01*
X233100D01*
Y438100D01*
X226900D01*
G37*
G36*
X224500Y385500D02*Y379500D01*
X230500D01*
Y385500D01*
X224500D01*
G37*
G54D12*X217500Y382500D03*
G54D13*G36*
X227050Y397950D02*Y392050D01*
X232950D01*
Y397950D01*
X227050D01*
G37*
G54D12*X207500Y382500D03*
G54D17*X220000Y395000D03*
G54D15*X207874Y407500D03*
G54D14*X207500Y392500D03*
G54D13*G36*
X217050Y407950D02*Y402050D01*
X222950D01*
Y407950D01*
X217050D01*
G37*
G54D17*X230000Y405000D03*
G54D13*G36*
X211400Y443600D02*Y436400D01*
X218600D01*
Y443600D01*
X211400D01*
G37*
G54D18*X215000Y430000D03*
Y420000D03*
G54D13*G36*
X314550Y322950D02*Y317050D01*
X320450D01*
Y322950D01*
X314550D01*
G37*
G54D17*X307500Y320000D03*
G54D13*G36*
X294550Y322950D02*Y317050D01*
X300450D01*
Y322950D01*
X294550D01*
G37*
G36*
X304550Y312950D02*Y307050D01*
X310450D01*
Y312950D01*
X304550D01*
G37*
G54D17*X297500Y310000D03*
G54D13*G36*
X314500Y385500D02*Y379500D01*
X320500D01*
Y385500D01*
X314500D01*
G37*
G54D12*X307500Y382500D03*
X297500D03*
Y352500D03*
X307500D03*
X317500D03*
G54D13*G36*
X304550Y332950D02*Y327050D01*
X310450D01*
Y332950D01*
X304550D01*
G37*
G54D14*X317500Y330000D03*
Y340000D03*
G54D17*X297500Y330000D03*
G54D13*G36*
X294550Y342950D02*Y337050D01*
X300450D01*
Y342950D01*
X294550D01*
G37*
G54D17*X307500Y340000D03*
G54D13*G36*
X249550Y332950D02*Y327050D01*
X255450D01*
Y332950D01*
X249550D01*
G37*
G36*
X259550Y342950D02*Y337050D01*
X265450D01*
Y342950D01*
X259550D01*
G37*
G54D17*X252500Y340000D03*
X262500Y330000D03*
G54D12*X257500Y352500D03*
X267500D03*
X277500D03*
X287500D03*
G54D15*X274252Y327500D03*
X282126D03*
G54D14*X285000Y342500D03*
X275000D03*
G54D13*G36*
X311900Y438100D02*Y431900D01*
X318100D01*
Y438100D01*
X311900D01*
G37*
G54D16*X315000Y425000D03*
G54D13*G36*
X296400Y443600D02*Y436400D01*
X303600D01*
Y443600D01*
X296400D01*
G37*
G54D18*X300000Y430000D03*
G54D14*X295000Y392500D03*
G54D18*X300000Y420000D03*
G54D15*X287500Y407500D03*
G54D13*G36*
X314550Y397950D02*Y392050D01*
X320450D01*
Y397950D01*
X314550D01*
G37*
G54D17*X317500Y405000D03*
X307500Y395000D03*
G54D13*G36*
X304550Y407950D02*Y402050D01*
X310450D01*
Y407950D01*
X304550D01*
G37*
G36*
X259400Y428100D02*Y421900D01*
X265600D01*
Y428100D01*
X259400D01*
G37*
G54D16*X262500Y435000D03*
G54D14*X285000Y392500D03*
X275000Y405000D03*
Y395000D03*
G54D12*X287500Y382500D03*
X277500D03*
X267500D03*
X257500D03*
G54D15*X295374Y407500D03*
G54D17*X265000Y405000D03*
G54D16*X230000Y425000D03*
G54D13*G36*
X262050Y397950D02*Y392050D01*
X267950D01*
Y397950D01*
X262050D01*
G37*
G54D17*X255000Y395000D03*
G54D13*G36*
X262050Y417950D02*Y412050D01*
X267950D01*
Y417950D01*
X262050D01*
G37*
G54D17*X255000Y415000D03*
G54D13*G36*
X252050Y407950D02*Y402050D01*
X257950D01*
Y407950D01*
X252050D01*
G37*
G36*
X276400Y443600D02*Y436400D01*
X283600D01*
Y443600D01*
X276400D01*
G37*
G54D18*X280000Y430000D03*
Y420000D03*
G54D13*G36*
X448900Y188600D02*Y181400D01*
X456100D01*
Y188600D01*
X448900D01*
G37*
G54D18*X442500Y185000D03*
X432500D03*
G54D13*G36*
X448900Y168600D02*Y161400D01*
X456100D01*
Y168600D01*
X448900D01*
G37*
G54D18*X442500Y165000D03*
X432500D03*
G54D13*G36*
X414550Y215450D02*Y209550D01*
X420450D01*
Y215450D01*
X414550D01*
G37*
G54D17*X407500Y212500D03*
X427500D03*
G54D13*G36*
X444400Y230600D02*Y224400D01*
X450600D01*
Y230600D01*
X444400D01*
G37*
G54D16*X437500Y227500D03*
G54D17*X417500D03*
Y202500D03*
G54D13*G36*
X404550Y205450D02*Y199550D01*
X410450D01*
Y205450D01*
X404550D01*
G37*
G36*
X424550D02*Y199550D01*
X430450D01*
Y205450D01*
X424550D01*
G37*
G54D15*X420000Y180000D03*
Y172126D03*
G54D13*G36*
X434400Y283100D02*Y276900D01*
X440600D01*
Y283100D01*
X434400D01*
G37*
G54D16*X447500Y280000D03*
G54D13*G36*
X448900Y266100D02*Y258900D01*
X456100D01*
Y266100D01*
X448900D01*
G37*
G54D18*X442500Y262500D03*
G54D13*G36*
X448900Y246100D02*Y238900D01*
X456100D01*
Y246100D01*
X448900D01*
G37*
G54D18*X442500Y242500D03*
X432500Y262500D03*
Y242500D03*
G54D13*G36*
X424550Y282950D02*Y277050D01*
X430450D01*
Y282950D01*
X424550D01*
G37*
G54D17*X427500Y290000D03*
G54D13*G36*
X414550Y292950D02*Y287050D01*
X420450D01*
Y292950D01*
X414550D01*
G37*
G54D17*X417500Y280000D03*
G54D13*G36*
X404550Y282950D02*Y277050D01*
X410450D01*
Y282950D01*
X404550D01*
G37*
G54D17*X407500Y290000D03*
G54D13*G36*
X304500Y233000D02*Y227000D01*
X310500D01*
Y233000D01*
X304500D01*
G37*
G36*
X329550Y232950D02*Y227050D01*
X335450D01*
Y232950D01*
X329550D01*
G37*
G54D17*X322500Y230000D03*
G54D13*G36*
X349550Y250450D02*Y244550D01*
X355450D01*
Y250450D01*
X349550D01*
G37*
G54D17*X352500Y237500D03*
G54D12*X307500Y240000D03*
Y250000D03*
G54D13*G36*
X319550Y242950D02*Y237050D01*
X325450D01*
Y242950D01*
X319550D01*
G37*
G54D17*X322500Y250000D03*
X332500Y240000D03*
G54D13*G36*
X329550Y252950D02*Y247050D01*
X335450D01*
Y252950D01*
X329550D01*
G37*
G36*
X339550Y240450D02*Y234550D01*
X345450D01*
Y240450D01*
X339550D01*
G37*
G54D17*X342500Y247500D03*
G54D12*X365000Y250000D03*
Y240000D03*
Y230000D03*
G54D15*X420000Y257500D03*
Y249626D03*
G54D13*G36*
X404550Y230450D02*Y224550D01*
X410450D01*
Y230450D01*
X404550D01*
G37*
G54D17*X407500Y237500D03*
G54D13*G36*
X414550Y240450D02*Y234550D01*
X420450D01*
Y240450D01*
X414550D01*
G37*
G36*
X392000Y233000D02*Y227000D01*
X398000D01*
Y233000D01*
X392000D01*
G37*
G54D12*X395000Y240000D03*
Y250000D03*
Y260000D03*
Y270000D03*
Y280000D03*
Y290000D03*
G54D17*X342500Y280000D03*
G54D12*X307500Y260000D03*
Y270000D03*
G54D15*X340000Y267874D03*
Y260000D03*
G54D13*G36*
X349550Y282950D02*Y277050D01*
X355450D01*
Y282950D01*
X349550D01*
G37*
G54D17*X352500Y290000D03*
G54D13*G36*
X339550Y292950D02*Y287050D01*
X345450D01*
Y292950D01*
X339550D01*
G37*
G54D12*X365000Y290000D03*
Y280000D03*
Y270000D03*
Y260000D03*
G54D17*X317500Y310000D03*
G54D13*G36*
X334500Y313000D02*Y307000D01*
X340500D01*
Y313000D01*
X334500D01*
G37*
G54D12*X347500Y310000D03*
X367500Y340000D03*
X357500D03*
X347500D03*
X337500D03*
G54D15*Y365000D03*
X345374D03*
G54D14*X337500Y350000D03*
X347500D03*
G54D12*X357500Y310000D03*
X367500D03*
X377500D03*
X387500D03*
X397500D03*
X407500D03*
Y340000D03*
X397500D03*
X387500D03*
X377500D03*
G54D19*X350000Y50000D03*
G54D14*X359350Y112499D03*
G54D19*X125000Y425000D03*
X350000D03*
X125000Y50000D03*
G54D14*X263150Y323399D03*
X295099Y175850D03*
X162600Y375850D03*
X189000Y160000D03*
G54D20*G54D21*G54D20*G54D21*G54D22*G54D23*G54D22*G54D23*G54D20*G54D22*G54D21*G54D22*G54D21*G54D20*G54D24*G54D20*G54D24*G54D22*G54D20*G54D24*G54D22*G54D21*G54D20*G54D22*G54D24*G54D20*G54D24*G54D20*G54D22*G54D23*G54D24*G54D20*G54D24*G54D20*G54D24*G54D23*G54D21*G54D24*G54D21*G54D20*G54D24*G54D22*G54D24*G54D20*G54D24*G54D22*G54D24*G54D21*G54D20*G54D24*G54D21*G54D24*G54D20*G54D21*G54D22*G54D24*G54D20*G54D24*G54D21*G54D24*G54D20*G54D24*G54D21*G54D22*G54D23*G54D20*G54D21*G54D20*G54D21*G54D24*G54D20*G54D24*G54D21*G54D25*G54D22*G54D23*G54D21*G54D24*G54D21*G54D24*G54D22*G54D24*G54D20*G54D24*G54D23*G54D25*G54D24*G54D21*G54D24*G54D22*G54D24*G54D23*G54D25*G54D23*G54D25*G54D20*G54D24*G54D22*G54D24*G54D20*G54D22*G54D21*G54D22*G54D20*G54D25*G54D23*G54D25*G54D24*G54D22*G54D24*G54D25*G54D21*G54D24*G54D20*G54D21*G54D24*G54D23*G54D25*G54D23*G54D25*G54D24*G54D23*G54D24*G54D22*G54D21*G54D24*G54D22*G54D24*G54D21*G54D20*G54D21*G54D24*G54D21*G54D20*G54D25*G54D20*G54D22*G54D21*G54D23*G54D24*G54D23*G54D24*G54D20*G54D24*G54D20*G54D21*G54D22*G54D20*G54D21*G54D24*G54D20*G54D24*G54D20*G54D24*G54D21*G54D22*G54D24*G54D21*G54D22*G54D23*G54D20*G54D24*G54D20*G54D24*G54D22*G54D21*G54D24*G54D25*G54D24*G54D20*G54D24*G54D21*G54D24*G54D20*G54D22*G54D21*G54D23*G54D25*G54D21*G54D25*G54D22*G54D24*G54D23*G54D21*G54D20*G54D22*G54D24*G54D23*G54D24*G54D25*G54D24*G54D23*G54D24*G54D22*G54D23*G54D25*G54D24*G54D20*G54D24*G54D20*G54D24*G54D20*G54D22*G54D24*G54D20*G54D24*G54D20*G54D22*G54D24*G54D20*G54D24*G54D20*G54D22*G54D21*G54D20*G54D26*G54D21*G54D26*G54D21*M02*
