G04 start of page 2 for group 0 idx 0 *
G04 Title: logic, Component *
G04 Creator: pcb 20091103 *
G04 CreationDate: Tue 04 May 2010 04:01:06 PM GMT UTC *
G04 For: srussell *
G04 Format: Gerber/RS-274X *
G04 PCB-Dimensions: 175000 175000 *
G04 PCB-Coordinate-Origin: lower left *
%MOIN*%
%FSLAX25Y25*%
%LNFRONT*%
%ADD11C,0.0140*%
%ADD12C,0.0400*%
%ADD13C,0.0600*%
%ADD14C,0.0200*%
%ADD15C,0.0490*%
%ADD16C,0.0620*%
%ADD17C,0.0500*%
%ADD18C,0.2050*%
%ADD19C,0.0280*%
%ADD20C,0.0250*%
%ADD21C,0.0380*%
%ADD22C,0.0260*%
%ADD23C,0.1250*%
G54D11*X112500Y122500D02*X137599Y97401D01*
X97400Y128400D02*Y97401D01*
X22500Y77500D02*Y92500D01*
X17000Y75500D02*Y117000D01*
X14000Y71000D02*Y120932D01*
X17000Y117000D02*X22500Y122500D01*
X14000Y120932D02*X21068Y128000D01*
X26000D01*
X11000Y121611D02*X20389Y131000D01*
X8000Y122290D02*X19710Y134000D01*
X31500Y122500D02*X32500D01*
X42500Y92500D02*Y92499D01*
Y92500D02*Y92499D01*
X52500Y92500D02*Y92499D01*
X50002Y100002D02*X42500Y92500D01*
X11000Y66500D02*Y121611D01*
X26000Y128000D02*X31500Y122500D01*
X20389Y131000D02*X34000D01*
X42500Y122500D01*
X19710Y134000D02*X41000D01*
X52500Y122500D01*
X8000Y62000D02*Y122290D01*
G54D12*X95000Y80000D02*X88000Y73000D01*
X77500Y78500D02*Y72500D01*
X88000Y73000D02*Y70000D01*
X82626Y64626D01*
X77500D01*
X105000Y80000D02*X99000Y86000D01*
X85000D01*
X77500Y78500D01*
G54D11*X77401Y100002D02*X77400D01*
X97401Y97401D02*X97400D01*
X77400Y100002D02*X50002D01*
X57401Y97401D02*X52500Y92500D01*
X97400Y97401D02*X57401D01*
X111501Y142500D02*X111500D01*
X111501D01*
X111500D01*
X121500Y152500D02*Y152499D01*
Y152500D02*Y152499D01*
Y157501D02*Y152500D01*
X84274Y157501D02*X77400Y150627D01*
X121500Y157501D02*X84274D01*
X111500Y142500D02*X97400Y128400D01*
X119901Y60099D02*X73000D01*
X122500Y92500D02*X145000Y70000D01*
X112500Y92500D02*X135000Y70000D01*
X102500Y92500D02*X125000Y70000D01*
X137599Y97401D02*X156000D01*
X159000Y94401D01*
Y88000D01*
X150000Y79000D01*
X149000D01*
X121501Y157501D02*X121500D01*
X152500Y122500D02*Y122499D01*
Y122500D01*
X131500Y142500D02*Y139400D01*
Y139399D01*
Y142500D02*Y139400D01*
Y139399D01*
Y142500D02*Y139400D01*
X135600D02*X131500D01*
X152500Y122500D02*X135600Y139400D01*
G54D12*X92500Y122500D02*Y135000D01*
X82500D02*X84626Y137126D01*
Y150000D01*
X92500Y135000D02*Y150000D01*
X82500Y122500D02*Y135000D01*
G54D11*X77400Y150627D02*Y100002D01*
X73000Y60099D02*X63099Y70000D01*
G54D12*X95000D02*Y80000D01*
X105000Y70000D02*Y80000D01*
G54D11*X55002Y57498D02*X117502D01*
X63099Y70000D02*X55101D01*
X45000Y75000D02*X50000Y70000D01*
X54899D01*
X62500Y92500D02*Y92499D01*
Y92500D02*Y92499D01*
X52500Y92500D02*Y92499D01*
Y92500D02*Y92499D01*
X55002Y57498D02*X50000Y62500D01*
X61000Y44000D02*X55000Y50000D01*
X80000Y54897D02*X69103Y44000D01*
X61000D01*
X72000Y31000D02*X66000D01*
X60000Y37000D01*
Y37500D01*
X92000Y46000D02*X99000D01*
X105000Y40000D01*
X93000Y52000D02*X103000D01*
X115000Y40000D01*
X80000Y54897D02*X110103D01*
X125000Y40000D01*
X117502Y57498D02*X135000Y40000D01*
X120000Y60000D02*X125000D01*
X145000Y40000D01*
X25000Y75000D02*X22500Y77500D01*
X30000Y62500D02*X17000Y75500D01*
X35000Y50000D02*X14000Y71000D01*
X40000Y37500D02*X11000Y66500D01*
X45000Y25000D02*X8000Y62000D01*
X14500Y48000D02*X10000D01*
X50000Y12500D02*X14500Y48000D01*
X93000Y52000D02*X72000Y31000D01*
X86000Y40000D02*X92000Y46000D01*
X86000Y27000D02*X77000Y18000D01*
X72000D01*
X65000Y25000D01*
X95000Y17000D02*X84000Y6000D01*
X76500D01*
X70000Y12500D01*
X95000Y17000D02*Y40000D01*
X86000Y27000D02*Y40000D01*
G54D13*X122500Y122500D03*
X112500D03*
X102500D03*
X92500D03*
G54D14*G36*
X149500Y125500D02*Y119500D01*
X155500D01*
Y125500D01*
X149500D01*
G37*
G54D13*X142500Y122500D03*
X132500D03*
X82500D03*
G54D15*X92500Y135000D03*
G54D14*G36*
X108400Y145600D02*Y139400D01*
X114600D01*
Y145600D01*
X108400D01*
G37*
G54D16*X121500Y142500D03*
X131500D03*
G54D15*X82500Y135000D03*
G54D17*X92500Y150000D03*
X84626D03*
G54D16*X111500Y152500D03*
X121500D03*
X131500D03*
G54D13*X132500Y92500D03*
X142500D03*
X152500D03*
X72500Y122500D03*
G54D16*X80000Y12500D03*
X75000Y25000D03*
X65000D03*
X55000D03*
X45000D03*
X70000Y12500D03*
X60000D03*
X50000D03*
X70000Y37500D03*
X60000D03*
X50000D03*
G54D13*X92500Y92500D03*
X102500D03*
X112500D03*
X122500D03*
G54D15*X95000Y80000D03*
X105000D03*
G54D16*X55000Y75000D03*
Y50000D03*
X50000Y62500D03*
X45000Y75000D03*
Y50000D03*
X40000Y62500D03*
Y37500D03*
X35000Y75000D03*
Y50000D03*
X30000Y62500D03*
X25000Y75000D03*
G54D13*X62500Y92500D03*
X72500D03*
X82500D03*
G54D17*X77500Y64626D03*
Y72500D03*
G54D16*X65000Y50000D03*
X60000Y62500D03*
G54D14*G36*
X92000Y43000D02*Y37000D01*
X98000D01*
Y43000D01*
X92000D01*
G37*
G54D13*X105000Y40000D03*
X115000D03*
X125000D03*
Y70000D03*
X115000D03*
X105000D03*
X95000D03*
X135000Y40000D03*
Y70000D03*
X145000Y40000D03*
X155000D03*
X165000D03*
Y70000D03*
X155000D03*
X145000D03*
X62500Y122500D03*
X52500D03*
X42500D03*
X32500D03*
X22500D03*
Y92500D03*
X32500D03*
X42500D03*
X52500D03*
G54D14*G36*
X39400Y145600D02*Y139400D01*
X45600D01*
Y145600D01*
X39400D01*
G37*
G54D16*X52500Y142500D03*
X62500D03*
X42500Y152500D03*
X52500D03*
X62500D03*
G54D15*X10000Y48000D03*
X149000Y79000D03*
G54D18*X20000Y155000D03*
X155000D03*
X20000Y20000D03*
X155000D03*
G54D19*G54D20*G54D21*G54D20*G54D22*G54D21*G54D19*G54D21*G54D19*G54D20*G54D21*G54D19*G54D22*G54D21*G54D19*G54D21*G54D20*G54D23*M02*
