G04 start of page 4 for group 2 idx 2 *
G04 Title: logic, Power *
G04 Creator: pcb 20091103 *
G04 CreationDate: Tue 04 May 2010 05:21:54 PM GMT UTC *
G04 For: srussell *
G04 Format: Gerber/RS-274X *
G04 PCB-Dimensions: 175000 175000 *
G04 PCB-Coordinate-Origin: lower left *
%MOIN*%
%FSLAX25Y25*%
%LNGROUP2*%
%ADD13C,0.0600*%
%ADD14C,0.0200*%
%ADD15C,0.0620*%
%ADD16C,0.0490*%
%ADD17C,0.0500*%
%ADD18C,0.2050*%
%ADD19C,0.0280*%
%ADD20C,0.0380*%
%ADD21C,0.0250*%
%ADD22C,0.0260*%
%ADD23C,0.1250*%
G54D14*G36*
X175000Y175000D02*Y0D01*
X165000D01*
Y14455D01*
X165759Y16084D01*
X166276Y18012D01*
X166450Y20000D01*
X166276Y21988D01*
X165759Y23916D01*
X165000Y25545D01*
Y35500D01*
X165781Y35568D01*
X166539Y35771D01*
X167250Y36103D01*
X167893Y36553D01*
X168447Y37107D01*
X168897Y37750D01*
X169229Y38461D01*
X169432Y39219D01*
X169500Y40000D01*
X169432Y40781D01*
X169229Y41539D01*
X168897Y42250D01*
X168447Y42893D01*
X167893Y43447D01*
X167250Y43897D01*
X166539Y44229D01*
X165781Y44432D01*
X165000Y44500D01*
Y65500D01*
X165781Y65568D01*
X166539Y65771D01*
X167250Y66103D01*
X167893Y66553D01*
X168447Y67107D01*
X168897Y67750D01*
X169229Y68461D01*
X169432Y69219D01*
X169500Y70000D01*
X169432Y70781D01*
X169229Y71539D01*
X168897Y72250D01*
X168447Y72893D01*
X167893Y73447D01*
X167250Y73897D01*
X166539Y74229D01*
X165781Y74432D01*
X165000Y74500D01*
Y149455D01*
X165759Y151084D01*
X166276Y153012D01*
X166450Y155000D01*
X166276Y156988D01*
X165759Y158916D01*
X165000Y160545D01*
Y175000D01*
X175000D01*
G37*
G36*
X155000Y143550D02*X156988Y143724D01*
X158916Y144241D01*
X160725Y145084D01*
X162360Y146229D01*
X163771Y147640D01*
X164916Y149275D01*
X165000Y149455D01*
Y74500D01*
X164219Y74432D01*
X163461Y74229D01*
X162750Y73897D01*
X162107Y73447D01*
X161553Y72893D01*
X161103Y72250D01*
X160771Y71539D01*
X160568Y70781D01*
X160500Y70000D01*
X160568Y69219D01*
X160771Y68461D01*
X161103Y67750D01*
X161553Y67107D01*
X162107Y66553D01*
X162750Y66103D01*
X163461Y65771D01*
X164219Y65568D01*
X165000Y65500D01*
Y44500D01*
X164219Y44432D01*
X163461Y44229D01*
X162750Y43897D01*
X162107Y43447D01*
X161553Y42893D01*
X161103Y42250D01*
X160771Y41539D01*
X160568Y40781D01*
X160500Y40000D01*
X160568Y39219D01*
X160771Y38461D01*
X161103Y37750D01*
X161553Y37107D01*
X162107Y36553D01*
X162750Y36103D01*
X163461Y35771D01*
X164219Y35568D01*
X165000Y35500D01*
Y25545D01*
X164916Y25725D01*
X163771Y27360D01*
X162360Y28771D01*
X160725Y29916D01*
X158916Y30759D01*
X156988Y31276D01*
X155000Y31450D01*
Y35500D01*
X155781Y35568D01*
X156539Y35771D01*
X157250Y36103D01*
X157893Y36553D01*
X158447Y37107D01*
X158897Y37750D01*
X159229Y38461D01*
X159432Y39219D01*
X159500Y40000D01*
X159432Y40781D01*
X159229Y41539D01*
X158897Y42250D01*
X158447Y42893D01*
X157893Y43447D01*
X157250Y43897D01*
X156539Y44229D01*
X155781Y44432D01*
X155000Y44500D01*
Y65500D01*
X155781Y65568D01*
X156539Y65771D01*
X157250Y66103D01*
X157893Y66553D01*
X158447Y67107D01*
X158897Y67750D01*
X159229Y68461D01*
X159432Y69219D01*
X159500Y70000D01*
X159432Y70781D01*
X159229Y71539D01*
X158897Y72250D01*
X158447Y72893D01*
X157893Y73447D01*
X157250Y73897D01*
X156539Y74229D01*
X155781Y74432D01*
X155000Y74500D01*
Y88778D01*
X155393Y89053D01*
X155947Y89607D01*
X156397Y90250D01*
X156729Y90961D01*
X156932Y91719D01*
X157000Y92500D01*
X156932Y93281D01*
X156729Y94039D01*
X156397Y94750D01*
X155947Y95393D01*
X155393Y95947D01*
X155000Y96222D01*
Y118000D01*
X155500D01*
X155760Y118023D01*
X156013Y118090D01*
X156250Y118201D01*
X156464Y118351D01*
X156649Y118536D01*
X156799Y118750D01*
X156910Y118987D01*
X156977Y119240D01*
X157000Y119500D01*
Y125500D01*
X156977Y125760D01*
X156910Y126013D01*
X156799Y126250D01*
X156649Y126464D01*
X156464Y126649D01*
X156250Y126799D01*
X156013Y126910D01*
X155760Y126977D01*
X155500Y127000D01*
X155000D01*
Y143550D01*
G37*
G36*
X149000Y89683D02*X149053Y89607D01*
X149607Y89053D01*
X150250Y88603D01*
X150961Y88271D01*
X151719Y88068D01*
X152500Y88000D01*
X153281Y88068D01*
X154039Y88271D01*
X154750Y88603D01*
X155000Y88778D01*
Y74500D01*
X154219Y74432D01*
X153461Y74229D01*
X152750Y73897D01*
X152107Y73447D01*
X151553Y72893D01*
X151103Y72250D01*
X150771Y71539D01*
X150568Y70781D01*
X150500Y70000D01*
X150568Y69219D01*
X150771Y68461D01*
X151103Y67750D01*
X151553Y67107D01*
X152107Y66553D01*
X152750Y66103D01*
X153461Y65771D01*
X154219Y65568D01*
X155000Y65500D01*
Y44500D01*
X154219Y44432D01*
X153461Y44229D01*
X152750Y43897D01*
X152107Y43447D01*
X151553Y42893D01*
X151103Y42250D01*
X150771Y41539D01*
X150568Y40781D01*
X150500Y40000D01*
X150568Y39219D01*
X150771Y38461D01*
X151103Y37750D01*
X151553Y37107D01*
X152107Y36553D01*
X152750Y36103D01*
X153461Y35771D01*
X154219Y35568D01*
X155000Y35500D01*
Y31450D01*
X153012Y31276D01*
X151084Y30759D01*
X149275Y29916D01*
X149000Y29723D01*
Y37971D01*
X149229Y38461D01*
X149432Y39219D01*
X149500Y40000D01*
X149432Y40781D01*
X149229Y41539D01*
X149000Y42029D01*
Y67971D01*
X149229Y68461D01*
X149432Y69219D01*
X149500Y70000D01*
X149432Y70781D01*
X149229Y71539D01*
X149000Y72029D01*
Y75350D01*
X149634Y75405D01*
X150248Y75570D01*
X150825Y75839D01*
X151346Y76204D01*
X151796Y76654D01*
X152161Y77175D01*
X152430Y77752D01*
X152595Y78366D01*
X152650Y79000D01*
X152595Y79634D01*
X152430Y80248D01*
X152161Y80825D01*
X151796Y81346D01*
X151346Y81796D01*
X150825Y82161D01*
X150248Y82430D01*
X149634Y82595D01*
X149000Y82650D01*
Y89683D01*
G37*
G36*
Y118087D02*X149240Y118023D01*
X149500Y118000D01*
X155000D01*
Y96222D01*
X154750Y96397D01*
X154039Y96729D01*
X153281Y96932D01*
X152500Y97000D01*
X151719Y96932D01*
X150961Y96729D01*
X150250Y96397D01*
X149607Y95947D01*
X149053Y95393D01*
X149000Y95317D01*
Y118087D01*
G37*
G36*
Y145277D02*X149275Y145084D01*
X151084Y144241D01*
X153012Y143724D01*
X155000Y143550D01*
Y127000D01*
X149500D01*
X149240Y126977D01*
X149000Y126913D01*
Y145277D01*
G37*
G36*
Y42029D02*X148897Y42250D01*
X148447Y42893D01*
X147893Y43447D01*
X147250Y43897D01*
X146539Y44229D01*
X145781Y44432D01*
X145000Y44500D01*
Y65500D01*
X145781Y65568D01*
X146539Y65771D01*
X147250Y66103D01*
X147893Y66553D01*
X148447Y67107D01*
X148897Y67750D01*
X149000Y67971D01*
Y42029D01*
G37*
G36*
Y29723D02*X147640Y28771D01*
X146229Y27360D01*
X145084Y25725D01*
X145000Y25545D01*
Y35500D01*
X145781Y35568D01*
X146539Y35771D01*
X147250Y36103D01*
X147893Y36553D01*
X148447Y37107D01*
X148897Y37750D01*
X149000Y37971D01*
Y29723D01*
G37*
G36*
X145000Y149455D02*X145084Y149275D01*
X146229Y147640D01*
X147640Y146229D01*
X149000Y145277D01*
Y126913D01*
X148987Y126910D01*
X148750Y126799D01*
X148536Y126649D01*
X148351Y126464D01*
X148201Y126250D01*
X148090Y126013D01*
X148023Y125760D01*
X148000Y125500D01*
Y119500D01*
X148023Y119240D01*
X148090Y118987D01*
X148201Y118750D01*
X148351Y118536D01*
X148536Y118351D01*
X148750Y118201D01*
X148987Y118090D01*
X149000Y118087D01*
Y95317D01*
X148603Y94750D01*
X148271Y94039D01*
X148068Y93281D01*
X148000Y92500D01*
X148068Y91719D01*
X148271Y90961D01*
X148603Y90250D01*
X149000Y89683D01*
Y82650D01*
X148366Y82595D01*
X147752Y82430D01*
X147175Y82161D01*
X146654Y81796D01*
X146204Y81346D01*
X145839Y80825D01*
X145570Y80248D01*
X145405Y79634D01*
X145350Y79000D01*
X145405Y78366D01*
X145570Y77752D01*
X145839Y77175D01*
X146204Y76654D01*
X146654Y76204D01*
X147175Y75839D01*
X147752Y75570D01*
X148366Y75405D01*
X149000Y75350D01*
Y72029D01*
X148897Y72250D01*
X148447Y72893D01*
X147893Y73447D01*
X147250Y73897D01*
X146539Y74229D01*
X145781Y74432D01*
X145000Y74500D01*
Y88778D01*
X145393Y89053D01*
X145947Y89607D01*
X146397Y90250D01*
X146729Y90961D01*
X146932Y91719D01*
X147000Y92500D01*
X146932Y93281D01*
X146729Y94039D01*
X146397Y94750D01*
X145947Y95393D01*
X145393Y95947D01*
X145000Y96222D01*
Y118778D01*
X145393Y119053D01*
X145947Y119607D01*
X146397Y120250D01*
X146729Y120961D01*
X146932Y121719D01*
X147000Y122500D01*
X146932Y123281D01*
X146729Y124039D01*
X146397Y124750D01*
X145947Y125393D01*
X145393Y125947D01*
X145000Y126222D01*
Y149455D01*
G37*
G36*
Y175000D02*X165000D01*
Y160545D01*
X164916Y160725D01*
X163771Y162360D01*
X162360Y163771D01*
X160725Y164916D01*
X158916Y165759D01*
X156988Y166276D01*
X155000Y166450D01*
X153012Y166276D01*
X151084Y165759D01*
X149275Y164916D01*
X147640Y163771D01*
X146229Y162360D01*
X145084Y160725D01*
X145000Y160545D01*
Y175000D01*
G37*
G36*
X165000Y0D02*X145000D01*
Y14455D01*
X145084Y14275D01*
X146229Y12640D01*
X147640Y11229D01*
X149275Y10084D01*
X151084Y9241D01*
X153012Y8724D01*
X155000Y8550D01*
X156988Y8724D01*
X158916Y9241D01*
X160725Y10084D01*
X162360Y11229D01*
X163771Y12640D01*
X164916Y14275D01*
X165000Y14455D01*
Y0D01*
G37*
G36*
X145000D02*X132500D01*
Y36278D01*
X132750Y36103D01*
X133461Y35771D01*
X134219Y35568D01*
X135000Y35500D01*
X135781Y35568D01*
X136539Y35771D01*
X137250Y36103D01*
X137893Y36553D01*
X138447Y37107D01*
X138897Y37750D01*
X139229Y38461D01*
X139432Y39219D01*
X139500Y40000D01*
X139432Y40781D01*
X139229Y41539D01*
X138897Y42250D01*
X138447Y42893D01*
X137893Y43447D01*
X137250Y43897D01*
X136539Y44229D01*
X135781Y44432D01*
X135000Y44500D01*
X134219Y44432D01*
X133461Y44229D01*
X132750Y43897D01*
X132500Y43722D01*
Y66278D01*
X132750Y66103D01*
X133461Y65771D01*
X134219Y65568D01*
X135000Y65500D01*
X135781Y65568D01*
X136539Y65771D01*
X137250Y66103D01*
X137893Y66553D01*
X138447Y67107D01*
X138897Y67750D01*
X139229Y68461D01*
X139432Y69219D01*
X139500Y70000D01*
X139432Y70781D01*
X139229Y71539D01*
X138897Y72250D01*
X138447Y72893D01*
X137893Y73447D01*
X137250Y73897D01*
X136539Y74229D01*
X135781Y74432D01*
X135000Y74500D01*
X134219Y74432D01*
X133461Y74229D01*
X132750Y73897D01*
X132500Y73722D01*
Y88000D01*
X133281Y88068D01*
X134039Y88271D01*
X134750Y88603D01*
X135393Y89053D01*
X135947Y89607D01*
X136397Y90250D01*
X136729Y90961D01*
X136932Y91719D01*
X137000Y92500D01*
X136932Y93281D01*
X136729Y94039D01*
X136397Y94750D01*
X135947Y95393D01*
X135393Y95947D01*
X134750Y96397D01*
X134039Y96729D01*
X133281Y96932D01*
X132500Y97000D01*
Y118000D01*
X133281Y118068D01*
X134039Y118271D01*
X134750Y118603D01*
X135393Y119053D01*
X135947Y119607D01*
X136397Y120250D01*
X136729Y120961D01*
X136932Y121719D01*
X137000Y122500D01*
X136932Y123281D01*
X136729Y124039D01*
X136397Y124750D01*
X135947Y125393D01*
X135393Y125947D01*
X134750Y126397D01*
X134039Y126729D01*
X133281Y126932D01*
X132500Y127000D01*
Y138333D01*
X132972Y138459D01*
X133651Y138776D01*
X134265Y139206D01*
X134795Y139736D01*
X135225Y140350D01*
X135542Y141029D01*
X135736Y141753D01*
X135801Y142500D01*
X135736Y143247D01*
X135542Y143971D01*
X135225Y144650D01*
X134795Y145264D01*
X134265Y145794D01*
X133651Y146224D01*
X132972Y146541D01*
X132500Y146667D01*
Y148333D01*
X132972Y148459D01*
X133651Y148776D01*
X134265Y149206D01*
X134795Y149736D01*
X135225Y150350D01*
X135542Y151029D01*
X135736Y151753D01*
X135801Y152500D01*
X135736Y153247D01*
X135542Y153971D01*
X135225Y154650D01*
X134795Y155264D01*
X134265Y155794D01*
X133651Y156224D01*
X132972Y156541D01*
X132500Y156667D01*
Y175000D01*
X145000D01*
Y160545D01*
X144241Y158916D01*
X143724Y156988D01*
X143550Y155000D01*
X143724Y153012D01*
X144241Y151084D01*
X145000Y149455D01*
Y126222D01*
X144750Y126397D01*
X144039Y126729D01*
X143281Y126932D01*
X142500Y127000D01*
X141719Y126932D01*
X140961Y126729D01*
X140250Y126397D01*
X139607Y125947D01*
X139053Y125393D01*
X138603Y124750D01*
X138271Y124039D01*
X138068Y123281D01*
X138000Y122500D01*
X138068Y121719D01*
X138271Y120961D01*
X138603Y120250D01*
X139053Y119607D01*
X139607Y119053D01*
X140250Y118603D01*
X140961Y118271D01*
X141719Y118068D01*
X142500Y118000D01*
X143281Y118068D01*
X144039Y118271D01*
X144750Y118603D01*
X145000Y118778D01*
Y96222D01*
X144750Y96397D01*
X144039Y96729D01*
X143281Y96932D01*
X142500Y97000D01*
X141719Y96932D01*
X140961Y96729D01*
X140250Y96397D01*
X139607Y95947D01*
X139053Y95393D01*
X138603Y94750D01*
X138271Y94039D01*
X138068Y93281D01*
X138000Y92500D01*
X138068Y91719D01*
X138271Y90961D01*
X138603Y90250D01*
X139053Y89607D01*
X139607Y89053D01*
X140250Y88603D01*
X140961Y88271D01*
X141719Y88068D01*
X142500Y88000D01*
X143281Y88068D01*
X144039Y88271D01*
X144750Y88603D01*
X145000Y88778D01*
Y74500D01*
X144219Y74432D01*
X143461Y74229D01*
X142750Y73897D01*
X142107Y73447D01*
X141553Y72893D01*
X141103Y72250D01*
X140771Y71539D01*
X140568Y70781D01*
X140500Y70000D01*
X140568Y69219D01*
X140771Y68461D01*
X141103Y67750D01*
X141553Y67107D01*
X142107Y66553D01*
X142750Y66103D01*
X143461Y65771D01*
X144219Y65568D01*
X145000Y65500D01*
Y44500D01*
X144219Y44432D01*
X143461Y44229D01*
X142750Y43897D01*
X142107Y43447D01*
X141553Y42893D01*
X141103Y42250D01*
X140771Y41539D01*
X140568Y40781D01*
X140500Y40000D01*
X140568Y39219D01*
X140771Y38461D01*
X141103Y37750D01*
X141553Y37107D01*
X142107Y36553D01*
X142750Y36103D01*
X143461Y35771D01*
X144219Y35568D01*
X145000Y35500D01*
Y25545D01*
X144241Y23916D01*
X143724Y21988D01*
X143550Y20000D01*
X143724Y18012D01*
X144241Y16084D01*
X145000Y14455D01*
Y0D01*
G37*
G36*
X132500D02*X125000D01*
Y35500D01*
X125781Y35568D01*
X126539Y35771D01*
X127250Y36103D01*
X127893Y36553D01*
X128447Y37107D01*
X128897Y37750D01*
X129229Y38461D01*
X129432Y39219D01*
X129500Y40000D01*
X129432Y40781D01*
X129229Y41539D01*
X128897Y42250D01*
X128447Y42893D01*
X127893Y43447D01*
X127250Y43897D01*
X126539Y44229D01*
X125781Y44432D01*
X125000Y44500D01*
Y65500D01*
X125781Y65568D01*
X126539Y65771D01*
X127250Y66103D01*
X127893Y66553D01*
X128447Y67107D01*
X128897Y67750D01*
X129229Y68461D01*
X129432Y69219D01*
X129500Y70000D01*
X129432Y70781D01*
X129229Y71539D01*
X128897Y72250D01*
X128447Y72893D01*
X127893Y73447D01*
X127250Y73897D01*
X126539Y74229D01*
X125781Y74432D01*
X125000Y74500D01*
Y88778D01*
X125393Y89053D01*
X125947Y89607D01*
X126397Y90250D01*
X126729Y90961D01*
X126932Y91719D01*
X127000Y92500D01*
X126932Y93281D01*
X126729Y94039D01*
X126397Y94750D01*
X125947Y95393D01*
X125393Y95947D01*
X125000Y96222D01*
Y118778D01*
X125393Y119053D01*
X125947Y119607D01*
X126397Y120250D01*
X126729Y120961D01*
X126932Y121719D01*
X127000Y122500D01*
X126932Y123281D01*
X126729Y124039D01*
X126397Y124750D01*
X125947Y125393D01*
X125393Y125947D01*
X125000Y126222D01*
Y140029D01*
X125225Y140350D01*
X125542Y141029D01*
X125736Y141753D01*
X125801Y142500D01*
X125736Y143247D01*
X125542Y143971D01*
X125225Y144650D01*
X125000Y144971D01*
Y150029D01*
X125225Y150350D01*
X125542Y151029D01*
X125736Y151753D01*
X125801Y152500D01*
X125736Y153247D01*
X125542Y153971D01*
X125225Y154650D01*
X125000Y154971D01*
Y175000D01*
X132500D01*
Y156667D01*
X132248Y156735D01*
X131501Y156800D01*
X130754Y156735D01*
X130030Y156541D01*
X129351Y156224D01*
X128737Y155794D01*
X128207Y155264D01*
X127777Y154650D01*
X127460Y153971D01*
X127266Y153247D01*
X127201Y152500D01*
X127266Y151753D01*
X127460Y151029D01*
X127777Y150350D01*
X128207Y149736D01*
X128737Y149206D01*
X129351Y148776D01*
X130030Y148459D01*
X130754Y148265D01*
X131501Y148200D01*
X132248Y148265D01*
X132500Y148333D01*
Y146667D01*
X132248Y146735D01*
X131501Y146800D01*
X130754Y146735D01*
X130030Y146541D01*
X129351Y146224D01*
X128737Y145794D01*
X128207Y145264D01*
X127777Y144650D01*
X127460Y143971D01*
X127266Y143247D01*
X127201Y142500D01*
X127266Y141753D01*
X127460Y141029D01*
X127777Y140350D01*
X128207Y139736D01*
X128737Y139206D01*
X129351Y138776D01*
X130030Y138459D01*
X130754Y138265D01*
X131501Y138200D01*
X132248Y138265D01*
X132500Y138333D01*
Y127000D01*
X131719Y126932D01*
X130961Y126729D01*
X130250Y126397D01*
X129607Y125947D01*
X129053Y125393D01*
X128603Y124750D01*
X128271Y124039D01*
X128068Y123281D01*
X128000Y122500D01*
X128068Y121719D01*
X128271Y120961D01*
X128603Y120250D01*
X129053Y119607D01*
X129607Y119053D01*
X130250Y118603D01*
X130961Y118271D01*
X131719Y118068D01*
X132500Y118000D01*
Y97000D01*
X131719Y96932D01*
X130961Y96729D01*
X130250Y96397D01*
X129607Y95947D01*
X129053Y95393D01*
X128603Y94750D01*
X128271Y94039D01*
X128068Y93281D01*
X128000Y92500D01*
X128068Y91719D01*
X128271Y90961D01*
X128603Y90250D01*
X129053Y89607D01*
X129607Y89053D01*
X130250Y88603D01*
X130961Y88271D01*
X131719Y88068D01*
X132500Y88000D01*
Y73722D01*
X132107Y73447D01*
X131553Y72893D01*
X131103Y72250D01*
X130771Y71539D01*
X130568Y70781D01*
X130500Y70000D01*
X130568Y69219D01*
X130771Y68461D01*
X131103Y67750D01*
X131553Y67107D01*
X132107Y66553D01*
X132500Y66278D01*
Y43722D01*
X132107Y43447D01*
X131553Y42893D01*
X131103Y42250D01*
X130771Y41539D01*
X130568Y40781D01*
X130500Y40000D01*
X130568Y39219D01*
X130771Y38461D01*
X131103Y37750D01*
X131553Y37107D01*
X132107Y36553D01*
X132500Y36278D01*
Y0D01*
G37*
G36*
X125000D02*X115000D01*
Y35500D01*
X115781Y35568D01*
X116539Y35771D01*
X117250Y36103D01*
X117893Y36553D01*
X118447Y37107D01*
X118897Y37750D01*
X119229Y38461D01*
X119432Y39219D01*
X119500Y40000D01*
X119432Y40781D01*
X119229Y41539D01*
X118897Y42250D01*
X118447Y42893D01*
X117893Y43447D01*
X117250Y43897D01*
X116539Y44229D01*
X115781Y44432D01*
X115000Y44500D01*
Y65500D01*
X115781Y65568D01*
X116539Y65771D01*
X117250Y66103D01*
X117893Y66553D01*
X118447Y67107D01*
X118897Y67750D01*
X119229Y68461D01*
X119432Y69219D01*
X119500Y70000D01*
X119432Y70781D01*
X119229Y71539D01*
X118897Y72250D01*
X118447Y72893D01*
X117893Y73447D01*
X117250Y73897D01*
X116539Y74229D01*
X115781Y74432D01*
X115000Y74500D01*
Y88778D01*
X115393Y89053D01*
X115947Y89607D01*
X116397Y90250D01*
X116729Y90961D01*
X116932Y91719D01*
X117000Y92500D01*
X116932Y93281D01*
X116729Y94039D01*
X116397Y94750D01*
X115947Y95393D01*
X115393Y95947D01*
X115000Y96222D01*
Y118778D01*
X115393Y119053D01*
X115947Y119607D01*
X116397Y120250D01*
X116729Y120961D01*
X116932Y121719D01*
X117000Y122500D01*
X116932Y123281D01*
X116729Y124039D01*
X116397Y124750D01*
X115947Y125393D01*
X115393Y125947D01*
X115000Y126222D01*
Y138269D01*
X115011Y138272D01*
X115201Y138361D01*
X115372Y138481D01*
X115520Y138629D01*
X115640Y138800D01*
X115729Y138990D01*
X115783Y139192D01*
X115801Y139400D01*
Y145600D01*
X115783Y145808D01*
X115729Y146010D01*
X115640Y146200D01*
X115520Y146371D01*
X115372Y146519D01*
X115201Y146639D01*
X115011Y146728D01*
X115000Y146731D01*
Y150307D01*
X115070Y150331D01*
X115161Y150382D01*
X115243Y150448D01*
X115311Y150526D01*
X115365Y150616D01*
X115520Y150974D01*
X115642Y151344D01*
X115730Y151724D01*
X115783Y152111D01*
X115801Y152501D01*
X115783Y152890D01*
X115730Y153277D01*
X115642Y153657D01*
X115520Y154027D01*
X115365Y154385D01*
X115311Y154475D01*
X115243Y154553D01*
X115161Y154619D01*
X115070Y154670D01*
X115000Y154694D01*
Y175000D01*
X125000D01*
Y154971D01*
X124795Y155264D01*
X124265Y155794D01*
X123651Y156224D01*
X122972Y156541D01*
X122248Y156735D01*
X121501Y156800D01*
X120754Y156735D01*
X120030Y156541D01*
X119351Y156224D01*
X118737Y155794D01*
X118207Y155264D01*
X117777Y154650D01*
X117460Y153971D01*
X117266Y153247D01*
X117201Y152500D01*
X117266Y151753D01*
X117460Y151029D01*
X117777Y150350D01*
X118207Y149736D01*
X118737Y149206D01*
X119351Y148776D01*
X120030Y148459D01*
X120754Y148265D01*
X121501Y148200D01*
X122248Y148265D01*
X122972Y148459D01*
X123651Y148776D01*
X124265Y149206D01*
X124795Y149736D01*
X125000Y150029D01*
Y144971D01*
X124795Y145264D01*
X124265Y145794D01*
X123651Y146224D01*
X122972Y146541D01*
X122248Y146735D01*
X121501Y146800D01*
X120754Y146735D01*
X120030Y146541D01*
X119351Y146224D01*
X118737Y145794D01*
X118207Y145264D01*
X117777Y144650D01*
X117460Y143971D01*
X117266Y143247D01*
X117201Y142500D01*
X117266Y141753D01*
X117460Y141029D01*
X117777Y140350D01*
X118207Y139736D01*
X118737Y139206D01*
X119351Y138776D01*
X120030Y138459D01*
X120754Y138265D01*
X121501Y138200D01*
X122248Y138265D01*
X122972Y138459D01*
X123651Y138776D01*
X124265Y139206D01*
X124795Y139736D01*
X125000Y140029D01*
Y126222D01*
X124750Y126397D01*
X124039Y126729D01*
X123281Y126932D01*
X122500Y127000D01*
X121719Y126932D01*
X120961Y126729D01*
X120250Y126397D01*
X119607Y125947D01*
X119053Y125393D01*
X118603Y124750D01*
X118271Y124039D01*
X118068Y123281D01*
X118000Y122500D01*
X118068Y121719D01*
X118271Y120961D01*
X118603Y120250D01*
X119053Y119607D01*
X119607Y119053D01*
X120250Y118603D01*
X120961Y118271D01*
X121719Y118068D01*
X122500Y118000D01*
X123281Y118068D01*
X124039Y118271D01*
X124750Y118603D01*
X125000Y118778D01*
Y96222D01*
X124750Y96397D01*
X124039Y96729D01*
X123281Y96932D01*
X122500Y97000D01*
X121719Y96932D01*
X120961Y96729D01*
X120250Y96397D01*
X119607Y95947D01*
X119053Y95393D01*
X118603Y94750D01*
X118271Y94039D01*
X118068Y93281D01*
X118000Y92500D01*
X118068Y91719D01*
X118271Y90961D01*
X118603Y90250D01*
X119053Y89607D01*
X119607Y89053D01*
X120250Y88603D01*
X120961Y88271D01*
X121719Y88068D01*
X122500Y88000D01*
X123281Y88068D01*
X124039Y88271D01*
X124750Y88603D01*
X125000Y88778D01*
Y74500D01*
X124219Y74432D01*
X123461Y74229D01*
X122750Y73897D01*
X122107Y73447D01*
X121553Y72893D01*
X121103Y72250D01*
X120771Y71539D01*
X120568Y70781D01*
X120500Y70000D01*
X120568Y69219D01*
X120771Y68461D01*
X121103Y67750D01*
X121553Y67107D01*
X122107Y66553D01*
X122750Y66103D01*
X123461Y65771D01*
X124219Y65568D01*
X125000Y65500D01*
Y44500D01*
X124219Y44432D01*
X123461Y44229D01*
X122750Y43897D01*
X122107Y43447D01*
X121553Y42893D01*
X121103Y42250D01*
X120771Y41539D01*
X120568Y40781D01*
X120500Y40000D01*
X120568Y39219D01*
X120771Y38461D01*
X121103Y37750D01*
X121553Y37107D01*
X122107Y36553D01*
X122750Y36103D01*
X123461Y35771D01*
X124219Y35568D01*
X125000Y35500D01*
Y0D01*
G37*
G36*
X111501Y67181D02*X111553Y67107D01*
X112107Y66553D01*
X112750Y66103D01*
X113461Y65771D01*
X114219Y65568D01*
X115000Y65500D01*
Y44500D01*
X114219Y44432D01*
X113461Y44229D01*
X112750Y43897D01*
X112107Y43447D01*
X111553Y42893D01*
X111501Y42819D01*
Y67181D01*
G37*
G36*
Y88126D02*X111719Y88068D01*
X112500Y88000D01*
X113281Y88068D01*
X114039Y88271D01*
X114750Y88603D01*
X115000Y88778D01*
Y74500D01*
X114219Y74432D01*
X113461Y74229D01*
X112750Y73897D01*
X112107Y73447D01*
X111553Y72893D01*
X111501Y72819D01*
Y88126D01*
G37*
G36*
Y118126D02*X111719Y118068D01*
X112500Y118000D01*
X113281Y118068D01*
X114039Y118271D01*
X114750Y118603D01*
X115000Y118778D01*
Y96222D01*
X114750Y96397D01*
X114039Y96729D01*
X113281Y96932D01*
X112500Y97000D01*
X111719Y96932D01*
X111501Y96874D01*
Y118126D01*
G37*
G36*
Y138200D02*X114601D01*
X114809Y138218D01*
X115000Y138269D01*
Y126222D01*
X114750Y126397D01*
X114039Y126729D01*
X113281Y126932D01*
X112500Y127000D01*
X111719Y126932D01*
X111501Y126874D01*
Y138200D01*
G37*
G36*
Y175000D02*X115000D01*
Y154694D01*
X114971Y154704D01*
X114868Y154720D01*
X114763Y154718D01*
X114661Y154698D01*
X114563Y154661D01*
X114473Y154607D01*
X114395Y154539D01*
X114329Y154457D01*
X114278Y154366D01*
X114244Y154267D01*
X114228Y154164D01*
X114230Y154059D01*
X114250Y153957D01*
X114287Y153859D01*
X114398Y153601D01*
X114486Y153334D01*
X114550Y153060D01*
X114588Y152781D01*
X114601Y152500D01*
X114588Y152220D01*
X114550Y151941D01*
X114486Y151667D01*
X114398Y151400D01*
X114287Y151142D01*
X114250Y151044D01*
X114230Y150942D01*
X114228Y150837D01*
X114244Y150734D01*
X114278Y150635D01*
X114329Y150544D01*
X114395Y150462D01*
X114473Y150394D01*
X114563Y150340D01*
X114661Y150303D01*
X114763Y150283D01*
X114868Y150281D01*
X114971Y150297D01*
X115000Y150307D01*
Y146731D01*
X114809Y146782D01*
X114601Y146800D01*
X111501D01*
Y148200D01*
X111890Y148218D01*
X112277Y148271D01*
X112657Y148359D01*
X113027Y148481D01*
X113385Y148636D01*
X113475Y148690D01*
X113553Y148758D01*
X113619Y148840D01*
X113670Y148931D01*
X113704Y149030D01*
X113720Y149133D01*
X113718Y149238D01*
X113698Y149340D01*
X113661Y149438D01*
X113607Y149528D01*
X113539Y149606D01*
X113457Y149672D01*
X113366Y149723D01*
X113267Y149757D01*
X113164Y149773D01*
X113059Y149771D01*
X112957Y149751D01*
X112859Y149714D01*
X112601Y149603D01*
X112334Y149515D01*
X112060Y149451D01*
X111781Y149413D01*
X111501Y149400D01*
Y155600D01*
X111781Y155588D01*
X112060Y155550D01*
X112334Y155486D01*
X112601Y155398D01*
X112859Y155287D01*
X112957Y155250D01*
X113059Y155230D01*
X113164Y155228D01*
X113267Y155244D01*
X113366Y155278D01*
X113457Y155329D01*
X113539Y155395D01*
X113607Y155473D01*
X113661Y155563D01*
X113698Y155661D01*
X113718Y155763D01*
X113720Y155868D01*
X113704Y155971D01*
X113670Y156070D01*
X113619Y156161D01*
X113553Y156243D01*
X113475Y156311D01*
X113385Y156365D01*
X113027Y156520D01*
X112657Y156642D01*
X112277Y156730D01*
X111890Y156783D01*
X111501Y156800D01*
Y175000D01*
G37*
G36*
X115000Y0D02*X111501D01*
Y37181D01*
X111553Y37107D01*
X112107Y36553D01*
X112750Y36103D01*
X113461Y35771D01*
X114219Y35568D01*
X115000Y35500D01*
Y0D01*
G37*
G36*
X107987Y175000D02*X111501D01*
Y156800D01*
X111111Y156783D01*
X110724Y156730D01*
X110344Y156642D01*
X109974Y156520D01*
X109616Y156365D01*
X109526Y156311D01*
X109448Y156243D01*
X109382Y156161D01*
X109331Y156070D01*
X109297Y155971D01*
X109281Y155868D01*
X109283Y155763D01*
X109303Y155661D01*
X109340Y155563D01*
X109394Y155473D01*
X109462Y155395D01*
X109544Y155329D01*
X109635Y155278D01*
X109734Y155244D01*
X109837Y155228D01*
X109942Y155230D01*
X110044Y155250D01*
X110142Y155287D01*
X110400Y155398D01*
X110667Y155486D01*
X110941Y155550D01*
X111220Y155588D01*
X111501Y155600D01*
Y149400D01*
X111220Y149413D01*
X110941Y149451D01*
X110667Y149515D01*
X110400Y149603D01*
X110142Y149714D01*
X110044Y149751D01*
X109942Y149771D01*
X109837Y149773D01*
X109734Y149757D01*
X109635Y149723D01*
X109544Y149672D01*
X109462Y149606D01*
X109394Y149528D01*
X109340Y149438D01*
X109303Y149340D01*
X109283Y149238D01*
X109281Y149133D01*
X109297Y149030D01*
X109331Y148931D01*
X109382Y148840D01*
X109448Y148758D01*
X109526Y148690D01*
X109616Y148636D01*
X109974Y148481D01*
X110344Y148359D01*
X110724Y148271D01*
X111111Y148218D01*
X111501Y148200D01*
Y146800D01*
X108401D01*
X108193Y146782D01*
X107991Y146728D01*
X107987Y146726D01*
Y150312D01*
X108030Y150297D01*
X108133Y150281D01*
X108238Y150283D01*
X108340Y150303D01*
X108438Y150340D01*
X108528Y150394D01*
X108606Y150462D01*
X108672Y150544D01*
X108723Y150635D01*
X108757Y150734D01*
X108773Y150837D01*
X108771Y150942D01*
X108751Y151044D01*
X108714Y151142D01*
X108603Y151400D01*
X108515Y151667D01*
X108451Y151941D01*
X108413Y152220D01*
X108401Y152501D01*
X108413Y152781D01*
X108451Y153060D01*
X108515Y153334D01*
X108603Y153601D01*
X108714Y153859D01*
X108751Y153957D01*
X108771Y154059D01*
X108773Y154164D01*
X108757Y154267D01*
X108723Y154366D01*
X108672Y154457D01*
X108606Y154539D01*
X108528Y154607D01*
X108438Y154661D01*
X108340Y154698D01*
X108238Y154718D01*
X108133Y154720D01*
X108030Y154704D01*
X107987Y154689D01*
Y175000D01*
G37*
G36*
X111501Y0D02*X107987D01*
Y36647D01*
X108447Y37107D01*
X108897Y37750D01*
X109229Y38461D01*
X109432Y39219D01*
X109500Y40000D01*
X109432Y40781D01*
X109229Y41539D01*
X108897Y42250D01*
X108447Y42893D01*
X107987Y43353D01*
Y66647D01*
X108447Y67107D01*
X108897Y67750D01*
X109229Y68461D01*
X109432Y69219D01*
X109500Y70000D01*
X109432Y70781D01*
X109229Y71539D01*
X108897Y72250D01*
X108447Y72893D01*
X107987Y73353D01*
Y77927D01*
X108161Y78175D01*
X108430Y78752D01*
X108595Y79366D01*
X108650Y80000D01*
X108595Y80634D01*
X108430Y81248D01*
X108161Y81825D01*
X107987Y82073D01*
Y138274D01*
X107991Y138272D01*
X108193Y138218D01*
X108401Y138200D01*
X111501D01*
Y126874D01*
X110961Y126729D01*
X110250Y126397D01*
X109607Y125947D01*
X109053Y125393D01*
X108603Y124750D01*
X108271Y124039D01*
X108068Y123281D01*
X108000Y122500D01*
X108068Y121719D01*
X108271Y120961D01*
X108603Y120250D01*
X109053Y119607D01*
X109607Y119053D01*
X110250Y118603D01*
X110961Y118271D01*
X111501Y118126D01*
Y96874D01*
X110961Y96729D01*
X110250Y96397D01*
X109607Y95947D01*
X109053Y95393D01*
X108603Y94750D01*
X108271Y94039D01*
X108068Y93281D01*
X108000Y92500D01*
X108068Y91719D01*
X108271Y90961D01*
X108603Y90250D01*
X109053Y89607D01*
X109607Y89053D01*
X110250Y88603D01*
X110961Y88271D01*
X111501Y88126D01*
Y72819D01*
X111103Y72250D01*
X110771Y71539D01*
X110568Y70781D01*
X110500Y70000D01*
X110568Y69219D01*
X110771Y68461D01*
X111103Y67750D01*
X111501Y67181D01*
Y42819D01*
X111103Y42250D01*
X110771Y41539D01*
X110568Y40781D01*
X110500Y40000D01*
X110568Y39219D01*
X110771Y38461D01*
X111103Y37750D01*
X111501Y37181D01*
Y0D01*
G37*
G36*
X107987Y82073D02*X107796Y82346D01*
X107346Y82796D01*
X106825Y83161D01*
X106248Y83430D01*
X105634Y83595D01*
X105000Y83650D01*
Y88778D01*
X105393Y89053D01*
X105947Y89607D01*
X106397Y90250D01*
X106729Y90961D01*
X106932Y91719D01*
X107000Y92500D01*
X106932Y93281D01*
X106729Y94039D01*
X106397Y94750D01*
X105947Y95393D01*
X105393Y95947D01*
X105000Y96222D01*
Y118778D01*
X105393Y119053D01*
X105947Y119607D01*
X106397Y120250D01*
X106729Y120961D01*
X106932Y121719D01*
X107000Y122500D01*
X106932Y123281D01*
X106729Y124039D01*
X106397Y124750D01*
X105947Y125393D01*
X105393Y125947D01*
X105000Y126222D01*
Y175000D01*
X107987D01*
Y154689D01*
X107931Y154670D01*
X107840Y154619D01*
X107758Y154553D01*
X107690Y154475D01*
X107636Y154385D01*
X107481Y154027D01*
X107359Y153657D01*
X107271Y153277D01*
X107218Y152890D01*
X107201Y152500D01*
X107218Y152111D01*
X107271Y151724D01*
X107359Y151344D01*
X107481Y150974D01*
X107636Y150616D01*
X107690Y150526D01*
X107758Y150448D01*
X107840Y150382D01*
X107931Y150331D01*
X107987Y150312D01*
Y146726D01*
X107801Y146639D01*
X107630Y146519D01*
X107482Y146371D01*
X107362Y146200D01*
X107273Y146010D01*
X107219Y145808D01*
X107201Y145600D01*
Y139400D01*
X107219Y139192D01*
X107273Y138990D01*
X107362Y138800D01*
X107482Y138629D01*
X107630Y138481D01*
X107801Y138361D01*
X107987Y138274D01*
Y82073D01*
G37*
G36*
Y73353D02*X107893Y73447D01*
X107250Y73897D01*
X106539Y74229D01*
X105781Y74432D01*
X105000Y74500D01*
Y76350D01*
X105634Y76405D01*
X106248Y76570D01*
X106825Y76839D01*
X107346Y77204D01*
X107796Y77654D01*
X107987Y77927D01*
Y73353D01*
G37*
G36*
Y43353D02*X107893Y43447D01*
X107250Y43897D01*
X106539Y44229D01*
X105781Y44432D01*
X105000Y44500D01*
Y65500D01*
X105781Y65568D01*
X106539Y65771D01*
X107250Y66103D01*
X107893Y66553D01*
X107987Y66647D01*
Y43353D01*
G37*
G36*
Y0D02*X105000D01*
Y35500D01*
X105781Y35568D01*
X106539Y35771D01*
X107250Y36103D01*
X107893Y36553D01*
X107987Y36647D01*
Y0D01*
G37*
G36*
X105000D02*X95000Y17000D01*
Y35500D01*
X98000D01*
X98260Y35523D01*
X98513Y35590D01*
X98750Y35701D01*
X98964Y35851D01*
X99149Y36036D01*
X99299Y36250D01*
X99410Y36487D01*
X99477Y36740D01*
X99500Y37000D01*
Y43000D01*
X99477Y43260D01*
X99410Y43513D01*
X99299Y43750D01*
X99149Y43964D01*
X98964Y44149D01*
X98750Y44299D01*
X98513Y44410D01*
X98260Y44477D01*
X98000Y44500D01*
X95000D01*
Y65500D01*
X95781Y65568D01*
X96539Y65771D01*
X97250Y66103D01*
X97893Y66553D01*
X98447Y67107D01*
X98897Y67750D01*
X99229Y68461D01*
X99432Y69219D01*
X99500Y70000D01*
X99432Y70781D01*
X99229Y71539D01*
X98897Y72250D01*
X98447Y72893D01*
X97893Y73447D01*
X97250Y73897D01*
X96539Y74229D01*
X95781Y74432D01*
X95000Y74500D01*
Y76350D01*
X95634Y76405D01*
X96248Y76570D01*
X96825Y76839D01*
X97346Y77204D01*
X97796Y77654D01*
X98161Y78175D01*
X98430Y78752D01*
X98595Y79366D01*
X98650Y80000D01*
X98595Y80634D01*
X98430Y81248D01*
X98161Y81825D01*
X97796Y82346D01*
X97346Y82796D01*
X96825Y83161D01*
X96248Y83430D01*
X95634Y83595D01*
X95000Y83650D01*
Y88778D01*
X95393Y89053D01*
X95947Y89607D01*
X96397Y90250D01*
X96729Y90961D01*
X96932Y91719D01*
X97000Y92500D01*
X96932Y93281D01*
X96729Y94039D01*
X96397Y94750D01*
X95947Y95393D01*
X95393Y95947D01*
X95000Y96222D01*
Y118778D01*
X95393Y119053D01*
X95947Y119607D01*
X96397Y120250D01*
X96729Y120961D01*
X96932Y121719D01*
X97000Y122500D01*
X96932Y123281D01*
X96729Y124039D01*
X96397Y124750D01*
X95947Y125393D01*
X95393Y125947D01*
X95000Y126222D01*
Y132358D01*
X95296Y132654D01*
X95661Y133175D01*
X95930Y133752D01*
X96095Y134366D01*
X96150Y135000D01*
X96095Y135634D01*
X95930Y136248D01*
X95661Y136825D01*
X95296Y137346D01*
X95000Y137642D01*
Y148372D01*
X95056Y148331D01*
X95149Y148283D01*
X95249Y148252D01*
X95353Y148240D01*
X95457Y148245D01*
X95559Y148268D01*
X95655Y148309D01*
X95743Y148366D01*
X95820Y148437D01*
X95882Y148521D01*
X95930Y148614D01*
X96038Y148919D01*
X96119Y149231D01*
X96172Y149550D01*
X96197Y149871D01*
X96194Y150194D01*
X96163Y150515D01*
X96105Y150833D01*
X96018Y151144D01*
X95905Y151446D01*
Y151447D01*
X95856Y151539D01*
X95791Y151622D01*
X95714Y151692D01*
X95625Y151747D01*
X95528Y151786D01*
X95425Y151808D01*
X95321Y151811D01*
X95217Y151796D01*
X95118Y151764D01*
X95026Y151715D01*
X95000Y151695D01*
Y175000D01*
X105000D01*
Y126222D01*
X104750Y126397D01*
X104039Y126729D01*
X103281Y126932D01*
X102500Y127000D01*
X101719Y126932D01*
X100961Y126729D01*
X100250Y126397D01*
X99607Y125947D01*
X99053Y125393D01*
X98603Y124750D01*
X98271Y124039D01*
X98068Y123281D01*
X98000Y122500D01*
X98068Y121719D01*
X98271Y120961D01*
X98603Y120250D01*
X99053Y119607D01*
X99607Y119053D01*
X100250Y118603D01*
X100961Y118271D01*
X101719Y118068D01*
X102500Y118000D01*
X103281Y118068D01*
X104039Y118271D01*
X104750Y118603D01*
X105000Y118778D01*
Y96222D01*
X104750Y96397D01*
X104039Y96729D01*
X103281Y96932D01*
X102500Y97000D01*
X101719Y96932D01*
X100961Y96729D01*
X100250Y96397D01*
X99607Y95947D01*
X99053Y95393D01*
X98603Y94750D01*
X98271Y94039D01*
X98068Y93281D01*
X98000Y92500D01*
X98068Y91719D01*
X98271Y90961D01*
X98603Y90250D01*
X99053Y89607D01*
X99607Y89053D01*
X100250Y88603D01*
X100961Y88271D01*
X101719Y88068D01*
X102500Y88000D01*
X103281Y88068D01*
X104039Y88271D01*
X104750Y88603D01*
X105000Y88778D01*
Y83650D01*
X104366Y83595D01*
X103752Y83430D01*
X103175Y83161D01*
X102654Y82796D01*
X102204Y82346D01*
X101839Y81825D01*
X101570Y81248D01*
X101405Y80634D01*
X101350Y80000D01*
X101405Y79366D01*
X101570Y78752D01*
X101839Y78175D01*
X102204Y77654D01*
X102654Y77204D01*
X103175Y76839D01*
X103752Y76570D01*
X104366Y76405D01*
X105000Y76350D01*
Y74500D01*
X104219Y74432D01*
X103461Y74229D01*
X102750Y73897D01*
X102107Y73447D01*
X101553Y72893D01*
X101103Y72250D01*
X100771Y71539D01*
X100568Y70781D01*
X100500Y70000D01*
X100568Y69219D01*
X100771Y68461D01*
X101103Y67750D01*
X101553Y67107D01*
X102107Y66553D01*
X102750Y66103D01*
X103461Y65771D01*
X104219Y65568D01*
X105000Y65500D01*
Y44500D01*
X104219Y44432D01*
X103461Y44229D01*
X102750Y43897D01*
X102107Y43447D01*
X101553Y42893D01*
X101103Y42250D01*
X100771Y41539D01*
X100568Y40781D01*
X100500Y40000D01*
X100568Y39219D01*
X100771Y38461D01*
X101103Y37750D01*
X101553Y37107D01*
X102107Y36553D01*
X102750Y36103D01*
X103461Y35771D01*
X104219Y35568D01*
X105000Y35500D01*
Y0D01*
G37*
G36*
X89524Y119136D02*X89607Y119053D01*
X90250Y118603D01*
X90961Y118271D01*
X91719Y118068D01*
X92500Y118000D01*
X93281Y118068D01*
X94039Y118271D01*
X94750Y118603D01*
X95000Y118778D01*
Y96222D01*
X94750Y96397D01*
X94039Y96729D01*
X93281Y96932D01*
X92500Y97000D01*
X91719Y96932D01*
X90961Y96729D01*
X90250Y96397D01*
X89607Y95947D01*
X89524Y95864D01*
Y119136D01*
G37*
G36*
Y132911D02*X89704Y132654D01*
X90154Y132204D01*
X90675Y131839D01*
X91252Y131570D01*
X91866Y131405D01*
X92500Y131350D01*
X93134Y131405D01*
X93748Y131570D01*
X94325Y131839D01*
X94846Y132204D01*
X95000Y132358D01*
Y126222D01*
X94750Y126397D01*
X94039Y126729D01*
X93281Y126932D01*
X92500Y127000D01*
X91719Y126932D01*
X90961Y126729D01*
X90250Y126397D01*
X89607Y125947D01*
X89524Y125864D01*
Y132911D01*
G37*
G36*
X92475Y175000D02*X95000D01*
Y151695D01*
X94943Y151650D01*
X94873Y151573D01*
X94818Y151484D01*
X94779Y151387D01*
X94757Y151284D01*
X94754Y151180D01*
X94769Y151076D01*
X94801Y150977D01*
X94877Y150773D01*
X94935Y150563D01*
X94975Y150348D01*
X94996Y150131D01*
X94998Y149913D01*
X94981Y149696D01*
X94945Y149481D01*
X94890Y149270D01*
X94817Y149064D01*
X94818D01*
X94787Y148964D01*
X94775Y148860D01*
X94780Y148756D01*
X94803Y148654D01*
X94844Y148558D01*
X94901Y148470D01*
X94972Y148393D01*
X95000Y148372D01*
Y137642D01*
X94846Y137796D01*
X94325Y138161D01*
X93748Y138430D01*
X93134Y138595D01*
X92500Y138650D01*
X92475Y138648D01*
Y146304D01*
X92693Y146306D01*
X93014Y146337D01*
X93332Y146395D01*
X93643Y146482D01*
X93945Y146595D01*
X93946D01*
X94038Y146644D01*
X94121Y146709D01*
X94191Y146786D01*
X94246Y146875D01*
X94285Y146972D01*
X94307Y147075D01*
X94310Y147179D01*
X94295Y147283D01*
X94263Y147382D01*
X94214Y147474D01*
X94149Y147557D01*
X94072Y147627D01*
X93983Y147682D01*
X93886Y147721D01*
X93783Y147743D01*
X93679Y147746D01*
X93575Y147731D01*
X93476Y147699D01*
X93272Y147623D01*
X93062Y147565D01*
X92847Y147525D01*
X92630Y147504D01*
X92475Y147503D01*
Y152498D01*
X92587Y152499D01*
X92804Y152482D01*
X93019Y152446D01*
X93230Y152391D01*
X93436Y152318D01*
Y152319D01*
X93536Y152288D01*
X93640Y152276D01*
X93744Y152281D01*
X93846Y152304D01*
X93942Y152345D01*
X94030Y152402D01*
X94107Y152473D01*
X94169Y152557D01*
X94217Y152650D01*
X94248Y152750D01*
X94260Y152854D01*
X94255Y152958D01*
X94232Y153060D01*
X94191Y153156D01*
X94134Y153244D01*
X94063Y153321D01*
X93979Y153383D01*
X93886Y153431D01*
X93581Y153539D01*
X93269Y153620D01*
X92950Y153673D01*
X92629Y153698D01*
X92475Y153697D01*
Y175000D01*
G37*
G36*
X89524D02*X92475D01*
Y153697D01*
X92306Y153695D01*
X91985Y153664D01*
X91667Y153606D01*
X91356Y153519D01*
X91054Y153406D01*
X91053D01*
X90961Y153357D01*
X90878Y153292D01*
X90808Y153215D01*
X90753Y153126D01*
X90714Y153029D01*
X90692Y152926D01*
X90689Y152822D01*
X90704Y152718D01*
X90736Y152619D01*
X90785Y152527D01*
X90850Y152444D01*
X90927Y152374D01*
X91016Y152319D01*
X91113Y152280D01*
X91216Y152258D01*
X91320Y152255D01*
X91424Y152270D01*
X91523Y152302D01*
X91727Y152378D01*
X91937Y152436D01*
X92152Y152476D01*
X92369Y152497D01*
X92475Y152498D01*
Y147503D01*
X92412Y147502D01*
X92195Y147519D01*
X91980Y147555D01*
X91769Y147610D01*
X91563Y147683D01*
Y147682D01*
X91463Y147713D01*
X91359Y147725D01*
X91255Y147720D01*
X91153Y147697D01*
X91057Y147656D01*
X90969Y147599D01*
X90892Y147528D01*
X90830Y147444D01*
X90782Y147351D01*
X90751Y147251D01*
X90739Y147147D01*
X90744Y147043D01*
X90767Y146941D01*
X90808Y146845D01*
X90865Y146757D01*
X90936Y146680D01*
X91020Y146618D01*
X91113Y146570D01*
X91418Y146462D01*
X91730Y146381D01*
X92049Y146328D01*
X92370Y146303D01*
X92475Y146304D01*
Y138648D01*
X91866Y138595D01*
X91252Y138430D01*
X90675Y138161D01*
X90154Y137796D01*
X89704Y137346D01*
X89524Y137089D01*
Y148204D01*
X89574Y148193D01*
X89678Y148190D01*
X89782Y148205D01*
X89881Y148237D01*
X89973Y148286D01*
X90056Y148351D01*
X90126Y148428D01*
X90181Y148517D01*
X90220Y148614D01*
X90242Y148717D01*
X90245Y148821D01*
X90230Y148925D01*
X90198Y149024D01*
X90122Y149228D01*
X90064Y149438D01*
X90024Y149653D01*
X90003Y149870D01*
X90001Y150088D01*
X90018Y150305D01*
X90054Y150520D01*
X90109Y150731D01*
X90182Y150937D01*
X90181D01*
X90212Y151037D01*
X90224Y151141D01*
X90219Y151245D01*
X90196Y151347D01*
X90155Y151443D01*
X90098Y151531D01*
X90027Y151608D01*
X89943Y151670D01*
X89850Y151718D01*
X89750Y151749D01*
X89646Y151761D01*
X89542Y151756D01*
X89524Y151752D01*
Y175000D01*
G37*
G36*
X95000Y17000D02*X89524Y26309D01*
Y89136D01*
X89607Y89053D01*
X90250Y88603D01*
X90961Y88271D01*
X91719Y88068D01*
X92500Y88000D01*
X93281Y88068D01*
X94039Y88271D01*
X94750Y88603D01*
X95000Y88778D01*
Y83650D01*
X94366Y83595D01*
X93752Y83430D01*
X93175Y83161D01*
X92654Y82796D01*
X92204Y82346D01*
X91839Y81825D01*
X91570Y81248D01*
X91405Y80634D01*
X91350Y80000D01*
X91405Y79366D01*
X91570Y78752D01*
X91839Y78175D01*
X92204Y77654D01*
X92654Y77204D01*
X93175Y76839D01*
X93752Y76570D01*
X94366Y76405D01*
X95000Y76350D01*
Y74500D01*
X94219Y74432D01*
X93461Y74229D01*
X92750Y73897D01*
X92107Y73447D01*
X91553Y72893D01*
X91103Y72250D01*
X90771Y71539D01*
X90568Y70781D01*
X90500Y70000D01*
X90568Y69219D01*
X90771Y68461D01*
X91103Y67750D01*
X91553Y67107D01*
X92107Y66553D01*
X92750Y66103D01*
X93461Y65771D01*
X94219Y65568D01*
X95000Y65500D01*
Y44500D01*
X92000D01*
X91740Y44477D01*
X91487Y44410D01*
X91250Y44299D01*
X91036Y44149D01*
X90851Y43964D01*
X90701Y43750D01*
X90590Y43513D01*
X90523Y43260D01*
X90500Y43000D01*
Y37000D01*
X90523Y36740D01*
X90590Y36487D01*
X90701Y36250D01*
X90851Y36036D01*
X91036Y35851D01*
X91250Y35701D01*
X91487Y35590D01*
X91740Y35523D01*
X92000Y35500D01*
X95000D01*
Y17000D01*
G37*
G36*
X89524Y26309D02*X84626Y34636D01*
Y88545D01*
X84750Y88603D01*
X85393Y89053D01*
X85947Y89607D01*
X86397Y90250D01*
X86729Y90961D01*
X86932Y91719D01*
X87000Y92500D01*
X86932Y93281D01*
X86729Y94039D01*
X86397Y94750D01*
X85947Y95393D01*
X85393Y95947D01*
X84750Y96397D01*
X84626Y96455D01*
Y118545D01*
X84750Y118603D01*
X85393Y119053D01*
X85947Y119607D01*
X86397Y120250D01*
X86729Y120961D01*
X86932Y121719D01*
X87000Y122500D01*
X86932Y123281D01*
X86729Y124039D01*
X86397Y124750D01*
X85947Y125393D01*
X85393Y125947D01*
X84750Y126397D01*
X84626Y126455D01*
Y132050D01*
X84846Y132204D01*
X85296Y132654D01*
X85661Y133175D01*
X85930Y133752D01*
X86095Y134366D01*
X86150Y135000D01*
X86095Y135634D01*
X85930Y136248D01*
X85661Y136825D01*
X85296Y137346D01*
X84846Y137796D01*
X84626Y137950D01*
Y146300D01*
X85268Y146356D01*
X85891Y146523D01*
X86476Y146796D01*
X87004Y147166D01*
X87460Y147622D01*
X87830Y148150D01*
X88103Y148735D01*
X88270Y149358D01*
X88326Y150000D01*
X88270Y150642D01*
X88103Y151265D01*
X87830Y151850D01*
X87460Y152378D01*
X87004Y152834D01*
X86476Y153204D01*
X85891Y153477D01*
X85268Y153644D01*
X84626Y153700D01*
Y175000D01*
X89524D01*
Y151752D01*
X89440Y151733D01*
X89344Y151692D01*
X89256Y151635D01*
X89179Y151564D01*
X89117Y151480D01*
X89069Y151387D01*
X88961Y151082D01*
X88880Y150770D01*
X88827Y150451D01*
X88802Y150130D01*
X88805Y149807D01*
X88836Y149486D01*
X88894Y149168D01*
X88981Y148857D01*
X89094Y148555D01*
Y148554D01*
X89143Y148462D01*
X89208Y148379D01*
X89285Y148309D01*
X89374Y148254D01*
X89471Y148215D01*
X89524Y148204D01*
Y137089D01*
X89339Y136825D01*
X89070Y136248D01*
X88905Y135634D01*
X88850Y135000D01*
X88905Y134366D01*
X89070Y133752D01*
X89339Y133175D01*
X89524Y132911D01*
Y125864D01*
X89053Y125393D01*
X88603Y124750D01*
X88271Y124039D01*
X88068Y123281D01*
X88000Y122500D01*
X88068Y121719D01*
X88271Y120961D01*
X88603Y120250D01*
X89053Y119607D01*
X89524Y119136D01*
Y95864D01*
X89053Y95393D01*
X88603Y94750D01*
X88271Y94039D01*
X88068Y93281D01*
X88000Y92500D01*
X88068Y91719D01*
X88271Y90961D01*
X88603Y90250D01*
X89053Y89607D01*
X89524Y89136D01*
Y26309D01*
G37*
G36*
X80476Y118497D02*X80961Y118271D01*
X81719Y118068D01*
X82500Y118000D01*
X83281Y118068D01*
X84039Y118271D01*
X84626Y118545D01*
Y96455D01*
X84039Y96729D01*
X83281Y96932D01*
X82500Y97000D01*
X81719Y96932D01*
X80961Y96729D01*
X80476Y96503D01*
Y118497D01*
G37*
G36*
Y131978D02*X80675Y131839D01*
X81252Y131570D01*
X81866Y131405D01*
X82500Y131350D01*
X83134Y131405D01*
X83748Y131570D01*
X84325Y131839D01*
X84626Y132050D01*
Y126455D01*
X84039Y126729D01*
X83281Y126932D01*
X82500Y127000D01*
X81719Y126932D01*
X80961Y126729D01*
X80476Y126503D01*
Y131978D01*
G37*
G36*
Y175000D02*X84626D01*
Y153700D01*
X83984Y153644D01*
X83361Y153477D01*
X82776Y153204D01*
X82248Y152834D01*
X81792Y152378D01*
X81422Y151850D01*
X81149Y151265D01*
X80982Y150642D01*
X80926Y150000D01*
X80982Y149358D01*
X81149Y148735D01*
X81422Y148150D01*
X81792Y147622D01*
X82248Y147166D01*
X82776Y146796D01*
X83361Y146523D01*
X83984Y146356D01*
X84626Y146300D01*
Y137950D01*
X84325Y138161D01*
X83748Y138430D01*
X83134Y138595D01*
X82500Y138650D01*
X81866Y138595D01*
X81252Y138430D01*
X80675Y138161D01*
X80476Y138022D01*
Y175000D01*
G37*
G36*
X84626Y34636D02*X80476Y41691D01*
Y62875D01*
X80559Y62894D01*
X80655Y62935D01*
X80743Y62992D01*
X80820Y63063D01*
X80882Y63147D01*
X80930Y63240D01*
X81038Y63545D01*
X81119Y63857D01*
X81172Y64176D01*
X81197Y64497D01*
X81194Y64820D01*
X81163Y65141D01*
X81105Y65459D01*
X81018Y65770D01*
X80905Y66072D01*
Y66073D01*
X80856Y66165D01*
X80791Y66248D01*
X80714Y66318D01*
X80625Y66373D01*
X80528Y66412D01*
X80476Y66423D01*
Y70325D01*
X80704Y70650D01*
X80977Y71235D01*
X81144Y71858D01*
X81200Y72500D01*
X81144Y73142D01*
X80977Y73765D01*
X80704Y74350D01*
X80476Y74675D01*
Y88497D01*
X80961Y88271D01*
X81719Y88068D01*
X82500Y88000D01*
X83281Y88068D01*
X84039Y88271D01*
X84626Y88545D01*
Y34636D01*
G37*
G36*
X80476Y74675D02*X80334Y74878D01*
X79878Y75334D01*
X79350Y75704D01*
X78765Y75977D01*
X78142Y76144D01*
X77500Y76200D01*
Y175000D01*
X80476D01*
Y138022D01*
X80154Y137796D01*
X79704Y137346D01*
X79339Y136825D01*
X79070Y136248D01*
X78905Y135634D01*
X78850Y135000D01*
X78905Y134366D01*
X79070Y133752D01*
X79339Y133175D01*
X79704Y132654D01*
X80154Y132204D01*
X80476Y131978D01*
Y126503D01*
X80250Y126397D01*
X79607Y125947D01*
X79053Y125393D01*
X78603Y124750D01*
X78271Y124039D01*
X78068Y123281D01*
X78000Y122500D01*
X78068Y121719D01*
X78271Y120961D01*
X78603Y120250D01*
X79053Y119607D01*
X79607Y119053D01*
X80250Y118603D01*
X80476Y118497D01*
Y96503D01*
X80250Y96397D01*
X79607Y95947D01*
X79053Y95393D01*
X78603Y94750D01*
X78271Y94039D01*
X78068Y93281D01*
X78000Y92500D01*
X78068Y91719D01*
X78271Y90961D01*
X78603Y90250D01*
X79053Y89607D01*
X79607Y89053D01*
X80250Y88603D01*
X80476Y88497D01*
Y74675D01*
G37*
G36*
Y41691D02*X77500Y46750D01*
Y60930D01*
X77693Y60932D01*
X78014Y60963D01*
X78332Y61021D01*
X78643Y61108D01*
X78945Y61221D01*
X78946D01*
X79038Y61270D01*
X79121Y61335D01*
X79191Y61412D01*
X79246Y61501D01*
X79285Y61598D01*
X79307Y61701D01*
X79310Y61805D01*
X79295Y61909D01*
X79263Y62008D01*
X79214Y62100D01*
X79149Y62183D01*
X79072Y62253D01*
X78983Y62308D01*
X78886Y62347D01*
X78783Y62369D01*
X78679Y62372D01*
X78575Y62357D01*
X78476Y62325D01*
X78272Y62249D01*
X78062Y62191D01*
X77847Y62151D01*
X77630Y62130D01*
X77500Y62129D01*
Y67124D01*
X77587Y67125D01*
X77804Y67108D01*
X78019Y67072D01*
X78230Y67017D01*
X78436Y66944D01*
Y66945D01*
X78536Y66914D01*
X78640Y66902D01*
X78744Y66907D01*
X78846Y66930D01*
X78942Y66971D01*
X79030Y67028D01*
X79107Y67099D01*
X79169Y67183D01*
X79217Y67276D01*
X79248Y67376D01*
X79260Y67480D01*
X79255Y67584D01*
X79232Y67686D01*
X79191Y67782D01*
X79134Y67870D01*
X79063Y67947D01*
X78979Y68009D01*
X78886Y68057D01*
X78581Y68165D01*
X78269Y68246D01*
X77950Y68299D01*
X77629Y68324D01*
X77500Y68323D01*
Y68800D01*
X78142Y68856D01*
X78765Y69023D01*
X79350Y69296D01*
X79878Y69666D01*
X80334Y70122D01*
X80476Y70325D01*
Y66423D01*
X80425Y66434D01*
X80321Y66437D01*
X80217Y66422D01*
X80118Y66390D01*
X80026Y66341D01*
X79943Y66276D01*
X79873Y66199D01*
X79818Y66110D01*
X79779Y66013D01*
X79757Y65910D01*
X79754Y65806D01*
X79769Y65702D01*
X79801Y65603D01*
X79877Y65399D01*
X79935Y65189D01*
X79975Y64974D01*
X79996Y64757D01*
X79998Y64539D01*
X79981Y64322D01*
X79945Y64107D01*
X79890Y63896D01*
X79817Y63690D01*
X79818D01*
X79787Y63590D01*
X79775Y63486D01*
X79780Y63382D01*
X79803Y63280D01*
X79844Y63184D01*
X79901Y63096D01*
X79972Y63019D01*
X80056Y62957D01*
X80149Y62909D01*
X80249Y62878D01*
X80353Y62866D01*
X80457Y62871D01*
X80476Y62875D01*
Y41691D01*
G37*
G36*
X76113Y66906D02*X76216Y66884D01*
X76320Y66881D01*
X76424Y66896D01*
X76523Y66928D01*
X76727Y67004D01*
X76937Y67062D01*
X77152Y67102D01*
X77369Y67123D01*
X77500Y67124D01*
Y62129D01*
X77412Y62128D01*
X77195Y62145D01*
X76980Y62181D01*
X76769Y62236D01*
X76563Y62309D01*
Y62308D01*
X76463Y62339D01*
X76359Y62351D01*
X76255Y62346D01*
X76153Y62323D01*
X76113Y62306D01*
Y66906D01*
G37*
G36*
Y69080D02*X76235Y69023D01*
X76858Y68856D01*
X77500Y68800D01*
Y68323D01*
X77306Y68321D01*
X76985Y68290D01*
X76667Y68232D01*
X76356Y68145D01*
X76113Y68054D01*
Y69080D01*
G37*
G36*
Y119844D02*X76397Y120250D01*
X76729Y120961D01*
X76932Y121719D01*
X77000Y122500D01*
X76932Y123281D01*
X76729Y124039D01*
X76397Y124750D01*
X76113Y125156D01*
Y175000D01*
X77500D01*
Y76200D01*
X76858Y76144D01*
X76235Y75977D01*
X76113Y75920D01*
Y90360D01*
X76208Y90382D01*
X76329Y90433D01*
X76438Y90505D01*
X76534Y90594D01*
X76613Y90698D01*
X76672Y90815D01*
X76814Y91222D01*
X76917Y91642D01*
X76979Y92069D01*
X77000Y92500D01*
X76979Y92932D01*
X76917Y93359D01*
X76814Y93779D01*
X76672Y94186D01*
X76671D01*
X76612Y94302D01*
X76533Y94407D01*
X76437Y94496D01*
X76328Y94567D01*
X76207Y94618D01*
X76113Y94639D01*
Y119844D01*
G37*
G36*
X77500Y46750D02*X76113Y49108D01*
Y61196D01*
X76418Y61088D01*
X76730Y61007D01*
X77049Y60954D01*
X77370Y60929D01*
X77500Y60930D01*
Y46750D01*
G37*
G36*
X76113Y125156D02*X75947Y125393D01*
X75393Y125947D01*
X74750Y126397D01*
X74039Y126729D01*
X73281Y126932D01*
X72500Y127000D01*
Y175000D01*
X76113D01*
Y125156D01*
G37*
G36*
X74524Y88608D02*X74566Y88672D01*
X74617Y88793D01*
X74646Y88920D01*
X74653Y89050D01*
X74637Y89180D01*
X74599Y89305D01*
X74540Y89421D01*
X74524Y89442D01*
Y95557D01*
X74541Y95579D01*
X74600Y95696D01*
X74638Y95821D01*
X74654Y95951D01*
X74647Y96082D01*
X74618Y96209D01*
X74567Y96330D01*
X74524Y96395D01*
Y118497D01*
X74750Y118603D01*
X75393Y119053D01*
X75947Y119607D01*
X76113Y119844D01*
Y94639D01*
X76080Y94647D01*
X75950Y94654D01*
X75820Y94638D01*
X75695Y94600D01*
X75579Y94541D01*
X75474Y94462D01*
X75385Y94366D01*
X75314Y94257D01*
X75263Y94136D01*
X75234Y94009D01*
X75227Y93879D01*
X75243Y93749D01*
X75281Y93624D01*
X75376Y93353D01*
X75444Y93073D01*
X75486Y92788D01*
X75500Y92500D01*
X75486Y92213D01*
X75444Y91928D01*
X75376Y91648D01*
X75281Y91377D01*
X75280D01*
X75242Y91252D01*
X75226Y91122D01*
X75233Y90991D01*
X75262Y90864D01*
X75313Y90743D01*
X75385Y90634D01*
X75474Y90538D01*
X75578Y90459D01*
X75695Y90400D01*
X75820Y90362D01*
X75950Y90346D01*
X76081Y90353D01*
X76113Y90360D01*
Y75920D01*
X75650Y75704D01*
X75122Y75334D01*
X74666Y74878D01*
X74524Y74675D01*
Y88608D01*
G37*
G36*
X76113Y49108D02*X74524Y51809D01*
Y62830D01*
X74574Y62819D01*
X74678Y62816D01*
X74782Y62831D01*
X74881Y62863D01*
X74973Y62912D01*
X75056Y62977D01*
X75126Y63054D01*
X75181Y63143D01*
X75220Y63240D01*
X75242Y63343D01*
X75245Y63447D01*
X75230Y63551D01*
X75198Y63650D01*
X75122Y63854D01*
X75064Y64064D01*
X75024Y64279D01*
X75003Y64496D01*
X75001Y64714D01*
X75018Y64931D01*
X75054Y65146D01*
X75109Y65357D01*
X75182Y65563D01*
X75181D01*
X75212Y65663D01*
X75224Y65767D01*
X75219Y65871D01*
X75196Y65973D01*
X75155Y66069D01*
X75098Y66157D01*
X75027Y66234D01*
X74943Y66296D01*
X74850Y66344D01*
X74750Y66375D01*
X74646Y66387D01*
X74542Y66382D01*
X74524Y66378D01*
Y70325D01*
X74666Y70122D01*
X75122Y69666D01*
X75650Y69296D01*
X76113Y69080D01*
Y68054D01*
X76054Y68032D01*
X76053D01*
X75961Y67983D01*
X75878Y67918D01*
X75808Y67841D01*
X75753Y67752D01*
X75714Y67655D01*
X75692Y67552D01*
X75689Y67448D01*
X75704Y67344D01*
X75736Y67245D01*
X75785Y67153D01*
X75850Y67070D01*
X75927Y67000D01*
X76016Y66945D01*
X76113Y66906D01*
Y62306D01*
X76057Y62282D01*
X75969Y62225D01*
X75892Y62154D01*
X75830Y62070D01*
X75782Y61977D01*
X75751Y61877D01*
X75739Y61773D01*
X75744Y61669D01*
X75767Y61567D01*
X75808Y61471D01*
X75865Y61383D01*
X75936Y61306D01*
X76020Y61244D01*
X76113Y61196D01*
Y49108D01*
G37*
G36*
X74524Y96395D02*X74495Y96439D01*
X74406Y96535D01*
X74302Y96614D01*
X74185Y96673D01*
X73778Y96815D01*
X73358Y96918D01*
X72931Y96980D01*
X72500Y97000D01*
Y118000D01*
X73281Y118068D01*
X74039Y118271D01*
X74524Y118497D01*
Y96395D01*
G37*
G36*
Y89442D02*X74461Y89526D01*
X74365Y89615D01*
X74256Y89686D01*
X74135Y89737D01*
X74008Y89766D01*
X73878Y89773D01*
X73748Y89757D01*
X73623Y89719D01*
X73352Y89624D01*
X73072Y89556D01*
X72787Y89514D01*
X72500Y89500D01*
Y95500D01*
X72787Y95487D01*
X73072Y95445D01*
X73352Y95377D01*
X73623Y95282D01*
Y95281D01*
X73748Y95243D01*
X73878Y95227D01*
X74009Y95234D01*
X74136Y95263D01*
X74257Y95314D01*
X74366Y95386D01*
X74462Y95475D01*
X74524Y95557D01*
Y89442D01*
G37*
G36*
Y51809D02*X72500Y55250D01*
Y88000D01*
X72931Y88021D01*
X73358Y88083D01*
X73778Y88186D01*
X74185Y88328D01*
Y88329D01*
X74301Y88388D01*
X74406Y88467D01*
X74495Y88563D01*
X74524Y88608D01*
Y74675D01*
X74296Y74350D01*
X74023Y73765D01*
X73856Y73142D01*
X73800Y72500D01*
X73856Y71858D01*
X74023Y71235D01*
X74296Y70650D01*
X74524Y70325D01*
Y66378D01*
X74440Y66359D01*
X74344Y66318D01*
X74256Y66261D01*
X74179Y66190D01*
X74117Y66106D01*
X74069Y66013D01*
X73961Y65708D01*
X73880Y65396D01*
X73827Y65077D01*
X73802Y64756D01*
X73805Y64433D01*
X73836Y64112D01*
X73894Y63794D01*
X73981Y63483D01*
X74094Y63181D01*
Y63180D01*
X74143Y63088D01*
X74208Y63005D01*
X74285Y62935D01*
X74374Y62880D01*
X74471Y62841D01*
X74524Y62830D01*
Y51809D01*
G37*
G36*
X68887Y175000D02*X72500D01*
Y127000D01*
X71719Y126932D01*
X70961Y126729D01*
X70250Y126397D01*
X69607Y125947D01*
X69053Y125393D01*
X68887Y125156D01*
Y175000D01*
G37*
G36*
X72500Y55250D02*X68887Y61392D01*
Y90361D01*
X68919Y90354D01*
X69049Y90347D01*
X69179Y90363D01*
X69304Y90401D01*
X69420Y90460D01*
X69525Y90539D01*
X69614Y90635D01*
X69685Y90744D01*
X69736Y90865D01*
X69765Y90992D01*
X69772Y91122D01*
X69756Y91252D01*
X69718Y91377D01*
X69623Y91648D01*
X69555Y91928D01*
X69513Y92213D01*
X69500Y92500D01*
X69513Y92788D01*
X69555Y93073D01*
X69623Y93353D01*
X69718Y93624D01*
X69719D01*
X69757Y93749D01*
X69773Y93879D01*
X69766Y94010D01*
X69737Y94137D01*
X69686Y94258D01*
X69614Y94367D01*
X69525Y94463D01*
X69421Y94542D01*
X69304Y94601D01*
X69179Y94639D01*
X69049Y94655D01*
X68918Y94648D01*
X68887Y94641D01*
Y119844D01*
X69053Y119607D01*
X69607Y119053D01*
X70250Y118603D01*
X70961Y118271D01*
X71719Y118068D01*
X72500Y118000D01*
Y97000D01*
X72068Y96980D01*
X71641Y96918D01*
X71221Y96815D01*
X70814Y96673D01*
Y96672D01*
X70698Y96613D01*
X70593Y96534D01*
X70504Y96438D01*
X70433Y96329D01*
X70382Y96208D01*
X70353Y96081D01*
X70346Y95951D01*
X70362Y95821D01*
X70400Y95696D01*
X70459Y95580D01*
X70538Y95475D01*
X70634Y95386D01*
X70743Y95315D01*
X70864Y95264D01*
X70991Y95235D01*
X71121Y95228D01*
X71251Y95244D01*
X71376Y95282D01*
X71647Y95377D01*
X71927Y95445D01*
X72212Y95487D01*
X72500Y95500D01*
Y89500D01*
X72212Y89514D01*
X71927Y89556D01*
X71647Y89624D01*
X71376Y89719D01*
Y89720D01*
X71251Y89758D01*
X71121Y89774D01*
X70990Y89767D01*
X70863Y89738D01*
X70742Y89687D01*
X70633Y89615D01*
X70537Y89526D01*
X70458Y89422D01*
X70399Y89305D01*
X70361Y89180D01*
X70345Y89050D01*
X70352Y88919D01*
X70381Y88792D01*
X70432Y88671D01*
X70504Y88562D01*
X70593Y88466D01*
X70697Y88387D01*
X70814Y88328D01*
X71221Y88186D01*
X71641Y88083D01*
X72068Y88021D01*
X72500Y88000D01*
Y55250D01*
G37*
G36*
X68887Y61392D02*X65514Y67126D01*
Y89174D01*
X65947Y89607D01*
X66397Y90250D01*
X66729Y90961D01*
X66932Y91719D01*
X67000Y92500D01*
X66932Y93281D01*
X66729Y94039D01*
X66397Y94750D01*
X65947Y95393D01*
X65514Y95826D01*
Y119174D01*
X65947Y119607D01*
X66397Y120250D01*
X66729Y120961D01*
X66932Y121719D01*
X67000Y122500D01*
X66932Y123281D01*
X66729Y124039D01*
X66397Y124750D01*
X65947Y125393D01*
X65514Y125826D01*
Y139550D01*
X65724Y139850D01*
X66041Y140529D01*
X66235Y141253D01*
X66300Y142000D01*
X66235Y142747D01*
X66041Y143471D01*
X65724Y144150D01*
X65514Y144450D01*
Y149812D01*
X65569Y149831D01*
X65660Y149882D01*
X65742Y149948D01*
X65810Y150026D01*
X65864Y150116D01*
X66019Y150474D01*
X66141Y150844D01*
X66229Y151224D01*
X66282Y151611D01*
X66300Y152001D01*
X66282Y152390D01*
X66229Y152777D01*
X66141Y153157D01*
X66019Y153527D01*
X65864Y153885D01*
X65810Y153975D01*
X65742Y154053D01*
X65660Y154119D01*
X65569Y154170D01*
X65514Y154189D01*
Y175000D01*
X68887D01*
Y125156D01*
X68603Y124750D01*
X68271Y124039D01*
X68068Y123281D01*
X68000Y122500D01*
X68068Y121719D01*
X68271Y120961D01*
X68603Y120250D01*
X68887Y119844D01*
Y94641D01*
X68791Y94619D01*
X68670Y94568D01*
X68561Y94496D01*
X68465Y94407D01*
X68386Y94303D01*
X68327Y94186D01*
X68185Y93779D01*
X68082Y93359D01*
X68020Y92932D01*
X68000Y92500D01*
X68020Y92069D01*
X68082Y91642D01*
X68185Y91222D01*
X68327Y90815D01*
X68328D01*
X68387Y90699D01*
X68466Y90594D01*
X68562Y90505D01*
X68671Y90434D01*
X68792Y90383D01*
X68887Y90361D01*
Y61392D01*
G37*
G36*
X65514Y144450D02*X65294Y144764D01*
X64764Y145294D01*
X64150Y145724D01*
X63471Y146041D01*
X62747Y146235D01*
X62500Y146256D01*
Y147733D01*
X62776Y147771D01*
X63156Y147859D01*
X63526Y147981D01*
X63884Y148136D01*
X63974Y148190D01*
X64052Y148258D01*
X64118Y148340D01*
X64169Y148431D01*
X64203Y148530D01*
X64219Y148633D01*
X64217Y148738D01*
X64197Y148840D01*
X64160Y148938D01*
X64106Y149028D01*
X64038Y149106D01*
X63956Y149172D01*
X63865Y149223D01*
X63766Y149257D01*
X63663Y149273D01*
X63558Y149271D01*
X63456Y149251D01*
X63358Y149214D01*
X63100Y149103D01*
X62833Y149015D01*
X62559Y148951D01*
X62500Y148943D01*
Y155058D01*
X62559Y155050D01*
X62833Y154986D01*
X63100Y154898D01*
X63358Y154787D01*
X63456Y154750D01*
X63558Y154730D01*
X63663Y154728D01*
X63766Y154744D01*
X63865Y154778D01*
X63956Y154829D01*
X64038Y154895D01*
X64106Y154973D01*
X64160Y155063D01*
X64197Y155161D01*
X64217Y155263D01*
X64219Y155368D01*
X64203Y155471D01*
X64169Y155570D01*
X64118Y155661D01*
X64052Y155743D01*
X63974Y155811D01*
X63884Y155865D01*
X63526Y156020D01*
X63156Y156142D01*
X62776Y156230D01*
X62500Y156268D01*
Y175000D01*
X65514D01*
Y154189D01*
X65470Y154204D01*
X65367Y154220D01*
X65262Y154218D01*
X65160Y154198D01*
X65062Y154161D01*
X64972Y154107D01*
X64894Y154039D01*
X64828Y153957D01*
X64777Y153866D01*
X64743Y153767D01*
X64727Y153664D01*
X64729Y153559D01*
X64749Y153457D01*
X64786Y153359D01*
X64897Y153101D01*
X64985Y152834D01*
X65049Y152560D01*
X65087Y152281D01*
X65100Y152000D01*
X65087Y151720D01*
X65049Y151441D01*
X64985Y151167D01*
X64897Y150900D01*
X64786Y150642D01*
X64749Y150544D01*
X64729Y150442D01*
X64727Y150337D01*
X64743Y150234D01*
X64777Y150135D01*
X64828Y150044D01*
X64894Y149962D01*
X64972Y149894D01*
X65062Y149840D01*
X65160Y149803D01*
X65262Y149783D01*
X65367Y149781D01*
X65470Y149797D01*
X65514Y149812D01*
Y144450D01*
G37*
G36*
Y125826D02*X65393Y125947D01*
X64750Y126397D01*
X64039Y126729D01*
X63281Y126932D01*
X62500Y127000D01*
Y137744D01*
X62747Y137765D01*
X63471Y137959D01*
X64150Y138276D01*
X64764Y138706D01*
X65294Y139236D01*
X65514Y139550D01*
Y125826D01*
G37*
G36*
Y95826D02*X65393Y95947D01*
X64750Y96397D01*
X64039Y96729D01*
X63281Y96932D01*
X62500Y97000D01*
Y118000D01*
X63281Y118068D01*
X64039Y118271D01*
X64750Y118603D01*
X65393Y119053D01*
X65514Y119174D01*
Y95826D01*
G37*
G36*
Y67126D02*X62500Y72250D01*
Y88000D01*
X63281Y88068D01*
X64039Y88271D01*
X64750Y88603D01*
X65393Y89053D01*
X65514Y89174D01*
Y67126D01*
G37*
G36*
X58486Y120501D02*X58603Y120250D01*
X59053Y119607D01*
X59607Y119053D01*
X60250Y118603D01*
X60961Y118271D01*
X61719Y118068D01*
X62500Y118000D01*
Y97000D01*
X61719Y96932D01*
X60961Y96729D01*
X60250Y96397D01*
X59607Y95947D01*
X59053Y95393D01*
X58603Y94750D01*
X58486Y94499D01*
Y120501D01*
G37*
G36*
Y139550D02*X58706Y139236D01*
X59236Y138706D01*
X59850Y138276D01*
X60529Y137959D01*
X61253Y137765D01*
X62000Y137700D01*
X62500Y137744D01*
Y127000D01*
X61719Y126932D01*
X60961Y126729D01*
X60250Y126397D01*
X59607Y125947D01*
X59053Y125393D01*
X58603Y124750D01*
X58486Y124499D01*
Y139550D01*
G37*
G36*
Y175000D02*X62500D01*
Y156268D01*
X62389Y156283D01*
X62000Y156300D01*
X61610Y156283D01*
X61223Y156230D01*
X60843Y156142D01*
X60473Y156020D01*
X60115Y155865D01*
X60025Y155811D01*
X59947Y155743D01*
X59881Y155661D01*
X59830Y155570D01*
X59796Y155471D01*
X59780Y155368D01*
X59782Y155263D01*
X59802Y155161D01*
X59839Y155063D01*
X59893Y154973D01*
X59961Y154895D01*
X60043Y154829D01*
X60134Y154778D01*
X60233Y154744D01*
X60336Y154728D01*
X60441Y154730D01*
X60543Y154750D01*
X60641Y154787D01*
X60899Y154898D01*
X61166Y154986D01*
X61440Y155050D01*
X61719Y155088D01*
X62000Y155100D01*
X62280Y155088D01*
X62500Y155058D01*
Y148943D01*
X62280Y148913D01*
X62000Y148900D01*
X61719Y148913D01*
X61440Y148951D01*
X61166Y149015D01*
X60899Y149103D01*
X60641Y149214D01*
X60543Y149251D01*
X60441Y149271D01*
X60336Y149273D01*
X60233Y149257D01*
X60134Y149223D01*
X60043Y149172D01*
X59961Y149106D01*
X59893Y149028D01*
X59839Y148938D01*
X59802Y148840D01*
X59782Y148738D01*
X59780Y148633D01*
X59796Y148530D01*
X59830Y148431D01*
X59881Y148340D01*
X59947Y148258D01*
X60025Y148190D01*
X60115Y148136D01*
X60473Y147981D01*
X60843Y147859D01*
X61223Y147771D01*
X61610Y147718D01*
X62000Y147700D01*
X62389Y147718D01*
X62500Y147733D01*
Y146256D01*
X62000Y146300D01*
X61253Y146235D01*
X60529Y146041D01*
X59850Y145724D01*
X59236Y145294D01*
X58706Y144764D01*
X58486Y144450D01*
Y149812D01*
X58529Y149797D01*
X58632Y149781D01*
X58737Y149783D01*
X58839Y149803D01*
X58937Y149840D01*
X59027Y149894D01*
X59105Y149962D01*
X59171Y150044D01*
X59222Y150135D01*
X59256Y150234D01*
X59272Y150337D01*
X59270Y150442D01*
X59250Y150544D01*
X59213Y150642D01*
X59102Y150900D01*
X59014Y151167D01*
X58950Y151441D01*
X58912Y151720D01*
X58900Y152001D01*
X58912Y152281D01*
X58950Y152560D01*
X59014Y152834D01*
X59102Y153101D01*
X59213Y153359D01*
X59250Y153457D01*
X59270Y153559D01*
X59272Y153664D01*
X59256Y153767D01*
X59222Y153866D01*
X59171Y153957D01*
X59105Y154039D01*
X59027Y154107D01*
X58937Y154161D01*
X58839Y154198D01*
X58737Y154218D01*
X58632Y154220D01*
X58529Y154204D01*
X58486Y154189D01*
Y175000D01*
G37*
G36*
X62500Y72250D02*X58486Y79074D01*
Y90501D01*
X58603Y90250D01*
X59053Y89607D01*
X59607Y89053D01*
X60250Y88603D01*
X60961Y88271D01*
X61719Y88068D01*
X62500Y88000D01*
Y72250D01*
G37*
G36*
X58486Y79074D02*X55000Y85000D01*
Y88778D01*
X55393Y89053D01*
X55947Y89607D01*
X56397Y90250D01*
X56729Y90961D01*
X56932Y91719D01*
X57000Y92500D01*
X56932Y93281D01*
X56729Y94039D01*
X56397Y94750D01*
X55947Y95393D01*
X55393Y95947D01*
X55000Y96222D01*
Y118778D01*
X55393Y119053D01*
X55947Y119607D01*
X56397Y120250D01*
X56729Y120961D01*
X56932Y121719D01*
X57000Y122500D01*
X56932Y123281D01*
X56729Y124039D01*
X56397Y124750D01*
X55947Y125393D01*
X55393Y125947D01*
X55000Y126222D01*
Y138942D01*
X55294Y139236D01*
X55724Y139850D01*
X56041Y140529D01*
X56235Y141253D01*
X56300Y142000D01*
X56235Y142747D01*
X56041Y143471D01*
X55724Y144150D01*
X55294Y144764D01*
X55000Y145058D01*
Y148942D01*
X55294Y149236D01*
X55724Y149850D01*
X56041Y150529D01*
X56235Y151253D01*
X56300Y152000D01*
X56235Y152747D01*
X56041Y153471D01*
X55724Y154150D01*
X55294Y154764D01*
X55000Y155058D01*
Y175000D01*
X58486D01*
Y154189D01*
X58430Y154170D01*
X58339Y154119D01*
X58257Y154053D01*
X58189Y153975D01*
X58135Y153885D01*
X57980Y153527D01*
X57858Y153157D01*
X57770Y152777D01*
X57717Y152390D01*
X57700Y152000D01*
X57717Y151611D01*
X57770Y151224D01*
X57858Y150844D01*
X57980Y150474D01*
X58135Y150116D01*
X58189Y150026D01*
X58257Y149948D01*
X58339Y149882D01*
X58430Y149831D01*
X58486Y149812D01*
Y144450D01*
X58276Y144150D01*
X57959Y143471D01*
X57765Y142747D01*
X57700Y142000D01*
X57765Y141253D01*
X57959Y140529D01*
X58276Y139850D01*
X58486Y139550D01*
Y124499D01*
X58271Y124039D01*
X58068Y123281D01*
X58000Y122500D01*
X58068Y121719D01*
X58271Y120961D01*
X58486Y120501D01*
Y94499D01*
X58271Y94039D01*
X58068Y93281D01*
X58000Y92500D01*
X58068Y91719D01*
X58271Y90961D01*
X58486Y90501D01*
Y79074D01*
G37*
G36*
X64000Y12770D02*X64049Y12560D01*
X64087Y12281D01*
X64100Y12000D01*
X64087Y11720D01*
X64049Y11441D01*
X64000Y11231D01*
Y12770D01*
G37*
G36*
X81000Y32300D02*X100000Y0D01*
X81000D01*
Y7700D01*
X81747Y7765D01*
X82471Y7959D01*
X83150Y8276D01*
X83764Y8706D01*
X84294Y9236D01*
X84724Y9850D01*
X85041Y10529D01*
X85235Y11253D01*
X85300Y12000D01*
X85235Y12747D01*
X85041Y13471D01*
X84724Y14150D01*
X84294Y14764D01*
X83764Y15294D01*
X83150Y15724D01*
X82471Y16041D01*
X81747Y16235D01*
X81000Y16300D01*
Y32300D01*
G37*
G36*
X75000Y42500D02*X81000Y32300D01*
Y16300D01*
X80253Y16235D01*
X79529Y16041D01*
X78850Y15724D01*
X78236Y15294D01*
X77706Y14764D01*
X77276Y14150D01*
X76959Y13471D01*
X76765Y12747D01*
X76700Y12000D01*
X76765Y11253D01*
X76959Y10529D01*
X77276Y9850D01*
X77706Y9236D01*
X78236Y8706D01*
X78850Y8276D01*
X79529Y7959D01*
X80253Y7765D01*
X81000Y7700D01*
Y0D01*
X75000D01*
Y10441D01*
X75041Y10529D01*
X75235Y11253D01*
X75300Y12000D01*
X75235Y12747D01*
X75041Y13471D01*
X75000Y13559D01*
Y20700D01*
X75747Y20765D01*
X76471Y20959D01*
X77150Y21276D01*
X77764Y21706D01*
X78294Y22236D01*
X78724Y22850D01*
X79041Y23529D01*
X79235Y24253D01*
X79300Y25000D01*
X79235Y25747D01*
X79041Y26471D01*
X78724Y27150D01*
X78294Y27764D01*
X77764Y28294D01*
X77150Y28724D01*
X76471Y29041D01*
X75747Y29235D01*
X75000Y29300D01*
Y42500D01*
G37*
G36*
X70000Y7833D02*X70253Y7765D01*
X71000Y7700D01*
X71747Y7765D01*
X72471Y7959D01*
X73150Y8276D01*
X73764Y8706D01*
X74294Y9236D01*
X74724Y9850D01*
X75000Y10441D01*
Y0D01*
X70000D01*
Y7833D01*
G37*
G36*
Y51000D02*X75000Y42500D01*
Y29300D01*
X74253Y29235D01*
X73529Y29041D01*
X72850Y28724D01*
X72236Y28294D01*
X71706Y27764D01*
X71276Y27150D01*
X70959Y26471D01*
X70765Y25747D01*
X70700Y25000D01*
X70765Y24253D01*
X70959Y23529D01*
X71276Y22850D01*
X71706Y22236D01*
X72236Y21706D01*
X72850Y21276D01*
X73529Y20959D01*
X74253Y20765D01*
X75000Y20700D01*
Y13559D01*
X74724Y14150D01*
X74294Y14764D01*
X73764Y15294D01*
X73150Y15724D01*
X72471Y16041D01*
X71747Y16235D01*
X71000Y16300D01*
X70253Y16235D01*
X70000Y16167D01*
Y33700D01*
X70747Y33765D01*
X71471Y33959D01*
X72150Y34276D01*
X72764Y34706D01*
X73294Y35236D01*
X73724Y35850D01*
X74041Y36529D01*
X74235Y37253D01*
X74300Y38000D01*
X74235Y38747D01*
X74041Y39471D01*
X73724Y40150D01*
X73294Y40764D01*
X72764Y41294D01*
X72150Y41724D01*
X71471Y42041D01*
X70747Y42235D01*
X70000Y42300D01*
Y51000D01*
G37*
G36*
X64000Y61200D02*X70000Y51000D01*
Y42300D01*
X69253Y42235D01*
X68529Y42041D01*
X67850Y41724D01*
X67236Y41294D01*
X66706Y40764D01*
X66276Y40150D01*
X65959Y39471D01*
X65765Y38747D01*
X65700Y38000D01*
X65765Y37253D01*
X65959Y36529D01*
X66276Y35850D01*
X66706Y35236D01*
X67236Y34706D01*
X67850Y34276D01*
X68529Y33959D01*
X69253Y33765D01*
X70000Y33700D01*
Y16167D01*
X69529Y16041D01*
X68850Y15724D01*
X68236Y15294D01*
X67706Y14764D01*
X67276Y14150D01*
X66959Y13471D01*
X66765Y12747D01*
X66700Y12000D01*
X66765Y11253D01*
X66959Y10529D01*
X67276Y9850D01*
X67706Y9236D01*
X68236Y8706D01*
X68850Y8276D01*
X69529Y7959D01*
X70000Y7833D01*
Y0D01*
X64000D01*
Y9877D01*
X64062Y9840D01*
X64160Y9803D01*
X64262Y9783D01*
X64367Y9781D01*
X64470Y9797D01*
X64569Y9831D01*
X64660Y9882D01*
X64742Y9948D01*
X64810Y10026D01*
X64864Y10116D01*
X65019Y10474D01*
X65141Y10844D01*
X65229Y11224D01*
X65282Y11611D01*
X65300Y12000D01*
X65282Y12390D01*
X65229Y12777D01*
X65141Y13157D01*
X65019Y13527D01*
X64864Y13885D01*
X64810Y13975D01*
X64742Y14053D01*
X64660Y14119D01*
X64569Y14170D01*
X64470Y14204D01*
X64367Y14220D01*
X64262Y14218D01*
X64160Y14198D01*
X64062Y14161D01*
X64000Y14124D01*
Y20833D01*
X64253Y20765D01*
X65000Y20700D01*
X65747Y20765D01*
X66471Y20959D01*
X67150Y21276D01*
X67764Y21706D01*
X68294Y22236D01*
X68724Y22850D01*
X69041Y23529D01*
X69235Y24253D01*
X69300Y25000D01*
X69235Y25747D01*
X69041Y26471D01*
X68724Y27150D01*
X68294Y27764D01*
X67764Y28294D01*
X67150Y28724D01*
X66471Y29041D01*
X65747Y29235D01*
X65000Y29300D01*
X64253Y29235D01*
X64000Y29167D01*
Y36441D01*
X64041Y36529D01*
X64235Y37253D01*
X64300Y38000D01*
X64235Y38747D01*
X64041Y39471D01*
X64000Y39559D01*
Y45700D01*
X64747Y45765D01*
X65471Y45959D01*
X66150Y46276D01*
X66764Y46706D01*
X67294Y47236D01*
X67724Y47850D01*
X68041Y48529D01*
X68235Y49253D01*
X68300Y50000D01*
X68235Y50747D01*
X68041Y51471D01*
X67724Y52150D01*
X67294Y52764D01*
X66764Y53294D01*
X66150Y53724D01*
X65471Y54041D01*
X64747Y54235D01*
X64000Y54300D01*
Y61200D01*
G37*
G36*
X61000Y23441D02*X61276Y22850D01*
X61706Y22236D01*
X62236Y21706D01*
X62850Y21276D01*
X63529Y20959D01*
X64000Y20833D01*
Y14124D01*
X63972Y14107D01*
X63894Y14039D01*
X63828Y13957D01*
X63777Y13866D01*
X63743Y13767D01*
X63727Y13664D01*
X63729Y13559D01*
X63749Y13457D01*
X63786Y13359D01*
X63897Y13101D01*
X63985Y12834D01*
X64000Y12770D01*
Y11231D01*
X63985Y11167D01*
X63897Y10900D01*
X63786Y10642D01*
X63749Y10544D01*
X63729Y10442D01*
X63727Y10337D01*
X63743Y10234D01*
X63777Y10135D01*
X63828Y10044D01*
X63894Y9962D01*
X63972Y9894D01*
X64000Y9877D01*
Y0D01*
X61000D01*
Y7700D01*
X61389Y7718D01*
X61776Y7771D01*
X62156Y7859D01*
X62526Y7981D01*
X62884Y8136D01*
X62974Y8190D01*
X63052Y8258D01*
X63118Y8340D01*
X63169Y8431D01*
X63203Y8530D01*
X63219Y8633D01*
X63217Y8738D01*
X63197Y8840D01*
X63160Y8938D01*
X63106Y9028D01*
X63038Y9106D01*
X62956Y9172D01*
X62865Y9223D01*
X62766Y9257D01*
X62663Y9273D01*
X62558Y9271D01*
X62456Y9251D01*
X62358Y9214D01*
X62100Y9103D01*
X61833Y9015D01*
X61559Y8951D01*
X61280Y8913D01*
X61000Y8900D01*
Y15100D01*
X61280Y15088D01*
X61559Y15050D01*
X61833Y14986D01*
X62100Y14898D01*
X62358Y14787D01*
X62456Y14750D01*
X62558Y14730D01*
X62663Y14728D01*
X62766Y14744D01*
X62865Y14778D01*
X62956Y14829D01*
X63038Y14895D01*
X63106Y14973D01*
X63160Y15063D01*
X63197Y15161D01*
X63217Y15263D01*
X63219Y15368D01*
X63203Y15471D01*
X63169Y15570D01*
X63118Y15661D01*
X63052Y15743D01*
X62974Y15811D01*
X62884Y15865D01*
X62526Y16020D01*
X62156Y16142D01*
X61776Y16230D01*
X61389Y16283D01*
X61000Y16300D01*
Y23441D01*
G37*
G36*
Y33833D02*X61471Y33959D01*
X62150Y34276D01*
X62764Y34706D01*
X63294Y35236D01*
X63724Y35850D01*
X64000Y36441D01*
Y29167D01*
X63529Y29041D01*
X62850Y28724D01*
X62236Y28294D01*
X61706Y27764D01*
X61276Y27150D01*
X61000Y26559D01*
Y33833D01*
G37*
G36*
X58514Y33966D02*X58529Y33959D01*
X59253Y33765D01*
X60000Y33700D01*
X60747Y33765D01*
X61000Y33833D01*
Y26559D01*
X60959Y26471D01*
X60765Y25747D01*
X60700Y25000D01*
X60765Y24253D01*
X60959Y23529D01*
X61000Y23441D01*
Y16300D01*
X60610Y16283D01*
X60223Y16230D01*
X59843Y16142D01*
X59473Y16020D01*
X59115Y15865D01*
X59025Y15811D01*
X58947Y15743D01*
X58881Y15661D01*
X58830Y15570D01*
X58796Y15471D01*
X58780Y15368D01*
X58782Y15263D01*
X58802Y15161D01*
X58839Y15063D01*
X58893Y14973D01*
X58961Y14895D01*
X59043Y14829D01*
X59134Y14778D01*
X59233Y14744D01*
X59336Y14728D01*
X59441Y14730D01*
X59543Y14750D01*
X59641Y14787D01*
X59899Y14898D01*
X60166Y14986D01*
X60440Y15050D01*
X60719Y15088D01*
X61000Y15100D01*
Y8900D01*
X60719Y8913D01*
X60440Y8951D01*
X60166Y9015D01*
X59899Y9103D01*
X59641Y9214D01*
X59543Y9251D01*
X59441Y9271D01*
X59336Y9273D01*
X59233Y9257D01*
X59134Y9223D01*
X59043Y9172D01*
X58961Y9106D01*
X58893Y9028D01*
X58839Y8938D01*
X58802Y8840D01*
X58782Y8738D01*
X58780Y8633D01*
X58796Y8530D01*
X58830Y8431D01*
X58881Y8340D01*
X58947Y8258D01*
X59025Y8190D01*
X59115Y8136D01*
X59473Y7981D01*
X59843Y7859D01*
X60223Y7771D01*
X60610Y7718D01*
X61000Y7700D01*
Y0D01*
X58514D01*
Y22812D01*
X58569Y22831D01*
X58660Y22882D01*
X58742Y22948D01*
X58810Y23026D01*
X58864Y23116D01*
X59019Y23474D01*
X59141Y23844D01*
X59229Y24224D01*
X59282Y24611D01*
X59300Y25000D01*
X59282Y25390D01*
X59229Y25777D01*
X59141Y26157D01*
X59019Y26527D01*
X58864Y26885D01*
X58810Y26975D01*
X58742Y27053D01*
X58660Y27119D01*
X58569Y27170D01*
X58514Y27189D01*
Y33966D01*
G37*
G36*
Y58575D02*X58849Y58485D01*
X59596Y58420D01*
X60343Y58485D01*
X61067Y58679D01*
X61746Y58996D01*
X62360Y59426D01*
X62890Y59956D01*
X63320Y60570D01*
X63637Y61249D01*
X63742Y61639D01*
X64000Y61200D01*
Y54300D01*
X63253Y54235D01*
X62529Y54041D01*
X61850Y53724D01*
X61236Y53294D01*
X60706Y52764D01*
X60276Y52150D01*
X59959Y51471D01*
X59765Y50747D01*
X59700Y50000D01*
X59765Y49253D01*
X59959Y48529D01*
X60276Y47850D01*
X60706Y47236D01*
X61236Y46706D01*
X61850Y46276D01*
X62529Y45959D01*
X63253Y45765D01*
X64000Y45700D01*
Y39559D01*
X63724Y40150D01*
X63294Y40764D01*
X62764Y41294D01*
X62150Y41724D01*
X61471Y42041D01*
X60747Y42235D01*
X60000Y42300D01*
X59253Y42235D01*
X58529Y42041D01*
X58514Y42034D01*
Y58575D01*
G37*
G36*
Y70526D02*X60666Y66869D01*
X60343Y66955D01*
X59596Y67020D01*
X58849Y66955D01*
X58514Y66865D01*
Y70526D01*
G37*
G36*
X57486Y34531D02*X57850Y34276D01*
X58514Y33966D01*
Y27189D01*
X58470Y27204D01*
X58367Y27220D01*
X58262Y27218D01*
X58160Y27198D01*
X58062Y27161D01*
X57972Y27107D01*
X57894Y27039D01*
X57828Y26957D01*
X57777Y26866D01*
X57743Y26767D01*
X57727Y26664D01*
X57729Y26559D01*
X57749Y26457D01*
X57786Y26359D01*
X57897Y26101D01*
X57985Y25834D01*
X58049Y25560D01*
X58087Y25281D01*
X58100Y25000D01*
X58087Y24720D01*
X58049Y24441D01*
X57985Y24167D01*
X57897Y23900D01*
X57786Y23642D01*
X57749Y23544D01*
X57729Y23442D01*
X57727Y23337D01*
X57743Y23234D01*
X57777Y23135D01*
X57828Y23044D01*
X57894Y22962D01*
X57972Y22894D01*
X58062Y22840D01*
X58160Y22803D01*
X58262Y22783D01*
X58367Y22781D01*
X58470Y22797D01*
X58514Y22812D01*
Y0D01*
X57486D01*
Y9812D01*
X57529Y9797D01*
X57632Y9781D01*
X57737Y9783D01*
X57839Y9803D01*
X57937Y9840D01*
X58027Y9894D01*
X58105Y9962D01*
X58171Y10044D01*
X58222Y10135D01*
X58256Y10234D01*
X58272Y10337D01*
X58270Y10442D01*
X58250Y10544D01*
X58213Y10642D01*
X58102Y10900D01*
X58014Y11167D01*
X57950Y11441D01*
X57912Y11720D01*
X57900Y12000D01*
X57912Y12281D01*
X57950Y12560D01*
X58014Y12834D01*
X58102Y13101D01*
X58213Y13359D01*
X58250Y13457D01*
X58270Y13559D01*
X58272Y13664D01*
X58256Y13767D01*
X58222Y13866D01*
X58171Y13957D01*
X58105Y14039D01*
X58027Y14107D01*
X57937Y14161D01*
X57839Y14198D01*
X57737Y14218D01*
X57632Y14220D01*
X57529Y14204D01*
X57486Y14189D01*
Y34531D01*
G37*
G36*
Y58977D02*X58125Y58679D01*
X58514Y58575D01*
Y42034D01*
X57850Y41724D01*
X57486Y41469D01*
Y47510D01*
X57724Y47850D01*
X58041Y48529D01*
X58235Y49253D01*
X58300Y50000D01*
X58235Y50747D01*
X58041Y51471D01*
X57724Y52150D01*
X57486Y52490D01*
Y58977D01*
G37*
G36*
Y72012D02*X57595Y72088D01*
X58514Y70526D01*
Y66865D01*
X58125Y66761D01*
X57486Y66463D01*
Y72012D01*
G37*
G36*
Y41469D02*X57236Y41294D01*
X56706Y40764D01*
X56276Y40150D01*
X55959Y39471D01*
X55765Y38747D01*
X55700Y38000D01*
X55765Y37253D01*
X55959Y36529D01*
X56276Y35850D01*
X56706Y35236D01*
X57236Y34706D01*
X57486Y34531D01*
Y14189D01*
X57430Y14170D01*
X57339Y14119D01*
X57257Y14053D01*
X57189Y13975D01*
X57135Y13885D01*
X56980Y13527D01*
X56858Y13157D01*
X56770Y12777D01*
X56717Y12390D01*
X56700Y12000D01*
X56717Y11611D01*
X56770Y11224D01*
X56858Y10844D01*
X56980Y10474D01*
X57135Y10116D01*
X57189Y10026D01*
X57257Y9948D01*
X57339Y9882D01*
X57430Y9831D01*
X57486Y9812D01*
Y0D01*
X55000D01*
Y10441D01*
X55041Y10529D01*
X55235Y11253D01*
X55300Y12000D01*
X55235Y12747D01*
X55041Y13471D01*
X55000Y13559D01*
Y20700D01*
X55389Y20718D01*
X55776Y20771D01*
X56156Y20859D01*
X56526Y20981D01*
X56884Y21136D01*
X56974Y21190D01*
X57052Y21258D01*
X57118Y21340D01*
X57169Y21431D01*
X57203Y21530D01*
X57219Y21633D01*
X57217Y21738D01*
X57197Y21840D01*
X57160Y21938D01*
X57106Y22028D01*
X57038Y22106D01*
X56956Y22172D01*
X56865Y22223D01*
X56766Y22257D01*
X56663Y22273D01*
X56558Y22271D01*
X56456Y22251D01*
X56358Y22214D01*
X56100Y22103D01*
X55833Y22015D01*
X55559Y21951D01*
X55280Y21913D01*
X55000Y21900D01*
Y28100D01*
X55280Y28088D01*
X55559Y28050D01*
X55833Y27986D01*
X56100Y27898D01*
X56358Y27787D01*
X56456Y27750D01*
X56558Y27730D01*
X56663Y27728D01*
X56766Y27744D01*
X56865Y27778D01*
X56956Y27829D01*
X57038Y27895D01*
X57106Y27973D01*
X57160Y28063D01*
X57197Y28161D01*
X57217Y28263D01*
X57219Y28368D01*
X57203Y28471D01*
X57169Y28570D01*
X57118Y28661D01*
X57052Y28743D01*
X56974Y28811D01*
X56884Y28865D01*
X56526Y29020D01*
X56156Y29142D01*
X55776Y29230D01*
X55389Y29283D01*
X55000Y29300D01*
Y45833D01*
X55471Y45959D01*
X56150Y46276D01*
X56764Y46706D01*
X57294Y47236D01*
X57486Y47510D01*
Y41469D01*
G37*
G36*
X55000Y71200D02*X55747Y71265D01*
X56471Y71459D01*
X57150Y71776D01*
X57486Y72012D01*
Y66463D01*
X57446Y66444D01*
X56832Y66014D01*
X56302Y65484D01*
X55872Y64870D01*
X55555Y64191D01*
X55361Y63467D01*
X55296Y62720D01*
X55361Y61973D01*
X55555Y61249D01*
X55872Y60570D01*
X56302Y59956D01*
X56832Y59426D01*
X57446Y58996D01*
X57486Y58977D01*
Y52490D01*
X57294Y52764D01*
X56764Y53294D01*
X56150Y53724D01*
X55471Y54041D01*
X55000Y54167D01*
Y71200D01*
G37*
G36*
X53514Y27744D02*X53543Y27750D01*
X53641Y27787D01*
X53899Y27898D01*
X54166Y27986D01*
X54440Y28050D01*
X54719Y28088D01*
X55000Y28100D01*
Y21900D01*
X54719Y21913D01*
X54440Y21951D01*
X54166Y22015D01*
X53899Y22103D01*
X53641Y22214D01*
X53543Y22251D01*
X53514Y22257D01*
Y27744D01*
G37*
G36*
Y45742D02*X54000Y45700D01*
X54747Y45765D01*
X55000Y45833D01*
Y29300D01*
X54610Y29283D01*
X54223Y29230D01*
X53843Y29142D01*
X53514Y29034D01*
Y35812D01*
X53569Y35831D01*
X53660Y35882D01*
X53742Y35948D01*
X53810Y36026D01*
X53864Y36116D01*
X54019Y36474D01*
X54141Y36844D01*
X54229Y37224D01*
X54282Y37611D01*
X54300Y38000D01*
X54282Y38390D01*
X54229Y38777D01*
X54141Y39157D01*
X54019Y39527D01*
X53864Y39885D01*
X53810Y39975D01*
X53742Y40053D01*
X53660Y40119D01*
X53569Y40170D01*
X53514Y40189D01*
Y45742D01*
G37*
G36*
X55000Y13559D02*X54724Y14150D01*
X54294Y14764D01*
X53764Y15294D01*
X53514Y15469D01*
Y20967D01*
X53843Y20859D01*
X54223Y20771D01*
X54610Y20718D01*
X55000Y20700D01*
Y13559D01*
G37*
G36*
X53514Y15469D02*X53150Y15724D01*
X52471Y16041D01*
X51747Y16235D01*
X51486Y16258D01*
Y22812D01*
X51529Y22797D01*
X51632Y22781D01*
X51737Y22783D01*
X51839Y22803D01*
X51937Y22840D01*
X52027Y22894D01*
X52105Y22962D01*
X52171Y23044D01*
X52222Y23135D01*
X52256Y23234D01*
X52272Y23337D01*
X52270Y23442D01*
X52250Y23544D01*
X52213Y23642D01*
X52102Y23900D01*
X52014Y24167D01*
X51950Y24441D01*
X51912Y24720D01*
X51900Y25000D01*
X51912Y25281D01*
X51950Y25560D01*
X52014Y25834D01*
X52102Y26101D01*
X52213Y26359D01*
X52250Y26457D01*
X52270Y26559D01*
X52272Y26664D01*
X52256Y26767D01*
X52222Y26866D01*
X52171Y26957D01*
X52105Y27039D01*
X52027Y27107D01*
X51937Y27161D01*
X51839Y27198D01*
X51737Y27218D01*
X51632Y27220D01*
X51529Y27204D01*
X51486Y27189D01*
Y33968D01*
X51526Y33981D01*
X51884Y34136D01*
X51974Y34190D01*
X52052Y34258D01*
X52118Y34340D01*
X52169Y34431D01*
X52203Y34530D01*
X52219Y34633D01*
X52217Y34738D01*
X52197Y34840D01*
X52160Y34938D01*
X52106Y35028D01*
X52038Y35106D01*
X51956Y35172D01*
X51865Y35223D01*
X51766Y35257D01*
X51663Y35273D01*
X51558Y35271D01*
X51486Y35257D01*
Y40744D01*
X51558Y40730D01*
X51663Y40728D01*
X51766Y40744D01*
X51865Y40778D01*
X51956Y40829D01*
X52038Y40895D01*
X52106Y40973D01*
X52160Y41063D01*
X52197Y41161D01*
X52217Y41263D01*
X52219Y41368D01*
X52203Y41471D01*
X52169Y41570D01*
X52118Y41661D01*
X52052Y41743D01*
X51974Y41811D01*
X51884Y41865D01*
X51526Y42020D01*
X51486Y42033D01*
Y46531D01*
X51850Y46276D01*
X52529Y45959D01*
X53253Y45765D01*
X53514Y45742D01*
Y40189D01*
X53470Y40204D01*
X53367Y40220D01*
X53262Y40218D01*
X53160Y40198D01*
X53062Y40161D01*
X52972Y40107D01*
X52894Y40039D01*
X52828Y39957D01*
X52777Y39866D01*
X52743Y39767D01*
X52727Y39664D01*
X52729Y39559D01*
X52749Y39457D01*
X52786Y39359D01*
X52897Y39101D01*
X52985Y38834D01*
X53049Y38560D01*
X53087Y38281D01*
X53100Y38000D01*
X53087Y37720D01*
X53049Y37441D01*
X52985Y37167D01*
X52897Y36900D01*
X52786Y36642D01*
X52749Y36544D01*
X52729Y36442D01*
X52727Y36337D01*
X52743Y36234D01*
X52777Y36135D01*
X52828Y36044D01*
X52894Y35962D01*
X52972Y35894D01*
X53062Y35840D01*
X53160Y35803D01*
X53262Y35783D01*
X53367Y35781D01*
X53470Y35797D01*
X53514Y35812D01*
Y29034D01*
X53473Y29020D01*
X53115Y28865D01*
X53025Y28811D01*
X52947Y28743D01*
X52881Y28661D01*
X52830Y28570D01*
X52796Y28471D01*
X52780Y28368D01*
X52782Y28263D01*
X52802Y28161D01*
X52839Y28063D01*
X52893Y27973D01*
X52961Y27895D01*
X53043Y27829D01*
X53134Y27778D01*
X53233Y27744D01*
X53336Y27728D01*
X53441Y27730D01*
X53514Y27744D01*
Y22257D01*
X53441Y22271D01*
X53336Y22273D01*
X53233Y22257D01*
X53134Y22223D01*
X53043Y22172D01*
X52961Y22106D01*
X52893Y22028D01*
X52839Y21938D01*
X52802Y21840D01*
X52782Y21738D01*
X52780Y21633D01*
X52796Y21530D01*
X52830Y21431D01*
X52881Y21340D01*
X52947Y21258D01*
X53025Y21190D01*
X53115Y21136D01*
X53473Y20981D01*
X53514Y20967D01*
Y15469D01*
G37*
G36*
X55000Y0D02*X51486D01*
Y7742D01*
X51747Y7765D01*
X52471Y7959D01*
X53150Y8276D01*
X53764Y8706D01*
X54294Y9236D01*
X54724Y9850D01*
X55000Y10441D01*
Y0D01*
G37*
G36*
X51486Y73050D02*X51706Y72736D01*
X52236Y72206D01*
X52850Y71776D01*
X53529Y71459D01*
X54253Y71265D01*
X55000Y71200D01*
Y54167D01*
X54747Y54235D01*
X54000Y54300D01*
X53253Y54235D01*
X52529Y54041D01*
X51850Y53724D01*
X51486Y53469D01*
Y58875D01*
X51746Y58996D01*
X52360Y59426D01*
X52890Y59956D01*
X53320Y60570D01*
X53637Y61249D01*
X53831Y61973D01*
X53896Y62720D01*
X53831Y63467D01*
X53637Y64191D01*
X53320Y64870D01*
X52890Y65484D01*
X52360Y66014D01*
X51746Y66444D01*
X51486Y66565D01*
Y73050D01*
G37*
G36*
Y82474D02*X53280Y79425D01*
X52850Y79224D01*
X52236Y78794D01*
X51706Y78264D01*
X51486Y77950D01*
Y82474D01*
G37*
G36*
Y16258D02*X51000Y16300D01*
X50253Y16235D01*
X49529Y16041D01*
X48850Y15724D01*
X48236Y15294D01*
X47706Y14764D01*
X47514Y14490D01*
Y21531D01*
X47764Y21706D01*
X48294Y22236D01*
X48724Y22850D01*
X49041Y23529D01*
X49235Y24253D01*
X49300Y25000D01*
X49235Y25747D01*
X49041Y26471D01*
X48724Y27150D01*
X48294Y27764D01*
X47764Y28294D01*
X47514Y28469D01*
Y47812D01*
X47569Y47831D01*
X47660Y47882D01*
X47742Y47948D01*
X47810Y48026D01*
X47864Y48116D01*
X48019Y48474D01*
X48141Y48844D01*
X48229Y49224D01*
X48282Y49611D01*
X48300Y50000D01*
X48282Y50390D01*
X48229Y50777D01*
X48141Y51157D01*
X48019Y51527D01*
X47864Y51885D01*
X47810Y51975D01*
X47742Y52053D01*
X47660Y52119D01*
X47569Y52170D01*
X47514Y52189D01*
Y58964D01*
X48125Y58679D01*
X48849Y58485D01*
X49596Y58420D01*
X50343Y58485D01*
X51067Y58679D01*
X51486Y58875D01*
Y53469D01*
X51236Y53294D01*
X50706Y52764D01*
X50276Y52150D01*
X49959Y51471D01*
X49765Y50747D01*
X49700Y50000D01*
X49765Y49253D01*
X49959Y48529D01*
X50276Y47850D01*
X50706Y47236D01*
X51236Y46706D01*
X51486Y46531D01*
Y42033D01*
X51156Y42142D01*
X50776Y42230D01*
X50389Y42283D01*
X50000Y42300D01*
X49610Y42283D01*
X49223Y42230D01*
X48843Y42142D01*
X48473Y42020D01*
X48115Y41865D01*
X48025Y41811D01*
X47947Y41743D01*
X47881Y41661D01*
X47830Y41570D01*
X47796Y41471D01*
X47780Y41368D01*
X47782Y41263D01*
X47802Y41161D01*
X47839Y41063D01*
X47893Y40973D01*
X47961Y40895D01*
X48043Y40829D01*
X48134Y40778D01*
X48233Y40744D01*
X48336Y40728D01*
X48441Y40730D01*
X48543Y40750D01*
X48641Y40787D01*
X48899Y40898D01*
X49166Y40986D01*
X49440Y41050D01*
X49719Y41088D01*
X50000Y41100D01*
X50280Y41088D01*
X50559Y41050D01*
X50833Y40986D01*
X51100Y40898D01*
X51358Y40787D01*
X51456Y40750D01*
X51486Y40744D01*
Y35257D01*
X51456Y35251D01*
X51358Y35214D01*
X51100Y35103D01*
X50833Y35015D01*
X50559Y34951D01*
X50280Y34913D01*
X50000Y34900D01*
X49719Y34913D01*
X49440Y34951D01*
X49166Y35015D01*
X48899Y35103D01*
X48641Y35214D01*
X48543Y35251D01*
X48441Y35271D01*
X48336Y35273D01*
X48233Y35257D01*
X48134Y35223D01*
X48043Y35172D01*
X47961Y35106D01*
X47893Y35028D01*
X47839Y34938D01*
X47802Y34840D01*
X47782Y34738D01*
X47780Y34633D01*
X47796Y34530D01*
X47830Y34431D01*
X47881Y34340D01*
X47947Y34258D01*
X48025Y34190D01*
X48115Y34136D01*
X48473Y33981D01*
X48843Y33859D01*
X49223Y33771D01*
X49610Y33718D01*
X50000Y33700D01*
X50389Y33718D01*
X50776Y33771D01*
X51156Y33859D01*
X51486Y33968D01*
Y27189D01*
X51430Y27170D01*
X51339Y27119D01*
X51257Y27053D01*
X51189Y26975D01*
X51135Y26885D01*
X50980Y26527D01*
X50858Y26157D01*
X50770Y25777D01*
X50717Y25390D01*
X50700Y25000D01*
X50717Y24611D01*
X50770Y24224D01*
X50858Y23844D01*
X50980Y23474D01*
X51135Y23116D01*
X51189Y23026D01*
X51257Y22948D01*
X51339Y22882D01*
X51430Y22831D01*
X51486Y22812D01*
Y16258D01*
G37*
G36*
Y0D02*X47514D01*
Y9510D01*
X47706Y9236D01*
X48236Y8706D01*
X48850Y8276D01*
X49529Y7959D01*
X50253Y7765D01*
X51000Y7700D01*
X51486Y7742D01*
Y0D01*
G37*
G36*
X47514Y175000D02*X50000D01*
Y155794D01*
X49850Y155724D01*
X49236Y155294D01*
X48706Y154764D01*
X48276Y154150D01*
X47959Y153471D01*
X47765Y152747D01*
X47700Y152000D01*
X47765Y151253D01*
X47959Y150529D01*
X48276Y149850D01*
X48706Y149236D01*
X49236Y148706D01*
X49850Y148276D01*
X50000Y148206D01*
Y145794D01*
X49850Y145724D01*
X49236Y145294D01*
X48706Y144764D01*
X48276Y144150D01*
X47959Y143471D01*
X47765Y142747D01*
X47700Y142000D01*
X47765Y141253D01*
X47959Y140529D01*
X48276Y139850D01*
X48706Y139236D01*
X49236Y138706D01*
X49850Y138276D01*
X50000Y138206D01*
Y126222D01*
X49607Y125947D01*
X49053Y125393D01*
X48603Y124750D01*
X48271Y124039D01*
X48068Y123281D01*
X48000Y122500D01*
X48068Y121719D01*
X48271Y120961D01*
X48603Y120250D01*
X49053Y119607D01*
X49607Y119053D01*
X50000Y118778D01*
Y96222D01*
X49607Y95947D01*
X49053Y95393D01*
X48603Y94750D01*
X48271Y94039D01*
X48068Y93281D01*
X48000Y92500D01*
X48068Y91719D01*
X48271Y90961D01*
X48603Y90250D01*
X49053Y89607D01*
X49607Y89053D01*
X50000Y88778D01*
Y85000D01*
X51486Y82474D01*
Y77950D01*
X51276Y77650D01*
X50959Y76971D01*
X50765Y76247D01*
X50700Y75500D01*
X50765Y74753D01*
X50959Y74029D01*
X51276Y73350D01*
X51486Y73050D01*
Y66565D01*
X51067Y66761D01*
X50343Y66955D01*
X49596Y67020D01*
X48849Y66955D01*
X48125Y66761D01*
X47514Y66476D01*
Y72031D01*
X47764Y72206D01*
X48294Y72736D01*
X48724Y73350D01*
X49041Y74029D01*
X49235Y74753D01*
X49300Y75500D01*
X49235Y76247D01*
X49041Y76971D01*
X48724Y77650D01*
X48294Y78264D01*
X47764Y78794D01*
X47514Y78969D01*
Y175000D01*
G37*
G36*
X46486Y71466D02*X47150Y71776D01*
X47514Y72031D01*
Y66476D01*
X47446Y66444D01*
X46832Y66014D01*
X46486Y65668D01*
Y71466D01*
G37*
G36*
X47514Y28469D02*X47150Y28724D01*
X46486Y29034D01*
Y35812D01*
X46529Y35797D01*
X46632Y35781D01*
X46737Y35783D01*
X46839Y35803D01*
X46937Y35840D01*
X47027Y35894D01*
X47105Y35962D01*
X47171Y36044D01*
X47222Y36135D01*
X47256Y36234D01*
X47272Y36337D01*
X47270Y36442D01*
X47250Y36544D01*
X47213Y36642D01*
X47102Y36900D01*
X47014Y37167D01*
X46950Y37441D01*
X46912Y37720D01*
X46900Y38000D01*
X46912Y38281D01*
X46950Y38560D01*
X47014Y38834D01*
X47102Y39101D01*
X47213Y39359D01*
X47250Y39457D01*
X47270Y39559D01*
X47272Y39664D01*
X47256Y39767D01*
X47222Y39866D01*
X47171Y39957D01*
X47105Y40039D01*
X47027Y40107D01*
X46937Y40161D01*
X46839Y40198D01*
X46737Y40218D01*
X46632Y40220D01*
X46529Y40204D01*
X46486Y40189D01*
Y59772D01*
X46832Y59426D01*
X47446Y58996D01*
X47514Y58964D01*
Y52189D01*
X47470Y52204D01*
X47367Y52220D01*
X47262Y52218D01*
X47160Y52198D01*
X47062Y52161D01*
X46972Y52107D01*
X46894Y52039D01*
X46828Y51957D01*
X46777Y51866D01*
X46743Y51767D01*
X46727Y51664D01*
X46729Y51559D01*
X46749Y51457D01*
X46786Y51359D01*
X46897Y51101D01*
X46985Y50834D01*
X47049Y50560D01*
X47087Y50281D01*
X47100Y50000D01*
X47087Y49720D01*
X47049Y49441D01*
X46985Y49167D01*
X46897Y48900D01*
X46786Y48642D01*
X46749Y48544D01*
X46729Y48442D01*
X46727Y48337D01*
X46743Y48234D01*
X46777Y48135D01*
X46828Y48044D01*
X46894Y47962D01*
X46972Y47894D01*
X47062Y47840D01*
X47160Y47803D01*
X47262Y47783D01*
X47367Y47781D01*
X47470Y47797D01*
X47514Y47812D01*
Y28469D01*
G37*
G36*
X46486Y29034D02*X46471Y29041D01*
X45747Y29235D01*
X45000Y29300D01*
X44253Y29235D01*
X44000Y29167D01*
Y36441D01*
X44041Y36529D01*
X44235Y37253D01*
X44300Y38000D01*
X44235Y38747D01*
X44041Y39471D01*
X44000Y39559D01*
Y45700D01*
X44389Y45718D01*
X44776Y45771D01*
X45156Y45859D01*
X45526Y45981D01*
X45884Y46136D01*
X45974Y46190D01*
X46052Y46258D01*
X46118Y46340D01*
X46169Y46431D01*
X46203Y46530D01*
X46219Y46633D01*
X46217Y46738D01*
X46197Y46840D01*
X46160Y46938D01*
X46106Y47028D01*
X46038Y47106D01*
X45956Y47172D01*
X45865Y47223D01*
X45766Y47257D01*
X45663Y47273D01*
X45558Y47271D01*
X45456Y47251D01*
X45358Y47214D01*
X45100Y47103D01*
X44833Y47015D01*
X44559Y46951D01*
X44280Y46913D01*
X44000Y46900D01*
Y53100D01*
X44280Y53088D01*
X44559Y53050D01*
X44833Y52986D01*
X45100Y52898D01*
X45358Y52787D01*
X45456Y52750D01*
X45558Y52730D01*
X45663Y52728D01*
X45766Y52744D01*
X45865Y52778D01*
X45956Y52829D01*
X46038Y52895D01*
X46106Y52973D01*
X46160Y53063D01*
X46197Y53161D01*
X46217Y53263D01*
X46219Y53368D01*
X46203Y53471D01*
X46169Y53570D01*
X46118Y53661D01*
X46052Y53743D01*
X45974Y53811D01*
X45884Y53865D01*
X45526Y54020D01*
X45156Y54142D01*
X44776Y54230D01*
X44389Y54283D01*
X44000Y54300D01*
Y71333D01*
X44253Y71265D01*
X45000Y71200D01*
X45747Y71265D01*
X46471Y71459D01*
X46486Y71466D01*
Y65668D01*
X46302Y65484D01*
X45872Y64870D01*
X45555Y64191D01*
X45361Y63467D01*
X45296Y62720D01*
X45361Y61973D01*
X45555Y61249D01*
X45872Y60570D01*
X46302Y59956D01*
X46486Y59772D01*
Y40189D01*
X46430Y40170D01*
X46339Y40119D01*
X46257Y40053D01*
X46189Y39975D01*
X46135Y39885D01*
X45980Y39527D01*
X45858Y39157D01*
X45770Y38777D01*
X45717Y38390D01*
X45700Y38000D01*
X45717Y37611D01*
X45770Y37224D01*
X45858Y36844D01*
X45980Y36474D01*
X46135Y36116D01*
X46189Y36026D01*
X46257Y35948D01*
X46339Y35882D01*
X46430Y35831D01*
X46486Y35812D01*
Y29034D01*
G37*
G36*
X47514Y0D02*X44000D01*
Y20833D01*
X44253Y20765D01*
X45000Y20700D01*
X45747Y20765D01*
X46471Y20959D01*
X47150Y21276D01*
X47514Y21531D01*
Y14490D01*
X47276Y14150D01*
X46959Y13471D01*
X46765Y12747D01*
X46700Y12000D01*
X46765Y11253D01*
X46959Y10529D01*
X47276Y9850D01*
X47514Y9510D01*
Y0D01*
G37*
G36*
X45514Y175000D02*X47514D01*
Y78969D01*
X47150Y79224D01*
X46471Y79541D01*
X45747Y79735D01*
X45514Y79755D01*
Y89174D01*
X45947Y89607D01*
X46397Y90250D01*
X46729Y90961D01*
X46932Y91719D01*
X47000Y92500D01*
X46932Y93281D01*
X46729Y94039D01*
X46397Y94750D01*
X45947Y95393D01*
X45514Y95826D01*
Y119174D01*
X45947Y119607D01*
X46397Y120250D01*
X46729Y120961D01*
X46932Y121719D01*
X47000Y122500D01*
X46932Y123281D01*
X46729Y124039D01*
X46397Y124750D01*
X45947Y125393D01*
X45514Y125826D01*
Y137774D01*
X45700Y137861D01*
X45871Y137981D01*
X46019Y138129D01*
X46139Y138300D01*
X46228Y138490D01*
X46282Y138692D01*
X46300Y138900D01*
Y145100D01*
X46282Y145308D01*
X46228Y145510D01*
X46139Y145700D01*
X46019Y145871D01*
X45871Y146019D01*
X45700Y146139D01*
X45514Y146226D01*
Y149812D01*
X45569Y149831D01*
X45660Y149882D01*
X45742Y149948D01*
X45810Y150026D01*
X45864Y150116D01*
X46019Y150474D01*
X46141Y150844D01*
X46229Y151224D01*
X46282Y151611D01*
X46300Y152001D01*
X46282Y152390D01*
X46229Y152777D01*
X46141Y153157D01*
X46019Y153527D01*
X45864Y153885D01*
X45810Y153975D01*
X45742Y154053D01*
X45660Y154119D01*
X45569Y154170D01*
X45514Y154189D01*
Y175000D01*
G37*
G36*
Y125826D02*X45393Y125947D01*
X44750Y126397D01*
X44039Y126729D01*
X44000Y126739D01*
Y137700D01*
X45100D01*
X45308Y137718D01*
X45510Y137772D01*
X45514Y137774D01*
Y125826D01*
G37*
G36*
Y95826D02*X45393Y95947D01*
X44750Y96397D01*
X44039Y96729D01*
X44000Y96739D01*
Y118261D01*
X44039Y118271D01*
X44750Y118603D01*
X45393Y119053D01*
X45514Y119174D01*
Y95826D01*
G37*
G36*
Y79755D02*X45000Y79800D01*
X44253Y79735D01*
X44000Y79667D01*
Y88261D01*
X44039Y88271D01*
X44750Y88603D01*
X45393Y89053D01*
X45514Y89174D01*
Y79755D01*
G37*
G36*
X44000Y175000D02*X45514D01*
Y154189D01*
X45470Y154204D01*
X45367Y154220D01*
X45262Y154218D01*
X45160Y154198D01*
X45062Y154161D01*
X44972Y154107D01*
X44894Y154039D01*
X44828Y153957D01*
X44777Y153866D01*
X44743Y153767D01*
X44727Y153664D01*
X44729Y153559D01*
X44749Y153457D01*
X44786Y153359D01*
X44897Y153101D01*
X44985Y152834D01*
X45049Y152560D01*
X45087Y152281D01*
X45100Y152000D01*
X45087Y151720D01*
X45049Y151441D01*
X44985Y151167D01*
X44897Y150900D01*
X44786Y150642D01*
X44749Y150544D01*
X44729Y150442D01*
X44727Y150337D01*
X44743Y150234D01*
X44777Y150135D01*
X44828Y150044D01*
X44894Y149962D01*
X44972Y149894D01*
X45062Y149840D01*
X45160Y149803D01*
X45262Y149783D01*
X45367Y149781D01*
X45470Y149797D01*
X45514Y149812D01*
Y146226D01*
X45510Y146228D01*
X45308Y146282D01*
X45100Y146300D01*
X44000D01*
Y148213D01*
X44052Y148258D01*
X44118Y148340D01*
X44169Y148431D01*
X44203Y148530D01*
X44219Y148633D01*
X44217Y148738D01*
X44197Y148840D01*
X44160Y148938D01*
X44106Y149028D01*
X44038Y149106D01*
X44000Y149137D01*
Y154864D01*
X44038Y154895D01*
X44106Y154973D01*
X44160Y155063D01*
X44197Y155161D01*
X44217Y155263D01*
X44219Y155368D01*
X44203Y155471D01*
X44169Y155570D01*
X44118Y155661D01*
X44052Y155743D01*
X44000Y155788D01*
Y175000D01*
G37*
G36*
Y149137D02*X43956Y149172D01*
X43865Y149223D01*
X43766Y149257D01*
X43663Y149273D01*
X43558Y149271D01*
X43456Y149251D01*
X43358Y149214D01*
X43100Y149103D01*
X42833Y149015D01*
X42559Y148951D01*
X42280Y148913D01*
X42000Y148900D01*
X41719Y148913D01*
X41440Y148951D01*
X41166Y149015D01*
X40899Y149103D01*
X40641Y149214D01*
X40543Y149251D01*
X40486Y149262D01*
Y154739D01*
X40543Y154750D01*
X40641Y154787D01*
X40899Y154898D01*
X41166Y154986D01*
X41440Y155050D01*
X41719Y155088D01*
X42000Y155100D01*
X42280Y155088D01*
X42559Y155050D01*
X42833Y154986D01*
X43100Y154898D01*
X43358Y154787D01*
X43456Y154750D01*
X43558Y154730D01*
X43663Y154728D01*
X43766Y154744D01*
X43865Y154778D01*
X43956Y154829D01*
X44000Y154864D01*
Y149137D01*
G37*
G36*
Y146300D02*X40486D01*
Y147977D01*
X40843Y147859D01*
X41223Y147771D01*
X41610Y147718D01*
X42000Y147700D01*
X42389Y147718D01*
X42776Y147771D01*
X43156Y147859D01*
X43526Y147981D01*
X43884Y148136D01*
X43974Y148190D01*
X44000Y148213D01*
Y146300D01*
G37*
G36*
Y126739D02*X43281Y126932D01*
X42500Y127000D01*
X41719Y126932D01*
X40961Y126729D01*
X40486Y126507D01*
Y137700D01*
X44000D01*
Y126739D01*
G37*
G36*
Y96739D02*X43281Y96932D01*
X42500Y97000D01*
X41719Y96932D01*
X40961Y96729D01*
X40486Y96507D01*
Y118493D01*
X40961Y118271D01*
X41719Y118068D01*
X42500Y118000D01*
X43281Y118068D01*
X44000Y118261D01*
Y96739D01*
G37*
G36*
X43110Y52968D02*X43166Y52986D01*
X43440Y53050D01*
X43719Y53088D01*
X44000Y53100D01*
Y46900D01*
X43719Y46913D01*
X43440Y46951D01*
X43166Y47015D01*
X43110Y47033D01*
Y52968D01*
G37*
G36*
Y71655D02*X43529Y71459D01*
X44000Y71333D01*
Y54300D01*
X43610Y54283D01*
X43223Y54230D01*
X43110Y54204D01*
Y60532D01*
X43165Y60551D01*
X43256Y60602D01*
X43338Y60668D01*
X43406Y60746D01*
X43460Y60836D01*
X43615Y61194D01*
X43737Y61564D01*
X43825Y61944D01*
X43878Y62331D01*
X43896Y62720D01*
X43878Y63110D01*
X43825Y63497D01*
X43737Y63877D01*
X43615Y64247D01*
X43460Y64605D01*
X43406Y64695D01*
X43338Y64773D01*
X43256Y64839D01*
X43165Y64890D01*
X43110Y64909D01*
Y71655D01*
G37*
G36*
Y88053D02*X43281Y88068D01*
X44000Y88261D01*
Y79667D01*
X43529Y79541D01*
X43110Y79345D01*
Y88053D01*
G37*
G36*
X44000Y39559D02*X43724Y40150D01*
X43294Y40764D01*
X43110Y40948D01*
Y45797D01*
X43223Y45771D01*
X43610Y45718D01*
X44000Y45700D01*
Y39559D01*
G37*
G36*
X43110Y40948D02*X42764Y41294D01*
X42150Y41724D01*
X41471Y42041D01*
X40747Y42235D01*
X40486Y42258D01*
Y47812D01*
X40529Y47797D01*
X40632Y47781D01*
X40737Y47783D01*
X40839Y47803D01*
X40937Y47840D01*
X41027Y47894D01*
X41105Y47962D01*
X41171Y48044D01*
X41222Y48135D01*
X41256Y48234D01*
X41272Y48337D01*
X41270Y48442D01*
X41250Y48544D01*
X41213Y48642D01*
X41102Y48900D01*
X41014Y49167D01*
X40950Y49441D01*
X40912Y49720D01*
X40900Y50000D01*
X40912Y50281D01*
X40950Y50560D01*
X41014Y50834D01*
X41102Y51101D01*
X41213Y51359D01*
X41250Y51457D01*
X41270Y51559D01*
X41272Y51664D01*
X41256Y51767D01*
X41222Y51866D01*
X41171Y51957D01*
X41105Y52039D01*
X41027Y52107D01*
X40937Y52161D01*
X40839Y52198D01*
X40737Y52218D01*
X40632Y52220D01*
X40529Y52204D01*
X40486Y52189D01*
Y58517D01*
X40752Y58579D01*
X41122Y58701D01*
X41480Y58856D01*
X41570Y58910D01*
X41648Y58978D01*
X41714Y59060D01*
X41765Y59151D01*
X41799Y59250D01*
X41815Y59353D01*
X41813Y59458D01*
X41793Y59560D01*
X41756Y59658D01*
X41702Y59748D01*
X41634Y59826D01*
X41552Y59892D01*
X41461Y59943D01*
X41362Y59977D01*
X41259Y59993D01*
X41154Y59991D01*
X41052Y59971D01*
X40954Y59934D01*
X40696Y59823D01*
X40486Y59754D01*
Y65687D01*
X40696Y65618D01*
X40954Y65507D01*
X41052Y65470D01*
X41154Y65450D01*
X41259Y65448D01*
X41362Y65464D01*
X41461Y65498D01*
X41552Y65549D01*
X41634Y65615D01*
X41702Y65693D01*
X41756Y65783D01*
X41793Y65881D01*
X41813Y65983D01*
X41815Y66088D01*
X41799Y66191D01*
X41765Y66290D01*
X41714Y66381D01*
X41648Y66463D01*
X41570Y66531D01*
X41480Y66585D01*
X41122Y66740D01*
X40752Y66862D01*
X40486Y66924D01*
Y88493D01*
X40961Y88271D01*
X41719Y88068D01*
X42500Y88000D01*
X43110Y88053D01*
Y79345D01*
X42850Y79224D01*
X42236Y78794D01*
X41706Y78264D01*
X41276Y77650D01*
X40959Y76971D01*
X40765Y76247D01*
X40700Y75500D01*
X40765Y74753D01*
X40959Y74029D01*
X41276Y73350D01*
X41706Y72736D01*
X42236Y72206D01*
X42850Y71776D01*
X43110Y71655D01*
Y64909D01*
X43066Y64924D01*
X42963Y64940D01*
X42858Y64938D01*
X42756Y64918D01*
X42658Y64881D01*
X42568Y64827D01*
X42490Y64759D01*
X42424Y64677D01*
X42373Y64586D01*
X42339Y64487D01*
X42323Y64384D01*
X42325Y64279D01*
X42345Y64177D01*
X42382Y64079D01*
X42493Y63821D01*
X42581Y63554D01*
X42645Y63280D01*
X42683Y63001D01*
X42696Y62720D01*
X42683Y62440D01*
X42645Y62161D01*
X42581Y61887D01*
X42493Y61620D01*
X42382Y61362D01*
X42345Y61264D01*
X42325Y61162D01*
X42323Y61057D01*
X42339Y60954D01*
X42373Y60855D01*
X42424Y60764D01*
X42490Y60682D01*
X42568Y60614D01*
X42658Y60560D01*
X42756Y60523D01*
X42858Y60503D01*
X42963Y60501D01*
X43066Y60517D01*
X43110Y60532D01*
Y54204D01*
X42843Y54142D01*
X42473Y54020D01*
X42115Y53865D01*
X42025Y53811D01*
X41947Y53743D01*
X41881Y53661D01*
X41830Y53570D01*
X41796Y53471D01*
X41780Y53368D01*
X41782Y53263D01*
X41802Y53161D01*
X41839Y53063D01*
X41893Y52973D01*
X41961Y52895D01*
X42043Y52829D01*
X42134Y52778D01*
X42233Y52744D01*
X42336Y52728D01*
X42441Y52730D01*
X42543Y52750D01*
X42641Y52787D01*
X42899Y52898D01*
X43110Y52968D01*
Y47033D01*
X42899Y47103D01*
X42641Y47214D01*
X42543Y47251D01*
X42441Y47271D01*
X42336Y47273D01*
X42233Y47257D01*
X42134Y47223D01*
X42043Y47172D01*
X41961Y47106D01*
X41893Y47028D01*
X41839Y46938D01*
X41802Y46840D01*
X41782Y46738D01*
X41780Y46633D01*
X41796Y46530D01*
X41830Y46431D01*
X41881Y46340D01*
X41947Y46258D01*
X42025Y46190D01*
X42115Y46136D01*
X42473Y45981D01*
X42843Y45859D01*
X43110Y45797D01*
Y40948D01*
G37*
G36*
X44000Y0D02*X40486D01*
Y33742D01*
X40747Y33765D01*
X41471Y33959D01*
X42150Y34276D01*
X42764Y34706D01*
X43294Y35236D01*
X43724Y35850D01*
X44000Y36441D01*
Y29167D01*
X43529Y29041D01*
X42850Y28724D01*
X42236Y28294D01*
X41706Y27764D01*
X41276Y27150D01*
X40959Y26471D01*
X40765Y25747D01*
X40700Y25000D01*
X40765Y24253D01*
X40959Y23529D01*
X41276Y22850D01*
X41706Y22236D01*
X42236Y21706D01*
X42850Y21276D01*
X43529Y20959D01*
X44000Y20833D01*
Y0D01*
G37*
G36*
X40486Y175000D02*X44000D01*
Y155788D01*
X43974Y155811D01*
X43884Y155865D01*
X43526Y156020D01*
X43156Y156142D01*
X42776Y156230D01*
X42389Y156283D01*
X42000Y156300D01*
X41610Y156283D01*
X41223Y156230D01*
X40843Y156142D01*
X40486Y156024D01*
Y175000D01*
G37*
G36*
X36082Y36266D02*X36276Y35850D01*
X36706Y35236D01*
X37236Y34706D01*
X37850Y34276D01*
X38529Y33959D01*
X39253Y33765D01*
X40000Y33700D01*
X40486Y33742D01*
Y0D01*
X36082D01*
Y36266D01*
G37*
G36*
X38486Y58568D02*X38819Y58491D01*
X39206Y58438D01*
X39596Y58420D01*
X39985Y58438D01*
X40372Y58491D01*
X40486Y58517D01*
Y52189D01*
X40430Y52170D01*
X40339Y52119D01*
X40257Y52053D01*
X40189Y51975D01*
X40135Y51885D01*
X39980Y51527D01*
X39858Y51157D01*
X39770Y50777D01*
X39717Y50390D01*
X39700Y50000D01*
X39717Y49611D01*
X39770Y49224D01*
X39858Y48844D01*
X39980Y48474D01*
X40135Y48116D01*
X40189Y48026D01*
X40257Y47948D01*
X40339Y47882D01*
X40430Y47831D01*
X40486Y47812D01*
Y42258D01*
X40000Y42300D01*
X39253Y42235D01*
X38529Y42041D01*
X38486Y42021D01*
Y58568D01*
G37*
G36*
Y65614D02*X38495Y65618D01*
X38762Y65706D01*
X39036Y65770D01*
X39315Y65808D01*
X39596Y65820D01*
X39876Y65808D01*
X40155Y65770D01*
X40429Y65706D01*
X40486Y65687D01*
Y59754D01*
X40429Y59735D01*
X40155Y59671D01*
X39876Y59633D01*
X39596Y59620D01*
X39315Y59633D01*
X39036Y59671D01*
X38762Y59735D01*
X38495Y59823D01*
X38486Y59827D01*
Y65614D01*
G37*
G36*
Y90501D02*X38603Y90250D01*
X39053Y89607D01*
X39607Y89053D01*
X40250Y88603D01*
X40486Y88493D01*
Y66924D01*
X40372Y66950D01*
X39985Y67003D01*
X39596Y67020D01*
X39206Y67003D01*
X38819Y66950D01*
X38486Y66873D01*
Y73302D01*
X38569Y73331D01*
X38660Y73382D01*
X38742Y73448D01*
X38810Y73526D01*
X38864Y73616D01*
X39019Y73974D01*
X39141Y74344D01*
X39229Y74724D01*
X39282Y75111D01*
X39300Y75500D01*
X39282Y75890D01*
X39229Y76277D01*
X39141Y76657D01*
X39019Y77027D01*
X38864Y77385D01*
X38810Y77475D01*
X38742Y77553D01*
X38660Y77619D01*
X38569Y77670D01*
X38486Y77699D01*
Y90501D01*
G37*
G36*
Y120501D02*X38603Y120250D01*
X39053Y119607D01*
X39607Y119053D01*
X40250Y118603D01*
X40486Y118493D01*
Y96507D01*
X40250Y96397D01*
X39607Y95947D01*
X39053Y95393D01*
X38603Y94750D01*
X38486Y94499D01*
Y120501D01*
G37*
G36*
Y137774D02*X38490Y137772D01*
X38692Y137718D01*
X38900Y137700D01*
X40486D01*
Y126507D01*
X40250Y126397D01*
X39607Y125947D01*
X39053Y125393D01*
X38603Y124750D01*
X38486Y124499D01*
Y137774D01*
G37*
G36*
Y175000D02*X40486D01*
Y156024D01*
X40473Y156020D01*
X40115Y155865D01*
X40025Y155811D01*
X39947Y155743D01*
X39881Y155661D01*
X39830Y155570D01*
X39796Y155471D01*
X39780Y155368D01*
X39782Y155263D01*
X39802Y155161D01*
X39839Y155063D01*
X39893Y154973D01*
X39961Y154895D01*
X40043Y154829D01*
X40134Y154778D01*
X40233Y154744D01*
X40336Y154728D01*
X40441Y154730D01*
X40486Y154739D01*
Y149262D01*
X40441Y149271D01*
X40336Y149273D01*
X40233Y149257D01*
X40134Y149223D01*
X40043Y149172D01*
X39961Y149106D01*
X39893Y149028D01*
X39839Y148938D01*
X39802Y148840D01*
X39782Y148738D01*
X39780Y148633D01*
X39796Y148530D01*
X39830Y148431D01*
X39881Y148340D01*
X39947Y148258D01*
X40025Y148190D01*
X40115Y148136D01*
X40473Y147981D01*
X40486Y147977D01*
Y146300D01*
X38900D01*
X38692Y146282D01*
X38490Y146228D01*
X38486Y146226D01*
Y149812D01*
X38529Y149797D01*
X38632Y149781D01*
X38737Y149783D01*
X38839Y149803D01*
X38937Y149840D01*
X39027Y149894D01*
X39105Y149962D01*
X39171Y150044D01*
X39222Y150135D01*
X39256Y150234D01*
X39272Y150337D01*
X39270Y150442D01*
X39250Y150544D01*
X39213Y150642D01*
X39102Y150900D01*
X39014Y151167D01*
X38950Y151441D01*
X38912Y151720D01*
X38900Y152001D01*
X38912Y152281D01*
X38950Y152560D01*
X39014Y152834D01*
X39102Y153101D01*
X39213Y153359D01*
X39250Y153457D01*
X39270Y153559D01*
X39272Y153664D01*
X39256Y153767D01*
X39222Y153866D01*
X39171Y153957D01*
X39105Y154039D01*
X39027Y154107D01*
X38937Y154161D01*
X38839Y154198D01*
X38737Y154218D01*
X38632Y154220D01*
X38529Y154204D01*
X38486Y154189D01*
Y175000D01*
G37*
G36*
X36082D02*X38486D01*
Y154189D01*
X38430Y154170D01*
X38339Y154119D01*
X38257Y154053D01*
X38189Y153975D01*
X38135Y153885D01*
X37980Y153527D01*
X37858Y153157D01*
X37770Y152777D01*
X37717Y152390D01*
X37700Y152000D01*
X37717Y151611D01*
X37770Y151224D01*
X37858Y150844D01*
X37980Y150474D01*
X38135Y150116D01*
X38189Y150026D01*
X38257Y149948D01*
X38339Y149882D01*
X38430Y149831D01*
X38486Y149812D01*
Y146226D01*
X38300Y146139D01*
X38129Y146019D01*
X37981Y145871D01*
X37861Y145700D01*
X37772Y145510D01*
X37718Y145308D01*
X37700Y145100D01*
Y138900D01*
X37718Y138692D01*
X37772Y138490D01*
X37861Y138300D01*
X37981Y138129D01*
X38129Y137981D01*
X38300Y137861D01*
X38486Y137774D01*
Y124499D01*
X38271Y124039D01*
X38068Y123281D01*
X38000Y122500D01*
X38068Y121719D01*
X38271Y120961D01*
X38486Y120501D01*
Y94499D01*
X38271Y94039D01*
X38068Y93281D01*
X38000Y92500D01*
X38068Y91719D01*
X38271Y90961D01*
X38486Y90501D01*
Y77699D01*
X38470Y77704D01*
X38367Y77720D01*
X38262Y77718D01*
X38160Y77698D01*
X38062Y77661D01*
X37972Y77607D01*
X37894Y77539D01*
X37828Y77457D01*
X37777Y77366D01*
X37743Y77267D01*
X37727Y77164D01*
X37729Y77059D01*
X37749Y76957D01*
X37786Y76859D01*
X37897Y76601D01*
X37985Y76334D01*
X38049Y76060D01*
X38087Y75781D01*
X38100Y75500D01*
X38087Y75220D01*
X38049Y74941D01*
X37985Y74667D01*
X37897Y74400D01*
X37786Y74142D01*
X37749Y74044D01*
X37729Y73942D01*
X37727Y73837D01*
X37743Y73734D01*
X37777Y73635D01*
X37828Y73544D01*
X37894Y73462D01*
X37972Y73394D01*
X38062Y73340D01*
X38160Y73303D01*
X38262Y73283D01*
X38367Y73281D01*
X38470Y73297D01*
X38486Y73302D01*
Y66873D01*
X38439Y66862D01*
X38069Y66740D01*
X37711Y66585D01*
X37621Y66531D01*
X37543Y66463D01*
X37477Y66381D01*
X37426Y66290D01*
X37392Y66191D01*
X37376Y66088D01*
X37378Y65983D01*
X37398Y65881D01*
X37435Y65783D01*
X37489Y65693D01*
X37557Y65615D01*
X37639Y65549D01*
X37730Y65498D01*
X37829Y65464D01*
X37932Y65448D01*
X38037Y65450D01*
X38139Y65470D01*
X38237Y65507D01*
X38486Y65614D01*
Y59827D01*
X38237Y59934D01*
X38139Y59971D01*
X38037Y59991D01*
X37932Y59993D01*
X37829Y59977D01*
X37730Y59943D01*
X37639Y59892D01*
X37557Y59826D01*
X37489Y59748D01*
X37435Y59658D01*
X37398Y59560D01*
X37378Y59458D01*
X37376Y59353D01*
X37392Y59250D01*
X37426Y59151D01*
X37477Y59060D01*
X37543Y58978D01*
X37621Y58910D01*
X37711Y58856D01*
X38069Y58701D01*
X38439Y58579D01*
X38486Y58568D01*
Y42021D01*
X37850Y41724D01*
X37236Y41294D01*
X36706Y40764D01*
X36276Y40150D01*
X36082Y39734D01*
Y46244D01*
X36150Y46276D01*
X36764Y46706D01*
X37294Y47236D01*
X37724Y47850D01*
X38041Y48529D01*
X38235Y49253D01*
X38300Y50000D01*
X38235Y50747D01*
X38041Y51471D01*
X37724Y52150D01*
X37294Y52764D01*
X36764Y53294D01*
X36150Y53724D01*
X36082Y53756D01*
Y60532D01*
X36125Y60517D01*
X36228Y60501D01*
X36333Y60503D01*
X36435Y60523D01*
X36533Y60560D01*
X36623Y60614D01*
X36701Y60682D01*
X36767Y60764D01*
X36818Y60855D01*
X36852Y60954D01*
X36868Y61057D01*
X36866Y61162D01*
X36846Y61264D01*
X36809Y61362D01*
X36698Y61620D01*
X36610Y61887D01*
X36546Y62161D01*
X36508Y62440D01*
X36496Y62720D01*
X36508Y63001D01*
X36546Y63280D01*
X36610Y63554D01*
X36698Y63821D01*
X36809Y64079D01*
X36846Y64177D01*
X36866Y64279D01*
X36868Y64384D01*
X36852Y64487D01*
X36818Y64586D01*
X36767Y64677D01*
X36701Y64759D01*
X36623Y64827D01*
X36533Y64881D01*
X36435Y64918D01*
X36333Y64938D01*
X36228Y64940D01*
X36125Y64924D01*
X36082Y64909D01*
Y71342D01*
X36156Y71359D01*
X36526Y71481D01*
X36884Y71636D01*
X36974Y71690D01*
X37052Y71758D01*
X37118Y71840D01*
X37169Y71931D01*
X37203Y72030D01*
X37219Y72133D01*
X37217Y72238D01*
X37197Y72340D01*
X37160Y72438D01*
X37106Y72528D01*
X37038Y72606D01*
X36956Y72672D01*
X36865Y72723D01*
X36766Y72757D01*
X36663Y72773D01*
X36558Y72771D01*
X36456Y72751D01*
X36358Y72714D01*
X36100Y72603D01*
X36082Y72597D01*
Y78404D01*
X36100Y78398D01*
X36358Y78287D01*
X36456Y78250D01*
X36558Y78230D01*
X36663Y78228D01*
X36766Y78244D01*
X36865Y78278D01*
X36956Y78329D01*
X37038Y78395D01*
X37106Y78473D01*
X37160Y78563D01*
X37197Y78661D01*
X37217Y78763D01*
X37219Y78868D01*
X37203Y78971D01*
X37169Y79070D01*
X37118Y79161D01*
X37052Y79243D01*
X36974Y79311D01*
X36884Y79365D01*
X36526Y79520D01*
X36156Y79642D01*
X36082Y79659D01*
Y89800D01*
X36397Y90250D01*
X36729Y90961D01*
X36932Y91719D01*
X37000Y92500D01*
X36932Y93281D01*
X36729Y94039D01*
X36397Y94750D01*
X36082Y95200D01*
Y119800D01*
X36397Y120250D01*
X36729Y120961D01*
X36932Y121719D01*
X37000Y122500D01*
X36932Y123281D01*
X36729Y124039D01*
X36397Y124750D01*
X36082Y125200D01*
Y175000D01*
G37*
G36*
Y95200D02*X35947Y95393D01*
X35393Y95947D01*
X34750Y96397D01*
X34039Y96729D01*
X34000Y96739D01*
Y118261D01*
X34039Y118271D01*
X34750Y118603D01*
X35393Y119053D01*
X35947Y119607D01*
X36082Y119800D01*
Y95200D01*
G37*
G36*
Y79659D02*X35776Y79730D01*
X35389Y79783D01*
X35000Y79800D01*
X34610Y79783D01*
X34223Y79730D01*
X34000Y79678D01*
Y88261D01*
X34039Y88271D01*
X34750Y88603D01*
X35393Y89053D01*
X35947Y89607D01*
X36082Y89800D01*
Y79659D01*
G37*
G36*
Y72597D02*X35833Y72515D01*
X35559Y72451D01*
X35280Y72413D01*
X35000Y72400D01*
X34719Y72413D01*
X34440Y72451D01*
X34166Y72515D01*
X34000Y72570D01*
Y78431D01*
X34166Y78486D01*
X34440Y78550D01*
X34719Y78588D01*
X35000Y78600D01*
X35280Y78588D01*
X35559Y78550D01*
X35833Y78486D01*
X36082Y78404D01*
Y72597D01*
G37*
G36*
Y53756D02*X35471Y54041D01*
X34747Y54235D01*
X34000Y54300D01*
Y71323D01*
X34223Y71271D01*
X34610Y71218D01*
X35000Y71200D01*
X35389Y71218D01*
X35776Y71271D01*
X36082Y71342D01*
Y64909D01*
X36026Y64890D01*
X35935Y64839D01*
X35853Y64773D01*
X35785Y64695D01*
X35731Y64605D01*
X35576Y64247D01*
X35454Y63877D01*
X35366Y63497D01*
X35313Y63110D01*
X35296Y62720D01*
X35313Y62331D01*
X35366Y61944D01*
X35454Y61564D01*
X35576Y61194D01*
X35731Y60836D01*
X35785Y60746D01*
X35853Y60668D01*
X35935Y60602D01*
X36026Y60551D01*
X36082Y60532D01*
Y53756D01*
G37*
G36*
Y39734D02*X35959Y39471D01*
X35765Y38747D01*
X35700Y38000D01*
X35765Y37253D01*
X35959Y36529D01*
X36082Y36266D01*
Y0D01*
X34000D01*
Y45700D01*
X34747Y45765D01*
X35471Y45959D01*
X36082Y46244D01*
Y39734D01*
G37*
G36*
X34000Y175000D02*X36082D01*
Y125200D01*
X35947Y125393D01*
X35393Y125947D01*
X34750Y126397D01*
X34039Y126729D01*
X34000Y126739D01*
Y175000D01*
G37*
G36*
X31486Y46531D02*X31850Y46276D01*
X32529Y45959D01*
X33253Y45765D01*
X34000Y45700D01*
Y0D01*
X31486D01*
Y46531D01*
G37*
G36*
Y88130D02*X31719Y88068D01*
X32500Y88000D01*
X33281Y88068D01*
X34000Y88261D01*
Y79678D01*
X33843Y79642D01*
X33473Y79520D01*
X33115Y79365D01*
X33025Y79311D01*
X32947Y79243D01*
X32881Y79161D01*
X32830Y79070D01*
X32796Y78971D01*
X32780Y78868D01*
X32782Y78763D01*
X32802Y78661D01*
X32839Y78563D01*
X32893Y78473D01*
X32961Y78395D01*
X33043Y78329D01*
X33134Y78278D01*
X33233Y78244D01*
X33336Y78228D01*
X33441Y78230D01*
X33543Y78250D01*
X33641Y78287D01*
X33899Y78398D01*
X34000Y78431D01*
Y72570D01*
X33899Y72603D01*
X33641Y72714D01*
X33543Y72751D01*
X33441Y72771D01*
X33336Y72773D01*
X33233Y72757D01*
X33134Y72723D01*
X33043Y72672D01*
X32961Y72606D01*
X32893Y72528D01*
X32839Y72438D01*
X32802Y72340D01*
X32782Y72238D01*
X32780Y72133D01*
X32796Y72030D01*
X32830Y71931D01*
X32881Y71840D01*
X32947Y71758D01*
X33025Y71690D01*
X33115Y71636D01*
X33473Y71481D01*
X33843Y71359D01*
X34000Y71323D01*
Y54300D01*
X33253Y54235D01*
X32529Y54041D01*
X31850Y53724D01*
X31486Y53469D01*
Y58875D01*
X31746Y58996D01*
X32360Y59426D01*
X32890Y59956D01*
X33320Y60570D01*
X33637Y61249D01*
X33831Y61973D01*
X33896Y62720D01*
X33831Y63467D01*
X33637Y64191D01*
X33320Y64870D01*
X32890Y65484D01*
X32360Y66014D01*
X31746Y66444D01*
X31486Y66565D01*
Y73312D01*
X31529Y73297D01*
X31632Y73281D01*
X31737Y73283D01*
X31839Y73303D01*
X31937Y73340D01*
X32027Y73394D01*
X32105Y73462D01*
X32171Y73544D01*
X32222Y73635D01*
X32256Y73734D01*
X32272Y73837D01*
X32270Y73942D01*
X32250Y74044D01*
X32213Y74142D01*
X32102Y74400D01*
X32014Y74667D01*
X31950Y74941D01*
X31912Y75220D01*
X31900Y75500D01*
X31912Y75781D01*
X31950Y76060D01*
X32014Y76334D01*
X32102Y76601D01*
X32213Y76859D01*
X32250Y76957D01*
X32270Y77059D01*
X32272Y77164D01*
X32256Y77267D01*
X32222Y77366D01*
X32171Y77457D01*
X32105Y77539D01*
X32027Y77607D01*
X31937Y77661D01*
X31839Y77698D01*
X31737Y77718D01*
X31632Y77720D01*
X31529Y77704D01*
X31486Y77689D01*
Y88130D01*
G37*
G36*
Y53469D02*X31236Y53294D01*
X30706Y52764D01*
X30276Y52150D01*
X29959Y51471D01*
X29765Y50747D01*
X29700Y50000D01*
X29765Y49253D01*
X29959Y48529D01*
X30276Y47850D01*
X30706Y47236D01*
X31236Y46706D01*
X31486Y46531D01*
Y0D01*
X29596D01*
Y13818D01*
X29916Y14275D01*
X30759Y16084D01*
X31276Y18012D01*
X31450Y20000D01*
X31276Y21988D01*
X30759Y23916D01*
X29916Y25725D01*
X29596Y26182D01*
Y58420D01*
X30343Y58485D01*
X31067Y58679D01*
X31486Y58875D01*
Y53469D01*
G37*
G36*
X29596Y89064D02*X29607Y89053D01*
X30250Y88603D01*
X30961Y88271D01*
X31486Y88130D01*
Y77689D01*
X31430Y77670D01*
X31339Y77619D01*
X31257Y77553D01*
X31189Y77475D01*
X31135Y77385D01*
X30980Y77027D01*
X30858Y76657D01*
X30770Y76277D01*
X30717Y75890D01*
X30700Y75500D01*
X30717Y75111D01*
X30770Y74724D01*
X30858Y74344D01*
X30980Y73974D01*
X31135Y73616D01*
X31189Y73526D01*
X31257Y73448D01*
X31339Y73382D01*
X31430Y73331D01*
X31486Y73312D01*
Y66565D01*
X31067Y66761D01*
X30343Y66955D01*
X29596Y67020D01*
Y89064D01*
G37*
G36*
Y119064D02*X29607Y119053D01*
X30250Y118603D01*
X30961Y118271D01*
X31719Y118068D01*
X32500Y118000D01*
X33281Y118068D01*
X34000Y118261D01*
Y96739D01*
X33281Y96932D01*
X32500Y97000D01*
X31719Y96932D01*
X30961Y96729D01*
X30250Y96397D01*
X29607Y95947D01*
X29596Y95936D01*
Y119064D01*
G37*
G36*
Y175000D02*X34000D01*
Y126739D01*
X33281Y126932D01*
X32500Y127000D01*
X31719Y126932D01*
X30961Y126729D01*
X30250Y126397D01*
X29607Y125947D01*
X29596Y125936D01*
Y148818D01*
X29916Y149275D01*
X30759Y151084D01*
X31276Y153012D01*
X31450Y155000D01*
X31276Y156988D01*
X30759Y158916D01*
X29916Y160725D01*
X29596Y161182D01*
Y175000D01*
G37*
G36*
X22500Y8861D02*X23916Y9241D01*
X25725Y10084D01*
X27360Y11229D01*
X28771Y12640D01*
X29596Y13818D01*
Y0D01*
X22500D01*
Y8861D01*
G37*
G36*
Y143861D02*X23916Y144241D01*
X25725Y145084D01*
X27360Y146229D01*
X28771Y147640D01*
X29596Y148818D01*
Y125936D01*
X29053Y125393D01*
X28603Y124750D01*
X28271Y124039D01*
X28068Y123281D01*
X28000Y122500D01*
X28068Y121719D01*
X28271Y120961D01*
X28603Y120250D01*
X29053Y119607D01*
X29596Y119064D01*
Y95936D01*
X29053Y95393D01*
X28603Y94750D01*
X28271Y94039D01*
X28068Y93281D01*
X28000Y92500D01*
X28068Y91719D01*
X28271Y90961D01*
X28603Y90250D01*
X29053Y89607D01*
X29596Y89064D01*
Y67020D01*
X28849Y66955D01*
X28125Y66761D01*
X27446Y66444D01*
X26832Y66014D01*
X26302Y65484D01*
X25872Y64870D01*
X25555Y64191D01*
X25361Y63467D01*
X25296Y62720D01*
X25361Y61973D01*
X25555Y61249D01*
X25872Y60570D01*
X26302Y59956D01*
X26832Y59426D01*
X27446Y58996D01*
X28125Y58679D01*
X28849Y58485D01*
X29596Y58420D01*
Y26182D01*
X28771Y27360D01*
X27360Y28771D01*
X25725Y29916D01*
X23916Y30759D01*
X22500Y31139D01*
Y72021D01*
X22850Y71776D01*
X23529Y71459D01*
X24253Y71265D01*
X25000Y71200D01*
X25747Y71265D01*
X26471Y71459D01*
X27150Y71776D01*
X27764Y72206D01*
X28294Y72736D01*
X28724Y73350D01*
X29041Y74029D01*
X29235Y74753D01*
X29300Y75500D01*
X29235Y76247D01*
X29041Y76971D01*
X28724Y77650D01*
X28294Y78264D01*
X27764Y78794D01*
X27150Y79224D01*
X26471Y79541D01*
X25747Y79735D01*
X25000Y79800D01*
X24253Y79735D01*
X23529Y79541D01*
X22850Y79224D01*
X22500Y78979D01*
Y88000D01*
X23281Y88068D01*
X24039Y88271D01*
X24750Y88603D01*
X25393Y89053D01*
X25947Y89607D01*
X26397Y90250D01*
X26729Y90961D01*
X26932Y91719D01*
X27000Y92500D01*
X26932Y93281D01*
X26729Y94039D01*
X26397Y94750D01*
X25947Y95393D01*
X25393Y95947D01*
X24750Y96397D01*
X24039Y96729D01*
X23281Y96932D01*
X22500Y97000D01*
Y118000D01*
X23281Y118068D01*
X24039Y118271D01*
X24750Y118603D01*
X25393Y119053D01*
X25947Y119607D01*
X26397Y120250D01*
X26729Y120961D01*
X26932Y121719D01*
X27000Y122500D01*
X26932Y123281D01*
X26729Y124039D01*
X26397Y124750D01*
X25947Y125393D01*
X25393Y125947D01*
X24750Y126397D01*
X24039Y126729D01*
X23281Y126932D01*
X22500Y127000D01*
Y143861D01*
G37*
G36*
Y175000D02*X29596D01*
Y161182D01*
X28771Y162360D01*
X27360Y163771D01*
X25725Y164916D01*
X23916Y165759D01*
X22500Y166139D01*
Y175000D01*
G37*
G36*
X10000Y14455D02*X10084Y14275D01*
X11229Y12640D01*
X12640Y11229D01*
X14275Y10084D01*
X16084Y9241D01*
X18012Y8724D01*
X20000Y8550D01*
X21988Y8724D01*
X22500Y8861D01*
Y0D01*
X10000D01*
Y14455D01*
G37*
G36*
Y149455D02*X10084Y149275D01*
X11229Y147640D01*
X12640Y146229D01*
X14275Y145084D01*
X16084Y144241D01*
X18012Y143724D01*
X20000Y143550D01*
X21988Y143724D01*
X22500Y143861D01*
Y127000D01*
X21719Y126932D01*
X20961Y126729D01*
X20250Y126397D01*
X19607Y125947D01*
X19053Y125393D01*
X18603Y124750D01*
X18271Y124039D01*
X18068Y123281D01*
X18000Y122500D01*
X18068Y121719D01*
X18271Y120961D01*
X18603Y120250D01*
X19053Y119607D01*
X19607Y119053D01*
X20250Y118603D01*
X20961Y118271D01*
X21719Y118068D01*
X22500Y118000D01*
Y97000D01*
X21719Y96932D01*
X20961Y96729D01*
X20250Y96397D01*
X19607Y95947D01*
X19053Y95393D01*
X18603Y94750D01*
X18271Y94039D01*
X18068Y93281D01*
X18000Y92500D01*
X18068Y91719D01*
X18271Y90961D01*
X18603Y90250D01*
X19053Y89607D01*
X19607Y89053D01*
X20250Y88603D01*
X20961Y88271D01*
X21719Y88068D01*
X22500Y88000D01*
Y78979D01*
X22236Y78794D01*
X21706Y78264D01*
X21276Y77650D01*
X20959Y76971D01*
X20765Y76247D01*
X20700Y75500D01*
X20765Y74753D01*
X20959Y74029D01*
X21276Y73350D01*
X21706Y72736D01*
X22236Y72206D01*
X22500Y72021D01*
Y31139D01*
X21988Y31276D01*
X20000Y31450D01*
X18012Y31276D01*
X16084Y30759D01*
X14275Y29916D01*
X12640Y28771D01*
X11229Y27360D01*
X10084Y25725D01*
X10000Y25545D01*
Y44350D01*
X10634Y44405D01*
X11248Y44570D01*
X11825Y44839D01*
X12346Y45204D01*
X12796Y45654D01*
X13161Y46175D01*
X13430Y46752D01*
X13595Y47366D01*
X13650Y48000D01*
X13595Y48634D01*
X13430Y49248D01*
X13161Y49825D01*
X12796Y50346D01*
X12346Y50796D01*
X11825Y51161D01*
X11248Y51430D01*
X10634Y51595D01*
X10000Y51650D01*
Y149455D01*
G37*
G36*
Y175000D02*X22500D01*
Y166139D01*
X21988Y166276D01*
X20000Y166450D01*
X18012Y166276D01*
X16084Y165759D01*
X14275Y164916D01*
X12640Y163771D01*
X11229Y162360D01*
X10084Y160725D01*
X10000Y160545D01*
Y175000D01*
G37*
G36*
X0D02*X10000D01*
Y160545D01*
X9241Y158916D01*
X8724Y156988D01*
X8550Y155000D01*
X8724Y153012D01*
X9241Y151084D01*
X10000Y149455D01*
Y51650D01*
X9366Y51595D01*
X8752Y51430D01*
X8175Y51161D01*
X7654Y50796D01*
X7204Y50346D01*
X6839Y49825D01*
X6570Y49248D01*
X6405Y48634D01*
X6350Y48000D01*
X6405Y47366D01*
X6570Y46752D01*
X6839Y46175D01*
X7204Y45654D01*
X7654Y45204D01*
X8175Y44839D01*
X8752Y44570D01*
X9366Y44405D01*
X10000Y44350D01*
Y25545D01*
X9241Y23916D01*
X8724Y21988D01*
X8550Y20000D01*
X8724Y18012D01*
X9241Y16084D01*
X10000Y14455D01*
Y0D01*
X0D01*
Y175000D01*
G37*
G54D13*X62500Y122500D03*
X52500D03*
X42500D03*
X32500D03*
X22500D03*
Y92500D03*
X32500D03*
X42500D03*
X52500D03*
G54D14*G36*
X38900Y145100D02*Y138900D01*
X45100D01*
Y145100D01*
X38900D01*
G37*
G54D15*X52000Y142000D03*
X62000D03*
X42000Y152000D03*
X52000D03*
X62000D03*
G54D13*X122500Y122500D03*
X112500D03*
X102500D03*
X92500D03*
G54D14*G36*
X149500Y125500D02*Y119500D01*
X155500D01*
Y125500D01*
X149500D01*
G37*
G54D13*X142500Y122500D03*
X132500D03*
X82500D03*
G54D16*X92500Y135000D03*
G54D14*G36*
X108401Y145600D02*Y139400D01*
X114601D01*
Y145600D01*
X108401D01*
G37*
G54D15*X121501Y142500D03*
X131501D03*
G54D16*X82500Y135000D03*
G54D17*X92500Y150000D03*
X84626D03*
G54D15*X111501Y152500D03*
X121501D03*
X131501D03*
G54D13*X72500Y122500D03*
X62500Y92500D03*
X72500D03*
X82500D03*
G54D17*X77500Y72500D03*
G54D15*X55000Y75500D03*
X45000D03*
X35000D03*
X25000D03*
G54D13*X92500Y92500D03*
X102500D03*
X112500D03*
X122500D03*
G54D14*G36*
X92000Y43000D02*Y37000D01*
X98000D01*
Y43000D01*
X92000D01*
G37*
G54D13*X105000Y40000D03*
X115000D03*
Y70000D03*
X105000D03*
X95000D03*
G54D16*Y80000D03*
X105000D03*
G54D13*X132500Y92500D03*
X135000Y70000D03*
X125000D03*
X142500Y92500D03*
X152500D03*
X165000Y70000D03*
X155000D03*
X145000D03*
X125000Y40000D03*
X135000D03*
X145000D03*
X155000D03*
X165000D03*
G54D17*X77500Y64626D03*
G54D15*X81000Y12000D03*
X71000D03*
X70000Y38000D03*
X75000Y25000D03*
X65000D03*
X60000Y38000D03*
X50000D03*
X40000D03*
X55000Y25000D03*
X45000D03*
X61000Y12000D03*
X51000D03*
X64000Y50000D03*
X59596Y62720D03*
X49596D03*
X39596D03*
X29596D03*
X54000Y50000D03*
X44000D03*
X34000D03*
G54D18*X20000Y20000D03*
Y155000D03*
X155000Y20000D03*
Y155000D03*
G54D16*X10000Y48000D03*
X149000Y79000D03*
G54D19*G54D20*G54D19*G54D21*G54D20*G54D21*G54D22*G54D20*G54D19*G54D22*G54D20*G54D19*G54D21*G54D19*G54D22*G54D20*G54D23*G54D21*M02*
