G04 start of page 10 for group -4079 idx -4079 *
G04 Title: logic, topsilk *
G04 Creator: pcb 20091103 *
G04 CreationDate: Tue 04 May 2010 05:21:54 PM GMT UTC *
G04 For: srussell *
G04 Format: Gerber/RS-274X *
G04 PCB-Dimensions: 175000 175000 *
G04 PCB-Coordinate-Origin: lower left *
%MOIN*%
%FSLAX25Y25*%
%LNFRONTSILK*%
%ADD14C,0.0200*%
%ADD29C,0.0100*%
G54D14*G36*
X106500Y132500D02*X111500Y137500D01*
X116500Y132500D01*
X106500D01*
G37*
G36*
X37500D02*X42500Y137500D01*
X47500Y132500D01*
X37500D01*
G37*
G54D29*X20000Y86000D02*X21000D01*
X20500D02*Y82000D01*
X20000D02*X21000D01*
X22701Y83500D02*Y82000D01*
Y83500D02*X23201Y84000D01*
X23701D01*
X24201Y83500D01*
Y82000D01*
X22201Y84000D02*X22701Y83500D01*
X41000Y85500D02*Y82500D01*
Y85500D02*X41500Y86000D01*
X42500D01*
X43000Y85500D01*
Y82500D01*
X42500Y82000D02*X43000Y82500D01*
X41500Y82000D02*X42500D01*
X41000Y82500D02*X41500Y82000D01*
X44201Y84000D02*Y82500D01*
X44701Y82000D01*
X45701D01*
X46201Y82500D01*
Y84000D02*Y82500D01*
X47902Y86000D02*Y82500D01*
X48402Y82000D01*
X47402Y84500D02*X48402D01*
X29500Y82000D02*X30500D01*
X30000Y86000D02*Y82000D01*
X29000Y85000D02*X30000Y86000D01*
X31701Y85500D02*X32201Y86000D01*
X33701D01*
X34201Y85500D01*
Y84500D01*
X31701Y82000D02*X34201Y84500D01*
X31701Y82000D02*X34201D01*
X35402Y86000D02*Y83000D01*
X36402Y82000D01*
X37402Y83000D01*
Y86000D02*Y83000D01*
X54000Y86000D02*X54500Y85500D01*
X52500Y86000D02*X54000D01*
X52000Y85500D02*X52500Y86000D01*
X52000Y85500D02*Y82500D01*
X52500Y82000D01*
X54000D01*
X54500Y82500D01*
Y83500D02*Y82500D01*
X54000Y84000D02*X54500Y83500D01*
X53000Y84000D02*X54000D01*
X55701Y86000D02*Y82000D01*
Y86000D02*Y85500D01*
X58201Y83000D01*
Y86000D02*Y82000D01*
X59902Y86000D02*Y82000D01*
X61402Y86000D02*X61902Y85500D01*
Y82500D01*
X61402Y82000D02*X61902Y82500D01*
X59402Y82000D02*X61402D01*
X59402Y86000D02*X61402D01*
X89500Y19000D02*Y15000D01*
X89000Y19000D02*X91000D01*
X91500Y18500D01*
Y17500D01*
X91000Y17000D02*X91500Y17500D01*
X89500Y17000D02*X91000D01*
X93201Y16500D02*Y15000D01*
Y16500D02*X93701Y17000D01*
X94701D01*
X92701D02*X93201Y16500D01*
X95902D02*Y15500D01*
Y16500D02*X96402Y17000D01*
X97402D01*
X97902Y16500D01*
Y15500D01*
X97402Y15000D02*X97902Y15500D01*
X96402Y15000D02*X97402D01*
X95902Y15500D02*X96402Y15000D01*
X99103Y17000D02*X101103Y15000D01*
X99103D02*X101103Y17000D01*
X102304Y19000D02*Y15000D01*
X104304D01*
X107005Y17000D02*X107505Y16500D01*
X106005Y17000D02*X107005D01*
X105505Y16500D02*X106005Y17000D01*
X105505Y16500D02*Y15500D01*
X106005Y15000D01*
X107505Y17000D02*Y15500D01*
X108005Y15000D01*
X106005D02*X107005D01*
X107505Y15500D01*
X109706Y16500D02*Y15000D01*
Y16500D02*X110206Y17000D01*
X110706D01*
X111206Y16500D01*
Y15000D01*
Y16500D02*X111706Y17000D01*
X112206D01*
X112706Y16500D01*
Y15000D01*
X109206Y17000D02*X109706Y16500D01*
X114407D02*Y13500D01*
X113907Y17000D02*X114407Y16500D01*
X114907Y17000D01*
X115907D01*
X116407Y16500D01*
Y15500D01*
X115907Y15000D02*X116407Y15500D01*
X114907Y15000D02*X115907D01*
X114407Y15500D02*X114907Y15000D01*
X119408Y19000D02*X121408D01*
X121908Y18500D01*
Y17500D01*
X121408Y17000D02*X121908Y17500D01*
X119908Y17000D02*X121408D01*
X119908Y19000D02*Y15000D01*
Y17000D02*X121908Y15000D01*
X123609D02*X125109D01*
X123109Y15500D02*X123609Y15000D01*
X123109Y16500D02*Y15500D01*
Y16500D02*X123609Y17000D01*
X124609D01*
X125109Y16500D01*
X123109Y16000D02*X125109D01*
Y16500D02*Y16000D01*
X126310Y17000D02*Y16000D01*
X127310Y15000D01*
X128310Y16000D01*
Y17000D02*Y16000D01*
X131311Y15500D02*X131811Y15000D01*
X131311Y18500D02*Y15500D01*
Y18500D02*X131811Y19000D01*
X132811D01*
X133311Y18500D01*
Y15500D01*
X132811Y15000D02*X133311Y15500D01*
X131811Y15000D02*X132811D01*
X131311Y16000D02*X133311Y18000D01*
X134512Y15500D02*X135012Y15000D01*
X134512Y18500D02*Y15500D01*
Y18500D02*X135012Y19000D01*
X136012D01*
X136512Y18500D01*
Y15500D01*
X136012Y15000D02*X136512Y15500D01*
X135012Y15000D02*X136012D01*
X134512Y16000D02*X136512Y18000D01*
X137713Y18500D02*X138213Y19000D01*
X139713D01*
X140213Y18500D01*
Y17500D01*
X137713Y15000D02*X140213Y17500D01*
X137713Y15000D02*X140213D01*
X89000Y13000D02*Y9000D01*
Y13000D02*X91000D01*
X89000Y11000D02*X90500D01*
X92701Y10500D02*Y9000D01*
Y10500D02*X93201Y11000D01*
X94201D01*
X92201D02*X92701Y10500D01*
X95402D02*Y9500D01*
Y10500D02*X95902Y11000D01*
X96902D01*
X97402Y10500D01*
Y9500D01*
X96902Y9000D02*X97402Y9500D01*
X95902Y9000D02*X96902D01*
X95402Y9500D02*X95902Y9000D01*
X99103Y10500D02*Y9000D01*
Y10500D02*X99603Y11000D01*
X100103D01*
X100603Y10500D01*
Y9000D01*
Y10500D02*X101103Y11000D01*
X101603D01*
X102103Y10500D01*
Y9000D01*
X98603Y11000D02*X99103Y10500D01*
X105104Y13000D02*Y9000D01*
Y13000D02*Y12500D01*
X107604Y10000D01*
Y13000D02*Y9000D01*
X108805Y12000D02*Y11500D01*
Y10500D02*Y9000D01*
X110306Y10500D02*Y9000D01*
Y10500D02*X110806Y11000D01*
X111306D01*
X111806Y10500D01*
Y9000D01*
X109806Y11000D02*X110306Y10500D01*
X113007Y12000D02*Y11500D01*
Y10500D02*Y9000D01*
X115808Y13000D02*Y9000D01*
X118308Y13000D02*Y9000D01*
X115808Y11000D02*X118308D01*
X119509D02*Y9500D01*
X120009Y9000D01*
X121009D01*
X121509Y9500D01*
Y11000D02*Y9500D01*
X89500Y7000D02*Y3000D01*
X91000Y7000D02*X91500Y6500D01*
Y3500D01*
X91000Y3000D02*X91500Y3500D01*
X89000Y3000D02*X91000D01*
X89000Y7000D02*X91000D01*
X93201Y3000D02*X94701D01*
X92701Y3500D02*X93201Y3000D01*
X92701Y4500D02*Y3500D01*
Y4500D02*X93201Y5000D01*
X94201D01*
X94701Y4500D01*
X92701Y4000D02*X94701D01*
Y4500D02*Y4000D01*
X96402Y3000D02*X97902D01*
X98402Y3500D01*
X97902Y4000D02*X98402Y3500D01*
X96402Y4000D02*X97902D01*
X95902Y4500D02*X96402Y4000D01*
X95902Y4500D02*X96402Y5000D01*
X97902D01*
X98402Y4500D01*
X95902Y3500D02*X96402Y3000D01*
X99603Y6000D02*Y5500D01*
Y4500D02*Y3000D01*
X102104Y5000D02*X102604Y4500D01*
X101104Y5000D02*X102104D01*
X100604Y4500D02*X101104Y5000D01*
X100604Y4500D02*Y3500D01*
X101104Y3000D01*
X102104D01*
X102604Y3500D01*
X100604Y2000D02*X101104Y1500D01*
X102104D01*
X102604Y2000D01*
Y5000D02*Y2000D01*
X104305Y4500D02*Y3000D01*
Y4500D02*X104805Y5000D01*
X105305D01*
X105805Y4500D01*
Y3000D01*
X103805Y5000D02*X104305Y4500D01*
X107006Y5500D02*X107506D01*
X107006Y4500D02*X107506D01*
X112507Y7000D02*X113007Y6500D01*
X111007Y7000D02*X112507D01*
X110507Y6500D02*X111007Y7000D01*
X110507Y6500D02*Y5500D01*
X111007Y5000D01*
X112507D01*
X113007Y4500D01*
Y3500D01*
X112507Y3000D02*X113007Y3500D01*
X111007Y3000D02*X112507D01*
X110507Y3500D02*X111007Y3000D01*
X114708Y4500D02*Y1500D01*
X114208Y5000D02*X114708Y4500D01*
X115208Y5000D01*
X116208D01*
X116708Y4500D01*
Y3500D01*
X116208Y3000D02*X116708Y3500D01*
X115208Y3000D02*X116208D01*
X114708Y3500D02*X115208Y3000D01*
X118409D02*X119909D01*
X117909Y3500D02*X118409Y3000D01*
X117909Y4500D02*Y3500D01*
Y4500D02*X118409Y5000D01*
X119409D01*
X119909Y4500D01*
X117909Y4000D02*X119909D01*
Y4500D02*Y4000D01*
X121610Y4500D02*Y3000D01*
Y4500D02*X122110Y5000D01*
X122610D01*
X123110Y4500D01*
Y3000D01*
X121110Y5000D02*X121610Y4500D01*
X124811Y5000D02*X126311D01*
X124311Y4500D02*X124811Y5000D01*
X124311Y4500D02*Y3500D01*
X124811Y3000D01*
X126311D01*
X128012D02*X129512D01*
X127512Y3500D02*X128012Y3000D01*
X127512Y4500D02*Y3500D01*
Y4500D02*X128012Y5000D01*
X129012D01*
X129512Y4500D01*
X127512Y4000D02*X129512D01*
Y4500D02*Y4000D01*
X131213Y4500D02*Y3000D01*
Y4500D02*X131713Y5000D01*
X132713D01*
X130713D02*X131213Y4500D01*
X135714Y7000D02*X137714D01*
X138214Y6500D01*
Y5500D01*
X137714Y5000D02*X138214Y5500D01*
X136214Y5000D02*X137714D01*
X136214Y7000D02*Y3000D01*
Y5000D02*X138214Y3000D01*
X139415Y5000D02*Y3500D01*
X139915Y3000D01*
X140915D01*
X141415Y3500D01*
Y5000D02*Y3500D01*
X143116Y3000D02*X144616D01*
X145116Y3500D01*
X144616Y4000D02*X145116Y3500D01*
X143116Y4000D02*X144616D01*
X142616Y4500D02*X143116Y4000D01*
X142616Y4500D02*X143116Y5000D01*
X144616D01*
X145116Y4500D01*
X142616Y3500D02*X143116Y3000D01*
X146817D02*X148317D01*
X148817Y3500D01*
X148317Y4000D02*X148817Y3500D01*
X146817Y4000D02*X148317D01*
X146317Y4500D02*X146817Y4000D01*
X146317Y4500D02*X146817Y5000D01*
X148317D01*
X148817Y4500D01*
X146317Y3500D02*X146817Y3000D01*
X150518D02*X152018D01*
X150018Y3500D02*X150518Y3000D01*
X150018Y4500D02*Y3500D01*
Y4500D02*X150518Y5000D01*
X151518D01*
X152018Y4500D01*
X150018Y4000D02*X152018D01*
Y4500D02*Y4000D01*
X153219Y7000D02*Y3500D01*
X153719Y3000D01*
X154720Y7000D02*Y3500D01*
X155220Y3000D01*
X17500Y127500D02*X157500D01*
X17500D02*Y87500D01*
X157500D01*
Y127500D02*Y112500D01*
Y102500D02*Y87500D01*
Y112500D02*G75*G03X157500Y102500I0J-5000D01*G01*
X90000Y35000D02*X170000D01*
Y75000D02*Y35000D01*
X90000Y75000D02*X170000D01*
X90000Y50000D02*Y35000D01*
Y75000D02*Y60000D01*
Y50000D02*G75*G03X90000Y60000I0J5000D01*G01*
Y77500D02*X110000D01*
X90000Y82500D02*Y77500D01*
Y82500D02*X110000D01*
Y77500D01*
X35000Y43000D02*Y33000D01*
Y43000D02*X75000D01*
X35000Y33000D02*X75000D01*
Y43000D02*Y33000D01*
X65000Y43000D02*Y33000D01*
X40000Y30000D02*Y20000D01*
Y30000D02*X80000D01*
X40000Y20000D02*X80000D01*
Y30000D02*Y20000D01*
X70000Y30000D02*Y20000D01*
X46000Y17000D02*Y7000D01*
Y17000D02*X86000D01*
X46000Y7000D02*X86000D01*
Y17000D02*Y7000D01*
X76000Y17000D02*Y7000D01*
X80452Y64626D02*X84389D01*
X82421Y66594D02*Y62657D01*
Y74468D02*Y71516D01*
X77500Y58720D02*G75*G03X77500Y58720I0J9843D01*G01*
X29000Y55000D02*Y45000D01*
Y55000D02*X69000D01*
X29000Y45000D02*X69000D01*
Y55000D02*Y45000D01*
X59000Y55000D02*Y45000D01*
X24596Y67720D02*Y57720D01*
Y67720D02*X64596D01*
X24596Y57720D02*X64596D01*
Y67720D02*Y57720D01*
X54596Y67720D02*Y57720D01*
X20000Y80500D02*Y70500D01*
Y80500D02*X60000D01*
X20000Y70500D02*X60000D01*
Y80500D02*Y70500D01*
X50000Y80500D02*Y70500D01*
X77500Y137500D02*X97500D01*
Y132500D01*
X77500D02*X97500D01*
X77500Y137500D02*Y132500D01*
X92500Y156889D02*Y152952D01*
X90532Y154921D02*X94469D01*
X82658D02*X85610D01*
X98406Y150000D02*G75*G03X98406Y150000I-9843J0D01*G01*
X106501Y137500D02*X136501D01*
Y157500D02*Y137500D01*
X106501Y157500D02*X136501D01*
X106501D02*Y137500D01*
X116501Y147500D02*Y137500D01*
X106501Y147500D02*X116501D01*
X37000Y137000D02*X67000D01*
Y157000D02*Y137000D01*
X37000Y157000D02*X67000D01*
X37000D02*Y137000D01*
X47000Y147000D02*Y137000D01*
X37000Y147000D02*X47000D01*
X70500Y132500D02*X72000D01*
X70000Y133000D02*X70500Y132500D01*
X70000Y136000D02*Y133000D01*
Y136000D02*X70500Y136500D01*
X72000D01*
X73701Y132500D02*X74701D01*
X74201Y136500D02*Y132500D01*
X73201Y135500D02*X74201Y136500D01*
X106501Y162500D02*X107501D01*
X107001D02*Y158500D01*
X106501D02*X107501D01*
X109202D02*X110702D01*
X108702Y159000D02*X109202Y158500D01*
X108702Y162000D02*Y159000D01*
Y162000D02*X109202Y162500D01*
X110702D01*
X113903D02*X114403Y162000D01*
X112403Y162500D02*X113903D01*
X111903Y162000D02*X112403Y162500D01*
X111903Y162000D02*Y161000D01*
X112403Y160500D01*
X113903D01*
X114403Y160000D01*
Y159000D01*
X113903Y158500D02*X114403Y159000D01*
X112403Y158500D02*X113903D01*
X111903Y159000D02*X112403Y158500D01*
X116104Y162500D02*Y158500D01*
X115604Y162500D02*X117604D01*
X118104Y162000D01*
Y161000D01*
X117604Y160500D02*X118104Y161000D01*
X116104Y160500D02*X117604D01*
X90032Y161157D02*X91532D01*
X89532Y161657D02*X90032Y161157D01*
X89532Y164657D02*Y161657D01*
Y164657D02*X90032Y165157D01*
X91532D01*
X92733Y164657D02*X93233Y165157D01*
X94733D01*
X95233Y164657D01*
Y163657D01*
X92733Y161157D02*X95233Y163657D01*
X92733Y161157D02*X95233D01*
X142500Y111500D02*Y108000D01*
X143000Y107500D01*
X144000D01*
X144500Y108000D01*
Y111500D02*Y108000D01*
X146201Y107500D02*X147201D01*
X146701Y111500D02*Y107500D01*
X145701Y110500D02*X146701Y111500D01*
X100000Y56000D02*Y52500D01*
X100500Y52000D01*
X101500D01*
X102000Y52500D01*
Y56000D02*Y52500D01*
X103201Y56000D02*X105201D01*
X103201D02*Y54000D01*
X103701Y54500D01*
X104701D01*
X105201Y54000D01*
Y52500D01*
X104701Y52000D02*X105201Y52500D01*
X103701Y52000D02*X104701D01*
X103201Y52500D02*X103701Y52000D01*
X74843Y67158D02*Y65658D01*
X74343Y65158D02*X74843Y65658D01*
X71343Y65158D02*X74343D01*
X71343D02*X70843Y65658D01*
Y67158D02*Y65658D01*
X72843Y68359D02*X70843Y70359D01*
X72843Y70859D02*Y68359D01*
X70843Y70359D02*X74843D01*
X113000Y77500D02*X114500D01*
X112500Y78000D02*X113000Y77500D01*
X112500Y81000D02*Y78000D01*
Y81000D02*X113000Y81500D01*
X114500D01*
X115701Y81000D02*X116201Y81500D01*
X117201D01*
X117701Y81000D01*
Y78000D01*
X117201Y77500D02*X117701Y78000D01*
X116201Y77500D02*X117201D01*
X115701Y78000D02*X116201Y77500D01*
Y79500D02*X117701D01*
X37000Y162000D02*X39000D01*
X38000D02*Y158000D01*
X40201Y161500D02*Y158500D01*
Y161500D02*X40701Y162000D01*
X41701D01*
X42201Y161500D01*
Y158500D01*
X41701Y158000D02*X42201Y158500D01*
X40701Y158000D02*X41701D01*
X40201Y158500D02*X40701Y158000D01*
X43402D02*X45402D01*
X46603Y162000D02*Y158000D01*
X49103Y162000D02*Y158000D01*
X46603Y160000D02*X49103D01*
X50304Y162000D02*Y159000D01*
X51304Y158000D01*
X52304Y159000D01*
Y162000D02*Y159000D01*
X22596Y66720D02*X22096Y66220D01*
X22596Y68220D02*Y66720D01*
X22096Y68720D02*X22596Y68220D01*
X21096Y68720D02*X22096D01*
X21096D02*X20596Y68220D01*
Y66720D01*
X20096Y66220D01*
X19096D02*X20096D01*
X18596Y66720D02*X19096Y66220D01*
X18596Y68220D02*Y66720D01*
X19096Y68720D02*X18596Y68220D01*
X20596Y65019D02*Y63519D01*
X18596Y65019D02*Y63019D01*
Y65019D02*X22596D01*
Y63019D01*
X18596Y61818D02*X22596D01*
X22096D02*X22596D01*
X22096D02*X19596Y59318D01*
X18596D02*X22596D01*
X20596Y58117D02*X22596Y56117D01*
X20596Y58117D02*Y55617D01*
X18596Y56117D02*X22596D01*
X18000Y80500D02*X17500Y80000D01*
X18000Y82000D02*Y80500D01*
X17500Y82500D02*X18000Y82000D01*
X16500Y82500D02*X17500D01*
X16500D02*X16000Y82000D01*
Y80500D01*
X15500Y80000D01*
X14500D02*X15500D01*
X14000Y80500D02*X14500Y80000D01*
X14000Y82000D02*Y80500D01*
X14500Y82500D02*X14000Y82000D01*
X16000Y78799D02*Y77299D01*
X14000Y78799D02*Y76799D01*
Y78799D02*X18000D01*
Y76799D01*
X14000Y75598D02*X18000D01*
X17500D02*X18000D01*
X17500D02*X15000Y73098D01*
X14000D02*X18000D01*
Y71897D02*Y69897D01*
X16000Y71897D02*X18000D01*
X16000D02*X16500Y71397D01*
Y70397D01*
X16000Y69897D01*
X14500D02*X16000D01*
X14000Y70397D02*X14500Y69897D01*
X14000Y71397D02*Y70397D01*
X14500Y71897D02*X14000Y71397D01*
X38633Y28089D02*X38133Y27589D01*
X38633Y29589D02*Y28089D01*
X38133Y30089D02*X38633Y29589D01*
X37133Y30089D02*X38133D01*
X37133D02*X36633Y29589D01*
Y28089D01*
X36133Y27589D01*
X35133D02*X36133D01*
X34633Y28089D02*X35133Y27589D01*
X34633Y29589D02*Y28089D01*
X35133Y30089D02*X34633Y29589D01*
X36633Y26388D02*Y24888D01*
X34633Y26388D02*Y24388D01*
Y26388D02*X38633D01*
Y24388D01*
X34633Y23187D02*X38633D01*
X38133D02*X38633D01*
X38133D02*X35633Y20687D01*
X34633D02*X38633D01*
X34633Y18986D02*Y17986D01*
Y18486D02*X38633D01*
X37633Y19486D02*X38633Y18486D01*
X33633Y41089D02*X33133Y40589D01*
X33633Y42589D02*Y41089D01*
X33133Y43089D02*X33633Y42589D01*
X32133Y43089D02*X33133D01*
X32133D02*X31633Y42589D01*
Y41089D01*
X31133Y40589D01*
X30133D02*X31133D01*
X29633Y41089D02*X30133Y40589D01*
X29633Y42589D02*Y41089D01*
X30133Y43089D02*X29633Y42589D01*
X31633Y39388D02*Y37888D01*
X29633Y39388D02*Y37388D01*
Y39388D02*X33633D01*
Y37388D01*
X29633Y36187D02*X33633D01*
X33133D02*X33633D01*
X33133D02*X30633Y33687D01*
X29633D02*X33633D01*
X33133Y32486D02*X33633Y31986D01*
Y30486D01*
X33133Y29986D01*
X32133D02*X33133D01*
X29633Y32486D02*X32133Y29986D01*
X29633Y32486D02*Y29986D01*
X27898Y54078D02*X27398Y53578D01*
X27898Y55578D02*Y54078D01*
X27398Y56078D02*X27898Y55578D01*
X26398Y56078D02*X27398D01*
X26398D02*X25898Y55578D01*
Y54078D01*
X25398Y53578D01*
X24398D02*X25398D01*
X23898Y54078D02*X24398Y53578D01*
X23898Y55578D02*Y54078D01*
X24398Y56078D02*X23898Y55578D01*
X25898Y52377D02*Y50877D01*
X23898Y52377D02*Y50377D01*
Y52377D02*X27898D01*
Y50377D01*
X23898Y49176D02*X27898D01*
X27398D02*X27898D01*
X27398D02*X24898Y46676D01*
X23898D02*X27898D01*
X27398Y45475D02*X27898Y44975D01*
Y43975D01*
X27398Y43475D01*
X24398D02*X27398D01*
X23898Y43975D02*X24398Y43475D01*
X23898Y44975D02*Y43975D01*
X24398Y45475D02*X23898Y44975D01*
X25898D02*Y43475D01*
X44941Y16517D02*X44441Y16017D01*
X44941Y18017D02*Y16517D01*
X44441Y18517D02*X44941Y18017D01*
X43441Y18517D02*X44441D01*
X43441D02*X42941Y18017D01*
Y16517D01*
X42441Y16017D01*
X41441D02*X42441D01*
X40941Y16517D02*X41441Y16017D01*
X40941Y18017D02*Y16517D01*
X41441Y18517D02*X40941Y18017D01*
X42941Y14816D02*Y13316D01*
X40941Y14816D02*Y12816D01*
Y14816D02*X44941D01*
Y12816D01*
X40941Y11615D02*X44941D01*
X44441D02*X44941D01*
X44441D02*X41941Y9115D01*
X40941D02*X44941D01*
X41441Y7914D02*X40941Y7414D01*
X41441Y7914D02*X44441D01*
X44941Y7414D01*
Y6414D01*
X44441Y5914D01*
X41441D02*X44441D01*
X40941Y6414D02*X41441Y5914D01*
X40941Y7414D02*Y6414D01*
X41941Y7914D02*X43941Y5914D01*
M02*
